<?xml version="1.0" encoding="utf-8" standalone="no"?>
<!DOCTYPE svg PUBLIC "-//W3C//DTD SVG 1.1//EN"
  "http://www.w3.org/Graphics/SVG/1.1/DTD/svg11.dtd">
<!-- Created with matplotlib (http://matplotlib.org/) -->
<svg height="683.28pt" version="1.1" viewBox="0 0 1382.4 683.28" width="1382.4pt" xmlns="http://www.w3.org/2000/svg" xmlns:xlink="http://www.w3.org/1999/xlink">
 <defs>
  <style type="text/css">
*{stroke-linecap:butt;stroke-linejoin:round;}
  </style>
 </defs>
 <g id="figure_1">
  <g id="patch_1">
   <path d="M 0 683.28 
L 1382.4 683.28 
L 1382.4 0 
L 0 0 
z
" style="fill:#ffffff;"/>
  </g>
  <g id="axes_1">
   <g id="patch_2">
    <path d="M 172.8 608.1192 
L 1244.16 608.1192 
L 1244.16 81.9936 
L 172.8 81.9936 
z
" style="fill:#ffffff;"/>
   </g>
   <g id="matplotlib.axis_1">
    <g id="xtick_1">
     <g id="line2d_1">
      <defs>
       <path d="M 0 0 
L 0 3.5 
" id="md5d0616761" style="stroke:#000000;stroke-width:0.8;"/>
      </defs>
      <g>
       <use style="stroke:#000000;stroke-width:0.8;" x="292.149967" xlink:href="#md5d0616761" y="608.1192"/>
      </g>
     </g>
     <g id="text_1">
      <!-- 2 -->
      <defs>
       <path d="M 19.1875 8.296875 
L 53.609375 8.296875 
L 53.609375 0 
L 7.328125 0 
L 7.328125 8.296875 
Q 12.9375 14.109375 22.625 23.890625 
Q 32.328125 33.6875 34.8125 36.53125 
Q 39.546875 41.84375 41.421875 45.53125 
Q 43.3125 49.21875 43.3125 52.78125 
Q 43.3125 58.59375 39.234375 62.25 
Q 35.15625 65.921875 28.609375 65.921875 
Q 23.96875 65.921875 18.8125 64.3125 
Q 13.671875 62.703125 7.8125 59.421875 
L 7.8125 69.390625 
Q 13.765625 71.78125 18.9375 73 
Q 24.125 74.21875 28.421875 74.21875 
Q 39.75 74.21875 46.484375 68.546875 
Q 53.21875 62.890625 53.21875 53.421875 
Q 53.21875 48.921875 51.53125 44.890625 
Q 49.859375 40.875 45.40625 35.40625 
Q 44.1875 33.984375 37.640625 27.21875 
Q 31.109375 20.453125 19.1875 8.296875 
z
" id="DejaVuSans-32"/>
      </defs>
      <g transform="translate(288.968717 622.717638)scale(0.1 -0.1)">
       <use xlink:href="#DejaVuSans-32"/>
      </g>
     </g>
    </g>
    <g id="xtick_2">
     <g id="line2d_2">
      <g>
       <use style="stroke:#000000;stroke-width:0.8;" x="520.874541" xlink:href="#md5d0616761" y="608.1192"/>
      </g>
     </g>
     <g id="text_2">
      <!-- 4 -->
      <defs>
       <path d="M 37.796875 64.3125 
L 12.890625 25.390625 
L 37.796875 25.390625 
z
M 35.203125 72.90625 
L 47.609375 72.90625 
L 47.609375 25.390625 
L 58.015625 25.390625 
L 58.015625 17.1875 
L 47.609375 17.1875 
L 47.609375 0 
L 37.796875 0 
L 37.796875 17.1875 
L 4.890625 17.1875 
L 4.890625 26.703125 
z
" id="DejaVuSans-34"/>
      </defs>
      <g transform="translate(517.693291 622.717638)scale(0.1 -0.1)">
       <use xlink:href="#DejaVuSans-34"/>
      </g>
     </g>
    </g>
    <g id="xtick_3">
     <g id="line2d_3">
      <g>
       <use style="stroke:#000000;stroke-width:0.8;" x="749.599115" xlink:href="#md5d0616761" y="608.1192"/>
      </g>
     </g>
     <g id="text_3">
      <!-- 6 -->
      <defs>
       <path d="M 33.015625 40.375 
Q 26.375 40.375 22.484375 35.828125 
Q 18.609375 31.296875 18.609375 23.390625 
Q 18.609375 15.53125 22.484375 10.953125 
Q 26.375 6.390625 33.015625 6.390625 
Q 39.65625 6.390625 43.53125 10.953125 
Q 47.40625 15.53125 47.40625 23.390625 
Q 47.40625 31.296875 43.53125 35.828125 
Q 39.65625 40.375 33.015625 40.375 
z
M 52.59375 71.296875 
L 52.59375 62.3125 
Q 48.875 64.0625 45.09375 64.984375 
Q 41.3125 65.921875 37.59375 65.921875 
Q 27.828125 65.921875 22.671875 59.328125 
Q 17.53125 52.734375 16.796875 39.40625 
Q 19.671875 43.65625 24.015625 45.921875 
Q 28.375 48.1875 33.59375 48.1875 
Q 44.578125 48.1875 50.953125 41.515625 
Q 57.328125 34.859375 57.328125 23.390625 
Q 57.328125 12.15625 50.6875 5.359375 
Q 44.046875 -1.421875 33.015625 -1.421875 
Q 20.359375 -1.421875 13.671875 8.265625 
Q 6.984375 17.96875 6.984375 36.375 
Q 6.984375 53.65625 15.1875 63.9375 
Q 23.390625 74.21875 37.203125 74.21875 
Q 40.921875 74.21875 44.703125 73.484375 
Q 48.484375 72.75 52.59375 71.296875 
z
" id="DejaVuSans-36"/>
      </defs>
      <g transform="translate(746.417865 622.717638)scale(0.1 -0.1)">
       <use xlink:href="#DejaVuSans-36"/>
      </g>
     </g>
    </g>
    <g id="xtick_4">
     <g id="line2d_4">
      <g>
       <use style="stroke:#000000;stroke-width:0.8;" x="978.323688" xlink:href="#md5d0616761" y="608.1192"/>
      </g>
     </g>
     <g id="text_4">
      <!-- 8 -->
      <defs>
       <path d="M 31.78125 34.625 
Q 24.75 34.625 20.71875 30.859375 
Q 16.703125 27.09375 16.703125 20.515625 
Q 16.703125 13.921875 20.71875 10.15625 
Q 24.75 6.390625 31.78125 6.390625 
Q 38.8125 6.390625 42.859375 10.171875 
Q 46.921875 13.96875 46.921875 20.515625 
Q 46.921875 27.09375 42.890625 30.859375 
Q 38.875 34.625 31.78125 34.625 
z
M 21.921875 38.8125 
Q 15.578125 40.375 12.03125 44.71875 
Q 8.5 49.078125 8.5 55.328125 
Q 8.5 64.0625 14.71875 69.140625 
Q 20.953125 74.21875 31.78125 74.21875 
Q 42.671875 74.21875 48.875 69.140625 
Q 55.078125 64.0625 55.078125 55.328125 
Q 55.078125 49.078125 51.53125 44.71875 
Q 48 40.375 41.703125 38.8125 
Q 48.828125 37.15625 52.796875 32.3125 
Q 56.78125 27.484375 56.78125 20.515625 
Q 56.78125 9.90625 50.3125 4.234375 
Q 43.84375 -1.421875 31.78125 -1.421875 
Q 19.734375 -1.421875 13.25 4.234375 
Q 6.78125 9.90625 6.78125 20.515625 
Q 6.78125 27.484375 10.78125 32.3125 
Q 14.796875 37.15625 21.921875 38.8125 
z
M 18.3125 54.390625 
Q 18.3125 48.734375 21.84375 45.5625 
Q 25.390625 42.390625 31.78125 42.390625 
Q 38.140625 42.390625 41.71875 45.5625 
Q 45.3125 48.734375 45.3125 54.390625 
Q 45.3125 60.0625 41.71875 63.234375 
Q 38.140625 66.40625 31.78125 66.40625 
Q 25.390625 66.40625 21.84375 63.234375 
Q 18.3125 60.0625 18.3125 54.390625 
z
" id="DejaVuSans-38"/>
      </defs>
      <g transform="translate(975.142438 622.717638)scale(0.1 -0.1)">
       <use xlink:href="#DejaVuSans-38"/>
      </g>
     </g>
    </g>
    <g id="xtick_5">
     <g id="line2d_5">
      <g>
       <use style="stroke:#000000;stroke-width:0.8;" x="1207.048262" xlink:href="#md5d0616761" y="608.1192"/>
      </g>
     </g>
     <g id="text_5">
      <!-- 10 -->
      <defs>
       <path d="M 12.40625 8.296875 
L 28.515625 8.296875 
L 28.515625 63.921875 
L 10.984375 60.40625 
L 10.984375 69.390625 
L 28.421875 72.90625 
L 38.28125 72.90625 
L 38.28125 8.296875 
L 54.390625 8.296875 
L 54.390625 0 
L 12.40625 0 
z
" id="DejaVuSans-31"/>
       <path d="M 31.78125 66.40625 
Q 24.171875 66.40625 20.328125 58.90625 
Q 16.5 51.421875 16.5 36.375 
Q 16.5 21.390625 20.328125 13.890625 
Q 24.171875 6.390625 31.78125 6.390625 
Q 39.453125 6.390625 43.28125 13.890625 
Q 47.125 21.390625 47.125 36.375 
Q 47.125 51.421875 43.28125 58.90625 
Q 39.453125 66.40625 31.78125 66.40625 
z
M 31.78125 74.21875 
Q 44.046875 74.21875 50.515625 64.515625 
Q 56.984375 54.828125 56.984375 36.375 
Q 56.984375 17.96875 50.515625 8.265625 
Q 44.046875 -1.421875 31.78125 -1.421875 
Q 19.53125 -1.421875 13.0625 8.265625 
Q 6.59375 17.96875 6.59375 36.375 
Q 6.59375 54.828125 13.0625 64.515625 
Q 19.53125 74.21875 31.78125 74.21875 
z
" id="DejaVuSans-30"/>
      </defs>
      <g transform="translate(1200.685762 622.717638)scale(0.1 -0.1)">
       <use xlink:href="#DejaVuSans-31"/>
       <use x="63.623047" xlink:href="#DejaVuSans-30"/>
      </g>
     </g>
    </g>
   </g>
   <g id="matplotlib.axis_2">
    <g id="ytick_1">
     <g id="line2d_6">
      <defs>
       <path d="M 0 0 
L -3.5 0 
" id="m844b60eb45" style="stroke:#000000;stroke-width:0.8;"/>
      </defs>
      <g>
       <use style="stroke:#000000;stroke-width:0.8;" x="172.8" xlink:href="#m844b60eb45" y="555.695646"/>
      </g>
     </g>
     <g id="text_6">
      <!-- 0 -->
      <g transform="translate(159.4375 559.494864)scale(0.1 -0.1)">
       <use xlink:href="#DejaVuSans-30"/>
      </g>
     </g>
    </g>
    <g id="ytick_2">
     <g id="line2d_7">
      <g>
       <use style="stroke:#000000;stroke-width:0.8;" x="172.8" xlink:href="#m844b60eb45" y="455.773357"/>
      </g>
     </g>
     <g id="text_7">
      <!-- 5 -->
      <defs>
       <path d="M 10.796875 72.90625 
L 49.515625 72.90625 
L 49.515625 64.59375 
L 19.828125 64.59375 
L 19.828125 46.734375 
Q 21.96875 47.46875 24.109375 47.828125 
Q 26.265625 48.1875 28.421875 48.1875 
Q 40.625 48.1875 47.75 41.5 
Q 54.890625 34.8125 54.890625 23.390625 
Q 54.890625 11.625 47.5625 5.09375 
Q 40.234375 -1.421875 26.90625 -1.421875 
Q 22.3125 -1.421875 17.546875 -0.640625 
Q 12.796875 0.140625 7.71875 1.703125 
L 7.71875 11.625 
Q 12.109375 9.234375 16.796875 8.0625 
Q 21.484375 6.890625 26.703125 6.890625 
Q 35.15625 6.890625 40.078125 11.328125 
Q 45.015625 15.765625 45.015625 23.390625 
Q 45.015625 31 40.078125 35.4375 
Q 35.15625 39.890625 26.703125 39.890625 
Q 22.75 39.890625 18.8125 39.015625 
Q 14.890625 38.140625 10.796875 36.28125 
z
" id="DejaVuSans-35"/>
      </defs>
      <g transform="translate(159.4375 459.572576)scale(0.1 -0.1)">
       <use xlink:href="#DejaVuSans-35"/>
      </g>
     </g>
    </g>
    <g id="ytick_3">
     <g id="line2d_8">
      <g>
       <use style="stroke:#000000;stroke-width:0.8;" x="172.8" xlink:href="#m844b60eb45" y="355.851068"/>
      </g>
     </g>
     <g id="text_8">
      <!-- 10 -->
      <g transform="translate(153.075 359.650287)scale(0.1 -0.1)">
       <use xlink:href="#DejaVuSans-31"/>
       <use x="63.623047" xlink:href="#DejaVuSans-30"/>
      </g>
     </g>
    </g>
    <g id="ytick_4">
     <g id="line2d_9">
      <g>
       <use style="stroke:#000000;stroke-width:0.8;" x="172.8" xlink:href="#m844b60eb45" y="255.928779"/>
      </g>
     </g>
     <g id="text_9">
      <!-- 15 -->
      <g transform="translate(153.075 259.727998)scale(0.1 -0.1)">
       <use xlink:href="#DejaVuSans-31"/>
       <use x="63.623047" xlink:href="#DejaVuSans-35"/>
      </g>
     </g>
    </g>
    <g id="ytick_5">
     <g id="line2d_10">
      <g>
       <use style="stroke:#000000;stroke-width:0.8;" x="172.8" xlink:href="#m844b60eb45" y="156.00649"/>
      </g>
     </g>
     <g id="text_10">
      <!-- 20 -->
      <g transform="translate(153.075 159.805709)scale(0.1 -0.1)">
       <use xlink:href="#DejaVuSans-32"/>
       <use x="63.623047" xlink:href="#DejaVuSans-30"/>
      </g>
     </g>
    </g>
   </g>
   <g id="line2d_11">
    <path clip-path="url(#pbef859ca10)" d="M 221.498182 529.476818 
L 232.006441 529.653275 
L 242.699657 529.814 
L 253.540242 529.959463 
L 264.496926 530.087563 
L 275.538239 530.198397 
L 286.623993 530.29002 
L 297.7241 530.362835 
L 308.801242 530.416114 
L 319.830924 530.45146 
L 330.779032 530.468159 
L 341.617489 530.467004 
L 352.315989 530.449428 
L 362.859941 530.413898 
L 373.225635 530.362486 
L 383.391162 530.296431 
L 388.400219 530.257625 
L 393.351934 530.215746 
L 398.247349 530.170615 
L 403.085205 530.122195 
L 407.862301 530.07114 
L 412.585235 530.016783 
L 417.244983 529.959931 
L 421.844017 529.900463 
L 426.380757 529.838643 
L 426.831162 529.83228 
L 427.280674 529.825917 
L 427.729592 529.819518 
L 428.177721 529.813129 
L 428.625632 529.806816 
L 429.072605 529.800341 
L 429.519293 529.79396 
L 429.964997 529.787427 
L 430.409981 529.780952 
L 430.854907 529.774457 
L 431.298564 529.767904 
L 431.742256 529.761369 
L 432.184609 529.754816 
L 432.626745 529.748253 
L 433.068275 529.741633 
L 433.509016 529.73503 
L 433.949174 529.728401 
L 434.388588 529.72162 
L 434.82751 529.715011 
L 435.265769 529.708284 
L 439.612691 529.640129 
L 443.896657 529.570372 
L 448.116202 529.498783 
L 452.271853 529.425764 
L 456.362043 529.351686 
L 460.388179 529.276396 
L 464.349437 529.200182 
L 468.246629 529.123295 
L 472.079881 529.045818 
L 475.848931 528.967812 
L 479.554566 528.889585 
L 483.198286 528.81121 
L 486.779438 528.732839 
L 490.299669 528.654546 
L 493.75938 528.576467 
L 497.159725 528.498733 
L 500.501346 528.421461 
L 503.787066 528.344651 
L 507.01549 528.268454 
L 522.357191 527.898162 
L 536.480236 527.550361 
L 549.55475 527.226279 
L 561.704622 526.928143 
L 573.074898 526.652893 
L 583.772095 526.400711 
L 593.885335 526.168923 
L 603.514502 525.956057 
L 638.314294 525.254622 
L 669.122751 524.73485 
L 697.526272 524.338303 
L 724.399865 524.031252 
L 750.257292 523.788676 
L 775.408716 523.596324 
L 800.054292 523.442314 
L 824.324954 523.318826 
L 848.307286 523.219441 
L 872.063352 523.139419 
L 895.635203 523.075011 
L 919.057023 523.022946 
L 942.355388 522.980675 
L 965.558421 522.946263 
L 988.685918 522.918567 
L 1011.75844 522.896506 
L 1034.792812 522.877992 
L 1057.801578 522.863006 
L 1080.782839 522.851523 
L 1103.709482 522.842018 
L 1126.69295 522.833851 
L 1149.626191 522.827668 
L 1172.548716 522.822845 
L 1195.461818 522.818489 
" style="fill:none;stroke:#0000ff;stroke-linecap:square;stroke-width:1.5;"/>
   </g>
   <g id="line2d_12">
    <path clip-path="url(#pbef859ca10)" d="M 221.498182 528.072912 
L 232.006441 526.236626 
L 242.699657 524.36802 
L 253.540242 522.473661 
L 264.496926 520.559014 
L 275.538239 518.629579 
L 286.623993 516.692377 
L 297.7241 514.752668 
L 308.801242 512.816971 
L 319.830924 510.889568 
L 330.779032 508.97642 
L 341.617489 507.082433 
L 352.315989 505.212903 
L 362.859941 503.37038 
L 373.225635 501.559007 
L 383.391162 499.782612 
L 388.400219 498.907295 
L 393.351934 498.041998 
L 398.247349 497.186539 
L 403.085205 496.341139 
L 407.862301 495.506356 
L 412.585235 494.681038 
L 417.244983 493.866761 
L 421.844017 493.063094 
L 426.380757 492.270313 
L 426.831162 492.191606 
L 427.280674 492.113055 
L 427.729592 492.034608 
L 428.177721 491.956299 
L 428.625632 491.878028 
L 429.072605 491.79992 
L 429.519293 491.721863 
L 429.964997 491.643978 
L 430.409981 491.566218 
L 430.854907 491.488469 
L 431.298564 491.410941 
L 431.742256 491.333407 
L 432.184609 491.256107 
L 432.626745 491.178845 
L 433.068275 491.101689 
L 433.509016 491.024671 
L 433.949174 490.947755 
L 434.388588 490.870969 
L 434.82751 490.794268 
L 435.265769 490.717684 
L 439.612691 489.958073 
L 443.896657 489.209463 
L 448.116202 488.47211 
L 452.271853 487.745923 
L 456.362043 487.031175 
L 460.388179 486.32762 
L 464.349437 485.635403 
L 468.246629 484.95438 
L 472.079881 484.284531 
L 475.848931 483.625901 
L 479.554566 482.978353 
L 483.198286 482.341624 
L 486.779438 481.715829 
L 490.299669 481.100679 
L 493.75938 480.496106 
L 497.159725 479.901906 
L 500.501346 479.317968 
L 503.787066 478.743798 
L 507.01549 478.179641 
L 522.357191 475.498726 
L 536.480236 473.030767 
L 549.55475 470.746036 
L 561.704622 468.622883 
L 573.074898 466.635963 
L 583.772095 464.766661 
L 593.885335 462.999403 
L 603.514502 461.316736 
L 638.314294 455.235579 
L 669.122751 449.851896 
L 697.526272 444.888468 
L 724.399865 440.19239 
L 750.257292 435.673884 
L 775.408716 431.278751 
L 800.054292 426.972012 
L 824.324954 422.730788 
L 848.307286 418.53995 
L 872.063352 414.38865 
L 895.635203 410.269542 
L 919.057023 406.176651 
L 942.355388 402.105333 
L 965.558421 398.050675 
L 988.685918 394.009216 
L 1011.75844 389.977363 
L 1034.792812 385.952178 
L 1057.801578 381.931467 
L 1080.782839 377.915562 
L 1103.709482 373.909202 
L 1126.69295 369.892911 
L 1149.626191 365.885398 
L 1172.548716 361.879757 
L 1195.461818 357.875763 
" style="fill:none;stroke:#008000;stroke-linecap:square;stroke-width:1.5;"/>
   </g>
   <g id="line2d_13">
    <path clip-path="url(#pbef859ca10)" d="M 221.498182 579.792125 
L 232.006441 579.572654 
L 242.699657 579.37953 
L 253.540242 579.218675 
L 264.496926 579.083463 
L 275.538239 578.974509 
L 286.623993 578.884769 
L 297.7241 578.815115 
L 308.801242 578.761775 
L 319.830924 578.728199 
L 330.779032 578.710369 
L 341.617489 578.707395 
L 352.315989 578.721506 
L 362.859941 578.744344 
L 373.225635 578.778538 
L 383.391162 578.823499 
L 388.400219 578.848993 
L 393.351934 578.877161 
L 398.247349 578.907294 
L 403.085205 578.939477 
L 407.862301 578.973876 
L 412.585235 579.00927 
L 417.244983 579.046721 
L 421.844017 579.085685 
L 426.380757 579.125946 
L 426.831162 579.130012 
L 427.280674 579.134109 
L 427.729592 579.138198 
L 428.177721 579.142331 
L 428.625632 579.146508 
L 429.072605 579.150658 
L 429.519293 579.154883 
L 429.964997 579.158998 
L 430.409981 579.163305 
L 430.854907 579.167439 
L 431.298564 579.171644 
L 431.742256 579.175879 
L 432.184609 579.180215 
L 432.626745 579.184454 
L 433.068275 579.188763 
L 433.509016 579.193057 
L 433.949174 579.197296 
L 434.388588 579.201633 
L 434.82751 579.205973 
L 435.265769 579.210252 
L 439.612691 579.25404 
L 443.896657 579.298875 
L 448.116202 579.344318 
L 452.271853 579.390566 
L 456.362043 579.437379 
L 460.388179 579.48481 
L 464.349437 579.532473 
L 468.246629 579.580382 
L 472.079881 579.628493 
L 475.848931 579.676809 
L 479.554566 579.725044 
L 483.198286 579.773162 
L 486.779438 579.821059 
L 490.299669 579.868694 
L 493.75938 579.916087 
L 497.159725 579.963007 
L 500.501346 580.009532 
L 503.787066 580.055509 
L 507.01549 580.100953 
L 522.357191 580.318612 
L 536.480236 580.517991 
L 549.55475 580.695533 
L 561.704622 580.855077 
L 573.074898 580.996891 
L 583.772095 581.120644 
L 593.885335 581.231144 
L 603.514502 581.325167 
L 638.314294 581.588177 
L 669.122751 581.725506 
L 697.526272 581.788441 
L 724.399865 581.80771 
L 750.257292 581.801491 
L 775.408716 581.781336 
L 800.054292 581.754681 
L 824.324954 581.727155 
L 848.307286 581.702274 
L 872.063352 581.683027 
L 895.635203 581.66909 
L 919.057023 581.659707 
L 942.355388 581.652503 
L 965.558421 581.645756 
L 988.685918 581.638366 
L 1011.75844 581.629988 
L 1034.792812 581.62192 
L 1057.801578 581.614132 
L 1080.782839 581.608931 
L 1103.709482 581.605335 
L 1126.69295 581.603151 
L 1149.626191 581.602154 
L 1172.548716 581.601822 
L 1195.461818 581.601878 
" style="fill:none;stroke:#ff0000;stroke-linecap:square;stroke-width:1.5;"/>
   </g>
   <g id="line2d_14">
    <path clip-path="url(#pbef859ca10)" d="M 221.498182 526.501632 
L 232.006441 526.249133 
L 242.699657 526.189561 
L 253.540242 526.245026 
L 264.496926 526.376076 
L 275.538239 526.538969 
L 286.623993 526.714483 
L 297.7241 526.899097 
L 308.801242 527.095065 
L 319.830924 527.28834 
L 330.779032 527.475575 
L 341.617489 527.651838 
L 352.315989 527.817581 
L 362.859941 527.986903 
L 373.225635 528.171777 
L 383.391162 528.379762 
L 388.400219 528.49272 
L 393.351934 528.607898 
L 398.247349 528.725617 
L 403.085205 528.840268 
L 407.862301 528.951603 
L 412.585235 529.056274 
L 417.244983 529.151959 
L 421.844017 529.238256 
L 426.380757 529.312966 
L 426.831162 529.319037 
L 427.280674 529.32618 
L 427.729592 529.332045 
L 428.177721 529.33832 
L 428.625632 529.344669 
L 429.072605 529.350163 
L 429.519293 529.356862 
L 429.964997 529.362793 
L 430.409981 529.368928 
L 430.854907 529.373787 
L 431.298564 529.379484 
L 431.742256 529.384446 
L 432.184609 529.390108 
L 432.626745 529.3947 
L 433.068275 529.399652 
L 433.509016 529.404243 
L 433.949174 529.409285 
L 434.388588 529.414029 
L 434.82751 529.417924 
L 435.265769 529.422271 
L 439.612691 529.457248 
L 443.896657 529.478449 
L 448.116202 529.485929 
L 452.271853 529.480943 
L 456.362043 529.461444 
L 460.388179 529.430349 
L 464.349437 529.387736 
L 468.246629 529.333634 
L 472.079881 529.267076 
L 475.848931 529.190729 
L 479.554566 529.103898 
L 483.198286 529.008748 
L 486.779438 528.903257 
L 490.299669 528.790726 
L 493.75938 528.669642 
L 497.159725 528.542923 
L 500.501346 528.408843 
L 503.787066 528.26896 
L 507.01549 528.125218 
L 522.357191 527.357447 
L 536.480236 526.575747 
L 549.55475 525.853127 
L 561.704622 525.228582 
L 573.074898 524.710265 
L 583.772095 524.287338 
L 593.885335 523.945898 
L 603.514502 523.669925 
L 638.314294 523.001614 
L 669.122751 522.713183 
L 697.526272 522.597067 
L 724.399865 522.564394 
L 750.257292 522.571163 
L 775.408716 522.59601 
L 800.054292 522.626084 
L 824.324954 522.656245 
L 848.307286 522.683092 
L 872.063352 522.705201 
L 895.635203 522.72225 
L 919.057023 522.735367 
L 942.355388 522.74525 
L 965.558421 522.753719 
L 988.685918 522.762542 
L 1011.75844 522.77306 
L 1034.792812 522.784381 
L 1057.801578 522.795249 
L 1080.782839 522.802471 
L 1103.709482 522.80189 
L 1126.69295 522.800806 
L 1149.626191 522.796284 
L 1172.548716 522.795361 
L 1195.461818 522.799234 
" style="fill:none;stroke:#bf00bf;stroke-linecap:square;stroke-width:1.5;"/>
   </g>
   <g id="line2d_15">
    <path clip-path="url(#pbef859ca10)" d="M 221.498182 324.043089 
L 232.006441 322.629852 
L 242.699657 321.143692 
L 253.540242 319.701142 
L 264.496926 318.2867 
L 275.538239 316.89294 
L 286.623993 315.537324 
L 297.7241 314.250052 
L 308.801242 313.053992 
L 319.830924 311.962782 
L 330.779032 310.975194 
L 341.617489 310.079739 
L 352.315989 309.243875 
L 362.859941 308.453518 
L 373.225635 307.710973 
L 383.391162 307.029591 
L 388.400219 306.721844 
L 393.351934 306.4414 
L 398.247349 306.190076 
L 403.085205 305.974827 
L 407.862301 305.792907 
L 412.585235 305.646529 
L 417.244983 305.536908 
L 421.844017 305.460891 
L 426.380757 305.41787 
L 426.831162 305.414447 
L 427.280674 305.412313 
L 427.729592 305.411465 
L 428.177721 305.409479 
L 428.625632 305.407658 
L 429.072605 305.406809 
L 429.519293 305.405892 
L 429.964997 305.40503 
L 430.409981 305.404785 
L 430.854907 305.405 
L 431.298564 305.405086 
L 431.742256 305.405782 
L 432.184609 305.406917 
L 432.626745 305.407714 
L 433.068275 305.409331 
L 433.509016 305.410722 
L 433.949174 305.412393 
L 434.388588 305.415015 
L 434.82751 305.417195 
L 435.265769 305.419841 
L 439.612691 305.460429 
L 443.896657 305.524544 
L 448.116202 305.609232 
L 452.271853 305.711788 
L 456.362043 305.831843 
L 460.388179 305.965145 
L 464.349437 306.110598 
L 468.246629 306.266271 
L 472.079881 306.431962 
L 475.848931 306.60447 
L 479.554566 306.78339 
L 483.198286 306.967184 
L 486.779438 307.154934 
L 490.299669 307.345136 
L 493.75938 307.53707 
L 497.159725 307.730306 
L 500.501346 307.92364 
L 503.787066 308.116592 
L 507.01549 308.308243 
L 522.357191 309.231223 
L 536.480236 310.063058 
L 549.55475 310.776873 
L 561.704622 311.378487 
L 573.074898 311.87611 
L 583.772095 312.285503 
L 593.885335 312.625653 
L 603.514502 312.903275 
L 638.314294 313.611059 
L 669.122751 313.947027 
L 697.526272 314.10309 
L 724.399865 314.170409 
L 750.257292 314.194627 
L 775.408716 314.199337 
L 800.054292 314.19573 
L 824.324954 314.189796 
L 848.307286 314.183759 
L 872.063352 314.178559 
L 895.635203 314.174041 
L 919.057023 314.170503 
L 942.355388 314.16761 
L 965.558421 314.165395 
L 988.685918 314.16447 
L 1011.75844 314.164488 
L 1034.792812 314.165543 
L 1057.801578 314.166429 
L 1080.782839 314.168649 
L 1103.709482 314.175699 
L 1126.69295 314.169352 
L 1149.626191 314.166375 
L 1172.548716 314.161822 
L 1195.461818 314.157675 
" style="fill:none;stroke:#bfbf00;stroke-linecap:square;stroke-width:1.5;"/>
   </g>
   <g id="line2d_16">
    <path clip-path="url(#pbef859ca10)" d="M 221.498182 584.198479 
L 232.006441 584.2044 
L 242.699657 583.958665 
L 253.540242 583.530504 
L 264.496926 582.958435 
L 275.538239 582.286683 
L 286.623993 581.543467 
L 297.7241 580.751337 
L 308.801242 579.939759 
L 319.830924 579.151656 
L 330.779032 578.414639 
L 341.617489 577.752186 
L 352.315989 577.193954 
L 362.859941 576.742963 
L 373.225635 576.402202 
L 383.391162 576.166153 
L 388.400219 576.080252 
L 393.351934 576.013424 
L 398.247349 575.963635 
L 403.085205 575.925659 
L 407.862301 575.900258 
L 412.585235 575.884818 
L 417.244983 575.876882 
L 421.844017 575.876547 
L 426.380757 575.88302 
L 426.831162 575.884992 
L 427.280674 575.8858 
L 427.729592 575.885907 
L 428.177721 575.887378 
L 428.625632 575.889071 
L 429.072605 575.890176 
L 429.519293 575.891601 
L 429.964997 575.893482 
L 430.409981 575.894972 
L 430.854907 575.896313 
L 431.298564 575.898174 
L 431.742256 575.899871 
L 432.184609 575.901485 
L 432.626745 575.903638 
L 433.068275 575.90529 
L 433.509016 575.907653 
L 433.949174 575.909941 
L 434.388588 575.911697 
L 434.82751 575.914251 
L 435.265769 575.91655 
L 439.612691 575.943047 
L 443.896657 575.975376 
L 448.116202 576.014322 
L 452.271853 576.060452 
L 456.362043 576.111418 
L 460.388179 576.170182 
L 464.349437 576.235889 
L 468.246629 576.308505 
L 472.079881 576.385813 
L 475.848931 576.470493 
L 479.554566 576.560811 
L 483.198286 576.657088 
L 486.779438 576.758575 
L 490.299669 576.865761 
L 493.75938 576.977916 
L 497.159725 577.094543 
L 500.501346 577.21468 
L 503.787066 577.338152 
L 507.01549 577.465225 
L 522.357191 578.12562 
L 536.480236 578.769181 
L 549.55475 579.335059 
L 561.704622 579.796988 
L 573.074898 580.160147 
L 583.772095 580.440683 
L 593.885335 580.6577 
L 603.514502 580.826653 
L 638.314294 581.219348 
L 669.122751 581.394008 
L 697.526272 581.480918 
L 724.399865 581.527572 
L 750.257292 581.553971 
L 775.408716 581.569008 
L 800.054292 581.578204 
L 824.324954 581.583828 
L 848.307286 581.588213 
L 872.063352 581.590565 
L 895.635203 581.593121 
L 919.057023 581.595553 
L 942.355388 581.597893 
L 965.558421 581.5999 
L 988.685918 581.603753 
L 1011.75844 581.607731 
L 1034.792812 581.613509 
L 1057.801578 581.620803 
L 1080.782839 581.631793 
L 1103.709482 581.646581 
L 1126.69295 581.666897 
L 1149.626191 581.695213 
L 1172.548716 581.734173 
L 1195.461818 581.787302 
" style="fill:none;stroke:#000000;stroke-linecap:square;stroke-width:1.5;"/>
   </g>
   <g id="line2d_17">
    <path clip-path="url(#pbef859ca10)" d="M 221.498182 323.485067 
L 232.006441 321.778033 
L 242.699657 319.883257 
L 253.540242 317.889369 
L 264.496926 315.744729 
L 275.538239 313.40645 
L 286.623993 310.859618 
L 297.7241 308.110532 
L 308.801242 305.182038 
L 319.830924 302.095117 
L 330.779032 298.868616 
L 341.617489 295.509187 
L 352.315989 292.00533 
L 362.859941 288.368614 
L 373.225635 284.625561 
L 383.391162 280.818116 
L 388.400219 278.906471 
L 393.351934 277.00187 
L 398.247349 275.107787 
L 403.085205 273.234462 
L 407.862301 271.382924 
L 412.585235 269.555921 
L 417.244983 267.759152 
L 421.844017 265.990959 
L 426.380757 264.253577 
L 426.831162 264.081646 
L 427.280674 263.909658 
L 427.729592 263.739165 
L 428.177721 263.567986 
L 428.625632 263.396923 
L 429.072605 263.226879 
L 429.519293 263.05622 
L 429.964997 262.88618 
L 430.409981 262.716436 
L 430.854907 262.547581 
L 431.298564 262.378409 
L 431.742256 262.210038 
L 432.184609 262.041641 
L 432.626745 261.873623 
L 433.068275 261.706016 
L 433.509016 261.538604 
L 433.949174 261.371234 
L 434.388588 261.204488 
L 434.82751 261.038231 
L 435.265769 260.871992 
L 439.612691 259.226988 
L 443.896657 257.612553 
L 448.116202 256.028299 
L 452.271853 254.473145 
L 456.362043 252.948818 
L 460.388179 251.453545 
L 464.349437 249.987573 
L 468.246629 248.551097 
L 472.079881 247.1447 
L 475.848931 245.767641 
L 479.554566 244.420551 
L 483.198286 243.103018 
L 486.779438 241.815895 
L 490.299669 240.558503 
L 493.75938 239.331809 
L 497.159725 238.135065 
L 500.501346 236.968884 
L 503.787066 235.833108 
L 507.01549 234.727981 
L 522.357191 229.662762 
L 536.480236 225.346963 
L 549.55475 221.709945 
L 561.704622 218.643328 
L 573.074898 216.013602 
L 583.772095 213.709094 
L 593.885335 211.649358 
L 603.514502 209.766656 
L 638.314294 203.347264 
L 669.122751 197.886927 
L 697.526272 192.904564 
L 724.399865 188.201893 
L 750.257292 183.680302 
L 775.408716 179.283423 
L 800.054292 174.976655 
L 824.324954 170.73703 
L 848.307286 166.548643 
L 872.063352 162.39938 
L 895.635203 158.281059 
L 919.057023 154.187171 
L 942.355388 150.112682 
L 965.558421 146.053391 
L 988.685918 142.007511 
L 1011.75844 137.971364 
L 1034.792812 133.943639 
L 1057.801578 129.921571 
L 1080.782839 125.906623 
L 1103.709482 121.903035 
L 1126.69295 117.891776 
L 1149.626191 113.891653 
L 1172.548716 109.896876 
L 1195.461818 105.9084 
" style="fill:none;stroke:#0000ff;stroke-dasharray:5.55,2.4;stroke-dashoffset:0;stroke-width:1.5;"/>
   </g>
   <g id="patch_3">
    <path d="M 172.8 608.1192 
L 172.8 81.9936 
" style="fill:none;stroke:#000000;stroke-linecap:square;stroke-linejoin:miter;stroke-width:0.8;"/>
   </g>
   <g id="patch_4">
    <path d="M 1244.16 608.1192 
L 1244.16 81.9936 
" style="fill:none;stroke:#000000;stroke-linecap:square;stroke-linejoin:miter;stroke-width:0.8;"/>
   </g>
   <g id="patch_5">
    <path d="M 172.8 608.1192 
L 1244.16 608.1192 
" style="fill:none;stroke:#000000;stroke-linecap:square;stroke-linejoin:miter;stroke-width:0.8;"/>
   </g>
   <g id="patch_6">
    <path d="M 172.8 81.9936 
L 1244.16 81.9936 
" style="fill:none;stroke:#000000;stroke-linecap:square;stroke-linejoin:miter;stroke-width:0.8;"/>
   </g>
   <g id="legend_1">
    <g id="patch_7">
     <path d="M 179.8 194.68735 
L 328.971875 194.68735 
Q 330.971875 194.68735 330.971875 192.68735 
L 330.971875 88.9936 
Q 330.971875 86.9936 328.971875 86.9936 
L 179.8 86.9936 
Q 177.8 86.9936 177.8 88.9936 
L 177.8 192.68735 
Q 177.8 194.68735 179.8 194.68735 
z
" style="fill:#ffffff;opacity:0.8;stroke:#cccccc;stroke-linejoin:miter;"/>
    </g>
    <g id="line2d_18">
     <path d="M 181.8 95.092038 
L 201.8 95.092038 
" style="fill:none;stroke:#0000ff;stroke-linecap:square;stroke-width:1.5;"/>
    </g>
    <g id="line2d_19"/>
    <g id="text_11">
     <!-- input_pulse_length -->
     <defs>
      <path d="M 9.421875 54.6875 
L 18.40625 54.6875 
L 18.40625 0 
L 9.421875 0 
z
M 9.421875 75.984375 
L 18.40625 75.984375 
L 18.40625 64.59375 
L 9.421875 64.59375 
z
" id="DejaVuSans-69"/>
      <path d="M 54.890625 33.015625 
L 54.890625 0 
L 45.90625 0 
L 45.90625 32.71875 
Q 45.90625 40.484375 42.875 44.328125 
Q 39.84375 48.1875 33.796875 48.1875 
Q 26.515625 48.1875 22.3125 43.546875 
Q 18.109375 38.921875 18.109375 30.90625 
L 18.109375 0 
L 9.078125 0 
L 9.078125 54.6875 
L 18.109375 54.6875 
L 18.109375 46.1875 
Q 21.34375 51.125 25.703125 53.5625 
Q 30.078125 56 35.796875 56 
Q 45.21875 56 50.046875 50.171875 
Q 54.890625 44.34375 54.890625 33.015625 
z
" id="DejaVuSans-6e"/>
      <path d="M 18.109375 8.203125 
L 18.109375 -20.796875 
L 9.078125 -20.796875 
L 9.078125 54.6875 
L 18.109375 54.6875 
L 18.109375 46.390625 
Q 20.953125 51.265625 25.265625 53.625 
Q 29.59375 56 35.59375 56 
Q 45.5625 56 51.78125 48.09375 
Q 58.015625 40.1875 58.015625 27.296875 
Q 58.015625 14.40625 51.78125 6.484375 
Q 45.5625 -1.421875 35.59375 -1.421875 
Q 29.59375 -1.421875 25.265625 0.953125 
Q 20.953125 3.328125 18.109375 8.203125 
z
M 48.6875 27.296875 
Q 48.6875 37.203125 44.609375 42.84375 
Q 40.53125 48.484375 33.40625 48.484375 
Q 26.265625 48.484375 22.1875 42.84375 
Q 18.109375 37.203125 18.109375 27.296875 
Q 18.109375 17.390625 22.1875 11.75 
Q 26.265625 6.109375 33.40625 6.109375 
Q 40.53125 6.109375 44.609375 11.75 
Q 48.6875 17.390625 48.6875 27.296875 
z
" id="DejaVuSans-70"/>
      <path d="M 8.5 21.578125 
L 8.5 54.6875 
L 17.484375 54.6875 
L 17.484375 21.921875 
Q 17.484375 14.15625 20.5 10.265625 
Q 23.53125 6.390625 29.59375 6.390625 
Q 36.859375 6.390625 41.078125 11.03125 
Q 45.3125 15.671875 45.3125 23.6875 
L 45.3125 54.6875 
L 54.296875 54.6875 
L 54.296875 0 
L 45.3125 0 
L 45.3125 8.40625 
Q 42.046875 3.421875 37.71875 1 
Q 33.40625 -1.421875 27.6875 -1.421875 
Q 18.265625 -1.421875 13.375 4.4375 
Q 8.5 10.296875 8.5 21.578125 
z
M 31.109375 56 
z
" id="DejaVuSans-75"/>
      <path d="M 18.3125 70.21875 
L 18.3125 54.6875 
L 36.8125 54.6875 
L 36.8125 47.703125 
L 18.3125 47.703125 
L 18.3125 18.015625 
Q 18.3125 11.328125 20.140625 9.421875 
Q 21.96875 7.515625 27.59375 7.515625 
L 36.8125 7.515625 
L 36.8125 0 
L 27.59375 0 
Q 17.1875 0 13.234375 3.875 
Q 9.28125 7.765625 9.28125 18.015625 
L 9.28125 47.703125 
L 2.6875 47.703125 
L 2.6875 54.6875 
L 9.28125 54.6875 
L 9.28125 70.21875 
z
" id="DejaVuSans-74"/>
      <path d="M 50.984375 -16.609375 
L 50.984375 -23.578125 
L -0.984375 -23.578125 
L -0.984375 -16.609375 
z
" id="DejaVuSans-5f"/>
      <path d="M 9.421875 75.984375 
L 18.40625 75.984375 
L 18.40625 0 
L 9.421875 0 
z
" id="DejaVuSans-6c"/>
      <path d="M 44.28125 53.078125 
L 44.28125 44.578125 
Q 40.484375 46.53125 36.375 47.5 
Q 32.28125 48.484375 27.875 48.484375 
Q 21.1875 48.484375 17.84375 46.4375 
Q 14.5 44.390625 14.5 40.28125 
Q 14.5 37.15625 16.890625 35.375 
Q 19.28125 33.59375 26.515625 31.984375 
L 29.59375 31.296875 
Q 39.15625 29.25 43.1875 25.515625 
Q 47.21875 21.78125 47.21875 15.09375 
Q 47.21875 7.46875 41.1875 3.015625 
Q 35.15625 -1.421875 24.609375 -1.421875 
Q 20.21875 -1.421875 15.453125 -0.5625 
Q 10.6875 0.296875 5.421875 2 
L 5.421875 11.28125 
Q 10.40625 8.6875 15.234375 7.390625 
Q 20.0625 6.109375 24.8125 6.109375 
Q 31.15625 6.109375 34.5625 8.28125 
Q 37.984375 10.453125 37.984375 14.40625 
Q 37.984375 18.0625 35.515625 20.015625 
Q 33.0625 21.96875 24.703125 23.78125 
L 21.578125 24.515625 
Q 13.234375 26.265625 9.515625 29.90625 
Q 5.8125 33.546875 5.8125 39.890625 
Q 5.8125 47.609375 11.28125 51.796875 
Q 16.75 56 26.8125 56 
Q 31.78125 56 36.171875 55.265625 
Q 40.578125 54.546875 44.28125 53.078125 
z
" id="DejaVuSans-73"/>
      <path d="M 56.203125 29.59375 
L 56.203125 25.203125 
L 14.890625 25.203125 
Q 15.484375 15.921875 20.484375 11.0625 
Q 25.484375 6.203125 34.421875 6.203125 
Q 39.59375 6.203125 44.453125 7.46875 
Q 49.3125 8.734375 54.109375 11.28125 
L 54.109375 2.78125 
Q 49.265625 0.734375 44.1875 -0.34375 
Q 39.109375 -1.421875 33.890625 -1.421875 
Q 20.796875 -1.421875 13.15625 6.1875 
Q 5.515625 13.8125 5.515625 26.8125 
Q 5.515625 40.234375 12.765625 48.109375 
Q 20.015625 56 32.328125 56 
Q 43.359375 56 49.78125 48.890625 
Q 56.203125 41.796875 56.203125 29.59375 
z
M 47.21875 32.234375 
Q 47.125 39.59375 43.09375 43.984375 
Q 39.0625 48.390625 32.421875 48.390625 
Q 24.90625 48.390625 20.390625 44.140625 
Q 15.875 39.890625 15.1875 32.171875 
z
" id="DejaVuSans-65"/>
      <path d="M 45.40625 27.984375 
Q 45.40625 37.75 41.375 43.109375 
Q 37.359375 48.484375 30.078125 48.484375 
Q 22.859375 48.484375 18.828125 43.109375 
Q 14.796875 37.75 14.796875 27.984375 
Q 14.796875 18.265625 18.828125 12.890625 
Q 22.859375 7.515625 30.078125 7.515625 
Q 37.359375 7.515625 41.375 12.890625 
Q 45.40625 18.265625 45.40625 27.984375 
z
M 54.390625 6.78125 
Q 54.390625 -7.171875 48.1875 -13.984375 
Q 42 -20.796875 29.203125 -20.796875 
Q 24.46875 -20.796875 20.265625 -20.09375 
Q 16.0625 -19.390625 12.109375 -17.921875 
L 12.109375 -9.1875 
Q 16.0625 -11.328125 19.921875 -12.34375 
Q 23.78125 -13.375 27.78125 -13.375 
Q 36.625 -13.375 41.015625 -8.765625 
Q 45.40625 -4.15625 45.40625 5.171875 
L 45.40625 9.625 
Q 42.625 4.78125 38.28125 2.390625 
Q 33.9375 0 27.875 0 
Q 17.828125 0 11.671875 7.65625 
Q 5.515625 15.328125 5.515625 27.984375 
Q 5.515625 40.671875 11.671875 48.328125 
Q 17.828125 56 27.875 56 
Q 33.9375 56 38.28125 53.609375 
Q 42.625 51.21875 45.40625 46.390625 
L 45.40625 54.6875 
L 54.390625 54.6875 
z
" id="DejaVuSans-67"/>
      <path d="M 54.890625 33.015625 
L 54.890625 0 
L 45.90625 0 
L 45.90625 32.71875 
Q 45.90625 40.484375 42.875 44.328125 
Q 39.84375 48.1875 33.796875 48.1875 
Q 26.515625 48.1875 22.3125 43.546875 
Q 18.109375 38.921875 18.109375 30.90625 
L 18.109375 0 
L 9.078125 0 
L 9.078125 75.984375 
L 18.109375 75.984375 
L 18.109375 46.1875 
Q 21.34375 51.125 25.703125 53.5625 
Q 30.078125 56 35.796875 56 
Q 45.21875 56 50.046875 50.171875 
Q 54.890625 44.34375 54.890625 33.015625 
z
" id="DejaVuSans-68"/>
     </defs>
     <g transform="translate(209.8 98.592038)scale(0.1 -0.1)">
      <use xlink:href="#DejaVuSans-69"/>
      <use x="27.783203" xlink:href="#DejaVuSans-6e"/>
      <use x="91.162109" xlink:href="#DejaVuSans-70"/>
      <use x="154.638672" xlink:href="#DejaVuSans-75"/>
      <use x="218.017578" xlink:href="#DejaVuSans-74"/>
      <use x="257.226562" xlink:href="#DejaVuSans-5f"/>
      <use x="307.226562" xlink:href="#DejaVuSans-70"/>
      <use x="370.703125" xlink:href="#DejaVuSans-75"/>
      <use x="434.082031" xlink:href="#DejaVuSans-6c"/>
      <use x="461.865234" xlink:href="#DejaVuSans-73"/>
      <use x="513.964844" xlink:href="#DejaVuSans-65"/>
      <use x="575.488281" xlink:href="#DejaVuSans-5f"/>
      <use x="625.488281" xlink:href="#DejaVuSans-6c"/>
      <use x="653.271484" xlink:href="#DejaVuSans-65"/>
      <use x="714.794922" xlink:href="#DejaVuSans-6e"/>
      <use x="778.173828" xlink:href="#DejaVuSans-67"/>
      <use x="841.650391" xlink:href="#DejaVuSans-74"/>
      <use x="880.859375" xlink:href="#DejaVuSans-68"/>
     </g>
    </g>
    <g id="line2d_20">
     <path d="M 181.8 110.048288 
L 201.8 110.048288 
" style="fill:none;stroke:#008000;stroke-linecap:square;stroke-width:1.5;"/>
    </g>
    <g id="line2d_21"/>
    <g id="text_12">
     <!-- input_left_shift -->
     <defs>
      <path d="M 37.109375 75.984375 
L 37.109375 68.5 
L 28.515625 68.5 
Q 23.6875 68.5 21.796875 66.546875 
Q 19.921875 64.59375 19.921875 59.515625 
L 19.921875 54.6875 
L 34.71875 54.6875 
L 34.71875 47.703125 
L 19.921875 47.703125 
L 19.921875 0 
L 10.890625 0 
L 10.890625 47.703125 
L 2.296875 47.703125 
L 2.296875 54.6875 
L 10.890625 54.6875 
L 10.890625 58.5 
Q 10.890625 67.625 15.140625 71.796875 
Q 19.390625 75.984375 28.609375 75.984375 
z
" id="DejaVuSans-66"/>
     </defs>
     <g transform="translate(209.8 113.548288)scale(0.1 -0.1)">
      <use xlink:href="#DejaVuSans-69"/>
      <use x="27.783203" xlink:href="#DejaVuSans-6e"/>
      <use x="91.162109" xlink:href="#DejaVuSans-70"/>
      <use x="154.638672" xlink:href="#DejaVuSans-75"/>
      <use x="218.017578" xlink:href="#DejaVuSans-74"/>
      <use x="257.226562" xlink:href="#DejaVuSans-5f"/>
      <use x="307.226562" xlink:href="#DejaVuSans-6c"/>
      <use x="335.009766" xlink:href="#DejaVuSans-65"/>
      <use x="396.533203" xlink:href="#DejaVuSans-66"/>
      <use x="431.722656" xlink:href="#DejaVuSans-74"/>
      <use x="470.931641" xlink:href="#DejaVuSans-5f"/>
      <use x="520.931641" xlink:href="#DejaVuSans-73"/>
      <use x="573.03125" xlink:href="#DejaVuSans-68"/>
      <use x="636.410156" xlink:href="#DejaVuSans-69"/>
      <use x="664.193359" xlink:href="#DejaVuSans-66"/>
      <use x="699.382812" xlink:href="#DejaVuSans-74"/>
     </g>
    </g>
    <g id="line2d_22">
     <path d="M 181.8 125.004538 
L 201.8 125.004538 
" style="fill:none;stroke:#ff0000;stroke-linecap:square;stroke-width:1.5;"/>
    </g>
    <g id="line2d_23"/>
    <g id="text_13">
     <!-- input_right_steepness -->
     <defs>
      <path d="M 41.109375 46.296875 
Q 39.59375 47.171875 37.8125 47.578125 
Q 36.03125 48 33.890625 48 
Q 26.265625 48 22.1875 43.046875 
Q 18.109375 38.09375 18.109375 28.8125 
L 18.109375 0 
L 9.078125 0 
L 9.078125 54.6875 
L 18.109375 54.6875 
L 18.109375 46.1875 
Q 20.953125 51.171875 25.484375 53.578125 
Q 30.03125 56 36.53125 56 
Q 37.453125 56 38.578125 55.875 
Q 39.703125 55.765625 41.0625 55.515625 
z
" id="DejaVuSans-72"/>
     </defs>
     <g transform="translate(209.8 128.504538)scale(0.1 -0.1)">
      <use xlink:href="#DejaVuSans-69"/>
      <use x="27.783203" xlink:href="#DejaVuSans-6e"/>
      <use x="91.162109" xlink:href="#DejaVuSans-70"/>
      <use x="154.638672" xlink:href="#DejaVuSans-75"/>
      <use x="218.017578" xlink:href="#DejaVuSans-74"/>
      <use x="257.226562" xlink:href="#DejaVuSans-5f"/>
      <use x="307.226562" xlink:href="#DejaVuSans-72"/>
      <use x="348.339844" xlink:href="#DejaVuSans-69"/>
      <use x="376.123047" xlink:href="#DejaVuSans-67"/>
      <use x="439.599609" xlink:href="#DejaVuSans-68"/>
      <use x="502.978516" xlink:href="#DejaVuSans-74"/>
      <use x="542.1875" xlink:href="#DejaVuSans-5f"/>
      <use x="592.1875" xlink:href="#DejaVuSans-73"/>
      <use x="644.287109" xlink:href="#DejaVuSans-74"/>
      <use x="683.496094" xlink:href="#DejaVuSans-65"/>
      <use x="745.019531" xlink:href="#DejaVuSans-65"/>
      <use x="806.542969" xlink:href="#DejaVuSans-70"/>
      <use x="870.019531" xlink:href="#DejaVuSans-6e"/>
      <use x="933.398438" xlink:href="#DejaVuSans-65"/>
      <use x="994.921875" xlink:href="#DejaVuSans-73"/>
      <use x="1047.021484" xlink:href="#DejaVuSans-73"/>
     </g>
    </g>
    <g id="line2d_24">
     <path d="M 181.8 139.960788 
L 201.8 139.960788 
" style="fill:none;stroke:#bf00bf;stroke-linecap:square;stroke-width:1.5;"/>
    </g>
    <g id="line2d_25"/>
    <g id="text_14">
     <!-- output_left_steepness -->
     <defs>
      <path d="M 30.609375 48.390625 
Q 23.390625 48.390625 19.1875 42.75 
Q 14.984375 37.109375 14.984375 27.296875 
Q 14.984375 17.484375 19.15625 11.84375 
Q 23.34375 6.203125 30.609375 6.203125 
Q 37.796875 6.203125 41.984375 11.859375 
Q 46.1875 17.53125 46.1875 27.296875 
Q 46.1875 37.015625 41.984375 42.703125 
Q 37.796875 48.390625 30.609375 48.390625 
z
M 30.609375 56 
Q 42.328125 56 49.015625 48.375 
Q 55.71875 40.765625 55.71875 27.296875 
Q 55.71875 13.875 49.015625 6.21875 
Q 42.328125 -1.421875 30.609375 -1.421875 
Q 18.84375 -1.421875 12.171875 6.21875 
Q 5.515625 13.875 5.515625 27.296875 
Q 5.515625 40.765625 12.171875 48.375 
Q 18.84375 56 30.609375 56 
z
" id="DejaVuSans-6f"/>
     </defs>
     <g transform="translate(209.8 143.460788)scale(0.1 -0.1)">
      <use xlink:href="#DejaVuSans-6f"/>
      <use x="61.181641" xlink:href="#DejaVuSans-75"/>
      <use x="124.560547" xlink:href="#DejaVuSans-74"/>
      <use x="163.769531" xlink:href="#DejaVuSans-70"/>
      <use x="227.246094" xlink:href="#DejaVuSans-75"/>
      <use x="290.625" xlink:href="#DejaVuSans-74"/>
      <use x="329.833984" xlink:href="#DejaVuSans-5f"/>
      <use x="379.833984" xlink:href="#DejaVuSans-6c"/>
      <use x="407.617188" xlink:href="#DejaVuSans-65"/>
      <use x="469.140625" xlink:href="#DejaVuSans-66"/>
      <use x="504.330078" xlink:href="#DejaVuSans-74"/>
      <use x="543.539062" xlink:href="#DejaVuSans-5f"/>
      <use x="593.539062" xlink:href="#DejaVuSans-73"/>
      <use x="645.638672" xlink:href="#DejaVuSans-74"/>
      <use x="684.847656" xlink:href="#DejaVuSans-65"/>
      <use x="746.371094" xlink:href="#DejaVuSans-65"/>
      <use x="807.894531" xlink:href="#DejaVuSans-70"/>
      <use x="871.371094" xlink:href="#DejaVuSans-6e"/>
      <use x="934.75" xlink:href="#DejaVuSans-65"/>
      <use x="996.273438" xlink:href="#DejaVuSans-73"/>
      <use x="1048.373047" xlink:href="#DejaVuSans-73"/>
     </g>
    </g>
    <g id="line2d_26">
     <path d="M 181.8 154.917038 
L 201.8 154.917038 
" style="fill:none;stroke:#bfbf00;stroke-linecap:square;stroke-width:1.5;"/>
    </g>
    <g id="line2d_27"/>
    <g id="text_15">
     <!-- output_left_shift -->
     <g transform="translate(209.8 158.417038)scale(0.1 -0.1)">
      <use xlink:href="#DejaVuSans-6f"/>
      <use x="61.181641" xlink:href="#DejaVuSans-75"/>
      <use x="124.560547" xlink:href="#DejaVuSans-74"/>
      <use x="163.769531" xlink:href="#DejaVuSans-70"/>
      <use x="227.246094" xlink:href="#DejaVuSans-75"/>
      <use x="290.625" xlink:href="#DejaVuSans-74"/>
      <use x="329.833984" xlink:href="#DejaVuSans-5f"/>
      <use x="379.833984" xlink:href="#DejaVuSans-6c"/>
      <use x="407.617188" xlink:href="#DejaVuSans-65"/>
      <use x="469.140625" xlink:href="#DejaVuSans-66"/>
      <use x="504.330078" xlink:href="#DejaVuSans-74"/>
      <use x="543.539062" xlink:href="#DejaVuSans-5f"/>
      <use x="593.539062" xlink:href="#DejaVuSans-73"/>
      <use x="645.638672" xlink:href="#DejaVuSans-68"/>
      <use x="709.017578" xlink:href="#DejaVuSans-69"/>
      <use x="736.800781" xlink:href="#DejaVuSans-66"/>
      <use x="771.990234" xlink:href="#DejaVuSans-74"/>
     </g>
    </g>
    <g id="line2d_28">
     <path d="M 181.8 169.873288 
L 201.8 169.873288 
" style="fill:none;stroke:#000000;stroke-linecap:square;stroke-width:1.5;"/>
    </g>
    <g id="line2d_29"/>
    <g id="text_16">
     <!-- output_right_steepness -->
     <g transform="translate(209.8 173.373288)scale(0.1 -0.1)">
      <use xlink:href="#DejaVuSans-6f"/>
      <use x="61.181641" xlink:href="#DejaVuSans-75"/>
      <use x="124.560547" xlink:href="#DejaVuSans-74"/>
      <use x="163.769531" xlink:href="#DejaVuSans-70"/>
      <use x="227.246094" xlink:href="#DejaVuSans-75"/>
      <use x="290.625" xlink:href="#DejaVuSans-74"/>
      <use x="329.833984" xlink:href="#DejaVuSans-5f"/>
      <use x="379.833984" xlink:href="#DejaVuSans-72"/>
      <use x="420.947266" xlink:href="#DejaVuSans-69"/>
      <use x="448.730469" xlink:href="#DejaVuSans-67"/>
      <use x="512.207031" xlink:href="#DejaVuSans-68"/>
      <use x="575.585938" xlink:href="#DejaVuSans-74"/>
      <use x="614.794922" xlink:href="#DejaVuSans-5f"/>
      <use x="664.794922" xlink:href="#DejaVuSans-73"/>
      <use x="716.894531" xlink:href="#DejaVuSans-74"/>
      <use x="756.103516" xlink:href="#DejaVuSans-65"/>
      <use x="817.626953" xlink:href="#DejaVuSans-65"/>
      <use x="879.150391" xlink:href="#DejaVuSans-70"/>
      <use x="942.626953" xlink:href="#DejaVuSans-6e"/>
      <use x="1006.005859" xlink:href="#DejaVuSans-65"/>
      <use x="1067.529297" xlink:href="#DejaVuSans-73"/>
      <use x="1119.628906" xlink:href="#DejaVuSans-73"/>
     </g>
    </g>
    <g id="line2d_30">
     <path d="M 181.8 184.829538 
L 201.8 184.829538 
" style="fill:none;stroke:#0000ff;stroke-dasharray:5.55,2.4;stroke-dashoffset:0;stroke-width:1.5;"/>
    </g>
    <g id="line2d_31"/>
    <g id="text_17">
     <!-- output_right_shift -->
     <g transform="translate(209.8 188.329538)scale(0.1 -0.1)">
      <use xlink:href="#DejaVuSans-6f"/>
      <use x="61.181641" xlink:href="#DejaVuSans-75"/>
      <use x="124.560547" xlink:href="#DejaVuSans-74"/>
      <use x="163.769531" xlink:href="#DejaVuSans-70"/>
      <use x="227.246094" xlink:href="#DejaVuSans-75"/>
      <use x="290.625" xlink:href="#DejaVuSans-74"/>
      <use x="329.833984" xlink:href="#DejaVuSans-5f"/>
      <use x="379.833984" xlink:href="#DejaVuSans-72"/>
      <use x="420.947266" xlink:href="#DejaVuSans-69"/>
      <use x="448.730469" xlink:href="#DejaVuSans-67"/>
      <use x="512.207031" xlink:href="#DejaVuSans-68"/>
      <use x="575.585938" xlink:href="#DejaVuSans-74"/>
      <use x="614.794922" xlink:href="#DejaVuSans-5f"/>
      <use x="664.794922" xlink:href="#DejaVuSans-73"/>
      <use x="716.894531" xlink:href="#DejaVuSans-68"/>
      <use x="780.273438" xlink:href="#DejaVuSans-69"/>
      <use x="808.056641" xlink:href="#DejaVuSans-66"/>
      <use x="843.246094" xlink:href="#DejaVuSans-74"/>
     </g>
    </g>
   </g>
  </g>
 </g>
 <defs>
  <clipPath id="pbef859ca10">
   <rect height="526.1256" width="1071.36" x="172.8" y="81.9936"/>
  </clipPath>
 </defs>
</svg>
