<?xml version="1.0" encoding="utf-8" standalone="no"?>
<!DOCTYPE svg PUBLIC "-//W3C//DTD SVG 1.1//EN"
  "http://www.w3.org/Graphics/SVG/1.1/DTD/svg11.dtd">
<!-- Created with matplotlib (http://matplotlib.org/) -->
<svg height="683.28pt" version="1.1" viewBox="0 0 1382.4 683.28" width="1382.4pt" xmlns="http://www.w3.org/2000/svg" xmlns:xlink="http://www.w3.org/1999/xlink">
 <defs>
  <style type="text/css">
*{stroke-linecap:butt;stroke-linejoin:round;}
  </style>
 </defs>
 <g id="figure_1">
  <g id="patch_1">
   <path d="M 0 683.28 
L 1382.4 683.28 
L 1382.4 0 
L 0 0 
z
" style="fill:#ffffff;"/>
  </g>
  <g id="axes_1">
   <g id="patch_2">
    <path d="M 172.8 608.1192 
L 1244.16 608.1192 
L 1244.16 81.9936 
L 172.8 81.9936 
z
" style="fill:#ffffff;"/>
   </g>
   <g id="matplotlib.axis_1">
    <g id="xtick_1">
     <g id="line2d_1">
      <defs>
       <path d="M 0 0 
L 0 3.5 
" id="md6ed0f0acc" style="stroke:#000000;stroke-width:0.8;"/>
      </defs>
      <g>
       <use style="stroke:#000000;stroke-width:0.8;" x="285.635562" xlink:href="#md6ed0f0acc" y="608.1192"/>
      </g>
     </g>
     <g id="text_1">
      <!-- 2 -->
      <defs>
       <path d="M 19.1875 8.296875 
L 53.609375 8.296875 
L 53.609375 0 
L 7.328125 0 
L 7.328125 8.296875 
Q 12.9375 14.109375 22.625 23.890625 
Q 32.328125 33.6875 34.8125 36.53125 
Q 39.546875 41.84375 41.421875 45.53125 
Q 43.3125 49.21875 43.3125 52.78125 
Q 43.3125 58.59375 39.234375 62.25 
Q 35.15625 65.921875 28.609375 65.921875 
Q 23.96875 65.921875 18.8125 64.3125 
Q 13.671875 62.703125 7.8125 59.421875 
L 7.8125 69.390625 
Q 13.765625 71.78125 18.9375 73 
Q 24.125 74.21875 28.421875 74.21875 
Q 39.75 74.21875 46.484375 68.546875 
Q 53.21875 62.890625 53.21875 53.421875 
Q 53.21875 48.921875 51.53125 44.890625 
Q 49.859375 40.875 45.40625 35.40625 
Q 44.1875 33.984375 37.640625 27.21875 
Q 31.109375 20.453125 19.1875 8.296875 
z
" id="DejaVuSans-32"/>
      </defs>
      <g transform="translate(282.454312 622.717638)scale(0.1 -0.1)">
       <use xlink:href="#DejaVuSans-32"/>
      </g>
     </g>
    </g>
    <g id="xtick_2">
     <g id="line2d_2">
      <g>
       <use style="stroke:#000000;stroke-width:0.8;" x="515.404872" xlink:href="#md6ed0f0acc" y="608.1192"/>
      </g>
     </g>
     <g id="text_2">
      <!-- 4 -->
      <defs>
       <path d="M 37.796875 64.3125 
L 12.890625 25.390625 
L 37.796875 25.390625 
z
M 35.203125 72.90625 
L 47.609375 72.90625 
L 47.609375 25.390625 
L 58.015625 25.390625 
L 58.015625 17.1875 
L 47.609375 17.1875 
L 47.609375 0 
L 37.796875 0 
L 37.796875 17.1875 
L 4.890625 17.1875 
L 4.890625 26.703125 
z
" id="DejaVuSans-34"/>
      </defs>
      <g transform="translate(512.223622 622.717638)scale(0.1 -0.1)">
       <use xlink:href="#DejaVuSans-34"/>
      </g>
     </g>
    </g>
    <g id="xtick_3">
     <g id="line2d_3">
      <g>
       <use style="stroke:#000000;stroke-width:0.8;" x="745.174182" xlink:href="#md6ed0f0acc" y="608.1192"/>
      </g>
     </g>
     <g id="text_3">
      <!-- 6 -->
      <defs>
       <path d="M 33.015625 40.375 
Q 26.375 40.375 22.484375 35.828125 
Q 18.609375 31.296875 18.609375 23.390625 
Q 18.609375 15.53125 22.484375 10.953125 
Q 26.375 6.390625 33.015625 6.390625 
Q 39.65625 6.390625 43.53125 10.953125 
Q 47.40625 15.53125 47.40625 23.390625 
Q 47.40625 31.296875 43.53125 35.828125 
Q 39.65625 40.375 33.015625 40.375 
z
M 52.59375 71.296875 
L 52.59375 62.3125 
Q 48.875 64.0625 45.09375 64.984375 
Q 41.3125 65.921875 37.59375 65.921875 
Q 27.828125 65.921875 22.671875 59.328125 
Q 17.53125 52.734375 16.796875 39.40625 
Q 19.671875 43.65625 24.015625 45.921875 
Q 28.375 48.1875 33.59375 48.1875 
Q 44.578125 48.1875 50.953125 41.515625 
Q 57.328125 34.859375 57.328125 23.390625 
Q 57.328125 12.15625 50.6875 5.359375 
Q 44.046875 -1.421875 33.015625 -1.421875 
Q 20.359375 -1.421875 13.671875 8.265625 
Q 6.984375 17.96875 6.984375 36.375 
Q 6.984375 53.65625 15.1875 63.9375 
Q 23.390625 74.21875 37.203125 74.21875 
Q 40.921875 74.21875 44.703125 73.484375 
Q 48.484375 72.75 52.59375 71.296875 
z
" id="DejaVuSans-36"/>
      </defs>
      <g transform="translate(741.992932 622.717638)scale(0.1 -0.1)">
       <use xlink:href="#DejaVuSans-36"/>
      </g>
     </g>
    </g>
    <g id="xtick_4">
     <g id="line2d_4">
      <g>
       <use style="stroke:#000000;stroke-width:0.8;" x="974.943492" xlink:href="#md6ed0f0acc" y="608.1192"/>
      </g>
     </g>
     <g id="text_4">
      <!-- 8 -->
      <defs>
       <path d="M 31.78125 34.625 
Q 24.75 34.625 20.71875 30.859375 
Q 16.703125 27.09375 16.703125 20.515625 
Q 16.703125 13.921875 20.71875 10.15625 
Q 24.75 6.390625 31.78125 6.390625 
Q 38.8125 6.390625 42.859375 10.171875 
Q 46.921875 13.96875 46.921875 20.515625 
Q 46.921875 27.09375 42.890625 30.859375 
Q 38.875 34.625 31.78125 34.625 
z
M 21.921875 38.8125 
Q 15.578125 40.375 12.03125 44.71875 
Q 8.5 49.078125 8.5 55.328125 
Q 8.5 64.0625 14.71875 69.140625 
Q 20.953125 74.21875 31.78125 74.21875 
Q 42.671875 74.21875 48.875 69.140625 
Q 55.078125 64.0625 55.078125 55.328125 
Q 55.078125 49.078125 51.53125 44.71875 
Q 48 40.375 41.703125 38.8125 
Q 48.828125 37.15625 52.796875 32.3125 
Q 56.78125 27.484375 56.78125 20.515625 
Q 56.78125 9.90625 50.3125 4.234375 
Q 43.84375 -1.421875 31.78125 -1.421875 
Q 19.734375 -1.421875 13.25 4.234375 
Q 6.78125 9.90625 6.78125 20.515625 
Q 6.78125 27.484375 10.78125 32.3125 
Q 14.796875 37.15625 21.921875 38.8125 
z
M 18.3125 54.390625 
Q 18.3125 48.734375 21.84375 45.5625 
Q 25.390625 42.390625 31.78125 42.390625 
Q 38.140625 42.390625 41.71875 45.5625 
Q 45.3125 48.734375 45.3125 54.390625 
Q 45.3125 60.0625 41.71875 63.234375 
Q 38.140625 66.40625 31.78125 66.40625 
Q 25.390625 66.40625 21.84375 63.234375 
Q 18.3125 60.0625 18.3125 54.390625 
z
" id="DejaVuSans-38"/>
      </defs>
      <g transform="translate(971.762242 622.717638)scale(0.1 -0.1)">
       <use xlink:href="#DejaVuSans-38"/>
      </g>
     </g>
    </g>
    <g id="xtick_5">
     <g id="line2d_5">
      <g>
       <use style="stroke:#000000;stroke-width:0.8;" x="1204.712802" xlink:href="#md6ed0f0acc" y="608.1192"/>
      </g>
     </g>
     <g id="text_5">
      <!-- 10 -->
      <defs>
       <path d="M 12.40625 8.296875 
L 28.515625 8.296875 
L 28.515625 63.921875 
L 10.984375 60.40625 
L 10.984375 69.390625 
L 28.421875 72.90625 
L 38.28125 72.90625 
L 38.28125 8.296875 
L 54.390625 8.296875 
L 54.390625 0 
L 12.40625 0 
z
" id="DejaVuSans-31"/>
       <path d="M 31.78125 66.40625 
Q 24.171875 66.40625 20.328125 58.90625 
Q 16.5 51.421875 16.5 36.375 
Q 16.5 21.390625 20.328125 13.890625 
Q 24.171875 6.390625 31.78125 6.390625 
Q 39.453125 6.390625 43.28125 13.890625 
Q 47.125 21.390625 47.125 36.375 
Q 47.125 51.421875 43.28125 58.90625 
Q 39.453125 66.40625 31.78125 66.40625 
z
M 31.78125 74.21875 
Q 44.046875 74.21875 50.515625 64.515625 
Q 56.984375 54.828125 56.984375 36.375 
Q 56.984375 17.96875 50.515625 8.265625 
Q 44.046875 -1.421875 31.78125 -1.421875 
Q 19.53125 -1.421875 13.0625 8.265625 
Q 6.59375 17.96875 6.59375 36.375 
Q 6.59375 54.828125 13.0625 64.515625 
Q 19.53125 74.21875 31.78125 74.21875 
z
" id="DejaVuSans-30"/>
      </defs>
      <g transform="translate(1198.350302 622.717638)scale(0.1 -0.1)">
       <use xlink:href="#DejaVuSans-31"/>
       <use x="63.623047" xlink:href="#DejaVuSans-30"/>
      </g>
     </g>
    </g>
   </g>
   <g id="matplotlib.axis_2">
    <g id="ytick_1">
     <g id="line2d_6">
      <defs>
       <path d="M 0 0 
L -3.5 0 
" id="m09da2cdf6c" style="stroke:#000000;stroke-width:0.8;"/>
      </defs>
      <g>
       <use style="stroke:#000000;stroke-width:0.8;" x="172.8" xlink:href="#m09da2cdf6c" y="561.712833"/>
      </g>
     </g>
     <g id="text_6">
      <!-- 0 -->
      <g transform="translate(159.4375 565.512052)scale(0.1 -0.1)">
       <use xlink:href="#DejaVuSans-30"/>
      </g>
     </g>
    </g>
    <g id="ytick_2">
     <g id="line2d_7">
      <g>
       <use style="stroke:#000000;stroke-width:0.8;" x="172.8" xlink:href="#m09da2cdf6c" y="460.205141"/>
      </g>
     </g>
     <g id="text_7">
      <!-- 5 -->
      <defs>
       <path d="M 10.796875 72.90625 
L 49.515625 72.90625 
L 49.515625 64.59375 
L 19.828125 64.59375 
L 19.828125 46.734375 
Q 21.96875 47.46875 24.109375 47.828125 
Q 26.265625 48.1875 28.421875 48.1875 
Q 40.625 48.1875 47.75 41.5 
Q 54.890625 34.8125 54.890625 23.390625 
Q 54.890625 11.625 47.5625 5.09375 
Q 40.234375 -1.421875 26.90625 -1.421875 
Q 22.3125 -1.421875 17.546875 -0.640625 
Q 12.796875 0.140625 7.71875 1.703125 
L 7.71875 11.625 
Q 12.109375 9.234375 16.796875 8.0625 
Q 21.484375 6.890625 26.703125 6.890625 
Q 35.15625 6.890625 40.078125 11.328125 
Q 45.015625 15.765625 45.015625 23.390625 
Q 45.015625 31 40.078125 35.4375 
Q 35.15625 39.890625 26.703125 39.890625 
Q 22.75 39.890625 18.8125 39.015625 
Q 14.890625 38.140625 10.796875 36.28125 
z
" id="DejaVuSans-35"/>
      </defs>
      <g transform="translate(159.4375 464.004359)scale(0.1 -0.1)">
       <use xlink:href="#DejaVuSans-35"/>
      </g>
     </g>
    </g>
    <g id="ytick_3">
     <g id="line2d_8">
      <g>
       <use style="stroke:#000000;stroke-width:0.8;" x="172.8" xlink:href="#m09da2cdf6c" y="358.697448"/>
      </g>
     </g>
     <g id="text_8">
      <!-- 10 -->
      <g transform="translate(153.075 362.496667)scale(0.1 -0.1)">
       <use xlink:href="#DejaVuSans-31"/>
       <use x="63.623047" xlink:href="#DejaVuSans-30"/>
      </g>
     </g>
    </g>
    <g id="ytick_4">
     <g id="line2d_9">
      <g>
       <use style="stroke:#000000;stroke-width:0.8;" x="172.8" xlink:href="#m09da2cdf6c" y="257.189756"/>
      </g>
     </g>
     <g id="text_9">
      <!-- 15 -->
      <g transform="translate(153.075 260.988975)scale(0.1 -0.1)">
       <use xlink:href="#DejaVuSans-31"/>
       <use x="63.623047" xlink:href="#DejaVuSans-35"/>
      </g>
     </g>
    </g>
    <g id="ytick_5">
     <g id="line2d_10">
      <g>
       <use style="stroke:#000000;stroke-width:0.8;" x="172.8" xlink:href="#m09da2cdf6c" y="155.682064"/>
      </g>
     </g>
     <g id="text_10">
      <!-- 20 -->
      <g transform="translate(153.075 159.481282)scale(0.1 -0.1)">
       <use xlink:href="#DejaVuSans-32"/>
       <use x="63.623047" xlink:href="#DejaVuSans-30"/>
      </g>
     </g>
    </g>
   </g>
   <g id="line2d_11">
    <path clip-path="url(#pab7ba4a2fd)" d="M 221.498182 543.763963 
L 232.251523 544.16717 
L 243.359721 544.585247 
L 254.545488 545.111577 
L 264.97605 545.031853 
L 275.333476 545.047509 
L 283.988955 544.998511 
L 292.863518 545.06412 
L 302.722874 545.178249 
L 339.170099 545.735774 
L 362.602433 545.742498 
L 375.713047 545.578829 
L 388.535266 545.400805 
L 400.002857 545.214016 
L 411.071166 545.011234 
L 421.299221 544.819685 
L 426.171203 544.722545 
L 431.054421 544.627292 
L 435.584461 544.539772 
L 440.106907 544.451133 
L 444.389566 544.369428 
L 448.610313 544.288841 
L 452.717106 544.211689 
L 456.700513 544.13975 
L 460.573723 544.072317 
L 460.957472 544.065867 
L 461.340682 544.059466 
L 461.714941 544.053323 
L 462.097186 544.046966 
L 462.478051 544.040661 
L 462.858653 544.034402 
L 463.237967 544.028197 
L 463.616834 544.022109 
L 463.994517 544.015923 
L 464.343858 544.011936 
L 464.720761 544.005904 
L 465.096881 543.999956 
L 465.472324 543.993967 
L 465.84694 543.988128 
L 466.221487 543.982261 
L 466.59461 543.976447 
L 466.968008 543.970716 
L 467.286974 543.965449 
L 467.657454 543.959775 
L 468.026084 543.954235 
L 471.679405 543.900868 
L 475.303475 543.855933 
L 478.745604 543.813233 
L 481.719657 543.821158 
L 484.928673 543.781193 
L 488.205815 543.738277 
L 491.374322 543.699278 
L 494.286947 543.666318 
L 497.308264 543.63448 
L 500.335521 543.604931 
L 503.167152 543.582897 
L 506.129855 543.55858 
L 509.025074 543.536858 
L 511.693351 543.521244 
L 514.413888 543.506915 
L 517.074157 543.503226 
L 520.834769 543.414878 
L 523.638356 543.387952 
L 526.438061 543.357739 
L 539.294309 543.274623 
L 550.28746 543.270528 
L 561.317283 543.224709 
L 571.778623 543.1705 
L 583.50506 542.879451 
L 593.213629 542.822042 
L 602.471288 542.767238 
L 611.429108 542.717711 
L 643.7551 542.644851 
L 672.008327 542.735761 
L 698.743629 542.783021 
L 724.629049 542.824464 
L 749.913289 542.845326 
L 774.616993 542.888908 
L 798.993932 542.924616 
L 823.15846 542.930978 
L 847.100617 542.956526 
L 870.818577 542.967686 
L 894.392552 542.974757 
L 917.853044 542.978307 
L 941.288055 542.969762 
L 964.575117 542.970268 
L 987.794374 542.970205 
L 1010.963473 542.969667 
L 1034.092821 542.969158 
L 1057.197136 542.968483 
L 1080.27373 542.966943 
L 1103.299452 542.964586 
L 1126.38434 542.962097 
L 1149.420782 542.959078 
L 1172.446332 542.956203 
L 1195.461818 542.953753 
" style="fill:none;stroke:#0000ff;stroke-linecap:square;stroke-width:1.5;"/>
   </g>
   <g id="line2d_12">
    <path clip-path="url(#pab7ba4a2fd)" d="M 221.498182 457.963406 
L 232.251523 453.084543 
L 243.359721 448.707896 
L 254.545488 442.076516 
L 264.97605 439.903602 
L 275.333476 439.903602 
L 283.988955 439.903602 
L 292.863518 439.903602 
L 302.722874 439.903602 
L 339.170099 501.275462 
L 362.602433 520.914762 
L 375.713047 524.393108 
L 388.535266 527.941934 
L 400.002857 529.275287 
L 411.071166 530.17699 
L 421.299221 530.412213 
L 426.171203 530.337416 
L 431.054421 530.304625 
L 435.584461 530.022408 
L 440.106907 529.668322 
L 444.389566 529.129544 
L 448.610313 528.518027 
L 452.717106 527.808054 
L 456.700513 526.952551 
L 460.573723 525.969642 
L 460.957472 525.868997 
L 461.340682 525.763165 
L 461.714941 525.633881 
L 462.097186 525.534891 
L 462.478051 525.426744 
L 462.858653 525.322823 
L 463.237967 525.217724 
L 463.616834 525.107192 
L 463.994517 525.000761 
L 464.343858 524.839563 
L 464.720761 524.732474 
L 465.096881 524.620209 
L 465.472324 524.507748 
L 465.84694 524.396214 
L 466.221487 524.281654 
L 466.59461 524.1695 
L 466.968008 524.054776 
L 467.286974 523.861492 
L 467.657454 523.747151 
L 468.026084 523.627675 
L 471.679405 522.403928 
L 475.303475 521.050078 
L 478.745604 519.555424 
L 481.719657 513.597564 
L 484.928673 512.60627 
L 488.205815 511.932647 
L 491.374322 511.195017 
L 494.286947 510.072894 
L 497.308264 509.120309 
L 500.335521 508.323214 
L 503.167152 507.553308 
L 506.129855 507.07743 
L 509.025074 506.793923 
L 511.693351 506.764112 
L 514.413888 507.15755 
L 517.074157 509.587661 
L 520.834769 522.305852 
L 523.638356 521.720187 
L 526.438061 521.168413 
L 539.294309 516.54959 
L 550.28746 510.668685 
L 561.317283 508.491522 
L 571.778623 507.81761 
L 583.50506 526.041623 
L 593.213629 524.767712 
L 602.471288 523.38254 
L 611.429108 523.33042 
L 643.7551 518.740954 
L 672.008327 513.029086 
L 698.743629 510.707835 
L 724.629049 509.4465 
L 749.913289 508.926659 
L 774.616993 508.180193 
L 798.993932 507.634596 
L 823.15846 507.3376 
L 847.100617 507.097019 
L 870.818577 506.959785 
L 894.392552 506.885757 
L 917.853044 506.857749 
L 941.288055 506.896815 
L 964.575117 506.905655 
L 987.794374 506.92124 
L 1010.963473 506.946899 
L 1034.092821 506.970691 
L 1057.197136 507.003429 
L 1080.27373 507.033678 
L 1103.299452 507.066333 
L 1126.38434 507.11176 
L 1149.420782 507.148234 
L 1172.446332 507.181701 
L 1195.461818 507.210202 
" style="fill:none;stroke:#ff0000;stroke-linecap:square;stroke-width:1.5;"/>
   </g>
   <g id="line2d_13">
    <path clip-path="url(#pab7ba4a2fd)" d="M 221.498182 463.666011 
L 232.251523 459.069558 
L 243.359721 452.829421 
L 254.545488 439.903602 
L 264.97605 439.903602 
L 275.333476 439.903602 
L 283.988955 439.903602 
L 292.863518 439.903602 
L 302.722874 439.903602 
L 339.170099 439.903602 
L 362.602433 439.903602 
L 375.713047 439.903602 
L 388.535266 439.903602 
L 400.002857 439.903602 
L 411.071166 439.903602 
L 421.299221 439.903602 
L 426.171203 439.903602 
L 431.054421 439.903606 
L 435.584461 439.903606 
L 440.106907 439.903604 
L 444.389566 439.903602 
L 448.610313 439.903602 
L 452.717106 439.903602 
L 456.700513 439.903602 
L 460.573723 439.903602 
L 460.957472 439.903602 
L 461.340682 439.903602 
L 461.714941 439.903602 
L 462.097186 439.903602 
L 462.478051 439.903602 
L 462.858653 439.903602 
L 463.237967 439.903602 
L 463.616834 439.903602 
L 463.994517 439.903602 
L 464.343858 439.903602 
L 464.720761 439.903602 
L 465.096881 439.903602 
L 465.472324 439.903602 
L 465.84694 439.903602 
L 466.221487 439.903602 
L 466.59461 439.903602 
L 466.968008 439.903602 
L 467.286974 439.903602 
L 467.657454 439.903602 
L 468.026084 439.903602 
L 471.679405 439.903602 
L 475.303475 439.903602 
L 478.745604 439.903602 
L 481.719657 439.903602 
L 484.928673 439.903602 
L 488.205815 439.903602 
L 491.374322 439.903602 
L 494.286947 439.903602 
L 497.308264 439.903602 
L 500.335521 439.903602 
L 503.167152 439.903602 
L 506.129855 439.903602 
L 509.025074 439.903602 
L 511.693351 439.903602 
L 514.413888 439.903602 
L 517.074157 439.903602 
L 520.834769 439.903602 
L 523.638356 439.903602 
L 526.438061 439.903602 
L 539.294309 439.903602 
L 550.28746 439.903602 
L 561.317283 439.903602 
L 571.778623 439.903602 
L 583.50506 439.903602 
L 593.213629 439.903602 
L 602.471288 439.903602 
L 611.429108 439.903602 
L 643.7551 439.903602 
L 672.008327 439.903602 
L 698.743629 439.903602 
L 724.629049 439.903602 
L 749.913289 439.903602 
L 774.616993 439.903602 
L 798.993932 439.903602 
L 823.15846 439.903602 
L 847.100617 439.903602 
L 870.818577 439.903602 
L 894.392552 439.903602 
L 917.853044 439.903602 
L 941.288055 439.903602 
L 964.575117 439.903602 
L 987.794374 439.903602 
L 1010.963473 439.903602 
L 1034.092821 439.903602 
L 1057.197136 439.903602 
L 1080.27373 439.903602 
L 1103.299452 439.903602 
L 1126.38434 439.903602 
L 1149.420782 439.903602 
L 1172.446332 439.903602 
L 1195.461818 439.903602 
" style="fill:none;stroke:#00bfbf;stroke-linecap:square;stroke-width:1.5;"/>
   </g>
   <g id="line2d_14">
    <path clip-path="url(#pab7ba4a2fd)" d="M 221.498182 578.032791 
L 232.251523 578.229673 
L 243.359721 578.432177 
L 254.545488 578.868699 
L 264.97605 578.583389 
L 275.333476 578.532911 
L 283.988955 578.543966 
L 292.863518 578.623741 
L 302.722874 578.673069 
L 339.170099 579.280662 
L 362.602433 580.18017 
L 375.713047 580.434936 
L 388.535266 580.79685 
L 400.002857 581.071856 
L 411.071166 581.314058 
L 421.299221 581.569693 
L 426.171203 581.693309 
L 431.054421 581.813378 
L 435.584461 581.930993 
L 440.106907 582.040449 
L 444.389566 582.138053 
L 448.610313 582.239745 
L 452.717106 582.325363 
L 456.700513 582.411717 
L 460.573723 582.481546 
L 460.957472 582.488971 
L 461.340682 582.496172 
L 461.714941 582.505033 
L 462.097186 582.512575 
L 462.478051 582.519441 
L 462.858653 582.526811 
L 463.237967 582.533906 
L 463.616834 582.540904 
L 463.994517 582.548079 
L 464.343858 582.553339 
L 464.720761 582.560448 
L 465.096881 582.567365 
L 465.472324 582.574195 
L 465.84694 582.581077 
L 466.221487 582.58789 
L 466.59461 582.594705 
L 466.968008 582.601547 
L 467.286974 582.597937 
L 467.657454 582.604618 
L 468.026084 582.61116 
L 471.679405 582.678796 
L 475.303475 582.742033 
L 478.745604 582.793811 
L 481.719657 582.65888 
L 484.928673 582.719213 
L 488.205815 582.794708 
L 491.374322 582.859786 
L 494.286947 582.872298 
L 497.308264 582.909544 
L 500.335521 582.957228 
L 503.167152 582.9944 
L 506.129855 583.059304 
L 509.025074 583.133971 
L 511.693351 583.189248 
L 514.413888 583.273172 
L 517.074157 583.42948 
L 520.834769 583.567979 
L 523.638356 583.609248 
L 526.438061 583.660501 
L 539.294309 583.852461 
L 550.28746 583.892138 
L 561.317283 584.031839 
L 571.778623 584.2044 
L 583.50506 583.511665 
L 593.213629 583.505542 
L 602.471288 583.521438 
L 611.429108 583.481168 
L 643.7551 583.532113 
L 672.008327 583.569914 
L 698.743629 583.585286 
L 724.629049 583.588914 
L 749.913289 583.508258 
L 774.616993 583.565007 
L 798.993932 583.628977 
L 823.15846 583.675447 
L 847.100617 583.719329 
L 870.818577 583.753154 
L 894.392552 583.779466 
L 917.853044 583.798982 
L 941.288055 583.813884 
L 964.575117 583.824363 
L 987.794374 583.831284 
L 1010.963473 583.835422 
L 1034.092821 583.838325 
L 1057.197136 583.839955 
L 1080.27373 583.839589 
L 1103.299452 583.839181 
L 1126.38434 583.838164 
L 1149.420782 583.836544 
L 1172.446332 583.834516 
L 1195.461818 583.832776 
" style="fill:none;stroke:#bf00bf;stroke-linecap:square;stroke-width:1.5;"/>
   </g>
   <g id="line2d_15">
    <path clip-path="url(#pab7ba4a2fd)" d="M 221.498182 532.443624 
L 232.251523 530.543376 
L 243.359721 528.58042 
L 254.545488 526.603756 
L 264.97605 524.760547 
L 275.333476 522.930262 
L 283.988955 521.400732 
L 292.863518 519.832487 
L 302.722874 518.090217 
L 339.170099 511.649542 
L 362.602433 507.508759 
L 375.713047 505.191951 
L 388.535266 502.926107 
L 400.002857 500.899642 
L 411.071166 498.943734 
L 421.299221 497.136311 
L 426.171203 496.275371 
L 431.054421 495.412446 
L 435.584461 494.611932 
L 440.106907 493.81276 
L 444.389566 493.055961 
L 448.610313 492.310103 
L 452.717106 491.584382 
L 456.700513 490.880465 
L 460.573723 490.196021 
L 460.957472 490.128208 
L 461.340682 490.06049 
L 461.714941 489.994353 
L 462.097186 489.926806 
L 462.478051 489.859503 
L 462.858653 489.792246 
L 463.237967 489.725216 
L 463.616834 489.658266 
L 463.994517 489.591524 
L 464.343858 489.529791 
L 464.720761 489.463188 
L 465.096881 489.396723 
L 465.472324 489.330377 
L 465.84694 489.264178 
L 466.221487 489.197991 
L 466.59461 489.132056 
L 466.968008 489.066072 
L 467.286974 489.009707 
L 467.657454 488.944238 
L 468.026084 488.879097 
L 471.679405 488.23351 
L 475.303475 487.593092 
L 478.745604 486.984825 
L 481.719657 486.459273 
L 484.928673 485.8922 
L 488.205815 485.313089 
L 491.374322 484.753174 
L 494.286947 484.238478 
L 497.308264 483.704573 
L 500.335521 483.16962 
L 503.167152 482.669236 
L 506.129855 482.145689 
L 509.025074 481.634068 
L 511.693351 481.162551 
L 514.413888 480.681798 
L 517.074157 480.211696 
L 520.834769 479.547149 
L 523.638356 479.051721 
L 526.438061 478.556978 
L 539.294309 476.28512 
L 550.28746 474.342495 
L 561.317283 472.393389 
L 571.778623 470.544741 
L 583.50506 468.472534 
L 593.213629 466.75691 
L 602.471288 465.120967 
L 611.429108 463.53801 
L 643.7551 457.825608 
L 672.008327 452.832913 
L 698.743629 448.108455 
L 724.629049 443.534181 
L 749.913289 439.066143 
L 774.616993 434.700693 
L 798.993932 430.392987 
L 823.15846 426.122816 
L 847.100617 421.891941 
L 870.818577 417.700685 
L 894.392552 413.534872 
L 917.853044 409.389113 
L 941.288055 405.247857 
L 964.575117 401.132745 
L 987.794374 397.029615 
L 1010.963473 392.935349 
L 1034.092821 388.848108 
L 1057.197136 384.76529 
L 1080.27373 380.68737 
L 1103.299452 376.618441 
L 1126.38434 372.539056 
L 1149.420782 368.468232 
L 1172.446332 364.399332 
L 1195.461818 360.332211 
" style="fill:none;stroke:#bfbf00;stroke-linecap:square;stroke-width:1.5;"/>
   </g>
   <g id="line2d_16">
    <path clip-path="url(#pab7ba4a2fd)" d="M 221.498182 505.304653 
L 232.251523 506.32321 
L 243.359721 507.0085 
L 254.545488 507.830942 
L 264.97605 507.070576 
L 275.333476 506.488255 
L 283.988955 502.496311 
L 292.863518 498.370973 
L 302.722874 496.010688 
L 339.170099 524.435757 
L 362.602433 534.228742 
L 375.713047 536.089646 
L 388.535266 537.792716 
L 400.002857 538.739454 
L 411.071166 539.365381 
L 421.299221 539.755534 
L 426.171203 539.882599 
L 431.054421 539.96753 
L 435.584461 539.92174 
L 440.106907 539.917412 
L 444.389566 539.818623 
L 448.610313 539.755883 
L 452.717106 539.622211 
L 456.700513 539.509166 
L 460.573723 539.341094 
L 460.957472 539.325588 
L 461.340682 539.312124 
L 461.714941 539.314651 
L 462.097186 539.298564 
L 462.478051 539.284219 
L 462.858653 539.269407 
L 463.237967 539.252934 
L 463.616834 539.23932 
L 463.994517 539.223786 
L 464.343858 539.206085 
L 464.720761 539.190286 
L 465.096881 539.175813 
L 465.472324 539.161466 
L 465.84694 539.145793 
L 466.221487 539.131864 
L 466.59461 539.115783 
L 466.968008 539.102116 
L 467.286974 539.053352 
L 467.657454 539.037131 
L 468.026084 539.021584 
L 471.679405 538.881611 
L 475.303475 538.770454 
L 478.745604 538.601594 
L 481.719657 539.710824 
L 484.928673 539.445399 
L 488.205815 539.160581 
L 491.374322 538.891695 
L 494.286947 538.67351 
L 497.308264 538.546319 
L 500.335521 538.356039 
L 503.167152 537.987121 
L 506.129855 537.56919 
L 509.025074 536.987589 
L 511.693351 535.912225 
L 514.413888 534.542659 
L 517.074157 530.801126 
L 520.834769 517.544305 
L 523.638356 516.919291 
L 526.438061 516.439343 
L 539.294309 515.03137 
L 550.28746 514.984573 
L 561.317283 514.162819 
L 571.778623 512.322351 
L 583.50506 485.872672 
L 593.213629 480.142664 
L 602.471288 475.721702 
L 611.429108 469.501469 
L 643.7551 461.847135 
L 672.008327 458.285427 
L 698.743629 455.23212 
L 724.629049 451.839827 
L 749.913289 441.353262 
L 774.616993 439.903602 
L 798.993932 439.903602 
L 823.15846 439.903602 
L 847.100617 439.903602 
L 870.818577 439.903602 
L 894.392552 439.903602 
L 917.853044 439.903602 
L 941.288055 439.903602 
L 964.575117 439.903602 
L 987.794374 439.903602 
L 1010.963473 439.903602 
L 1034.092821 439.903602 
L 1057.197136 439.903602 
L 1080.27373 439.903602 
L 1103.299452 439.903602 
L 1126.38434 439.903602 
L 1149.420782 439.903602 
L 1172.446332 439.903602 
L 1195.461818 439.903602 
" style="fill:none;stroke:#000000;stroke-linecap:square;stroke-width:1.5;"/>
   </g>
   <g id="line2d_17">
    <path clip-path="url(#pab7ba4a2fd)" d="M 221.498182 439.903602 
L 232.251523 439.903602 
L 243.359721 439.903602 
L 254.545488 444.971337 
L 264.97605 439.903602 
L 275.333476 439.903602 
L 283.988955 439.903602 
L 292.863518 439.903602 
L 302.722874 439.903602 
L 339.170099 447.844261 
L 362.602433 476.062061 
L 375.713047 479.040681 
L 388.535266 484.639756 
L 400.002857 486.362895 
L 411.071166 487.049782 
L 421.299221 487.52919 
L 426.171203 487.733383 
L 431.054421 487.802498 
L 435.584461 487.911271 
L 440.106907 487.903492 
L 444.389566 487.663217 
L 448.610313 487.54922 
L 452.717106 487.18646 
L 456.700513 486.889846 
L 460.573723 486.320662 
L 460.957472 486.269179 
L 461.340682 486.212565 
L 461.714941 486.249247 
L 462.097186 486.202562 
L 462.478051 486.142439 
L 462.858653 486.091314 
L 463.237967 486.037787 
L 463.616834 485.979946 
L 463.994517 485.927251 
L 464.343858 485.830577 
L 464.720761 485.777951 
L 465.096881 485.721125 
L 465.472324 485.663481 
L 465.84694 485.608886 
L 466.221487 485.550927 
L 466.59461 485.496068 
L 466.968008 485.439845 
L 467.286974 485.244821 
L 467.657454 485.190173 
L 468.026084 485.13072 
L 471.679405 484.67007 
L 475.303475 484.105671 
L 478.745604 483.504157 
L 481.719657 477.042741 
L 484.928673 475.957208 
L 488.205815 475.386178 
L 491.374322 474.62336 
L 494.286947 473.000155 
L 497.308264 472.178627 
L 500.335521 471.81072 
L 503.167152 471.517964 
L 506.129855 471.626453 
L 509.025074 471.896498 
L 511.693351 472.181739 
L 514.413888 472.924765 
L 517.074157 476.405504 
L 520.834769 487.086623 
L 523.638356 487.031512 
L 526.438061 487.099878 
L 539.294309 486.467972 
L 550.28746 480.36613 
L 561.317283 479.685208 
L 571.778623 480.966129 
L 583.50506 480.571283 
L 593.213629 478.954196 
L 602.471288 477.8907 
L 611.429108 476.418786 
L 643.7551 474.049822 
L 672.008327 471.403569 
L 698.743629 469.936663 
L 724.629049 469.284005 
L 749.913289 468.3535 
L 774.616993 468.52022 
L 798.993932 468.820468 
L 823.15846 469.004652 
L 847.100617 469.232264 
L 870.818577 469.380744 
L 894.392552 469.512903 
L 917.853044 469.607618 
L 941.288055 469.676801 
L 964.575117 469.717412 
L 987.794374 469.736205 
L 1010.963473 469.739243 
L 1034.092821 469.73585 
L 1057.197136 469.725756 
L 1080.27373 469.702895 
L 1103.299452 469.683225 
L 1126.38434 469.658826 
L 1149.420782 469.631776 
L 1172.446332 469.603841 
L 1195.461818 469.578769 
" style="fill:none;stroke:#0000ff;stroke-dasharray:5.55,2.4;stroke-dashoffset:0;stroke-width:1.5;"/>
   </g>
   <g id="line2d_18">
    <path clip-path="url(#pab7ba4a2fd)" d="M 221.498182 543.632732 
L 232.251523 543.838526 
L 243.359721 544.338839 
L 254.545488 545.010116 
L 264.97605 545.779585 
L 275.333476 546.590473 
L 283.988955 547.31136 
L 292.863518 548.263803 
L 302.722874 549.094905 
L 339.170099 549.559678 
L 362.602433 549.920644 
L 375.713047 549.652205 
L 388.535266 546.296953 
L 400.002857 548.497867 
L 411.071166 548.233726 
L 421.299221 544.073247 
L 426.171203 544.157005 
L 431.054421 544.460354 
L 435.584461 544.854265 
L 440.106907 545.263668 
L 444.389566 545.666103 
L 448.610313 546.041014 
L 452.717106 546.318536 
L 456.700513 546.702365 
L 460.573723 546.501467 
L 460.957472 546.500837 
L 461.340682 546.496635 
L 461.714941 546.478124 
L 462.097186 546.474169 
L 462.478051 546.469772 
L 462.858653 546.46503 
L 463.237967 546.45977 
L 463.616834 546.45319 
L 463.994517 546.446484 
L 464.343858 546.443993 
L 464.720761 546.436571 
L 465.096881 546.43031 
L 465.472324 546.422512 
L 465.84694 546.416158 
L 466.221487 546.408413 
L 466.59461 546.397671 
L 466.968008 546.388663 
L 467.286974 546.383089 
L 467.657454 546.377774 
L 468.026084 546.369566 
L 471.679405 544.68897 
L 475.303475 544.562883 
L 478.745604 544.434862 
L 481.719657 544.290615 
L 484.928673 544.141159 
L 488.205815 543.999 
L 491.374322 543.872383 
L 494.286947 543.895448 
L 497.308264 543.920494 
L 500.335521 543.924824 
L 503.167152 543.920747 
L 506.129855 543.930374 
L 509.025074 543.946159 
L 511.693351 543.945578 
L 514.413888 543.92876 
L 517.074157 543.888397 
L 520.834769 543.815068 
L 523.638356 543.816601 
L 526.438061 543.909527 
L 539.294309 543.576056 
L 550.28746 543.670261 
L 561.317283 543.672048 
L 571.778623 543.679194 
L 583.50506 543.684379 
L 593.213629 543.647142 
L 602.471288 543.526108 
L 611.429108 543.426088 
L 643.7551 543.178665 
L 672.008327 543.0377 
L 698.743629 542.952961 
L 724.629049 542.891413 
L 749.913289 542.870504 
L 774.616993 542.836873 
L 798.993932 542.824296 
L 823.15846 542.822706 
L 847.100617 542.80046 
L 870.818577 542.793316 
L 894.392552 542.786781 
L 917.853044 542.780857 
L 941.288055 542.777381 
L 964.575117 542.772298 
L 987.794374 542.766794 
L 1010.963473 542.761714 
L 1034.092821 542.744255 
L 1057.197136 542.723759 
L 1080.27373 542.699811 
L 1103.299452 542.670268 
L 1126.38434 542.633766 
L 1149.420782 542.585197 
L 1172.446332 542.510071 
L 1195.461818 542.39587 
" style="fill:none;stroke:#008000;stroke-dasharray:5.55,2.4;stroke-dashoffset:0;stroke-width:1.5;"/>
   </g>
   <g id="line2d_19">
    <path clip-path="url(#pab7ba4a2fd)" d="M 221.498182 332.795517 
L 232.251523 331.280131 
L 243.359721 329.673155 
L 254.545488 327.978188 
L 264.97605 326.082207 
L 275.333476 323.892497 
L 283.988955 321.157565 
L 292.863518 318.591353 
L 302.722874 316.147318 
L 339.170099 313.531704 
L 362.602433 311.233263 
L 375.713047 305.345708 
L 388.535266 291.376828 
L 400.002857 292.119883 
L 411.071166 287.764236 
L 421.299221 273.063884 
L 426.171203 272.671973 
L 431.054421 272.098152 
L 435.584461 271.281228 
L 440.106907 270.397774 
L 444.389566 269.416826 
L 448.610313 268.3611 
L 452.717106 267.164484 
L 456.700513 266.797418 
L 460.573723 263.89264 
L 460.957472 263.702965 
L 461.340682 263.49343 
L 461.714941 263.270684 
L 462.097186 263.080637 
L 462.478051 262.891695 
L 462.858653 262.702458 
L 463.237967 262.511431 
L 463.616834 262.320361 
L 463.994517 262.129015 
L 464.343858 261.939782 
L 464.720761 261.750015 
L 465.096881 261.559289 
L 465.472324 261.368259 
L 465.84694 261.148759 
L 466.221487 260.959108 
L 466.59461 260.772474 
L 466.968008 260.581847 
L 467.286974 260.390277 
L 467.657454 260.200612 
L 468.026084 260.011432 
L 471.679405 253.034585 
L 475.303475 251.526006 
L 478.745604 250.091556 
L 481.719657 248.676448 
L 484.928673 247.298428 
L 488.205815 245.963192 
L 491.374322 244.675839 
L 494.286947 244.02875 
L 497.308264 243.26892 
L 500.335521 242.328134 
L 503.167152 241.254412 
L 506.129855 240.356579 
L 509.025074 239.467422 
L 511.693351 238.552905 
L 514.413888 237.61565 
L 517.074157 236.655653 
L 520.834769 235.672945 
L 523.638356 234.886262 
L 526.438061 234.284835 
L 539.294309 229.798427 
L 550.28746 225.194679 
L 561.317283 222.265145 
L 571.778623 219.485219 
L 583.50506 217.032215 
L 593.213629 214.823969 
L 602.471288 212.807537 
L 611.429108 210.941101 
L 643.7551 204.519676 
L 672.008327 198.990852 
L 698.743629 193.938293 
L 724.629049 189.163862 
L 749.913289 184.568956 
L 774.616993 180.109419 
L 798.993932 175.725379 
L 823.15846 171.425377 
L 847.100617 167.182985 
L 870.818577 162.965829 
L 894.392552 158.781012 
L 917.853044 154.621871 
L 941.288055 150.481004 
L 964.575117 146.358552 
L 987.794374 142.250247 
L 1010.963473 138.152152 
L 1034.092821 134.075792 
L 1057.197136 130.008511 
L 1080.27373 125.951461 
L 1103.299452 121.910263 
L 1126.38434 117.868928 
L 1149.420782 113.848368 
L 1172.446332 109.8571 
L 1195.461818 105.9084 
" style="fill:none;stroke:#ff0000;stroke-dasharray:5.55,2.4;stroke-dashoffset:0;stroke-width:1.5;"/>
   </g>
   <g id="line2d_20">
    <path clip-path="url(#pab7ba4a2fd)" d="M 221.498182 510.634142 
L 232.251523 509.703442 
L 243.359721 508.453062 
L 254.545488 506.832709 
L 264.97605 504.764789 
L 275.333476 502.041081 
L 283.988955 498.780869 
L 292.863518 493.091769 
L 302.722874 482.145452 
L 339.170099 470.658322 
L 362.602433 463.731869 
L 375.713047 464.854861 
L 388.535266 498.340288 
L 400.002857 473.734979 
L 411.071166 471.057369 
L 421.299221 505.182541 
L 426.171203 502.112074 
L 431.054421 500.062026 
L 435.584461 497.995649 
L 440.106907 495.64957 
L 444.389566 493.051808 
L 448.610313 490.159054 
L 452.717106 487.40647 
L 456.700513 483.150756 
L 460.573723 484.845861 
L 460.957472 484.820508 
L 461.340682 484.756437 
L 461.714941 484.994856 
L 462.097186 485.029076 
L 462.478051 485.063057 
L 462.858653 485.12049 
L 463.237967 485.178018 
L 463.616834 485.251264 
L 463.994517 485.335735 
L 464.343858 485.361017 
L 464.720761 485.47046 
L 465.096881 485.527278 
L 465.472324 485.64575 
L 465.84694 485.607325 
L 466.221487 485.712751 
L 466.59461 485.817616 
L 466.968008 485.945882 
L 467.286974 486.045873 
L 467.657454 486.117145 
L 468.026084 486.22262 
L 471.679405 513.317285 
L 475.303475 513.817498 
L 478.745604 514.145772 
L 481.719657 514.439682 
L 484.928673 514.661634 
L 488.205815 514.774511 
L 491.374322 514.682598 
L 494.286947 511.30919 
L 497.308264 509.658062 
L 500.335521 508.783269 
L 503.167152 508.323348 
L 506.129855 507.598201 
L 509.025074 506.936298 
L 511.693351 506.465653 
L 514.413888 506.151315 
L 517.074157 505.990947 
L 520.834769 505.960454 
L 523.638356 505.059388 
L 526.438061 503.988145 
L 539.294309 505.325572 
L 550.28746 505.939099 
L 561.317283 504.981849 
L 571.778623 504.933194 
L 583.50506 504.907734 
L 593.213629 505.097673 
L 602.471288 505.672208 
L 611.429108 506.144646 
L 643.7551 507.185863 
L 672.008327 507.72174 
L 698.743629 508.046453 
L 724.629049 508.288539 
L 749.913289 508.364659 
L 774.616993 508.503424 
L 798.993932 508.532549 
L 823.15846 508.569506 
L 847.100617 508.664931 
L 870.818577 508.710628 
L 894.392552 508.75103 
L 917.853044 508.791593 
L 941.288055 508.804768 
L 964.575117 508.856484 
L 987.794374 508.904023 
L 1010.963473 508.960609 
L 1034.092821 509.196072 
L 1057.197136 509.488573 
L 1080.27373 509.834968 
L 1103.299452 510.284517 
L 1126.38434 510.865413 
L 1149.420782 511.689974 
L 1172.446332 513.094014 
L 1195.461818 515.708944 
" style="fill:none;stroke:#00bfbf;stroke-dasharray:5.55,2.4;stroke-dashoffset:0;stroke-width:1.5;"/>
   </g>
   <g id="line2d_21">
    <path clip-path="url(#pab7ba4a2fd)" d="M 221.498182 492.286633 
L 232.251523 491.723661 
L 243.359721 491.053988 
L 254.545488 490.270294 
L 264.97605 489.191795 
L 275.333476 486.882251 
L 283.988955 478.074486 
L 292.863518 475.111261 
L 302.722874 474.270617 
L 339.170099 473.205909 
L 362.602433 471.708126 
L 375.713047 444.259549 
L 388.535266 493.486947 
L 400.002857 465.859734 
L 411.071166 468.35769 
L 421.299221 507.781993 
L 426.171203 507.490347 
L 431.054421 506.626835 
L 435.584461 505.51559 
L 440.106907 504.123138 
L 444.389566 502.540069 
L 448.610313 500.71681 
L 452.717106 499.01294 
L 456.700513 490.977571 
L 460.573723 501.28277 
L 460.957472 501.625996 
L 461.340682 501.846515 
L 461.714941 502.437205 
L 462.097186 502.741158 
L 462.478051 503.015994 
L 462.858653 503.297696 
L 463.237967 503.579292 
L 463.616834 503.861098 
L 463.994517 504.139241 
L 464.343858 504.39218 
L 464.720761 504.629148 
L 465.096881 504.87771 
L 465.472324 505.130951 
L 465.84694 505.672945 
L 466.221487 505.882094 
L 466.59461 505.820316 
L 466.968008 506.008414 
L 467.286974 506.488874 
L 467.657454 506.672772 
L 468.026084 506.851306 
L 471.679405 524.802878 
L 475.303475 525.816012 
L 478.745604 526.364292 
L 481.719657 526.593076 
L 484.928673 526.240739 
L 488.205815 525.384446 
L 491.374322 523.83016 
L 494.286947 522.058857 
L 497.308264 520.552353 
L 500.335521 518.631626 
L 503.167152 515.47827 
L 506.129855 514.569484 
L 509.025074 514.17523 
L 511.693351 513.934037 
L 514.413888 513.766775 
L 517.074157 513.507437 
L 520.834769 513.038453 
L 523.638356 512.927751 
L 526.438061 513.455526 
L 539.294309 511.600869 
L 550.28746 468.912312 
L 561.317283 465.286541 
L 571.778623 456.738966 
L 583.50506 449.267161 
L 593.213629 439.903602 
L 602.471288 439.903602 
L 611.429108 439.903602 
L 643.7551 439.903602 
L 672.008327 439.903602 
L 698.743629 439.903602 
L 724.629049 439.903602 
L 749.913289 439.903602 
L 774.616993 439.903602 
L 798.993932 439.903602 
L 823.15846 439.903602 
L 847.100617 439.903602 
L 870.818577 439.903602 
L 894.392552 439.903602 
L 917.853044 439.903602 
L 941.288055 439.903602 
L 964.575117 439.903602 
L 987.794374 439.903602 
L 1010.963473 439.903602 
L 1034.092821 439.903602 
L 1057.197136 439.903602 
L 1080.27373 439.903602 
L 1103.299452 439.903602 
L 1126.38434 439.903602 
L 1149.420782 439.903602 
L 1172.446332 439.903602 
L 1195.461818 439.903602 
" style="fill:none;stroke:#bf00bf;stroke-dasharray:5.55,2.4;stroke-dashoffset:0;stroke-width:1.5;"/>
   </g>
   <g id="line2d_22">
    <path clip-path="url(#pab7ba4a2fd)" d="M 221.498182 580.518406 
L 232.251523 580.601906 
L 243.359721 580.464719 
L 254.545488 580.240281 
L 264.97605 580.004162 
L 275.333476 579.807397 
L 283.988955 579.744077 
L 292.863518 579.549615 
L 302.722874 579.523056 
L 339.170099 579.900565 
L 362.602433 580.355397 
L 375.713047 581.138961 
L 388.535266 581.636294 
L 400.002857 582.267308 
L 411.071166 582.361106 
L 421.299221 577.705281 
L 426.171203 577.976353 
L 431.054421 578.260225 
L 435.584461 578.513633 
L 440.106907 578.763576 
L 444.389566 578.991714 
L 448.610313 579.19692 
L 452.717106 579.341329 
L 456.700513 579.694949 
L 460.573723 579.327012 
L 460.957472 579.320359 
L 461.340682 579.308481 
L 461.714941 579.286746 
L 462.097186 579.27957 
L 462.478051 579.27284 
L 462.858653 579.266378 
L 463.237967 579.258899 
L 463.616834 579.251602 
L 463.994517 579.244058 
L 464.343858 579.23947 
L 464.720761 579.233323 
L 465.096881 579.227801 
L 465.472324 579.221038 
L 465.84694 579.206953 
L 466.221487 579.201849 
L 466.59461 579.199801 
L 466.968008 579.195121 
L 467.286974 579.187585 
L 467.657454 579.185033 
L 468.026084 579.181509 
L 471.679405 578.376106 
L 475.303475 578.553792 
L 478.745604 578.749994 
L 481.719657 578.945591 
L 484.928673 579.135806 
L 488.205815 579.326537 
L 491.374322 579.507018 
L 494.286947 579.698618 
L 497.308264 579.876695 
L 500.335521 580.030071 
L 503.167152 580.169983 
L 506.129855 580.328483 
L 509.025074 580.477616 
L 511.693351 580.611204 
L 514.413888 580.733101 
L 517.074157 580.846948 
L 520.834769 580.970328 
L 523.638356 581.066511 
L 526.438061 581.129415 
L 539.294309 581.521367 
L 550.28746 581.934414 
L 561.317283 582.214256 
L 571.778623 582.501178 
L 583.50506 582.725465 
L 593.213629 582.881592 
L 602.471288 582.966757 
L 611.429108 583.0356 
L 643.7551 583.254 
L 672.008327 583.436403 
L 698.743629 583.549115 
L 724.629049 583.607563 
L 749.913289 583.64115 
L 774.616993 583.661062 
L 798.993932 583.673858 
L 823.15846 583.681903 
L 847.100617 583.688105 
L 870.818577 583.693451 
L 894.392552 583.69849 
L 917.853044 583.702725 
L 941.288055 583.70683 
L 964.575117 583.70968 
L 987.794374 583.710234 
L 1010.963473 583.709345 
L 1034.092821 583.711184 
L 1057.197136 583.716877 
L 1080.27373 583.721412 
L 1103.299452 583.718718 
L 1126.38434 583.724057 
L 1149.420782 583.724687 
L 1172.446332 583.725399 
L 1195.461818 583.726569 
" style="fill:none;stroke:#bfbf00;stroke-dasharray:5.55,2.4;stroke-dashoffset:0;stroke-width:1.5;"/>
   </g>
   <g id="line2d_23">
    <path clip-path="url(#pab7ba4a2fd)" d="M 221.498182 333.285907 
L 232.251523 332.050587 
L 243.359721 330.841768 
L 254.545488 329.69655 
L 264.97605 328.550841 
L 275.333476 327.365731 
L 283.988955 325.961522 
L 292.863518 325.042581 
L 302.722874 324.463348 
L 339.170099 323.810535 
L 362.602433 323.460442 
L 375.713047 320.584306 
L 388.535266 310.385672 
L 400.002857 313.857288 
L 411.071166 312.322542 
L 421.299221 302.319802 
L 426.171203 303.154203 
L 431.054421 303.992462 
L 435.584461 304.728732 
L 440.106907 305.403955 
L 444.389566 305.993118 
L 448.610313 306.49042 
L 452.717106 306.82599 
L 456.700513 307.157983 
L 460.573723 307.291119 
L 460.957472 307.320674 
L 461.340682 307.326305 
L 461.714941 307.345454 
L 462.097186 307.370538 
L 462.478051 307.393363 
L 462.858653 307.417262 
L 463.237967 307.441206 
L 463.616834 307.464604 
L 463.994517 307.488302 
L 464.343858 307.51488 
L 464.720761 307.535389 
L 465.096881 307.558845 
L 465.472324 307.58235 
L 465.84694 307.629093 
L 466.221487 307.649656 
L 466.59461 307.636866 
L 466.968008 307.654545 
L 467.286974 307.711616 
L 467.657454 307.734484 
L 468.026084 307.754641 
L 471.679405 307.135605 
L 475.303475 307.52417 
L 478.745604 307.905031 
L 481.719657 308.246032 
L 484.928673 308.524575 
L 488.205815 308.777151 
L 491.374322 308.984291 
L 494.286947 309.307265 
L 497.308264 309.619047 
L 500.335521 309.864406 
L 503.167152 309.996626 
L 506.129855 310.270124 
L 509.025074 310.556069 
L 511.693351 310.821711 
L 514.413888 311.065171 
L 517.074157 311.278804 
L 520.834769 311.463351 
L 523.638356 311.675009 
L 526.438061 311.939383 
L 539.294309 312.581081 
L 550.28746 312.598867 
L 561.317283 313.280471 
L 571.778623 313.885797 
L 583.50506 314.370316 
L 593.213629 314.749147 
L 602.471288 315.027452 
L 611.429108 315.254458 
L 643.7551 315.891437 
L 672.008327 316.254628 
L 698.743629 316.446851 
L 724.629049 316.53826 
L 749.913289 316.582463 
L 774.616993 316.604326 
L 798.993932 316.614519 
L 823.15846 316.620037 
L 847.100617 316.623764 
L 870.818577 316.626637 
L 894.392552 316.629021 
L 917.853044 316.631526 
L 941.288055 316.633696 
L 964.575117 316.635761 
L 987.794374 316.638662 
L 1010.963473 316.642007 
L 1034.092821 316.64462 
L 1057.197136 316.643372 
L 1080.27373 316.642466 
L 1103.299452 316.639774 
L 1126.38434 316.642907 
L 1149.420782 316.643904 
L 1172.446332 316.645134 
L 1195.461818 316.646529 
" style="fill:none;stroke:#000000;stroke-dasharray:5.55,2.4;stroke-dashoffset:0;stroke-width:1.5;"/>
   </g>
   <g id="line2d_24">
    <path clip-path="url(#pab7ba4a2fd)" d="M 221.498182 495.721842 
L 232.251523 496.467416 
L 243.359721 497.532589 
L 254.545488 498.95612 
L 264.97605 500.58569 
L 275.333476 501.941717 
L 283.988955 500.959633 
L 292.863518 503.120616 
L 302.722874 505.829809 
L 339.170099 507.407578 
L 362.602433 508.369603 
L 375.713047 488.377919 
L 388.535266 480.87124 
L 400.002857 474.32563 
L 411.071166 471.063017 
L 421.299221 439.903602 
L 426.171203 439.903602 
L 431.054421 439.903602 
L 435.584461 439.903602 
L 440.106907 439.903602 
L 444.389566 439.903602 
L 448.610313 439.903602 
L 452.717106 439.903602 
L 456.700513 439.903602 
L 460.573723 439.903602 
L 460.957472 439.903602 
L 461.340682 439.903602 
L 461.714941 439.903602 
L 462.097186 439.903602 
L 462.478051 439.903602 
L 462.858653 439.903602 
L 463.237967 439.903602 
L 463.616834 439.903602 
L 463.994517 439.903602 
L 464.343858 439.903602 
L 464.720761 439.903602 
L 465.096881 439.903602 
L 465.472324 439.903602 
L 465.84694 439.903602 
L 466.221487 439.903604 
L 466.59461 439.903602 
L 466.968008 439.903604 
L 467.286974 439.903604 
L 467.657454 439.903602 
L 468.026084 439.903602 
L 471.679405 439.90361 
L 475.303475 439.903602 
L 478.745604 439.903627 
L 481.719657 439.903602 
L 484.928673 439.90361 
L 488.205815 439.903602 
L 491.374322 439.903602 
L 494.286947 439.903602 
L 497.308264 439.903602 
L 500.335521 439.903602 
L 503.167152 439.903602 
L 506.129855 439.903602 
L 509.025074 439.903602 
L 511.693351 439.903602 
L 514.413888 439.903602 
L 517.074157 439.903602 
L 520.834769 439.903602 
L 523.638356 439.903602 
L 526.438061 439.903602 
L 539.294309 439.903602 
L 550.28746 439.903602 
L 561.317283 439.903602 
L 571.778623 439.903602 
L 583.50506 439.903602 
L 593.213629 439.903602 
L 602.471288 439.903602 
L 611.429108 439.903602 
L 643.7551 439.903602 
L 672.008327 439.903602 
L 698.743629 439.903602 
L 724.629049 439.903602 
L 749.913289 439.903602 
L 774.616993 439.903602 
L 798.993932 439.903602 
L 823.15846 439.903602 
L 847.100617 439.903602 
L 870.818577 439.903602 
L 894.392552 439.903602 
L 917.853044 439.903602 
L 941.288055 439.903602 
L 964.575117 439.903602 
L 987.794374 439.903602 
L 1010.963473 439.903602 
L 1034.092821 439.903602 
L 1057.197136 439.903602 
L 1080.27373 439.903602 
L 1103.299452 439.903602 
L 1126.38434 439.903602 
L 1149.420782 439.903602 
L 1172.446332 439.903602 
L 1195.461818 439.903602 
" style="fill:none;stroke:#0000ff;stroke-linecap:square;stroke-width:1.5;"/>
   </g>
   <g id="line2d_25">
    <path clip-path="url(#pab7ba4a2fd)" d="M 221.498182 511.590409 
L 232.251523 511.099841 
L 243.359721 510.57289 
L 254.545488 510.116713 
L 264.97605 509.850982 
L 275.333476 509.774065 
L 283.988955 509.947402 
L 292.863518 510.086823 
L 302.722874 509.607183 
L 339.170099 508.285355 
L 362.602433 504.429515 
L 375.713047 506.406732 
L 388.535266 512.184032 
L 400.002857 510.935547 
L 411.071166 507.43991 
L 421.299221 507.213903 
L 426.171203 502.148566 
L 431.054421 499.525392 
L 435.584461 498.445594 
L 440.106907 497.237443 
L 444.389566 495.891293 
L 448.610313 494.130043 
L 452.717106 492.072579 
L 456.700513 472.876169 
L 460.573723 493.598697 
L 460.957472 493.9314 
L 461.340682 494.202649 
L 461.714941 494.690398 
L 462.097186 494.995459 
L 462.478051 495.281682 
L 462.858653 495.576806 
L 463.237967 495.878862 
L 463.616834 496.182228 
L 463.994517 496.485236 
L 464.343858 496.789075 
L 464.720761 497.075839 
L 465.096881 497.381899 
L 465.472324 497.68217 
L 465.84694 498.131312 
L 466.221487 498.413789 
L 466.59461 498.586645 
L 466.968008 498.873804 
L 467.286974 499.264535 
L 467.657454 499.559854 
L 468.026084 499.841992 
L 471.679405 541.410521 
L 475.303475 542.30413 
L 478.745604 542.926271 
L 481.719657 543.389424 
L 484.928673 543.675227 
L 488.205815 543.858903 
L 491.374322 543.881797 
L 494.286947 540.198456 
L 497.308264 536.817105 
L 500.335521 534.490033 
L 503.167152 533.341455 
L 506.129855 530.478094 
L 509.025074 527.125317 
L 511.693351 523.701497 
L 514.413888 520.280312 
L 517.074157 517.203959 
L 520.834769 515.117635 
L 523.638356 511.620348 
L 526.438061 507.279152 
L 539.294309 498.839673 
L 550.28746 514.385166 
L 561.317283 507.273186 
L 571.778623 504.195322 
L 583.50506 500.699334 
L 593.213629 497.202484 
L 602.471288 492.789934 
L 611.429108 488.191782 
L 643.7551 470.434515 
L 672.008327 467.295494 
L 698.743629 466.207494 
L 724.629049 465.811898 
L 749.913289 465.766128 
L 774.616993 465.919226 
L 798.993932 466.142407 
L 823.15846 466.382905 
L 847.100617 466.632585 
L 870.818577 466.863629 
L 894.392552 467.074051 
L 917.853044 467.257578 
L 941.288055 467.416779 
L 964.575117 467.546924 
L 987.794374 467.64428 
L 1010.963473 467.719258 
L 1034.092821 467.804061 
L 1057.197136 467.896472 
L 1080.27373 467.967152 
L 1103.299452 467.946558 
L 1126.38434 468.050155 
L 1149.420782 468.084359 
L 1172.446332 468.119417 
L 1195.461818 468.15714 
" style="fill:none;stroke:#008000;stroke-linecap:square;stroke-width:1.5;"/>
   </g>
   <g id="patch_3">
    <path d="M 172.8 608.1192 
L 172.8 81.9936 
" style="fill:none;stroke:#000000;stroke-linecap:square;stroke-linejoin:miter;stroke-width:0.8;"/>
   </g>
   <g id="patch_4">
    <path d="M 1244.16 608.1192 
L 1244.16 81.9936 
" style="fill:none;stroke:#000000;stroke-linecap:square;stroke-linejoin:miter;stroke-width:0.8;"/>
   </g>
   <g id="patch_5">
    <path d="M 172.8 608.1192 
L 1244.16 608.1192 
" style="fill:none;stroke:#000000;stroke-linecap:square;stroke-linejoin:miter;stroke-width:0.8;"/>
   </g>
   <g id="patch_6">
    <path d="M 172.8 81.9936 
L 1244.16 81.9936 
" style="fill:none;stroke:#000000;stroke-linecap:square;stroke-linejoin:miter;stroke-width:0.8;"/>
   </g>
   <g id="legend_1">
    <g id="patch_7">
     <path d="M 179.8 314.33735 
L 355.285937 314.33735 
Q 357.285937 314.33735 357.285937 312.33735 
L 357.285937 88.9936 
Q 357.285937 86.9936 355.285937 86.9936 
L 179.8 86.9936 
Q 177.8 86.9936 177.8 88.9936 
L 177.8 312.33735 
Q 177.8 314.33735 179.8 314.33735 
z
" style="fill:#ffffff;opacity:0.8;stroke:#cccccc;stroke-linejoin:miter;"/>
    </g>
    <g id="line2d_26">
     <path d="M 181.8 95.092038 
L 201.8 95.092038 
" style="fill:none;stroke:#0000ff;stroke-linecap:square;stroke-width:1.5;"/>
    </g>
    <g id="line2d_27"/>
    <g id="text_11">
     <!-- input_left_steepness -->
     <defs>
      <path d="M 9.421875 54.6875 
L 18.40625 54.6875 
L 18.40625 0 
L 9.421875 0 
z
M 9.421875 75.984375 
L 18.40625 75.984375 
L 18.40625 64.59375 
L 9.421875 64.59375 
z
" id="DejaVuSans-69"/>
      <path d="M 54.890625 33.015625 
L 54.890625 0 
L 45.90625 0 
L 45.90625 32.71875 
Q 45.90625 40.484375 42.875 44.328125 
Q 39.84375 48.1875 33.796875 48.1875 
Q 26.515625 48.1875 22.3125 43.546875 
Q 18.109375 38.921875 18.109375 30.90625 
L 18.109375 0 
L 9.078125 0 
L 9.078125 54.6875 
L 18.109375 54.6875 
L 18.109375 46.1875 
Q 21.34375 51.125 25.703125 53.5625 
Q 30.078125 56 35.796875 56 
Q 45.21875 56 50.046875 50.171875 
Q 54.890625 44.34375 54.890625 33.015625 
z
" id="DejaVuSans-6e"/>
      <path d="M 18.109375 8.203125 
L 18.109375 -20.796875 
L 9.078125 -20.796875 
L 9.078125 54.6875 
L 18.109375 54.6875 
L 18.109375 46.390625 
Q 20.953125 51.265625 25.265625 53.625 
Q 29.59375 56 35.59375 56 
Q 45.5625 56 51.78125 48.09375 
Q 58.015625 40.1875 58.015625 27.296875 
Q 58.015625 14.40625 51.78125 6.484375 
Q 45.5625 -1.421875 35.59375 -1.421875 
Q 29.59375 -1.421875 25.265625 0.953125 
Q 20.953125 3.328125 18.109375 8.203125 
z
M 48.6875 27.296875 
Q 48.6875 37.203125 44.609375 42.84375 
Q 40.53125 48.484375 33.40625 48.484375 
Q 26.265625 48.484375 22.1875 42.84375 
Q 18.109375 37.203125 18.109375 27.296875 
Q 18.109375 17.390625 22.1875 11.75 
Q 26.265625 6.109375 33.40625 6.109375 
Q 40.53125 6.109375 44.609375 11.75 
Q 48.6875 17.390625 48.6875 27.296875 
z
" id="DejaVuSans-70"/>
      <path d="M 8.5 21.578125 
L 8.5 54.6875 
L 17.484375 54.6875 
L 17.484375 21.921875 
Q 17.484375 14.15625 20.5 10.265625 
Q 23.53125 6.390625 29.59375 6.390625 
Q 36.859375 6.390625 41.078125 11.03125 
Q 45.3125 15.671875 45.3125 23.6875 
L 45.3125 54.6875 
L 54.296875 54.6875 
L 54.296875 0 
L 45.3125 0 
L 45.3125 8.40625 
Q 42.046875 3.421875 37.71875 1 
Q 33.40625 -1.421875 27.6875 -1.421875 
Q 18.265625 -1.421875 13.375 4.4375 
Q 8.5 10.296875 8.5 21.578125 
z
M 31.109375 56 
z
" id="DejaVuSans-75"/>
      <path d="M 18.3125 70.21875 
L 18.3125 54.6875 
L 36.8125 54.6875 
L 36.8125 47.703125 
L 18.3125 47.703125 
L 18.3125 18.015625 
Q 18.3125 11.328125 20.140625 9.421875 
Q 21.96875 7.515625 27.59375 7.515625 
L 36.8125 7.515625 
L 36.8125 0 
L 27.59375 0 
Q 17.1875 0 13.234375 3.875 
Q 9.28125 7.765625 9.28125 18.015625 
L 9.28125 47.703125 
L 2.6875 47.703125 
L 2.6875 54.6875 
L 9.28125 54.6875 
L 9.28125 70.21875 
z
" id="DejaVuSans-74"/>
      <path d="M 50.984375 -16.609375 
L 50.984375 -23.578125 
L -0.984375 -23.578125 
L -0.984375 -16.609375 
z
" id="DejaVuSans-5f"/>
      <path d="M 9.421875 75.984375 
L 18.40625 75.984375 
L 18.40625 0 
L 9.421875 0 
z
" id="DejaVuSans-6c"/>
      <path d="M 56.203125 29.59375 
L 56.203125 25.203125 
L 14.890625 25.203125 
Q 15.484375 15.921875 20.484375 11.0625 
Q 25.484375 6.203125 34.421875 6.203125 
Q 39.59375 6.203125 44.453125 7.46875 
Q 49.3125 8.734375 54.109375 11.28125 
L 54.109375 2.78125 
Q 49.265625 0.734375 44.1875 -0.34375 
Q 39.109375 -1.421875 33.890625 -1.421875 
Q 20.796875 -1.421875 13.15625 6.1875 
Q 5.515625 13.8125 5.515625 26.8125 
Q 5.515625 40.234375 12.765625 48.109375 
Q 20.015625 56 32.328125 56 
Q 43.359375 56 49.78125 48.890625 
Q 56.203125 41.796875 56.203125 29.59375 
z
M 47.21875 32.234375 
Q 47.125 39.59375 43.09375 43.984375 
Q 39.0625 48.390625 32.421875 48.390625 
Q 24.90625 48.390625 20.390625 44.140625 
Q 15.875 39.890625 15.1875 32.171875 
z
" id="DejaVuSans-65"/>
      <path d="M 37.109375 75.984375 
L 37.109375 68.5 
L 28.515625 68.5 
Q 23.6875 68.5 21.796875 66.546875 
Q 19.921875 64.59375 19.921875 59.515625 
L 19.921875 54.6875 
L 34.71875 54.6875 
L 34.71875 47.703125 
L 19.921875 47.703125 
L 19.921875 0 
L 10.890625 0 
L 10.890625 47.703125 
L 2.296875 47.703125 
L 2.296875 54.6875 
L 10.890625 54.6875 
L 10.890625 58.5 
Q 10.890625 67.625 15.140625 71.796875 
Q 19.390625 75.984375 28.609375 75.984375 
z
" id="DejaVuSans-66"/>
      <path d="M 44.28125 53.078125 
L 44.28125 44.578125 
Q 40.484375 46.53125 36.375 47.5 
Q 32.28125 48.484375 27.875 48.484375 
Q 21.1875 48.484375 17.84375 46.4375 
Q 14.5 44.390625 14.5 40.28125 
Q 14.5 37.15625 16.890625 35.375 
Q 19.28125 33.59375 26.515625 31.984375 
L 29.59375 31.296875 
Q 39.15625 29.25 43.1875 25.515625 
Q 47.21875 21.78125 47.21875 15.09375 
Q 47.21875 7.46875 41.1875 3.015625 
Q 35.15625 -1.421875 24.609375 -1.421875 
Q 20.21875 -1.421875 15.453125 -0.5625 
Q 10.6875 0.296875 5.421875 2 
L 5.421875 11.28125 
Q 10.40625 8.6875 15.234375 7.390625 
Q 20.0625 6.109375 24.8125 6.109375 
Q 31.15625 6.109375 34.5625 8.28125 
Q 37.984375 10.453125 37.984375 14.40625 
Q 37.984375 18.0625 35.515625 20.015625 
Q 33.0625 21.96875 24.703125 23.78125 
L 21.578125 24.515625 
Q 13.234375 26.265625 9.515625 29.90625 
Q 5.8125 33.546875 5.8125 39.890625 
Q 5.8125 47.609375 11.28125 51.796875 
Q 16.75 56 26.8125 56 
Q 31.78125 56 36.171875 55.265625 
Q 40.578125 54.546875 44.28125 53.078125 
z
" id="DejaVuSans-73"/>
     </defs>
     <g transform="translate(209.8 98.592038)scale(0.1 -0.1)">
      <use xlink:href="#DejaVuSans-69"/>
      <use x="27.783203" xlink:href="#DejaVuSans-6e"/>
      <use x="91.162109" xlink:href="#DejaVuSans-70"/>
      <use x="154.638672" xlink:href="#DejaVuSans-75"/>
      <use x="218.017578" xlink:href="#DejaVuSans-74"/>
      <use x="257.226562" xlink:href="#DejaVuSans-5f"/>
      <use x="307.226562" xlink:href="#DejaVuSans-6c"/>
      <use x="335.009766" xlink:href="#DejaVuSans-65"/>
      <use x="396.533203" xlink:href="#DejaVuSans-66"/>
      <use x="431.722656" xlink:href="#DejaVuSans-74"/>
      <use x="470.931641" xlink:href="#DejaVuSans-5f"/>
      <use x="520.931641" xlink:href="#DejaVuSans-73"/>
      <use x="573.03125" xlink:href="#DejaVuSans-74"/>
      <use x="612.240234" xlink:href="#DejaVuSans-65"/>
      <use x="673.763672" xlink:href="#DejaVuSans-65"/>
      <use x="735.287109" xlink:href="#DejaVuSans-70"/>
      <use x="798.763672" xlink:href="#DejaVuSans-6e"/>
      <use x="862.142578" xlink:href="#DejaVuSans-65"/>
      <use x="923.666016" xlink:href="#DejaVuSans-73"/>
      <use x="975.765625" xlink:href="#DejaVuSans-73"/>
     </g>
    </g>
    <g id="line2d_28">
     <path d="M 181.8 110.048288 
L 201.8 110.048288 
" style="fill:none;stroke:#ff0000;stroke-linecap:square;stroke-width:1.5;"/>
    </g>
    <g id="line2d_29"/>
    <g id="text_12">
     <!-- input_left_curvature_left -->
     <defs>
      <path d="M 48.78125 52.59375 
L 48.78125 44.1875 
Q 44.96875 46.296875 41.140625 47.34375 
Q 37.3125 48.390625 33.40625 48.390625 
Q 24.65625 48.390625 19.8125 42.84375 
Q 14.984375 37.3125 14.984375 27.296875 
Q 14.984375 17.28125 19.8125 11.734375 
Q 24.65625 6.203125 33.40625 6.203125 
Q 37.3125 6.203125 41.140625 7.25 
Q 44.96875 8.296875 48.78125 10.40625 
L 48.78125 2.09375 
Q 45.015625 0.34375 40.984375 -0.53125 
Q 36.96875 -1.421875 32.421875 -1.421875 
Q 20.0625 -1.421875 12.78125 6.34375 
Q 5.515625 14.109375 5.515625 27.296875 
Q 5.515625 40.671875 12.859375 48.328125 
Q 20.21875 56 33.015625 56 
Q 37.15625 56 41.109375 55.140625 
Q 45.0625 54.296875 48.78125 52.59375 
z
" id="DejaVuSans-63"/>
      <path d="M 41.109375 46.296875 
Q 39.59375 47.171875 37.8125 47.578125 
Q 36.03125 48 33.890625 48 
Q 26.265625 48 22.1875 43.046875 
Q 18.109375 38.09375 18.109375 28.8125 
L 18.109375 0 
L 9.078125 0 
L 9.078125 54.6875 
L 18.109375 54.6875 
L 18.109375 46.1875 
Q 20.953125 51.171875 25.484375 53.578125 
Q 30.03125 56 36.53125 56 
Q 37.453125 56 38.578125 55.875 
Q 39.703125 55.765625 41.0625 55.515625 
z
" id="DejaVuSans-72"/>
      <path d="M 2.984375 54.6875 
L 12.5 54.6875 
L 29.59375 8.796875 
L 46.6875 54.6875 
L 56.203125 54.6875 
L 35.6875 0 
L 23.484375 0 
z
" id="DejaVuSans-76"/>
      <path d="M 34.28125 27.484375 
Q 23.390625 27.484375 19.1875 25 
Q 14.984375 22.515625 14.984375 16.5 
Q 14.984375 11.71875 18.140625 8.90625 
Q 21.296875 6.109375 26.703125 6.109375 
Q 34.1875 6.109375 38.703125 11.40625 
Q 43.21875 16.703125 43.21875 25.484375 
L 43.21875 27.484375 
z
M 52.203125 31.203125 
L 52.203125 0 
L 43.21875 0 
L 43.21875 8.296875 
Q 40.140625 3.328125 35.546875 0.953125 
Q 30.953125 -1.421875 24.3125 -1.421875 
Q 15.921875 -1.421875 10.953125 3.296875 
Q 6 8.015625 6 15.921875 
Q 6 25.140625 12.171875 29.828125 
Q 18.359375 34.515625 30.609375 34.515625 
L 43.21875 34.515625 
L 43.21875 35.40625 
Q 43.21875 41.609375 39.140625 45 
Q 35.0625 48.390625 27.6875 48.390625 
Q 23 48.390625 18.546875 47.265625 
Q 14.109375 46.140625 10.015625 43.890625 
L 10.015625 52.203125 
Q 14.9375 54.109375 19.578125 55.046875 
Q 24.21875 56 28.609375 56 
Q 40.484375 56 46.34375 49.84375 
Q 52.203125 43.703125 52.203125 31.203125 
z
" id="DejaVuSans-61"/>
     </defs>
     <g transform="translate(209.8 113.548288)scale(0.1 -0.1)">
      <use xlink:href="#DejaVuSans-69"/>
      <use x="27.783203" xlink:href="#DejaVuSans-6e"/>
      <use x="91.162109" xlink:href="#DejaVuSans-70"/>
      <use x="154.638672" xlink:href="#DejaVuSans-75"/>
      <use x="218.017578" xlink:href="#DejaVuSans-74"/>
      <use x="257.226562" xlink:href="#DejaVuSans-5f"/>
      <use x="307.226562" xlink:href="#DejaVuSans-6c"/>
      <use x="335.009766" xlink:href="#DejaVuSans-65"/>
      <use x="396.533203" xlink:href="#DejaVuSans-66"/>
      <use x="431.722656" xlink:href="#DejaVuSans-74"/>
      <use x="470.931641" xlink:href="#DejaVuSans-5f"/>
      <use x="520.931641" xlink:href="#DejaVuSans-63"/>
      <use x="575.912109" xlink:href="#DejaVuSans-75"/>
      <use x="639.291016" xlink:href="#DejaVuSans-72"/>
      <use x="680.404297" xlink:href="#DejaVuSans-76"/>
      <use x="739.583984" xlink:href="#DejaVuSans-61"/>
      <use x="800.863281" xlink:href="#DejaVuSans-74"/>
      <use x="840.072266" xlink:href="#DejaVuSans-75"/>
      <use x="903.451172" xlink:href="#DejaVuSans-72"/>
      <use x="944.533203" xlink:href="#DejaVuSans-65"/>
      <use x="1006.056641" xlink:href="#DejaVuSans-5f"/>
      <use x="1056.056641" xlink:href="#DejaVuSans-6c"/>
      <use x="1083.839844" xlink:href="#DejaVuSans-65"/>
      <use x="1145.363281" xlink:href="#DejaVuSans-66"/>
      <use x="1180.552734" xlink:href="#DejaVuSans-74"/>
     </g>
    </g>
    <g id="line2d_30">
     <path d="M 181.8 125.004538 
L 201.8 125.004538 
" style="fill:none;stroke:#00bfbf;stroke-linecap:square;stroke-width:1.5;"/>
    </g>
    <g id="line2d_31"/>
    <g id="text_13">
     <!-- input_left_curvature_right -->
     <defs>
      <path d="M 45.40625 27.984375 
Q 45.40625 37.75 41.375 43.109375 
Q 37.359375 48.484375 30.078125 48.484375 
Q 22.859375 48.484375 18.828125 43.109375 
Q 14.796875 37.75 14.796875 27.984375 
Q 14.796875 18.265625 18.828125 12.890625 
Q 22.859375 7.515625 30.078125 7.515625 
Q 37.359375 7.515625 41.375 12.890625 
Q 45.40625 18.265625 45.40625 27.984375 
z
M 54.390625 6.78125 
Q 54.390625 -7.171875 48.1875 -13.984375 
Q 42 -20.796875 29.203125 -20.796875 
Q 24.46875 -20.796875 20.265625 -20.09375 
Q 16.0625 -19.390625 12.109375 -17.921875 
L 12.109375 -9.1875 
Q 16.0625 -11.328125 19.921875 -12.34375 
Q 23.78125 -13.375 27.78125 -13.375 
Q 36.625 -13.375 41.015625 -8.765625 
Q 45.40625 -4.15625 45.40625 5.171875 
L 45.40625 9.625 
Q 42.625 4.78125 38.28125 2.390625 
Q 33.9375 0 27.875 0 
Q 17.828125 0 11.671875 7.65625 
Q 5.515625 15.328125 5.515625 27.984375 
Q 5.515625 40.671875 11.671875 48.328125 
Q 17.828125 56 27.875 56 
Q 33.9375 56 38.28125 53.609375 
Q 42.625 51.21875 45.40625 46.390625 
L 45.40625 54.6875 
L 54.390625 54.6875 
z
" id="DejaVuSans-67"/>
      <path d="M 54.890625 33.015625 
L 54.890625 0 
L 45.90625 0 
L 45.90625 32.71875 
Q 45.90625 40.484375 42.875 44.328125 
Q 39.84375 48.1875 33.796875 48.1875 
Q 26.515625 48.1875 22.3125 43.546875 
Q 18.109375 38.921875 18.109375 30.90625 
L 18.109375 0 
L 9.078125 0 
L 9.078125 75.984375 
L 18.109375 75.984375 
L 18.109375 46.1875 
Q 21.34375 51.125 25.703125 53.5625 
Q 30.078125 56 35.796875 56 
Q 45.21875 56 50.046875 50.171875 
Q 54.890625 44.34375 54.890625 33.015625 
z
" id="DejaVuSans-68"/>
     </defs>
     <g transform="translate(209.8 128.504538)scale(0.1 -0.1)">
      <use xlink:href="#DejaVuSans-69"/>
      <use x="27.783203" xlink:href="#DejaVuSans-6e"/>
      <use x="91.162109" xlink:href="#DejaVuSans-70"/>
      <use x="154.638672" xlink:href="#DejaVuSans-75"/>
      <use x="218.017578" xlink:href="#DejaVuSans-74"/>
      <use x="257.226562" xlink:href="#DejaVuSans-5f"/>
      <use x="307.226562" xlink:href="#DejaVuSans-6c"/>
      <use x="335.009766" xlink:href="#DejaVuSans-65"/>
      <use x="396.533203" xlink:href="#DejaVuSans-66"/>
      <use x="431.722656" xlink:href="#DejaVuSans-74"/>
      <use x="470.931641" xlink:href="#DejaVuSans-5f"/>
      <use x="520.931641" xlink:href="#DejaVuSans-63"/>
      <use x="575.912109" xlink:href="#DejaVuSans-75"/>
      <use x="639.291016" xlink:href="#DejaVuSans-72"/>
      <use x="680.404297" xlink:href="#DejaVuSans-76"/>
      <use x="739.583984" xlink:href="#DejaVuSans-61"/>
      <use x="800.863281" xlink:href="#DejaVuSans-74"/>
      <use x="840.072266" xlink:href="#DejaVuSans-75"/>
      <use x="903.451172" xlink:href="#DejaVuSans-72"/>
      <use x="944.533203" xlink:href="#DejaVuSans-65"/>
      <use x="1006.056641" xlink:href="#DejaVuSans-5f"/>
      <use x="1056.056641" xlink:href="#DejaVuSans-72"/>
      <use x="1097.169922" xlink:href="#DejaVuSans-69"/>
      <use x="1124.953125" xlink:href="#DejaVuSans-67"/>
      <use x="1188.429688" xlink:href="#DejaVuSans-68"/>
      <use x="1251.808594" xlink:href="#DejaVuSans-74"/>
     </g>
    </g>
    <g id="line2d_32">
     <path d="M 181.8 139.960788 
L 201.8 139.960788 
" style="fill:none;stroke:#bf00bf;stroke-linecap:square;stroke-width:1.5;"/>
    </g>
    <g id="line2d_33"/>
    <g id="text_14">
     <!-- input_right_steepness -->
     <g transform="translate(209.8 143.460788)scale(0.1 -0.1)">
      <use xlink:href="#DejaVuSans-69"/>
      <use x="27.783203" xlink:href="#DejaVuSans-6e"/>
      <use x="91.162109" xlink:href="#DejaVuSans-70"/>
      <use x="154.638672" xlink:href="#DejaVuSans-75"/>
      <use x="218.017578" xlink:href="#DejaVuSans-74"/>
      <use x="257.226562" xlink:href="#DejaVuSans-5f"/>
      <use x="307.226562" xlink:href="#DejaVuSans-72"/>
      <use x="348.339844" xlink:href="#DejaVuSans-69"/>
      <use x="376.123047" xlink:href="#DejaVuSans-67"/>
      <use x="439.599609" xlink:href="#DejaVuSans-68"/>
      <use x="502.978516" xlink:href="#DejaVuSans-74"/>
      <use x="542.1875" xlink:href="#DejaVuSans-5f"/>
      <use x="592.1875" xlink:href="#DejaVuSans-73"/>
      <use x="644.287109" xlink:href="#DejaVuSans-74"/>
      <use x="683.496094" xlink:href="#DejaVuSans-65"/>
      <use x="745.019531" xlink:href="#DejaVuSans-65"/>
      <use x="806.542969" xlink:href="#DejaVuSans-70"/>
      <use x="870.019531" xlink:href="#DejaVuSans-6e"/>
      <use x="933.398438" xlink:href="#DejaVuSans-65"/>
      <use x="994.921875" xlink:href="#DejaVuSans-73"/>
      <use x="1047.021484" xlink:href="#DejaVuSans-73"/>
     </g>
    </g>
    <g id="line2d_34">
     <path d="M 181.8 154.917038 
L 201.8 154.917038 
" style="fill:none;stroke:#bfbf00;stroke-linecap:square;stroke-width:1.5;"/>
    </g>
    <g id="line2d_35"/>
    <g id="text_15">
     <!-- input_pulse_length -->
     <g transform="translate(209.8 158.417038)scale(0.1 -0.1)">
      <use xlink:href="#DejaVuSans-69"/>
      <use x="27.783203" xlink:href="#DejaVuSans-6e"/>
      <use x="91.162109" xlink:href="#DejaVuSans-70"/>
      <use x="154.638672" xlink:href="#DejaVuSans-75"/>
      <use x="218.017578" xlink:href="#DejaVuSans-74"/>
      <use x="257.226562" xlink:href="#DejaVuSans-5f"/>
      <use x="307.226562" xlink:href="#DejaVuSans-70"/>
      <use x="370.703125" xlink:href="#DejaVuSans-75"/>
      <use x="434.082031" xlink:href="#DejaVuSans-6c"/>
      <use x="461.865234" xlink:href="#DejaVuSans-73"/>
      <use x="513.964844" xlink:href="#DejaVuSans-65"/>
      <use x="575.488281" xlink:href="#DejaVuSans-5f"/>
      <use x="625.488281" xlink:href="#DejaVuSans-6c"/>
      <use x="653.271484" xlink:href="#DejaVuSans-65"/>
      <use x="714.794922" xlink:href="#DejaVuSans-6e"/>
      <use x="778.173828" xlink:href="#DejaVuSans-67"/>
      <use x="841.650391" xlink:href="#DejaVuSans-74"/>
      <use x="880.859375" xlink:href="#DejaVuSans-68"/>
     </g>
    </g>
    <g id="line2d_36">
     <path d="M 181.8 169.873288 
L 201.8 169.873288 
" style="fill:none;stroke:#000000;stroke-linecap:square;stroke-width:1.5;"/>
    </g>
    <g id="line2d_37"/>
    <g id="text_16">
     <!-- input_right_curvature_left -->
     <g transform="translate(209.8 173.373288)scale(0.1 -0.1)">
      <use xlink:href="#DejaVuSans-69"/>
      <use x="27.783203" xlink:href="#DejaVuSans-6e"/>
      <use x="91.162109" xlink:href="#DejaVuSans-70"/>
      <use x="154.638672" xlink:href="#DejaVuSans-75"/>
      <use x="218.017578" xlink:href="#DejaVuSans-74"/>
      <use x="257.226562" xlink:href="#DejaVuSans-5f"/>
      <use x="307.226562" xlink:href="#DejaVuSans-72"/>
      <use x="348.339844" xlink:href="#DejaVuSans-69"/>
      <use x="376.123047" xlink:href="#DejaVuSans-67"/>
      <use x="439.599609" xlink:href="#DejaVuSans-68"/>
      <use x="502.978516" xlink:href="#DejaVuSans-74"/>
      <use x="542.1875" xlink:href="#DejaVuSans-5f"/>
      <use x="592.1875" xlink:href="#DejaVuSans-63"/>
      <use x="647.167969" xlink:href="#DejaVuSans-75"/>
      <use x="710.546875" xlink:href="#DejaVuSans-72"/>
      <use x="751.660156" xlink:href="#DejaVuSans-76"/>
      <use x="810.839844" xlink:href="#DejaVuSans-61"/>
      <use x="872.119141" xlink:href="#DejaVuSans-74"/>
      <use x="911.328125" xlink:href="#DejaVuSans-75"/>
      <use x="974.707031" xlink:href="#DejaVuSans-72"/>
      <use x="1015.789062" xlink:href="#DejaVuSans-65"/>
      <use x="1077.3125" xlink:href="#DejaVuSans-5f"/>
      <use x="1127.3125" xlink:href="#DejaVuSans-6c"/>
      <use x="1155.095703" xlink:href="#DejaVuSans-65"/>
      <use x="1216.619141" xlink:href="#DejaVuSans-66"/>
      <use x="1251.808594" xlink:href="#DejaVuSans-74"/>
     </g>
    </g>
    <g id="line2d_38">
     <path d="M 181.8 184.829538 
L 201.8 184.829538 
" style="fill:none;stroke:#0000ff;stroke-dasharray:5.55,2.4;stroke-dashoffset:0;stroke-width:1.5;"/>
    </g>
    <g id="line2d_39"/>
    <g id="text_17">
     <!-- input_right_curvature_right -->
     <g transform="translate(209.8 188.329538)scale(0.1 -0.1)">
      <use xlink:href="#DejaVuSans-69"/>
      <use x="27.783203" xlink:href="#DejaVuSans-6e"/>
      <use x="91.162109" xlink:href="#DejaVuSans-70"/>
      <use x="154.638672" xlink:href="#DejaVuSans-75"/>
      <use x="218.017578" xlink:href="#DejaVuSans-74"/>
      <use x="257.226562" xlink:href="#DejaVuSans-5f"/>
      <use x="307.226562" xlink:href="#DejaVuSans-72"/>
      <use x="348.339844" xlink:href="#DejaVuSans-69"/>
      <use x="376.123047" xlink:href="#DejaVuSans-67"/>
      <use x="439.599609" xlink:href="#DejaVuSans-68"/>
      <use x="502.978516" xlink:href="#DejaVuSans-74"/>
      <use x="542.1875" xlink:href="#DejaVuSans-5f"/>
      <use x="592.1875" xlink:href="#DejaVuSans-63"/>
      <use x="647.167969" xlink:href="#DejaVuSans-75"/>
      <use x="710.546875" xlink:href="#DejaVuSans-72"/>
      <use x="751.660156" xlink:href="#DejaVuSans-76"/>
      <use x="810.839844" xlink:href="#DejaVuSans-61"/>
      <use x="872.119141" xlink:href="#DejaVuSans-74"/>
      <use x="911.328125" xlink:href="#DejaVuSans-75"/>
      <use x="974.707031" xlink:href="#DejaVuSans-72"/>
      <use x="1015.789062" xlink:href="#DejaVuSans-65"/>
      <use x="1077.3125" xlink:href="#DejaVuSans-5f"/>
      <use x="1127.3125" xlink:href="#DejaVuSans-72"/>
      <use x="1168.425781" xlink:href="#DejaVuSans-69"/>
      <use x="1196.208984" xlink:href="#DejaVuSans-67"/>
      <use x="1259.685547" xlink:href="#DejaVuSans-68"/>
      <use x="1323.064453" xlink:href="#DejaVuSans-74"/>
     </g>
    </g>
    <g id="line2d_40">
     <path d="M 181.8 199.785788 
L 201.8 199.785788 
" style="fill:none;stroke:#008000;stroke-dasharray:5.55,2.4;stroke-dashoffset:0;stroke-width:1.5;"/>
    </g>
    <g id="line2d_41"/>
    <g id="text_18">
     <!-- output_left_steepness -->
     <defs>
      <path d="M 30.609375 48.390625 
Q 23.390625 48.390625 19.1875 42.75 
Q 14.984375 37.109375 14.984375 27.296875 
Q 14.984375 17.484375 19.15625 11.84375 
Q 23.34375 6.203125 30.609375 6.203125 
Q 37.796875 6.203125 41.984375 11.859375 
Q 46.1875 17.53125 46.1875 27.296875 
Q 46.1875 37.015625 41.984375 42.703125 
Q 37.796875 48.390625 30.609375 48.390625 
z
M 30.609375 56 
Q 42.328125 56 49.015625 48.375 
Q 55.71875 40.765625 55.71875 27.296875 
Q 55.71875 13.875 49.015625 6.21875 
Q 42.328125 -1.421875 30.609375 -1.421875 
Q 18.84375 -1.421875 12.171875 6.21875 
Q 5.515625 13.875 5.515625 27.296875 
Q 5.515625 40.765625 12.171875 48.375 
Q 18.84375 56 30.609375 56 
z
" id="DejaVuSans-6f"/>
     </defs>
     <g transform="translate(209.8 203.285788)scale(0.1 -0.1)">
      <use xlink:href="#DejaVuSans-6f"/>
      <use x="61.181641" xlink:href="#DejaVuSans-75"/>
      <use x="124.560547" xlink:href="#DejaVuSans-74"/>
      <use x="163.769531" xlink:href="#DejaVuSans-70"/>
      <use x="227.246094" xlink:href="#DejaVuSans-75"/>
      <use x="290.625" xlink:href="#DejaVuSans-74"/>
      <use x="329.833984" xlink:href="#DejaVuSans-5f"/>
      <use x="379.833984" xlink:href="#DejaVuSans-6c"/>
      <use x="407.617188" xlink:href="#DejaVuSans-65"/>
      <use x="469.140625" xlink:href="#DejaVuSans-66"/>
      <use x="504.330078" xlink:href="#DejaVuSans-74"/>
      <use x="543.539062" xlink:href="#DejaVuSans-5f"/>
      <use x="593.539062" xlink:href="#DejaVuSans-73"/>
      <use x="645.638672" xlink:href="#DejaVuSans-74"/>
      <use x="684.847656" xlink:href="#DejaVuSans-65"/>
      <use x="746.371094" xlink:href="#DejaVuSans-65"/>
      <use x="807.894531" xlink:href="#DejaVuSans-70"/>
      <use x="871.371094" xlink:href="#DejaVuSans-6e"/>
      <use x="934.75" xlink:href="#DejaVuSans-65"/>
      <use x="996.273438" xlink:href="#DejaVuSans-73"/>
      <use x="1048.373047" xlink:href="#DejaVuSans-73"/>
     </g>
    </g>
    <g id="line2d_42">
     <path d="M 181.8 214.742038 
L 201.8 214.742038 
" style="fill:none;stroke:#ff0000;stroke-dasharray:5.55,2.4;stroke-dashoffset:0;stroke-width:1.5;"/>
    </g>
    <g id="line2d_43"/>
    <g id="text_19">
     <!-- output_left_shift -->
     <g transform="translate(209.8 218.242038)scale(0.1 -0.1)">
      <use xlink:href="#DejaVuSans-6f"/>
      <use x="61.181641" xlink:href="#DejaVuSans-75"/>
      <use x="124.560547" xlink:href="#DejaVuSans-74"/>
      <use x="163.769531" xlink:href="#DejaVuSans-70"/>
      <use x="227.246094" xlink:href="#DejaVuSans-75"/>
      <use x="290.625" xlink:href="#DejaVuSans-74"/>
      <use x="329.833984" xlink:href="#DejaVuSans-5f"/>
      <use x="379.833984" xlink:href="#DejaVuSans-6c"/>
      <use x="407.617188" xlink:href="#DejaVuSans-65"/>
      <use x="469.140625" xlink:href="#DejaVuSans-66"/>
      <use x="504.330078" xlink:href="#DejaVuSans-74"/>
      <use x="543.539062" xlink:href="#DejaVuSans-5f"/>
      <use x="593.539062" xlink:href="#DejaVuSans-73"/>
      <use x="645.638672" xlink:href="#DejaVuSans-68"/>
      <use x="709.017578" xlink:href="#DejaVuSans-69"/>
      <use x="736.800781" xlink:href="#DejaVuSans-66"/>
      <use x="771.990234" xlink:href="#DejaVuSans-74"/>
     </g>
    </g>
    <g id="line2d_44">
     <path d="M 181.8 229.698288 
L 201.8 229.698288 
" style="fill:none;stroke:#00bfbf;stroke-dasharray:5.55,2.4;stroke-dashoffset:0;stroke-width:1.5;"/>
    </g>
    <g id="line2d_45"/>
    <g id="text_20">
     <!-- output_left_curvature_left -->
     <g transform="translate(209.8 233.198288)scale(0.1 -0.1)">
      <use xlink:href="#DejaVuSans-6f"/>
      <use x="61.181641" xlink:href="#DejaVuSans-75"/>
      <use x="124.560547" xlink:href="#DejaVuSans-74"/>
      <use x="163.769531" xlink:href="#DejaVuSans-70"/>
      <use x="227.246094" xlink:href="#DejaVuSans-75"/>
      <use x="290.625" xlink:href="#DejaVuSans-74"/>
      <use x="329.833984" xlink:href="#DejaVuSans-5f"/>
      <use x="379.833984" xlink:href="#DejaVuSans-6c"/>
      <use x="407.617188" xlink:href="#DejaVuSans-65"/>
      <use x="469.140625" xlink:href="#DejaVuSans-66"/>
      <use x="504.330078" xlink:href="#DejaVuSans-74"/>
      <use x="543.539062" xlink:href="#DejaVuSans-5f"/>
      <use x="593.539062" xlink:href="#DejaVuSans-63"/>
      <use x="648.519531" xlink:href="#DejaVuSans-75"/>
      <use x="711.898438" xlink:href="#DejaVuSans-72"/>
      <use x="753.011719" xlink:href="#DejaVuSans-76"/>
      <use x="812.191406" xlink:href="#DejaVuSans-61"/>
      <use x="873.470703" xlink:href="#DejaVuSans-74"/>
      <use x="912.679688" xlink:href="#DejaVuSans-75"/>
      <use x="976.058594" xlink:href="#DejaVuSans-72"/>
      <use x="1017.140625" xlink:href="#DejaVuSans-65"/>
      <use x="1078.664062" xlink:href="#DejaVuSans-5f"/>
      <use x="1128.664062" xlink:href="#DejaVuSans-6c"/>
      <use x="1156.447266" xlink:href="#DejaVuSans-65"/>
      <use x="1217.970703" xlink:href="#DejaVuSans-66"/>
      <use x="1253.160156" xlink:href="#DejaVuSans-74"/>
     </g>
    </g>
    <g id="line2d_46">
     <path d="M 181.8 244.654538 
L 201.8 244.654538 
" style="fill:none;stroke:#bf00bf;stroke-dasharray:5.55,2.4;stroke-dashoffset:0;stroke-width:1.5;"/>
    </g>
    <g id="line2d_47"/>
    <g id="text_21">
     <!-- output_left_curvature_right -->
     <g transform="translate(209.8 248.154538)scale(0.1 -0.1)">
      <use xlink:href="#DejaVuSans-6f"/>
      <use x="61.181641" xlink:href="#DejaVuSans-75"/>
      <use x="124.560547" xlink:href="#DejaVuSans-74"/>
      <use x="163.769531" xlink:href="#DejaVuSans-70"/>
      <use x="227.246094" xlink:href="#DejaVuSans-75"/>
      <use x="290.625" xlink:href="#DejaVuSans-74"/>
      <use x="329.833984" xlink:href="#DejaVuSans-5f"/>
      <use x="379.833984" xlink:href="#DejaVuSans-6c"/>
      <use x="407.617188" xlink:href="#DejaVuSans-65"/>
      <use x="469.140625" xlink:href="#DejaVuSans-66"/>
      <use x="504.330078" xlink:href="#DejaVuSans-74"/>
      <use x="543.539062" xlink:href="#DejaVuSans-5f"/>
      <use x="593.539062" xlink:href="#DejaVuSans-63"/>
      <use x="648.519531" xlink:href="#DejaVuSans-75"/>
      <use x="711.898438" xlink:href="#DejaVuSans-72"/>
      <use x="753.011719" xlink:href="#DejaVuSans-76"/>
      <use x="812.191406" xlink:href="#DejaVuSans-61"/>
      <use x="873.470703" xlink:href="#DejaVuSans-74"/>
      <use x="912.679688" xlink:href="#DejaVuSans-75"/>
      <use x="976.058594" xlink:href="#DejaVuSans-72"/>
      <use x="1017.140625" xlink:href="#DejaVuSans-65"/>
      <use x="1078.664062" xlink:href="#DejaVuSans-5f"/>
      <use x="1128.664062" xlink:href="#DejaVuSans-72"/>
      <use x="1169.777344" xlink:href="#DejaVuSans-69"/>
      <use x="1197.560547" xlink:href="#DejaVuSans-67"/>
      <use x="1261.037109" xlink:href="#DejaVuSans-68"/>
      <use x="1324.416016" xlink:href="#DejaVuSans-74"/>
     </g>
    </g>
    <g id="line2d_48">
     <path d="M 181.8 259.610788 
L 201.8 259.610788 
" style="fill:none;stroke:#bfbf00;stroke-dasharray:5.55,2.4;stroke-dashoffset:0;stroke-width:1.5;"/>
    </g>
    <g id="line2d_49"/>
    <g id="text_22">
     <!-- output_right_steepness -->
     <g transform="translate(209.8 263.110788)scale(0.1 -0.1)">
      <use xlink:href="#DejaVuSans-6f"/>
      <use x="61.181641" xlink:href="#DejaVuSans-75"/>
      <use x="124.560547" xlink:href="#DejaVuSans-74"/>
      <use x="163.769531" xlink:href="#DejaVuSans-70"/>
      <use x="227.246094" xlink:href="#DejaVuSans-75"/>
      <use x="290.625" xlink:href="#DejaVuSans-74"/>
      <use x="329.833984" xlink:href="#DejaVuSans-5f"/>
      <use x="379.833984" xlink:href="#DejaVuSans-72"/>
      <use x="420.947266" xlink:href="#DejaVuSans-69"/>
      <use x="448.730469" xlink:href="#DejaVuSans-67"/>
      <use x="512.207031" xlink:href="#DejaVuSans-68"/>
      <use x="575.585938" xlink:href="#DejaVuSans-74"/>
      <use x="614.794922" xlink:href="#DejaVuSans-5f"/>
      <use x="664.794922" xlink:href="#DejaVuSans-73"/>
      <use x="716.894531" xlink:href="#DejaVuSans-74"/>
      <use x="756.103516" xlink:href="#DejaVuSans-65"/>
      <use x="817.626953" xlink:href="#DejaVuSans-65"/>
      <use x="879.150391" xlink:href="#DejaVuSans-70"/>
      <use x="942.626953" xlink:href="#DejaVuSans-6e"/>
      <use x="1006.005859" xlink:href="#DejaVuSans-65"/>
      <use x="1067.529297" xlink:href="#DejaVuSans-73"/>
      <use x="1119.628906" xlink:href="#DejaVuSans-73"/>
     </g>
    </g>
    <g id="line2d_50">
     <path d="M 181.8 274.567038 
L 201.8 274.567038 
" style="fill:none;stroke:#000000;stroke-dasharray:5.55,2.4;stroke-dashoffset:0;stroke-width:1.5;"/>
    </g>
    <g id="line2d_51"/>
    <g id="text_23">
     <!-- output_right_shift -->
     <g transform="translate(209.8 278.067038)scale(0.1 -0.1)">
      <use xlink:href="#DejaVuSans-6f"/>
      <use x="61.181641" xlink:href="#DejaVuSans-75"/>
      <use x="124.560547" xlink:href="#DejaVuSans-74"/>
      <use x="163.769531" xlink:href="#DejaVuSans-70"/>
      <use x="227.246094" xlink:href="#DejaVuSans-75"/>
      <use x="290.625" xlink:href="#DejaVuSans-74"/>
      <use x="329.833984" xlink:href="#DejaVuSans-5f"/>
      <use x="379.833984" xlink:href="#DejaVuSans-72"/>
      <use x="420.947266" xlink:href="#DejaVuSans-69"/>
      <use x="448.730469" xlink:href="#DejaVuSans-67"/>
      <use x="512.207031" xlink:href="#DejaVuSans-68"/>
      <use x="575.585938" xlink:href="#DejaVuSans-74"/>
      <use x="614.794922" xlink:href="#DejaVuSans-5f"/>
      <use x="664.794922" xlink:href="#DejaVuSans-73"/>
      <use x="716.894531" xlink:href="#DejaVuSans-68"/>
      <use x="780.273438" xlink:href="#DejaVuSans-69"/>
      <use x="808.056641" xlink:href="#DejaVuSans-66"/>
      <use x="843.246094" xlink:href="#DejaVuSans-74"/>
     </g>
    </g>
    <g id="line2d_52">
     <path d="M 181.8 289.523288 
L 201.8 289.523288 
" style="fill:none;stroke:#0000ff;stroke-linecap:square;stroke-width:1.5;"/>
    </g>
    <g id="line2d_53"/>
    <g id="text_24">
     <!-- output_right_curvature_left -->
     <g transform="translate(209.8 293.023288)scale(0.1 -0.1)">
      <use xlink:href="#DejaVuSans-6f"/>
      <use x="61.181641" xlink:href="#DejaVuSans-75"/>
      <use x="124.560547" xlink:href="#DejaVuSans-74"/>
      <use x="163.769531" xlink:href="#DejaVuSans-70"/>
      <use x="227.246094" xlink:href="#DejaVuSans-75"/>
      <use x="290.625" xlink:href="#DejaVuSans-74"/>
      <use x="329.833984" xlink:href="#DejaVuSans-5f"/>
      <use x="379.833984" xlink:href="#DejaVuSans-72"/>
      <use x="420.947266" xlink:href="#DejaVuSans-69"/>
      <use x="448.730469" xlink:href="#DejaVuSans-67"/>
      <use x="512.207031" xlink:href="#DejaVuSans-68"/>
      <use x="575.585938" xlink:href="#DejaVuSans-74"/>
      <use x="614.794922" xlink:href="#DejaVuSans-5f"/>
      <use x="664.794922" xlink:href="#DejaVuSans-63"/>
      <use x="719.775391" xlink:href="#DejaVuSans-75"/>
      <use x="783.154297" xlink:href="#DejaVuSans-72"/>
      <use x="824.267578" xlink:href="#DejaVuSans-76"/>
      <use x="883.447266" xlink:href="#DejaVuSans-61"/>
      <use x="944.726562" xlink:href="#DejaVuSans-74"/>
      <use x="983.935547" xlink:href="#DejaVuSans-75"/>
      <use x="1047.314453" xlink:href="#DejaVuSans-72"/>
      <use x="1088.396484" xlink:href="#DejaVuSans-65"/>
      <use x="1149.919922" xlink:href="#DejaVuSans-5f"/>
      <use x="1199.919922" xlink:href="#DejaVuSans-6c"/>
      <use x="1227.703125" xlink:href="#DejaVuSans-65"/>
      <use x="1289.226562" xlink:href="#DejaVuSans-66"/>
      <use x="1324.416016" xlink:href="#DejaVuSans-74"/>
     </g>
    </g>
    <g id="line2d_54">
     <path d="M 181.8 304.479538 
L 201.8 304.479538 
" style="fill:none;stroke:#008000;stroke-linecap:square;stroke-width:1.5;"/>
    </g>
    <g id="line2d_55"/>
    <g id="text_25">
     <!-- output_right_curvature_right -->
     <g transform="translate(209.8 307.979538)scale(0.1 -0.1)">
      <use xlink:href="#DejaVuSans-6f"/>
      <use x="61.181641" xlink:href="#DejaVuSans-75"/>
      <use x="124.560547" xlink:href="#DejaVuSans-74"/>
      <use x="163.769531" xlink:href="#DejaVuSans-70"/>
      <use x="227.246094" xlink:href="#DejaVuSans-75"/>
      <use x="290.625" xlink:href="#DejaVuSans-74"/>
      <use x="329.833984" xlink:href="#DejaVuSans-5f"/>
      <use x="379.833984" xlink:href="#DejaVuSans-72"/>
      <use x="420.947266" xlink:href="#DejaVuSans-69"/>
      <use x="448.730469" xlink:href="#DejaVuSans-67"/>
      <use x="512.207031" xlink:href="#DejaVuSans-68"/>
      <use x="575.585938" xlink:href="#DejaVuSans-74"/>
      <use x="614.794922" xlink:href="#DejaVuSans-5f"/>
      <use x="664.794922" xlink:href="#DejaVuSans-63"/>
      <use x="719.775391" xlink:href="#DejaVuSans-75"/>
      <use x="783.154297" xlink:href="#DejaVuSans-72"/>
      <use x="824.267578" xlink:href="#DejaVuSans-76"/>
      <use x="883.447266" xlink:href="#DejaVuSans-61"/>
      <use x="944.726562" xlink:href="#DejaVuSans-74"/>
      <use x="983.935547" xlink:href="#DejaVuSans-75"/>
      <use x="1047.314453" xlink:href="#DejaVuSans-72"/>
      <use x="1088.396484" xlink:href="#DejaVuSans-65"/>
      <use x="1149.919922" xlink:href="#DejaVuSans-5f"/>
      <use x="1199.919922" xlink:href="#DejaVuSans-72"/>
      <use x="1241.033203" xlink:href="#DejaVuSans-69"/>
      <use x="1268.816406" xlink:href="#DejaVuSans-67"/>
      <use x="1332.292969" xlink:href="#DejaVuSans-68"/>
      <use x="1395.671875" xlink:href="#DejaVuSans-74"/>
     </g>
    </g>
   </g>
  </g>
 </g>
 <defs>
  <clipPath id="pab7ba4a2fd">
   <rect height="526.1256" width="1071.36" x="172.8" y="81.9936"/>
  </clipPath>
 </defs>
</svg>
