<?xml version="1.0" encoding="utf-8" standalone="no"?>
<!DOCTYPE svg PUBLIC "-//W3C//DTD SVG 1.1//EN"
  "http://www.w3.org/Graphics/SVG/1.1/DTD/svg11.dtd">
<!-- Created with matplotlib (https://matplotlib.org/) -->
<svg height="288pt" version="1.1" viewBox="0 0 1152 288" width="1152pt" xmlns="http://www.w3.org/2000/svg" xmlns:xlink="http://www.w3.org/1999/xlink">
 <metadata>
  <rdf:RDF xmlns:cc="http://creativecommons.org/ns#" xmlns:dc="http://purl.org/dc/elements/1.1/" xmlns:rdf="http://www.w3.org/1999/02/22-rdf-syntax-ns#">
   <cc:Work>
    <dc:type rdf:resource="http://purl.org/dc/dcmitype/StillImage"/>
    <dc:date>2020-10-12T20:04:19.404880</dc:date>
    <dc:format>image/svg+xml</dc:format>
    <dc:creator>
     <cc:Agent>
      <dc:title>Matplotlib v3.3.0, https://matplotlib.org/</dc:title>
     </cc:Agent>
    </dc:creator>
   </cc:Work>
  </rdf:RDF>
 </metadata>
 <defs>
  <style type="text/css">*{stroke-linecap:butt;stroke-linejoin:round;}</style>
 </defs>
 <g id="figure_1">
  <g id="patch_1">
   <path d="M 0 288 
L 1152 288 
L 1152 0 
L 0 0 
z
" style="fill:#ffffff;"/>
  </g>
  <g id="axes_1">
   <g id="patch_2">
    <path d="M 144 256.32 
L 1036.8 256.32 
L 1036.8 34.56 
L 144 34.56 
z
" style="fill:#ffffff;"/>
   </g>
   <g id="matplotlib.axis_1">
    <g id="xtick_1">
     <g id="line2d_1">
      <defs>
       <path d="M 0 0 
L 0 3.5 
" id="mbd58085bd4" style="stroke:#000000;stroke-width:0.8;"/>
      </defs>
      <g>
       <use style="stroke:#000000;stroke-width:0.8;" x="184.581818" xlink:href="#mbd58085bd4" y="256.32"/>
      </g>
     </g>
     <g id="text_1">
      <!-- 0.0 -->
      <g transform="translate(176.630256 270.918437)scale(0.1 -0.1)">
       <defs>
        <path d="M 31.78125 66.40625 
Q 24.171875 66.40625 20.328125 58.90625 
Q 16.5 51.421875 16.5 36.375 
Q 16.5 21.390625 20.328125 13.890625 
Q 24.171875 6.390625 31.78125 6.390625 
Q 39.453125 6.390625 43.28125 13.890625 
Q 47.125 21.390625 47.125 36.375 
Q 47.125 51.421875 43.28125 58.90625 
Q 39.453125 66.40625 31.78125 66.40625 
z
M 31.78125 74.21875 
Q 44.046875 74.21875 50.515625 64.515625 
Q 56.984375 54.828125 56.984375 36.375 
Q 56.984375 17.96875 50.515625 8.265625 
Q 44.046875 -1.421875 31.78125 -1.421875 
Q 19.53125 -1.421875 13.0625 8.265625 
Q 6.59375 17.96875 6.59375 36.375 
Q 6.59375 54.828125 13.0625 64.515625 
Q 19.53125 74.21875 31.78125 74.21875 
z
" id="DejaVuSans-48"/>
        <path d="M 10.6875 12.40625 
L 21 12.40625 
L 21 0 
L 10.6875 0 
z
" id="DejaVuSans-46"/>
       </defs>
       <use xlink:href="#DejaVuSans-48"/>
       <use x="63.623047" xlink:href="#DejaVuSans-46"/>
       <use x="95.410156" xlink:href="#DejaVuSans-48"/>
      </g>
     </g>
    </g>
    <g id="xtick_2">
     <g id="line2d_2">
      <g>
       <use style="stroke:#000000;stroke-width:0.8;" x="303.982775" xlink:href="#mbd58085bd4" y="256.32"/>
      </g>
     </g>
     <g id="text_2">
      <!-- 0.2 -->
      <g transform="translate(296.031213 270.918437)scale(0.1 -0.1)">
       <defs>
        <path d="M 19.1875 8.296875 
L 53.609375 8.296875 
L 53.609375 0 
L 7.328125 0 
L 7.328125 8.296875 
Q 12.9375 14.109375 22.625 23.890625 
Q 32.328125 33.6875 34.8125 36.53125 
Q 39.546875 41.84375 41.421875 45.53125 
Q 43.3125 49.21875 43.3125 52.78125 
Q 43.3125 58.59375 39.234375 62.25 
Q 35.15625 65.921875 28.609375 65.921875 
Q 23.96875 65.921875 18.8125 64.3125 
Q 13.671875 62.703125 7.8125 59.421875 
L 7.8125 69.390625 
Q 13.765625 71.78125 18.9375 73 
Q 24.125 74.21875 28.421875 74.21875 
Q 39.75 74.21875 46.484375 68.546875 
Q 53.21875 62.890625 53.21875 53.421875 
Q 53.21875 48.921875 51.53125 44.890625 
Q 49.859375 40.875 45.40625 35.40625 
Q 44.1875 33.984375 37.640625 27.21875 
Q 31.109375 20.453125 19.1875 8.296875 
z
" id="DejaVuSans-50"/>
       </defs>
       <use xlink:href="#DejaVuSans-48"/>
       <use x="63.623047" xlink:href="#DejaVuSans-46"/>
       <use x="95.410156" xlink:href="#DejaVuSans-50"/>
      </g>
     </g>
    </g>
    <g id="xtick_3">
     <g id="line2d_3">
      <g>
       <use style="stroke:#000000;stroke-width:0.8;" x="423.383732" xlink:href="#mbd58085bd4" y="256.32"/>
      </g>
     </g>
     <g id="text_3">
      <!-- 0.4 -->
      <g transform="translate(415.43217 270.918437)scale(0.1 -0.1)">
       <defs>
        <path d="M 37.796875 64.3125 
L 12.890625 25.390625 
L 37.796875 25.390625 
z
M 35.203125 72.90625 
L 47.609375 72.90625 
L 47.609375 25.390625 
L 58.015625 25.390625 
L 58.015625 17.1875 
L 47.609375 17.1875 
L 47.609375 0 
L 37.796875 0 
L 37.796875 17.1875 
L 4.890625 17.1875 
L 4.890625 26.703125 
z
" id="DejaVuSans-52"/>
       </defs>
       <use xlink:href="#DejaVuSans-48"/>
       <use x="63.623047" xlink:href="#DejaVuSans-46"/>
       <use x="95.410156" xlink:href="#DejaVuSans-52"/>
      </g>
     </g>
    </g>
    <g id="xtick_4">
     <g id="line2d_4">
      <g>
       <use style="stroke:#000000;stroke-width:0.8;" x="542.784689" xlink:href="#mbd58085bd4" y="256.32"/>
      </g>
     </g>
     <g id="text_4">
      <!-- 0.6 -->
      <g transform="translate(534.833127 270.918437)scale(0.1 -0.1)">
       <defs>
        <path d="M 33.015625 40.375 
Q 26.375 40.375 22.484375 35.828125 
Q 18.609375 31.296875 18.609375 23.390625 
Q 18.609375 15.53125 22.484375 10.953125 
Q 26.375 6.390625 33.015625 6.390625 
Q 39.65625 6.390625 43.53125 10.953125 
Q 47.40625 15.53125 47.40625 23.390625 
Q 47.40625 31.296875 43.53125 35.828125 
Q 39.65625 40.375 33.015625 40.375 
z
M 52.59375 71.296875 
L 52.59375 62.3125 
Q 48.875 64.0625 45.09375 64.984375 
Q 41.3125 65.921875 37.59375 65.921875 
Q 27.828125 65.921875 22.671875 59.328125 
Q 17.53125 52.734375 16.796875 39.40625 
Q 19.671875 43.65625 24.015625 45.921875 
Q 28.375 48.1875 33.59375 48.1875 
Q 44.578125 48.1875 50.953125 41.515625 
Q 57.328125 34.859375 57.328125 23.390625 
Q 57.328125 12.15625 50.6875 5.359375 
Q 44.046875 -1.421875 33.015625 -1.421875 
Q 20.359375 -1.421875 13.671875 8.265625 
Q 6.984375 17.96875 6.984375 36.375 
Q 6.984375 53.65625 15.1875 63.9375 
Q 23.390625 74.21875 37.203125 74.21875 
Q 40.921875 74.21875 44.703125 73.484375 
Q 48.484375 72.75 52.59375 71.296875 
z
" id="DejaVuSans-54"/>
       </defs>
       <use xlink:href="#DejaVuSans-48"/>
       <use x="63.623047" xlink:href="#DejaVuSans-46"/>
       <use x="95.410156" xlink:href="#DejaVuSans-54"/>
      </g>
     </g>
    </g>
    <g id="xtick_5">
     <g id="line2d_5">
      <g>
       <use style="stroke:#000000;stroke-width:0.8;" x="662.185646" xlink:href="#mbd58085bd4" y="256.32"/>
      </g>
     </g>
     <g id="text_5">
      <!-- 0.8 -->
      <g transform="translate(654.234084 270.918437)scale(0.1 -0.1)">
       <defs>
        <path d="M 31.78125 34.625 
Q 24.75 34.625 20.71875 30.859375 
Q 16.703125 27.09375 16.703125 20.515625 
Q 16.703125 13.921875 20.71875 10.15625 
Q 24.75 6.390625 31.78125 6.390625 
Q 38.8125 6.390625 42.859375 10.171875 
Q 46.921875 13.96875 46.921875 20.515625 
Q 46.921875 27.09375 42.890625 30.859375 
Q 38.875 34.625 31.78125 34.625 
z
M 21.921875 38.8125 
Q 15.578125 40.375 12.03125 44.71875 
Q 8.5 49.078125 8.5 55.328125 
Q 8.5 64.0625 14.71875 69.140625 
Q 20.953125 74.21875 31.78125 74.21875 
Q 42.671875 74.21875 48.875 69.140625 
Q 55.078125 64.0625 55.078125 55.328125 
Q 55.078125 49.078125 51.53125 44.71875 
Q 48 40.375 41.703125 38.8125 
Q 48.828125 37.15625 52.796875 32.3125 
Q 56.78125 27.484375 56.78125 20.515625 
Q 56.78125 9.90625 50.3125 4.234375 
Q 43.84375 -1.421875 31.78125 -1.421875 
Q 19.734375 -1.421875 13.25 4.234375 
Q 6.78125 9.90625 6.78125 20.515625 
Q 6.78125 27.484375 10.78125 32.3125 
Q 14.796875 37.15625 21.921875 38.8125 
z
M 18.3125 54.390625 
Q 18.3125 48.734375 21.84375 45.5625 
Q 25.390625 42.390625 31.78125 42.390625 
Q 38.140625 42.390625 41.71875 45.5625 
Q 45.3125 48.734375 45.3125 54.390625 
Q 45.3125 60.0625 41.71875 63.234375 
Q 38.140625 66.40625 31.78125 66.40625 
Q 25.390625 66.40625 21.84375 63.234375 
Q 18.3125 60.0625 18.3125 54.390625 
z
" id="DejaVuSans-56"/>
       </defs>
       <use xlink:href="#DejaVuSans-48"/>
       <use x="63.623047" xlink:href="#DejaVuSans-46"/>
       <use x="95.410156" xlink:href="#DejaVuSans-56"/>
      </g>
     </g>
    </g>
    <g id="xtick_6">
     <g id="line2d_6">
      <g>
       <use style="stroke:#000000;stroke-width:0.8;" x="781.586603" xlink:href="#mbd58085bd4" y="256.32"/>
      </g>
     </g>
     <g id="text_6">
      <!-- 1.0 -->
      <g transform="translate(773.635041 270.918437)scale(0.1 -0.1)">
       <defs>
        <path d="M 12.40625 8.296875 
L 28.515625 8.296875 
L 28.515625 63.921875 
L 10.984375 60.40625 
L 10.984375 69.390625 
L 28.421875 72.90625 
L 38.28125 72.90625 
L 38.28125 8.296875 
L 54.390625 8.296875 
L 54.390625 0 
L 12.40625 0 
z
" id="DejaVuSans-49"/>
       </defs>
       <use xlink:href="#DejaVuSans-49"/>
       <use x="63.623047" xlink:href="#DejaVuSans-46"/>
       <use x="95.410156" xlink:href="#DejaVuSans-48"/>
      </g>
     </g>
    </g>
    <g id="xtick_7">
     <g id="line2d_7">
      <g>
       <use style="stroke:#000000;stroke-width:0.8;" x="900.987561" xlink:href="#mbd58085bd4" y="256.32"/>
      </g>
     </g>
     <g id="text_7">
      <!-- 1.2 -->
      <g transform="translate(893.035998 270.918437)scale(0.1 -0.1)">
       <use xlink:href="#DejaVuSans-49"/>
       <use x="63.623047" xlink:href="#DejaVuSans-46"/>
       <use x="95.410156" xlink:href="#DejaVuSans-50"/>
      </g>
     </g>
    </g>
    <g id="xtick_8">
     <g id="line2d_8">
      <g>
       <use style="stroke:#000000;stroke-width:0.8;" x="1020.388518" xlink:href="#mbd58085bd4" y="256.32"/>
      </g>
     </g>
     <g id="text_8">
      <!-- 1.4 -->
      <g transform="translate(1012.436955 270.918437)scale(0.1 -0.1)">
       <use xlink:href="#DejaVuSans-49"/>
       <use x="63.623047" xlink:href="#DejaVuSans-46"/>
       <use x="95.410156" xlink:href="#DejaVuSans-52"/>
      </g>
     </g>
    </g>
    <g id="text_9">
     <!-- Time [s] -->
     <g transform="translate(570.071094 284.596563)scale(0.1 -0.1)">
      <defs>
       <path d="M -0.296875 72.90625 
L 61.375 72.90625 
L 61.375 64.59375 
L 35.5 64.59375 
L 35.5 0 
L 25.59375 0 
L 25.59375 64.59375 
L -0.296875 64.59375 
z
" id="DejaVuSans-84"/>
       <path d="M 9.421875 54.6875 
L 18.40625 54.6875 
L 18.40625 0 
L 9.421875 0 
z
M 9.421875 75.984375 
L 18.40625 75.984375 
L 18.40625 64.59375 
L 9.421875 64.59375 
z
" id="DejaVuSans-105"/>
       <path d="M 52 44.1875 
Q 55.375 50.25 60.0625 53.125 
Q 64.75 56 71.09375 56 
Q 79.640625 56 84.28125 50.015625 
Q 88.921875 44.046875 88.921875 33.015625 
L 88.921875 0 
L 79.890625 0 
L 79.890625 32.71875 
Q 79.890625 40.578125 77.09375 44.375 
Q 74.3125 48.1875 68.609375 48.1875 
Q 61.625 48.1875 57.5625 43.546875 
Q 53.515625 38.921875 53.515625 30.90625 
L 53.515625 0 
L 44.484375 0 
L 44.484375 32.71875 
Q 44.484375 40.625 41.703125 44.40625 
Q 38.921875 48.1875 33.109375 48.1875 
Q 26.21875 48.1875 22.15625 43.53125 
Q 18.109375 38.875 18.109375 30.90625 
L 18.109375 0 
L 9.078125 0 
L 9.078125 54.6875 
L 18.109375 54.6875 
L 18.109375 46.1875 
Q 21.1875 51.21875 25.484375 53.609375 
Q 29.78125 56 35.6875 56 
Q 41.65625 56 45.828125 52.96875 
Q 50 49.953125 52 44.1875 
z
" id="DejaVuSans-109"/>
       <path d="M 56.203125 29.59375 
L 56.203125 25.203125 
L 14.890625 25.203125 
Q 15.484375 15.921875 20.484375 11.0625 
Q 25.484375 6.203125 34.421875 6.203125 
Q 39.59375 6.203125 44.453125 7.46875 
Q 49.3125 8.734375 54.109375 11.28125 
L 54.109375 2.78125 
Q 49.265625 0.734375 44.1875 -0.34375 
Q 39.109375 -1.421875 33.890625 -1.421875 
Q 20.796875 -1.421875 13.15625 6.1875 
Q 5.515625 13.8125 5.515625 26.8125 
Q 5.515625 40.234375 12.765625 48.109375 
Q 20.015625 56 32.328125 56 
Q 43.359375 56 49.78125 48.890625 
Q 56.203125 41.796875 56.203125 29.59375 
z
M 47.21875 32.234375 
Q 47.125 39.59375 43.09375 43.984375 
Q 39.0625 48.390625 32.421875 48.390625 
Q 24.90625 48.390625 20.390625 44.140625 
Q 15.875 39.890625 15.1875 32.171875 
z
" id="DejaVuSans-101"/>
       <path id="DejaVuSans-32"/>
       <path d="M 8.59375 75.984375 
L 29.296875 75.984375 
L 29.296875 69 
L 17.578125 69 
L 17.578125 -6.203125 
L 29.296875 -6.203125 
L 29.296875 -13.1875 
L 8.59375 -13.1875 
z
" id="DejaVuSans-91"/>
       <path d="M 44.28125 53.078125 
L 44.28125 44.578125 
Q 40.484375 46.53125 36.375 47.5 
Q 32.28125 48.484375 27.875 48.484375 
Q 21.1875 48.484375 17.84375 46.4375 
Q 14.5 44.390625 14.5 40.28125 
Q 14.5 37.15625 16.890625 35.375 
Q 19.28125 33.59375 26.515625 31.984375 
L 29.59375 31.296875 
Q 39.15625 29.25 43.1875 25.515625 
Q 47.21875 21.78125 47.21875 15.09375 
Q 47.21875 7.46875 41.1875 3.015625 
Q 35.15625 -1.421875 24.609375 -1.421875 
Q 20.21875 -1.421875 15.453125 -0.5625 
Q 10.6875 0.296875 5.421875 2 
L 5.421875 11.28125 
Q 10.40625 8.6875 15.234375 7.390625 
Q 20.0625 6.109375 24.8125 6.109375 
Q 31.15625 6.109375 34.5625 8.28125 
Q 37.984375 10.453125 37.984375 14.40625 
Q 37.984375 18.0625 35.515625 20.015625 
Q 33.0625 21.96875 24.703125 23.78125 
L 21.578125 24.515625 
Q 13.234375 26.265625 9.515625 29.90625 
Q 5.8125 33.546875 5.8125 39.890625 
Q 5.8125 47.609375 11.28125 51.796875 
Q 16.75 56 26.8125 56 
Q 31.78125 56 36.171875 55.265625 
Q 40.578125 54.546875 44.28125 53.078125 
z
" id="DejaVuSans-115"/>
       <path d="M 30.421875 75.984375 
L 30.421875 -13.1875 
L 9.71875 -13.1875 
L 9.71875 -6.203125 
L 21.390625 -6.203125 
L 21.390625 69 
L 9.71875 69 
L 9.71875 75.984375 
z
" id="DejaVuSans-93"/>
      </defs>
      <use xlink:href="#DejaVuSans-84"/>
      <use x="57.958984" xlink:href="#DejaVuSans-105"/>
      <use x="85.742188" xlink:href="#DejaVuSans-109"/>
      <use x="183.154297" xlink:href="#DejaVuSans-101"/>
      <use x="244.677734" xlink:href="#DejaVuSans-32"/>
      <use x="276.464844" xlink:href="#DejaVuSans-91"/>
      <use x="315.478516" xlink:href="#DejaVuSans-115"/>
      <use x="367.578125" xlink:href="#DejaVuSans-93"/>
     </g>
    </g>
    <g id="text_10">
     <!-- 1e−8 -->
     <g transform="translate(1009.542187 283.596563)scale(0.1 -0.1)">
      <defs>
       <path d="M 10.59375 35.5 
L 73.1875 35.5 
L 73.1875 27.203125 
L 10.59375 27.203125 
z
" id="DejaVuSans-8722"/>
      </defs>
      <use xlink:href="#DejaVuSans-49"/>
      <use x="63.623047" xlink:href="#DejaVuSans-101"/>
      <use x="125.146484" xlink:href="#DejaVuSans-8722"/>
      <use x="208.935547" xlink:href="#DejaVuSans-56"/>
     </g>
    </g>
   </g>
   <g id="matplotlib.axis_2">
    <g id="ytick_1">
     <g id="line2d_9">
      <defs>
       <path d="M 0 0 
L -3.5 0 
" id="md59cffbe9c" style="stroke:#000000;stroke-width:0.8;"/>
      </defs>
      <g>
       <use style="stroke:#000000;stroke-width:0.8;" x="144" xlink:href="#md59cffbe9c" y="238.132013"/>
      </g>
     </g>
     <g id="text_11">
      <!-- 0.0 -->
      <g transform="translate(121.096875 241.931232)scale(0.1 -0.1)">
       <use xlink:href="#DejaVuSans-48"/>
       <use x="63.623047" xlink:href="#DejaVuSans-46"/>
       <use x="95.410156" xlink:href="#DejaVuSans-48"/>
      </g>
     </g>
    </g>
    <g id="ytick_2">
     <g id="line2d_10">
      <g>
       <use style="stroke:#000000;stroke-width:0.8;" x="144" xlink:href="#md59cffbe9c" y="205.941796"/>
      </g>
     </g>
     <g id="text_12">
      <!-- 0.2 -->
      <g transform="translate(121.096875 209.741015)scale(0.1 -0.1)">
       <use xlink:href="#DejaVuSans-48"/>
       <use x="63.623047" xlink:href="#DejaVuSans-46"/>
       <use x="95.410156" xlink:href="#DejaVuSans-50"/>
      </g>
     </g>
    </g>
    <g id="ytick_3">
     <g id="line2d_11">
      <g>
       <use style="stroke:#000000;stroke-width:0.8;" x="144" xlink:href="#md59cffbe9c" y="173.751579"/>
      </g>
     </g>
     <g id="text_13">
      <!-- 0.4 -->
      <g transform="translate(121.096875 177.550798)scale(0.1 -0.1)">
       <use xlink:href="#DejaVuSans-48"/>
       <use x="63.623047" xlink:href="#DejaVuSans-46"/>
       <use x="95.410156" xlink:href="#DejaVuSans-52"/>
      </g>
     </g>
    </g>
    <g id="ytick_4">
     <g id="line2d_12">
      <g>
       <use style="stroke:#000000;stroke-width:0.8;" x="144" xlink:href="#md59cffbe9c" y="141.561363"/>
      </g>
     </g>
     <g id="text_14">
      <!-- 0.6 -->
      <g transform="translate(121.096875 145.360581)scale(0.1 -0.1)">
       <use xlink:href="#DejaVuSans-48"/>
       <use x="63.623047" xlink:href="#DejaVuSans-46"/>
       <use x="95.410156" xlink:href="#DejaVuSans-54"/>
      </g>
     </g>
    </g>
    <g id="ytick_5">
     <g id="line2d_13">
      <g>
       <use style="stroke:#000000;stroke-width:0.8;" x="144" xlink:href="#md59cffbe9c" y="109.371146"/>
      </g>
     </g>
     <g id="text_15">
      <!-- 0.8 -->
      <g transform="translate(121.096875 113.170365)scale(0.1 -0.1)">
       <use xlink:href="#DejaVuSans-48"/>
       <use x="63.623047" xlink:href="#DejaVuSans-46"/>
       <use x="95.410156" xlink:href="#DejaVuSans-56"/>
      </g>
     </g>
    </g>
    <g id="ytick_6">
     <g id="line2d_14">
      <g>
       <use style="stroke:#000000;stroke-width:0.8;" x="144" xlink:href="#md59cffbe9c" y="77.180929"/>
      </g>
     </g>
     <g id="text_16">
      <!-- 1.0 -->
      <g transform="translate(121.096875 80.980148)scale(0.1 -0.1)">
       <use xlink:href="#DejaVuSans-49"/>
       <use x="63.623047" xlink:href="#DejaVuSans-46"/>
       <use x="95.410156" xlink:href="#DejaVuSans-48"/>
      </g>
     </g>
    </g>
    <g id="ytick_7">
     <g id="line2d_15">
      <g>
       <use style="stroke:#000000;stroke-width:0.8;" x="144" xlink:href="#md59cffbe9c" y="44.990712"/>
      </g>
     </g>
     <g id="text_17">
      <!-- 1.2 -->
      <g transform="translate(121.096875 48.789931)scale(0.1 -0.1)">
       <use xlink:href="#DejaVuSans-49"/>
       <use x="63.623047" xlink:href="#DejaVuSans-46"/>
       <use x="95.410156" xlink:href="#DejaVuSans-50"/>
      </g>
     </g>
    </g>
    <g id="text_18">
     <!-- Voltage [V] -->
     <g transform="translate(115.017187 173.107188)rotate(-90)scale(0.1 -0.1)">
      <defs>
       <path d="M 28.609375 0 
L 0.78125 72.90625 
L 11.078125 72.90625 
L 34.1875 11.53125 
L 57.328125 72.90625 
L 67.578125 72.90625 
L 39.796875 0 
z
" id="DejaVuSans-86"/>
       <path d="M 30.609375 48.390625 
Q 23.390625 48.390625 19.1875 42.75 
Q 14.984375 37.109375 14.984375 27.296875 
Q 14.984375 17.484375 19.15625 11.84375 
Q 23.34375 6.203125 30.609375 6.203125 
Q 37.796875 6.203125 41.984375 11.859375 
Q 46.1875 17.53125 46.1875 27.296875 
Q 46.1875 37.015625 41.984375 42.703125 
Q 37.796875 48.390625 30.609375 48.390625 
z
M 30.609375 56 
Q 42.328125 56 49.015625 48.375 
Q 55.71875 40.765625 55.71875 27.296875 
Q 55.71875 13.875 49.015625 6.21875 
Q 42.328125 -1.421875 30.609375 -1.421875 
Q 18.84375 -1.421875 12.171875 6.21875 
Q 5.515625 13.875 5.515625 27.296875 
Q 5.515625 40.765625 12.171875 48.375 
Q 18.84375 56 30.609375 56 
z
" id="DejaVuSans-111"/>
       <path d="M 9.421875 75.984375 
L 18.40625 75.984375 
L 18.40625 0 
L 9.421875 0 
z
" id="DejaVuSans-108"/>
       <path d="M 18.3125 70.21875 
L 18.3125 54.6875 
L 36.8125 54.6875 
L 36.8125 47.703125 
L 18.3125 47.703125 
L 18.3125 18.015625 
Q 18.3125 11.328125 20.140625 9.421875 
Q 21.96875 7.515625 27.59375 7.515625 
L 36.8125 7.515625 
L 36.8125 0 
L 27.59375 0 
Q 17.1875 0 13.234375 3.875 
Q 9.28125 7.765625 9.28125 18.015625 
L 9.28125 47.703125 
L 2.6875 47.703125 
L 2.6875 54.6875 
L 9.28125 54.6875 
L 9.28125 70.21875 
z
" id="DejaVuSans-116"/>
       <path d="M 34.28125 27.484375 
Q 23.390625 27.484375 19.1875 25 
Q 14.984375 22.515625 14.984375 16.5 
Q 14.984375 11.71875 18.140625 8.90625 
Q 21.296875 6.109375 26.703125 6.109375 
Q 34.1875 6.109375 38.703125 11.40625 
Q 43.21875 16.703125 43.21875 25.484375 
L 43.21875 27.484375 
z
M 52.203125 31.203125 
L 52.203125 0 
L 43.21875 0 
L 43.21875 8.296875 
Q 40.140625 3.328125 35.546875 0.953125 
Q 30.953125 -1.421875 24.3125 -1.421875 
Q 15.921875 -1.421875 10.953125 3.296875 
Q 6 8.015625 6 15.921875 
Q 6 25.140625 12.171875 29.828125 
Q 18.359375 34.515625 30.609375 34.515625 
L 43.21875 34.515625 
L 43.21875 35.40625 
Q 43.21875 41.609375 39.140625 45 
Q 35.0625 48.390625 27.6875 48.390625 
Q 23 48.390625 18.546875 47.265625 
Q 14.109375 46.140625 10.015625 43.890625 
L 10.015625 52.203125 
Q 14.9375 54.109375 19.578125 55.046875 
Q 24.21875 56 28.609375 56 
Q 40.484375 56 46.34375 49.84375 
Q 52.203125 43.703125 52.203125 31.203125 
z
" id="DejaVuSans-97"/>
       <path d="M 45.40625 27.984375 
Q 45.40625 37.75 41.375 43.109375 
Q 37.359375 48.484375 30.078125 48.484375 
Q 22.859375 48.484375 18.828125 43.109375 
Q 14.796875 37.75 14.796875 27.984375 
Q 14.796875 18.265625 18.828125 12.890625 
Q 22.859375 7.515625 30.078125 7.515625 
Q 37.359375 7.515625 41.375 12.890625 
Q 45.40625 18.265625 45.40625 27.984375 
z
M 54.390625 6.78125 
Q 54.390625 -7.171875 48.1875 -13.984375 
Q 42 -20.796875 29.203125 -20.796875 
Q 24.46875 -20.796875 20.265625 -20.09375 
Q 16.0625 -19.390625 12.109375 -17.921875 
L 12.109375 -9.1875 
Q 16.0625 -11.328125 19.921875 -12.34375 
Q 23.78125 -13.375 27.78125 -13.375 
Q 36.625 -13.375 41.015625 -8.765625 
Q 45.40625 -4.15625 45.40625 5.171875 
L 45.40625 9.625 
Q 42.625 4.78125 38.28125 2.390625 
Q 33.9375 0 27.875 0 
Q 17.828125 0 11.671875 7.65625 
Q 5.515625 15.328125 5.515625 27.984375 
Q 5.515625 40.671875 11.671875 48.328125 
Q 17.828125 56 27.875 56 
Q 33.9375 56 38.28125 53.609375 
Q 42.625 51.21875 45.40625 46.390625 
L 45.40625 54.6875 
L 54.390625 54.6875 
z
" id="DejaVuSans-103"/>
      </defs>
      <use xlink:href="#DejaVuSans-86"/>
      <use x="60.658203" xlink:href="#DejaVuSans-111"/>
      <use x="121.839844" xlink:href="#DejaVuSans-108"/>
      <use x="149.623047" xlink:href="#DejaVuSans-116"/>
      <use x="188.832031" xlink:href="#DejaVuSans-97"/>
      <use x="250.111328" xlink:href="#DejaVuSans-103"/>
      <use x="313.587891" xlink:href="#DejaVuSans-101"/>
      <use x="375.111328" xlink:href="#DejaVuSans-32"/>
      <use x="406.898438" xlink:href="#DejaVuSans-91"/>
      <use x="445.912109" xlink:href="#DejaVuSans-86"/>
      <use x="514.320312" xlink:href="#DejaVuSans-93"/>
     </g>
    </g>
   </g>
   <g id="line2d_16">
    <path clip-path="url(#pfcc40f3f0b)" d="M 184.581818 238.131999 
L 268.005953 238.243052 
L 274.059582 238.323073 
L 274.972999 238.065121 
L 275.701345 237.630936 
L 276.36402 236.970565 
L 277.014756 235.993583 
L 277.689371 234.556243 
L 278.411747 232.462973 
L 279.205763 229.436548 
L 280.08933 225.135799 
L 281.092298 219.085834 
L 282.280338 210.478412 
L 283.77882 197.879869 
L 285.999678 177.097527 
L 291.766744 122.498332 
L 293.886947 104.792216 
L 295.60035 92.269739 
L 297.122713 82.722974 
L 298.525674 75.281384 
L 299.851025 69.397979 
L 301.128615 64.691769 
L 302.436055 60.740581 
L 303.737526 57.551335 
L 305.021086 55.014585 
L 306.250916 53.05243 
L 307.450895 51.501345 
L 308.800126 50.10606 
L 310.226968 48.948821 
L 311.898581 47.912457 
L 313.582135 47.130879 
L 315.52837 46.463093 
L 317.874599 45.883025 
L 321.940202 45.228437 
L 324.465532 45.067647 
L 325.45656 45.231978 
L 326.220726 45.593957 
L 326.895341 46.180141 
L 327.546077 47.064567 
L 328.208752 48.365374 
L 328.925158 50.304191 
L 329.701264 53.095565 
L 330.578861 57.160063 
L 331.540039 62.714807 
L 332.638527 70.41358 
L 333.910148 80.963682 
L 335.43251 95.553994 
L 337.366805 116.391172 
L 340.613258 154.214806 
L 343.43709 186.105476 
L 344.959452 200.879804 
L 346.183312 210.705916 
L 347.275831 217.765939 
L 348.290739 222.942855 
L 349.263857 226.802299 
L 350.207124 229.675001 
L 351.138452 231.830009 
L 352.075749 233.458724 
L 353.036927 234.695234 
L 354.051835 235.643069 
L 355.162264 236.374429 
L 356.433884 236.940808 
L 357.998037 237.3845 
L 360.117404 237.739349 
L 363.42481 238.044763 
L 367.412802 238.210204 
L 368.547111 238.04892 
L 369.359038 237.712241 
L 370.051564 237.180465 
L 370.702299 236.391919 
L 371.359004 235.231938 
L 372.05153 233.534709 
L 372.803756 231.069148 
L 373.633592 227.541044 
L 374.56492 222.551747 
L 375.639528 215.511803 
L 376.940999 205.416291 
L 378.660373 190.196016 
L 381.842408 159.606393 
L 385.454287 125.650125 
L 387.663145 106.895364 
L 389.418339 93.808126 
L 390.958611 83.929592 
L 392.379483 76.208463 
L 393.692893 70.2206 
L 394.994364 65.290024 
L 396.271954 61.311313 
L 397.471934 58.245034 
L 398.701763 55.673841 
L 399.943533 53.567635 
L 401.167393 51.889398 
L 402.444983 50.48172 
L 403.758394 49.328505 
L 405.250906 48.301959 
L 407.00013 47.393068 
L 408.701594 46.735261 
L 411.203044 46.042528 
L 413.608973 45.572872 
L 417.226822 45.099998 
L 419.011866 45.066842 
L 419.937224 45.277205 
L 420.635719 45.658016 
L 421.328245 46.31872 
L 421.98495 47.289094 
L 422.629715 48.641727 
L 423.358061 50.721698 
L 424.146107 53.694142 
L 425.041615 58.017932 
L 426.032643 63.963948 
L 427.172922 72.236673 
L 428.474392 83.362867 
L 430.056455 98.900731 
L 432.110151 121.437343 
L 438.832425 197.005534 
L 440.121955 208.02093 
L 441.244324 215.797153 
L 442.283113 221.50855 
L 443.268171 225.735383 
L 444.217408 228.874749 
L 445.154706 231.236992 
L 446.092003 233.01564 
L 447.041241 234.35523 
L 448.032269 235.378314 
L 449.100907 236.165165 
L 450.306678 236.774137 
L 451.739489 237.241363 
L 453.566324 237.59159 
L 456.133445 237.840628 
L 460.348298 237.999789 
L 479.27335 238.288625 
L 480.156917 238.007981 
L 480.873323 237.547239 
L 481.530028 236.854021 
L 482.180763 235.829799 
L 482.862185 234.316853 
L 483.594411 232.114465 
L 484.394398 228.963182 
L 485.289905 224.478708 
L 486.316753 218.129769 
L 487.534643 209.124491 
L 489.098795 195.771716 
L 491.510695 173.013764 
L 496.537475 125.427916 
L 498.746393 106.733882 
L 500.501587 93.691098 
L 502.035889 83.89143 
L 503.43288 76.346237 
L 504.734351 70.482145 
L 506.000001 65.792996 
L 507.1761 62.245634 
L 508.316379 59.46102 
L 509.468598 57.211567 
L 510.620818 55.443359 
L 511.755127 54.100383 
L 512.847646 53.139344 
L 513.808823 52.576176 
L 514.62672 52.364043 
L 515.289395 52.437597 
L 515.88043 52.74437 
L 516.465495 53.323633 
L 517.050559 54.22512 
L 517.689354 55.627326 
L 518.39979 57.747534 
L 519.199776 60.878677 
L 520.101254 65.36374 
L 521.134072 71.722434 
L 522.322112 80.549587 
L 523.689252 92.481792 
L 525.348926 109.032167 
L 527.603992 133.949809 
L 532.762113 191.685184 
L 534.171045 204.517765 
L 535.347144 213.296456 
L 536.415783 219.673467 
L 537.418751 224.371672 
L 538.379928 227.858067 
L 539.323196 230.475723 
L 540.254523 232.43148 
L 541.197791 233.913227 
L 542.170909 235.039315 
L 543.209697 235.905956 
L 544.361916 236.577102 
L 545.717117 237.102844 
L 547.430521 237.51768 
L 549.83645 237.854287 
L 553.758772 238.153231 
L 556.00948 238.163576 
L 557.006478 237.949911 
L 557.770644 237.559697 
L 558.445259 236.959994 
L 559.095994 236.072264 
L 559.76464 234.762842 
L 560.475075 232.85363 
L 561.251182 230.089812 
L 562.110869 226.152361 
L 563.083986 220.584578 
L 564.218295 212.722681 
L 565.621257 201.332608 
L 567.573462 183.481909 
L 574.946471 114.410428 
L 576.862857 99.212509 
L 578.48074 88.082516 
L 579.949372 79.467352 
L 581.322483 72.688945 
L 582.629923 67.31157 
L 583.883633 63.044113 
L 585.161223 59.476632 
L 586.420903 56.616531 
L 587.728344 54.223349 
L 588.961159 52.408626 
L 590.262629 50.872187 
L 591.62977 49.595201 
L 593.038701 48.562217 
L 594.632704 47.662339 
L 596.459539 46.898627 
L 598.555026 46.281379 
L 600.966925 45.809953 
L 605.110138 45.363475 
L 609.008579 45.159389 
L 614.429383 44.902189 
L 619.784516 44.724177 
L 620.751664 44.965926 
L 621.462099 45.37104 
L 622.112834 45.999393 
L 622.78148 46.984253 
L 623.462065 48.422029 
L 624.184441 50.50715 
L 624.972487 53.501806 
L 625.844114 57.721782 
L 626.841112 63.706265 
L 627.975421 71.939074 
L 629.276892 83.066186 
L 630.858955 98.607397 
L 632.906681 121.084313 
L 639.664775 197.0891 
L 640.954306 208.091539 
L 642.076675 215.854677 
L 643.109493 221.525386 
L 644.094551 225.748721 
L 645.043788 228.885149 
L 645.981086 231.244976 
L 646.918383 233.021679 
L 647.867621 234.359728 
L 648.858649 235.381589 
L 649.927287 236.167471 
L 651.133237 236.775743 
L 652.566049 237.242346 
L 654.392883 237.592113 
L 656.963586 237.841164 
L 661.19038 238.000773 
L 671.387221 238.104944 
L 679.399026 238.262137 
L 684.545207 238.332066 
L 685.488474 238.086777 
L 686.22876 237.665634 
L 686.891436 237.028051 
L 687.542171 236.07979 
L 688.210816 234.692604 
L 688.927222 232.666811 
L 689.709298 229.753509 
L 690.580925 225.600825 
L 691.571953 219.734 
L 692.742083 211.386127 
L 694.204744 199.233741 
L 696.318141 179.605209 
L 702.616542 120.122984 
L 704.670238 103.205448 
L 706.353792 91.097098 
L 707.858244 81.827555 
L 709.255235 74.557426 
L 710.592526 68.748219 
L 711.888026 64.096894 
L 713.118632 60.461009 
L 714.372342 57.429656 
L 715.596202 55.022311 
L 716.921553 52.92383 
L 718.133472 51.384333 
L 719.518523 49.982771 
L 720.987155 48.824889 
L 722.467727 47.922114 
L 724.1274 47.152929 
L 725.972145 46.526347 
L 728.001961 46.040274 
L 731.034746 45.580759 
L 735.882425 45.169529 
L 744.162881 44.83298 
L 744.986747 45.122853 
L 745.667333 45.594601 
L 746.306128 46.309546 
L 746.968803 47.408681 
L 747.643419 48.978758 
L 748.377735 51.277784 
L 749.171751 54.509038 
L 750.091138 59.240678 
L 751.117987 65.754207 
L 752.300056 74.755074 
L 753.679137 87.051995 
L 755.362691 104.179347 
L 757.649219 129.920962 
L 762.944651 190.298172 
L 764.371493 203.573675 
L 765.553562 212.602016 
L 766.622201 219.139222 
L 767.625169 223.964324 
L 768.592317 227.569476 
L 769.535584 230.259958 
L 770.466912 232.27151 
L 771.410179 233.796184 
L 772.383297 234.955043 
L 773.416115 235.842134 
L 774.554603 236.525268 
L 775.873984 237.051633 
L 777.497837 237.450598 
L 779.676905 237.742715 
L 782.978222 237.939836 
L 789.515424 238.063608 
L 799.389883 238.278477 
L 803.771898 238.334414 
L 804.733076 238.099797 
L 805.479332 237.691202 
L 806.147977 237.065444 
L 806.798713 236.137707 
L 807.467358 234.775917 
L 808.183764 232.780993 
L 808.96584 229.904116 
L 809.831497 225.824537 
L 810.816555 220.048708 
L 811.974744 211.853014 
L 813.419496 199.926716 
L 815.479162 180.878397 
L 822.093975 118.5301 
L 824.105881 102.118304 
L 825.771525 90.2757 
L 827.264037 81.19492 
L 828.655058 74.052201 
L 829.974438 68.395575 
L 831.281879 63.765013 
L 832.571409 60.030465 
L 833.795269 57.1393 
L 835.043009 54.741612 
L 836.308659 52.778974 
L 837.65789 51.111199 
L 838.96533 49.830351 
L 840.487693 48.662811 
L 842.039905 47.749736 
L 843.801069 46.972342 
L 845.741335 46.358153 
L 847.884582 45.952073 
L 849.000981 45.972031 
L 849.783057 46.210561 
L 850.457672 46.659131 
L 851.108408 47.38486 
L 851.747203 48.450839 
L 852.409878 49.996613 
L 853.138224 52.278256 
L 853.956121 55.619439 
L 854.875508 60.378441 
L 855.902356 66.919332 
L 857.090396 75.995203 
L 858.481417 88.43376 
L 860.17691 105.718248 
L 862.499259 131.881716 
L 867.56783 189.60304 
L 869.006611 203.084077 
L 870.200621 212.282705 
L 871.275229 218.916047 
L 872.278197 223.788693 
L 873.245345 227.433467 
L 874.188613 230.155939 
L 875.11994 232.192821 
L 876.063208 233.73753 
L 877.030355 234.905975 
L 878.057204 235.802779 
L 879.185543 236.493191 
L 880.492983 237.027115 
L 882.092956 237.431725 
L 884.230233 237.72929 
L 887.448089 237.931909 
L 893.656939 238.058769 
L 909.883529 238.127042 
L 996.218182 238.132 
L 996.218182 238.132 
" style="fill:none;stroke:#ff0000;stroke-linecap:square;stroke-width:1.5;"/>
   </g>
   <g id="line2d_17">
    <path clip-path="url(#pfcc40f3f0b)" d="M 184.581818 44.990712 
L 280.238582 44.879817 
L 286.30415 44.663499 
L 287.336968 44.857284 
L 288.071284 45.210411 
L 288.72799 45.766979 
L 289.354845 46.585094 
L 290.01155 47.817818 
L 290.710045 49.627552 
L 291.468242 52.242042 
L 292.304048 55.953735 
L 293.270599 61.33787 
L 294.388431 68.97001 
L 295.636171 79.120374 
L 297.122713 93.137201 
L 298.985368 112.953756 
L 301.850991 146.150191 
L 305.259888 185.079333 
L 306.80613 200.227534 
L 308.04193 210.260741 
L 309.140419 217.445743 
L 310.161297 222.718917 
L 311.134415 226.629256 
L 312.077683 229.542796 
L 313.00901 231.730188 
L 313.946307 233.384402 
L 314.907485 234.640825 
L 315.916423 235.599306 
L 317.014912 236.336888 
L 318.268622 236.906569 
L 319.779044 237.340953 
L 321.74916 237.663832 
L 324.626723 237.890758 
L 333.229562 238.218789 
L 337.790679 238.301451 
L 338.768513 238.074749 
L 339.520739 237.674549 
L 340.189384 237.062542 
L 340.840119 236.152519 
L 341.508765 234.813214 
L 342.2192 232.865132 
L 342.995307 230.05226 
L 343.854994 226.055744 
L 344.834081 220.382488 
L 345.980331 212.351078 
L 347.401202 200.714958 
L 349.407138 182.262222 
L 356.386124 116.646988 
L 358.35624 100.774716 
L 360.003973 89.232431 
L 361.484545 80.373313 
L 362.869596 73.389083 
L 364.171066 67.911595 
L 365.442687 63.479163 
L 366.702367 59.873215 
L 367.932197 56.997502 
L 369.191877 54.606413 
L 370.463497 52.664216 
L 371.830638 51.007386 
L 373.138078 49.759854 
L 374.469399 48.757773 
L 376.194743 47.773557 
L 377.884266 47.076638 
L 379.531999 46.616318 
L 380.672279 46.483695 
L 381.543906 46.594268 
L 382.260311 46.922286 
L 382.881196 47.455517 
L 383.537902 48.346543 
L 384.212517 49.688392 
L 384.916983 51.623185 
L 385.681149 54.397177 
L 386.534866 58.36108 
L 387.525058 64.09625 
L 388.624323 71.829306 
L 389.907883 82.511259 
L 391.442185 97.252994 
L 393.394391 118.309355 
L 396.845079 158.452648 
L 399.424139 187.268428 
L 400.916651 201.582146 
L 402.134541 211.2278 
L 403.22109 218.143208 
L 404.235998 223.235768 
L 405.209116 227.026958 
L 406.152383 229.845808 
L 407.083711 231.958695 
L 408.021008 233.554595 
L 408.982186 234.765603 
L 409.997094 235.693425 
L 411.107523 236.408541 
L 412.385113 236.962042 
L 413.937326 237.383398 
L 415.979082 237.69438 
L 419.011866 237.911021 
L 431.148974 238.353075 
L 432.510144 238.237084 
L 433.375801 237.943777 
L 434.086237 237.467147 
L 434.742942 236.750525 
L 435.393678 235.697443 
L 436.074263 234.151599 
L 436.808579 231.901221 
L 437.614535 228.674683 
L 438.516013 224.095998 
L 439.548831 217.633283 
L 440.784631 208.400646 
L 442.372663 194.728205 
L 444.880084 170.935273 
L 449.602212 126.138692 
L 451.8171 107.281212 
L 453.578264 94.101556 
L 455.118537 84.180112 
L 456.539408 76.419631 
L 457.894609 70.223336 
L 459.196079 65.292921 
L 460.419939 61.465826 
L 461.619919 58.372829 
L 462.831838 55.812741 
L 464.139279 53.580672 
L 465.369109 51.893904 
L 466.640729 50.492503 
L 468.121301 49.210045 
L 469.667543 48.181085 
L 471.488408 47.277505 
L 473.225692 46.648509 
L 475.667441 46.040113 
L 477.822629 45.688596 
L 483.743662 45.161642 
L 492.042029 44.824611 
L 492.895746 45.121566 
L 493.576331 45.593313 
L 494.221096 46.315662 
L 494.847951 47.346232 
L 495.528537 48.906974 
L 496.262853 51.179282 
L 497.068809 54.432264 
L 497.988196 59.137669 
L 499.015045 65.620296 
L 500.197114 74.585271 
L 501.576195 86.842002 
L 503.259749 103.922324 
L 505.564187 129.792603 
L 510.722309 188.370541 
L 512.19094 202.135045 
L 513.40286 211.501014 
L 514.489409 218.248019 
L 515.504317 223.217909 
L 516.477435 226.919037 
L 517.420702 229.671223 
L 518.358 231.745648 
L 519.301267 233.310316 
L 520.274385 234.503744 
L 521.307203 235.42277 
L 522.447483 236.138405 
L 523.748953 236.689219 
L 525.211615 237.066567 
L 526.453385 237.172754 
L 527.36519 237.036338 
L 528.105476 236.703353 
L 528.774121 236.153913 
L 529.424857 235.317952 
L 530.087532 234.086905 
L 530.791998 232.285199 
L 531.556164 229.688688 
L 532.40391 225.971761 
L 533.353148 220.751758 
L 534.457607 213.357022 
L 535.800868 202.756542 
L 537.609792 186.555866 
L 541.854496 145.76666 
L 544.761909 119.202167 
L 546.797696 102.534716 
L 548.475279 90.555562 
L 549.973761 81.395514 
L 551.364782 74.215888 
L 552.678193 68.550893 
L 553.937873 64.043136 
L 555.161733 60.428175 
L 556.355742 57.52687 
L 557.561692 55.128055 
L 558.863163 53.039071 
L 560.146723 51.39737 
L 561.507894 50.023653 
L 562.922795 48.913412 
L 564.558588 47.944648 
L 566.140651 47.258352 
L 567.674953 46.797388 
L 568.946573 46.635632 
L 569.77044 46.745079 
L 570.474906 47.069718 
L 571.089821 47.599247 
L 571.704735 48.424121 
L 572.355471 49.686299 
L 573.036056 51.499574 
L 573.812162 54.24379 
L 574.665879 58.132207 
L 575.633027 63.636413 
L 576.725546 71.199826 
L 577.997166 81.644151 
L 579.507588 96.000778 
L 581.418003 116.437558 
L 584.534368 152.56921 
L 587.483572 185.884523 
L 589.014889 200.754874 
L 590.244719 210.63859 
L 591.337238 217.707594 
L 592.358116 222.921257 
L 593.331234 226.78402 
L 594.274501 229.660142 
L 595.205829 231.818319 
L 596.143126 233.449806 
L 597.104304 234.688625 
L 598.113242 235.633508 
L 599.217701 236.363851 
L 600.477381 236.926501 
L 602.005713 237.357095 
L 603.999709 237.675471 
L 606.913093 237.896948 
L 612.101064 238.035134 
L 633.527566 238.235728 
L 634.351433 237.908169 
L 635.043958 237.391921 
L 635.694693 236.621434 
L 636.351399 235.481937 
L 637.043924 233.807005 
L 637.79018 231.387021 
L 638.614047 227.917415 
L 639.539404 223.000569 
L 640.608043 216.046305 
L 641.897573 206.095231 
L 643.593067 191.141266 
L 646.613911 162.133663 
L 650.404891 126.370542 
L 652.637689 107.344305 
L 654.398853 94.156279 
L 655.942708 84.205655 
L 657.363579 76.441359 
L 658.68296 70.390886 
L 659.97846 65.45178 
L 661.25008 61.46132 
L 662.50379 58.24439 
L 663.799291 55.551518 
L 665.053001 53.452072 
L 666.300741 51.768523 
L 667.602211 50.363581 
L 669.124573 49.079675 
L 670.724546 48.05168 
L 672.312579 47.279598 
L 674.479706 46.522484 
L 676.497582 46.039953 
L 679.512457 45.583817 
L 683.452688 45.270606 
L 696.533063 44.676375 
L 697.685282 44.818173 
L 698.449448 45.116737 
L 699.112124 45.599268 
L 699.738979 46.321939 
L 700.395684 47.432823 
L 701.09418 49.092068 
L 701.846406 51.50569 
L 702.664302 54.922038 
L 703.58369 59.766022 
L 704.610538 66.399621 
L 705.798577 75.576408 
L 707.201539 88.236466 
L 708.920912 105.902167 
L 711.302961 132.906427 
L 716.163356 188.475964 
L 717.626018 202.354196 
L 718.825998 211.736518 
L 719.906576 218.517902 
L 720.915515 223.504664 
L 721.882662 227.215364 
L 722.82593 229.99023 
L 723.757257 232.068128 
L 724.694555 233.636409 
L 725.661703 234.83206 
L 726.682581 235.74561 
L 727.80495 236.450843 
L 729.09448 236.993706 
L 730.670573 237.407186 
L 732.760089 237.711791 
L 735.870484 237.920275 
L 741.709191 238.050112 
L 753.153773 238.30062 
L 756.914903 238.337928 
L 757.888021 238.107538 
L 758.640247 237.702191 
L 759.308892 237.083525 
L 759.959627 236.164796 
L 760.628273 234.814243 
L 761.344679 232.833067 
L 762.126755 229.972504 
L 762.992412 225.911562 
L 763.97747 220.156143 
L 765.135659 211.981308 
L 766.574441 200.126585 
L 768.622167 181.211887 
L 775.33071 118.021365 
L 777.336646 101.71554 
L 778.996319 89.968267 
L 780.482861 80.968784 
L 781.873763 73.865015 
L 783.187173 68.266331 
L 784.452823 63.795754 
L 785.694593 60.184012 
L 786.906513 57.293974 
L 788.142313 54.890975 
L 789.485574 52.794426 
L 790.721374 51.252836 
L 792.136275 49.853528 
L 793.646697 48.696772 
L 795.186969 47.792388 
L 796.924253 47.026744 
L 799.413763 46.2714 
L 802.661469 45.684412 
L 805.980816 45.348668 
L 812.356827 44.893659 
L 815.843335 44.722729 
L 816.995554 44.863883 
L 817.825391 45.202524 
L 818.458216 45.686343 
L 819.114921 46.476291 
L 819.789537 47.674572 
L 820.476092 49.375503 
L 821.216378 51.823408 
L 822.058155 55.432253 
L 822.995452 60.497384 
L 824.052151 67.489903 
L 825.2581 77.007746 
L 826.684942 90.111771 
L 828.452076 108.518652 
L 830.983376 137.473463 
L 835.263901 186.504522 
L 836.774323 201.11373 
L 837.998183 210.89756 
L 839.090701 217.918923 
L 840.10561 223.062971 
L 841.078727 226.895342 
L 842.021995 229.746426 
L 842.953322 231.884367 
L 843.89062 233.499667 
L 844.851798 234.725644 
L 845.866706 235.665056 
L 846.977135 236.389202 
L 848.248755 236.948012 
L 849.800967 237.378359 
L 851.902424 237.715003 
L 855.323261 238.010767 
L 860.917196 238.263557 
L 862.135086 238.119897 
L 862.964923 237.802845 
L 863.663418 237.296197 
L 864.320124 236.534589 
L 864.976829 235.414745 
L 865.669354 233.766015 
L 866.41561 231.379572 
L 867.233507 227.979291 
L 868.152894 223.152646 
L 869.215563 216.308414 
L 870.493153 206.531119 
L 872.158796 191.931777 
L 875.018449 164.553257 
L 879.024351 126.681258 
L 881.257149 107.622654 
L 883.024284 94.357049 
L 884.570526 84.362824 
L 885.991397 76.5735 
L 887.334658 70.401026 
L 888.636128 65.439226 
L 889.901779 61.467597 
L 891.155489 58.24938 
L 892.385319 55.678025 
L 893.627089 53.571819 
L 894.958409 51.76289 
L 896.25391 50.364547 
L 897.60314 49.20924 
L 899.149383 48.180119 
L 900.970247 47.276218 
L 903.131405 46.521518 
L 905.149281 46.038826 
L 908.164155 45.58253 
L 912.104387 45.269319 
L 917.50131 45.089536 
L 924.289254 45.017591 
L 996.218182 44.990712 
L 996.218182 44.990712 
" style="fill:none;stroke:#008000;stroke-linecap:square;stroke-width:1.5;"/>
   </g>
   <g id="line2d_18">
    <path clip-path="url(#pfcc40f3f0b)" d="M 184.581818 44.990712 
L 274.393905 45.100247 
L 278.572938 45.337319 
L 281.140059 45.693267 
L 283.050474 46.177928 
L 284.542986 46.777343 
L 285.856397 47.547431 
L 286.990706 48.470165 
L 288.065314 49.642286 
L 289.080222 51.098151 
L 290.03543 52.864962 
L 290.990638 55.115221 
L 291.945845 57.963515 
L 292.901053 61.540646 
L 293.886947 66.148175 
L 294.901855 72.029018 
L 295.976463 79.685552 
L 297.110773 89.498308 
L 298.364483 102.424137 
L 299.856995 120.282419 
L 305.349439 188.709187 
L 306.603149 200.331879 
L 307.737458 208.952984 
L 308.812066 215.561678 
L 309.886675 220.829481 
L 310.901583 224.756907 
L 311.916491 227.841951 
L 312.931399 230.24273 
L 313.946307 232.096933 
L 315.020916 233.59238 
L 316.095525 234.715305 
L 317.229834 235.592854 
L 318.483544 236.287721 
L 319.916355 236.824811 
L 321.587969 237.207942 
L 323.558085 237.428189 
L 325.886403 237.458636 
L 328.274422 237.26911 
L 330.42364 236.882951 
L 332.274354 236.329933 
L 333.886267 235.615779 
L 335.319079 234.731921 
L 336.572789 233.703776 
L 337.766798 232.439984 
L 338.935674 230.863867 
L 340.069983 228.936146 
L 341.144592 226.667699 
L 342.2192 223.881917 
L 343.293809 220.484161 
L 344.428118 216.122975 
L 345.562427 210.851131 
L 346.756437 204.203256 
L 348.016117 195.874992 
L 349.389228 185.229671 
L 350.94144 171.372361 
L 352.971257 151.086928 
L 357.269691 107.613427 
L 358.881604 93.809609 
L 360.314415 83.364429 
L 361.627826 75.354134 
L 362.881536 69.034908 
L 364.075546 64.106051 
L 365.269555 60.106279 
L 366.403864 57.042513 
L 367.538173 54.582315 
L 368.672482 52.625217 
L 369.806792 51.084414 
L 371.000801 49.83292 
L 372.194811 48.895267 
L 373.448521 48.193076 
L 374.702231 47.740616 
L 375.955941 47.515807 
L 377.209651 47.515002 
L 378.40366 47.736992 
L 379.53797 48.179054 
L 380.612578 48.847729 
L 381.627486 49.754008 
L 382.582694 50.908857 
L 383.537902 52.425947 
L 384.493109 54.389773 
L 385.448317 56.902011 
L 386.403525 60.081103 
L 387.358732 64.059376 
L 388.34373 69.1463 
L 389.358639 75.587414 
L 390.433247 83.878196 
L 391.627257 94.953162 
L 392.940667 109.298163 
L 394.671981 130.854088 
L 398.433111 178.400607 
L 399.865923 193.237024 
L 401.119633 203.941045 
L 402.253942 211.800343 
L 403.328551 217.784868 
L 404.403159 222.534387 
L 405.418067 226.066251 
L 406.432975 228.837125 
L 407.447884 230.992806 
L 408.462792 232.658432 
L 409.5374 234.003081 
L 410.671709 235.06213 
L 411.865719 235.87503 
L 413.179129 236.505041 
L 414.731342 236.993963 
L 416.522356 237.31935 
L 418.671574 237.478445 
L 421.119293 237.431006 
L 423.507312 237.162895 
L 425.596829 236.705712 
L 427.328143 236.107945 
L 428.880355 235.336475 
L 430.253466 234.402772 
L 431.507176 233.279596 
L 432.701186 231.902464 
L 433.835495 230.245929 
L 434.969804 228.170321 
L 436.044413 225.73444 
L 437.119021 222.751988 
L 438.25333 218.904559 
L 439.38764 214.223569 
L 440.521949 208.596133 
L 441.715958 201.546058 
L 443.029369 192.379301 
L 444.46218 180.706827 
L 446.133794 165.155077 
L 448.700914 138.846538 
L 451.542478 110.345689 
L 453.214091 95.732243 
L 454.646903 85.017504 
L 455.960313 76.750566 
L 457.214023 70.194639 
L 458.408033 65.056586 
L 459.602042 60.867003 
L 460.796052 57.489077 
L 461.930361 54.910972 
L 463.124371 52.745081 
L 464.31838 51.036679 
L 465.57209 49.636581 
L 466.885501 48.510202 
L 468.258612 47.620218 
L 469.810824 46.880764 
L 471.601839 46.283131 
L 473.691355 45.825488 
L 476.318176 45.488691 
L 479.601703 45.303019 
L 483.104867 45.322724 
L 485.91079 45.545703 
L 488.000306 45.923164 
L 489.612219 46.426186 
L 490.98533 47.081867 
L 492.17934 47.898212 
L 493.253949 48.902885 
L 494.268857 50.164129 
L 495.224064 51.710158 
L 496.179272 53.698945 
L 497.13448 56.242505 
L 498.089687 59.471945 
L 499.044895 63.534711 
L 500.000103 68.587365 
L 501.015011 75.210309 
L 502.089619 83.793589 
L 503.223928 94.700661 
L 504.537339 109.591572 
L 506.268653 132.01826 
L 509.737251 177.484325 
L 511.110362 192.314757 
L 512.304371 202.97428 
L 513.43868 211.164341 
L 514.513289 217.325396 
L 515.528197 221.898441 
L 516.543105 225.447908 
L 517.498313 228.01056 
L 518.453521 229.95129 
L 519.349028 231.303488 
L 520.244535 232.278849 
L 521.140042 232.935263 
L 522.035549 233.316349 
L 522.931056 233.452885 
L 523.826564 233.364151 
L 524.722071 233.059093 
L 525.677278 232.494568 
L 526.657262 231.646813 
L 527.621902 230.523471 
L 528.63681 228.99508 
L 529.651718 227.061027 
L 530.726327 224.501484 
L 531.800936 221.330932 
L 532.875544 217.454429 
L 534.009853 212.488466 
L 535.203863 206.174944 
L 536.457573 198.242042 
L 537.770983 188.447293 
L 539.263495 175.554859 
L 541.11421 157.465446 
L 546.666355 101.730299 
L 548.218567 89.177879 
L 549.591678 79.819004 
L 550.845388 72.697592 
L 552.099098 66.838055 
L 553.293108 62.301854 
L 554.427417 58.809115 
L 555.561726 55.992841 
L 556.696035 53.744371 
L 557.830344 51.967774 
L 558.964653 50.58169 
L 560.158663 49.471704 
L 561.352672 48.660753 
L 562.546682 48.105551 
L 563.800392 47.768424 
L 564.994402 47.670402 
L 566.188411 47.796389 
L 567.32272 48.146014 
L 568.397329 48.719416 
L 569.412237 49.522662 
L 570.367445 50.563132 
L 571.322652 51.942873 
L 572.27786 53.739821 
L 573.233068 56.048743 
L 574.188275 58.981351 
L 575.143483 62.664379 
L 576.098691 67.234363 
L 577.113599 73.21426 
L 578.188207 80.963781 
L 579.322517 90.841184 
L 580.576227 103.772397 
L 582.128439 122.270317 
L 587.322381 186.462144 
L 588.614896 198.644971 
L 589.808906 207.878813 
L 590.943215 214.945417 
L 592.017823 220.278295 
L 593.032731 224.275664 
L 594.04764 227.432556 
L 595.062548 229.903063 
L 596.077456 231.822638 
L 597.152064 233.381602 
L 598.226673 234.562315 
L 599.420683 235.537469 
L 600.674393 236.277965 
L 602.107204 236.869423 
L 603.838518 237.336557 
L 605.987735 237.678375 
L 608.913059 237.905494 
L 613.151793 237.995848 
L 618.166633 237.886891 
L 621.808362 237.603369 
L 624.375483 237.19514 
L 626.405299 236.654204 
L 628.076912 235.981491 
L 629.509724 235.168664 
L 630.823134 234.161371 
L 632.017144 232.959095 
L 633.151453 231.492947 
L 634.226062 229.739364 
L 635.30067 227.54882 
L 636.375279 224.827649 
L 637.449887 221.470625 
L 638.524496 217.364332 
L 639.658805 212.089877 
L 640.793114 205.727658 
L 641.987124 197.751746 
L 643.300534 187.413026 
L 644.793046 173.780347 
L 646.703462 154.059947 
L 651.360099 105.01953 
L 652.912311 91.488646 
L 654.285422 81.386221 
L 655.572565 73.529827 
L 656.766574 67.547438 
L 657.960584 62.684297 
L 659.094893 58.959402 
L 660.229202 55.969637 
L 661.363511 53.589111 
L 662.49782 51.705774 
L 663.69183 50.154812 
L 664.885839 48.954569 
L 666.19925 47.949012 
L 667.632061 47.13762 
L 669.243974 46.486056 
L 671.15439 45.964621 
L 673.488678 45.569428 
L 676.533403 45.291849 
L 680.772137 45.144193 
L 685.667576 45.19232 
L 689.130204 45.432041 
L 691.458522 45.800718 
L 693.249537 46.298327 
L 694.742049 46.94383 
L 695.995759 47.726107 
L 697.130068 48.69721 
L 698.204676 49.926261 
L 699.219585 51.447158 
L 700.174792 53.286039 
L 701.13 55.61921 
L 702.085208 58.56073 
L 703.040415 62.239626 
L 703.995623 66.794957 
L 705.010531 72.751141 
L 706.08514 80.471308 
L 707.219449 90.319975 
L 708.473159 103.231963 
L 710.025371 121.738578 
L 715.261879 186.651048 
L 716.57529 199.014913 
L 717.769299 208.204888 
L 718.903608 215.225322 
L 719.978217 220.514744 
L 720.993125 224.473734 
L 722.008033 227.596078 
L 723.022941 230.036354 
L 724.03785 231.930014 
L 725.112458 233.465897 
L 726.187067 234.627468 
L 727.381076 235.585203 
L 728.694487 236.339675 
L 730.186999 236.927187 
L 731.978013 237.377206 
L 734.186931 237.692447 
L 737.171955 237.879312 
L 741.112186 237.892183 
L 744.933017 237.694029 
L 747.79864 237.338502 
L 750.007558 236.852411 
L 751.798572 236.241096 
L 753.350785 235.479554 
L 754.723896 234.55702 
L 755.977606 233.443112 
L 757.171615 232.070834 
L 758.305924 230.411727 
L 759.380533 228.444307 
L 760.455141 226.008159 
L 761.52975 223.009795 
L 762.604359 219.346782 
L 763.738668 214.641044 
L 764.872977 208.953739 
L 766.066986 201.793273 
L 767.320697 192.899623 
L 768.693808 181.549352 
L 770.365421 165.725088 
L 772.872841 139.468514 
L 775.712793 110.301542 
L 777.384406 95.380858 
L 778.817218 84.493099 
L 780.130628 76.139667 
L 781.384338 69.55529 
L 782.578228 64.427853 
L 783.772238 60.273346 
L 784.906547 57.094754 
L 786.040856 54.541886 
L 787.175165 52.505261 
L 788.369175 50.814177 
L 789.563184 49.494775 
L 790.876595 48.380318 
L 792.249706 47.505858 
L 793.801918 46.784837 
L 795.592933 46.207288 
L 797.74215 45.760215 
L 800.428671 45.443291 
L 803.771898 45.282288 
L 807.294227 45.328489 
L 810.100149 45.576036 
L 812.189666 45.977128 
L 813.801579 46.502638 
L 815.17469 47.180316 
L 816.368699 48.017056 
L 817.473158 49.072465 
L 818.488066 50.358279 
L 819.443274 51.925119 
L 820.398482 53.929285 
L 821.353689 56.478317 
L 822.308897 59.697293 
L 823.264105 63.726061 
L 824.219312 68.712386 
L 825.23422 75.219359 
L 826.308829 83.619305 
L 827.443138 94.261841 
L 828.756549 108.770706 
L 830.487862 130.655568 
L 834.195262 178.320103 
L 835.568373 192.816552 
L 836.822083 203.750892 
L 837.956392 211.754358 
L 839.031001 217.824643 
L 840.045909 222.383145 
L 841.060817 225.980772 
L 842.075725 228.787723 
L 843.090633 230.956641 
L 844.105542 232.617965 
L 845.12045 233.879353 
L 846.195058 234.874886 
L 847.329367 235.63272 
L 848.583077 236.203472 
L 849.956188 236.584728 
L 851.508401 236.779999 
L 853.180014 236.762433 
L 854.851628 236.527627 
L 856.463541 236.081474 
L 857.956053 235.438517 
L 859.329164 234.601177 
L 860.582874 233.574962 
L 861.776883 232.304312 
L 862.911192 230.766833 
L 864.045501 228.832459 
L 865.12011 226.554831 
L 866.194719 223.757718 
L 867.269327 220.347194 
L 868.403636 215.971926 
L 869.537945 210.686604 
L 870.731955 204.02683 
L 871.985665 195.733418 
L 873.358776 185.094435 
L 874.910988 171.255816 
L 877.000505 150.393742 
L 881.179539 108.189906 
L 882.851152 93.862174 
L 884.283964 83.42707 
L 885.597374 75.416706 
L 886.851084 69.089765 
L 888.045094 64.147143 
L 889.239103 60.127461 
L 890.433113 56.893543 
L 891.567422 54.429649 
L 892.761432 52.362635 
L 893.955441 50.734121 
L 895.209151 49.400699 
L 896.522562 48.328628 
L 897.955373 47.450167 
L 899.567286 46.732511 
L 901.418001 46.161235 
L 903.626919 45.71817 
L 906.492542 45.382707 
L 910.492474 45.155876 
L 917.178927 45.029605 
L 934.96967 44.991541 
L 996.16266 44.990712 
L 996.16266 44.990712 
" style="fill:none;stroke:#008000;stroke-dasharray:5.55,2.4;stroke-dashoffset:0;stroke-width:1.5;"/>
   </g>
   <g id="line2d_19">
    <path clip-path="url(#pfcc40f3f0b)" d="M 184.581818 238.132013 
L 274.393905 238.241869 
L 278.035634 238.47117 
L 280.423653 238.827545 
L 282.393769 239.335279 
L 284.005682 239.970566 
L 285.498194 240.801223 
L 289.259324 243.08989 
L 289.97573 243.134046 
L 290.632435 242.940835 
L 291.28914 242.506497 
L 292.065246 241.696556 
L 293.020454 240.344448 
L 296.454067 235.12824 
L 297.170473 234.579654 
L 297.767478 234.380856 
L 298.304782 234.415655 
L 298.901787 234.689527 
L 299.558492 235.253169 
L 300.394299 236.287135 
L 303.439023 240.385883 
L 304.095729 240.791393 
L 304.692733 240.923022 
L 305.289738 240.838881 
L 306.006144 240.499278 
L 307.021052 239.729322 
L 309.468772 237.776467 
L 310.603081 237.209681 
L 311.73739 236.902674 
L 312.9911 236.804047 
L 314.662713 236.915525 
L 322.483476 237.724772 
L 325.408799 237.674767 
L 327.97592 237.417644 
L 330.125137 236.98809 
L 331.975852 236.401278 
L 333.587765 235.665863 
L 335.020576 234.774936 
L 336.393687 233.654157 
L 337.9459 232.073162 
L 340.189384 229.776363 
L 341.025191 229.249609 
L 341.681896 229.086378 
L 342.278901 229.167304 
L 342.875906 229.483064 
L 343.532611 230.103944 
L 344.308717 231.18321 
L 345.263925 232.929981 
L 347.12061 236.935351 
L 348.493721 239.617792 
L 349.389228 240.928403 
L 350.165334 241.690541 
L 350.822039 242.04124 
L 351.419044 242.126315 
L 352.016049 242.00103 
L 352.732455 241.60374 
L 353.568261 240.865915 
L 354.821971 239.413611 
L 357.568193 236.159646 
L 358.762203 235.119538 
L 359.896512 234.42604 
L 360.971121 234.026397 
L 362.10543 233.842532 
L 363.41884 233.870865 
L 365.030753 234.148382 
L 367.299371 234.783066 
L 374.045526 237.029079 
L 376.791748 238.121407 
L 378.582762 239.06911 
L 380.254375 240.221051 
L 382.642394 241.905686 
L 383.478201 242.201205 
L 384.134906 242.217188 
L 384.791612 242.006281 
L 385.448317 241.558775 
L 386.224423 240.746767 
L 387.239331 239.327584 
L 390.254146 234.852671 
L 391.030252 234.191602 
L 391.686957 233.918802 
L 392.283962 233.9188 
L 392.880967 234.154607 
L 393.537672 234.66448 
L 394.373479 235.617112 
L 397.477904 239.486434 
L 398.134609 239.842217 
L 398.791314 239.942247 
L 399.448019 239.804738 
L 400.224126 239.401616 
L 401.537536 238.416157 
L 403.149449 237.275161 
L 404.283758 236.74805 
L 405.358367 236.488257 
L 406.552376 236.425835 
L 408.164289 236.585259 
L 415.985052 237.680341 
L 418.850675 237.711148 
L 421.596897 237.522407 
L 423.865515 237.153121 
L 425.835631 236.615249 
L 427.566945 235.913619 
L 429.059457 235.073465 
L 430.432568 234.049847 
L 431.92508 232.646187 
L 434.4922 230.172127 
L 435.268307 229.744777 
L 435.925012 229.629374 
L 436.522017 229.758775 
L 437.119021 230.129462 
L 437.775727 230.820123 
L 438.551833 231.997232 
L 439.507041 233.891134 
L 441.118953 237.685943 
L 442.730866 241.281058 
L 443.686074 242.914855 
L 444.46218 243.849949 
L 445.118886 244.33696 
L 445.71589 244.534266 
L 446.312895 244.506931 
L 446.9696 244.239913 
L 447.745707 243.652981 
L 448.760615 242.561215 
L 450.766372 239.959276 
L 452.497686 237.896295 
L 453.751396 236.731203 
L 454.945405 235.923526 
L 456.079714 235.418184 
L 457.273724 235.12397 
L 458.646835 235.020381 
L 460.318448 235.12769 
L 462.766168 235.535688 
L 471.482438 237.168276 
L 475.780872 237.65529 
L 486.030191 238.691431 
L 488.119707 239.229831 
L 489.851021 239.907489 
L 491.642036 240.867805 
L 493.313649 241.719489 
L 494.149456 241.909454 
L 494.806161 241.851134 
L 495.462866 241.559382 
L 496.119571 241.006504 
L 496.835977 240.103565 
L 497.731484 238.585883 
L 498.985194 235.97132 
L 501.074711 231.594865 
L 501.970218 230.235042 
L 502.626924 229.585327 
L 503.223928 229.293446 
L 503.761233 229.288895 
L 504.298537 229.528614 
L 504.895542 230.064369 
L 505.611948 231.028365 
L 506.686556 232.914914 
L 508.656672 236.41052 
L 509.498449 237.429205 
L 510.214854 237.961181 
L 510.87156 238.185475 
L 511.587965 238.18957 
L 512.483473 237.950217 
L 514.63269 237.02995 
L 516.184902 236.526644 
L 517.856516 236.228169 
L 521.677346 235.642261 
L 523.110158 235.136672 
L 524.363868 234.462753 
L 525.677278 233.491688 
L 527.562202 231.762936 
L 528.935313 230.62554 
L 529.771119 230.209107 
L 530.427825 230.117863 
L 531.024829 230.250527 
L 531.621834 230.60509 
L 532.278539 231.255071 
L 533.054646 232.35314 
L 534.069554 234.225729 
L 537.770983 241.536815 
L 538.54709 242.436036 
L 539.263495 242.935421 
L 539.8605 243.101436 
L 540.457505 243.046942 
L 541.11421 242.753007 
L 541.890316 242.136457 
L 542.905225 241.008449 
L 547.26336 235.759372 
L 548.397669 234.92451 
L 549.472277 234.403925 
L 550.546886 234.121008 
L 551.740895 234.036356 
L 553.173707 234.170286 
L 555.024422 234.58222 
L 558.188547 235.56029 
L 563.740692 237.519097 
L 565.830208 238.489976 
L 567.442121 239.476229 
L 569.352537 240.93899 
L 570.845049 241.981587 
L 571.680855 242.309321 
L 572.397261 242.347772 
L 573.053966 242.149298 
L 573.710672 241.718949 
L 574.486778 240.93703 
L 575.501686 239.577212 
L 578.307608 235.616627 
L 579.083715 234.963032 
L 579.74042 234.682793 
L 580.337425 234.66689 
L 580.934429 234.88023 
L 581.591135 235.360744 
L 582.426941 236.274278 
L 585.591067 240.101824 
L 586.247772 240.42783 
L 586.844777 240.499198 
L 587.501482 240.344564 
L 588.277588 239.9077 
L 589.570104 238.850533 
L 591.241717 237.530455 
L 592.376026 236.925783 
L 593.450635 236.608324 
L 594.644644 236.501138 
L 596.137156 236.612103 
L 598.823678 237.086767 
L 602.525107 237.6745 
L 605.808634 237.954674 
L 610.107068 238.083589 
L 615.718913 238.025942 
L 620.25615 237.781642 
L 623.121773 237.421482 
L 625.27099 236.938313 
L 627.062004 236.318104 
L 628.614217 235.550783 
L 629.987328 234.626607 
L 631.241038 233.521292 
L 632.554448 232.061596 
L 636.434979 227.483881 
L 637.151385 227.106101 
L 637.80809 227.002213 
L 638.464796 227.136555 
L 639.181201 227.538023 
L 640.017008 228.282124 
L 641.50952 229.990061 
L 642.82293 231.354328 
L 643.658737 231.91471 
L 644.375143 232.123926 
L 645.031848 232.071767 
L 645.688553 231.78555 
L 646.404959 231.227281 
L 647.300466 230.236205 
L 648.792978 228.18954 
L 650.404891 226.093989 
L 651.419799 225.138873 
L 652.255606 224.644843 
L 653.031712 224.434728 
L 653.807819 224.453656 
L 654.643625 224.703523 
L 655.632265 225.25392 
L 656.826275 226.189573 
L 658.73669 228.015004 
L 662.199318 231.324631 
L 664.229134 232.927847 
L 666.139549 234.154713 
L 668.049965 235.127678 
L 670.199182 235.971274 
L 672.593171 236.664378 
L 675.279693 237.204594 
L 678.563219 237.627169 
L 683.69746 238.01828 
L 688.473498 238.436423 
L 690.921218 238.880905 
L 692.831633 239.455261 
L 694.383846 240.15154 
L 695.756957 241.008366 
L 697.249469 242.216336 
L 699.518087 244.073589 
L 700.353894 244.464723 
L 701.070299 244.562442 
L 701.727005 244.433724 
L 702.44341 244.062176 
L 703.338918 243.321056 
L 706.682144 240.224982 
L 707.33885 240.023229 
L 707.935854 240.049117 
L 708.532859 240.284739 
L 709.189564 240.778253 
L 710.025371 241.709117 
L 711.398482 243.64935 
L 712.694759 245.333583 
L 713.470865 245.985493 
L 714.06787 246.218934 
L 714.605174 246.206913 
L 715.142478 245.983976 
L 715.799184 245.449502 
L 716.63499 244.441599 
L 718.246903 242.034569 
L 719.679715 240.076351 
L 720.754323 238.966547 
L 721.769231 238.231414 
L 722.78414 237.765344 
L 723.918449 237.492139 
L 725.29156 237.396947 
L 727.381076 237.502296 
L 734.604834 238.006439 
L 739.321172 238.029677 
L 743.739007 237.841936 
L 746.843432 237.504384 
L 749.171751 237.032243 
L 751.082166 236.422571 
L 752.694079 235.682503 
L 754.126891 234.784124 
L 755.500002 233.648854 
L 756.992514 232.103149 
L 759.440233 229.528213 
L 760.27604 229.000961 
L 760.932745 228.839314 
L 761.52975 228.917905 
L 762.126755 229.223166 
L 762.78346 229.817582 
L 763.559566 230.837141 
L 764.574474 232.565943 
L 767.619199 238.020098 
L 768.455006 238.961233 
L 769.171411 239.441013 
L 769.768416 239.59608 
L 770.365421 239.531573 
L 771.022126 239.224705 
L 771.798232 238.587908 
L 772.813141 237.427008 
L 776.548599 232.822044 
L 777.563508 232.042516 
L 778.518715 231.570832 
L 779.473923 231.338907 
L 780.488831 231.321187 
L 781.682721 231.539705 
L 783.175233 232.057582 
L 785.682653 233.203973 
L 789.622885 234.963 
L 792.369107 235.918615 
L 795.29443 236.682387 
L 798.398855 237.255308 
L 802.279386 237.723729 
L 809.443444 238.527718 
L 811.652361 239.037866 
L 813.443376 239.677282 
L 814.995588 240.477142 
L 816.726902 241.652224 
L 818.428366 242.746727 
L 819.264172 243.028142 
L 819.920878 243.038151 
L 820.577583 242.822063 
L 821.234288 242.366782 
L 822.010394 241.539657 
L 823.025303 240.090401 
L 826.010327 235.565954 
L 826.786433 234.899045 
L 827.383438 234.648653 
L 827.920742 234.637311 
L 828.458046 234.831803 
L 829.055051 235.277828 
L 829.831157 236.168761 
L 830.965466 237.87935 
L 832.63708 240.36717 
L 833.413186 241.14359 
L 834.075861 241.509077 
L 834.672866 241.589078 
L 835.269871 241.448419 
L 835.986276 241.041218 
L 837.060885 240.129928 
L 839.269803 238.205736 
L 840.404112 237.5404 
L 841.538421 237.141609 
L 842.792131 236.952751 
L 844.404044 236.956786 
L 851.4487 237.250725 
L 853.478517 236.99468 
L 855.329232 236.540198 
L 857.000845 235.898956 
L 858.493357 235.083388 
L 859.866468 234.074813 
L 861.35898 232.677318 
L 864.045501 230.072393 
L 864.821608 229.65196 
L 865.478313 229.543879 
L 866.075318 229.679 
L 866.672322 230.052924 
L 867.329028 230.742561 
L 868.105134 231.90974 
L 869.060342 233.774685 
L 870.911056 238.024697 
L 872.284167 240.916405 
L 873.239375 242.445015 
L 874.015481 243.292602 
L 874.672187 243.707856 
L 875.269191 243.844267 
L 875.866196 243.762272 
L 876.522901 243.444487 
L 877.299008 242.812667 
L 878.373616 241.616399 
L 882.373548 236.837152 
L 883.567558 235.88799 
L 884.701867 235.263926 
L 885.836176 234.887526 
L 887.089886 234.70971 
L 888.582398 234.738555 
L 890.552514 235.024918 
L 894.074842 235.807794 
L 898.910581 236.806116 
L 902.791112 237.371948 
L 906.970145 237.742963 
L 912.283488 237.974874 
L 920.880357 238.09781 
L 941.417322 238.131091 
L 983.62556 238.132013 
L 996.16266 238.132013 
L 996.16266 238.132013 
" style="fill:none;stroke:#008000;stroke-dasharray:9.6,2.4,1.5,2.4;stroke-dashoffset:0;stroke-width:1.5;"/>
   </g>
   <g id="patch_3">
    <path d="M 144 256.32 
L 144 34.56 
" style="fill:none;stroke:#000000;stroke-linecap:square;stroke-linejoin:miter;stroke-width:0.8;"/>
   </g>
   <g id="patch_4">
    <path d="M 1036.8 256.32 
L 1036.8 34.56 
" style="fill:none;stroke:#000000;stroke-linecap:square;stroke-linejoin:miter;stroke-width:0.8;"/>
   </g>
   <g id="patch_5">
    <path d="M 144 256.32 
L 1036.8 256.32 
" style="fill:none;stroke:#000000;stroke-linecap:square;stroke-linejoin:miter;stroke-width:0.8;"/>
   </g>
   <g id="patch_6">
    <path d="M 144 34.56 
L 1036.8 34.56 
" style="fill:none;stroke:#000000;stroke-linecap:square;stroke-linejoin:miter;stroke-width:0.8;"/>
   </g>
   <g id="text_19">
    <!-- In  RMSE: 0.0 -->
    <g transform="translate(184.581818 202.727788)scale(0.1 -0.1)">
     <defs>
      <path d="M 9.8125 72.90625 
L 50.296875 72.90625 
L 50.296875 64.59375 
L 35.015625 64.59375 
L 35.015625 8.296875 
L 50.296875 8.296875 
L 50.296875 0 
L 9.8125 0 
L 9.8125 8.296875 
L 25.09375 8.296875 
L 25.09375 64.59375 
L 9.8125 64.59375 
z
" id="DejaVuSansMono-73"/>
      <path d="M 51.3125 33.890625 
L 51.3125 0 
L 42.28125 0 
L 42.28125 33.890625 
Q 42.28125 41.265625 39.6875 44.71875 
Q 37.109375 48.1875 31.59375 48.1875 
Q 25.296875 48.1875 21.890625 43.71875 
Q 18.5 39.265625 18.5 30.90625 
L 18.5 0 
L 9.515625 0 
L 9.515625 54.6875 
L 18.5 54.6875 
L 18.5 46.484375 
Q 20.90625 51.171875 25 53.578125 
Q 29.109375 56 34.71875 56 
Q 43.0625 56 47.1875 50.5 
Q 51.3125 45.015625 51.3125 33.890625 
z
" id="DejaVuSansMono-110"/>
      <path id="DejaVuSansMono-32"/>
      <path d="M 37.109375 34.421875 
Q 40.921875 33.453125 43.609375 30.734375 
Q 46.296875 28.03125 50.296875 19.921875 
L 60.203125 0 
L 49.609375 0 
L 40.921875 18.40625 
Q 37.15625 26.265625 34.15625 28.53125 
Q 31.15625 30.8125 26.3125 30.8125 
L 16.890625 30.8125 
L 16.890625 0 
L 6.984375 0 
L 6.984375 72.90625 
L 27.296875 72.90625 
Q 39.3125 72.90625 45.703125 67.484375 
Q 52.09375 62.0625 52.09375 51.8125 
Q 52.09375 44.578125 48.15625 40.015625 
Q 44.234375 35.453125 37.109375 34.421875 
z
M 16.890625 64.796875 
L 16.890625 38.921875 
L 27.6875 38.921875 
Q 34.765625 38.921875 38.234375 42.09375 
Q 41.703125 45.265625 41.703125 51.8125 
Q 41.703125 58.109375 38.015625 61.453125 
Q 34.328125 64.796875 27.296875 64.796875 
z
" id="DejaVuSansMono-82"/>
      <path d="M 4.203125 72.90625 
L 17.390625 72.90625 
L 29.984375 35.796875 
L 42.671875 72.90625 
L 55.90625 72.90625 
L 55.90625 0 
L 46.78125 0 
L 46.78125 64.40625 
L 33.796875 25.984375 
L 26.3125 25.984375 
L 13.28125 64.40625 
L 13.28125 0 
L 4.203125 0 
z
" id="DejaVuSansMono-77"/>
      <path d="M 49.421875 70.40625 
L 49.421875 60.40625 
Q 44.921875 63.28125 40.40625 64.75 
Q 35.890625 66.21875 31.296875 66.21875 
Q 24.3125 66.21875 20.265625 62.96875 
Q 16.21875 59.71875 16.21875 54.203125 
Q 16.21875 49.359375 18.875 46.8125 
Q 21.53125 44.28125 28.8125 42.578125 
L 33.984375 41.40625 
Q 44.234375 39.015625 48.921875 33.890625 
Q 53.609375 28.765625 53.609375 19.921875 
Q 53.609375 9.515625 47.15625 4.046875 
Q 40.71875 -1.421875 28.421875 -1.421875 
Q 23.296875 -1.421875 18.109375 -0.3125 
Q 12.9375 0.78125 7.71875 2.984375 
L 7.71875 13.484375 
Q 13.328125 9.90625 18.328125 8.25 
Q 23.34375 6.59375 28.421875 6.59375 
Q 35.890625 6.59375 40.03125 9.9375 
Q 44.1875 13.28125 44.1875 19.28125 
Q 44.1875 24.75 41.328125 27.625 
Q 38.484375 30.515625 31.390625 32.078125 
L 26.125 33.296875 
Q 15.96875 35.59375 11.375 40.234375 
Q 6.78125 44.875 6.78125 52.6875 
Q 6.78125 62.453125 13.34375 68.328125 
Q 19.921875 74.21875 30.8125 74.21875 
Q 35.015625 74.21875 39.640625 73.265625 
Q 44.28125 72.3125 49.421875 70.40625 
z
" id="DejaVuSansMono-83"/>
      <path d="M 9.625 72.90625 
L 52.875 72.90625 
L 52.875 64.59375 
L 19.484375 64.59375 
L 19.484375 43.015625 
L 51.421875 43.015625 
L 51.421875 34.71875 
L 19.484375 34.71875 
L 19.484375 8.296875 
L 53.8125 8.296875 
L 53.8125 0 
L 9.625 0 
z
" id="DejaVuSansMono-69"/>
      <path d="M 23.875 51.90625 
L 36.1875 51.90625 
L 36.1875 37.109375 
L 23.875 37.109375 
z
M 23.875 14.890625 
L 36.1875 14.890625 
L 36.1875 0 
L 23.875 0 
z
" id="DejaVuSansMono-58"/>
      <path d="M 23.578125 36.625 
Q 23.578125 39.3125 25.453125 41.265625 
Q 27.34375 43.21875 29.984375 43.21875 
Q 32.71875 43.21875 34.671875 41.265625 
Q 36.625 39.3125 36.625 36.625 
Q 36.625 33.890625 34.6875 31.984375 
Q 32.765625 30.078125 29.984375 30.078125 
Q 27.25 30.078125 25.40625 31.9375 
Q 23.578125 33.796875 23.578125 36.625 
z
M 30.078125 66.40625 
Q 23.1875 66.40625 19.796875 58.984375 
Q 16.40625 51.5625 16.40625 36.375 
Q 16.40625 21.234375 19.796875 13.8125 
Q 23.1875 6.390625 30.078125 6.390625 
Q 37.015625 6.390625 40.40625 13.8125 
Q 43.796875 21.234375 43.796875 36.375 
Q 43.796875 51.5625 40.40625 58.984375 
Q 37.015625 66.40625 30.078125 66.40625 
z
M 30.078125 74.21875 
Q 41.75 74.21875 47.734375 64.640625 
Q 53.71875 55.078125 53.71875 36.375 
Q 53.71875 17.71875 47.734375 8.140625 
Q 41.75 -1.421875 30.078125 -1.421875 
Q 18.40625 -1.421875 12.453125 8.140625 
Q 6.5 17.71875 6.5 36.375 
Q 6.5 55.078125 12.453125 64.640625 
Q 18.40625 74.21875 30.078125 74.21875 
z
" id="DejaVuSansMono-48"/>
      <path d="M 23.875 14.890625 
L 36.1875 14.890625 
L 36.1875 0 
L 23.875 0 
z
" id="DejaVuSansMono-46"/>
     </defs>
     <use xlink:href="#DejaVuSansMono-73"/>
     <use x="60.205078" xlink:href="#DejaVuSansMono-110"/>
     <use x="120.410156" xlink:href="#DejaVuSansMono-32"/>
     <use x="180.615234" xlink:href="#DejaVuSansMono-32"/>
     <use x="240.820312" xlink:href="#DejaVuSansMono-82"/>
     <use x="301.025391" xlink:href="#DejaVuSansMono-77"/>
     <use x="361.230469" xlink:href="#DejaVuSansMono-83"/>
     <use x="421.435547" xlink:href="#DejaVuSansMono-69"/>
     <use x="481.640625" xlink:href="#DejaVuSansMono-58"/>
     <use x="541.845703" xlink:href="#DejaVuSansMono-32"/>
     <use x="602.050781" xlink:href="#DejaVuSansMono-48"/>
     <use x="662.255859" xlink:href="#DejaVuSansMono-46"/>
     <use x="722.460938" xlink:href="#DejaVuSansMono-48"/>
    </g>
    <!-- Out RMSE: 0.01771 -->
    <g transform="translate(184.581818 213.98935)scale(0.1 -0.1)">
     <defs>
      <path d="M 44.1875 36.375 
Q 44.1875 52.4375 40.890625 59.328125 
Q 37.59375 66.21875 30.078125 66.21875 
Q 22.609375 66.21875 19.3125 59.328125 
Q 16.015625 52.4375 16.015625 36.375 
Q 16.015625 20.359375 19.3125 13.46875 
Q 22.609375 6.59375 30.078125 6.59375 
Q 37.59375 6.59375 40.890625 13.453125 
Q 44.1875 20.3125 44.1875 36.375 
z
M 54.5 36.375 
Q 54.5 17.328125 48.46875 7.953125 
Q 42.4375 -1.421875 30.078125 -1.421875 
Q 17.71875 -1.421875 11.71875 7.90625 
Q 5.71875 17.234375 5.71875 36.375 
Q 5.71875 55.46875 11.75 64.84375 
Q 17.78125 74.21875 30.078125 74.21875 
Q 42.4375 74.21875 48.46875 64.84375 
Q 54.5 55.46875 54.5 36.375 
z
" id="DejaVuSansMono-79"/>
      <path d="M 9.515625 20.703125 
L 9.515625 54.59375 
L 18.5 54.59375 
L 18.5 20.703125 
Q 18.5 13.328125 21.109375 9.859375 
Q 23.734375 6.390625 29.203125 6.390625 
Q 35.546875 6.390625 38.90625 10.859375 
Q 42.28125 15.328125 42.28125 23.6875 
L 42.28125 54.59375 
L 51.3125 54.59375 
L 51.3125 0 
L 42.28125 0 
L 42.28125 8.203125 
Q 39.890625 3.46875 35.765625 1.015625 
Q 31.640625 -1.421875 26.125 -1.421875 
Q 17.71875 -1.421875 13.609375 4.078125 
Q 9.515625 9.578125 9.515625 20.703125 
z
" id="DejaVuSansMono-117"/>
      <path d="M 29.984375 70.21875 
L 29.984375 54.6875 
L 50.390625 54.6875 
L 50.390625 47.703125 
L 29.984375 47.703125 
L 29.984375 18.015625 
Q 29.984375 11.96875 32.28125 9.5625 
Q 34.578125 7.171875 40.28125 7.171875 
L 50.390625 7.171875 
L 50.390625 0 
L 39.40625 0 
Q 29.296875 0 25.140625 4.046875 
Q 21 8.109375 21 18.015625 
L 21 47.703125 
L 6.390625 47.703125 
L 6.390625 54.6875 
L 21 54.6875 
L 21 70.21875 
z
" id="DejaVuSansMono-116"/>
      <path d="M 13.1875 8.296875 
L 28.515625 8.296875 
L 28.515625 64.015625 
L 12.015625 60.296875 
L 12.015625 69.28125 
L 28.421875 72.90625 
L 38.28125 72.90625 
L 38.28125 8.296875 
L 53.421875 8.296875 
L 53.421875 0 
L 13.1875 0 
z
" id="DejaVuSansMono-49"/>
      <path d="M 6.78125 72.90625 
L 52.6875 72.90625 
L 52.6875 68.703125 
L 26.609375 0 
L 16.3125 0 
L 41.703125 64.59375 
L 6.78125 64.59375 
z
" id="DejaVuSansMono-55"/>
     </defs>
     <use xlink:href="#DejaVuSansMono-79"/>
     <use x="60.205078" xlink:href="#DejaVuSansMono-117"/>
     <use x="120.410156" xlink:href="#DejaVuSansMono-116"/>
     <use x="180.615234" xlink:href="#DejaVuSansMono-32"/>
     <use x="240.820312" xlink:href="#DejaVuSansMono-82"/>
     <use x="301.025391" xlink:href="#DejaVuSansMono-77"/>
     <use x="361.230469" xlink:href="#DejaVuSansMono-83"/>
     <use x="421.435547" xlink:href="#DejaVuSansMono-69"/>
     <use x="481.640625" xlink:href="#DejaVuSansMono-58"/>
     <use x="541.845703" xlink:href="#DejaVuSansMono-32"/>
     <use x="602.050781" xlink:href="#DejaVuSansMono-48"/>
     <use x="662.255859" xlink:href="#DejaVuSansMono-46"/>
     <use x="722.460938" xlink:href="#DejaVuSansMono-48"/>
     <use x="782.666016" xlink:href="#DejaVuSansMono-49"/>
     <use x="842.871094" xlink:href="#DejaVuSansMono-55"/>
     <use x="903.076172" xlink:href="#DejaVuSansMono-55"/>
     <use x="963.28125" xlink:href="#DejaVuSansMono-49"/>
    </g>
   </g>
   <g id="text_20">
    <!-- ..\WaveformData\t4_traces\inv_t4_invSim_820_200Traces fitting using transfer functions -->
    <g transform="translate(325.554375 28.56)scale(0.12 -0.12)">
     <defs>
      <path d="M 8.296875 72.90625 
L 33.6875 -9.28125 
L 25.390625 -9.28125 
L 0 72.90625 
z
" id="DejaVuSans-92"/>
      <path d="M 3.328125 72.90625 
L 13.28125 72.90625 
L 28.609375 11.28125 
L 43.890625 72.90625 
L 54.984375 72.90625 
L 70.3125 11.28125 
L 85.59375 72.90625 
L 95.609375 72.90625 
L 77.296875 0 
L 64.890625 0 
L 49.515625 63.28125 
L 33.984375 0 
L 21.578125 0 
z
" id="DejaVuSans-87"/>
      <path d="M 2.984375 54.6875 
L 12.5 54.6875 
L 29.59375 8.796875 
L 46.6875 54.6875 
L 56.203125 54.6875 
L 35.6875 0 
L 23.484375 0 
z
" id="DejaVuSans-118"/>
      <path d="M 37.109375 75.984375 
L 37.109375 68.5 
L 28.515625 68.5 
Q 23.6875 68.5 21.796875 66.546875 
Q 19.921875 64.59375 19.921875 59.515625 
L 19.921875 54.6875 
L 34.71875 54.6875 
L 34.71875 47.703125 
L 19.921875 47.703125 
L 19.921875 0 
L 10.890625 0 
L 10.890625 47.703125 
L 2.296875 47.703125 
L 2.296875 54.6875 
L 10.890625 54.6875 
L 10.890625 58.5 
Q 10.890625 67.625 15.140625 71.796875 
Q 19.390625 75.984375 28.609375 75.984375 
z
" id="DejaVuSans-102"/>
      <path d="M 41.109375 46.296875 
Q 39.59375 47.171875 37.8125 47.578125 
Q 36.03125 48 33.890625 48 
Q 26.265625 48 22.1875 43.046875 
Q 18.109375 38.09375 18.109375 28.8125 
L 18.109375 0 
L 9.078125 0 
L 9.078125 54.6875 
L 18.109375 54.6875 
L 18.109375 46.1875 
Q 20.953125 51.171875 25.484375 53.578125 
Q 30.03125 56 36.53125 56 
Q 37.453125 56 38.578125 55.875 
Q 39.703125 55.765625 41.0625 55.515625 
z
" id="DejaVuSans-114"/>
      <path d="M 19.671875 64.796875 
L 19.671875 8.109375 
L 31.59375 8.109375 
Q 46.6875 8.109375 53.6875 14.9375 
Q 60.6875 21.78125 60.6875 36.53125 
Q 60.6875 51.171875 53.6875 57.984375 
Q 46.6875 64.796875 31.59375 64.796875 
z
M 9.8125 72.90625 
L 30.078125 72.90625 
Q 51.265625 72.90625 61.171875 64.09375 
Q 71.09375 55.28125 71.09375 36.53125 
Q 71.09375 17.671875 61.125 8.828125 
Q 51.171875 0 30.078125 0 
L 9.8125 0 
z
" id="DejaVuSans-68"/>
      <path d="M 50.984375 -16.609375 
L 50.984375 -23.578125 
L -0.984375 -23.578125 
L -0.984375 -16.609375 
z
" id="DejaVuSans-95"/>
      <path d="M 48.78125 52.59375 
L 48.78125 44.1875 
Q 44.96875 46.296875 41.140625 47.34375 
Q 37.3125 48.390625 33.40625 48.390625 
Q 24.65625 48.390625 19.8125 42.84375 
Q 14.984375 37.3125 14.984375 27.296875 
Q 14.984375 17.28125 19.8125 11.734375 
Q 24.65625 6.203125 33.40625 6.203125 
Q 37.3125 6.203125 41.140625 7.25 
Q 44.96875 8.296875 48.78125 10.40625 
L 48.78125 2.09375 
Q 45.015625 0.34375 40.984375 -0.53125 
Q 36.96875 -1.421875 32.421875 -1.421875 
Q 20.0625 -1.421875 12.78125 6.34375 
Q 5.515625 14.109375 5.515625 27.296875 
Q 5.515625 40.671875 12.859375 48.328125 
Q 20.21875 56 33.015625 56 
Q 37.15625 56 41.109375 55.140625 
Q 45.0625 54.296875 48.78125 52.59375 
z
" id="DejaVuSans-99"/>
      <path d="M 54.890625 33.015625 
L 54.890625 0 
L 45.90625 0 
L 45.90625 32.71875 
Q 45.90625 40.484375 42.875 44.328125 
Q 39.84375 48.1875 33.796875 48.1875 
Q 26.515625 48.1875 22.3125 43.546875 
Q 18.109375 38.921875 18.109375 30.90625 
L 18.109375 0 
L 9.078125 0 
L 9.078125 54.6875 
L 18.109375 54.6875 
L 18.109375 46.1875 
Q 21.34375 51.125 25.703125 53.5625 
Q 30.078125 56 35.796875 56 
Q 45.21875 56 50.046875 50.171875 
Q 54.890625 44.34375 54.890625 33.015625 
z
" id="DejaVuSans-110"/>
      <path d="M 53.515625 70.515625 
L 53.515625 60.890625 
Q 47.90625 63.578125 42.921875 64.890625 
Q 37.9375 66.21875 33.296875 66.21875 
Q 25.25 66.21875 20.875 63.09375 
Q 16.5 59.96875 16.5 54.203125 
Q 16.5 49.359375 19.40625 46.890625 
Q 22.3125 44.4375 30.421875 42.921875 
L 36.375 41.703125 
Q 47.40625 39.59375 52.65625 34.296875 
Q 57.90625 29 57.90625 20.125 
Q 57.90625 9.515625 50.796875 4.046875 
Q 43.703125 -1.421875 29.984375 -1.421875 
Q 24.8125 -1.421875 18.96875 -0.25 
Q 13.140625 0.921875 6.890625 3.21875 
L 6.890625 13.375 
Q 12.890625 10.015625 18.65625 8.296875 
Q 24.421875 6.59375 29.984375 6.59375 
Q 38.421875 6.59375 43.015625 9.90625 
Q 47.609375 13.234375 47.609375 19.390625 
Q 47.609375 24.75 44.3125 27.78125 
Q 41.015625 30.8125 33.5 32.328125 
L 27.484375 33.5 
Q 16.453125 35.6875 11.515625 40.375 
Q 6.59375 45.0625 6.59375 53.421875 
Q 6.59375 63.09375 13.40625 68.65625 
Q 20.21875 74.21875 32.171875 74.21875 
Q 37.3125 74.21875 42.625 73.28125 
Q 47.953125 72.359375 53.515625 70.515625 
z
" id="DejaVuSans-83"/>
      <path d="M 8.5 21.578125 
L 8.5 54.6875 
L 17.484375 54.6875 
L 17.484375 21.921875 
Q 17.484375 14.15625 20.5 10.265625 
Q 23.53125 6.390625 29.59375 6.390625 
Q 36.859375 6.390625 41.078125 11.03125 
Q 45.3125 15.671875 45.3125 23.6875 
L 45.3125 54.6875 
L 54.296875 54.6875 
L 54.296875 0 
L 45.3125 0 
L 45.3125 8.40625 
Q 42.046875 3.421875 37.71875 1 
Q 33.40625 -1.421875 27.6875 -1.421875 
Q 18.265625 -1.421875 13.375 4.4375 
Q 8.5 10.296875 8.5 21.578125 
z
M 31.109375 56 
z
" id="DejaVuSans-117"/>
     </defs>
     <use xlink:href="#DejaVuSans-46"/>
     <use x="31.787109" xlink:href="#DejaVuSans-46"/>
     <use x="63.574219" xlink:href="#DejaVuSans-92"/>
     <use x="97.265625" xlink:href="#DejaVuSans-87"/>
     <use x="189.767578" xlink:href="#DejaVuSans-97"/>
     <use x="251.046875" xlink:href="#DejaVuSans-118"/>
     <use x="310.226562" xlink:href="#DejaVuSans-101"/>
     <use x="371.75" xlink:href="#DejaVuSans-102"/>
     <use x="406.955078" xlink:href="#DejaVuSans-111"/>
     <use x="468.136719" xlink:href="#DejaVuSans-114"/>
     <use x="507.5" xlink:href="#DejaVuSans-109"/>
     <use x="604.912109" xlink:href="#DejaVuSans-68"/>
     <use x="681.914062" xlink:href="#DejaVuSans-97"/>
     <use x="743.193359" xlink:href="#DejaVuSans-116"/>
     <use x="782.402344" xlink:href="#DejaVuSans-97"/>
     <use x="843.681641" xlink:href="#DejaVuSans-92"/>
     <use x="877.373047" xlink:href="#DejaVuSans-116"/>
     <use x="916.582031" xlink:href="#DejaVuSans-52"/>
     <use x="980.205078" xlink:href="#DejaVuSans-95"/>
     <use x="1030.205078" xlink:href="#DejaVuSans-116"/>
     <use x="1069.414062" xlink:href="#DejaVuSans-114"/>
     <use x="1110.527344" xlink:href="#DejaVuSans-97"/>
     <use x="1171.806641" xlink:href="#DejaVuSans-99"/>
     <use x="1226.787109" xlink:href="#DejaVuSans-101"/>
     <use x="1288.310547" xlink:href="#DejaVuSans-115"/>
     <use x="1340.410156" xlink:href="#DejaVuSans-92"/>
     <use x="1374.101562" xlink:href="#DejaVuSans-105"/>
     <use x="1401.884766" xlink:href="#DejaVuSans-110"/>
     <use x="1465.263672" xlink:href="#DejaVuSans-118"/>
     <use x="1524.443359" xlink:href="#DejaVuSans-95"/>
     <use x="1574.443359" xlink:href="#DejaVuSans-116"/>
     <use x="1613.652344" xlink:href="#DejaVuSans-52"/>
     <use x="1677.275391" xlink:href="#DejaVuSans-95"/>
     <use x="1727.275391" xlink:href="#DejaVuSans-105"/>
     <use x="1755.058594" xlink:href="#DejaVuSans-110"/>
     <use x="1818.4375" xlink:href="#DejaVuSans-118"/>
     <use x="1877.617188" xlink:href="#DejaVuSans-83"/>
     <use x="1941.09375" xlink:href="#DejaVuSans-105"/>
     <use x="1968.876953" xlink:href="#DejaVuSans-109"/>
     <use x="2066.289062" xlink:href="#DejaVuSans-95"/>
     <use x="2116.289062" xlink:href="#DejaVuSans-56"/>
     <use x="2179.912109" xlink:href="#DejaVuSans-50"/>
     <use x="2243.535156" xlink:href="#DejaVuSans-48"/>
     <use x="2307.158203" xlink:href="#DejaVuSans-95"/>
     <use x="2357.158203" xlink:href="#DejaVuSans-50"/>
     <use x="2420.78125" xlink:href="#DejaVuSans-48"/>
     <use x="2484.404297" xlink:href="#DejaVuSans-48"/>
     <use x="2548.027344" xlink:href="#DejaVuSans-84"/>
     <use x="2594.361328" xlink:href="#DejaVuSans-114"/>
     <use x="2635.474609" xlink:href="#DejaVuSans-97"/>
     <use x="2696.753906" xlink:href="#DejaVuSans-99"/>
     <use x="2751.734375" xlink:href="#DejaVuSans-101"/>
     <use x="2813.257812" xlink:href="#DejaVuSans-115"/>
     <use x="2865.357422" xlink:href="#DejaVuSans-32"/>
     <use x="2897.144531" xlink:href="#DejaVuSans-102"/>
     <use x="2932.349609" xlink:href="#DejaVuSans-105"/>
     <use x="2960.132812" xlink:href="#DejaVuSans-116"/>
     <use x="2999.341797" xlink:href="#DejaVuSans-116"/>
     <use x="3038.550781" xlink:href="#DejaVuSans-105"/>
     <use x="3066.333984" xlink:href="#DejaVuSans-110"/>
     <use x="3129.712891" xlink:href="#DejaVuSans-103"/>
     <use x="3193.189453" xlink:href="#DejaVuSans-32"/>
     <use x="3224.976562" xlink:href="#DejaVuSans-117"/>
     <use x="3288.355469" xlink:href="#DejaVuSans-115"/>
     <use x="3340.455078" xlink:href="#DejaVuSans-105"/>
     <use x="3368.238281" xlink:href="#DejaVuSans-110"/>
     <use x="3431.617188" xlink:href="#DejaVuSans-103"/>
     <use x="3495.09375" xlink:href="#DejaVuSans-32"/>
     <use x="3526.880859" xlink:href="#DejaVuSans-116"/>
     <use x="3566.089844" xlink:href="#DejaVuSans-114"/>
     <use x="3607.203125" xlink:href="#DejaVuSans-97"/>
     <use x="3668.482422" xlink:href="#DejaVuSans-110"/>
     <use x="3731.861328" xlink:href="#DejaVuSans-115"/>
     <use x="3783.960938" xlink:href="#DejaVuSans-102"/>
     <use x="3819.166016" xlink:href="#DejaVuSans-101"/>
     <use x="3880.689453" xlink:href="#DejaVuSans-114"/>
     <use x="3921.802734" xlink:href="#DejaVuSans-32"/>
     <use x="3953.589844" xlink:href="#DejaVuSans-102"/>
     <use x="3988.794922" xlink:href="#DejaVuSans-117"/>
     <use x="4052.173828" xlink:href="#DejaVuSans-110"/>
     <use x="4115.552734" xlink:href="#DejaVuSans-99"/>
     <use x="4170.533203" xlink:href="#DejaVuSans-116"/>
     <use x="4209.742188" xlink:href="#DejaVuSans-105"/>
     <use x="4237.525391" xlink:href="#DejaVuSans-111"/>
     <use x="4298.707031" xlink:href="#DejaVuSans-110"/>
     <use x="4362.085938" xlink:href="#DejaVuSans-115"/>
    </g>
   </g>
   <g id="legend_1">
    <g id="patch_7">
     <path d="M 151 176.29625 
L 368.865625 176.29625 
Q 370.865625 176.29625 370.865625 174.29625 
L 370.865625 116.58375 
Q 370.865625 114.58375 368.865625 114.58375 
L 151 114.58375 
Q 149 114.58375 149 116.58375 
L 149 174.29625 
Q 149 176.29625 151 176.29625 
z
" style="fill:#ffffff;opacity:0.8;stroke:#cccccc;stroke-linejoin:miter;"/>
    </g>
    <g id="line2d_20">
     <path d="M 153 122.682187 
L 173 122.682187 
" style="fill:none;stroke:#ff0000;stroke-linecap:square;stroke-width:1.5;"/>
    </g>
    <g id="line2d_21"/>
    <g id="text_21">
     <!-- Input -->
     <g transform="translate(181 126.182187)scale(0.1 -0.1)">
      <defs>
       <path d="M 9.8125 72.90625 
L 19.671875 72.90625 
L 19.671875 0 
L 9.8125 0 
z
" id="DejaVuSans-73"/>
       <path d="M 18.109375 8.203125 
L 18.109375 -20.796875 
L 9.078125 -20.796875 
L 9.078125 54.6875 
L 18.109375 54.6875 
L 18.109375 46.390625 
Q 20.953125 51.265625 25.265625 53.625 
Q 29.59375 56 35.59375 56 
Q 45.5625 56 51.78125 48.09375 
Q 58.015625 40.1875 58.015625 27.296875 
Q 58.015625 14.40625 51.78125 6.484375 
Q 45.5625 -1.421875 35.59375 -1.421875 
Q 29.59375 -1.421875 25.265625 0.953125 
Q 20.953125 3.328125 18.109375 8.203125 
z
M 48.6875 27.296875 
Q 48.6875 37.203125 44.609375 42.84375 
Q 40.53125 48.484375 33.40625 48.484375 
Q 26.265625 48.484375 22.1875 42.84375 
Q 18.109375 37.203125 18.109375 27.296875 
Q 18.109375 17.390625 22.1875 11.75 
Q 26.265625 6.109375 33.40625 6.109375 
Q 40.53125 6.109375 44.609375 11.75 
Q 48.6875 17.390625 48.6875 27.296875 
z
" id="DejaVuSans-112"/>
      </defs>
      <use xlink:href="#DejaVuSans-73"/>
      <use x="29.492188" xlink:href="#DejaVuSans-110"/>
      <use x="92.871094" xlink:href="#DejaVuSans-112"/>
      <use x="156.347656" xlink:href="#DejaVuSans-117"/>
      <use x="219.726562" xlink:href="#DejaVuSans-116"/>
     </g>
    </g>
    <g id="line2d_22">
     <path d="M 153 137.360312 
L 173 137.360312 
" style="fill:none;stroke:#008000;stroke-linecap:square;stroke-width:1.5;"/>
    </g>
    <g id="line2d_23"/>
    <g id="text_22">
     <!-- Output -->
     <g transform="translate(181 140.860312)scale(0.1 -0.1)">
      <defs>
       <path d="M 39.40625 66.21875 
Q 28.65625 66.21875 22.328125 58.203125 
Q 16.015625 50.203125 16.015625 36.375 
Q 16.015625 22.609375 22.328125 14.59375 
Q 28.65625 6.59375 39.40625 6.59375 
Q 50.140625 6.59375 56.421875 14.59375 
Q 62.703125 22.609375 62.703125 36.375 
Q 62.703125 50.203125 56.421875 58.203125 
Q 50.140625 66.21875 39.40625 66.21875 
z
M 39.40625 74.21875 
Q 54.734375 74.21875 63.90625 63.9375 
Q 73.09375 53.65625 73.09375 36.375 
Q 73.09375 19.140625 63.90625 8.859375 
Q 54.734375 -1.421875 39.40625 -1.421875 
Q 24.03125 -1.421875 14.8125 8.828125 
Q 5.609375 19.09375 5.609375 36.375 
Q 5.609375 53.65625 14.8125 63.9375 
Q 24.03125 74.21875 39.40625 74.21875 
z
" id="DejaVuSans-79"/>
      </defs>
      <use xlink:href="#DejaVuSans-79"/>
      <use x="78.710938" xlink:href="#DejaVuSans-117"/>
      <use x="142.089844" xlink:href="#DejaVuSans-116"/>
      <use x="181.298828" xlink:href="#DejaVuSans-112"/>
      <use x="244.775391" xlink:href="#DejaVuSans-117"/>
      <use x="308.154297" xlink:href="#DejaVuSans-116"/>
     </g>
    </g>
    <g id="line2d_24">
     <path d="M 153 152.038437 
L 173 152.038437 
" style="fill:none;stroke:#008000;stroke-dasharray:5.55,2.4;stroke-dashoffset:0;stroke-width:1.5;"/>
    </g>
    <g id="line2d_25"/>
    <g id="text_23">
     <!-- Output fitting from transfer functions -->
     <g transform="translate(181 155.538437)scale(0.1 -0.1)">
      <use xlink:href="#DejaVuSans-79"/>
      <use x="78.710938" xlink:href="#DejaVuSans-117"/>
      <use x="142.089844" xlink:href="#DejaVuSans-116"/>
      <use x="181.298828" xlink:href="#DejaVuSans-112"/>
      <use x="244.775391" xlink:href="#DejaVuSans-117"/>
      <use x="308.154297" xlink:href="#DejaVuSans-116"/>
      <use x="347.363281" xlink:href="#DejaVuSans-32"/>
      <use x="379.150391" xlink:href="#DejaVuSans-102"/>
      <use x="414.355469" xlink:href="#DejaVuSans-105"/>
      <use x="442.138672" xlink:href="#DejaVuSans-116"/>
      <use x="481.347656" xlink:href="#DejaVuSans-116"/>
      <use x="520.556641" xlink:href="#DejaVuSans-105"/>
      <use x="548.339844" xlink:href="#DejaVuSans-110"/>
      <use x="611.71875" xlink:href="#DejaVuSans-103"/>
      <use x="675.195312" xlink:href="#DejaVuSans-32"/>
      <use x="706.982422" xlink:href="#DejaVuSans-102"/>
      <use x="742.1875" xlink:href="#DejaVuSans-114"/>
      <use x="781.050781" xlink:href="#DejaVuSans-111"/>
      <use x="842.232422" xlink:href="#DejaVuSans-109"/>
      <use x="939.644531" xlink:href="#DejaVuSans-32"/>
      <use x="971.431641" xlink:href="#DejaVuSans-116"/>
      <use x="1010.640625" xlink:href="#DejaVuSans-114"/>
      <use x="1051.753906" xlink:href="#DejaVuSans-97"/>
      <use x="1113.033203" xlink:href="#DejaVuSans-110"/>
      <use x="1176.412109" xlink:href="#DejaVuSans-115"/>
      <use x="1228.511719" xlink:href="#DejaVuSans-102"/>
      <use x="1263.716797" xlink:href="#DejaVuSans-101"/>
      <use x="1325.240234" xlink:href="#DejaVuSans-114"/>
      <use x="1366.353516" xlink:href="#DejaVuSans-32"/>
      <use x="1398.140625" xlink:href="#DejaVuSans-102"/>
      <use x="1433.345703" xlink:href="#DejaVuSans-117"/>
      <use x="1496.724609" xlink:href="#DejaVuSans-110"/>
      <use x="1560.103516" xlink:href="#DejaVuSans-99"/>
      <use x="1615.083984" xlink:href="#DejaVuSans-116"/>
      <use x="1654.292969" xlink:href="#DejaVuSans-105"/>
      <use x="1682.076172" xlink:href="#DejaVuSans-111"/>
      <use x="1743.257812" xlink:href="#DejaVuSans-110"/>
      <use x="1806.636719" xlink:href="#DejaVuSans-115"/>
     </g>
    </g>
    <g id="line2d_26">
     <path d="M 153 166.716563 
L 173 166.716563 
" style="fill:none;stroke:#008000;stroke-dasharray:9.6,2.4,1.5,2.4;stroke-dashoffset:0;stroke-width:1.5;"/>
    </g>
    <g id="line2d_27"/>
    <g id="text_24">
     <!-- fitting error -->
     <g transform="translate(181 170.216563)scale(0.1 -0.1)">
      <use xlink:href="#DejaVuSans-102"/>
      <use x="35.205078" xlink:href="#DejaVuSans-105"/>
      <use x="62.988281" xlink:href="#DejaVuSans-116"/>
      <use x="102.197266" xlink:href="#DejaVuSans-116"/>
      <use x="141.40625" xlink:href="#DejaVuSans-105"/>
      <use x="169.189453" xlink:href="#DejaVuSans-110"/>
      <use x="232.568359" xlink:href="#DejaVuSans-103"/>
      <use x="296.044922" xlink:href="#DejaVuSans-32"/>
      <use x="327.832031" xlink:href="#DejaVuSans-101"/>
      <use x="389.355469" xlink:href="#DejaVuSans-114"/>
      <use x="428.71875" xlink:href="#DejaVuSans-114"/>
      <use x="467.582031" xlink:href="#DejaVuSans-111"/>
      <use x="528.763672" xlink:href="#DejaVuSans-114"/>
     </g>
    </g>
   </g>
  </g>
 </g>
 <defs>
  <clipPath id="pfcc40f3f0b">
   <rect height="221.76" width="892.8" x="144" y="34.56"/>
  </clipPath>
 </defs>
</svg>
