<?xml version="1.0" encoding="utf-8" standalone="no"?>
<!DOCTYPE svg PUBLIC "-//W3C//DTD SVG 1.1//EN"
  "http://www.w3.org/Graphics/SVG/1.1/DTD/svg11.dtd">
<!-- Created with matplotlib (https://matplotlib.org/) -->
<svg height="288pt" version="1.1" viewBox="0 0 1152 288" width="1152pt" xmlns="http://www.w3.org/2000/svg" xmlns:xlink="http://www.w3.org/1999/xlink">
 <defs>
  <style type="text/css">
*{stroke-linecap:butt;stroke-linejoin:round;}
  </style>
 </defs>
 <g id="figure_1">
  <g id="patch_1">
   <path d="M 0 288 
L 1152 288 
L 1152 0 
L 0 0 
z
" style="fill:#ffffff;"/>
  </g>
  <g id="axes_1">
   <g id="patch_2">
    <path d="M 144 256.32 
L 1036.8 256.32 
L 1036.8 34.56 
L 144 34.56 
z
" style="fill:#ffffff;"/>
   </g>
   <g id="matplotlib.axis_1">
    <g id="xtick_1">
     <g id="line2d_1">
      <defs>
       <path d="M 0 0 
L 0 3.5 
" id="mab6f4e1492" style="stroke:#000000;stroke-width:0.8;"/>
      </defs>
      <g>
       <use style="stroke:#000000;stroke-width:0.8;" x="184.581818" xlink:href="#mab6f4e1492" y="256.32"/>
      </g>
     </g>
     <g id="text_1">
      <!-- 0.0 -->
      <defs>
       <path d="M 31.78125 66.40625 
Q 24.171875 66.40625 20.328125 58.90625 
Q 16.5 51.421875 16.5 36.375 
Q 16.5 21.390625 20.328125 13.890625 
Q 24.171875 6.390625 31.78125 6.390625 
Q 39.453125 6.390625 43.28125 13.890625 
Q 47.125 21.390625 47.125 36.375 
Q 47.125 51.421875 43.28125 58.90625 
Q 39.453125 66.40625 31.78125 66.40625 
z
M 31.78125 74.21875 
Q 44.046875 74.21875 50.515625 64.515625 
Q 56.984375 54.828125 56.984375 36.375 
Q 56.984375 17.96875 50.515625 8.265625 
Q 44.046875 -1.421875 31.78125 -1.421875 
Q 19.53125 -1.421875 13.0625 8.265625 
Q 6.59375 17.96875 6.59375 36.375 
Q 6.59375 54.828125 13.0625 64.515625 
Q 19.53125 74.21875 31.78125 74.21875 
z
" id="DejaVuSans-48"/>
       <path d="M 10.6875 12.40625 
L 21 12.40625 
L 21 0 
L 10.6875 0 
z
" id="DejaVuSans-46"/>
      </defs>
      <g transform="translate(176.630256 270.918437)scale(0.1 -0.1)">
       <use xlink:href="#DejaVuSans-48"/>
       <use x="63.623047" xlink:href="#DejaVuSans-46"/>
       <use x="95.410156" xlink:href="#DejaVuSans-48"/>
      </g>
     </g>
    </g>
    <g id="xtick_2">
     <g id="line2d_2">
      <g>
       <use style="stroke:#000000;stroke-width:0.8;" x="303.982775" xlink:href="#mab6f4e1492" y="256.32"/>
      </g>
     </g>
     <g id="text_2">
      <!-- 0.2 -->
      <defs>
       <path d="M 19.1875 8.296875 
L 53.609375 8.296875 
L 53.609375 0 
L 7.328125 0 
L 7.328125 8.296875 
Q 12.9375 14.109375 22.625 23.890625 
Q 32.328125 33.6875 34.8125 36.53125 
Q 39.546875 41.84375 41.421875 45.53125 
Q 43.3125 49.21875 43.3125 52.78125 
Q 43.3125 58.59375 39.234375 62.25 
Q 35.15625 65.921875 28.609375 65.921875 
Q 23.96875 65.921875 18.8125 64.3125 
Q 13.671875 62.703125 7.8125 59.421875 
L 7.8125 69.390625 
Q 13.765625 71.78125 18.9375 73 
Q 24.125 74.21875 28.421875 74.21875 
Q 39.75 74.21875 46.484375 68.546875 
Q 53.21875 62.890625 53.21875 53.421875 
Q 53.21875 48.921875 51.53125 44.890625 
Q 49.859375 40.875 45.40625 35.40625 
Q 44.1875 33.984375 37.640625 27.21875 
Q 31.109375 20.453125 19.1875 8.296875 
z
" id="DejaVuSans-50"/>
      </defs>
      <g transform="translate(296.031213 270.918437)scale(0.1 -0.1)">
       <use xlink:href="#DejaVuSans-48"/>
       <use x="63.623047" xlink:href="#DejaVuSans-46"/>
       <use x="95.410156" xlink:href="#DejaVuSans-50"/>
      </g>
     </g>
    </g>
    <g id="xtick_3">
     <g id="line2d_3">
      <g>
       <use style="stroke:#000000;stroke-width:0.8;" x="423.383732" xlink:href="#mab6f4e1492" y="256.32"/>
      </g>
     </g>
     <g id="text_3">
      <!-- 0.4 -->
      <defs>
       <path d="M 37.796875 64.3125 
L 12.890625 25.390625 
L 37.796875 25.390625 
z
M 35.203125 72.90625 
L 47.609375 72.90625 
L 47.609375 25.390625 
L 58.015625 25.390625 
L 58.015625 17.1875 
L 47.609375 17.1875 
L 47.609375 0 
L 37.796875 0 
L 37.796875 17.1875 
L 4.890625 17.1875 
L 4.890625 26.703125 
z
" id="DejaVuSans-52"/>
      </defs>
      <g transform="translate(415.43217 270.918437)scale(0.1 -0.1)">
       <use xlink:href="#DejaVuSans-48"/>
       <use x="63.623047" xlink:href="#DejaVuSans-46"/>
       <use x="95.410156" xlink:href="#DejaVuSans-52"/>
      </g>
     </g>
    </g>
    <g id="xtick_4">
     <g id="line2d_4">
      <g>
       <use style="stroke:#000000;stroke-width:0.8;" x="542.784689" xlink:href="#mab6f4e1492" y="256.32"/>
      </g>
     </g>
     <g id="text_4">
      <!-- 0.6 -->
      <defs>
       <path d="M 33.015625 40.375 
Q 26.375 40.375 22.484375 35.828125 
Q 18.609375 31.296875 18.609375 23.390625 
Q 18.609375 15.53125 22.484375 10.953125 
Q 26.375 6.390625 33.015625 6.390625 
Q 39.65625 6.390625 43.53125 10.953125 
Q 47.40625 15.53125 47.40625 23.390625 
Q 47.40625 31.296875 43.53125 35.828125 
Q 39.65625 40.375 33.015625 40.375 
z
M 52.59375 71.296875 
L 52.59375 62.3125 
Q 48.875 64.0625 45.09375 64.984375 
Q 41.3125 65.921875 37.59375 65.921875 
Q 27.828125 65.921875 22.671875 59.328125 
Q 17.53125 52.734375 16.796875 39.40625 
Q 19.671875 43.65625 24.015625 45.921875 
Q 28.375 48.1875 33.59375 48.1875 
Q 44.578125 48.1875 50.953125 41.515625 
Q 57.328125 34.859375 57.328125 23.390625 
Q 57.328125 12.15625 50.6875 5.359375 
Q 44.046875 -1.421875 33.015625 -1.421875 
Q 20.359375 -1.421875 13.671875 8.265625 
Q 6.984375 17.96875 6.984375 36.375 
Q 6.984375 53.65625 15.1875 63.9375 
Q 23.390625 74.21875 37.203125 74.21875 
Q 40.921875 74.21875 44.703125 73.484375 
Q 48.484375 72.75 52.59375 71.296875 
z
" id="DejaVuSans-54"/>
      </defs>
      <g transform="translate(534.833127 270.918437)scale(0.1 -0.1)">
       <use xlink:href="#DejaVuSans-48"/>
       <use x="63.623047" xlink:href="#DejaVuSans-46"/>
       <use x="95.410156" xlink:href="#DejaVuSans-54"/>
      </g>
     </g>
    </g>
    <g id="xtick_5">
     <g id="line2d_5">
      <g>
       <use style="stroke:#000000;stroke-width:0.8;" x="662.185646" xlink:href="#mab6f4e1492" y="256.32"/>
      </g>
     </g>
     <g id="text_5">
      <!-- 0.8 -->
      <defs>
       <path d="M 31.78125 34.625 
Q 24.75 34.625 20.71875 30.859375 
Q 16.703125 27.09375 16.703125 20.515625 
Q 16.703125 13.921875 20.71875 10.15625 
Q 24.75 6.390625 31.78125 6.390625 
Q 38.8125 6.390625 42.859375 10.171875 
Q 46.921875 13.96875 46.921875 20.515625 
Q 46.921875 27.09375 42.890625 30.859375 
Q 38.875 34.625 31.78125 34.625 
z
M 21.921875 38.8125 
Q 15.578125 40.375 12.03125 44.71875 
Q 8.5 49.078125 8.5 55.328125 
Q 8.5 64.0625 14.71875 69.140625 
Q 20.953125 74.21875 31.78125 74.21875 
Q 42.671875 74.21875 48.875 69.140625 
Q 55.078125 64.0625 55.078125 55.328125 
Q 55.078125 49.078125 51.53125 44.71875 
Q 48 40.375 41.703125 38.8125 
Q 48.828125 37.15625 52.796875 32.3125 
Q 56.78125 27.484375 56.78125 20.515625 
Q 56.78125 9.90625 50.3125 4.234375 
Q 43.84375 -1.421875 31.78125 -1.421875 
Q 19.734375 -1.421875 13.25 4.234375 
Q 6.78125 9.90625 6.78125 20.515625 
Q 6.78125 27.484375 10.78125 32.3125 
Q 14.796875 37.15625 21.921875 38.8125 
z
M 18.3125 54.390625 
Q 18.3125 48.734375 21.84375 45.5625 
Q 25.390625 42.390625 31.78125 42.390625 
Q 38.140625 42.390625 41.71875 45.5625 
Q 45.3125 48.734375 45.3125 54.390625 
Q 45.3125 60.0625 41.71875 63.234375 
Q 38.140625 66.40625 31.78125 66.40625 
Q 25.390625 66.40625 21.84375 63.234375 
Q 18.3125 60.0625 18.3125 54.390625 
z
" id="DejaVuSans-56"/>
      </defs>
      <g transform="translate(654.234084 270.918437)scale(0.1 -0.1)">
       <use xlink:href="#DejaVuSans-48"/>
       <use x="63.623047" xlink:href="#DejaVuSans-46"/>
       <use x="95.410156" xlink:href="#DejaVuSans-56"/>
      </g>
     </g>
    </g>
    <g id="xtick_6">
     <g id="line2d_6">
      <g>
       <use style="stroke:#000000;stroke-width:0.8;" x="781.586603" xlink:href="#mab6f4e1492" y="256.32"/>
      </g>
     </g>
     <g id="text_6">
      <!-- 1.0 -->
      <defs>
       <path d="M 12.40625 8.296875 
L 28.515625 8.296875 
L 28.515625 63.921875 
L 10.984375 60.40625 
L 10.984375 69.390625 
L 28.421875 72.90625 
L 38.28125 72.90625 
L 38.28125 8.296875 
L 54.390625 8.296875 
L 54.390625 0 
L 12.40625 0 
z
" id="DejaVuSans-49"/>
      </defs>
      <g transform="translate(773.635041 270.918437)scale(0.1 -0.1)">
       <use xlink:href="#DejaVuSans-49"/>
       <use x="63.623047" xlink:href="#DejaVuSans-46"/>
       <use x="95.410156" xlink:href="#DejaVuSans-48"/>
      </g>
     </g>
    </g>
    <g id="xtick_7">
     <g id="line2d_7">
      <g>
       <use style="stroke:#000000;stroke-width:0.8;" x="900.987561" xlink:href="#mab6f4e1492" y="256.32"/>
      </g>
     </g>
     <g id="text_7">
      <!-- 1.2 -->
      <g transform="translate(893.035998 270.918437)scale(0.1 -0.1)">
       <use xlink:href="#DejaVuSans-49"/>
       <use x="63.623047" xlink:href="#DejaVuSans-46"/>
       <use x="95.410156" xlink:href="#DejaVuSans-50"/>
      </g>
     </g>
    </g>
    <g id="xtick_8">
     <g id="line2d_8">
      <g>
       <use style="stroke:#000000;stroke-width:0.8;" x="1020.388518" xlink:href="#mab6f4e1492" y="256.32"/>
      </g>
     </g>
     <g id="text_8">
      <!-- 1.4 -->
      <g transform="translate(1012.436955 270.918437)scale(0.1 -0.1)">
       <use xlink:href="#DejaVuSans-49"/>
       <use x="63.623047" xlink:href="#DejaVuSans-46"/>
       <use x="95.410156" xlink:href="#DejaVuSans-52"/>
      </g>
     </g>
    </g>
    <g id="text_9">
     <!-- Time [s] -->
     <defs>
      <path d="M -0.296875 72.90625 
L 61.375 72.90625 
L 61.375 64.59375 
L 35.5 64.59375 
L 35.5 0 
L 25.59375 0 
L 25.59375 64.59375 
L -0.296875 64.59375 
z
" id="DejaVuSans-84"/>
      <path d="M 9.421875 54.6875 
L 18.40625 54.6875 
L 18.40625 0 
L 9.421875 0 
z
M 9.421875 75.984375 
L 18.40625 75.984375 
L 18.40625 64.59375 
L 9.421875 64.59375 
z
" id="DejaVuSans-105"/>
      <path d="M 52 44.1875 
Q 55.375 50.25 60.0625 53.125 
Q 64.75 56 71.09375 56 
Q 79.640625 56 84.28125 50.015625 
Q 88.921875 44.046875 88.921875 33.015625 
L 88.921875 0 
L 79.890625 0 
L 79.890625 32.71875 
Q 79.890625 40.578125 77.09375 44.375 
Q 74.3125 48.1875 68.609375 48.1875 
Q 61.625 48.1875 57.5625 43.546875 
Q 53.515625 38.921875 53.515625 30.90625 
L 53.515625 0 
L 44.484375 0 
L 44.484375 32.71875 
Q 44.484375 40.625 41.703125 44.40625 
Q 38.921875 48.1875 33.109375 48.1875 
Q 26.21875 48.1875 22.15625 43.53125 
Q 18.109375 38.875 18.109375 30.90625 
L 18.109375 0 
L 9.078125 0 
L 9.078125 54.6875 
L 18.109375 54.6875 
L 18.109375 46.1875 
Q 21.1875 51.21875 25.484375 53.609375 
Q 29.78125 56 35.6875 56 
Q 41.65625 56 45.828125 52.96875 
Q 50 49.953125 52 44.1875 
z
" id="DejaVuSans-109"/>
      <path d="M 56.203125 29.59375 
L 56.203125 25.203125 
L 14.890625 25.203125 
Q 15.484375 15.921875 20.484375 11.0625 
Q 25.484375 6.203125 34.421875 6.203125 
Q 39.59375 6.203125 44.453125 7.46875 
Q 49.3125 8.734375 54.109375 11.28125 
L 54.109375 2.78125 
Q 49.265625 0.734375 44.1875 -0.34375 
Q 39.109375 -1.421875 33.890625 -1.421875 
Q 20.796875 -1.421875 13.15625 6.1875 
Q 5.515625 13.8125 5.515625 26.8125 
Q 5.515625 40.234375 12.765625 48.109375 
Q 20.015625 56 32.328125 56 
Q 43.359375 56 49.78125 48.890625 
Q 56.203125 41.796875 56.203125 29.59375 
z
M 47.21875 32.234375 
Q 47.125 39.59375 43.09375 43.984375 
Q 39.0625 48.390625 32.421875 48.390625 
Q 24.90625 48.390625 20.390625 44.140625 
Q 15.875 39.890625 15.1875 32.171875 
z
" id="DejaVuSans-101"/>
      <path id="DejaVuSans-32"/>
      <path d="M 8.59375 75.984375 
L 29.296875 75.984375 
L 29.296875 69 
L 17.578125 69 
L 17.578125 -6.203125 
L 29.296875 -6.203125 
L 29.296875 -13.1875 
L 8.59375 -13.1875 
z
" id="DejaVuSans-91"/>
      <path d="M 44.28125 53.078125 
L 44.28125 44.578125 
Q 40.484375 46.53125 36.375 47.5 
Q 32.28125 48.484375 27.875 48.484375 
Q 21.1875 48.484375 17.84375 46.4375 
Q 14.5 44.390625 14.5 40.28125 
Q 14.5 37.15625 16.890625 35.375 
Q 19.28125 33.59375 26.515625 31.984375 
L 29.59375 31.296875 
Q 39.15625 29.25 43.1875 25.515625 
Q 47.21875 21.78125 47.21875 15.09375 
Q 47.21875 7.46875 41.1875 3.015625 
Q 35.15625 -1.421875 24.609375 -1.421875 
Q 20.21875 -1.421875 15.453125 -0.5625 
Q 10.6875 0.296875 5.421875 2 
L 5.421875 11.28125 
Q 10.40625 8.6875 15.234375 7.390625 
Q 20.0625 6.109375 24.8125 6.109375 
Q 31.15625 6.109375 34.5625 8.28125 
Q 37.984375 10.453125 37.984375 14.40625 
Q 37.984375 18.0625 35.515625 20.015625 
Q 33.0625 21.96875 24.703125 23.78125 
L 21.578125 24.515625 
Q 13.234375 26.265625 9.515625 29.90625 
Q 5.8125 33.546875 5.8125 39.890625 
Q 5.8125 47.609375 11.28125 51.796875 
Q 16.75 56 26.8125 56 
Q 31.78125 56 36.171875 55.265625 
Q 40.578125 54.546875 44.28125 53.078125 
z
" id="DejaVuSans-115"/>
      <path d="M 30.421875 75.984375 
L 30.421875 -13.1875 
L 9.71875 -13.1875 
L 9.71875 -6.203125 
L 21.390625 -6.203125 
L 21.390625 69 
L 9.71875 69 
L 9.71875 75.984375 
z
" id="DejaVuSans-93"/>
     </defs>
     <g transform="translate(569.917187 284.596563)scale(0.1 -0.1)">
      <use xlink:href="#DejaVuSans-84"/>
      <use x="61.037109" xlink:href="#DejaVuSans-105"/>
      <use x="88.820312" xlink:href="#DejaVuSans-109"/>
      <use x="186.232422" xlink:href="#DejaVuSans-101"/>
      <use x="247.755859" xlink:href="#DejaVuSans-32"/>
      <use x="279.542969" xlink:href="#DejaVuSans-91"/>
      <use x="318.556641" xlink:href="#DejaVuSans-115"/>
      <use x="370.65625" xlink:href="#DejaVuSans-93"/>
     </g>
    </g>
    <g id="text_10">
     <!-- 1e−8 -->
     <defs>
      <path d="M 10.59375 35.5 
L 73.1875 35.5 
L 73.1875 27.203125 
L 10.59375 27.203125 
z
" id="DejaVuSans-8722"/>
     </defs>
     <g transform="translate(1009.542187 283.596563)scale(0.1 -0.1)">
      <use xlink:href="#DejaVuSans-49"/>
      <use x="63.623047" xlink:href="#DejaVuSans-101"/>
      <use x="125.146484" xlink:href="#DejaVuSans-8722"/>
      <use x="208.935547" xlink:href="#DejaVuSans-56"/>
     </g>
    </g>
   </g>
   <g id="matplotlib.axis_2">
    <g id="ytick_1">
     <g id="line2d_9">
      <defs>
       <path d="M 0 0 
L -3.5 0 
" id="m4b256307f5" style="stroke:#000000;stroke-width:0.8;"/>
      </defs>
      <g>
       <use style="stroke:#000000;stroke-width:0.8;" x="144" xlink:href="#m4b256307f5" y="238.136639"/>
      </g>
     </g>
     <g id="text_11">
      <!-- 0.0 -->
      <g transform="translate(121.096875 241.935858)scale(0.1 -0.1)">
       <use xlink:href="#DejaVuSans-48"/>
       <use x="63.623047" xlink:href="#DejaVuSans-46"/>
       <use x="95.410156" xlink:href="#DejaVuSans-48"/>
      </g>
     </g>
    </g>
    <g id="ytick_2">
     <g id="line2d_10">
      <g>
       <use style="stroke:#000000;stroke-width:0.8;" x="144" xlink:href="#m4b256307f5" y="205.945653"/>
      </g>
     </g>
     <g id="text_12">
      <!-- 0.2 -->
      <g transform="translate(121.096875 209.744872)scale(0.1 -0.1)">
       <use xlink:href="#DejaVuSans-48"/>
       <use x="63.623047" xlink:href="#DejaVuSans-46"/>
       <use x="95.410156" xlink:href="#DejaVuSans-50"/>
      </g>
     </g>
    </g>
    <g id="ytick_3">
     <g id="line2d_11">
      <g>
       <use style="stroke:#000000;stroke-width:0.8;" x="144" xlink:href="#m4b256307f5" y="173.754666"/>
      </g>
     </g>
     <g id="text_13">
      <!-- 0.4 -->
      <g transform="translate(121.096875 177.553885)scale(0.1 -0.1)">
       <use xlink:href="#DejaVuSans-48"/>
       <use x="63.623047" xlink:href="#DejaVuSans-46"/>
       <use x="95.410156" xlink:href="#DejaVuSans-52"/>
      </g>
     </g>
    </g>
    <g id="ytick_4">
     <g id="line2d_12">
      <g>
       <use style="stroke:#000000;stroke-width:0.8;" x="144" xlink:href="#m4b256307f5" y="141.56368"/>
      </g>
     </g>
     <g id="text_14">
      <!-- 0.6 -->
      <g transform="translate(121.096875 145.362899)scale(0.1 -0.1)">
       <use xlink:href="#DejaVuSans-48"/>
       <use x="63.623047" xlink:href="#DejaVuSans-46"/>
       <use x="95.410156" xlink:href="#DejaVuSans-54"/>
      </g>
     </g>
    </g>
    <g id="ytick_5">
     <g id="line2d_13">
      <g>
       <use style="stroke:#000000;stroke-width:0.8;" x="144" xlink:href="#m4b256307f5" y="109.372694"/>
      </g>
     </g>
     <g id="text_15">
      <!-- 0.8 -->
      <g transform="translate(121.096875 113.171912)scale(0.1 -0.1)">
       <use xlink:href="#DejaVuSans-48"/>
       <use x="63.623047" xlink:href="#DejaVuSans-46"/>
       <use x="95.410156" xlink:href="#DejaVuSans-56"/>
      </g>
     </g>
    </g>
    <g id="ytick_6">
     <g id="line2d_14">
      <g>
       <use style="stroke:#000000;stroke-width:0.8;" x="144" xlink:href="#m4b256307f5" y="77.181707"/>
      </g>
     </g>
     <g id="text_16">
      <!-- 1.0 -->
      <g transform="translate(121.096875 80.980926)scale(0.1 -0.1)">
       <use xlink:href="#DejaVuSans-49"/>
       <use x="63.623047" xlink:href="#DejaVuSans-46"/>
       <use x="95.410156" xlink:href="#DejaVuSans-48"/>
      </g>
     </g>
    </g>
    <g id="ytick_7">
     <g id="line2d_15">
      <g>
       <use style="stroke:#000000;stroke-width:0.8;" x="144" xlink:href="#m4b256307f5" y="44.990721"/>
      </g>
     </g>
     <g id="text_17">
      <!-- 1.2 -->
      <g transform="translate(121.096875 48.78994)scale(0.1 -0.1)">
       <use xlink:href="#DejaVuSans-49"/>
       <use x="63.623047" xlink:href="#DejaVuSans-46"/>
       <use x="95.410156" xlink:href="#DejaVuSans-50"/>
      </g>
     </g>
    </g>
    <g id="text_18">
     <!-- Voltage [V] -->
     <defs>
      <path d="M 28.609375 0 
L 0.78125 72.90625 
L 11.078125 72.90625 
L 34.1875 11.53125 
L 57.328125 72.90625 
L 67.578125 72.90625 
L 39.796875 0 
z
" id="DejaVuSans-86"/>
      <path d="M 30.609375 48.390625 
Q 23.390625 48.390625 19.1875 42.75 
Q 14.984375 37.109375 14.984375 27.296875 
Q 14.984375 17.484375 19.15625 11.84375 
Q 23.34375 6.203125 30.609375 6.203125 
Q 37.796875 6.203125 41.984375 11.859375 
Q 46.1875 17.53125 46.1875 27.296875 
Q 46.1875 37.015625 41.984375 42.703125 
Q 37.796875 48.390625 30.609375 48.390625 
z
M 30.609375 56 
Q 42.328125 56 49.015625 48.375 
Q 55.71875 40.765625 55.71875 27.296875 
Q 55.71875 13.875 49.015625 6.21875 
Q 42.328125 -1.421875 30.609375 -1.421875 
Q 18.84375 -1.421875 12.171875 6.21875 
Q 5.515625 13.875 5.515625 27.296875 
Q 5.515625 40.765625 12.171875 48.375 
Q 18.84375 56 30.609375 56 
z
" id="DejaVuSans-111"/>
      <path d="M 9.421875 75.984375 
L 18.40625 75.984375 
L 18.40625 0 
L 9.421875 0 
z
" id="DejaVuSans-108"/>
      <path d="M 18.3125 70.21875 
L 18.3125 54.6875 
L 36.8125 54.6875 
L 36.8125 47.703125 
L 18.3125 47.703125 
L 18.3125 18.015625 
Q 18.3125 11.328125 20.140625 9.421875 
Q 21.96875 7.515625 27.59375 7.515625 
L 36.8125 7.515625 
L 36.8125 0 
L 27.59375 0 
Q 17.1875 0 13.234375 3.875 
Q 9.28125 7.765625 9.28125 18.015625 
L 9.28125 47.703125 
L 2.6875 47.703125 
L 2.6875 54.6875 
L 9.28125 54.6875 
L 9.28125 70.21875 
z
" id="DejaVuSans-116"/>
      <path d="M 34.28125 27.484375 
Q 23.390625 27.484375 19.1875 25 
Q 14.984375 22.515625 14.984375 16.5 
Q 14.984375 11.71875 18.140625 8.90625 
Q 21.296875 6.109375 26.703125 6.109375 
Q 34.1875 6.109375 38.703125 11.40625 
Q 43.21875 16.703125 43.21875 25.484375 
L 43.21875 27.484375 
z
M 52.203125 31.203125 
L 52.203125 0 
L 43.21875 0 
L 43.21875 8.296875 
Q 40.140625 3.328125 35.546875 0.953125 
Q 30.953125 -1.421875 24.3125 -1.421875 
Q 15.921875 -1.421875 10.953125 3.296875 
Q 6 8.015625 6 15.921875 
Q 6 25.140625 12.171875 29.828125 
Q 18.359375 34.515625 30.609375 34.515625 
L 43.21875 34.515625 
L 43.21875 35.40625 
Q 43.21875 41.609375 39.140625 45 
Q 35.0625 48.390625 27.6875 48.390625 
Q 23 48.390625 18.546875 47.265625 
Q 14.109375 46.140625 10.015625 43.890625 
L 10.015625 52.203125 
Q 14.9375 54.109375 19.578125 55.046875 
Q 24.21875 56 28.609375 56 
Q 40.484375 56 46.34375 49.84375 
Q 52.203125 43.703125 52.203125 31.203125 
z
" id="DejaVuSans-97"/>
      <path d="M 45.40625 27.984375 
Q 45.40625 37.75 41.375 43.109375 
Q 37.359375 48.484375 30.078125 48.484375 
Q 22.859375 48.484375 18.828125 43.109375 
Q 14.796875 37.75 14.796875 27.984375 
Q 14.796875 18.265625 18.828125 12.890625 
Q 22.859375 7.515625 30.078125 7.515625 
Q 37.359375 7.515625 41.375 12.890625 
Q 45.40625 18.265625 45.40625 27.984375 
z
M 54.390625 6.78125 
Q 54.390625 -7.171875 48.1875 -13.984375 
Q 42 -20.796875 29.203125 -20.796875 
Q 24.46875 -20.796875 20.265625 -20.09375 
Q 16.0625 -19.390625 12.109375 -17.921875 
L 12.109375 -9.1875 
Q 16.0625 -11.328125 19.921875 -12.34375 
Q 23.78125 -13.375 27.78125 -13.375 
Q 36.625 -13.375 41.015625 -8.765625 
Q 45.40625 -4.15625 45.40625 5.171875 
L 45.40625 9.625 
Q 42.625 4.78125 38.28125 2.390625 
Q 33.9375 0 27.875 0 
Q 17.828125 0 11.671875 7.65625 
Q 5.515625 15.328125 5.515625 27.984375 
Q 5.515625 40.671875 11.671875 48.328125 
Q 17.828125 56 27.875 56 
Q 33.9375 56 38.28125 53.609375 
Q 42.625 51.21875 45.40625 46.390625 
L 45.40625 54.6875 
L 54.390625 54.6875 
z
" id="DejaVuSans-103"/>
     </defs>
     <g transform="translate(115.017187 173.489219)rotate(-90)scale(0.1 -0.1)">
      <use xlink:href="#DejaVuSans-86"/>
      <use x="68.298828" xlink:href="#DejaVuSans-111"/>
      <use x="129.480469" xlink:href="#DejaVuSans-108"/>
      <use x="157.263672" xlink:href="#DejaVuSans-116"/>
      <use x="196.472656" xlink:href="#DejaVuSans-97"/>
      <use x="257.751953" xlink:href="#DejaVuSans-103"/>
      <use x="321.228516" xlink:href="#DejaVuSans-101"/>
      <use x="382.751953" xlink:href="#DejaVuSans-32"/>
      <use x="414.539062" xlink:href="#DejaVuSans-91"/>
      <use x="453.552734" xlink:href="#DejaVuSans-86"/>
      <use x="521.960938" xlink:href="#DejaVuSans-93"/>
     </g>
    </g>
   </g>
   <g id="line2d_16">
    <path clip-path="url(#pfc91bc2480)" d="M 184.581818 238.136625 
L 268.005953 238.247681 
L 274.059582 238.327704 
L 274.972999 238.069746 
L 275.701345 237.635551 
L 276.36402 236.975163 
L 277.014756 235.998158 
L 277.689371 234.560784 
L 278.411747 232.467464 
L 279.205763 229.440967 
L 280.08933 225.140114 
L 281.092298 219.090005 
L 282.280338 210.482377 
L 283.77882 197.883533 
L 285.999678 177.100694 
L 291.766744 122.500194 
L 293.886947 104.793655 
L 295.60035 92.270878 
L 297.122713 82.723884 
L 298.525674 75.282117 
L 299.851025 69.398571 
L 301.128615 64.692248 
L 302.436055 60.740966 
L 303.737526 57.551644 
L 305.021086 55.014833 
L 306.250916 53.052631 
L 307.450895 51.501509 
L 308.800126 50.10619 
L 310.226968 48.948924 
L 311.898581 47.912536 
L 313.582135 47.130939 
L 315.52837 46.463137 
L 317.874599 45.883055 
L 321.940202 45.228451 
L 324.465532 45.067657 
L 325.45656 45.231992 
L 326.220726 45.59398 
L 326.895341 46.180178 
L 327.546077 47.064625 
L 328.208752 48.365463 
L 328.925158 50.304326 
L 329.701264 53.095767 
L 330.578861 57.160362 
L 331.540039 62.715239 
L 332.638527 70.414196 
L 333.910148 80.964551 
L 335.43251 95.555212 
L 337.366805 116.392888 
L 340.613258 154.217426 
L 343.43709 186.108859 
L 344.959452 200.88354 
L 346.183312 210.709887 
L 347.275831 217.770078 
L 348.290739 222.947118 
L 349.263857 226.806655 
L 350.207124 229.679425 
L 351.138452 231.834484 
L 352.075749 233.463239 
L 353.036927 234.699778 
L 354.051835 235.647635 
L 355.162264 236.379013 
L 356.433884 236.945406 
L 357.998037 237.389109 
L 360.117404 237.743966 
L 363.42481 238.049387 
L 367.412802 238.214833 
L 368.547111 238.053544 
L 369.359038 237.716858 
L 370.051564 237.185069 
L 370.702299 236.396504 
L 371.359004 235.236495 
L 372.05153 233.539226 
L 372.803756 231.073605 
L 373.633592 227.545417 
L 374.56492 222.556001 
L 375.639528 215.515888 
L 376.940999 205.420135 
L 378.660373 190.199496 
L 381.842408 159.609142 
L 385.454287 125.652062 
L 387.663145 106.896853 
L 389.418339 93.809301 
L 390.958611 83.930531 
L 392.379483 76.209218 
L 393.692893 70.221211 
L 394.994364 65.290518 
L 396.271954 61.311712 
L 397.471934 58.245359 
L 398.701763 55.674104 
L 399.943533 53.567848 
L 401.167393 51.889571 
L 402.444983 50.481859 
L 403.758394 49.328617 
L 405.250906 48.302047 
L 407.00013 47.393134 
L 408.701594 46.735311 
L 411.203044 46.042561 
L 413.608973 45.572895 
L 417.226822 45.100009 
L 419.011866 45.066852 
L 419.937224 45.277221 
L 420.635719 45.65804 
L 421.328245 46.31876 
L 421.98495 47.289157 
L 422.629715 48.641822 
L 423.358061 50.721843 
L 424.146107 53.694359 
L 425.041615 58.018252 
L 426.032643 63.96441 
L 427.172922 72.237333 
L 428.474392 83.363793 
L 430.056455 98.902028 
L 432.110151 121.439179 
L 438.832425 197.009178 
L 440.121955 208.024837 
L 441.244324 215.801245 
L 442.283113 221.512779 
L 443.268171 225.739713 
L 444.217408 228.879154 
L 445.154706 231.241454 
L 446.092003 233.020144 
L 447.041241 234.359766 
L 448.032269 235.382874 
L 449.100907 236.169744 
L 450.306678 236.778731 
L 451.739489 237.245969 
L 453.566324 237.596203 
L 456.133445 237.845247 
L 460.348298 238.004413 
L 479.27335 238.293255 
L 480.156917 238.012605 
L 480.873323 237.551852 
L 481.530028 236.858617 
L 482.180763 235.834371 
L 482.862185 234.321388 
L 483.594411 232.118948 
L 484.394398 228.967589 
L 485.289905 224.483008 
L 486.316753 218.133917 
L 487.534643 209.128424 
L 489.098795 195.775329 
L 491.510695 173.016833 
L 496.537475 125.429847 
L 498.746393 106.735367 
L 500.501587 93.692271 
L 502.035889 83.892369 
L 503.43288 76.346995 
L 504.734351 70.482763 
L 506.000001 65.793502 
L 507.1761 62.246055 
L 508.316379 59.461374 
L 509.468598 57.211868 
L 510.620818 55.443617 
L 511.755127 54.100609 
L 512.847646 53.139547 
L 513.808823 52.576366 
L 514.62672 52.364227 
L 515.289395 52.437784 
L 515.88043 52.744564 
L 516.465495 53.32384 
L 517.050559 54.225349 
L 517.689354 55.627588 
L 518.39979 57.747848 
L 519.199776 60.879065 
L 520.101254 65.364235 
L 521.134072 71.723082 
L 522.322112 80.550446 
L 523.689252 92.482936 
L 525.348926 109.033706 
L 527.603992 133.951944 
L 532.762113 191.6887 
L 534.171045 204.521588 
L 535.347144 213.300489 
L 536.415783 219.677652 
L 537.418751 224.37597 
L 538.379928 227.862448 
L 539.323196 230.480166 
L 540.254523 232.43597 
L 541.197791 233.917753 
L 542.170909 235.043868 
L 543.209697 235.91053 
L 544.361916 236.581691 
L 545.717117 237.107446 
L 547.430521 237.522292 
L 549.83645 237.858907 
L 553.758772 238.157858 
L 556.00948 238.168204 
L 557.006478 237.954533 
L 557.770644 237.56431 
L 558.445259 236.964593 
L 559.095994 236.076841 
L 559.76464 234.767387 
L 560.475075 232.85813 
L 561.251182 230.094246 
L 562.110869 226.156701 
L 563.083986 220.588785 
L 564.218295 212.7267 
L 565.621257 201.336354 
L 567.573462 183.485229 
L 574.946471 114.412096 
L 576.862857 99.213814 
L 578.48074 88.083555 
L 579.949372 79.468185 
L 581.322483 72.689616 
L 582.629923 67.312112 
L 583.883633 63.044553 
L 585.161223 59.476987 
L 586.420903 56.616817 
L 587.728344 54.223579 
L 588.961159 52.408812 
L 590.262629 50.872336 
L 591.62977 49.595319 
L 593.038701 48.562311 
L 594.632704 47.662412 
L 596.459539 46.898681 
L 598.555026 46.281418 
L 600.966925 45.809981 
L 605.110138 45.363492 
L 609.008579 45.159402 
L 614.429383 44.902196 
L 619.784516 44.724179 
L 620.751664 44.965934 
L 621.462099 45.371057 
L 622.112834 45.999425 
L 622.78148 46.984309 
L 623.462065 48.422119 
L 624.184441 50.50729 
L 624.972487 53.502018 
L 625.844114 57.722095 
L 626.841112 63.706721 
L 627.975421 71.939727 
L 629.276892 83.067105 
L 630.858955 98.608688 
L 632.906681 121.086141 
L 639.664775 197.092745 
L 640.954306 208.095447 
L 642.076675 215.858771 
L 643.109493 221.529615 
L 644.094551 225.753052 
L 645.043788 228.889555 
L 645.981086 231.249437 
L 646.918383 233.026183 
L 647.867621 234.364265 
L 648.858649 235.38615 
L 649.927287 236.172051 
L 651.133237 236.780337 
L 652.566049 237.246951 
L 654.392883 237.596726 
L 656.963586 237.845783 
L 661.19038 238.005396 
L 671.387221 238.10957 
L 679.399026 238.266767 
L 684.545207 238.336697 
L 685.488474 238.091402 
L 686.22876 237.67025 
L 686.891436 237.032651 
L 687.542171 236.084367 
L 688.210816 234.697148 
L 688.927222 232.671307 
L 689.709298 229.757936 
L 690.580925 225.605152 
L 691.571953 219.738187 
L 692.742083 211.390114 
L 694.204744 199.237438 
L 696.318141 179.608436 
L 702.616542 120.124789 
L 704.670238 103.206848 
L 706.353792 91.098209 
L 707.858244 81.828444 
L 709.255235 74.558142 
L 710.592526 68.748795 
L 711.888026 64.097359 
L 713.118632 60.461387 
L 714.372342 57.429962 
L 715.596202 55.022559 
L 716.921553 52.924028 
L 718.133472 51.384495 
L 719.518523 49.982899 
L 720.981185 48.829013 
L 722.724439 47.787957 
L 724.455753 47.025835 
L 726.413929 46.40471 
L 729.375072 45.800485 
L 733.661567 45.334681 
L 742.539028 44.727881 
L 743.983779 44.798863 
L 744.915107 45.087133 
L 745.613603 45.547625 
L 746.264338 46.253251 
L 746.932983 47.338731 
L 747.613569 48.898868 
L 748.347884 51.171712 
L 749.171751 54.509274 
L 750.091138 59.241027 
L 751.117987 65.754712 
L 752.300056 74.755794 
L 753.679137 87.053009 
L 755.362691 104.18077 
L 757.649219 129.923001 
L 762.944651 190.301654 
L 764.371493 203.577475 
L 765.553562 212.606032 
L 766.622201 219.143394 
L 767.625169 223.968612 
L 768.592317 227.57385 
L 769.535584 230.264396 
L 770.466912 232.275997 
L 771.410179 233.800707 
L 772.383297 234.959593 
L 773.416115 235.846706 
L 774.554603 236.529856 
L 775.873984 237.056233 
L 777.497837 237.455208 
L 779.676905 237.747333 
L 782.978222 237.944458 
L 789.515424 238.068233 
L 799.389883 238.283107 
L 803.771898 238.339045 
L 804.733076 238.104423 
L 805.479332 237.695818 
L 806.147977 237.070045 
L 806.798713 236.142285 
L 807.467358 234.780463 
L 808.183764 232.785491 
L 808.96584 229.908546 
L 809.831497 225.82887 
L 810.816555 220.052902 
L 811.974744 211.857013 
L 813.419496 199.930429 
L 815.479162 180.881654 
L 822.093975 118.531866 
L 824.105881 102.119678 
L 825.771525 90.276791 
L 827.264037 81.195794 
L 828.655058 74.052904 
L 829.974438 68.396143 
L 831.281879 63.76547 
L 832.571409 60.030833 
L 833.795269 57.139599 
L 835.043009 54.741853 
L 836.308659 52.779169 
L 837.65789 51.111354 
L 838.96533 49.830475 
L 840.487693 48.662908 
L 842.039905 47.74981 
L 843.801069 46.972398 
L 845.741335 46.358194 
L 847.884582 45.952105 
L 849.000981 45.972063 
L 849.783057 46.210598 
L 850.457672 46.65918 
L 851.108408 47.384925 
L 851.747203 48.45093 
L 852.409878 49.996741 
L 853.138224 52.278438 
L 853.956121 55.619702 
L 854.875508 60.378817 
L 855.902356 66.919865 
L 857.090396 75.995952 
L 858.481417 88.434807 
L 860.17691 105.719709 
L 862.499259 131.883802 
L 867.56783 189.606506 
L 869.006611 203.087866 
L 870.200621 212.286714 
L 871.275229 218.920214 
L 872.278197 223.792976 
L 873.245345 227.437838 
L 874.188613 230.160374 
L 875.11994 232.197306 
L 876.063208 233.742051 
L 877.030355 234.910525 
L 878.057204 235.807349 
L 879.185543 236.497779 
L 880.492983 237.031715 
L 882.092956 237.436335 
L 884.230233 237.733907 
L 887.448089 237.936531 
L 893.656939 238.063394 
L 909.883529 238.131668 
L 996.218182 238.136626 
L 996.218182 238.136626 
" style="fill:none;stroke:#ff0000;stroke-linecap:square;stroke-width:1.5;"/>
   </g>
   <g id="line2d_17">
    <path clip-path="url(#pfc91bc2480)" d="M 184.581818 44.990721 
L 280.238582 44.879823 
L 286.30415 44.663499 
L 287.336968 44.857289 
L 288.071284 45.210424 
L 288.72799 45.767006 
L 289.354845 46.58514 
L 290.01155 47.817894 
L 290.710045 49.627671 
L 291.468242 52.242223 
L 292.304048 55.954005 
L 293.270599 61.338269 
L 294.388431 68.970591 
L 295.636171 79.121198 
L 297.122713 93.138361 
L 298.985368 112.955389 
L 301.850991 146.152618 
L 305.259888 185.082691 
L 306.80613 200.231254 
L 308.04193 210.264701 
L 309.140419 217.449874 
L 310.161297 222.723175 
L 311.134415 226.633607 
L 312.077683 229.547217 
L 313.00901 231.734662 
L 313.946307 233.388915 
L 314.907485 234.645368 
L 315.916423 235.603872 
L 317.014912 236.341472 
L 318.268622 236.911167 
L 319.779044 237.345561 
L 321.74916 237.668447 
L 324.626723 237.895379 
L 333.229562 238.223417 
L 337.790679 238.306082 
L 338.768513 238.079374 
L 339.520739 237.679164 
L 340.189384 237.067143 
L 340.840119 236.157098 
L 341.508765 234.817762 
L 342.2192 232.869632 
L 342.995307 230.056694 
L 343.854994 226.060081 
L 344.834081 220.38669 
L 345.980331 212.355088 
L 347.401202 200.71869 
L 349.407138 182.265513 
L 356.386124 116.64871 
L 358.35624 100.776059 
L 360.003973 89.233497 
L 361.484545 80.374168 
L 362.869596 73.38977 
L 364.171066 67.912152 
L 365.442687 63.479614 
L 366.702367 59.87358 
L 367.932197 56.997798 
L 369.191877 54.606651 
L 370.463497 52.664408 
L 371.830638 51.007538 
L 373.138078 49.759976 
L 374.469399 48.757871 
L 376.194743 47.773632 
L 377.884266 47.076697 
L 379.531999 46.616366 
L 380.672279 46.483739 
L 381.543906 46.594315 
L 382.260311 46.922341 
L 382.881196 47.455585 
L 383.537902 48.346631 
L 384.212517 49.688512 
L 384.916983 51.623352 
L 385.681149 54.39741 
L 386.534866 58.361408 
L 387.525058 64.096715 
L 388.624323 71.829956 
L 389.907883 82.512164 
L 391.442185 97.254252 
L 393.394391 118.311117 
L 396.845079 158.455369 
L 399.424139 187.271839 
L 400.916651 201.585899 
L 402.134541 211.231783 
L 403.22109 218.147357 
L 404.235998 223.240038 
L 405.209116 227.031319 
L 406.152383 229.850237 
L 407.083711 231.963174 
L 408.021008 233.559112 
L 408.982186 234.770149 
L 409.997094 235.697993 
L 411.107523 236.413126 
L 412.385113 236.966641 
L 413.937326 237.388006 
L 415.979082 237.698996 
L 419.011866 237.915642 
L 431.148974 238.357707 
L 432.510144 238.241713 
L 433.375801 237.948399 
L 434.086237 237.471758 
L 434.742942 236.755119 
L 435.393678 235.702011 
L 436.074263 234.156131 
L 436.808579 231.905699 
L 437.614535 228.679084 
L 438.516013 224.100289 
L 439.548831 217.637419 
L 440.784631 208.404561 
L 442.372663 194.731794 
L 444.880084 170.938293 
L 449.602212 126.14064 
L 451.8171 107.28271 
L 453.578264 94.102738 
L 455.118537 84.181058 
L 456.539408 76.42039 
L 457.894609 70.223947 
L 459.196079 65.293415 
L 460.419939 61.466229 
L 461.619919 58.373158 
L 462.831838 55.813009 
L 464.139279 53.580886 
L 465.369109 51.894078 
L 466.640729 50.492643 
L 468.121301 49.210154 
L 469.667543 48.181169 
L 471.488408 47.277568 
L 473.225692 46.648557 
L 475.667441 46.040147 
L 477.822629 45.688621 
L 483.743662 45.161655 
L 492.042029 44.824615 
L 492.895746 45.121577 
L 493.576331 45.593336 
L 494.215126 46.307493 
L 494.877802 47.404723 
L 495.558387 48.987232 
L 496.292703 51.285507 
L 497.092689 54.541304 
L 498.012077 59.274183 
L 499.062805 65.952686 
L 500.250845 75.029096 
L 501.635896 87.412357 
L 503.337359 104.756329 
L 505.683588 131.181846 
L 510.650668 187.644787 
L 512.13124 201.628117 
L 513.34913 211.130993 
L 514.441648 217.987625 
L 515.462527 223.041072 
L 516.435644 226.783627 
L 517.378912 229.568929 
L 518.316209 231.669639 
L 519.259477 233.254849 
L 520.232595 234.464288 
L 521.259443 235.391231 
L 522.387782 236.111685 
L 523.683282 236.671333 
L 525.139974 237.058201 
L 526.399654 237.178497 
L 527.3234 237.052907 
L 528.069656 236.73001 
L 528.738301 236.195195 
L 529.389036 235.3775 
L 530.051712 234.168918 
L 530.756177 232.394551 
L 531.520343 229.830531 
L 532.36212 226.180357 
L 533.305388 221.044706 
L 534.403876 213.750985 
L 535.735197 203.312688 
L 537.514271 187.452108 
L 541.215701 151.871958 
L 544.409677 122.280265 
L 546.529044 104.612548 
L 548.242447 92.112949 
L 549.76481 82.58432 
L 551.173741 75.128888 
L 552.475211 69.359941 
L 553.752802 64.653136 
L 555.060242 60.702176 
L 556.296042 57.659001 
L 557.561692 55.128306 
L 558.863163 53.039272 
L 560.146723 51.397532 
L 561.507894 50.023782 
L 562.922795 48.913514 
L 564.558588 47.944727 
L 566.140651 47.258415 
L 567.674953 46.79744 
L 568.946573 46.63568 
L 569.77044 46.74513 
L 570.474906 47.069776 
L 571.089821 47.599317 
L 571.704735 48.424211 
L 572.355471 49.68642 
L 573.036056 51.499738 
L 573.812162 54.24402 
L 574.665879 58.13253 
L 575.633027 63.636867 
L 576.725546 71.200461 
L 577.997166 81.645036 
L 579.507588 96.002006 
L 581.418003 116.439275 
L 584.534368 152.57179 
L 587.483572 185.8879 
L 589.014889 200.758607 
L 590.244719 210.642559 
L 591.337238 217.711732 
L 592.358116 222.925519 
L 593.331234 226.788375 
L 594.274501 229.664566 
L 595.205829 231.822794 
L 596.143126 233.45432 
L 597.104304 234.69317 
L 598.113242 235.638075 
L 599.217701 236.368435 
L 600.477381 236.931099 
L 602.005713 237.361703 
L 603.999709 237.680086 
L 606.913093 237.901568 
L 612.101064 238.039758 
L 633.527566 238.240357 
L 634.351433 237.91279 
L 635.043958 237.39653 
L 635.694693 236.626025 
L 636.351399 235.4865 
L 637.043924 233.811528 
L 637.79018 231.391487 
L 638.614047 227.921797 
L 639.539404 223.004833 
L 640.608043 216.050404 
L 641.897573 206.099091 
L 643.593067 191.144769 
L 646.613911 162.136473 
L 650.404891 126.372496 
L 652.637689 107.345804 
L 654.398853 94.157463 
L 655.942708 84.206601 
L 657.363579 76.442119 
L 658.68296 70.391501 
L 659.97846 65.452277 
L 661.25008 61.461722 
L 662.50379 58.244716 
L 663.799291 55.551779 
L 665.053001 53.452283 
L 666.300741 51.768694 
L 667.602211 50.363718 
L 669.124573 49.079781 
L 670.724546 48.051762 
L 672.312579 47.279661 
L 674.479706 46.522529 
L 676.497582 46.039986 
L 679.512457 45.58384 
L 683.452688 45.270621 
L 696.533063 44.676376 
L 697.685282 44.818177 
L 698.449448 45.116749 
L 699.112124 45.599291 
L 699.738979 46.321979 
L 700.395684 47.43289 
L 701.09418 49.092174 
L 701.846406 51.505855 
L 702.664302 54.922284 
L 703.58369 59.766384 
L 704.610538 66.400141 
L 705.798577 75.577148 
L 707.201539 88.237508 
L 708.920912 105.903632 
L 711.302961 132.908538 
L 716.163356 188.479403 
L 717.626018 202.357967 
L 718.825998 211.740513 
L 719.906576 218.52206 
L 720.915515 223.508941 
L 721.882662 227.219729 
L 722.82593 229.994662 
L 723.757257 232.072609 
L 724.694555 233.640928 
L 725.661703 234.836608 
L 726.682581 235.75018 
L 727.80495 236.45543 
L 729.09448 236.998305 
L 730.670573 237.411795 
L 732.760089 237.716408 
L 735.870484 237.924896 
L 741.709191 238.054737 
L 753.153773 238.30525 
L 756.914903 238.342559 
L 757.888021 238.112164 
L 758.640247 237.706807 
L 759.308892 237.088127 
L 759.959627 236.169376 
L 760.628273 234.81879 
L 761.344679 232.837567 
L 762.126755 229.976936 
L 762.992412 225.915896 
L 763.97747 220.160339 
L 765.135659 211.98531 
L 766.574441 200.130303 
L 768.622167 181.215153 
L 775.33071 118.02312 
L 777.336646 101.716904 
L 778.996319 89.969351 
L 780.482861 80.969653 
L 781.873763 73.865714 
L 783.187173 68.266896 
L 784.452823 63.796212 
L 785.694593 60.184384 
L 786.906513 57.294277 
L 788.142313 54.89122 
L 789.485574 52.794621 
L 790.721374 51.252994 
L 792.136275 49.853652 
L 793.646697 48.696869 
L 795.186969 47.792463 
L 796.924253 47.026801 
L 799.413763 46.271439 
L 802.661469 45.684437 
L 805.980816 45.348685 
L 812.356827 44.893665 
L 815.843335 44.722731 
L 816.995554 44.863888 
L 817.825391 45.202537 
L 818.458216 45.686368 
L 819.114921 46.476335 
L 819.789537 47.674644 
L 820.476092 49.375616 
L 821.216378 51.82358 
L 822.058155 55.432511 
L 822.995452 60.497763 
L 824.052151 67.49045 
L 825.2581 77.00852 
L 826.684942 90.112859 
L 828.452076 108.52018 
L 830.983376 137.475682 
L 835.263901 186.507914 
L 836.774323 201.117472 
L 837.998183 210.901536 
L 839.090701 217.923066 
L 840.10561 223.067237 
L 841.078727 226.8997 
L 842.021995 229.750852 
L 842.953322 231.888844 
L 843.89062 233.504183 
L 844.851798 234.730189 
L 845.866706 235.669624 
L 846.977135 236.393787 
L 848.248755 236.95261 
L 849.800967 237.382967 
L 851.902424 237.71962 
L 855.323261 238.015391 
L 860.917196 238.268186 
L 862.135086 238.124524 
L 862.964923 237.807463 
L 863.663418 237.300804 
L 864.320124 236.539178 
L 864.976829 235.419306 
L 865.669354 233.770537 
L 866.41561 231.384038 
L 867.233507 227.983675 
L 868.152894 223.156915 
L 869.215563 216.312519 
L 870.493153 206.534989 
L 872.158796 191.935299 
L 875.018449 164.556124 
L 879.024351 126.68322 
L 881.257149 107.62416 
L 883.024284 94.358238 
L 884.570526 84.363774 
L 885.991397 76.574263 
L 887.334658 70.401642 
L 888.636128 65.439723 
L 889.901779 61.467999 
L 891.155489 58.249705 
L 892.385319 55.678289 
L 893.627089 53.572033 
L 894.958409 51.763061 
L 896.25391 50.364684 
L 897.60314 49.20935 
L 899.149383 48.180204 
L 900.970247 47.276281 
L 903.131405 46.521563 
L 905.149281 46.038859 
L 908.164155 45.582552 
L 912.104387 45.269334 
L 917.50131 45.089547 
L 924.289254 45.0176 
L 996.218182 44.990721 
L 996.218182 44.990721 
" style="fill:none;stroke:#008000;stroke-linecap:square;stroke-width:1.5;"/>
   </g>
   <g id="line2d_18">
    <path clip-path="url(#pfc91bc2480)" d="M 184.581818 44.990721 
L 274.393905 45.100258 
L 278.572938 45.337336 
L 281.140059 45.693292 
L 283.050474 46.177965 
L 284.542986 46.777394 
L 285.856397 47.5475 
L 286.990706 48.470257 
L 288.065314 49.642406 
L 289.080222 51.098306 
L 290.03543 52.865159 
L 290.990638 55.115471 
L 291.945845 57.963833 
L 292.901053 61.54105 
L 293.886947 66.148689 
L 294.901855 72.029673 
L 295.976463 79.68639 
L 297.110773 89.49938 
L 298.364483 102.425519 
L 299.856995 120.284228 
L 305.349439 188.712632 
L 306.603149 200.335601 
L 307.737458 208.956913 
L 308.812066 215.565765 
L 309.886675 220.833694 
L 310.901583 224.761214 
L 311.916491 227.846331 
L 312.931399 230.247168 
L 313.946307 232.101415 
L 315.020916 233.596898 
L 316.095525 234.719849 
L 317.229834 235.597419 
L 318.483544 236.292302 
L 319.916355 236.829405 
L 321.587969 237.212545 
L 323.558085 237.432796 
L 325.886403 237.463242 
L 328.274422 237.27371 
L 330.42364 236.887538 
L 332.274354 236.334503 
L 333.886267 235.620326 
L 335.319079 234.73644 
L 336.572789 233.708263 
L 337.766798 232.444431 
L 338.935674 230.868266 
L 340.069983 228.940485 
L 341.144592 226.671968 
L 342.2192 223.886101 
L 343.293809 220.488243 
L 344.428118 216.126927 
L 345.562427 210.854929 
L 346.756437 204.206861 
L 348.016117 195.878362 
L 349.389228 185.232747 
L 350.94144 171.37507 
L 352.971257 151.089125 
L 357.269691 107.614632 
L 358.881604 93.810528 
L 360.314415 83.36514 
L 361.627826 75.354691 
L 362.881536 69.035346 
L 364.075546 64.106399 
L 365.269555 60.106554 
L 366.403864 57.042734 
L 367.538173 54.582493 
L 368.672482 52.625361 
L 369.806792 51.08453 
L 371.000801 49.833016 
L 372.194811 48.895347 
L 373.448521 48.193145 
L 374.702231 47.740679 
L 375.955941 47.515867 
L 377.209651 47.515066 
L 378.40366 47.737063 
L 379.53797 48.179137 
L 380.612578 48.847831 
L 381.627486 49.754132 
L 382.582694 50.90901 
L 383.537902 52.426136 
L 384.493109 54.39001 
L 385.448317 56.902308 
L 386.403525 60.081475 
L 387.358732 64.059842 
L 388.34373 69.146884 
L 389.358639 75.588147 
L 390.433247 83.87912 
L 391.627257 94.954339 
L 392.940667 109.299669 
L 394.671981 130.85609 
L 398.433111 178.403726 
L 399.865923 193.240501 
L 401.119633 203.944785 
L 402.253942 211.80428 
L 403.328551 217.788956 
L 404.403159 222.538597 
L 405.418067 226.070552 
L 406.432975 228.841498 
L 407.447884 230.997236 
L 408.462792 232.662905 
L 409.5374 234.00759 
L 410.671709 235.066667 
L 411.865719 235.879588 
L 413.179129 236.509614 
L 414.731342 236.998547 
L 416.522356 237.323937 
L 418.671574 237.483025 
L 421.119293 237.435562 
L 423.507312 237.167404 
L 425.596829 236.710149 
L 427.328143 236.112288 
L 428.880355 235.340697 
L 430.253466 234.406845 
L 431.507176 233.283488 
L 432.701186 231.906132 
L 433.835495 230.249325 
L 434.969804 228.173376 
L 436.044413 225.737097 
L 437.119021 222.754159 
L 438.25333 218.906115 
L 439.38764 214.224395 
L 440.521949 208.596113 
L 441.715958 201.545036 
L 443.029369 192.377079 
L 444.46218 180.70326 
L 446.133794 165.150061 
L 448.700914 138.840034 
L 451.542478 110.33905 
L 453.214091 95.726178 
L 454.646903 85.012156 
L 455.960313 76.745951 
L 457.214023 70.190725 
L 458.408033 65.053298 
L 459.602042 60.86428 
L 460.796052 57.486847 
L 461.930361 54.909144 
L 463.124371 52.743609 
L 464.31838 51.035501 
L 465.57209 49.635654 
L 466.885501 48.509485 
L 468.258612 47.619672 
L 469.810824 46.880366 
L 471.601839 46.282858 
L 473.691355 45.825317 
L 476.318176 45.488607 
L 479.601703 45.303015 
L 483.104867 45.322814 
L 485.91079 45.545924 
L 488.000306 45.923551 
L 489.612219 46.426772 
L 490.98533 47.082694 
L 492.17934 47.899324 
L 493.253949 48.904331 
L 494.268857 50.165972 
L 495.224064 51.712466 
L 496.179272 53.701815 
L 497.13448 56.246053 
L 498.089687 59.476291 
L 499.044895 63.539978 
L 500.000103 68.593665 
L 501.015011 75.217799 
L 502.089619 83.802372 
L 503.223928 94.710728 
L 504.537339 109.60282 
L 506.268653 132.030198 
L 509.737251 177.494437 
L 511.110362 192.323565 
L 512.304371 202.982011 
L 513.43868 211.171195 
L 514.513289 217.331581 
L 515.528197 221.904135 
L 516.543105 225.453233 
L 517.498313 228.015627 
L 518.453521 229.956165 
L 519.349028 231.30823 
L 520.244535 232.28349 
L 521.140042 232.939824 
L 522.035549 233.320845 
L 522.931056 233.457322 
L 523.826564 233.368531 
L 524.722071 233.063412 
L 525.677278 232.498812 
L 526.657262 231.650966 
L 527.621902 230.527514 
L 528.63681 228.99898 
L 529.651718 227.06475 
L 530.726327 224.504975 
L 531.800936 221.334136 
L 532.875544 217.457287 
L 534.009853 212.490885 
L 535.203863 206.17682 
L 536.457573 198.243264 
L 537.770983 188.44776 
L 539.263495 175.554434 
L 541.11421 157.46399 
L 546.666355 101.727593 
L 548.218567 89.175357 
L 549.591678 79.816748 
L 550.845388 72.695619 
L 552.099098 66.836372 
L 553.293108 62.300434 
L 554.427417 58.807923 
L 555.561726 55.991853 
L 556.696035 53.74356 
L 557.830344 51.967115 
L 558.964653 50.58116 
L 560.158663 49.471289 
L 561.352672 48.660434 
L 562.546682 48.105315 
L 563.800392 47.768263 
L 564.994402 47.670307 
L 566.188411 47.796356 
L 567.32272 48.146043 
L 568.397329 48.719508 
L 569.412237 49.522821 
L 570.367445 50.563365 
L 571.322652 51.943192 
L 572.27786 53.740244 
L 573.233068 56.04929 
L 574.188275 58.982048 
L 575.143483 62.665253 
L 576.098691 67.235446 
L 577.113599 73.215602 
L 578.188207 80.965438 
L 579.322517 90.84321 
L 580.576227 103.77486 
L 582.128439 122.273317 
L 587.322381 186.46634 
L 588.614896 198.649294 
L 589.808906 207.883216 
L 590.943215 214.949873 
L 592.017823 220.282788 
L 593.032731 224.280183 
L 594.04764 227.437096 
L 595.062548 229.907619 
L 596.077456 231.827207 
L 597.152064 233.386183 
L 598.226673 234.566905 
L 599.420683 235.542067 
L 600.674393 236.282569 
L 602.107204 236.874033 
L 603.838518 237.341172 
L 605.987735 237.682994 
L 608.913059 237.910116 
L 613.151793 238.000471 
L 618.166633 237.891508 
L 621.808362 237.607974 
L 624.375483 237.199727 
L 626.405299 236.658767 
L 628.076912 235.986024 
L 629.509724 235.17316 
L 630.823134 234.165822 
L 632.017144 232.963491 
L 633.151453 231.497276 
L 634.226062 229.743613 
L 635.30067 227.552969 
L 636.375279 224.831674 
L 637.449887 221.474499 
L 638.524496 217.368024 
L 639.658805 212.093339 
L 640.793114 205.73085 
L 641.987124 197.754611 
L 643.300534 187.41549 
L 644.793046 173.782322 
L 646.703462 154.061297 
L 651.360099 105.0198 
L 652.912311 91.488744 
L 654.285422 81.386229 
L 655.572565 73.52979 
L 656.766574 67.547381 
L 657.960584 62.684234 
L 659.094893 58.959339 
L 660.229202 55.96958 
L 661.363511 53.589062 
L 662.49782 51.705732 
L 663.69183 50.154779 
L 664.885839 48.954542 
L 666.19925 47.948992 
L 667.632061 47.137606 
L 669.243974 46.486047 
L 671.15439 45.964617 
L 673.488678 45.569426 
L 676.533403 45.291847 
L 680.772137 45.144181 
L 685.667576 45.192264 
L 689.130204 45.431901 
L 691.458522 45.800468 
L 693.249537 46.297939 
L 694.742049 46.943277 
L 695.995759 47.725366 
L 697.130068 48.696251 
L 698.204676 49.925043 
L 699.219585 51.445641 
L 700.174792 53.284186 
L 701.13 55.616965 
L 702.085208 58.558036 
L 703.040415 62.236432 
L 703.995623 66.791226 
L 705.010531 72.746824 
L 706.08514 80.466404 
L 707.219449 90.314571 
L 708.473159 103.226269 
L 710.025371 121.733091 
L 715.261879 186.650486 
L 716.57529 199.015755 
L 717.769299 208.206798 
L 718.903608 215.228038 
L 719.978217 220.518046 
L 720.993125 224.47745 
L 722.008033 227.600097 
L 723.022941 230.040592 
L 724.03785 231.934403 
L 725.112458 233.470395 
L 726.187067 234.632035 
L 727.381076 235.589817 
L 728.694487 236.344316 
L 730.186999 236.931841 
L 731.978013 237.381863 
L 734.186931 237.697099 
L 737.171955 237.883955 
L 741.112186 237.896819 
L 744.933017 237.698664 
L 747.79864 237.343146 
L 750.007558 236.85707 
L 751.798572 236.245777 
L 753.350785 235.484267 
L 754.723896 234.561774 
L 755.977606 233.447917 
L 757.171615 232.075706 
L 758.305924 230.416683 
L 759.380533 228.449364 
L 760.455141 226.013343 
L 761.52975 223.015136 
L 762.604359 219.352314 
L 763.738668 214.646815 
L 764.872977 208.959785 
L 766.066986 201.799639 
L 767.320697 192.906338 
L 768.693808 181.556423 
L 770.365421 165.732465 
L 772.872841 139.475859 
L 775.712793 110.307963 
L 777.384406 95.386405 
L 778.817218 84.49782 
L 780.130628 76.143637 
L 781.384338 69.558592 
L 782.578228 64.430584 
L 783.772238 60.275579 
L 784.906547 57.096583 
L 786.040856 54.543373 
L 787.175165 52.506464 
L 788.369175 50.815135 
L 789.563184 49.495535 
L 790.876595 48.380905 
L 792.249706 47.506306 
L 793.801918 46.785166 
L 795.592933 46.207519 
L 797.74215 45.760367 
L 800.428671 45.443382 
L 803.771898 45.282341 
L 807.294227 45.328526 
L 810.100149 45.576073 
L 812.189666 45.977172 
L 813.801579 46.502695 
L 815.17469 47.180388 
L 816.368699 48.017146 
L 817.473158 49.072577 
L 818.488066 50.358418 
L 819.443274 51.925288 
L 820.398482 53.929491 
L 821.353689 56.478568 
L 822.308897 59.697597 
L 823.264105 63.726431 
L 824.219312 68.712834 
L 825.23422 75.219905 
L 826.308829 83.619977 
L 827.443138 94.262674 
L 828.756549 108.771768 
L 830.487862 130.65701 
L 834.195262 178.322602 
L 835.568373 192.819458 
L 836.822083 203.75414 
L 837.956392 211.757877 
L 839.031001 217.828383 
L 840.045909 222.38706 
L 841.060817 225.984832 
L 842.075725 228.791902 
L 843.090633 230.960915 
L 844.105542 232.622314 
L 845.12045 233.883761 
L 846.195058 234.879342 
L 847.329367 235.637215 
L 848.583077 236.207997 
L 849.956188 236.589275 
L 851.508401 236.784559 
L 853.180014 236.766995 
L 854.851628 236.532183 
L 856.463541 236.086013 
L 857.956053 235.443031 
L 859.329164 234.605657 
L 860.582874 233.579401 
L 861.776883 232.308698 
L 862.911192 230.771155 
L 864.045501 228.8367 
L 865.12011 226.558979 
L 866.194719 223.761749 
L 867.269327 220.351086 
L 868.403636 215.975642 
L 869.537945 210.690111 
L 870.731955 204.03008 
L 871.985665 195.736358 
L 873.358776 185.096998 
L 874.910988 171.257923 
L 877.000505 150.395237 
L 881.179539 108.190463 
L 882.851152 93.862508 
L 884.283964 83.427276 
L 885.597374 75.416832 
L 886.851084 69.089842 
L 888.045094 64.147189 
L 889.239103 60.127487 
L 890.433113 56.893557 
L 891.567422 54.429656 
L 892.761432 52.362639 
L 893.955441 50.734123 
L 895.209151 49.4007 
L 896.522562 48.32863 
L 897.955373 47.450169 
L 899.567286 46.732514 
L 901.418001 46.161239 
L 903.626919 45.718175 
L 906.492542 45.382714 
L 910.492474 45.155884 
L 917.178927 45.029613 
L 934.96967 44.991549 
L 996.16266 44.990721 
L 996.16266 44.990721 
" style="fill:none;stroke:#008000;stroke-dasharray:5.55,2.4;stroke-dashoffset:0;stroke-width:1.5;"/>
   </g>
   <g id="line2d_19">
    <path clip-path="url(#pfc91bc2480)" d="M 184.581818 238.136639 
L 274.393905 238.246499 
L 278.035634 238.475804 
L 280.423653 238.832188 
L 282.393769 239.339934 
L 284.005682 239.975236 
L 285.498194 240.805913 
L 289.259324 243.094635 
L 289.97573 243.138792 
L 290.632435 242.945577 
L 291.28914 242.511228 
L 292.065246 241.701268 
L 293.020454 240.349128 
L 296.454067 235.132795 
L 297.170473 234.584196 
L 297.767478 234.385393 
L 298.304782 234.420193 
L 298.901787 234.694072 
L 299.558492 235.257727 
L 300.394299 236.291718 
L 303.439023 240.390563 
L 304.095729 240.796083 
L 304.692733 240.927715 
L 305.289738 240.843573 
L 306.006144 240.503961 
L 307.021052 239.733987 
L 309.468772 237.781085 
L 310.603081 237.214286 
L 311.73739 236.907271 
L 312.9911 236.808641 
L 314.662713 236.920122 
L 322.483476 237.729387 
L 325.408799 237.67938 
L 327.97592 237.422248 
L 330.125137 236.99268 
L 331.975852 236.40585 
L 333.587765 235.670412 
L 335.020576 234.779457 
L 336.393687 233.658643 
L 337.9459 232.077599 
L 340.189384 229.78072 
L 341.025191 229.253942 
L 341.681896 229.090696 
L 342.278901 229.171614 
L 342.875906 229.48737 
L 343.532611 230.108251 
L 344.308717 231.187525 
L 345.263925 232.934314 
L 347.12061 236.939728 
L 348.493721 239.622194 
L 349.389228 240.932811 
L 350.165334 241.694949 
L 350.822039 242.045641 
L 351.419044 242.130707 
L 352.016049 242.005411 
L 352.732455 241.608104 
L 353.568261 240.870257 
L 354.821971 239.417924 
L 357.568193 236.163932 
L 358.762203 235.123832 
L 359.896512 234.430351 
L 360.971121 234.030729 
L 362.10543 233.846891 
L 363.41884 233.875257 
L 365.030753 234.152815 
L 367.299371 234.78755 
L 374.045526 237.033666 
L 376.791748 238.126027 
L 378.582762 239.073757 
L 380.254375 240.225727 
L 382.642394 241.910406 
L 383.478201 242.205932 
L 384.134906 242.221916 
L 384.791612 242.011005 
L 385.448317 241.563487 
L 386.224423 240.751459 
L 387.239331 239.33224 
L 390.254146 234.857206 
L 391.030252 234.196115 
L 391.686957 233.923301 
L 392.283962 233.923294 
L 392.880967 234.1591 
L 393.537672 234.668977 
L 394.373479 235.621623 
L 397.477904 239.491014 
L 398.134609 239.846805 
L 398.791314 239.946837 
L 399.448019 239.809328 
L 400.224126 239.406199 
L 401.537536 238.420725 
L 403.149449 237.279714 
L 404.283758 236.752599 
L 405.358367 236.492807 
L 406.552376 236.430391 
L 408.164289 236.589825 
L 415.985052 237.684938 
L 418.850675 237.715733 
L 421.596897 237.526959 
L 423.865515 237.157621 
L 425.835631 236.619675 
L 427.566945 235.917944 
L 429.059457 235.077667 
L 430.432568 234.053893 
L 431.92508 232.650002 
L 434.4922 230.175361 
L 435.268307 229.747782 
L 435.925012 229.632165 
L 436.522017 229.761354 
L 437.119021 230.13181 
L 437.775727 230.822196 
L 438.551833 231.998948 
L 439.507041 233.89236 
L 441.118953 237.686212 
L 442.730866 241.28023 
L 443.686074 242.913346 
L 444.46218 243.847892 
L 445.118886 244.334459 
L 445.71589 244.531389 
L 446.312895 244.503715 
L 446.9696 244.236379 
L 447.745707 243.64916 
L 448.760615 242.557186 
L 450.766372 239.955439 
L 452.497686 237.893196 
L 453.751396 236.728863 
L 454.945405 235.921997 
L 456.079714 235.417446 
L 457.273724 235.124038 
L 458.646835 235.021297 
L 460.318448 235.129489 
L 462.766168 235.538472 
L 471.482438 237.172559 
L 475.780872 237.659784 
L 486.030191 238.696277 
L 488.119707 239.234851 
L 489.851021 239.912735 
L 491.642036 240.873403 
L 493.313649 241.725565 
L 494.149456 241.915835 
L 494.806161 241.857791 
L 495.462866 241.566349 
L 496.119571 241.013818 
L 496.835977 240.111305 
L 497.731484 238.594229 
L 498.985194 235.980656 
L 501.074711 231.606155 
L 501.970218 230.247209 
L 502.626924 229.598105 
L 503.223928 229.306731 
L 503.761233 229.302577 
L 504.298537 229.542618 
L 504.895542 230.078626 
L 505.611948 231.042754 
L 506.686556 232.929118 
L 508.596972 236.336178 
L 509.438748 237.382596 
L 510.155154 237.939766 
L 510.811859 238.184867 
L 511.528265 238.206623 
L 512.423772 237.980355 
L 514.214787 237.210267 
L 515.8864 236.610398 
L 517.498313 236.281884 
L 522.15495 235.50559 
L 523.528061 234.942876 
L 524.781771 234.187567 
L 526.154882 233.08145 
L 529.233815 230.447615 
L 530.009921 230.152816 
L 530.666627 230.148683 
L 531.263631 230.368774 
L 531.920337 230.870576 
L 532.636742 231.723285 
L 533.532249 233.185707 
L 534.78596 235.740172 
L 537.054578 240.413698 
L 538.009785 241.85298 
L 538.785892 242.640139 
L 539.442597 243.010126 
L 540.039602 243.108561 
L 540.636606 242.990638 
L 541.293312 242.634998 
L 542.129118 241.898802 
L 543.263427 240.554378 
L 546.606654 236.378243 
L 547.800664 235.327438 
L 548.875272 234.662903 
L 549.949881 234.252561 
L 551.08419 234.05837 
L 552.397601 234.073718 
L 554.009514 234.334175 
L 556.337832 234.968335 
L 561.472073 236.674814 
L 564.576498 237.880737 
L 566.427213 238.830236 
L 568.039126 239.91246 
L 571.203251 242.158855 
L 571.979358 242.360761 
L 572.636063 242.307464 
L 573.292768 242.02427 
L 574.009174 241.455729 
L 574.904681 240.419248 
L 576.218092 238.496737 
L 577.949406 236.023658 
L 578.844913 235.134773 
L 579.501618 234.759066 
L 580.098623 234.650991 
L 580.695628 234.773593 
L 581.352333 235.164046 
L 582.128439 235.92184 
L 583.262748 237.399148 
L 584.934361 239.539632 
L 585.710468 240.185722 
L 586.367173 240.464828 
L 586.964178 240.493913 
L 587.620883 240.29864 
L 588.435795 239.798702 
L 589.928307 238.54596 
L 591.361118 237.458636 
L 592.435727 236.906657 
L 593.510335 236.602168 
L 594.704345 236.505946 
L 596.196857 236.624909 
L 599.06248 237.136434 
L 602.584808 237.686201 
L 605.868334 237.962603 
L 610.226469 238.089277 
L 615.898015 238.025098 
L 620.375551 237.775677 
L 623.241174 237.405033 
L 625.390391 236.908603 
L 627.181405 236.272202 
L 628.733618 235.485128 
L 630.106729 234.537451 
L 631.360439 233.405714 
L 632.73355 231.845255 
L 636.255878 227.622282 
L 637.031984 227.15448 
L 637.688689 227.007285 
L 638.345395 227.098704 
L 639.0021 227.418537 
L 639.778206 228.048508 
L 640.912515 229.288981 
L 642.76323 231.306651 
L 643.599037 231.888822 
L 644.315442 232.120355 
L 644.972148 232.089652 
L 645.628853 231.824194 
L 646.345259 231.28592 
L 647.240766 230.31347 
L 648.673577 228.361926 
L 650.404891 226.097083 
L 651.360099 225.187818 
L 652.195906 224.674118 
L 652.972012 224.445822 
L 653.748118 224.447902 
L 654.583925 224.682003 
L 655.512864 225.178519 
L 656.706874 226.0897 
L 658.497888 227.780555 
L 662.259018 231.380336 
L 664.229134 232.932201 
L 666.139549 234.159144 
L 668.049965 235.132165 
L 670.199182 235.975805 
L 672.593171 236.668941 
L 675.279693 237.209179 
L 678.563219 237.631765 
L 683.69746 238.02286 
L 688.473498 238.440922 
L 690.921218 238.885304 
L 692.831633 239.459532 
L 694.383846 240.155656 
L 695.756957 241.012291 
L 697.249469 242.219975 
L 699.518087 244.076566 
L 700.353894 244.467362 
L 701.070299 244.564745 
L 701.727005 244.435677 
L 702.44341 244.063705 
L 703.338918 243.321996 
L 706.682144 240.223495 
L 707.33885 240.021335 
L 707.935854 240.046915 
L 708.532859 240.282302 
L 709.189564 240.775659 
L 710.025371 241.706499 
L 711.398482 243.647138 
L 712.694759 245.332202 
L 713.470865 245.984749 
L 714.06787 246.218719 
L 714.605174 246.207183 
L 715.142478 245.984726 
L 715.799184 245.450816 
L 716.63499 244.443573 
L 718.246903 242.037577 
L 719.679715 240.080006 
L 720.754323 238.970542 
L 721.769231 238.23564 
L 722.78414 237.769733 
L 723.918449 237.496651 
L 725.29156 237.401547 
L 727.381076 237.506956 
L 734.604834 238.011096 
L 739.321172 238.034317 
L 743.739007 237.846571 
L 746.843432 237.509024 
L 749.171751 237.036895 
L 751.082166 236.42724 
L 752.694079 235.687197 
L 754.126891 234.788853 
L 755.500002 233.653631 
L 756.992514 232.108005 
L 759.440233 229.533305 
L 760.27604 229.006182 
L 760.932745 228.844662 
L 761.52975 228.923388 
L 762.126755 229.228804 
L 762.78346 229.823416 
L 763.559566 230.84324 
L 764.574474 232.57244 
L 767.619199 238.028028 
L 768.455006 238.969568 
L 769.171411 239.449677 
L 769.768416 239.604997 
L 770.365421 239.540715 
L 771.022126 239.234058 
L 771.798232 238.597452 
L 772.813141 237.43669 
L 776.548599 232.831162 
L 777.563508 232.051263 
L 778.518715 231.579192 
L 779.473923 231.346863 
L 780.488831 231.328719 
L 781.682721 231.546763 
L 783.175233 232.064115 
L 785.682653 233.209815 
L 789.622885 234.968187 
L 792.369107 235.923559 
L 795.29443 236.687184 
L 798.398855 237.260024 
L 802.279386 237.728396 
L 809.443444 238.532369 
L 811.652361 239.042527 
L 813.443376 239.681958 
L 814.995588 240.481835 
L 816.726902 241.656943 
L 818.428366 242.751466 
L 819.264172 243.032882 
L 819.920878 243.042885 
L 820.577583 242.826783 
L 821.234288 242.371479 
L 822.010394 241.544318 
L 823.025303 240.094997 
L 826.010327 235.570282 
L 826.786433 234.903297 
L 827.383438 234.652848 
L 827.920742 234.641458 
L 828.458046 234.835906 
L 829.055051 235.281888 
L 829.831157 236.172776 
L 830.965466 237.883324 
L 832.63708 240.37114 
L 833.413186 241.147576 
L 834.075861 241.513084 
L 834.672866 241.593107 
L 835.269871 241.452471 
L 835.986276 241.045302 
L 837.060885 240.134062 
L 839.269803 238.209979 
L 840.404112 237.544699 
L 841.538421 237.145961 
L 842.792131 236.957156 
L 844.404044 236.961248 
L 851.4487 237.255295 
L 853.478517 236.999249 
L 855.329232 236.544753 
L 857.000845 235.903489 
L 858.493357 235.08789 
L 859.866468 234.079274 
L 861.35898 232.681721 
L 864.045501 230.076664 
L 864.821608 229.656193 
L 865.478313 229.548082 
L 866.075318 229.683179 
L 866.672322 230.057082 
L 867.329028 230.746698 
L 868.105134 231.913857 
L 869.060342 233.77878 
L 870.911056 238.028744 
L 872.284167 240.920399 
L 873.239375 242.44896 
L 874.015481 243.296501 
L 874.672187 243.711713 
L 875.269191 243.848085 
L 875.866196 243.766051 
L 876.522901 243.448225 
L 877.299008 242.816364 
L 878.373616 241.620053 
L 882.373548 236.840868 
L 883.567558 235.89178 
L 884.701867 235.267798 
L 885.836176 234.891486 
L 887.089886 234.713765 
L 888.582398 234.742715 
L 890.552514 235.029197 
L 894.074842 235.812224 
L 898.910581 236.810657 
L 902.791112 237.376532 
L 906.970145 237.74757 
L 912.283488 237.979494 
L 920.880357 238.102435 
L 941.417322 238.135718 
L 983.62556 238.136639 
L 996.16266 238.136639 
L 996.16266 238.136639 
" style="fill:none;stroke:#008000;stroke-dasharray:9.6,2.4,1.5,2.4;stroke-dashoffset:0;stroke-width:1.5;"/>
   </g>
   <g id="patch_3">
    <path d="M 144 256.32 
L 144 34.56 
" style="fill:none;stroke:#000000;stroke-linecap:square;stroke-linejoin:miter;stroke-width:0.8;"/>
   </g>
   <g id="patch_4">
    <path d="M 1036.8 256.32 
L 1036.8 34.56 
" style="fill:none;stroke:#000000;stroke-linecap:square;stroke-linejoin:miter;stroke-width:0.8;"/>
   </g>
   <g id="patch_5">
    <path d="M 144 256.32 
L 1036.8 256.32 
" style="fill:none;stroke:#000000;stroke-linecap:square;stroke-linejoin:miter;stroke-width:0.8;"/>
   </g>
   <g id="patch_6">
    <path d="M 144 34.56 
L 1036.8 34.56 
" style="fill:none;stroke:#000000;stroke-linecap:square;stroke-linejoin:miter;stroke-width:0.8;"/>
   </g>
   <g id="text_19">
    <!-- In  RMSE: 0.0 -->
    <defs>
     <path d="M 9.8125 72.90625 
L 50.296875 72.90625 
L 50.296875 64.59375 
L 35.015625 64.59375 
L 35.015625 8.296875 
L 50.296875 8.296875 
L 50.296875 0 
L 9.8125 0 
L 9.8125 8.296875 
L 25.09375 8.296875 
L 25.09375 64.59375 
L 9.8125 64.59375 
z
" id="DejaVuSansMono-73"/>
     <path d="M 51.3125 33.890625 
L 51.3125 0 
L 42.28125 0 
L 42.28125 33.890625 
Q 42.28125 41.265625 39.6875 44.71875 
Q 37.109375 48.1875 31.59375 48.1875 
Q 25.296875 48.1875 21.890625 43.71875 
Q 18.5 39.265625 18.5 30.90625 
L 18.5 0 
L 9.515625 0 
L 9.515625 54.6875 
L 18.5 54.6875 
L 18.5 46.484375 
Q 20.90625 51.171875 25 53.578125 
Q 29.109375 56 34.71875 56 
Q 43.0625 56 47.1875 50.5 
Q 51.3125 45.015625 51.3125 33.890625 
z
" id="DejaVuSansMono-110"/>
     <path id="DejaVuSansMono-32"/>
     <path d="M 37.109375 34.421875 
Q 40.921875 33.453125 43.609375 30.734375 
Q 46.296875 28.03125 50.296875 19.921875 
L 60.203125 0 
L 49.609375 0 
L 40.921875 18.40625 
Q 37.15625 26.265625 34.15625 28.53125 
Q 31.15625 30.8125 26.3125 30.8125 
L 16.890625 30.8125 
L 16.890625 0 
L 6.984375 0 
L 6.984375 72.90625 
L 27.296875 72.90625 
Q 39.3125 72.90625 45.703125 67.484375 
Q 52.09375 62.0625 52.09375 51.8125 
Q 52.09375 44.578125 48.15625 40.015625 
Q 44.234375 35.453125 37.109375 34.421875 
z
M 16.890625 64.796875 
L 16.890625 38.921875 
L 27.6875 38.921875 
Q 34.765625 38.921875 38.234375 42.09375 
Q 41.703125 45.265625 41.703125 51.8125 
Q 41.703125 58.109375 38.015625 61.453125 
Q 34.328125 64.796875 27.296875 64.796875 
z
" id="DejaVuSansMono-82"/>
     <path d="M 4.203125 72.90625 
L 17.390625 72.90625 
L 29.984375 35.796875 
L 42.671875 72.90625 
L 55.90625 72.90625 
L 55.90625 0 
L 46.78125 0 
L 46.78125 64.40625 
L 33.796875 25.984375 
L 26.3125 25.984375 
L 13.28125 64.40625 
L 13.28125 0 
L 4.203125 0 
z
" id="DejaVuSansMono-77"/>
     <path d="M 49.421875 70.40625 
L 49.421875 60.40625 
Q 44.921875 63.28125 40.40625 64.75 
Q 35.890625 66.21875 31.296875 66.21875 
Q 24.3125 66.21875 20.265625 62.96875 
Q 16.21875 59.71875 16.21875 54.203125 
Q 16.21875 49.359375 18.875 46.8125 
Q 21.53125 44.28125 28.8125 42.578125 
L 33.984375 41.40625 
Q 44.234375 39.015625 48.921875 33.890625 
Q 53.609375 28.765625 53.609375 19.921875 
Q 53.609375 9.515625 47.15625 4.046875 
Q 40.71875 -1.421875 28.421875 -1.421875 
Q 23.296875 -1.421875 18.109375 -0.3125 
Q 12.9375 0.78125 7.71875 2.984375 
L 7.71875 13.484375 
Q 13.328125 9.90625 18.328125 8.25 
Q 23.34375 6.59375 28.421875 6.59375 
Q 35.890625 6.59375 40.03125 9.9375 
Q 44.1875 13.28125 44.1875 19.28125 
Q 44.1875 24.75 41.328125 27.625 
Q 38.484375 30.515625 31.390625 32.078125 
L 26.125 33.296875 
Q 15.96875 35.59375 11.375 40.234375 
Q 6.78125 44.875 6.78125 52.6875 
Q 6.78125 62.453125 13.34375 68.328125 
Q 19.921875 74.21875 30.8125 74.21875 
Q 35.015625 74.21875 39.640625 73.265625 
Q 44.28125 72.3125 49.421875 70.40625 
z
" id="DejaVuSansMono-83"/>
     <path d="M 9.625 72.90625 
L 52.875 72.90625 
L 52.875 64.59375 
L 19.484375 64.59375 
L 19.484375 43.015625 
L 51.421875 43.015625 
L 51.421875 34.71875 
L 19.484375 34.71875 
L 19.484375 8.296875 
L 53.8125 8.296875 
L 53.8125 0 
L 9.625 0 
z
" id="DejaVuSansMono-69"/>
     <path d="M 23.875 51.90625 
L 36.1875 51.90625 
L 36.1875 37.109375 
L 23.875 37.109375 
z
M 23.875 14.890625 
L 36.1875 14.890625 
L 36.1875 0 
L 23.875 0 
z
" id="DejaVuSansMono-58"/>
     <path d="M 23.578125 36.625 
Q 23.578125 39.3125 25.453125 41.265625 
Q 27.34375 43.21875 29.984375 43.21875 
Q 32.71875 43.21875 34.671875 41.265625 
Q 36.625 39.3125 36.625 36.625 
Q 36.625 33.890625 34.6875 31.984375 
Q 32.765625 30.078125 29.984375 30.078125 
Q 27.25 30.078125 25.40625 31.9375 
Q 23.578125 33.796875 23.578125 36.625 
z
M 30.078125 66.40625 
Q 23.1875 66.40625 19.796875 58.984375 
Q 16.40625 51.5625 16.40625 36.375 
Q 16.40625 21.234375 19.796875 13.8125 
Q 23.1875 6.390625 30.078125 6.390625 
Q 37.015625 6.390625 40.40625 13.8125 
Q 43.796875 21.234375 43.796875 36.375 
Q 43.796875 51.5625 40.40625 58.984375 
Q 37.015625 66.40625 30.078125 66.40625 
z
M 30.078125 74.21875 
Q 41.75 74.21875 47.734375 64.640625 
Q 53.71875 55.078125 53.71875 36.375 
Q 53.71875 17.71875 47.734375 8.140625 
Q 41.75 -1.421875 30.078125 -1.421875 
Q 18.40625 -1.421875 12.453125 8.140625 
Q 6.5 17.71875 6.5 36.375 
Q 6.5 55.078125 12.453125 64.640625 
Q 18.40625 74.21875 30.078125 74.21875 
z
" id="DejaVuSansMono-48"/>
     <path d="M 23.875 14.890625 
L 36.1875 14.890625 
L 36.1875 0 
L 23.875 0 
z
" id="DejaVuSansMono-46"/>
    </defs>
    <g transform="translate(184.581818 202.731837)scale(0.1 -0.1)">
     <use xlink:href="#DejaVuSansMono-73"/>
     <use x="60.205078" xlink:href="#DejaVuSansMono-110"/>
     <use x="120.410156" xlink:href="#DejaVuSansMono-32"/>
     <use x="180.615234" xlink:href="#DejaVuSansMono-32"/>
     <use x="240.820312" xlink:href="#DejaVuSansMono-82"/>
     <use x="301.025391" xlink:href="#DejaVuSansMono-77"/>
     <use x="361.230469" xlink:href="#DejaVuSansMono-83"/>
     <use x="421.435547" xlink:href="#DejaVuSansMono-69"/>
     <use x="481.640625" xlink:href="#DejaVuSansMono-58"/>
     <use x="541.845703" xlink:href="#DejaVuSansMono-32"/>
     <use x="602.050781" xlink:href="#DejaVuSansMono-48"/>
     <use x="662.255859" xlink:href="#DejaVuSansMono-46"/>
     <use x="722.460938" xlink:href="#DejaVuSansMono-48"/>
    </g>
    <!-- Out RMSE: 0.0177 -->
    <defs>
     <path d="M 44.1875 36.375 
Q 44.1875 52.4375 40.890625 59.328125 
Q 37.59375 66.21875 30.078125 66.21875 
Q 22.609375 66.21875 19.3125 59.328125 
Q 16.015625 52.4375 16.015625 36.375 
Q 16.015625 20.359375 19.3125 13.46875 
Q 22.609375 6.59375 30.078125 6.59375 
Q 37.59375 6.59375 40.890625 13.453125 
Q 44.1875 20.3125 44.1875 36.375 
z
M 54.5 36.375 
Q 54.5 17.328125 48.46875 7.953125 
Q 42.4375 -1.421875 30.078125 -1.421875 
Q 17.71875 -1.421875 11.71875 7.90625 
Q 5.71875 17.234375 5.71875 36.375 
Q 5.71875 55.46875 11.75 64.84375 
Q 17.78125 74.21875 30.078125 74.21875 
Q 42.4375 74.21875 48.46875 64.84375 
Q 54.5 55.46875 54.5 36.375 
z
" id="DejaVuSansMono-79"/>
     <path d="M 9.515625 20.703125 
L 9.515625 54.59375 
L 18.5 54.59375 
L 18.5 20.703125 
Q 18.5 13.328125 21.109375 9.859375 
Q 23.734375 6.390625 29.203125 6.390625 
Q 35.546875 6.390625 38.90625 10.859375 
Q 42.28125 15.328125 42.28125 23.6875 
L 42.28125 54.59375 
L 51.3125 54.59375 
L 51.3125 0 
L 42.28125 0 
L 42.28125 8.203125 
Q 39.890625 3.46875 35.765625 1.015625 
Q 31.640625 -1.421875 26.125 -1.421875 
Q 17.71875 -1.421875 13.609375 4.078125 
Q 9.515625 9.578125 9.515625 20.703125 
z
" id="DejaVuSansMono-117"/>
     <path d="M 29.984375 70.21875 
L 29.984375 54.6875 
L 50.390625 54.6875 
L 50.390625 47.703125 
L 29.984375 47.703125 
L 29.984375 18.015625 
Q 29.984375 11.96875 32.28125 9.5625 
Q 34.578125 7.171875 40.28125 7.171875 
L 50.390625 7.171875 
L 50.390625 0 
L 39.40625 0 
Q 29.296875 0 25.140625 4.046875 
Q 21 8.109375 21 18.015625 
L 21 47.703125 
L 6.390625 47.703125 
L 6.390625 54.6875 
L 21 54.6875 
L 21 70.21875 
z
" id="DejaVuSansMono-116"/>
     <path d="M 13.1875 8.296875 
L 28.515625 8.296875 
L 28.515625 64.015625 
L 12.015625 60.296875 
L 12.015625 69.28125 
L 28.421875 72.90625 
L 38.28125 72.90625 
L 38.28125 8.296875 
L 53.421875 8.296875 
L 53.421875 0 
L 13.1875 0 
z
" id="DejaVuSansMono-49"/>
     <path d="M 6.78125 72.90625 
L 52.6875 72.90625 
L 52.6875 68.703125 
L 26.609375 0 
L 16.3125 0 
L 41.703125 64.59375 
L 6.78125 64.59375 
z
" id="DejaVuSansMono-55"/>
    </defs>
    <g transform="translate(184.581818 213.9934)scale(0.1 -0.1)">
     <use xlink:href="#DejaVuSansMono-79"/>
     <use x="60.205078" xlink:href="#DejaVuSansMono-117"/>
     <use x="120.410156" xlink:href="#DejaVuSansMono-116"/>
     <use x="180.615234" xlink:href="#DejaVuSansMono-32"/>
     <use x="240.820312" xlink:href="#DejaVuSansMono-82"/>
     <use x="301.025391" xlink:href="#DejaVuSansMono-77"/>
     <use x="361.230469" xlink:href="#DejaVuSansMono-83"/>
     <use x="421.435547" xlink:href="#DejaVuSansMono-69"/>
     <use x="481.640625" xlink:href="#DejaVuSansMono-58"/>
     <use x="541.845703" xlink:href="#DejaVuSansMono-32"/>
     <use x="602.050781" xlink:href="#DejaVuSansMono-48"/>
     <use x="662.255859" xlink:href="#DejaVuSansMono-46"/>
     <use x="722.460938" xlink:href="#DejaVuSansMono-48"/>
     <use x="782.666016" xlink:href="#DejaVuSansMono-49"/>
     <use x="842.871094" xlink:href="#DejaVuSansMono-55"/>
     <use x="903.076172" xlink:href="#DejaVuSansMono-55"/>
    </g>
   </g>
   <g id="text_20">
    <!-- inv_t4_invSim_820_200Traces fitting using transfer functions -->
    <defs>
     <path d="M 54.890625 33.015625 
L 54.890625 0 
L 45.90625 0 
L 45.90625 32.71875 
Q 45.90625 40.484375 42.875 44.328125 
Q 39.84375 48.1875 33.796875 48.1875 
Q 26.515625 48.1875 22.3125 43.546875 
Q 18.109375 38.921875 18.109375 30.90625 
L 18.109375 0 
L 9.078125 0 
L 9.078125 54.6875 
L 18.109375 54.6875 
L 18.109375 46.1875 
Q 21.34375 51.125 25.703125 53.5625 
Q 30.078125 56 35.796875 56 
Q 45.21875 56 50.046875 50.171875 
Q 54.890625 44.34375 54.890625 33.015625 
z
" id="DejaVuSans-110"/>
     <path d="M 2.984375 54.6875 
L 12.5 54.6875 
L 29.59375 8.796875 
L 46.6875 54.6875 
L 56.203125 54.6875 
L 35.6875 0 
L 23.484375 0 
z
" id="DejaVuSans-118"/>
     <path d="M 50.984375 -16.609375 
L 50.984375 -23.578125 
L -0.984375 -23.578125 
L -0.984375 -16.609375 
z
" id="DejaVuSans-95"/>
     <path d="M 53.515625 70.515625 
L 53.515625 60.890625 
Q 47.90625 63.578125 42.921875 64.890625 
Q 37.9375 66.21875 33.296875 66.21875 
Q 25.25 66.21875 20.875 63.09375 
Q 16.5 59.96875 16.5 54.203125 
Q 16.5 49.359375 19.40625 46.890625 
Q 22.3125 44.4375 30.421875 42.921875 
L 36.375 41.703125 
Q 47.40625 39.59375 52.65625 34.296875 
Q 57.90625 29 57.90625 20.125 
Q 57.90625 9.515625 50.796875 4.046875 
Q 43.703125 -1.421875 29.984375 -1.421875 
Q 24.8125 -1.421875 18.96875 -0.25 
Q 13.140625 0.921875 6.890625 3.21875 
L 6.890625 13.375 
Q 12.890625 10.015625 18.65625 8.296875 
Q 24.421875 6.59375 29.984375 6.59375 
Q 38.421875 6.59375 43.015625 9.90625 
Q 47.609375 13.234375 47.609375 19.390625 
Q 47.609375 24.75 44.3125 27.78125 
Q 41.015625 30.8125 33.5 32.328125 
L 27.484375 33.5 
Q 16.453125 35.6875 11.515625 40.375 
Q 6.59375 45.0625 6.59375 53.421875 
Q 6.59375 63.09375 13.40625 68.65625 
Q 20.21875 74.21875 32.171875 74.21875 
Q 37.3125 74.21875 42.625 73.28125 
Q 47.953125 72.359375 53.515625 70.515625 
z
" id="DejaVuSans-83"/>
     <path d="M 41.109375 46.296875 
Q 39.59375 47.171875 37.8125 47.578125 
Q 36.03125 48 33.890625 48 
Q 26.265625 48 22.1875 43.046875 
Q 18.109375 38.09375 18.109375 28.8125 
L 18.109375 0 
L 9.078125 0 
L 9.078125 54.6875 
L 18.109375 54.6875 
L 18.109375 46.1875 
Q 20.953125 51.171875 25.484375 53.578125 
Q 30.03125 56 36.53125 56 
Q 37.453125 56 38.578125 55.875 
Q 39.703125 55.765625 41.0625 55.515625 
z
" id="DejaVuSans-114"/>
     <path d="M 48.78125 52.59375 
L 48.78125 44.1875 
Q 44.96875 46.296875 41.140625 47.34375 
Q 37.3125 48.390625 33.40625 48.390625 
Q 24.65625 48.390625 19.8125 42.84375 
Q 14.984375 37.3125 14.984375 27.296875 
Q 14.984375 17.28125 19.8125 11.734375 
Q 24.65625 6.203125 33.40625 6.203125 
Q 37.3125 6.203125 41.140625 7.25 
Q 44.96875 8.296875 48.78125 10.40625 
L 48.78125 2.09375 
Q 45.015625 0.34375 40.984375 -0.53125 
Q 36.96875 -1.421875 32.421875 -1.421875 
Q 20.0625 -1.421875 12.78125 6.34375 
Q 5.515625 14.109375 5.515625 27.296875 
Q 5.515625 40.671875 12.859375 48.328125 
Q 20.21875 56 33.015625 56 
Q 37.15625 56 41.109375 55.140625 
Q 45.0625 54.296875 48.78125 52.59375 
z
" id="DejaVuSans-99"/>
     <path d="M 37.109375 75.984375 
L 37.109375 68.5 
L 28.515625 68.5 
Q 23.6875 68.5 21.796875 66.546875 
Q 19.921875 64.59375 19.921875 59.515625 
L 19.921875 54.6875 
L 34.71875 54.6875 
L 34.71875 47.703125 
L 19.921875 47.703125 
L 19.921875 0 
L 10.890625 0 
L 10.890625 47.703125 
L 2.296875 47.703125 
L 2.296875 54.6875 
L 10.890625 54.6875 
L 10.890625 58.5 
Q 10.890625 67.625 15.140625 71.796875 
Q 19.390625 75.984375 28.609375 75.984375 
z
" id="DejaVuSans-102"/>
     <path d="M 8.5 21.578125 
L 8.5 54.6875 
L 17.484375 54.6875 
L 17.484375 21.921875 
Q 17.484375 14.15625 20.5 10.265625 
Q 23.53125 6.390625 29.59375 6.390625 
Q 36.859375 6.390625 41.078125 11.03125 
Q 45.3125 15.671875 45.3125 23.6875 
L 45.3125 54.6875 
L 54.296875 54.6875 
L 54.296875 0 
L 45.3125 0 
L 45.3125 8.40625 
Q 42.046875 3.421875 37.71875 1 
Q 33.40625 -1.421875 27.6875 -1.421875 
Q 18.265625 -1.421875 13.375 4.4375 
Q 8.5 10.296875 8.5 21.578125 
z
M 31.109375 56 
z
" id="DejaVuSans-117"/>
    </defs>
    <g transform="translate(407.127187 28.56)scale(0.12 -0.12)">
     <use xlink:href="#DejaVuSans-105"/>
     <use x="27.783203" xlink:href="#DejaVuSans-110"/>
     <use x="91.162109" xlink:href="#DejaVuSans-118"/>
     <use x="150.341797" xlink:href="#DejaVuSans-95"/>
     <use x="200.341797" xlink:href="#DejaVuSans-116"/>
     <use x="239.550781" xlink:href="#DejaVuSans-52"/>
     <use x="303.173828" xlink:href="#DejaVuSans-95"/>
     <use x="353.173828" xlink:href="#DejaVuSans-105"/>
     <use x="380.957031" xlink:href="#DejaVuSans-110"/>
     <use x="444.335938" xlink:href="#DejaVuSans-118"/>
     <use x="503.515625" xlink:href="#DejaVuSans-83"/>
     <use x="566.992188" xlink:href="#DejaVuSans-105"/>
     <use x="594.775391" xlink:href="#DejaVuSans-109"/>
     <use x="692.1875" xlink:href="#DejaVuSans-95"/>
     <use x="742.1875" xlink:href="#DejaVuSans-56"/>
     <use x="805.810547" xlink:href="#DejaVuSans-50"/>
     <use x="869.433594" xlink:href="#DejaVuSans-48"/>
     <use x="933.056641" xlink:href="#DejaVuSans-95"/>
     <use x="983.056641" xlink:href="#DejaVuSans-50"/>
     <use x="1046.679688" xlink:href="#DejaVuSans-48"/>
     <use x="1110.302734" xlink:href="#DejaVuSans-48"/>
     <use x="1173.925781" xlink:href="#DejaVuSans-84"/>
     <use x="1234.791016" xlink:href="#DejaVuSans-114"/>
     <use x="1275.904297" xlink:href="#DejaVuSans-97"/>
     <use x="1337.183594" xlink:href="#DejaVuSans-99"/>
     <use x="1392.164062" xlink:href="#DejaVuSans-101"/>
     <use x="1453.6875" xlink:href="#DejaVuSans-115"/>
     <use x="1505.787109" xlink:href="#DejaVuSans-32"/>
     <use x="1537.574219" xlink:href="#DejaVuSans-102"/>
     <use x="1572.779297" xlink:href="#DejaVuSans-105"/>
     <use x="1600.5625" xlink:href="#DejaVuSans-116"/>
     <use x="1639.771484" xlink:href="#DejaVuSans-116"/>
     <use x="1678.980469" xlink:href="#DejaVuSans-105"/>
     <use x="1706.763672" xlink:href="#DejaVuSans-110"/>
     <use x="1770.142578" xlink:href="#DejaVuSans-103"/>
     <use x="1833.619141" xlink:href="#DejaVuSans-32"/>
     <use x="1865.40625" xlink:href="#DejaVuSans-117"/>
     <use x="1928.785156" xlink:href="#DejaVuSans-115"/>
     <use x="1980.884766" xlink:href="#DejaVuSans-105"/>
     <use x="2008.667969" xlink:href="#DejaVuSans-110"/>
     <use x="2072.046875" xlink:href="#DejaVuSans-103"/>
     <use x="2135.523438" xlink:href="#DejaVuSans-32"/>
     <use x="2167.310547" xlink:href="#DejaVuSans-116"/>
     <use x="2206.519531" xlink:href="#DejaVuSans-114"/>
     <use x="2247.632812" xlink:href="#DejaVuSans-97"/>
     <use x="2308.912109" xlink:href="#DejaVuSans-110"/>
     <use x="2372.291016" xlink:href="#DejaVuSans-115"/>
     <use x="2424.390625" xlink:href="#DejaVuSans-102"/>
     <use x="2459.595703" xlink:href="#DejaVuSans-101"/>
     <use x="2521.119141" xlink:href="#DejaVuSans-114"/>
     <use x="2562.232422" xlink:href="#DejaVuSans-32"/>
     <use x="2594.019531" xlink:href="#DejaVuSans-102"/>
     <use x="2629.224609" xlink:href="#DejaVuSans-117"/>
     <use x="2692.603516" xlink:href="#DejaVuSans-110"/>
     <use x="2755.982422" xlink:href="#DejaVuSans-99"/>
     <use x="2810.962891" xlink:href="#DejaVuSans-116"/>
     <use x="2850.171875" xlink:href="#DejaVuSans-105"/>
     <use x="2877.955078" xlink:href="#DejaVuSans-111"/>
     <use x="2939.136719" xlink:href="#DejaVuSans-110"/>
     <use x="3002.515625" xlink:href="#DejaVuSans-115"/>
    </g>
   </g>
   <g id="legend_1">
    <g id="patch_7">
     <path d="M 151 176.29625 
L 369.0875 176.29625 
Q 371.0875 176.29625 371.0875 174.29625 
L 371.0875 116.58375 
Q 371.0875 114.58375 369.0875 114.58375 
L 151 114.58375 
Q 149 114.58375 149 116.58375 
L 149 174.29625 
Q 149 176.29625 151 176.29625 
z
" style="fill:#ffffff;opacity:0.8;stroke:#cccccc;stroke-linejoin:miter;"/>
    </g>
    <g id="line2d_20">
     <path d="M 153 122.682187 
L 173 122.682187 
" style="fill:none;stroke:#ff0000;stroke-linecap:square;stroke-width:1.5;"/>
    </g>
    <g id="line2d_21"/>
    <g id="text_21">
     <!-- Input -->
     <defs>
      <path d="M 9.8125 72.90625 
L 19.671875 72.90625 
L 19.671875 0 
L 9.8125 0 
z
" id="DejaVuSans-73"/>
      <path d="M 18.109375 8.203125 
L 18.109375 -20.796875 
L 9.078125 -20.796875 
L 9.078125 54.6875 
L 18.109375 54.6875 
L 18.109375 46.390625 
Q 20.953125 51.265625 25.265625 53.625 
Q 29.59375 56 35.59375 56 
Q 45.5625 56 51.78125 48.09375 
Q 58.015625 40.1875 58.015625 27.296875 
Q 58.015625 14.40625 51.78125 6.484375 
Q 45.5625 -1.421875 35.59375 -1.421875 
Q 29.59375 -1.421875 25.265625 0.953125 
Q 20.953125 3.328125 18.109375 8.203125 
z
M 48.6875 27.296875 
Q 48.6875 37.203125 44.609375 42.84375 
Q 40.53125 48.484375 33.40625 48.484375 
Q 26.265625 48.484375 22.1875 42.84375 
Q 18.109375 37.203125 18.109375 27.296875 
Q 18.109375 17.390625 22.1875 11.75 
Q 26.265625 6.109375 33.40625 6.109375 
Q 40.53125 6.109375 44.609375 11.75 
Q 48.6875 17.390625 48.6875 27.296875 
z
" id="DejaVuSans-112"/>
     </defs>
     <g transform="translate(181 126.182187)scale(0.1 -0.1)">
      <use xlink:href="#DejaVuSans-73"/>
      <use x="29.492188" xlink:href="#DejaVuSans-110"/>
      <use x="92.871094" xlink:href="#DejaVuSans-112"/>
      <use x="156.347656" xlink:href="#DejaVuSans-117"/>
      <use x="219.726562" xlink:href="#DejaVuSans-116"/>
     </g>
    </g>
    <g id="line2d_22">
     <path d="M 153 137.360312 
L 173 137.360312 
" style="fill:none;stroke:#008000;stroke-linecap:square;stroke-width:1.5;"/>
    </g>
    <g id="line2d_23"/>
    <g id="text_22">
     <!-- Output -->
     <defs>
      <path d="M 39.40625 66.21875 
Q 28.65625 66.21875 22.328125 58.203125 
Q 16.015625 50.203125 16.015625 36.375 
Q 16.015625 22.609375 22.328125 14.59375 
Q 28.65625 6.59375 39.40625 6.59375 
Q 50.140625 6.59375 56.421875 14.59375 
Q 62.703125 22.609375 62.703125 36.375 
Q 62.703125 50.203125 56.421875 58.203125 
Q 50.140625 66.21875 39.40625 66.21875 
z
M 39.40625 74.21875 
Q 54.734375 74.21875 63.90625 63.9375 
Q 73.09375 53.65625 73.09375 36.375 
Q 73.09375 19.140625 63.90625 8.859375 
Q 54.734375 -1.421875 39.40625 -1.421875 
Q 24.03125 -1.421875 14.8125 8.828125 
Q 5.609375 19.09375 5.609375 36.375 
Q 5.609375 53.65625 14.8125 63.9375 
Q 24.03125 74.21875 39.40625 74.21875 
z
" id="DejaVuSans-79"/>
     </defs>
     <g transform="translate(181 140.860312)scale(0.1 -0.1)">
      <use xlink:href="#DejaVuSans-79"/>
      <use x="78.710938" xlink:href="#DejaVuSans-117"/>
      <use x="142.089844" xlink:href="#DejaVuSans-116"/>
      <use x="181.298828" xlink:href="#DejaVuSans-112"/>
      <use x="244.775391" xlink:href="#DejaVuSans-117"/>
      <use x="308.154297" xlink:href="#DejaVuSans-116"/>
     </g>
    </g>
    <g id="line2d_24">
     <path d="M 153 152.038437 
L 173 152.038437 
" style="fill:none;stroke:#008000;stroke-dasharray:5.55,2.4;stroke-dashoffset:0;stroke-width:1.5;"/>
    </g>
    <g id="line2d_25"/>
    <g id="text_23">
     <!-- Output fitting from transfer functions -->
     <g transform="translate(181 155.538437)scale(0.1 -0.1)">
      <use xlink:href="#DejaVuSans-79"/>
      <use x="78.710938" xlink:href="#DejaVuSans-117"/>
      <use x="142.089844" xlink:href="#DejaVuSans-116"/>
      <use x="181.298828" xlink:href="#DejaVuSans-112"/>
      <use x="244.775391" xlink:href="#DejaVuSans-117"/>
      <use x="308.154297" xlink:href="#DejaVuSans-116"/>
      <use x="347.363281" xlink:href="#DejaVuSans-32"/>
      <use x="379.150391" xlink:href="#DejaVuSans-102"/>
      <use x="414.355469" xlink:href="#DejaVuSans-105"/>
      <use x="442.138672" xlink:href="#DejaVuSans-116"/>
      <use x="481.347656" xlink:href="#DejaVuSans-116"/>
      <use x="520.556641" xlink:href="#DejaVuSans-105"/>
      <use x="548.339844" xlink:href="#DejaVuSans-110"/>
      <use x="611.71875" xlink:href="#DejaVuSans-103"/>
      <use x="675.195312" xlink:href="#DejaVuSans-32"/>
      <use x="706.982422" xlink:href="#DejaVuSans-102"/>
      <use x="742.1875" xlink:href="#DejaVuSans-114"/>
      <use x="783.269531" xlink:href="#DejaVuSans-111"/>
      <use x="844.451172" xlink:href="#DejaVuSans-109"/>
      <use x="941.863281" xlink:href="#DejaVuSans-32"/>
      <use x="973.650391" xlink:href="#DejaVuSans-116"/>
      <use x="1012.859375" xlink:href="#DejaVuSans-114"/>
      <use x="1053.972656" xlink:href="#DejaVuSans-97"/>
      <use x="1115.251953" xlink:href="#DejaVuSans-110"/>
      <use x="1178.630859" xlink:href="#DejaVuSans-115"/>
      <use x="1230.730469" xlink:href="#DejaVuSans-102"/>
      <use x="1265.935547" xlink:href="#DejaVuSans-101"/>
      <use x="1327.458984" xlink:href="#DejaVuSans-114"/>
      <use x="1368.572266" xlink:href="#DejaVuSans-32"/>
      <use x="1400.359375" xlink:href="#DejaVuSans-102"/>
      <use x="1435.564453" xlink:href="#DejaVuSans-117"/>
      <use x="1498.943359" xlink:href="#DejaVuSans-110"/>
      <use x="1562.322266" xlink:href="#DejaVuSans-99"/>
      <use x="1617.302734" xlink:href="#DejaVuSans-116"/>
      <use x="1656.511719" xlink:href="#DejaVuSans-105"/>
      <use x="1684.294922" xlink:href="#DejaVuSans-111"/>
      <use x="1745.476562" xlink:href="#DejaVuSans-110"/>
      <use x="1808.855469" xlink:href="#DejaVuSans-115"/>
     </g>
    </g>
    <g id="line2d_26">
     <path d="M 153 166.716563 
L 173 166.716563 
" style="fill:none;stroke:#008000;stroke-dasharray:9.6,2.4,1.5,2.4;stroke-dashoffset:0;stroke-width:1.5;"/>
    </g>
    <g id="line2d_27"/>
    <g id="text_24">
     <!-- fitting error -->
     <g transform="translate(181 170.216563)scale(0.1 -0.1)">
      <use xlink:href="#DejaVuSans-102"/>
      <use x="35.205078" xlink:href="#DejaVuSans-105"/>
      <use x="62.988281" xlink:href="#DejaVuSans-116"/>
      <use x="102.197266" xlink:href="#DejaVuSans-116"/>
      <use x="141.40625" xlink:href="#DejaVuSans-105"/>
      <use x="169.189453" xlink:href="#DejaVuSans-110"/>
      <use x="232.568359" xlink:href="#DejaVuSans-103"/>
      <use x="296.044922" xlink:href="#DejaVuSans-32"/>
      <use x="327.832031" xlink:href="#DejaVuSans-101"/>
      <use x="389.355469" xlink:href="#DejaVuSans-114"/>
      <use x="430.453125" xlink:href="#DejaVuSans-114"/>
      <use x="471.535156" xlink:href="#DejaVuSans-111"/>
      <use x="532.716797" xlink:href="#DejaVuSans-114"/>
     </g>
    </g>
   </g>
  </g>
 </g>
 <defs>
  <clipPath id="pfc91bc2480">
   <rect height="221.76" width="892.8" x="144" y="34.56"/>
  </clipPath>
 </defs>
</svg>
