<?xml version="1.0" encoding="utf-8" standalone="no"?>
<!DOCTYPE svg PUBLIC "-//W3C//DTD SVG 1.1//EN"
  "http://www.w3.org/Graphics/SVG/1.1/DTD/svg11.dtd">
<!-- Created with matplotlib (http://matplotlib.org/) -->
<svg height="432pt" version="1.1" viewBox="0 0 864 432" width="864pt" xmlns="http://www.w3.org/2000/svg" xmlns:xlink="http://www.w3.org/1999/xlink">
 <defs>
  <style type="text/css">
*{stroke-linecap:butt;stroke-linejoin:round;}
  </style>
 </defs>
 <g id="figure_1">
  <g id="patch_1">
   <path d="M 0 432 
L 864 432 
L 864 0 
L 0 0 
z
" style="fill:#ffffff;"/>
  </g>
  <g id="axes_1">
   <g id="patch_2">
    <path d="M 108 384.48 
L 777.6 384.48 
L 777.6 51.84 
L 108 51.84 
z
" style="fill:#ffffff;"/>
   </g>
   <g id="matplotlib.axis_1">
    <g id="xtick_1">
     <g id="line2d_1">
      <defs>
       <path d="M 0 0 
L 0 3.5 
" id="m2eff2ad72c" style="stroke:#000000;stroke-width:0.8;"/>
      </defs>
      <g>
       <use style="stroke:#000000;stroke-width:0.8;" x="138.436364" xlink:href="#m2eff2ad72c" y="384.48"/>
      </g>
     </g>
     <g id="text_1">
      <!-- 0.0 -->
      <defs>
       <path d="M 31.78125 66.40625 
Q 24.171875 66.40625 20.328125 58.90625 
Q 16.5 51.421875 16.5 36.375 
Q 16.5 21.390625 20.328125 13.890625 
Q 24.171875 6.390625 31.78125 6.390625 
Q 39.453125 6.390625 43.28125 13.890625 
Q 47.125 21.390625 47.125 36.375 
Q 47.125 51.421875 43.28125 58.90625 
Q 39.453125 66.40625 31.78125 66.40625 
z
M 31.78125 74.21875 
Q 44.046875 74.21875 50.515625 64.515625 
Q 56.984375 54.828125 56.984375 36.375 
Q 56.984375 17.96875 50.515625 8.265625 
Q 44.046875 -1.421875 31.78125 -1.421875 
Q 19.53125 -1.421875 13.0625 8.265625 
Q 6.59375 17.96875 6.59375 36.375 
Q 6.59375 54.828125 13.0625 64.515625 
Q 19.53125 74.21875 31.78125 74.21875 
z
" id="DejaVuSans-30"/>
       <path d="M 10.6875 12.40625 
L 21 12.40625 
L 21 0 
L 10.6875 0 
z
" id="DejaVuSans-2e"/>
      </defs>
      <g transform="translate(130.484801 399.078438)scale(0.1 -0.1)">
       <use xlink:href="#DejaVuSans-30"/>
       <use x="63.623047" xlink:href="#DejaVuSans-2e"/>
       <use x="95.410156" xlink:href="#DejaVuSans-30"/>
      </g>
     </g>
    </g>
    <g id="xtick_2">
     <g id="line2d_2">
      <g>
       <use style="stroke:#000000;stroke-width:0.8;" x="249.297676" xlink:href="#m2eff2ad72c" y="384.48"/>
      </g>
     </g>
     <g id="text_2">
      <!-- 0.2 -->
      <defs>
       <path d="M 19.1875 8.296875 
L 53.609375 8.296875 
L 53.609375 0 
L 7.328125 0 
L 7.328125 8.296875 
Q 12.9375 14.109375 22.625 23.890625 
Q 32.328125 33.6875 34.8125 36.53125 
Q 39.546875 41.84375 41.421875 45.53125 
Q 43.3125 49.21875 43.3125 52.78125 
Q 43.3125 58.59375 39.234375 62.25 
Q 35.15625 65.921875 28.609375 65.921875 
Q 23.96875 65.921875 18.8125 64.3125 
Q 13.671875 62.703125 7.8125 59.421875 
L 7.8125 69.390625 
Q 13.765625 71.78125 18.9375 73 
Q 24.125 74.21875 28.421875 74.21875 
Q 39.75 74.21875 46.484375 68.546875 
Q 53.21875 62.890625 53.21875 53.421875 
Q 53.21875 48.921875 51.53125 44.890625 
Q 49.859375 40.875 45.40625 35.40625 
Q 44.1875 33.984375 37.640625 27.21875 
Q 31.109375 20.453125 19.1875 8.296875 
z
" id="DejaVuSans-32"/>
      </defs>
      <g transform="translate(241.346114 399.078438)scale(0.1 -0.1)">
       <use xlink:href="#DejaVuSans-30"/>
       <use x="63.623047" xlink:href="#DejaVuSans-2e"/>
       <use x="95.410156" xlink:href="#DejaVuSans-32"/>
      </g>
     </g>
    </g>
    <g id="xtick_3">
     <g id="line2d_3">
      <g>
       <use style="stroke:#000000;stroke-width:0.8;" x="360.158989" xlink:href="#m2eff2ad72c" y="384.48"/>
      </g>
     </g>
     <g id="text_3">
      <!-- 0.4 -->
      <defs>
       <path d="M 37.796875 64.3125 
L 12.890625 25.390625 
L 37.796875 25.390625 
z
M 35.203125 72.90625 
L 47.609375 72.90625 
L 47.609375 25.390625 
L 58.015625 25.390625 
L 58.015625 17.1875 
L 47.609375 17.1875 
L 47.609375 0 
L 37.796875 0 
L 37.796875 17.1875 
L 4.890625 17.1875 
L 4.890625 26.703125 
z
" id="DejaVuSans-34"/>
      </defs>
      <g transform="translate(352.207426 399.078438)scale(0.1 -0.1)">
       <use xlink:href="#DejaVuSans-30"/>
       <use x="63.623047" xlink:href="#DejaVuSans-2e"/>
       <use x="95.410156" xlink:href="#DejaVuSans-34"/>
      </g>
     </g>
    </g>
    <g id="xtick_4">
     <g id="line2d_4">
      <g>
       <use style="stroke:#000000;stroke-width:0.8;" x="471.020301" xlink:href="#m2eff2ad72c" y="384.48"/>
      </g>
     </g>
     <g id="text_4">
      <!-- 0.6 -->
      <defs>
       <path d="M 33.015625 40.375 
Q 26.375 40.375 22.484375 35.828125 
Q 18.609375 31.296875 18.609375 23.390625 
Q 18.609375 15.53125 22.484375 10.953125 
Q 26.375 6.390625 33.015625 6.390625 
Q 39.65625 6.390625 43.53125 10.953125 
Q 47.40625 15.53125 47.40625 23.390625 
Q 47.40625 31.296875 43.53125 35.828125 
Q 39.65625 40.375 33.015625 40.375 
z
M 52.59375 71.296875 
L 52.59375 62.3125 
Q 48.875 64.0625 45.09375 64.984375 
Q 41.3125 65.921875 37.59375 65.921875 
Q 27.828125 65.921875 22.671875 59.328125 
Q 17.53125 52.734375 16.796875 39.40625 
Q 19.671875 43.65625 24.015625 45.921875 
Q 28.375 48.1875 33.59375 48.1875 
Q 44.578125 48.1875 50.953125 41.515625 
Q 57.328125 34.859375 57.328125 23.390625 
Q 57.328125 12.15625 50.6875 5.359375 
Q 44.046875 -1.421875 33.015625 -1.421875 
Q 20.359375 -1.421875 13.671875 8.265625 
Q 6.984375 17.96875 6.984375 36.375 
Q 6.984375 53.65625 15.1875 63.9375 
Q 23.390625 74.21875 37.203125 74.21875 
Q 40.921875 74.21875 44.703125 73.484375 
Q 48.484375 72.75 52.59375 71.296875 
z
" id="DejaVuSans-36"/>
      </defs>
      <g transform="translate(463.068739 399.078438)scale(0.1 -0.1)">
       <use xlink:href="#DejaVuSans-30"/>
       <use x="63.623047" xlink:href="#DejaVuSans-2e"/>
       <use x="95.410156" xlink:href="#DejaVuSans-36"/>
      </g>
     </g>
    </g>
    <g id="xtick_5">
     <g id="line2d_5">
      <g>
       <use style="stroke:#000000;stroke-width:0.8;" x="581.881614" xlink:href="#m2eff2ad72c" y="384.48"/>
      </g>
     </g>
     <g id="text_5">
      <!-- 0.8 -->
      <defs>
       <path d="M 31.78125 34.625 
Q 24.75 34.625 20.71875 30.859375 
Q 16.703125 27.09375 16.703125 20.515625 
Q 16.703125 13.921875 20.71875 10.15625 
Q 24.75 6.390625 31.78125 6.390625 
Q 38.8125 6.390625 42.859375 10.171875 
Q 46.921875 13.96875 46.921875 20.515625 
Q 46.921875 27.09375 42.890625 30.859375 
Q 38.875 34.625 31.78125 34.625 
z
M 21.921875 38.8125 
Q 15.578125 40.375 12.03125 44.71875 
Q 8.5 49.078125 8.5 55.328125 
Q 8.5 64.0625 14.71875 69.140625 
Q 20.953125 74.21875 31.78125 74.21875 
Q 42.671875 74.21875 48.875 69.140625 
Q 55.078125 64.0625 55.078125 55.328125 
Q 55.078125 49.078125 51.53125 44.71875 
Q 48 40.375 41.703125 38.8125 
Q 48.828125 37.15625 52.796875 32.3125 
Q 56.78125 27.484375 56.78125 20.515625 
Q 56.78125 9.90625 50.3125 4.234375 
Q 43.84375 -1.421875 31.78125 -1.421875 
Q 19.734375 -1.421875 13.25 4.234375 
Q 6.78125 9.90625 6.78125 20.515625 
Q 6.78125 27.484375 10.78125 32.3125 
Q 14.796875 37.15625 21.921875 38.8125 
z
M 18.3125 54.390625 
Q 18.3125 48.734375 21.84375 45.5625 
Q 25.390625 42.390625 31.78125 42.390625 
Q 38.140625 42.390625 41.71875 45.5625 
Q 45.3125 48.734375 45.3125 54.390625 
Q 45.3125 60.0625 41.71875 63.234375 
Q 38.140625 66.40625 31.78125 66.40625 
Q 25.390625 66.40625 21.84375 63.234375 
Q 18.3125 60.0625 18.3125 54.390625 
z
" id="DejaVuSans-38"/>
      </defs>
      <g transform="translate(573.930052 399.078438)scale(0.1 -0.1)">
       <use xlink:href="#DejaVuSans-30"/>
       <use x="63.623047" xlink:href="#DejaVuSans-2e"/>
       <use x="95.410156" xlink:href="#DejaVuSans-38"/>
      </g>
     </g>
    </g>
    <g id="xtick_6">
     <g id="line2d_6">
      <g>
       <use style="stroke:#000000;stroke-width:0.8;" x="692.742927" xlink:href="#m2eff2ad72c" y="384.48"/>
      </g>
     </g>
     <g id="text_6">
      <!-- 1.0 -->
      <defs>
       <path d="M 12.40625 8.296875 
L 28.515625 8.296875 
L 28.515625 63.921875 
L 10.984375 60.40625 
L 10.984375 69.390625 
L 28.421875 72.90625 
L 38.28125 72.90625 
L 38.28125 8.296875 
L 54.390625 8.296875 
L 54.390625 0 
L 12.40625 0 
z
" id="DejaVuSans-31"/>
      </defs>
      <g transform="translate(684.791364 399.078438)scale(0.1 -0.1)">
       <use xlink:href="#DejaVuSans-31"/>
       <use x="63.623047" xlink:href="#DejaVuSans-2e"/>
       <use x="95.410156" xlink:href="#DejaVuSans-30"/>
      </g>
     </g>
    </g>
    <g id="text_7">
     <!-- Time [s] -->
     <defs>
      <path d="M -0.296875 72.90625 
L 61.375 72.90625 
L 61.375 64.59375 
L 35.5 64.59375 
L 35.5 0 
L 25.59375 0 
L 25.59375 64.59375 
L -0.296875 64.59375 
z
" id="DejaVuSans-54"/>
      <path d="M 9.421875 54.6875 
L 18.40625 54.6875 
L 18.40625 0 
L 9.421875 0 
z
M 9.421875 75.984375 
L 18.40625 75.984375 
L 18.40625 64.59375 
L 9.421875 64.59375 
z
" id="DejaVuSans-69"/>
      <path d="M 52 44.1875 
Q 55.375 50.25 60.0625 53.125 
Q 64.75 56 71.09375 56 
Q 79.640625 56 84.28125 50.015625 
Q 88.921875 44.046875 88.921875 33.015625 
L 88.921875 0 
L 79.890625 0 
L 79.890625 32.71875 
Q 79.890625 40.578125 77.09375 44.375 
Q 74.3125 48.1875 68.609375 48.1875 
Q 61.625 48.1875 57.5625 43.546875 
Q 53.515625 38.921875 53.515625 30.90625 
L 53.515625 0 
L 44.484375 0 
L 44.484375 32.71875 
Q 44.484375 40.625 41.703125 44.40625 
Q 38.921875 48.1875 33.109375 48.1875 
Q 26.21875 48.1875 22.15625 43.53125 
Q 18.109375 38.875 18.109375 30.90625 
L 18.109375 0 
L 9.078125 0 
L 9.078125 54.6875 
L 18.109375 54.6875 
L 18.109375 46.1875 
Q 21.1875 51.21875 25.484375 53.609375 
Q 29.78125 56 35.6875 56 
Q 41.65625 56 45.828125 52.96875 
Q 50 49.953125 52 44.1875 
z
" id="DejaVuSans-6d"/>
      <path d="M 56.203125 29.59375 
L 56.203125 25.203125 
L 14.890625 25.203125 
Q 15.484375 15.921875 20.484375 11.0625 
Q 25.484375 6.203125 34.421875 6.203125 
Q 39.59375 6.203125 44.453125 7.46875 
Q 49.3125 8.734375 54.109375 11.28125 
L 54.109375 2.78125 
Q 49.265625 0.734375 44.1875 -0.34375 
Q 39.109375 -1.421875 33.890625 -1.421875 
Q 20.796875 -1.421875 13.15625 6.1875 
Q 5.515625 13.8125 5.515625 26.8125 
Q 5.515625 40.234375 12.765625 48.109375 
Q 20.015625 56 32.328125 56 
Q 43.359375 56 49.78125 48.890625 
Q 56.203125 41.796875 56.203125 29.59375 
z
M 47.21875 32.234375 
Q 47.125 39.59375 43.09375 43.984375 
Q 39.0625 48.390625 32.421875 48.390625 
Q 24.90625 48.390625 20.390625 44.140625 
Q 15.875 39.890625 15.1875 32.171875 
z
" id="DejaVuSans-65"/>
      <path id="DejaVuSans-20"/>
      <path d="M 8.59375 75.984375 
L 29.296875 75.984375 
L 29.296875 69 
L 17.578125 69 
L 17.578125 -6.203125 
L 29.296875 -6.203125 
L 29.296875 -13.1875 
L 8.59375 -13.1875 
z
" id="DejaVuSans-5b"/>
      <path d="M 44.28125 53.078125 
L 44.28125 44.578125 
Q 40.484375 46.53125 36.375 47.5 
Q 32.28125 48.484375 27.875 48.484375 
Q 21.1875 48.484375 17.84375 46.4375 
Q 14.5 44.390625 14.5 40.28125 
Q 14.5 37.15625 16.890625 35.375 
Q 19.28125 33.59375 26.515625 31.984375 
L 29.59375 31.296875 
Q 39.15625 29.25 43.1875 25.515625 
Q 47.21875 21.78125 47.21875 15.09375 
Q 47.21875 7.46875 41.1875 3.015625 
Q 35.15625 -1.421875 24.609375 -1.421875 
Q 20.21875 -1.421875 15.453125 -0.5625 
Q 10.6875 0.296875 5.421875 2 
L 5.421875 11.28125 
Q 10.40625 8.6875 15.234375 7.390625 
Q 20.0625 6.109375 24.8125 6.109375 
Q 31.15625 6.109375 34.5625 8.28125 
Q 37.984375 10.453125 37.984375 14.40625 
Q 37.984375 18.0625 35.515625 20.015625 
Q 33.0625 21.96875 24.703125 23.78125 
L 21.578125 24.515625 
Q 13.234375 26.265625 9.515625 29.90625 
Q 5.8125 33.546875 5.8125 39.890625 
Q 5.8125 47.609375 11.28125 51.796875 
Q 16.75 56 26.8125 56 
Q 31.78125 56 36.171875 55.265625 
Q 40.578125 54.546875 44.28125 53.078125 
z
" id="DejaVuSans-73"/>
      <path d="M 30.421875 75.984375 
L 30.421875 -13.1875 
L 9.71875 -13.1875 
L 9.71875 -6.203125 
L 21.390625 -6.203125 
L 21.390625 69 
L 9.71875 69 
L 9.71875 75.984375 
z
" id="DejaVuSans-5d"/>
     </defs>
     <g transform="translate(422.317187 412.756563)scale(0.1 -0.1)">
      <use xlink:href="#DejaVuSans-54"/>
      <use x="61.037109" xlink:href="#DejaVuSans-69"/>
      <use x="88.820312" xlink:href="#DejaVuSans-6d"/>
      <use x="186.232422" xlink:href="#DejaVuSans-65"/>
      <use x="247.755859" xlink:href="#DejaVuSans-20"/>
      <use x="279.542969" xlink:href="#DejaVuSans-5b"/>
      <use x="318.556641" xlink:href="#DejaVuSans-73"/>
      <use x="370.65625" xlink:href="#DejaVuSans-5d"/>
     </g>
    </g>
    <g id="text_8">
     <!-- 1e−8 -->
     <defs>
      <path d="M 10.59375 35.5 
L 73.1875 35.5 
L 73.1875 27.203125 
L 10.59375 27.203125 
z
" id="DejaVuSans-2212"/>
     </defs>
     <g transform="translate(750.342188 411.756563)scale(0.1 -0.1)">
      <use xlink:href="#DejaVuSans-31"/>
      <use x="63.623047" xlink:href="#DejaVuSans-65"/>
      <use x="125.146484" xlink:href="#DejaVuSans-2212"/>
      <use x="208.935547" xlink:href="#DejaVuSans-38"/>
     </g>
    </g>
   </g>
   <g id="matplotlib.axis_2">
    <g id="ytick_1">
     <g id="line2d_7">
      <defs>
       <path d="M 0 0 
L -3.5 0 
" id="mb27e524e85" style="stroke:#000000;stroke-width:0.8;"/>
      </defs>
      <g>
       <use style="stroke:#000000;stroke-width:0.8;" x="108" xlink:href="#mb27e524e85" y="368.937626"/>
      </g>
     </g>
     <g id="text_9">
      <!-- 0.0 -->
      <g transform="translate(85.096875 372.736844)scale(0.1 -0.1)">
       <use xlink:href="#DejaVuSans-30"/>
       <use x="63.623047" xlink:href="#DejaVuSans-2e"/>
       <use x="95.410156" xlink:href="#DejaVuSans-30"/>
      </g>
     </g>
    </g>
    <g id="ytick_2">
     <g id="line2d_8">
      <g>
       <use style="stroke:#000000;stroke-width:0.8;" x="108" xlink:href="#mb27e524e85" y="318.699246"/>
      </g>
     </g>
     <g id="text_10">
      <!-- 0.2 -->
      <g transform="translate(85.096875 322.498465)scale(0.1 -0.1)">
       <use xlink:href="#DejaVuSans-30"/>
       <use x="63.623047" xlink:href="#DejaVuSans-2e"/>
       <use x="95.410156" xlink:href="#DejaVuSans-32"/>
      </g>
     </g>
    </g>
    <g id="ytick_3">
     <g id="line2d_9">
      <g>
       <use style="stroke:#000000;stroke-width:0.8;" x="108" xlink:href="#mb27e524e85" y="268.460866"/>
      </g>
     </g>
     <g id="text_11">
      <!-- 0.4 -->
      <g transform="translate(85.096875 272.260085)scale(0.1 -0.1)">
       <use xlink:href="#DejaVuSans-30"/>
       <use x="63.623047" xlink:href="#DejaVuSans-2e"/>
       <use x="95.410156" xlink:href="#DejaVuSans-34"/>
      </g>
     </g>
    </g>
    <g id="ytick_4">
     <g id="line2d_10">
      <g>
       <use style="stroke:#000000;stroke-width:0.8;" x="108" xlink:href="#mb27e524e85" y="218.222486"/>
      </g>
     </g>
     <g id="text_12">
      <!-- 0.6 -->
      <g transform="translate(85.096875 222.021705)scale(0.1 -0.1)">
       <use xlink:href="#DejaVuSans-30"/>
       <use x="63.623047" xlink:href="#DejaVuSans-2e"/>
       <use x="95.410156" xlink:href="#DejaVuSans-36"/>
      </g>
     </g>
    </g>
    <g id="ytick_5">
     <g id="line2d_11">
      <g>
       <use style="stroke:#000000;stroke-width:0.8;" x="108" xlink:href="#mb27e524e85" y="167.984107"/>
      </g>
     </g>
     <g id="text_13">
      <!-- 0.8 -->
      <g transform="translate(85.096875 171.783325)scale(0.1 -0.1)">
       <use xlink:href="#DejaVuSans-30"/>
       <use x="63.623047" xlink:href="#DejaVuSans-2e"/>
       <use x="95.410156" xlink:href="#DejaVuSans-38"/>
      </g>
     </g>
    </g>
    <g id="ytick_6">
     <g id="line2d_12">
      <g>
       <use style="stroke:#000000;stroke-width:0.8;" x="108" xlink:href="#mb27e524e85" y="117.745727"/>
      </g>
     </g>
     <g id="text_14">
      <!-- 1.0 -->
      <g transform="translate(85.096875 121.544946)scale(0.1 -0.1)">
       <use xlink:href="#DejaVuSans-31"/>
       <use x="63.623047" xlink:href="#DejaVuSans-2e"/>
       <use x="95.410156" xlink:href="#DejaVuSans-30"/>
      </g>
     </g>
    </g>
    <g id="ytick_7">
     <g id="line2d_13">
      <g>
       <use style="stroke:#000000;stroke-width:0.8;" x="108" xlink:href="#mb27e524e85" y="67.507347"/>
      </g>
     </g>
     <g id="text_15">
      <!-- 1.2 -->
      <g transform="translate(85.096875 71.306566)scale(0.1 -0.1)">
       <use xlink:href="#DejaVuSans-31"/>
       <use x="63.623047" xlink:href="#DejaVuSans-2e"/>
       <use x="95.410156" xlink:href="#DejaVuSans-32"/>
      </g>
     </g>
    </g>
    <g id="text_16">
     <!-- Voltage [V] -->
     <defs>
      <path d="M 28.609375 0 
L 0.78125 72.90625 
L 11.078125 72.90625 
L 34.1875 11.53125 
L 57.328125 72.90625 
L 67.578125 72.90625 
L 39.796875 0 
z
" id="DejaVuSans-56"/>
      <path d="M 30.609375 48.390625 
Q 23.390625 48.390625 19.1875 42.75 
Q 14.984375 37.109375 14.984375 27.296875 
Q 14.984375 17.484375 19.15625 11.84375 
Q 23.34375 6.203125 30.609375 6.203125 
Q 37.796875 6.203125 41.984375 11.859375 
Q 46.1875 17.53125 46.1875 27.296875 
Q 46.1875 37.015625 41.984375 42.703125 
Q 37.796875 48.390625 30.609375 48.390625 
z
M 30.609375 56 
Q 42.328125 56 49.015625 48.375 
Q 55.71875 40.765625 55.71875 27.296875 
Q 55.71875 13.875 49.015625 6.21875 
Q 42.328125 -1.421875 30.609375 -1.421875 
Q 18.84375 -1.421875 12.171875 6.21875 
Q 5.515625 13.875 5.515625 27.296875 
Q 5.515625 40.765625 12.171875 48.375 
Q 18.84375 56 30.609375 56 
z
" id="DejaVuSans-6f"/>
      <path d="M 9.421875 75.984375 
L 18.40625 75.984375 
L 18.40625 0 
L 9.421875 0 
z
" id="DejaVuSans-6c"/>
      <path d="M 18.3125 70.21875 
L 18.3125 54.6875 
L 36.8125 54.6875 
L 36.8125 47.703125 
L 18.3125 47.703125 
L 18.3125 18.015625 
Q 18.3125 11.328125 20.140625 9.421875 
Q 21.96875 7.515625 27.59375 7.515625 
L 36.8125 7.515625 
L 36.8125 0 
L 27.59375 0 
Q 17.1875 0 13.234375 3.875 
Q 9.28125 7.765625 9.28125 18.015625 
L 9.28125 47.703125 
L 2.6875 47.703125 
L 2.6875 54.6875 
L 9.28125 54.6875 
L 9.28125 70.21875 
z
" id="DejaVuSans-74"/>
      <path d="M 34.28125 27.484375 
Q 23.390625 27.484375 19.1875 25 
Q 14.984375 22.515625 14.984375 16.5 
Q 14.984375 11.71875 18.140625 8.90625 
Q 21.296875 6.109375 26.703125 6.109375 
Q 34.1875 6.109375 38.703125 11.40625 
Q 43.21875 16.703125 43.21875 25.484375 
L 43.21875 27.484375 
z
M 52.203125 31.203125 
L 52.203125 0 
L 43.21875 0 
L 43.21875 8.296875 
Q 40.140625 3.328125 35.546875 0.953125 
Q 30.953125 -1.421875 24.3125 -1.421875 
Q 15.921875 -1.421875 10.953125 3.296875 
Q 6 8.015625 6 15.921875 
Q 6 25.140625 12.171875 29.828125 
Q 18.359375 34.515625 30.609375 34.515625 
L 43.21875 34.515625 
L 43.21875 35.40625 
Q 43.21875 41.609375 39.140625 45 
Q 35.0625 48.390625 27.6875 48.390625 
Q 23 48.390625 18.546875 47.265625 
Q 14.109375 46.140625 10.015625 43.890625 
L 10.015625 52.203125 
Q 14.9375 54.109375 19.578125 55.046875 
Q 24.21875 56 28.609375 56 
Q 40.484375 56 46.34375 49.84375 
Q 52.203125 43.703125 52.203125 31.203125 
z
" id="DejaVuSans-61"/>
      <path d="M 45.40625 27.984375 
Q 45.40625 37.75 41.375 43.109375 
Q 37.359375 48.484375 30.078125 48.484375 
Q 22.859375 48.484375 18.828125 43.109375 
Q 14.796875 37.75 14.796875 27.984375 
Q 14.796875 18.265625 18.828125 12.890625 
Q 22.859375 7.515625 30.078125 7.515625 
Q 37.359375 7.515625 41.375 12.890625 
Q 45.40625 18.265625 45.40625 27.984375 
z
M 54.390625 6.78125 
Q 54.390625 -7.171875 48.1875 -13.984375 
Q 42 -20.796875 29.203125 -20.796875 
Q 24.46875 -20.796875 20.265625 -20.09375 
Q 16.0625 -19.390625 12.109375 -17.921875 
L 12.109375 -9.1875 
Q 16.0625 -11.328125 19.921875 -12.34375 
Q 23.78125 -13.375 27.78125 -13.375 
Q 36.625 -13.375 41.015625 -8.765625 
Q 45.40625 -4.15625 45.40625 5.171875 
L 45.40625 9.625 
Q 42.625 4.78125 38.28125 2.390625 
Q 33.9375 0 27.875 0 
Q 17.828125 0 11.671875 7.65625 
Q 5.515625 15.328125 5.515625 27.984375 
Q 5.515625 40.671875 11.671875 48.328125 
Q 17.828125 56 27.875 56 
Q 33.9375 56 38.28125 53.609375 
Q 42.625 51.21875 45.40625 46.390625 
L 45.40625 54.6875 
L 54.390625 54.6875 
z
" id="DejaVuSans-67"/>
     </defs>
     <g transform="translate(79.017187 246.209219)rotate(-90)scale(0.1 -0.1)">
      <use xlink:href="#DejaVuSans-56"/>
      <use x="68.298828" xlink:href="#DejaVuSans-6f"/>
      <use x="129.480469" xlink:href="#DejaVuSans-6c"/>
      <use x="157.263672" xlink:href="#DejaVuSans-74"/>
      <use x="196.472656" xlink:href="#DejaVuSans-61"/>
      <use x="257.751953" xlink:href="#DejaVuSans-67"/>
      <use x="321.228516" xlink:href="#DejaVuSans-65"/>
      <use x="382.751953" xlink:href="#DejaVuSans-20"/>
      <use x="414.539062" xlink:href="#DejaVuSans-5b"/>
      <use x="453.552734" xlink:href="#DejaVuSans-56"/>
      <use x="521.960938" xlink:href="#DejaVuSans-5d"/>
     </g>
    </g>
   </g>
   <g id="line2d_14">
    <path clip-path="url(#pcd5cf7e08c)" d="M 138.436364 368.937604 
L 214.613495 369.048545 
L 221.49244 369.241675 
L 222.196409 368.944318 
L 222.79506 368.446939 
L 223.360453 367.674845 
L 223.931388 366.496167 
L 224.53004 364.717077 
L 225.178578 362.041981 
L 225.888091 358.110637 
L 226.680749 352.384258 
L 227.578726 344.168218 
L 228.626365 332.402718 
L 229.912356 315.280323 
L 231.670173 288.630973 
L 239.40275 167.814577 
L 241.132186 145.72225 
L 242.628814 129.331175 
L 243.997951 116.684692 
L 245.278399 106.828425 
L 246.481245 99.166569 
L 247.695176 92.82322 
L 248.91465 87.659217 
L 250.050979 83.768004 
L 251.198393 80.590928 
L 252.412325 77.911716 
L 253.47105 76.047118 
L 254.629551 74.41638 
L 255.943258 72.983079 
L 257.179361 71.959724 
L 258.343405 71.252116 
L 259.285726 70.90522 
L 259.967523 70.862769 
L 260.560631 71.055182 
L 261.059507 71.450558 
L 261.608271 72.210162 
L 262.16812 73.422665 
L 262.763279 75.295552 
L 263.411818 78.126736 
L 264.143503 82.41207 
L 264.963876 88.658961 
L 265.889568 97.53558 
L 266.937208 109.816352 
L 268.156682 126.819984 
L 269.642224 150.817929 
L 271.610012 186.520185 
L 277.668583 298.976713 
L 278.982289 317.966745 
L 280.096446 331.021113 
L 281.110827 340.418478 
L 282.064234 347.277542 
L 282.97884 352.32212 
L 283.871273 356.059276 
L 284.752621 358.838136 
L 285.633968 360.912102 
L 286.520859 362.451095 
L 287.407749 363.561476 
L 288.255838 364.285572 
L 288.998609 364.646969 
L 289.624975 364.716258 
L 290.168196 364.556728 
L 290.683701 364.168612 
L 291.210292 363.477643 
L 291.764599 362.358603 
L 292.36325 360.61234 
L 293.011788 357.992037 
L 293.726844 354.120029 
L 294.519502 348.527915 
L 295.411936 340.554825 
L 296.448489 329.174325 
L 297.717851 312.604903 
L 299.425115 287.133341 
L 303.377321 223.585509 
L 306.149464 181.234253 
L 308.072907 155.062067 
L 309.663767 136.323428 
L 311.082792 122.127066 
L 312.407585 111.028353 
L 313.665861 102.299937 
L 314.85762 95.496656 
L 316.038293 89.978472 
L 317.202337 85.55021 
L 318.333122 82.054121 
L 319.447278 79.254085 
L 320.611322 76.891123 
L 321.825253 74.920271 
L 323.055814 73.330227 
L 324.458209 71.908229 
L 326.087871 70.651014 
L 327.994685 69.571893 
L 330.199994 68.69448 
L 332.228756 68.167228 
L 333.437144 68.060221 
L 334.251975 68.207921 
L 334.9116 68.565116 
L 335.532423 69.183048 
L 336.14216 70.133558 
L 336.757441 71.508081 
L 337.46141 73.665819 
L 338.226353 76.773314 
L 339.129873 81.474621 
L 340.166426 88.135226 
L 341.474589 98.106288 
L 343.331516 114.164986 
L 346.956681 145.848775 
L 348.298103 155.509666 
L 349.356829 161.626842 
L 350.232633 165.482487 
L 350.969861 167.809629 
L 351.590684 169.099424 
L 352.106189 169.705901 
L 352.527462 169.893592 
L 352.909934 169.82891 
L 353.314578 169.521728 
L 353.785738 168.860591 
L 354.340045 167.671247 
L 354.988584 165.719034 
L 355.731354 162.737461 
L 356.579443 158.358031 
L 357.571652 151.980897 
L 358.863186 142.082705 
L 363.231122 107.381549 
L 364.594716 98.926681 
L 365.880707 92.332894 
L 367.100182 87.220385 
L 368.23651 83.331432 
L 369.338583 80.249056 
L 370.569143 77.479414 
L 371.755359 75.361364 
L 372.958205 73.660544 
L 374.133334 72.348066 
L 375.40824 71.233779 
L 377.137676 70.116729 
L 378.678648 69.404851 
L 381.006736 68.678906 
L 382.714 68.329498 
L 387.309201 67.816816 
L 391.117288 67.53322 
L 397.63039 67.053443 
L 398.406419 67.269468 
L 399.00507 67.662333 
L 399.542747 68.269966 
L 400.097054 69.239064 
L 400.684619 70.747974 
L 401.322071 73.066224 
L 402.003868 76.452039 
L 402.763268 81.4279 
L 403.622166 88.636605 
L 404.597746 98.827963 
L 405.717445 112.992171 
L 407.047781 132.849846 
L 408.666356 160.566812 
L 410.927927 203.495658 
L 415.434439 289.66086 
L 416.86455 312.334721 
L 418.028594 327.456649 
L 419.07069 338.24715 
L 420.040727 346.094526 
L 420.966419 351.856679 
L 421.864395 356.105505 
L 422.745743 359.245014 
L 423.621547 361.575422 
L 424.502895 363.314454 
L 425.411957 364.631611 
L 426.370908 365.635829 
L 427.396375 366.391394 
L 428.460644 366.906235 
L 429.386335 367.122055 
L 430.106934 367.07342 
L 430.711128 366.81258 
L 431.265435 366.326182 
L 431.819741 365.526545 
L 432.390677 364.286476 
L 433.000414 362.391989 
L 433.660039 359.568205 
L 434.386181 355.419053 
L 435.195468 349.41887 
L 436.110074 340.871327 
L 437.185429 328.586737 
L 438.510222 310.718653 
L 440.356062 282.518745 
L 447.318153 173.416508 
L 449.125192 149.669002 
L 450.660621 132.302247 
L 452.051931 118.992895 
L 453.354551 108.591541 
L 454.596198 100.397912 
L 455.832302 93.723994 
L 457.018518 88.51754 
L 458.193648 84.334692 
L 459.396493 80.886581 
L 460.610424 78.106641 
L 461.791097 75.949153 
L 463.010572 74.171719 
L 464.207874 72.781372 
L 465.499408 71.594993 
L 467.229454 70.402334 
L 468.731625 69.646246 
L 470.255968 69.076794 
L 472.340161 68.53221 
L 474.407724 68.177527 
L 477.611616 67.853992 
L 480.588242 67.695741 
L 486.219997 67.551557 
L 488.913927 67.440781 
L 495.284683 66.974318 
L 496.304607 67.130559 
L 496.930974 67.445554 
L 497.48528 67.956478 
L 498.050673 68.792445 
L 498.627152 70.066741 
L 499.264604 72.087078 
L 499.918686 74.938859 
L 500.667 79.269408 
L 501.49846 85.465307 
L 502.468496 94.484352 
L 503.593739 107.145178 
L 504.957333 125.12464 
L 506.775458 152.28298 
L 513.349534 253.274281 
L 514.724214 269.607557 
L 515.877172 280.80735 
L 516.880467 288.509195 
L 517.756271 293.623512 
L 518.515671 296.84113 
L 519.16421 298.708541 
L 519.70743 299.66636 
L 520.156419 300.054829 
L 520.533347 300.107805 
L 520.893646 299.930765 
L 521.303833 299.462166 
L 521.791623 298.535746 
L 522.362559 296.934096 
L 523.016641 294.386909 
L 523.748325 290.585773 
L 524.563156 285.111347 
L 525.488848 277.291844 
L 526.569746 266.153216 
L 527.916711 249.79565 
L 529.840154 223.416155 
L 534.723595 155.424386 
L 536.375429 136.100495 
L 537.816626 121.745305 
L 539.146962 110.636996 
L 540.38944 102.027896 
L 541.636629 94.931474 
L 542.828389 89.405252 
L 544.009062 84.95589 
L 545.150933 81.467337 
L 546.364864 78.486694 
L 547.556624 76.158396 
L 548.79827 74.2413 
L 550.039917 72.739674 
L 551.453399 71.426694 
L 552.756019 70.506578 
L 554.546429 69.580685 
L 556.602907 68.861774 
L 558.166051 68.482223 
L 560.449794 68.078558 
L 563.287844 67.676902 
L 568.176828 67.12428 
L 569.268812 67.234553 
L 569.928436 67.527442 
L 570.54926 68.081069 
L 571.103566 68.902969 
L 571.663416 70.143857 
L 572.256524 72.012976 
L 572.921692 74.908214 
L 573.636747 79.073478 
L 574.440492 85.132729 
L 575.338468 93.634068 
L 576.380565 105.700322 
L 577.58341 122.310838 
L 579.035693 145.614614 
L 580.89262 179.256368 
L 584.163029 243.404374 
L 586.646322 290.146388 
L 588.07089 312.980536 
L 589.229391 328.165764 
L 590.265944 338.96885 
L 591.230438 346.808652 
L 592.150587 352.560205 
L 593.04302 356.802148 
L 593.918824 359.938766 
L 594.789585 362.26878 
L 595.665389 364.004207 
L 596.563366 365.307209 
L 597.51123 366.297292 
L 598.536697 367.04927 
L 599.706284 367.628583 
L 601.119766 368.073136 
L 602.960063 368.406998 
L 605.609649 368.644251 
L 610.443202 368.815436 
L 616.701323 369.092482 
L 621.407996 369.27617 
L 622.206197 369.046038 
L 622.84365 368.630985 
L 623.425671 367.979804 
L 624.00215 366.986482 
L 624.600801 365.48763 
L 625.243797 363.238554 
L 625.947766 359.911567 
L 626.729339 355.072601 
L 627.610686 348.130753 
L 628.625067 338.26928 
L 629.844541 324.102585 
L 631.424315 302.952327 
L 634.001841 264.976056 
L 637.843185 208.869281 
L 639.75 184.263778 
L 641.246627 167.67921 
L 642.515989 155.952165 
L 643.641232 147.511138 
L 644.655613 141.495594 
L 645.564676 137.35967 
L 646.36842 134.667144 
L 647.050217 133.095612 
L 647.604524 132.319303 
L 648.047969 132.040882 
L 648.419354 132.055753 
L 648.785197 132.303352 
L 649.200927 132.879913 
L 649.683173 133.962626 
L 650.248566 135.826846 
L 650.897105 138.789554 
L 651.639876 143.294279 
L 652.487965 149.895301 
L 653.452458 159.241498 
L 654.572157 172.379111 
L 655.902493 190.769975 
L 657.570956 217.136885 
L 660.320316 264.761814 
L 662.615145 302.968429 
L 663.951024 321.665973 
L 665.070724 334.382387 
L 666.085105 343.493569 
L 667.038512 350.145455 
L 667.953118 355.035428 
L 668.845551 358.652425 
L 669.726899 361.334888 
L 670.608246 363.331487 
L 671.50068 364.821959 
L 672.426372 365.947103 
L 673.41858 366.806725 
L 674.516107 367.463087 
L 675.796556 367.965471 
L 677.392958 368.343629 
L 679.576926 368.617302 
L 683.024713 368.801769 
L 689.864856 368.906845 
L 691.7883 368.916982 
L 691.7883 368.916982 
" style="fill:none;stroke:#ff0000;stroke-linecap:square;stroke-width:1.5;"/>
   </g>
   <g id="line2d_15">
    <path clip-path="url(#pcd5cf7e08c)" d="M 138.436364 67.507347 
L 226.237304 67.396572 
L 232.27991 66.960251 
L 233.266576 67.070022 
L 233.970545 67.375974 
L 234.541481 67.869315 
L 235.112417 68.680916 
L 235.688896 69.92532 
L 236.282004 71.760026 
L 236.930543 74.527407 
L 237.645598 78.61229 
L 238.454886 84.624819 
L 239.352862 93.035477 
L 240.394959 105.003264 
L 241.614433 121.761582 
L 243.061173 144.913613 
L 244.901471 178.186944 
L 248.066561 240.244078 
L 250.655173 289.203012 
L 252.090827 312.355043 
L 253.254871 327.724043 
L 254.291424 338.61698 
L 255.261461 346.571331 
L 256.187153 352.404569 
L 257.079586 356.680109 
L 257.960934 359.860673 
L 258.831195 362.206381 
L 259.712542 363.965516 
L 260.616062 365.285665 
L 261.563926 366.285434 
L 262.604692 367.061399 
L 263.77766 367.663171 
L 265.246573 368.161188 
L 267.214361 368.579828 
L 269.980351 368.929795 
L 271.399376 368.930262 
L 272.197577 368.714458 
L 272.829486 368.313984 
L 273.411508 367.671275 
L 273.982444 366.691621 
L 274.575552 365.2031 
L 275.207462 362.975156 
L 275.894802 359.686215 
L 276.654202 354.903044 
L 277.507834 348.02166 
L 278.483413 338.245316 
L 279.647457 324.195601 
L 281.132999 303.36064 
L 283.427828 267.609275 
L 288.316812 191.090772 
L 290.384375 162.361578 
L 291.991864 142.960118 
L 293.377631 128.809951 
L 294.630364 118.201741 
L 295.794407 110.154457 
L 296.886391 104.070086 
L 297.917402 99.491612 
L 298.904067 96.050031 
L 299.802044 93.639092 
L 300.622418 92.019909 
L 301.276499 91.162591 
L 301.792004 90.802884 
L 302.213277 90.750134 
L 302.590206 90.912404 
L 303.005936 91.348473 
L 303.471553 92.192226 
L 303.987058 93.606688 
L 304.586319 95.936493 
L 305.273659 99.566467 
L 306.044145 104.88646 
L 306.942122 112.756302 
L 307.973132 123.934945 
L 309.148262 139.250466 
L 310.550658 160.608459 
L 312.324439 191.260452 
L 315.229005 245.964471 
L 317.834246 293.493596 
L 319.242185 315.277108 
L 320.389599 329.774297 
L 321.42061 340.125915 
L 322.385103 347.672051 
L 323.305252 353.202093 
L 324.197685 357.277602 
L 325.07349 360.289762 
L 325.949294 362.537927 
L 326.830642 364.210129 
L 327.734161 365.463149 
L 328.687569 366.413408 
L 329.728833 367.139871 
L 330.926136 367.70073 
L 332.389505 368.131728 
L 334.329578 368.457697 
L 337.455867 368.728869 
L 344.340354 369.066816 
L 348.863496 369.102655 
L 351.906639 368.892149 
L 356.568357 368.557584 
L 360.631424 368.56234 
L 385.308155 368.932123 
L 403.688683 369.063826 
L 410.168527 369.256012 
L 410.889125 368.969681 
L 411.49332 368.486899 
L 412.058712 367.7395 
L 412.629648 366.595321 
L 413.228299 364.864343 
L 413.871295 362.281829 
L 414.580807 358.449746 
L 415.367923 352.900296 
L 416.260356 344.92359 
L 417.296909 333.532454 
L 418.560728 317.027287 
L 420.262449 291.63048 
L 423.998476 231.429177 
L 426.964016 185.686856 
L 428.959519 158.152858 
L 430.572552 138.831353 
L 431.986033 124.454108 
L 433.277568 113.494806 
L 434.469327 105.174577 
L 435.605655 98.720452 
L 436.719811 93.63884 
L 437.811795 89.695881 
L 438.864978 86.723779 
L 439.829471 84.617786 
L 440.732991 83.135251 
L 441.514563 82.258843 
L 442.096585 81.903406 
L 442.573289 81.848395 
L 443.038906 82.044576 
L 443.482351 82.502248 
L 443.959055 83.335702 
L 444.507819 84.794876 
L 445.100927 87.041788 
L 445.771637 90.489648 
L 446.542124 95.689822 
L 447.406842 103.117064 
L 448.382421 113.463659 
L 449.529836 128.119073 
L 450.882344 148.408295 
L 452.561893 177.161277 
L 455.017471 223.467549 
L 458.637093 291.414631 
L 460.061661 313.883872 
L 461.220161 328.824666 
L 462.256715 339.451942 
L 463.221208 347.163207 
L 464.141357 352.820171 
L 465.033791 356.992421 
L 465.915138 360.094581 
L 466.786397 362.383532 
L 467.661813 364.086969 
L 468.565333 365.373532 
L 469.513197 366.344411 
L 470.549751 367.088746 
L 471.730424 367.659641 
L 473.166078 368.098622 
L 475.045177 368.427614 
L 477.761279 368.659355 
L 482.672435 368.819156 
L 493.464784 368.917906 
L 501.858759 369.055789 
L 508.726617 369.249422 
L 509.596879 368.987733 
L 510.311934 368.538657 
L 510.966016 367.857387 
L 511.614555 366.846233 
L 512.285265 365.367465 
L 513.005864 363.207888 
L 513.798522 360.085824 
L 514.690956 355.61192 
L 515.721966 349.236396 
L 516.963613 340.073491 
L 518.626533 325.991548 
L 523.598662 282.820578 
L 524.973343 273.297064 
L 526.104128 266.929475 
L 527.068622 262.685914 
L 527.900081 259.955408 
L 528.609594 258.328564 
L 529.191616 257.495938 
L 529.668319 257.166022 
L 530.06742 257.144746 
L 530.449892 257.351854 
L 530.876708 257.856901 
L 531.37004 258.815826 
L 531.940976 260.447618 
L 532.600601 263.050996 
L 533.360001 267.010459 
L 534.241348 272.866069 
L 535.277902 281.348844 
L 536.574979 293.938708 
L 541.060151 339.2376 
L 542.163221 347.197846 
L 543.172059 352.939261 
L 544.125466 357.144287 
L 545.051158 360.264427 
L 545.960221 362.57761 
L 546.869283 364.303811 
L 547.794975 365.597738 
L 548.765012 366.577171 
L 549.812651 367.320133 
L 550.998867 367.885795 
L 552.423435 368.311138 
L 554.263733 368.61653 
L 556.929948 368.814589 
L 561.730242 368.913957 
L 576.302962 369.135132 
L 581.186403 369.296713 
L 581.956889 369.051291 
L 582.577712 368.61824 
L 583.148648 367.93802 
L 583.714041 366.899877 
L 584.301606 365.328028 
L 584.933515 362.957801 
L 585.620855 359.463333 
L 586.385798 354.350226 
L 587.244973 347.015081 
L 588.237182 336.520583 
L 589.434484 321.340931 
L 591.003172 298.386387 
L 593.669387 255.532019 
L 597.555574 193.790558 
L 599.678569 163.509198 
L 601.358117 142.588254 
L 602.82703 126.954849 
L 604.179538 114.843707 
L 605.454443 105.350663 
L 606.67946 97.833243 
L 607.893392 91.745607 
L 609.10178 86.835057 
L 610.227022 83.126711 
L 611.435411 79.911705 
L 612.544024 77.536435 
L 613.8023 75.379952 
L 615.121549 73.606538 
L 616.446342 72.216944 
L 617.660273 71.214688 
L 619.198585 70.236547 
L 621.701778 69.152905 
L 623.348069 68.673631 
L 627.217128 67.910761 
L 630.321245 67.460877 
L 633.053976 67.200893 
L 634.151503 67.310915 
L 634.894274 67.626412 
L 635.515098 68.151152 
L 636.091576 68.941402 
L 636.684684 70.148881 
L 637.294422 71.898935 
L 637.976219 74.569859 
L 638.730076 78.497495 
L 639.550449 83.989555 
L 640.5094 91.99278 
L 641.623556 103.267779 
L 642.942806 118.953357 
L 644.683328 142.492449 
L 648.147744 193.242934 
L 650.431487 224.840187 
L 651.950287 242.94208 
L 653.175305 255.048751 
L 654.217401 263.275462 
L 655.115378 268.714721 
L 655.891407 272.151503 
L 656.551032 274.155638 
L 657.110881 275.21195 
L 657.570956 275.652063 
L 657.953427 275.733701 
L 658.313727 275.580775 
L 658.71837 275.148147 
L 659.195074 274.287539 
L 659.760467 272.77152 
L 660.414548 270.328478 
L 661.146233 266.678961 
L 661.966607 261.385996 
L 662.897842 253.831776 
L 663.984283 243.088475 
L 665.336791 227.352935 
L 667.310122 201.499788 
L 671.184725 150.450937 
L 672.819929 132.138043 
L 674.244497 118.589003 
L 675.558204 108.134874 
L 676.794307 99.983194 
L 677.997153 93.457731 
L 679.133481 88.402745 
L 680.286439 84.21412 
L 681.450482 80.792635 
L 682.614526 78.043089 
L 683.845087 75.733128 
L 684.986958 74.033564 
L 686.267406 72.533697 
L 687.486881 71.421922 
L 688.795044 70.498038 
L 690.158639 69.764306 
L 691.51669 69.211182 
L 691.7883 69.11799 
L 691.7883 69.11799 
" style="fill:none;stroke:#008000;stroke-linecap:square;stroke-width:1.5;"/>
   </g>
   <g id="line2d_16">
    <path clip-path="url(#pcd5cf7e08c)" d="M 138.436364 368.937626 
L 202.734705 368.82735 
L 207.612603 368.590927 
L 210.600316 368.238823 
L 212.79537 367.768956 
L 214.563608 367.170437 
L 216.026977 366.451155 
L 217.368399 365.540147 
L 218.587873 364.429575 
L 219.6854 363.128776 
L 220.721953 361.56583 
L 221.758507 359.595642 
L 222.79506 357.120064 
L 223.831613 354.021971 
L 224.868167 350.164332 
L 225.90472 345.39099 
L 226.941273 339.530244 
L 227.977826 332.40256 
L 229.075353 323.281439 
L 230.233854 311.70815 
L 231.492795 296.726649 
L 232.895191 277.125624 
L 234.541481 250.761468 
L 237.834062 193.214884 
L 239.846195 160.466198 
L 241.370538 139.141113 
L 242.71196 123.379479 
L 243.931434 111.513492 
L 245.089935 102.26716 
L 246.248436 94.778781 
L 247.345963 89.085569 
L 248.44349 84.545246 
L 249.480043 81.144041 
L 250.516596 78.460975 
L 251.55315 76.377914 
L 252.528729 74.879892 
L 253.504309 73.767672 
L 254.418915 73.03611 
L 255.33352 72.582358 
L 256.187153 72.401074 
L 256.979811 72.444683 
L 257.772469 72.703683 
L 258.565128 73.198298 
L 259.357786 73.958804 
L 260.150444 75.026763 
L 261.004077 76.583284 
L 261.857709 78.645912 
L 262.691219 81.251165 
L 263.544852 84.652326 
L 264.459457 89.292126 
L 265.374063 95.171024 
L 266.288669 102.519949 
L 267.264249 112.238605 
L 268.300802 124.954181 
L 269.398329 141.285801 
L 270.617803 162.820945 
L 272.20312 195.128049 
L 276.288359 280.551642 
L 277.568808 301.773616 
L 278.727308 317.471718 
L 279.763862 328.754867 
L 280.800415 337.668157 
L 281.775994 344.169684 
L 282.6906 348.848045 
L 283.544232 352.164877 
L 284.397864 354.618891 
L 285.190523 356.23193 
L 285.922207 357.221407 
L 286.531945 357.715021 
L 287.141682 357.929576 
L 287.690445 357.895929 
L 288.300183 357.614736 
L 288.90992 357.08047 
L 289.580631 356.19891 
L 290.312315 354.876422 
L 291.165948 352.831778 
L 292.080553 349.991458 
L 292.995159 346.406763 
L 293.970739 341.661903 
L 295.007292 335.444561 
L 296.043845 327.865623 
L 297.141372 318.197659 
L 298.299873 306.018557 
L 299.580321 290.130898 
L 301.043691 269.020712 
L 302.872902 239.16022 
L 307.618376 159.925546 
L 309.142719 138.996908 
L 310.484141 123.476822 
L 311.764589 111.211432 
L 312.984064 101.68284 
L 314.142564 94.354334 
L 315.240091 88.744217 
L 316.337618 84.227414 
L 317.435145 80.618318 
L 318.532672 77.752298 
L 319.630199 75.488314 
L 320.727726 73.708787 
L 321.886227 72.250452 
L 323.044728 71.136276 
L 324.264202 70.260824 
L 325.54465 69.608775 
L 326.886072 69.174093 
L 328.227494 68.971489 
L 329.545912 69.001926 
L 330.765387 69.258157 
L 331.862914 69.714339 
L 332.899467 70.388122 
L 333.875047 71.290402 
L 334.850626 72.515548 
L 335.765232 74.024555 
L 336.679838 75.95755 
L 337.594444 78.398148 
L 338.570023 81.663315 
L 339.545603 85.721834 
L 340.582156 91.018623 
L 341.679683 97.830386 
L 342.899157 106.880029 
L 344.362527 119.573902 
L 348.99653 161.409887 
L 349.911135 167.007274 
L 350.64282 170.26931 
L 351.252557 172.085293 
L 351.740347 172.92754 
L 352.106189 173.201703 
L 352.411058 173.198553 
L 352.715927 172.988638 
L 353.081769 172.470948 
L 353.569559 171.348272 
L 354.179296 169.296734 
L 354.910981 165.986223 
L 355.825586 160.765229 
L 357.106035 151.998787 
L 359.605957 132.838554 
L 361.801011 116.799719 
L 363.386328 106.744657 
L 364.849697 98.842582 
L 366.191119 92.760415 
L 367.471567 87.917139 
L 368.728845 83.978024 
L 370.009294 80.688407 
L 371.289742 78.017986 
L 372.57019 75.86456 
L 373.850638 74.137348 
L 375.19206 72.699959 
L 376.594456 71.523966 
L 378.118799 70.544065 
L 379.765089 69.755248 
L 381.594301 69.126657 
L 383.667407 68.64894 
L 386.045382 68.333236 
L 388.484331 68.230405 
L 390.679385 68.352147 
L 392.447623 68.659409 
L 393.910993 69.128104 
L 395.191441 69.774493 
L 396.288968 70.577969 
L 397.325521 71.627202 
L 398.301101 72.958948 
L 399.215706 74.604468 
L 400.130312 76.745358 
L 400.983944 79.309859 
L 401.837576 82.557974 
L 402.752182 86.976816 
L 403.649882 92.469952 
L 404.564488 99.487054 
L 405.540067 108.836402 
L 406.515647 120.385641 
L 407.5522 135.288262 
L 408.710701 155.198137 
L 410.113096 183.339687 
L 415.356836 293.303567 
L 416.576311 311.903118 
L 417.673838 325.365293 
L 418.710391 335.439647 
L 419.685971 342.86935 
L 420.66155 348.613491 
L 421.576156 352.724022 
L 422.490762 355.817107 
L 423.344394 357.94341 
L 424.137052 359.366076 
L 424.868737 360.274118 
L 425.600422 360.839604 
L 426.271133 361.085539 
L 426.941844 361.089162 
L 427.612554 360.861049 
L 428.344239 360.35255 
L 429.075924 359.570135 
L 429.868582 358.400506 
L 430.722214 356.738986 
L 431.63682 354.447829 
L 432.6124 351.344144 
L 433.587979 347.457363 
L 434.624533 342.333806 
L 435.661086 336.028793 
L 436.758613 327.881501 
L 437.85614 318.042592 
L 439.075614 304.961032 
L 440.356062 288.721389 
L 441.819432 267.211607 
L 443.709617 235.872966 
L 448.038751 162.829789 
L 449.563094 141.352264 
L 450.904516 125.363667 
L 452.184964 112.6995 
L 453.404439 102.850046 
L 454.56294 95.272926 
L 455.660467 89.474925 
L 456.757994 84.811138 
L 457.855521 81.08942 
L 458.953048 78.138298 
L 460.050575 75.810011 
L 461.148102 73.980439 
L 462.306602 72.477554 
L 463.526077 71.266447 
L 464.806525 70.308542 
L 466.20892 69.535999 
L 467.844735 68.899992 
L 469.73492 68.411373 
L 472.112895 68.039119 
L 475.222555 67.793881 
L 479.246821 67.707708 
L 483.271086 67.832279 
L 486.197825 68.130359 
L 488.392879 68.571766 
L 490.100143 69.135063 
L 491.563512 69.853207 
L 492.843961 70.736246 
L 494.002461 71.814658 
L 495.074047 73.123734 
L 496.1106 74.756857 
L 497.08618 76.710027 
L 498.061759 79.165764 
L 499.037339 82.239787 
L 500.012918 86.066817 
L 500.988498 90.799306 
L 502.025051 97.005424 
L 503.061604 104.62574 
L 504.159131 114.447744 
L 505.317632 126.95903 
L 506.537106 142.589311 
L 507.939502 163.483438 
L 509.890661 196.311853 
L 513.061295 249.868157 
L 514.46369 269.639309 
L 515.622191 282.937278 
L 516.597771 291.739328 
L 517.451403 297.576826 
L 518.183087 301.194747 
L 518.792825 303.247417 
L 519.341588 304.362705 
L 519.768404 304.761129 
L 520.073273 304.799415 
L 520.378141 304.635951 
L 520.743984 304.177963 
L 521.231773 303.132198 
L 521.780537 301.376839 
L 522.451248 298.426863 
L 523.243906 293.847872 
L 524.158512 287.17578 
L 525.256039 277.359171 
L 526.536487 263.705266 
L 528.121804 244.167742 
L 530.438805 212.471487 
L 533.853334 166.037725 
L 535.621572 145.00828 
L 537.145915 129.361661 
L 538.54831 117.129162 
L 539.906306 107.20044 
L 541.159926 99.576653 
L 542.3794 93.425857 
L 543.598875 88.361971 
L 544.818349 84.226918 
L 546.037824 80.872983 
L 547.257298 78.167665 
L 548.476772 75.995634 
L 549.696247 74.258779 
L 550.976695 72.813967 
L 552.318117 71.633753 
L 553.720513 70.688906 
L 555.244856 69.925188 
L 556.95212 69.325134 
L 558.781331 68.922756 
L 560.671517 68.736049 
L 562.439755 68.779029 
L 564.025072 69.037114 
L 565.366493 69.474478 
L 566.524994 70.0746 
L 567.561547 70.847972 
L 568.537127 71.846254 
L 569.451733 73.092171 
L 570.366339 74.724357 
L 571.280944 76.849736 
L 572.134577 79.395298 
L 572.988209 82.617181 
L 573.902814 86.99574 
L 574.81742 92.546829 
L 575.732026 99.511392 
L 576.707606 108.7777 
L 577.683185 120.210419 
L 578.780712 135.902325 
L 580.000187 156.895611 
L 581.463556 186.366556 
L 586.463401 291.138906 
L 587.682876 310.169798 
L 588.780403 324.084287 
L 589.816956 334.614512 
L 590.853509 342.921417 
L 591.829089 349.029132 
L 592.804668 353.779183 
L 593.780248 357.438783 
L 594.739697 360.197103 
L 595.715277 362.334477 
L 596.690856 363.951482 
L 597.727409 365.234523 
L 598.824936 366.226019 
L 599.983437 366.970813 
L 601.263885 367.533899 
L 602.788228 367.955049 
L 604.61744 368.218506 
L 606.812494 368.298996 
L 609.190469 368.162777 
L 611.446497 367.813861 
L 613.397656 367.287503 
L 615.043946 366.615847 
L 616.507316 365.776287 
L 617.787764 364.790638 
L 619.007238 363.567689 
L 620.155263 362.093201 
L 621.25279 360.315694 
L 622.350317 358.09252 
L 623.38687 355.492468 
L 624.423423 352.304784 
L 625.52095 348.162506 
L 626.618477 343.083744 
L 627.716004 336.907778 
L 628.874505 329.01916 
L 630.033006 319.552355 
L 631.25248 307.737242 
L 632.593902 292.478742 
L 634.118245 272.413081 
L 636.00843 244.374877 
L 640.642433 174.315255 
L 642.105803 156.299987 
L 643.325277 143.974021 
L 644.36183 135.659131 
L 645.276436 130.073626 
L 646.008121 126.827071 
L 646.617858 124.969033 
L 647.166622 123.96575 
L 647.593438 123.628996 
L 647.898306 123.628428 
L 648.203175 123.829414 
L 648.569017 124.338595 
L 649.056807 125.476108 
L 649.60557 127.388193 
L 650.276281 130.643096 
L 651.007966 135.352762 
L 651.861598 142.37257 
L 652.837178 152.364621 
L 653.934705 165.970413 
L 655.276127 185.544359 
L 657.105338 215.839193 
L 660.763762 277.029397 
L 662.288105 298.469054 
L 663.629526 314.310046 
L 664.849001 326.202769 
L 666.007502 335.434919 
L 667.105029 342.530405 
L 668.202556 348.243896 
L 669.300083 352.79662 
L 670.39761 356.394231 
L 671.495137 359.218389 
L 672.592664 361.423905 
L 673.690191 363.139317 
L 674.848691 364.53369 
L 676.068166 365.645043 
L 677.348614 366.51407 
L 678.811983 367.231831 
L 680.458274 367.789629 
L 682.470407 368.230743 
L 685.092277 368.562195 
L 688.7507 368.782526 
L 694.97013 368.903167 
L 712.469589 368.937129 
L 747.163636 368.937625 
L 747.163636 368.937625 
" style="fill:none;stroke:#ff0000;stroke-dasharray:5.55,2.4;stroke-dashoffset:0;stroke-width:1.5;"/>
   </g>
   <g id="line2d_17">
    <path clip-path="url(#pcd5cf7e08c)" d="M 138.436364 67.507347 
L 220.417085 67.616839 
L 224.258429 67.851478 
L 226.636404 68.20605 
L 228.404642 68.689509 
L 229.807038 69.299926 
L 231.005005 70.0634 
L 232.041559 70.978907 
L 233.017138 72.133561 
L 233.931744 73.555566 
L 234.84635 75.403029 
L 235.760956 77.795142 
L 236.675561 80.878948 
L 237.590167 84.832103 
L 238.504773 89.863222 
L 239.419379 96.207731 
L 240.333985 104.116508 
L 241.309564 114.551904 
L 242.346118 128.16658 
L 243.443645 145.575434 
L 244.724093 169.587355 
L 246.431357 206.180502 
L 249.541017 273.34316 
L 250.882439 297.355832 
L 252.040939 314.457523 
L 253.138466 327.534606 
L 254.17502 337.335276 
L 255.150599 344.600186 
L 256.126179 350.274459 
L 257.101758 354.647984 
L 258.016364 357.796174 
L 258.93097 360.20748 
L 259.845576 362.030115 
L 260.760182 363.382942 
L 261.674787 364.358956 
L 262.630246 365.052702 
L 263.605825 365.47771 
L 264.581405 365.659049 
L 265.556984 365.622805 
L 266.593538 365.358524 
L 267.630091 364.859161 
L 268.666644 364.106937 
L 269.703197 363.068833 
L 270.739751 361.696131 
L 271.776304 359.92344 
L 272.751884 357.815257 
L 273.788437 355.011081 
L 274.82499 351.5065 
L 275.861543 347.160979 
L 276.898097 341.817198 
L 277.93465 335.306901 
L 279.032177 326.954769 
L 280.190678 316.315559 
L 281.410152 302.931116 
L 282.751574 285.569968 
L 284.275917 262.761679 
L 286.349024 228.037793 
L 289.885499 168.649755 
L 291.470816 145.964077 
L 292.812238 129.754847 
L 294.031712 117.544987 
L 295.190213 108.12343 
L 296.226766 101.385817 
L 297.202346 96.399145 
L 298.116952 92.834197 
L 298.90961 90.564128 
L 299.641295 89.118036 
L 300.251032 88.380205 
L 300.738822 88.095011 
L 301.165638 88.069847 
L 301.592454 88.257469 
L 302.080244 88.738663 
L 302.629007 89.631812 
L 303.238745 91.081998 
L 303.909455 93.268731 
L 304.691637 96.664018 
L 305.484296 101.11861 
L 306.337928 107.170069 
L 307.252534 115.233627 
L 308.289087 126.507701 
L 309.386614 141.031497 
L 310.606088 160.224981 
L 312.130432 188.05418 
L 317.557093 291.169763 
L 318.837541 309.445084 
L 319.996042 323.019663 
L 321.093569 333.434143 
L 322.130122 341.328259 
L 323.166675 347.608837 
L 324.203228 352.546792 
L 325.239782 356.393077 
L 326.215361 359.213022 
L 327.251915 361.535928 
L 328.288468 363.314752 
L 329.362991 364.715394 
L 330.460518 365.790395 
L 331.679993 366.669511 
L 333.021414 367.357255 
L 334.606731 367.907399 
L 336.496917 368.319603 
L 338.996839 368.623491 
L 342.655262 368.821043 
L 349.301398 368.918387 
L 374.094533 368.935734 
L 391.837886 368.817597 
L 396.532863 368.576787 
L 399.520575 368.211177 
L 401.715629 367.723804 
L 403.466961 367.110743 
L 404.93033 366.368791 
L 406.210778 365.478984 
L 407.369279 364.414996 
L 408.466806 363.112468 
L 409.503359 361.548101 
L 410.539912 359.57693 
L 411.576466 357.101122 
L 412.613019 354.00399 
L 413.649572 350.149073 
L 414.686125 345.38093 
L 415.722679 339.528718 
L 416.820206 331.952241 
L 417.917733 322.755501 
L 419.076233 311.101166 
L 420.295708 296.547909 
L 421.698103 276.957353 
L 423.344394 250.629083 
L 429.563714 147.488057 
L 430.966109 129.859825 
L 432.246557 116.536703 
L 433.405058 106.686496 
L 434.502585 99.131672 
L 435.539138 93.42332 
L 436.514718 89.179972 
L 437.429324 86.093542 
L 438.282956 83.921797 
L 439.075614 82.475909 
L 439.746325 81.663076 
L 440.356062 81.244548 
L 440.904826 81.129173 
L 441.392616 81.237946 
L 441.941379 81.605314 
L 442.490143 82.243457 
L 443.09988 83.289347 
L 443.770591 84.881515 
L 444.502275 87.198433 
L 445.294934 90.472152 
L 446.148566 95.004429 
L 447.063172 101.182693 
L 447.977778 108.914115 
L 448.953357 119.07313 
L 449.98991 132.207571 
L 451.148411 149.815123 
L 452.489833 173.773898 
L 454.380018 212.059798 
L 457.306757 271.281117 
L 458.709153 295.213518 
L 459.928627 312.535887 
L 461.087128 325.923334 
L 462.184655 336.057973 
L 463.221208 343.642934 
L 464.257761 349.604453 
L 465.233341 353.995399 
L 466.20892 357.429817 
L 467.174024 360.073997 
L 468.149603 362.144325 
L 469.186156 363.826005 
L 470.22271 365.096618 
L 471.320237 366.102496 
L 472.539711 366.916014 
L 473.881133 367.544579 
L 475.46645 368.040058 
L 477.478583 368.421715 
L 480.161426 368.685039 
L 484.124718 368.82962 
L 490.222091 368.816184 
L 495.439889 368.604993 
L 498.793444 368.259457 
L 501.232393 367.79537 
L 503.183552 367.205033 
L 504.829842 366.477719 
L 506.293212 365.582531 
L 507.57366 364.541302 
L 508.793134 363.258852 
L 509.951635 361.707737 
L 511.049162 359.866524 
L 512.146689 357.582837 
L 513.244216 354.76528 
L 514.341743 351.311965 
L 515.43927 347.114255 
L 516.597771 341.756257 
L 517.756271 335.336113 
L 519.036719 326.916969 
L 520.439115 316.109519 
L 522.146379 301.069541 
L 525.987724 266.420569 
L 527.024277 259.309636 
L 527.816935 255.199235 
L 528.487646 252.793745 
L 528.975436 251.722353 
L 529.402252 251.277134 
L 529.707121 251.246868 
L 530.011989 251.458509 
L 530.377832 252.031512 
L 530.804648 253.134885 
L 531.353411 255.221695 
L 532.024122 258.733185 
L 532.877754 264.561057 
L 533.975281 273.83269 
L 535.621572 289.95632 
L 538.487337 317.975595 
L 539.940451 329.912987 
L 541.2209 338.674143 
L 542.440374 345.497615 
L 543.598875 350.726624 
L 544.696402 354.699918 
L 545.793929 357.866989 
L 546.891456 360.367147 
L 547.988983 362.325685 
L 549.08651 363.850515 
L 550.24501 365.088885 
L 551.464485 366.073118 
L 552.805907 366.869697 
L 554.33025 367.508619 
L 556.098488 368.001393 
L 558.293542 368.368994 
L 561.098333 368.597655 
L 564.573835 368.651888 
L 568.049337 368.494019 
L 570.793155 368.158754 
L 572.927235 367.680182 
L 574.634499 367.077348 
L 576.097868 366.330199 
L 577.378317 365.433419 
L 578.536817 364.36109 
L 579.634344 363.048787 
L 580.670898 361.473454 
L 581.707451 359.489612 
L 582.744004 356.999492 
L 583.780557 353.88659 
L 584.817111 350.014812 
L 585.853664 345.229326 
L 586.890217 339.360193 
L 587.987744 331.767628 
L 589.085271 322.558479 
L 590.243772 310.897296 
L 591.463246 296.346186 
L 592.865642 276.771933 
L 594.556776 249.72458 
L 600.715122 147.585852 
L 602.117517 129.815187 
L 603.397966 116.295626 
L 604.61744 105.720836 
L 605.775941 97.55368 
L 606.873468 91.288201 
L 607.970995 86.240723 
L 609.068522 82.210091 
L 610.166049 79.014408 
L 611.263576 76.495593 
L 612.361103 74.52019 
L 613.45863 72.977982 
L 614.61713 71.721471 
L 615.836605 70.720997 
L 617.178027 69.914182 
L 618.641396 69.300463 
L 620.27721 68.862687 
L 622.106422 68.612594 
L 623.996607 68.577561 
L 625.825819 68.757504 
L 627.533083 69.148397 
L 628.996452 69.705675 
L 630.337874 70.457252 
L 631.557349 71.405268 
L 632.654876 72.539112 
L 633.691429 73.921279 
L 634.727982 75.683392 
L 635.764536 77.918697 
L 636.740115 80.554907 
L 637.715695 83.818908 
L 638.752248 88.114324 
L 639.788801 93.423937 
L 640.825354 99.920862 
L 641.922881 108.280757 
L 643.081382 118.938528 
L 644.300857 132.311924 
L 645.642278 149.523226 
L 647.349543 174.570369 
L 651.983546 244.526215 
L 653.20302 258.743155 
L 654.239573 268.325184 
L 655.093205 274.309011 
L 655.82489 278.011449 
L 656.434627 280.081307 
L 656.922417 281.076028 
L 657.288259 281.440856 
L 657.593128 281.498608 
L 657.897997 281.335594 
L 658.263839 280.853304 
L 658.690655 279.903632 
L 659.239418 278.088121 
L 659.910129 274.998445 
L 660.702788 270.185126 
L 661.617394 263.197586 
L 662.714921 253.029814 
L 664.056343 238.450345 
L 665.946528 215.201488 
L 670.763452 154.753385 
L 672.470716 136.644487 
L 673.995059 122.771598 
L 675.397455 111.971449 
L 676.738877 103.314869 
L 678.019325 96.44114 
L 679.299773 90.765392 
L 680.519247 86.32331 
L 681.738722 82.68125 
L 682.958196 79.71238 
L 684.177671 77.303654 
L 685.458119 75.27007 
L 686.738567 73.64935 
L 688.079989 72.306935 
L 689.482385 71.212001 
L 691.006728 70.3004 
L 692.713992 69.541032 
L 694.665262 68.921209 
L 696.982263 68.424754 
L 699.909002 68.038108 
L 703.81132 67.762978 
L 709.725771 67.591736 
L 721.554673 67.516531 
L 747.163636 67.507422 
L 747.163636 67.507422 
" style="fill:none;stroke:#008000;stroke-dasharray:5.55,2.4;stroke-dashoffset:0;stroke-width:1.5;"/>
   </g>
   <g id="patch_3">
    <path d="M 108 384.48 
L 108 51.84 
" style="fill:none;stroke:#000000;stroke-linecap:square;stroke-linejoin:miter;stroke-width:0.8;"/>
   </g>
   <g id="patch_4">
    <path d="M 777.6 384.48 
L 777.6 51.84 
" style="fill:none;stroke:#000000;stroke-linecap:square;stroke-linejoin:miter;stroke-width:0.8;"/>
   </g>
   <g id="patch_5">
    <path d="M 108 384.48 
L 777.6 384.48 
" style="fill:none;stroke:#000000;stroke-linecap:square;stroke-linejoin:miter;stroke-width:0.8;"/>
   </g>
   <g id="patch_6">
    <path d="M 108 51.84 
L 777.6 51.84 
" style="fill:none;stroke:#000000;stroke-linecap:square;stroke-linejoin:miter;stroke-width:0.8;"/>
   </g>
   <g id="text_17">
    <!-- In  RMSE: 0.0139 -->
    <defs>
     <path d="M 9.8125 72.90625 
L 50.296875 72.90625 
L 50.296875 64.59375 
L 35.015625 64.59375 
L 35.015625 8.296875 
L 50.296875 8.296875 
L 50.296875 0 
L 9.8125 0 
L 9.8125 8.296875 
L 25.09375 8.296875 
L 25.09375 64.59375 
L 9.8125 64.59375 
z
" id="DejaVuSansMono-49"/>
     <path d="M 51.3125 33.890625 
L 51.3125 0 
L 42.28125 0 
L 42.28125 33.890625 
Q 42.28125 41.265625 39.6875 44.71875 
Q 37.109375 48.1875 31.59375 48.1875 
Q 25.296875 48.1875 21.890625 43.71875 
Q 18.5 39.265625 18.5 30.90625 
L 18.5 0 
L 9.515625 0 
L 9.515625 54.6875 
L 18.5 54.6875 
L 18.5 46.484375 
Q 20.90625 51.171875 25 53.578125 
Q 29.109375 56 34.71875 56 
Q 43.0625 56 47.1875 50.5 
Q 51.3125 45.015625 51.3125 33.890625 
z
" id="DejaVuSansMono-6e"/>
     <path id="DejaVuSansMono-20"/>
     <path d="M 37.109375 34.421875 
Q 40.921875 33.453125 43.609375 30.734375 
Q 46.296875 28.03125 50.296875 19.921875 
L 60.203125 0 
L 49.609375 0 
L 40.921875 18.40625 
Q 37.15625 26.265625 34.15625 28.53125 
Q 31.15625 30.8125 26.3125 30.8125 
L 16.890625 30.8125 
L 16.890625 0 
L 6.984375 0 
L 6.984375 72.90625 
L 27.296875 72.90625 
Q 39.3125 72.90625 45.703125 67.484375 
Q 52.09375 62.0625 52.09375 51.8125 
Q 52.09375 44.578125 48.15625 40.015625 
Q 44.234375 35.453125 37.109375 34.421875 
z
M 16.890625 64.796875 
L 16.890625 38.921875 
L 27.6875 38.921875 
Q 34.765625 38.921875 38.234375 42.09375 
Q 41.703125 45.265625 41.703125 51.8125 
Q 41.703125 58.109375 38.015625 61.453125 
Q 34.328125 64.796875 27.296875 64.796875 
z
" id="DejaVuSansMono-52"/>
     <path d="M 4.203125 72.90625 
L 17.390625 72.90625 
L 29.984375 35.796875 
L 42.671875 72.90625 
L 55.90625 72.90625 
L 55.90625 0 
L 46.78125 0 
L 46.78125 64.40625 
L 33.796875 25.984375 
L 26.3125 25.984375 
L 13.28125 64.40625 
L 13.28125 0 
L 4.203125 0 
z
" id="DejaVuSansMono-4d"/>
     <path d="M 49.421875 70.40625 
L 49.421875 60.40625 
Q 44.921875 63.28125 40.40625 64.75 
Q 35.890625 66.21875 31.296875 66.21875 
Q 24.3125 66.21875 20.265625 62.96875 
Q 16.21875 59.71875 16.21875 54.203125 
Q 16.21875 49.359375 18.875 46.8125 
Q 21.53125 44.28125 28.8125 42.578125 
L 33.984375 41.40625 
Q 44.234375 39.015625 48.921875 33.890625 
Q 53.609375 28.765625 53.609375 19.921875 
Q 53.609375 9.515625 47.15625 4.046875 
Q 40.71875 -1.421875 28.421875 -1.421875 
Q 23.296875 -1.421875 18.109375 -0.3125 
Q 12.9375 0.78125 7.71875 2.984375 
L 7.71875 13.484375 
Q 13.328125 9.90625 18.328125 8.25 
Q 23.34375 6.59375 28.421875 6.59375 
Q 35.890625 6.59375 40.03125 9.9375 
Q 44.1875 13.28125 44.1875 19.28125 
Q 44.1875 24.75 41.328125 27.625 
Q 38.484375 30.515625 31.390625 32.078125 
L 26.125 33.296875 
Q 15.96875 35.59375 11.375 40.234375 
Q 6.78125 44.875 6.78125 52.6875 
Q 6.78125 62.453125 13.34375 68.328125 
Q 19.921875 74.21875 30.8125 74.21875 
Q 35.015625 74.21875 39.640625 73.265625 
Q 44.28125 72.3125 49.421875 70.40625 
z
" id="DejaVuSansMono-53"/>
     <path d="M 9.625 72.90625 
L 52.875 72.90625 
L 52.875 64.59375 
L 19.484375 64.59375 
L 19.484375 43.015625 
L 51.421875 43.015625 
L 51.421875 34.71875 
L 19.484375 34.71875 
L 19.484375 8.296875 
L 53.8125 8.296875 
L 53.8125 0 
L 9.625 0 
z
" id="DejaVuSansMono-45"/>
     <path d="M 23.875 51.90625 
L 36.1875 51.90625 
L 36.1875 37.109375 
L 23.875 37.109375 
z
M 23.875 14.890625 
L 36.1875 14.890625 
L 36.1875 0 
L 23.875 0 
z
" id="DejaVuSansMono-3a"/>
     <path d="M 23.578125 36.625 
Q 23.578125 39.3125 25.453125 41.265625 
Q 27.34375 43.21875 29.984375 43.21875 
Q 32.71875 43.21875 34.671875 41.265625 
Q 36.625 39.3125 36.625 36.625 
Q 36.625 33.890625 34.6875 31.984375 
Q 32.765625 30.078125 29.984375 30.078125 
Q 27.25 30.078125 25.40625 31.9375 
Q 23.578125 33.796875 23.578125 36.625 
z
M 30.078125 66.40625 
Q 23.1875 66.40625 19.796875 58.984375 
Q 16.40625 51.5625 16.40625 36.375 
Q 16.40625 21.234375 19.796875 13.8125 
Q 23.1875 6.390625 30.078125 6.390625 
Q 37.015625 6.390625 40.40625 13.8125 
Q 43.796875 21.234375 43.796875 36.375 
Q 43.796875 51.5625 40.40625 58.984375 
Q 37.015625 66.40625 30.078125 66.40625 
z
M 30.078125 74.21875 
Q 41.75 74.21875 47.734375 64.640625 
Q 53.71875 55.078125 53.71875 36.375 
Q 53.71875 17.71875 47.734375 8.140625 
Q 41.75 -1.421875 30.078125 -1.421875 
Q 18.40625 -1.421875 12.453125 8.140625 
Q 6.5 17.71875 6.5 36.375 
Q 6.5 55.078125 12.453125 64.640625 
Q 18.40625 74.21875 30.078125 74.21875 
z
" id="DejaVuSansMono-30"/>
     <path d="M 23.875 14.890625 
L 36.1875 14.890625 
L 36.1875 0 
L 23.875 0 
z
" id="DejaVuSansMono-2e"/>
     <path d="M 13.1875 8.296875 
L 28.515625 8.296875 
L 28.515625 64.015625 
L 12.015625 60.296875 
L 12.015625 69.28125 
L 28.421875 72.90625 
L 38.28125 72.90625 
L 38.28125 8.296875 
L 53.421875 8.296875 
L 53.421875 0 
L 13.1875 0 
z
" id="DejaVuSansMono-31"/>
     <path d="M 37.890625 39.015625 
Q 45.0625 37.109375 48.875 32.25 
Q 52.6875 27.390625 52.6875 20.125 
Q 52.6875 10.0625 45.921875 4.3125 
Q 39.15625 -1.421875 27.203125 -1.421875 
Q 22.171875 -1.421875 16.9375 -0.484375 
Q 11.71875 0.4375 6.6875 2.203125 
L 6.6875 12.015625 
Q 11.671875 9.421875 16.5 8.15625 
Q 21.34375 6.890625 26.125 6.890625 
Q 34.234375 6.890625 38.578125 10.546875 
Q 42.921875 14.203125 42.921875 21.09375 
Q 42.921875 27.4375 38.578125 31.171875 
Q 34.234375 34.90625 26.8125 34.90625 
L 19.28125 34.90625 
L 19.28125 43.015625 
L 26.8125 43.015625 
Q 33.59375 43.015625 37.40625 45.984375 
Q 41.21875 48.96875 41.21875 54.296875 
Q 41.21875 59.90625 37.671875 62.90625 
Q 34.125 65.921875 27.59375 65.921875 
Q 23.25 65.921875 18.609375 64.9375 
Q 13.96875 63.96875 8.890625 62.015625 
L 8.890625 71.09375 
Q 14.796875 72.65625 19.40625 73.4375 
Q 24.03125 74.21875 27.59375 74.21875 
Q 38.234375 74.21875 44.609375 68.875 
Q 50.984375 63.53125 50.984375 54.6875 
Q 50.984375 48.6875 47.625 44.671875 
Q 44.28125 40.671875 37.890625 39.015625 
z
" id="DejaVuSansMono-33"/>
     <path d="M 29.109375 32.328125 
Q 35.40625 32.328125 38.984375 36.859375 
Q 42.578125 41.40625 42.578125 49.421875 
Q 42.578125 57.421875 38.984375 61.953125 
Q 35.40625 66.5 29.109375 66.5 
Q 22.5625 66.5 19.234375 62.171875 
Q 15.921875 57.859375 15.921875 49.421875 
Q 15.921875 40.921875 19.21875 36.625 
Q 22.515625 32.328125 29.109375 32.328125 
z
M 11.53125 1.515625 
L 11.53125 10.59375 
Q 14.59375 8.796875 18.0625 7.84375 
Q 21.53125 6.890625 25.296875 6.890625 
Q 34.671875 6.890625 39.46875 13.9375 
Q 44.28125 21 44.28125 34.71875 
Q 42 29.828125 37.84375 27.21875 
Q 33.6875 24.609375 28.328125 24.609375 
Q 17.78125 24.609375 11.984375 31.09375 
Q 6.203125 37.59375 6.203125 49.515625 
Q 6.203125 61.28125 12.125 67.75 
Q 18.0625 74.21875 28.90625 74.21875 
Q 41.609375 74.21875 47.515625 65.078125 
Q 53.421875 55.953125 53.421875 36.375 
Q 53.421875 17.96875 46.3125 8.265625 
Q 39.203125 -1.421875 25.6875 -1.421875 
Q 22.125 -1.421875 18.5 -0.65625 
Q 14.890625 0.09375 11.53125 1.515625 
z
" id="DejaVuSansMono-39"/>
    </defs>
    <g transform="translate(138.436364 282.318493)scale(0.1 -0.1)">
     <use xlink:href="#DejaVuSansMono-49"/>
     <use x="60.205078" xlink:href="#DejaVuSansMono-6e"/>
     <use x="120.410156" xlink:href="#DejaVuSansMono-20"/>
     <use x="180.615234" xlink:href="#DejaVuSansMono-20"/>
     <use x="240.820312" xlink:href="#DejaVuSansMono-52"/>
     <use x="301.025391" xlink:href="#DejaVuSansMono-4d"/>
     <use x="361.230469" xlink:href="#DejaVuSansMono-53"/>
     <use x="421.435547" xlink:href="#DejaVuSansMono-45"/>
     <use x="481.640625" xlink:href="#DejaVuSansMono-3a"/>
     <use x="541.845703" xlink:href="#DejaVuSansMono-20"/>
     <use x="602.050781" xlink:href="#DejaVuSansMono-30"/>
     <use x="662.255859" xlink:href="#DejaVuSansMono-2e"/>
     <use x="722.460938" xlink:href="#DejaVuSansMono-30"/>
     <use x="782.666016" xlink:href="#DejaVuSansMono-31"/>
     <use x="842.871094" xlink:href="#DejaVuSansMono-33"/>
     <use x="903.076172" xlink:href="#DejaVuSansMono-39"/>
    </g>
    <!-- Out RMSE: 0.01238 -->
    <defs>
     <path d="M 44.1875 36.375 
Q 44.1875 52.4375 40.890625 59.328125 
Q 37.59375 66.21875 30.078125 66.21875 
Q 22.609375 66.21875 19.3125 59.328125 
Q 16.015625 52.4375 16.015625 36.375 
Q 16.015625 20.359375 19.3125 13.46875 
Q 22.609375 6.59375 30.078125 6.59375 
Q 37.59375 6.59375 40.890625 13.453125 
Q 44.1875 20.3125 44.1875 36.375 
z
M 54.5 36.375 
Q 54.5 17.328125 48.46875 7.953125 
Q 42.4375 -1.421875 30.078125 -1.421875 
Q 17.71875 -1.421875 11.71875 7.90625 
Q 5.71875 17.234375 5.71875 36.375 
Q 5.71875 55.46875 11.75 64.84375 
Q 17.78125 74.21875 30.078125 74.21875 
Q 42.4375 74.21875 48.46875 64.84375 
Q 54.5 55.46875 54.5 36.375 
z
" id="DejaVuSansMono-4f"/>
     <path d="M 9.515625 20.703125 
L 9.515625 54.59375 
L 18.5 54.59375 
L 18.5 20.703125 
Q 18.5 13.328125 21.109375 9.859375 
Q 23.734375 6.390625 29.203125 6.390625 
Q 35.546875 6.390625 38.90625 10.859375 
Q 42.28125 15.328125 42.28125 23.6875 
L 42.28125 54.59375 
L 51.3125 54.59375 
L 51.3125 0 
L 42.28125 0 
L 42.28125 8.203125 
Q 39.890625 3.46875 35.765625 1.015625 
Q 31.640625 -1.421875 26.125 -1.421875 
Q 17.71875 -1.421875 13.609375 4.078125 
Q 9.515625 9.578125 9.515625 20.703125 
z
" id="DejaVuSansMono-75"/>
     <path d="M 29.984375 70.21875 
L 29.984375 54.6875 
L 50.390625 54.6875 
L 50.390625 47.703125 
L 29.984375 47.703125 
L 29.984375 18.015625 
Q 29.984375 11.96875 32.28125 9.5625 
Q 34.578125 7.171875 40.28125 7.171875 
L 50.390625 7.171875 
L 50.390625 0 
L 39.40625 0 
Q 29.296875 0 25.140625 4.046875 
Q 21 8.109375 21 18.015625 
L 21 47.703125 
L 6.390625 47.703125 
L 6.390625 54.6875 
L 21 54.6875 
L 21 70.21875 
z
" id="DejaVuSansMono-74"/>
     <path d="M 18.21875 8.296875 
L 51.703125 8.296875 
L 51.703125 0 
L 7.421875 0 
L 7.421875 8.296875 
Q 16.546875 17.921875 23.375 25.296875 
Q 30.21875 32.671875 32.8125 35.6875 
Q 37.703125 41.65625 39.40625 45.34375 
Q 41.109375 49.03125 41.109375 52.875 
Q 41.109375 58.984375 37.515625 62.453125 
Q 33.9375 65.921875 27.6875 65.921875 
Q 23.25 65.921875 18.359375 64.3125 
Q 13.484375 62.703125 8.015625 59.421875 
L 8.015625 69.390625 
Q 13.03125 71.78125 17.890625 73 
Q 22.75 74.21875 27.484375 74.21875 
Q 38.1875 74.21875 44.703125 68.53125 
Q 51.21875 62.84375 51.21875 53.609375 
Q 51.21875 48.921875 49.046875 44.234375 
Q 46.875 39.546875 42 33.890625 
Q 39.265625 30.71875 34.0625 25.09375 
Q 28.859375 19.484375 18.21875 8.296875 
z
" id="DejaVuSansMono-32"/>
     <path d="M 30.078125 34.625 
Q 23.484375 34.625 19.890625 30.9375 
Q 16.3125 27.25 16.3125 20.515625 
Q 16.3125 13.765625 19.9375 10.03125 
Q 23.578125 6.296875 30.078125 6.296875 
Q 36.71875 6.296875 40.296875 9.984375 
Q 43.890625 13.671875 43.890625 20.515625 
Q 43.890625 27.203125 40.25 30.90625 
Q 36.625 34.625 30.078125 34.625 
z
M 21.484375 38.71875 
Q 15.1875 40.328125 11.640625 44.71875 
Q 8.109375 49.125 8.109375 55.328125 
Q 8.109375 64.015625 14.015625 69.109375 
Q 19.921875 74.21875 30.078125 74.21875 
Q 40.28125 74.21875 46.1875 69.109375 
Q 52.09375 64.015625 52.09375 55.328125 
Q 52.09375 49.125 48.546875 44.71875 
Q 45.015625 40.328125 38.71875 38.71875 
Q 46.046875 37.109375 49.921875 32.21875 
Q 53.8125 27.34375 53.8125 19.578125 
Q 53.8125 9.71875 47.515625 4.140625 
Q 41.21875 -1.421875 30.078125 -1.421875 
Q 18.953125 -1.421875 12.671875 4.125 
Q 6.390625 9.671875 6.390625 19.484375 
Q 6.390625 27.296875 10.265625 32.203125 
Q 14.15625 37.109375 21.484375 38.71875 
z
M 17.921875 54.390625 
Q 17.921875 48.53125 21.046875 45.453125 
Q 24.171875 42.390625 30.078125 42.390625 
Q 36.03125 42.390625 39.15625 45.453125 
Q 42.28125 48.53125 42.28125 54.390625 
Q 42.28125 60.359375 39.171875 63.484375 
Q 36.078125 66.609375 30.078125 66.609375 
Q 24.171875 66.609375 21.046875 63.453125 
Q 17.921875 60.296875 17.921875 54.390625 
z
" id="DejaVuSansMono-38"/>
    </defs>
    <g transform="translate(138.436364 293.580056)scale(0.1 -0.1)">
     <use xlink:href="#DejaVuSansMono-4f"/>
     <use x="60.205078" xlink:href="#DejaVuSansMono-75"/>
     <use x="120.410156" xlink:href="#DejaVuSansMono-74"/>
     <use x="180.615234" xlink:href="#DejaVuSansMono-20"/>
     <use x="240.820312" xlink:href="#DejaVuSansMono-52"/>
     <use x="301.025391" xlink:href="#DejaVuSansMono-4d"/>
     <use x="361.230469" xlink:href="#DejaVuSansMono-53"/>
     <use x="421.435547" xlink:href="#DejaVuSansMono-45"/>
     <use x="481.640625" xlink:href="#DejaVuSansMono-3a"/>
     <use x="541.845703" xlink:href="#DejaVuSansMono-20"/>
     <use x="602.050781" xlink:href="#DejaVuSansMono-30"/>
     <use x="662.255859" xlink:href="#DejaVuSansMono-2e"/>
     <use x="722.460938" xlink:href="#DejaVuSansMono-30"/>
     <use x="782.666016" xlink:href="#DejaVuSansMono-31"/>
     <use x="842.871094" xlink:href="#DejaVuSansMono-32"/>
     <use x="903.076172" xlink:href="#DejaVuSansMono-33"/>
     <use x="963.28125" xlink:href="#DejaVuSansMono-38"/>
    </g>
   </g>
   <g id="text_18">
    <!-- inv_t4_invSim_660_200Traces -->
    <defs>
     <path d="M 54.890625 33.015625 
L 54.890625 0 
L 45.90625 0 
L 45.90625 32.71875 
Q 45.90625 40.484375 42.875 44.328125 
Q 39.84375 48.1875 33.796875 48.1875 
Q 26.515625 48.1875 22.3125 43.546875 
Q 18.109375 38.921875 18.109375 30.90625 
L 18.109375 0 
L 9.078125 0 
L 9.078125 54.6875 
L 18.109375 54.6875 
L 18.109375 46.1875 
Q 21.34375 51.125 25.703125 53.5625 
Q 30.078125 56 35.796875 56 
Q 45.21875 56 50.046875 50.171875 
Q 54.890625 44.34375 54.890625 33.015625 
z
" id="DejaVuSans-6e"/>
     <path d="M 2.984375 54.6875 
L 12.5 54.6875 
L 29.59375 8.796875 
L 46.6875 54.6875 
L 56.203125 54.6875 
L 35.6875 0 
L 23.484375 0 
z
" id="DejaVuSans-76"/>
     <path d="M 50.984375 -16.609375 
L 50.984375 -23.578125 
L -0.984375 -23.578125 
L -0.984375 -16.609375 
z
" id="DejaVuSans-5f"/>
     <path d="M 53.515625 70.515625 
L 53.515625 60.890625 
Q 47.90625 63.578125 42.921875 64.890625 
Q 37.9375 66.21875 33.296875 66.21875 
Q 25.25 66.21875 20.875 63.09375 
Q 16.5 59.96875 16.5 54.203125 
Q 16.5 49.359375 19.40625 46.890625 
Q 22.3125 44.4375 30.421875 42.921875 
L 36.375 41.703125 
Q 47.40625 39.59375 52.65625 34.296875 
Q 57.90625 29 57.90625 20.125 
Q 57.90625 9.515625 50.796875 4.046875 
Q 43.703125 -1.421875 29.984375 -1.421875 
Q 24.8125 -1.421875 18.96875 -0.25 
Q 13.140625 0.921875 6.890625 3.21875 
L 6.890625 13.375 
Q 12.890625 10.015625 18.65625 8.296875 
Q 24.421875 6.59375 29.984375 6.59375 
Q 38.421875 6.59375 43.015625 9.90625 
Q 47.609375 13.234375 47.609375 19.390625 
Q 47.609375 24.75 44.3125 27.78125 
Q 41.015625 30.8125 33.5 32.328125 
L 27.484375 33.5 
Q 16.453125 35.6875 11.515625 40.375 
Q 6.59375 45.0625 6.59375 53.421875 
Q 6.59375 63.09375 13.40625 68.65625 
Q 20.21875 74.21875 32.171875 74.21875 
Q 37.3125 74.21875 42.625 73.28125 
Q 47.953125 72.359375 53.515625 70.515625 
z
" id="DejaVuSans-53"/>
     <path d="M 41.109375 46.296875 
Q 39.59375 47.171875 37.8125 47.578125 
Q 36.03125 48 33.890625 48 
Q 26.265625 48 22.1875 43.046875 
Q 18.109375 38.09375 18.109375 28.8125 
L 18.109375 0 
L 9.078125 0 
L 9.078125 54.6875 
L 18.109375 54.6875 
L 18.109375 46.1875 
Q 20.953125 51.171875 25.484375 53.578125 
Q 30.03125 56 36.53125 56 
Q 37.453125 56 38.578125 55.875 
Q 39.703125 55.765625 41.0625 55.515625 
z
" id="DejaVuSans-72"/>
     <path d="M 48.78125 52.59375 
L 48.78125 44.1875 
Q 44.96875 46.296875 41.140625 47.34375 
Q 37.3125 48.390625 33.40625 48.390625 
Q 24.65625 48.390625 19.8125 42.84375 
Q 14.984375 37.3125 14.984375 27.296875 
Q 14.984375 17.28125 19.8125 11.734375 
Q 24.65625 6.203125 33.40625 6.203125 
Q 37.3125 6.203125 41.140625 7.25 
Q 44.96875 8.296875 48.78125 10.40625 
L 48.78125 2.09375 
Q 45.015625 0.34375 40.984375 -0.53125 
Q 36.96875 -1.421875 32.421875 -1.421875 
Q 20.0625 -1.421875 12.78125 6.34375 
Q 5.515625 14.109375 5.515625 27.296875 
Q 5.515625 40.671875 12.859375 48.328125 
Q 20.21875 56 33.015625 56 
Q 37.15625 56 41.109375 55.140625 
Q 45.0625 54.296875 48.78125 52.59375 
z
" id="DejaVuSans-63"/>
    </defs>
    <g transform="translate(352.452188 45.84)scale(0.12 -0.12)">
     <use xlink:href="#DejaVuSans-69"/>
     <use x="27.783203" xlink:href="#DejaVuSans-6e"/>
     <use x="91.162109" xlink:href="#DejaVuSans-76"/>
     <use x="150.341797" xlink:href="#DejaVuSans-5f"/>
     <use x="200.341797" xlink:href="#DejaVuSans-74"/>
     <use x="239.550781" xlink:href="#DejaVuSans-34"/>
     <use x="303.173828" xlink:href="#DejaVuSans-5f"/>
     <use x="353.173828" xlink:href="#DejaVuSans-69"/>
     <use x="380.957031" xlink:href="#DejaVuSans-6e"/>
     <use x="444.335938" xlink:href="#DejaVuSans-76"/>
     <use x="503.515625" xlink:href="#DejaVuSans-53"/>
     <use x="566.992188" xlink:href="#DejaVuSans-69"/>
     <use x="594.775391" xlink:href="#DejaVuSans-6d"/>
     <use x="692.1875" xlink:href="#DejaVuSans-5f"/>
     <use x="742.1875" xlink:href="#DejaVuSans-36"/>
     <use x="805.810547" xlink:href="#DejaVuSans-36"/>
     <use x="869.433594" xlink:href="#DejaVuSans-30"/>
     <use x="933.056641" xlink:href="#DejaVuSans-5f"/>
     <use x="983.056641" xlink:href="#DejaVuSans-32"/>
     <use x="1046.679688" xlink:href="#DejaVuSans-30"/>
     <use x="1110.302734" xlink:href="#DejaVuSans-30"/>
     <use x="1173.925781" xlink:href="#DejaVuSans-54"/>
     <use x="1234.791016" xlink:href="#DejaVuSans-72"/>
     <use x="1275.904297" xlink:href="#DejaVuSans-61"/>
     <use x="1337.183594" xlink:href="#DejaVuSans-63"/>
     <use x="1392.164062" xlink:href="#DejaVuSans-65"/>
     <use x="1453.6875" xlink:href="#DejaVuSans-73"/>
    </g>
   </g>
   <g id="legend_1">
    <g id="patch_7">
     <path d="M 115 249.01625 
L 214.946875 249.01625 
Q 216.946875 249.01625 216.946875 247.01625 
L 216.946875 189.30375 
Q 216.946875 187.30375 214.946875 187.30375 
L 115 187.30375 
Q 113 187.30375 113 189.30375 
L 113 247.01625 
Q 113 249.01625 115 249.01625 
z
" style="fill:#ffffff;opacity:0.8;stroke:#cccccc;stroke-linejoin:miter;"/>
    </g>
    <g id="line2d_18">
     <path d="M 117 195.402188 
L 137 195.402188 
" style="fill:none;stroke:#ff0000;stroke-linecap:square;stroke-width:1.5;"/>
    </g>
    <g id="line2d_19"/>
    <g id="text_19">
     <!-- Input -->
     <defs>
      <path d="M 9.8125 72.90625 
L 19.671875 72.90625 
L 19.671875 0 
L 9.8125 0 
z
" id="DejaVuSans-49"/>
      <path d="M 18.109375 8.203125 
L 18.109375 -20.796875 
L 9.078125 -20.796875 
L 9.078125 54.6875 
L 18.109375 54.6875 
L 18.109375 46.390625 
Q 20.953125 51.265625 25.265625 53.625 
Q 29.59375 56 35.59375 56 
Q 45.5625 56 51.78125 48.09375 
Q 58.015625 40.1875 58.015625 27.296875 
Q 58.015625 14.40625 51.78125 6.484375 
Q 45.5625 -1.421875 35.59375 -1.421875 
Q 29.59375 -1.421875 25.265625 0.953125 
Q 20.953125 3.328125 18.109375 8.203125 
z
M 48.6875 27.296875 
Q 48.6875 37.203125 44.609375 42.84375 
Q 40.53125 48.484375 33.40625 48.484375 
Q 26.265625 48.484375 22.1875 42.84375 
Q 18.109375 37.203125 18.109375 27.296875 
Q 18.109375 17.390625 22.1875 11.75 
Q 26.265625 6.109375 33.40625 6.109375 
Q 40.53125 6.109375 44.609375 11.75 
Q 48.6875 17.390625 48.6875 27.296875 
z
" id="DejaVuSans-70"/>
      <path d="M 8.5 21.578125 
L 8.5 54.6875 
L 17.484375 54.6875 
L 17.484375 21.921875 
Q 17.484375 14.15625 20.5 10.265625 
Q 23.53125 6.390625 29.59375 6.390625 
Q 36.859375 6.390625 41.078125 11.03125 
Q 45.3125 15.671875 45.3125 23.6875 
L 45.3125 54.6875 
L 54.296875 54.6875 
L 54.296875 0 
L 45.3125 0 
L 45.3125 8.40625 
Q 42.046875 3.421875 37.71875 1 
Q 33.40625 -1.421875 27.6875 -1.421875 
Q 18.265625 -1.421875 13.375 4.4375 
Q 8.5 10.296875 8.5 21.578125 
z
M 31.109375 56 
z
" id="DejaVuSans-75"/>
     </defs>
     <g transform="translate(145 198.902188)scale(0.1 -0.1)">
      <use xlink:href="#DejaVuSans-49"/>
      <use x="29.492188" xlink:href="#DejaVuSans-6e"/>
      <use x="92.871094" xlink:href="#DejaVuSans-70"/>
      <use x="156.347656" xlink:href="#DejaVuSans-75"/>
      <use x="219.726562" xlink:href="#DejaVuSans-74"/>
     </g>
    </g>
    <g id="line2d_20">
     <path d="M 117 210.080313 
L 137 210.080313 
" style="fill:none;stroke:#008000;stroke-linecap:square;stroke-width:1.5;"/>
    </g>
    <g id="line2d_21"/>
    <g id="text_20">
     <!-- Output -->
     <defs>
      <path d="M 39.40625 66.21875 
Q 28.65625 66.21875 22.328125 58.203125 
Q 16.015625 50.203125 16.015625 36.375 
Q 16.015625 22.609375 22.328125 14.59375 
Q 28.65625 6.59375 39.40625 6.59375 
Q 50.140625 6.59375 56.421875 14.59375 
Q 62.703125 22.609375 62.703125 36.375 
Q 62.703125 50.203125 56.421875 58.203125 
Q 50.140625 66.21875 39.40625 66.21875 
z
M 39.40625 74.21875 
Q 54.734375 74.21875 63.90625 63.9375 
Q 73.09375 53.65625 73.09375 36.375 
Q 73.09375 19.140625 63.90625 8.859375 
Q 54.734375 -1.421875 39.40625 -1.421875 
Q 24.03125 -1.421875 14.8125 8.828125 
Q 5.609375 19.09375 5.609375 36.375 
Q 5.609375 53.65625 14.8125 63.9375 
Q 24.03125 74.21875 39.40625 74.21875 
z
" id="DejaVuSans-4f"/>
     </defs>
     <g transform="translate(145 213.580313)scale(0.1 -0.1)">
      <use xlink:href="#DejaVuSans-4f"/>
      <use x="78.710938" xlink:href="#DejaVuSans-75"/>
      <use x="142.089844" xlink:href="#DejaVuSans-74"/>
      <use x="181.298828" xlink:href="#DejaVuSans-70"/>
      <use x="244.775391" xlink:href="#DejaVuSans-75"/>
      <use x="308.154297" xlink:href="#DejaVuSans-74"/>
     </g>
    </g>
    <g id="line2d_22">
     <path d="M 117 224.758438 
L 137 224.758438 
" style="fill:none;stroke:#ff0000;stroke-dasharray:5.55,2.4;stroke-dashoffset:0;stroke-width:1.5;"/>
    </g>
    <g id="line2d_23"/>
    <g id="text_21">
     <!-- Input-fitting -->
     <defs>
      <path d="M 4.890625 31.390625 
L 31.203125 31.390625 
L 31.203125 23.390625 
L 4.890625 23.390625 
z
" id="DejaVuSans-2d"/>
      <path d="M 37.109375 75.984375 
L 37.109375 68.5 
L 28.515625 68.5 
Q 23.6875 68.5 21.796875 66.546875 
Q 19.921875 64.59375 19.921875 59.515625 
L 19.921875 54.6875 
L 34.71875 54.6875 
L 34.71875 47.703125 
L 19.921875 47.703125 
L 19.921875 0 
L 10.890625 0 
L 10.890625 47.703125 
L 2.296875 47.703125 
L 2.296875 54.6875 
L 10.890625 54.6875 
L 10.890625 58.5 
Q 10.890625 67.625 15.140625 71.796875 
Q 19.390625 75.984375 28.609375 75.984375 
z
" id="DejaVuSans-66"/>
     </defs>
     <g transform="translate(145 228.258438)scale(0.1 -0.1)">
      <use xlink:href="#DejaVuSans-49"/>
      <use x="29.492188" xlink:href="#DejaVuSans-6e"/>
      <use x="92.871094" xlink:href="#DejaVuSans-70"/>
      <use x="156.347656" xlink:href="#DejaVuSans-75"/>
      <use x="219.726562" xlink:href="#DejaVuSans-74"/>
      <use x="258.935547" xlink:href="#DejaVuSans-2d"/>
      <use x="295.019531" xlink:href="#DejaVuSans-66"/>
      <use x="330.224609" xlink:href="#DejaVuSans-69"/>
      <use x="358.007812" xlink:href="#DejaVuSans-74"/>
      <use x="397.216797" xlink:href="#DejaVuSans-74"/>
      <use x="436.425781" xlink:href="#DejaVuSans-69"/>
      <use x="464.208984" xlink:href="#DejaVuSans-6e"/>
      <use x="527.587891" xlink:href="#DejaVuSans-67"/>
     </g>
    </g>
    <g id="line2d_24">
     <path d="M 117 239.436563 
L 137 239.436563 
" style="fill:none;stroke:#008000;stroke-dasharray:5.55,2.4;stroke-dashoffset:0;stroke-width:1.5;"/>
    </g>
    <g id="line2d_25"/>
    <g id="text_22">
     <!-- Output-fitting -->
     <g transform="translate(145 242.936563)scale(0.1 -0.1)">
      <use xlink:href="#DejaVuSans-4f"/>
      <use x="78.710938" xlink:href="#DejaVuSans-75"/>
      <use x="142.089844" xlink:href="#DejaVuSans-74"/>
      <use x="181.298828" xlink:href="#DejaVuSans-70"/>
      <use x="244.775391" xlink:href="#DejaVuSans-75"/>
      <use x="308.154297" xlink:href="#DejaVuSans-74"/>
      <use x="347.363281" xlink:href="#DejaVuSans-2d"/>
      <use x="383.447266" xlink:href="#DejaVuSans-66"/>
      <use x="418.652344" xlink:href="#DejaVuSans-69"/>
      <use x="446.435547" xlink:href="#DejaVuSans-74"/>
      <use x="485.644531" xlink:href="#DejaVuSans-74"/>
      <use x="524.853516" xlink:href="#DejaVuSans-69"/>
      <use x="552.636719" xlink:href="#DejaVuSans-6e"/>
      <use x="616.015625" xlink:href="#DejaVuSans-67"/>
     </g>
    </g>
   </g>
  </g>
 </g>
 <defs>
  <clipPath id="pcd5cf7e08c">
   <rect height="332.64" width="669.6" x="108" y="51.84"/>
  </clipPath>
 </defs>
</svg>
