<?xml version="1.0" encoding="utf-8" standalone="no"?>
<!DOCTYPE svg PUBLIC "-//W3C//DTD SVG 1.1//EN"
  "http://www.w3.org/Graphics/SVG/1.1/DTD/svg11.dtd">
<!-- Created with matplotlib (https://matplotlib.org/) -->
<svg height="288pt" version="1.1" viewBox="0 0 1152 288" width="1152pt" xmlns="http://www.w3.org/2000/svg" xmlns:xlink="http://www.w3.org/1999/xlink">
 <metadata>
  <rdf:RDF xmlns:cc="http://creativecommons.org/ns#" xmlns:dc="http://purl.org/dc/elements/1.1/" xmlns:rdf="http://www.w3.org/1999/02/22-rdf-syntax-ns#">
   <cc:Work>
    <dc:type rdf:resource="http://purl.org/dc/dcmitype/StillImage"/>
    <dc:date>2020-08-12T14:48:36.785857</dc:date>
    <dc:format>image/svg+xml</dc:format>
    <dc:creator>
     <cc:Agent>
      <dc:title>Matplotlib v3.3.0, https://matplotlib.org/</dc:title>
     </cc:Agent>
    </dc:creator>
   </cc:Work>
  </rdf:RDF>
 </metadata>
 <defs>
  <style type="text/css">*{stroke-linecap:butt;stroke-linejoin:round;}</style>
 </defs>
 <g id="figure_1">
  <g id="patch_1">
   <path d="M 0 288 
L 1152 288 
L 1152 0 
L 0 0 
z
" style="fill:#ffffff;"/>
  </g>
  <g id="axes_1">
   <g id="patch_2">
    <path d="M 144 256.32 
L 1036.8 256.32 
L 1036.8 34.56 
L 144 34.56 
z
" style="fill:#ffffff;"/>
   </g>
   <g id="matplotlib.axis_1">
    <g id="xtick_1">
     <g id="line2d_1">
      <defs>
       <path d="M 0 0 
L 0 3.5 
" id="m2c8ec32978" style="stroke:#000000;stroke-width:0.8;"/>
      </defs>
      <g>
       <use style="stroke:#000000;stroke-width:0.8;" x="184.581818" xlink:href="#m2c8ec32978" y="256.32"/>
      </g>
     </g>
     <g id="text_1">
      <!-- 0 -->
      <g transform="translate(181.400568 270.918437)scale(0.1 -0.1)">
       <defs>
        <path d="M 31.78125 66.40625 
Q 24.171875 66.40625 20.328125 58.90625 
Q 16.5 51.421875 16.5 36.375 
Q 16.5 21.390625 20.328125 13.890625 
Q 24.171875 6.390625 31.78125 6.390625 
Q 39.453125 6.390625 43.28125 13.890625 
Q 47.125 21.390625 47.125 36.375 
Q 47.125 51.421875 43.28125 58.90625 
Q 39.453125 66.40625 31.78125 66.40625 
z
M 31.78125 74.21875 
Q 44.046875 74.21875 50.515625 64.515625 
Q 56.984375 54.828125 56.984375 36.375 
Q 56.984375 17.96875 50.515625 8.265625 
Q 44.046875 -1.421875 31.78125 -1.421875 
Q 19.53125 -1.421875 13.0625 8.265625 
Q 6.59375 17.96875 6.59375 36.375 
Q 6.59375 54.828125 13.0625 64.515625 
Q 19.53125 74.21875 31.78125 74.21875 
z
" id="DejaVuSans-48"/>
       </defs>
       <use xlink:href="#DejaVuSans-48"/>
      </g>
     </g>
    </g>
    <g id="xtick_2">
     <g id="line2d_2">
      <g>
       <use style="stroke:#000000;stroke-width:0.8;" x="367.933517" xlink:href="#m2c8ec32978" y="256.32"/>
      </g>
     </g>
     <g id="text_2">
      <!-- 2 -->
      <g transform="translate(364.752267 270.918437)scale(0.1 -0.1)">
       <defs>
        <path d="M 19.1875 8.296875 
L 53.609375 8.296875 
L 53.609375 0 
L 7.328125 0 
L 7.328125 8.296875 
Q 12.9375 14.109375 22.625 23.890625 
Q 32.328125 33.6875 34.8125 36.53125 
Q 39.546875 41.84375 41.421875 45.53125 
Q 43.3125 49.21875 43.3125 52.78125 
Q 43.3125 58.59375 39.234375 62.25 
Q 35.15625 65.921875 28.609375 65.921875 
Q 23.96875 65.921875 18.8125 64.3125 
Q 13.671875 62.703125 7.8125 59.421875 
L 7.8125 69.390625 
Q 13.765625 71.78125 18.9375 73 
Q 24.125 74.21875 28.421875 74.21875 
Q 39.75 74.21875 46.484375 68.546875 
Q 53.21875 62.890625 53.21875 53.421875 
Q 53.21875 48.921875 51.53125 44.890625 
Q 49.859375 40.875 45.40625 35.40625 
Q 44.1875 33.984375 37.640625 27.21875 
Q 31.109375 20.453125 19.1875 8.296875 
z
" id="DejaVuSans-50"/>
       </defs>
       <use xlink:href="#DejaVuSans-50"/>
      </g>
     </g>
    </g>
    <g id="xtick_3">
     <g id="line2d_3">
      <g>
       <use style="stroke:#000000;stroke-width:0.8;" x="551.285215" xlink:href="#m2c8ec32978" y="256.32"/>
      </g>
     </g>
     <g id="text_3">
      <!-- 4 -->
      <g transform="translate(548.103965 270.918437)scale(0.1 -0.1)">
       <defs>
        <path d="M 37.796875 64.3125 
L 12.890625 25.390625 
L 37.796875 25.390625 
z
M 35.203125 72.90625 
L 47.609375 72.90625 
L 47.609375 25.390625 
L 58.015625 25.390625 
L 58.015625 17.1875 
L 47.609375 17.1875 
L 47.609375 0 
L 37.796875 0 
L 37.796875 17.1875 
L 4.890625 17.1875 
L 4.890625 26.703125 
z
" id="DejaVuSans-52"/>
       </defs>
       <use xlink:href="#DejaVuSans-52"/>
      </g>
     </g>
    </g>
    <g id="xtick_4">
     <g id="line2d_4">
      <g>
       <use style="stroke:#000000;stroke-width:0.8;" x="734.636914" xlink:href="#m2c8ec32978" y="256.32"/>
      </g>
     </g>
     <g id="text_4">
      <!-- 6 -->
      <g transform="translate(731.455664 270.918437)scale(0.1 -0.1)">
       <defs>
        <path d="M 33.015625 40.375 
Q 26.375 40.375 22.484375 35.828125 
Q 18.609375 31.296875 18.609375 23.390625 
Q 18.609375 15.53125 22.484375 10.953125 
Q 26.375 6.390625 33.015625 6.390625 
Q 39.65625 6.390625 43.53125 10.953125 
Q 47.40625 15.53125 47.40625 23.390625 
Q 47.40625 31.296875 43.53125 35.828125 
Q 39.65625 40.375 33.015625 40.375 
z
M 52.59375 71.296875 
L 52.59375 62.3125 
Q 48.875 64.0625 45.09375 64.984375 
Q 41.3125 65.921875 37.59375 65.921875 
Q 27.828125 65.921875 22.671875 59.328125 
Q 17.53125 52.734375 16.796875 39.40625 
Q 19.671875 43.65625 24.015625 45.921875 
Q 28.375 48.1875 33.59375 48.1875 
Q 44.578125 48.1875 50.953125 41.515625 
Q 57.328125 34.859375 57.328125 23.390625 
Q 57.328125 12.15625 50.6875 5.359375 
Q 44.046875 -1.421875 33.015625 -1.421875 
Q 20.359375 -1.421875 13.671875 8.265625 
Q 6.984375 17.96875 6.984375 36.375 
Q 6.984375 53.65625 15.1875 63.9375 
Q 23.390625 74.21875 37.203125 74.21875 
Q 40.921875 74.21875 44.703125 73.484375 
Q 48.484375 72.75 52.59375 71.296875 
z
" id="DejaVuSans-54"/>
       </defs>
       <use xlink:href="#DejaVuSans-54"/>
      </g>
     </g>
    </g>
    <g id="xtick_5">
     <g id="line2d_5">
      <g>
       <use style="stroke:#000000;stroke-width:0.8;" x="917.988613" xlink:href="#m2c8ec32978" y="256.32"/>
      </g>
     </g>
     <g id="text_5">
      <!-- 8 -->
      <g transform="translate(914.807363 270.918437)scale(0.1 -0.1)">
       <defs>
        <path d="M 31.78125 34.625 
Q 24.75 34.625 20.71875 30.859375 
Q 16.703125 27.09375 16.703125 20.515625 
Q 16.703125 13.921875 20.71875 10.15625 
Q 24.75 6.390625 31.78125 6.390625 
Q 38.8125 6.390625 42.859375 10.171875 
Q 46.921875 13.96875 46.921875 20.515625 
Q 46.921875 27.09375 42.890625 30.859375 
Q 38.875 34.625 31.78125 34.625 
z
M 21.921875 38.8125 
Q 15.578125 40.375 12.03125 44.71875 
Q 8.5 49.078125 8.5 55.328125 
Q 8.5 64.0625 14.71875 69.140625 
Q 20.953125 74.21875 31.78125 74.21875 
Q 42.671875 74.21875 48.875 69.140625 
Q 55.078125 64.0625 55.078125 55.328125 
Q 55.078125 49.078125 51.53125 44.71875 
Q 48 40.375 41.703125 38.8125 
Q 48.828125 37.15625 52.796875 32.3125 
Q 56.78125 27.484375 56.78125 20.515625 
Q 56.78125 9.90625 50.3125 4.234375 
Q 43.84375 -1.421875 31.78125 -1.421875 
Q 19.734375 -1.421875 13.25 4.234375 
Q 6.78125 9.90625 6.78125 20.515625 
Q 6.78125 27.484375 10.78125 32.3125 
Q 14.796875 37.15625 21.921875 38.8125 
z
M 18.3125 54.390625 
Q 18.3125 48.734375 21.84375 45.5625 
Q 25.390625 42.390625 31.78125 42.390625 
Q 38.140625 42.390625 41.71875 45.5625 
Q 45.3125 48.734375 45.3125 54.390625 
Q 45.3125 60.0625 41.71875 63.234375 
Q 38.140625 66.40625 31.78125 66.40625 
Q 25.390625 66.40625 21.84375 63.234375 
Q 18.3125 60.0625 18.3125 54.390625 
z
" id="DejaVuSans-56"/>
       </defs>
       <use xlink:href="#DejaVuSans-56"/>
      </g>
     </g>
    </g>
    <g id="text_6">
     <!-- Time [s] -->
     <g transform="translate(570.071094 284.596563)scale(0.1 -0.1)">
      <defs>
       <path d="M -0.296875 72.90625 
L 61.375 72.90625 
L 61.375 64.59375 
L 35.5 64.59375 
L 35.5 0 
L 25.59375 0 
L 25.59375 64.59375 
L -0.296875 64.59375 
z
" id="DejaVuSans-84"/>
       <path d="M 9.421875 54.6875 
L 18.40625 54.6875 
L 18.40625 0 
L 9.421875 0 
z
M 9.421875 75.984375 
L 18.40625 75.984375 
L 18.40625 64.59375 
L 9.421875 64.59375 
z
" id="DejaVuSans-105"/>
       <path d="M 52 44.1875 
Q 55.375 50.25 60.0625 53.125 
Q 64.75 56 71.09375 56 
Q 79.640625 56 84.28125 50.015625 
Q 88.921875 44.046875 88.921875 33.015625 
L 88.921875 0 
L 79.890625 0 
L 79.890625 32.71875 
Q 79.890625 40.578125 77.09375 44.375 
Q 74.3125 48.1875 68.609375 48.1875 
Q 61.625 48.1875 57.5625 43.546875 
Q 53.515625 38.921875 53.515625 30.90625 
L 53.515625 0 
L 44.484375 0 
L 44.484375 32.71875 
Q 44.484375 40.625 41.703125 44.40625 
Q 38.921875 48.1875 33.109375 48.1875 
Q 26.21875 48.1875 22.15625 43.53125 
Q 18.109375 38.875 18.109375 30.90625 
L 18.109375 0 
L 9.078125 0 
L 9.078125 54.6875 
L 18.109375 54.6875 
L 18.109375 46.1875 
Q 21.1875 51.21875 25.484375 53.609375 
Q 29.78125 56 35.6875 56 
Q 41.65625 56 45.828125 52.96875 
Q 50 49.953125 52 44.1875 
z
" id="DejaVuSans-109"/>
       <path d="M 56.203125 29.59375 
L 56.203125 25.203125 
L 14.890625 25.203125 
Q 15.484375 15.921875 20.484375 11.0625 
Q 25.484375 6.203125 34.421875 6.203125 
Q 39.59375 6.203125 44.453125 7.46875 
Q 49.3125 8.734375 54.109375 11.28125 
L 54.109375 2.78125 
Q 49.265625 0.734375 44.1875 -0.34375 
Q 39.109375 -1.421875 33.890625 -1.421875 
Q 20.796875 -1.421875 13.15625 6.1875 
Q 5.515625 13.8125 5.515625 26.8125 
Q 5.515625 40.234375 12.765625 48.109375 
Q 20.015625 56 32.328125 56 
Q 43.359375 56 49.78125 48.890625 
Q 56.203125 41.796875 56.203125 29.59375 
z
M 47.21875 32.234375 
Q 47.125 39.59375 43.09375 43.984375 
Q 39.0625 48.390625 32.421875 48.390625 
Q 24.90625 48.390625 20.390625 44.140625 
Q 15.875 39.890625 15.1875 32.171875 
z
" id="DejaVuSans-101"/>
       <path id="DejaVuSans-32"/>
       <path d="M 8.59375 75.984375 
L 29.296875 75.984375 
L 29.296875 69 
L 17.578125 69 
L 17.578125 -6.203125 
L 29.296875 -6.203125 
L 29.296875 -13.1875 
L 8.59375 -13.1875 
z
" id="DejaVuSans-91"/>
       <path d="M 44.28125 53.078125 
L 44.28125 44.578125 
Q 40.484375 46.53125 36.375 47.5 
Q 32.28125 48.484375 27.875 48.484375 
Q 21.1875 48.484375 17.84375 46.4375 
Q 14.5 44.390625 14.5 40.28125 
Q 14.5 37.15625 16.890625 35.375 
Q 19.28125 33.59375 26.515625 31.984375 
L 29.59375 31.296875 
Q 39.15625 29.25 43.1875 25.515625 
Q 47.21875 21.78125 47.21875 15.09375 
Q 47.21875 7.46875 41.1875 3.015625 
Q 35.15625 -1.421875 24.609375 -1.421875 
Q 20.21875 -1.421875 15.453125 -0.5625 
Q 10.6875 0.296875 5.421875 2 
L 5.421875 11.28125 
Q 10.40625 8.6875 15.234375 7.390625 
Q 20.0625 6.109375 24.8125 6.109375 
Q 31.15625 6.109375 34.5625 8.28125 
Q 37.984375 10.453125 37.984375 14.40625 
Q 37.984375 18.0625 35.515625 20.015625 
Q 33.0625 21.96875 24.703125 23.78125 
L 21.578125 24.515625 
Q 13.234375 26.265625 9.515625 29.90625 
Q 5.8125 33.546875 5.8125 39.890625 
Q 5.8125 47.609375 11.28125 51.796875 
Q 16.75 56 26.8125 56 
Q 31.78125 56 36.171875 55.265625 
Q 40.578125 54.546875 44.28125 53.078125 
z
" id="DejaVuSans-115"/>
       <path d="M 30.421875 75.984375 
L 30.421875 -13.1875 
L 9.71875 -13.1875 
L 9.71875 -6.203125 
L 21.390625 -6.203125 
L 21.390625 69 
L 9.71875 69 
L 9.71875 75.984375 
z
" id="DejaVuSans-93"/>
      </defs>
      <use xlink:href="#DejaVuSans-84"/>
      <use x="57.958984" xlink:href="#DejaVuSans-105"/>
      <use x="85.742188" xlink:href="#DejaVuSans-109"/>
      <use x="183.154297" xlink:href="#DejaVuSans-101"/>
      <use x="244.677734" xlink:href="#DejaVuSans-32"/>
      <use x="276.464844" xlink:href="#DejaVuSans-91"/>
      <use x="315.478516" xlink:href="#DejaVuSans-115"/>
      <use x="367.578125" xlink:href="#DejaVuSans-93"/>
     </g>
    </g>
    <g id="text_7">
     <!-- 1e−9 -->
     <g transform="translate(1009.542187 283.596563)scale(0.1 -0.1)">
      <defs>
       <path d="M 12.40625 8.296875 
L 28.515625 8.296875 
L 28.515625 63.921875 
L 10.984375 60.40625 
L 10.984375 69.390625 
L 28.421875 72.90625 
L 38.28125 72.90625 
L 38.28125 8.296875 
L 54.390625 8.296875 
L 54.390625 0 
L 12.40625 0 
z
" id="DejaVuSans-49"/>
       <path d="M 10.59375 35.5 
L 73.1875 35.5 
L 73.1875 27.203125 
L 10.59375 27.203125 
z
" id="DejaVuSans-8722"/>
       <path d="M 10.984375 1.515625 
L 10.984375 10.5 
Q 14.703125 8.734375 18.5 7.8125 
Q 22.3125 6.890625 25.984375 6.890625 
Q 35.75 6.890625 40.890625 13.453125 
Q 46.046875 20.015625 46.78125 33.40625 
Q 43.953125 29.203125 39.59375 26.953125 
Q 35.25 24.703125 29.984375 24.703125 
Q 19.046875 24.703125 12.671875 31.3125 
Q 6.296875 37.9375 6.296875 49.421875 
Q 6.296875 60.640625 12.9375 67.421875 
Q 19.578125 74.21875 30.609375 74.21875 
Q 43.265625 74.21875 49.921875 64.515625 
Q 56.59375 54.828125 56.59375 36.375 
Q 56.59375 19.140625 48.40625 8.859375 
Q 40.234375 -1.421875 26.421875 -1.421875 
Q 22.703125 -1.421875 18.890625 -0.6875 
Q 15.09375 0.046875 10.984375 1.515625 
z
M 30.609375 32.421875 
Q 37.25 32.421875 41.125 36.953125 
Q 45.015625 41.5 45.015625 49.421875 
Q 45.015625 57.28125 41.125 61.84375 
Q 37.25 66.40625 30.609375 66.40625 
Q 23.96875 66.40625 20.09375 61.84375 
Q 16.21875 57.28125 16.21875 49.421875 
Q 16.21875 41.5 20.09375 36.953125 
Q 23.96875 32.421875 30.609375 32.421875 
z
" id="DejaVuSans-57"/>
      </defs>
      <use xlink:href="#DejaVuSans-49"/>
      <use x="63.623047" xlink:href="#DejaVuSans-101"/>
      <use x="125.146484" xlink:href="#DejaVuSans-8722"/>
      <use x="208.935547" xlink:href="#DejaVuSans-57"/>
     </g>
    </g>
   </g>
   <g id="matplotlib.axis_2">
    <g id="ytick_1">
     <g id="line2d_6">
      <defs>
       <path d="M 0 0 
L -3.5 0 
" id="m2426225a7b" style="stroke:#000000;stroke-width:0.8;"/>
      </defs>
      <g>
       <use style="stroke:#000000;stroke-width:0.8;" x="144" xlink:href="#m2426225a7b" y="253.431477"/>
      </g>
     </g>
     <g id="text_8">
      <!-- −1.5 -->
      <g transform="translate(112.717187 257.230696)scale(0.1 -0.1)">
       <defs>
        <path d="M 10.6875 12.40625 
L 21 12.40625 
L 21 0 
L 10.6875 0 
z
" id="DejaVuSans-46"/>
        <path d="M 10.796875 72.90625 
L 49.515625 72.90625 
L 49.515625 64.59375 
L 19.828125 64.59375 
L 19.828125 46.734375 
Q 21.96875 47.46875 24.109375 47.828125 
Q 26.265625 48.1875 28.421875 48.1875 
Q 40.625 48.1875 47.75 41.5 
Q 54.890625 34.8125 54.890625 23.390625 
Q 54.890625 11.625 47.5625 5.09375 
Q 40.234375 -1.421875 26.90625 -1.421875 
Q 22.3125 -1.421875 17.546875 -0.640625 
Q 12.796875 0.140625 7.71875 1.703125 
L 7.71875 11.625 
Q 12.109375 9.234375 16.796875 8.0625 
Q 21.484375 6.890625 26.703125 6.890625 
Q 35.15625 6.890625 40.078125 11.328125 
Q 45.015625 15.765625 45.015625 23.390625 
Q 45.015625 31 40.078125 35.4375 
Q 35.15625 39.890625 26.703125 39.890625 
Q 22.75 39.890625 18.8125 39.015625 
Q 14.890625 38.140625 10.796875 36.28125 
z
" id="DejaVuSans-53"/>
       </defs>
       <use xlink:href="#DejaVuSans-8722"/>
       <use x="83.789062" xlink:href="#DejaVuSans-49"/>
       <use x="147.412109" xlink:href="#DejaVuSans-46"/>
       <use x="179.199219" xlink:href="#DejaVuSans-53"/>
      </g>
     </g>
    </g>
    <g id="ytick_2">
     <g id="line2d_7">
      <g>
       <use style="stroke:#000000;stroke-width:0.8;" x="144" xlink:href="#m2426225a7b" y="226.675361"/>
      </g>
     </g>
     <g id="text_9">
      <!-- −1.0 -->
      <g transform="translate(112.717187 230.47458)scale(0.1 -0.1)">
       <use xlink:href="#DejaVuSans-8722"/>
       <use x="83.789062" xlink:href="#DejaVuSans-49"/>
       <use x="147.412109" xlink:href="#DejaVuSans-46"/>
       <use x="179.199219" xlink:href="#DejaVuSans-48"/>
      </g>
     </g>
    </g>
    <g id="ytick_3">
     <g id="line2d_8">
      <g>
       <use style="stroke:#000000;stroke-width:0.8;" x="144" xlink:href="#m2426225a7b" y="199.919245"/>
      </g>
     </g>
     <g id="text_10">
      <!-- −0.5 -->
      <g transform="translate(112.717187 203.718464)scale(0.1 -0.1)">
       <use xlink:href="#DejaVuSans-8722"/>
       <use x="83.789062" xlink:href="#DejaVuSans-48"/>
       <use x="147.412109" xlink:href="#DejaVuSans-46"/>
       <use x="179.199219" xlink:href="#DejaVuSans-53"/>
      </g>
     </g>
    </g>
    <g id="ytick_4">
     <g id="line2d_9">
      <g>
       <use style="stroke:#000000;stroke-width:0.8;" x="144" xlink:href="#m2426225a7b" y="173.16313"/>
      </g>
     </g>
     <g id="text_11">
      <!-- 0.0 -->
      <g transform="translate(121.096875 176.962348)scale(0.1 -0.1)">
       <use xlink:href="#DejaVuSans-48"/>
       <use x="63.623047" xlink:href="#DejaVuSans-46"/>
       <use x="95.410156" xlink:href="#DejaVuSans-48"/>
      </g>
     </g>
    </g>
    <g id="ytick_5">
     <g id="line2d_10">
      <g>
       <use style="stroke:#000000;stroke-width:0.8;" x="144" xlink:href="#m2426225a7b" y="146.407014"/>
      </g>
     </g>
     <g id="text_12">
      <!-- 0.5 -->
      <g transform="translate(121.096875 150.206233)scale(0.1 -0.1)">
       <use xlink:href="#DejaVuSans-48"/>
       <use x="63.623047" xlink:href="#DejaVuSans-46"/>
       <use x="95.410156" xlink:href="#DejaVuSans-53"/>
      </g>
     </g>
    </g>
    <g id="ytick_6">
     <g id="line2d_11">
      <g>
       <use style="stroke:#000000;stroke-width:0.8;" x="144" xlink:href="#m2426225a7b" y="119.650898"/>
      </g>
     </g>
     <g id="text_13">
      <!-- 1.0 -->
      <g transform="translate(121.096875 123.450117)scale(0.1 -0.1)">
       <use xlink:href="#DejaVuSans-49"/>
       <use x="63.623047" xlink:href="#DejaVuSans-46"/>
       <use x="95.410156" xlink:href="#DejaVuSans-48"/>
      </g>
     </g>
    </g>
    <g id="ytick_7">
     <g id="line2d_12">
      <g>
       <use style="stroke:#000000;stroke-width:0.8;" x="144" xlink:href="#m2426225a7b" y="92.894782"/>
      </g>
     </g>
     <g id="text_14">
      <!-- 1.5 -->
      <g transform="translate(121.096875 96.694001)scale(0.1 -0.1)">
       <use xlink:href="#DejaVuSans-49"/>
       <use x="63.623047" xlink:href="#DejaVuSans-46"/>
       <use x="95.410156" xlink:href="#DejaVuSans-53"/>
      </g>
     </g>
    </g>
    <g id="ytick_8">
     <g id="line2d_13">
      <g>
       <use style="stroke:#000000;stroke-width:0.8;" x="144" xlink:href="#m2426225a7b" y="66.138666"/>
      </g>
     </g>
     <g id="text_15">
      <!-- 2.0 -->
      <g transform="translate(121.096875 69.937885)scale(0.1 -0.1)">
       <use xlink:href="#DejaVuSans-50"/>
       <use x="63.623047" xlink:href="#DejaVuSans-46"/>
       <use x="95.410156" xlink:href="#DejaVuSans-48"/>
      </g>
     </g>
    </g>
    <g id="ytick_9">
     <g id="line2d_14">
      <g>
       <use style="stroke:#000000;stroke-width:0.8;" x="144" xlink:href="#m2426225a7b" y="39.382551"/>
      </g>
     </g>
     <g id="text_16">
      <!-- 2.5 -->
      <g transform="translate(121.096875 43.181769)scale(0.1 -0.1)">
       <use xlink:href="#DejaVuSans-50"/>
       <use x="63.623047" xlink:href="#DejaVuSans-46"/>
       <use x="95.410156" xlink:href="#DejaVuSans-53"/>
      </g>
     </g>
    </g>
    <g id="text_17">
     <!-- Voltage [V] -->
     <g transform="translate(106.6375 173.107188)rotate(-90)scale(0.1 -0.1)">
      <defs>
       <path d="M 28.609375 0 
L 0.78125 72.90625 
L 11.078125 72.90625 
L 34.1875 11.53125 
L 57.328125 72.90625 
L 67.578125 72.90625 
L 39.796875 0 
z
" id="DejaVuSans-86"/>
       <path d="M 30.609375 48.390625 
Q 23.390625 48.390625 19.1875 42.75 
Q 14.984375 37.109375 14.984375 27.296875 
Q 14.984375 17.484375 19.15625 11.84375 
Q 23.34375 6.203125 30.609375 6.203125 
Q 37.796875 6.203125 41.984375 11.859375 
Q 46.1875 17.53125 46.1875 27.296875 
Q 46.1875 37.015625 41.984375 42.703125 
Q 37.796875 48.390625 30.609375 48.390625 
z
M 30.609375 56 
Q 42.328125 56 49.015625 48.375 
Q 55.71875 40.765625 55.71875 27.296875 
Q 55.71875 13.875 49.015625 6.21875 
Q 42.328125 -1.421875 30.609375 -1.421875 
Q 18.84375 -1.421875 12.171875 6.21875 
Q 5.515625 13.875 5.515625 27.296875 
Q 5.515625 40.765625 12.171875 48.375 
Q 18.84375 56 30.609375 56 
z
" id="DejaVuSans-111"/>
       <path d="M 9.421875 75.984375 
L 18.40625 75.984375 
L 18.40625 0 
L 9.421875 0 
z
" id="DejaVuSans-108"/>
       <path d="M 18.3125 70.21875 
L 18.3125 54.6875 
L 36.8125 54.6875 
L 36.8125 47.703125 
L 18.3125 47.703125 
L 18.3125 18.015625 
Q 18.3125 11.328125 20.140625 9.421875 
Q 21.96875 7.515625 27.59375 7.515625 
L 36.8125 7.515625 
L 36.8125 0 
L 27.59375 0 
Q 17.1875 0 13.234375 3.875 
Q 9.28125 7.765625 9.28125 18.015625 
L 9.28125 47.703125 
L 2.6875 47.703125 
L 2.6875 54.6875 
L 9.28125 54.6875 
L 9.28125 70.21875 
z
" id="DejaVuSans-116"/>
       <path d="M 34.28125 27.484375 
Q 23.390625 27.484375 19.1875 25 
Q 14.984375 22.515625 14.984375 16.5 
Q 14.984375 11.71875 18.140625 8.90625 
Q 21.296875 6.109375 26.703125 6.109375 
Q 34.1875 6.109375 38.703125 11.40625 
Q 43.21875 16.703125 43.21875 25.484375 
L 43.21875 27.484375 
z
M 52.203125 31.203125 
L 52.203125 0 
L 43.21875 0 
L 43.21875 8.296875 
Q 40.140625 3.328125 35.546875 0.953125 
Q 30.953125 -1.421875 24.3125 -1.421875 
Q 15.921875 -1.421875 10.953125 3.296875 
Q 6 8.015625 6 15.921875 
Q 6 25.140625 12.171875 29.828125 
Q 18.359375 34.515625 30.609375 34.515625 
L 43.21875 34.515625 
L 43.21875 35.40625 
Q 43.21875 41.609375 39.140625 45 
Q 35.0625 48.390625 27.6875 48.390625 
Q 23 48.390625 18.546875 47.265625 
Q 14.109375 46.140625 10.015625 43.890625 
L 10.015625 52.203125 
Q 14.9375 54.109375 19.578125 55.046875 
Q 24.21875 56 28.609375 56 
Q 40.484375 56 46.34375 49.84375 
Q 52.203125 43.703125 52.203125 31.203125 
z
" id="DejaVuSans-97"/>
       <path d="M 45.40625 27.984375 
Q 45.40625 37.75 41.375 43.109375 
Q 37.359375 48.484375 30.078125 48.484375 
Q 22.859375 48.484375 18.828125 43.109375 
Q 14.796875 37.75 14.796875 27.984375 
Q 14.796875 18.265625 18.828125 12.890625 
Q 22.859375 7.515625 30.078125 7.515625 
Q 37.359375 7.515625 41.375 12.890625 
Q 45.40625 18.265625 45.40625 27.984375 
z
M 54.390625 6.78125 
Q 54.390625 -7.171875 48.1875 -13.984375 
Q 42 -20.796875 29.203125 -20.796875 
Q 24.46875 -20.796875 20.265625 -20.09375 
Q 16.0625 -19.390625 12.109375 -17.921875 
L 12.109375 -9.1875 
Q 16.0625 -11.328125 19.921875 -12.34375 
Q 23.78125 -13.375 27.78125 -13.375 
Q 36.625 -13.375 41.015625 -8.765625 
Q 45.40625 -4.15625 45.40625 5.171875 
L 45.40625 9.625 
Q 42.625 4.78125 38.28125 2.390625 
Q 33.9375 0 27.875 0 
Q 17.828125 0 11.671875 7.65625 
Q 5.515625 15.328125 5.515625 27.984375 
Q 5.515625 40.671875 11.671875 48.328125 
Q 17.828125 56 27.875 56 
Q 33.9375 56 38.28125 53.609375 
Q 42.625 51.21875 45.40625 46.390625 
L 45.40625 54.6875 
L 54.390625 54.6875 
z
" id="DejaVuSans-103"/>
      </defs>
      <use xlink:href="#DejaVuSans-86"/>
      <use x="60.658203" xlink:href="#DejaVuSans-111"/>
      <use x="121.839844" xlink:href="#DejaVuSans-108"/>
      <use x="149.623047" xlink:href="#DejaVuSans-116"/>
      <use x="188.832031" xlink:href="#DejaVuSans-97"/>
      <use x="250.111328" xlink:href="#DejaVuSans-103"/>
      <use x="313.587891" xlink:href="#DejaVuSans-101"/>
      <use x="375.111328" xlink:href="#DejaVuSans-32"/>
      <use x="406.898438" xlink:href="#DejaVuSans-91"/>
      <use x="445.912109" xlink:href="#DejaVuSans-86"/>
      <use x="514.320312" xlink:href="#DejaVuSans-93"/>
     </g>
    </g>
   </g>
   <g id="line2d_15">
    <path clip-path="url(#p857e39c96b)" d="M 184.581818 173.163125 
L 324.147114 173.052162 
L 325.760609 172.710328 
L 327.117412 172.19638 
L 328.382539 171.475914 
L 329.62933 170.505681 
L 330.92196 169.209938 
L 332.306265 167.495751 
L 333.847519 165.218313 
L 335.653534 162.131829 
L 337.936262 157.759628 
L 341.529955 150.326993 
L 347.763913 137.459801 
L 350.89006 131.527526 
L 353.383643 127.252525 
L 355.574696 123.924192 
L 357.600732 121.239409 
L 359.553427 119.013835 
L 361.460285 117.170124 
L 363.357975 115.634163 
L 365.338174 114.315622 
L 367.455886 113.183891 
L 369.674441 112.257809 
L 372.012175 111.515969 
L 374.85541 110.866919 
L 378.018227 110.388733 
L 380.942687 110.141667 
L 383.124572 110.15039 
L 384.811407 110.369094 
L 386.287389 110.783654 
L 387.699197 111.4197 
L 389.065167 112.278357 
L 390.541148 113.474035 
L 392.209648 115.132218 
L 394.079836 117.314447 
L 396.445073 120.432037 
L 400.469642 126.172402 
L 404.109174 131.210771 
L 406.309394 133.887501 
L 408.115408 135.747629 
L 409.7014 137.071853 
L 411.149879 137.998471 
L 412.506681 138.608403 
L 413.826814 138.960519 
L 415.137778 139.08089 
L 416.467078 138.979773 
L 417.825256 138.652861 
L 419.209561 138.088939 
L 420.612202 137.275093 
L 422.06068 136.173495 
L 423.61917 134.69919 
L 425.370178 132.724252 
L 427.607069 129.839156 
L 434.134389 121.212182 
L 436.297939 118.840616 
L 438.388149 116.887526 
L 440.340844 115.35804 
L 442.394383 114.031043 
L 444.484593 112.939233 
L 446.748986 112.004214 
L 449.27924 111.206347 
L 452.002012 110.574367 
L 455.173997 110.05776 
L 459.024383 109.652459 
L 463.259807 109.417754 
L 465.760816 109.485072 
L 467.392646 109.748192 
L 468.804454 110.20829 
L 470.069581 110.859374 
L 471.334707 111.771168 
L 472.618169 112.978993 
L 474.002474 114.601484 
L 475.496791 116.709277 
L 477.165291 119.461946 
L 479.062981 123.031159 
L 481.409883 127.943817 
L 484.719381 135.442695 
L 491.439221 150.759233 
L 493.767788 155.4594 
L 495.65631 158.79067 
L 497.324811 161.297467 
L 498.874132 163.236274 
L 500.368449 164.759339 
L 501.84443 165.952897 
L 503.329579 166.871937 
L 504.823895 167.53855 
L 506.310052 167.960804 
L 507.758531 168.143504 
L 509.161171 168.098451 
L 510.527141 167.832927 
L 511.856441 167.348105 
L 513.167406 166.631207 
L 514.47837 165.6576 
L 515.835173 164.366591 
L 517.283651 162.671987 
L 518.897146 160.427882 
L 520.785669 157.400026 
L 523.187576 153.099542 
L 527.175475 145.424979 
L 532.630189 135.026883 
L 535.517978 129.994641 
L 537.809874 126.42964 
L 539.828393 123.689579 
L 541.707748 121.507152 
L 543.532097 119.724804 
L 545.374782 118.233359 
L 547.309142 116.958591 
L 549.353514 115.881603 
L 551.480393 114.998705 
L 553.928138 114.216891 
L 556.870933 113.524283 
L 560.244605 112.948384 
L 582.345543 109.835363 
L 587.236175 109.461366 
L 593.97435 109.179089 
L 603.096097 109.024011 
L 618.07593 108.960171 
L 680.92981 108.84908 
L 685.926235 108.901575 
L 687.814757 109.144842 
L 689.254068 109.543508 
L 690.565033 110.134818 
L 691.83016 110.954893 
L 693.104454 112.051573 
L 694.452089 113.511654 
L 695.918903 115.438469 
L 697.569068 117.990949 
L 699.430088 121.289459 
L 701.712816 125.807817 
L 704.884801 132.626068 
L 711.962176 147.965921 
L 714.290743 152.402915 
L 716.206768 155.594406 
L 717.902771 158.002504 
L 719.470428 159.852197 
L 720.946409 161.258119 
L 722.361426 162.305567 
L 723.727396 163.045947 
L 725.065864 163.522238 
L 726.395164 163.760779 
L 727.733631 163.775431 
L 729.090433 163.567391 
L 730.456404 163.131614 
L 731.822374 162.460394 
L 733.197512 161.534606 
L 734.627655 160.297162 
L 736.158641 158.666966 
L 737.854645 156.522367 
L 739.834843 153.643227 
L 742.374264 149.532085 
L 747.013062 141.505839 
L 751.15681 134.530054 
L 753.787907 130.524541 
L 755.951457 127.620732 
L 757.87665 125.397165 
L 759.664329 123.663427 
L 761.3695 122.312768 
L 763.028833 121.277745 
L 764.63316 120.532967 
L 766.173315 120.058153 
L 767.603458 119.845634 
L 768.92359 119.870036 
L 770.179549 120.115379 
L 771.398838 120.582327 
L 772.618127 121.290561 
L 773.874086 122.281966 
L 775.203386 123.623255 
L 776.624361 125.382427 
L 778.182851 127.678059 
L 779.924692 130.654709 
L 781.941561 134.562194 
L 784.416809 139.87271 
L 788.258027 148.720075 
L 791.943396 157.027169 
L 793.951097 161.014376 
L 795.61043 163.83332 
L 797.123081 165.97687 
L 798.57156 167.651905 
L 800.001703 168.973216 
L 801.477684 170.036259 
L 803.036174 170.884955 
L 804.75968 171.566701 
L 806.739878 172.104256 
L 809.132618 172.515091 
L 812.258764 172.813784 
L 816.860892 173.010264 
L 825.405081 173.116401 
L 854.906369 173.161213 
L 996.218182 173.163125 
L 996.218182 173.163125 
" style="fill:none;stroke:#ff0000;stroke-linecap:square;stroke-width:1.5;"/>
   </g>
   <g id="line2d_16">
    <path clip-path="url(#p857e39c96b)" d="M 184.581818 108.948452 
L 338.541323 108.83736 
L 342.630066 108.924318 
L 344.454415 109.19434 
L 345.902893 109.637154 
L 347.186355 110.264532 
L 348.442314 111.133838 
L 349.744112 112.324485 
L 351.064244 113.838506 
L 352.531057 115.874112 
L 354.135385 118.50076 
L 355.941399 121.907434 
L 358.013273 126.311351 
L 360.561862 132.280448 
L 364.320572 141.719219 
L 369.326073 154.207422 
L 371.480455 158.978642 
L 373.203961 162.278453 
L 374.736232 164.749567 
L 376.18471 166.674788 
L 377.596518 168.190283 
L 379.026661 169.403481 
L 380.51181 170.373669 
L 382.116137 171.154576 
L 383.912984 171.777487 
L 386.021529 172.266111 
L 388.652625 172.637272 
L 392.246319 172.904297 
L 397.957724 173.081049 
L 405.667663 173.107119 
L 410.022266 172.907091 
L 415.385303 172.405433 
L 420.346342 172.019987 
L 423.720013 171.986122 
L 427.432885 172.184495 
L 438.809858 172.935313 
L 446.373115 173.095957 
L 462.29721 173.157215 
L 486.598736 173.069611 
L 488.358912 172.742261 
L 489.834894 172.243458 
L 491.200864 171.544844 
L 492.548499 170.601614 
L 493.941972 169.347077 
L 495.42712 167.701029 
L 497.077286 165.527336 
L 499.002479 162.605198 
L 501.413553 158.517399 
L 505.300609 151.421977 
L 510.34379 142.315024 
L 513.084897 137.826627 
L 515.312621 134.588747 
L 517.256149 132.14351 
L 519.025492 130.2662 
L 520.675658 128.831676 
L 522.26165 127.742236 
L 523.801804 126.949704 
L 525.296121 126.426462 
L 526.717096 126.158628 
L 528.073899 126.126911 
L 529.357361 126.317623 
L 530.61332 126.730754 
L 531.869279 127.382875 
L 533.152741 128.305372 
L 534.500376 129.554658 
L 535.948854 131.210439 
L 537.534846 133.373018 
L 539.324176 136.20396 
L 541.43272 139.976556 
L 544.182996 145.390522 
L 551.352047 159.735728 
L 553.249737 162.896551 
L 554.90907 165.241366 
L 556.458392 167.055276 
L 557.971043 168.490904 
L 559.50203 169.641395 
L 561.106357 170.569439 
L 562.848199 171.317446 
L 564.810062 171.913197 
L 567.129461 172.377877 
L 570.044753 172.72432 
L 574.058046 172.961585 
L 580.640372 173.100783 
L 596.724625 173.157206 
L 707.396719 173.13375 
L 709.395252 172.850106 
L 710.99958 172.401213 
L 712.457226 171.762146 
L 713.887369 170.888574 
L 715.354183 169.726821 
L 716.92184 168.194417 
L 718.672848 166.160594 
L 720.744723 163.394798 
L 723.470704 159.355995 
L 731.428168 147.347208 
L 733.802572 144.282375 
L 735.828608 142.018631 
L 737.652958 140.304682 
L 739.358129 139.001981 
L 740.989959 138.031199 
L 742.566783 137.347725 
L 744.088602 136.925915 
L 745.546248 136.748607 
L 746.939721 136.800198 
L 748.287356 137.071323 
L 749.625824 137.569619 
L 750.982626 138.316296 
L 752.394434 139.352625 
L 753.907086 140.747453 
L 755.566419 142.591351 
L 757.445774 145.024707 
L 759.73767 148.37697 
L 763.322196 154.076456 
L 767.035068 159.852791 
L 769.171115 162.770872 
L 770.986297 164.887115 
L 772.673132 166.520292 
L 774.323298 167.812343 
L 775.991798 168.838641 
L 777.733639 169.649972 
L 779.585491 170.266998 
L 781.510684 170.674554 
L 783.353369 170.841705 
L 785.012702 170.774432 
L 786.49785 170.495616 
L 787.86382 170.014968 
L 789.174785 169.315912 
L 790.467415 168.36972 
L 791.787547 167.11994 
L 793.18102 165.484312 
L 794.712006 163.331124 
L 796.472183 160.454943 
L 798.654068 156.437132 
L 801.862723 150.005749 
L 809.279299 135.033578 
L 812.167088 129.760536 
L 814.532325 125.888118 
L 816.650037 122.834255 
L 818.639403 120.344486 
L 820.573764 118.272637 
L 822.471454 116.556125 
L 824.387479 115.111455 
L 826.422683 113.855042 
L 828.55873 112.797533 
L 830.804788 111.922287 
L 833.344209 111.164875 
L 836.305339 110.518661 
L 839.624005 110.011472 
L 843.66691 109.604191 
L 849.561667 109.26808 
L 859.050117 109.046914 
L 875.982647 108.960278 
L 996.218182 108.948452 
L 996.218182 108.948452 
" style="fill:none;stroke:#008000;stroke-linecap:square;stroke-width:1.5;"/>
   </g>
   <g id="line2d_17">
    <path clip-path="url(#p857e39c96b)" d="M 184.581818 44.666159 
L 272.7584 44.717006 
L 293.894084 44.950079 
L 307.187082 45.307117 
L 316.904722 45.779615 
L 324.605494 46.366827 
L 331.022803 47.071238 
L 336.570292 47.899099 
L 341.429112 48.843728 
L 345.829553 49.922738 
L 349.86329 51.139854 
L 353.622 52.507419 
L 357.105682 54.008227 
L 360.497689 55.714595 
L 363.706343 57.576595 
L 366.823322 59.637787 
L 369.940301 61.966272 
L 373.05728 64.577213 
L 376.138872 67.447026 
L 379.347527 70.746846 
L 382.556181 74.367084 
L 385.856512 78.424347 
L 389.248518 82.945908 
L 392.732201 87.964988 
L 396.215883 93.380945 
L 399.607889 99.068088 
L 402.90822 105.038549 
L 406.116875 111.304436 
L 409.325529 118.062036 
L 412.717536 125.744277 
L 416.567922 135.048394 
L 429.376413 166.54084 
L 432.31004 172.833171 
L 434.96864 178.018688 
L 437.535563 182.539619 
L 440.010811 186.45699 
L 442.486059 189.966724 
L 444.961307 193.103857 
L 447.528231 196.003716 
L 450.186831 198.668596 
L 452.84543 201.023032 
L 455.50403 203.088278 
L 458.070954 204.811322 
L 460.454526 206.158041 
L 462.654746 207.155148 
L 464.633203 207.812142 
L 466.375044 208.163552 
L 467.933533 208.260975 
L 469.400347 208.130015 
L 470.775485 207.777615 
L 472.058946 207.217977 
L 473.342408 206.406556 
L 474.62587 205.315964 
L 475.909332 203.922476 
L 477.28447 202.074659 
L 478.751283 199.692949 
L 480.309773 196.718394 
L 482.14329 192.716817 
L 484.80189 186.302417 
L 488.560599 177.274474 
L 490.577468 173.03258 
L 492.319309 169.887348 
L 493.877799 167.509544 
L 495.436288 165.530784 
L 496.994777 163.915283 
L 498.553267 162.614908 
L 500.203432 161.523192 
L 502.036949 160.581793 
L 504.145494 159.759178 
L 506.777599 158.986459 
L 510.903012 158.041317 
L 517.228646 156.566847 
L 520.89568 155.471309 
L 524.19601 154.2576 
L 527.404665 152.838615 
L 530.521644 151.21608 
L 533.638623 149.343621 
L 536.847278 147.15434 
L 540.204264 144.590019 
L 543.871298 141.497237 
L 547.996711 137.715444 
L 553.405586 132.43293 
L 564.681716 121.348605 
L 569.082156 117.381692 
L 572.994607 114.142963 
L 576.753316 111.317726 
L 580.42035 108.839347 
L 584.087384 106.628298 
L 587.896241 104.59606 
L 591.838302 102.748166 
L 596.055391 101.021281 
L 600.639184 99.389504 
L 605.773031 97.804814 
L 611.640286 96.232125 
L 618.699326 94.578467 
L 627.22518 92.816135 
L 635.200979 91.379682 
L 640.381581 90.654258 
L 643.865264 90.375152 
L 646.523863 90.372916 
L 648.724084 90.590873 
L 650.557601 90.991465 
L 652.207766 91.580948 
L 653.67458 92.337146 
L 655.049717 93.289376 
L 656.424855 94.521068 
L 657.799993 96.075371 
L 659.17513 97.990904 
L 660.550268 100.295443 
L 662.017082 103.19244 
L 663.667247 106.964393 
L 665.684116 112.172484 
L 672.284777 129.747925 
L 673.934942 133.281552 
L 675.493432 136.107532 
L 676.960245 138.312373 
L 678.335383 140.004092 
L 679.710521 141.370344 
L 681.177334 142.51774 
L 682.735824 143.445185 
L 684.441086 144.1858 
L 686.366279 144.76214 
L 688.658175 145.198297 
L 691.683478 145.526832 
L 703.234635 146.559605 
L 706.351614 147.178592 
L 709.193566 147.971376 
L 711.852165 148.945402 
L 714.419089 150.125141 
L 716.894337 151.503506 
L 719.461261 153.193685 
L 722.095566 155.205333 
L 724.845842 157.590879 
L 727.962821 160.603661 
L 731.813206 164.660316 
L 742.355929 175.960318 
L 745.472908 178.874772 
L 748.314859 181.231939 
L 750.973459 183.151838 
L 753.540383 184.737768 
L 756.107306 186.066754 
L 758.765906 187.187958 
L 761.516181 188.09823 
L 764.358133 188.802324 
L 767.383436 189.324133 
L 770.775442 189.676222 
L 774.534152 189.835621 
L 778.842917 189.790656 
L 784.06844 189.503683 
L 790.760777 188.898745 
L 800.570093 187.766327 
L 839.257302 183.113635 
L 855.208899 181.513884 
L 871.435525 180.111809 
L 888.487233 178.864245 
L 906.639051 177.761283 
L 926.349358 176.788884 
L 948.168211 175.939265 
L 972.737338 175.210409 
L 996.11468 174.690941 
L 996.11468 174.690941 
" style="fill:none;stroke:#008000;stroke-dasharray:5.55,2.4;stroke-dashoffset:0;stroke-width:1.5;"/>
   </g>
   <g id="line2d_18">
    <path clip-path="url(#p857e39c96b)" d="M 184.581818 108.880836 
L 272.7584 108.931683 
L 293.894084 109.164757 
L 307.187082 109.521688 
L 316.996398 109.999561 
L 324.605494 110.583753 
L 330.564424 111.256815 
L 335.928561 112.088975 
L 344.637767 113.532754 
L 346.10458 113.44167 
L 347.388042 113.141645 
L 348.579828 112.644059 
L 349.86329 111.854458 
L 351.146752 110.799491 
L 352.52189 109.384549 
L 354.080379 107.450291 
L 355.82222 104.921078 
L 357.930765 101.43582 
L 360.589365 96.580072 
L 368.748515 81.369992 
L 370.582032 78.579123 
L 372.048846 76.739675 
L 373.332308 75.482042 
L 374.477431 74.662947 
L 375.588817 74.146444 
L 376.597251 73.909081 
L 377.697361 73.887069 
L 378.797472 74.092696 
L 379.989258 74.545949 
L 381.27272 75.269012 
L 382.739533 76.349798 
L 384.481374 77.924807 
L 386.498243 80.06599 
L 388.881815 82.942126 
L 391.632091 86.630031 
L 394.657394 91.068797 
L 397.866048 96.177746 
L 401.074703 101.70639 
L 404.191682 107.523742 
L 407.125309 113.471495 
L 410.058936 119.935812 
L 413.175915 127.356329 
L 417.275201 137.745572 
L 424.700945 156.636422 
L 428.001275 164.339731 
L 431.026578 170.837249 
L 433.868529 176.411592 
L 436.527129 181.144583 
L 439.094053 185.273107 
L 441.660977 188.984311 
L 444.2279 192.306028 
L 446.794824 195.272348 
L 449.453424 198.006799 
L 452.112023 200.430158 
L 454.770623 202.564956 
L 457.429223 204.418255 
L 459.904471 205.878849 
L 462.196367 206.974919 
L 464.174823 207.686655 
L 466.00834 208.111296 
L 467.658506 208.259235 
L 469.125319 208.167527 
L 470.500457 207.857189 
L 471.783919 207.341831 
L 473.067381 206.57972 
L 474.350843 205.543212 
L 475.634305 204.207663 
L 476.917766 202.554717 
L 478.292904 200.422483 
L 479.851394 197.565891 
L 481.593235 193.88215 
L 483.976807 188.264246 
L 487.643841 179.638017 
L 489.20233 176.537696 
L 490.485792 174.433813 
L 491.585902 173.010516 
L 492.594337 172.036014 
L 493.511095 171.429838 
L 494.427854 171.087291 
L 495.344612 170.9993 
L 496.261371 171.151661 
L 497.178129 171.526252 
L 498.186564 172.170113 
L 499.37835 173.204594 
L 500.753487 174.704421 
L 502.495328 176.964643 
L 504.787225 180.340238 
L 513.011557 192.806841 
L 515.028425 195.307624 
L 516.770267 197.132521 
L 518.328756 198.461896 
L 519.79557 199.430361 
L 521.170707 200.080734 
L 522.545845 200.480527 
L 523.829307 200.629537 
L 525.112769 200.562823 
L 526.396231 200.275637 
L 527.679693 199.756072 
L 528.963155 198.986339 
L 530.246616 197.946358 
L 531.530078 196.618408 
L 532.905216 194.862882 
L 534.37203 192.606184 
L 535.930519 189.78221 
L 537.67236 186.135881 
L 539.654209 181.425534 
L 541.946105 175.367139 
L 544.971408 166.675083 
L 552.305476 145.306334 
L 554.41402 140.004174 
L 556.339213 135.734124 
L 558.264406 132.006064 
L 560.189599 128.762359 
L 562.206468 125.796765 
L 564.406688 122.961114 
L 566.79026 120.249457 
L 569.44886 117.559755 
L 572.352876 114.933086 
L 575.56153 112.334563 
L 578.953537 109.880996 
L 582.437219 107.637533 
L 586.012577 105.595549 
L 589.821434 103.678368 
L 593.855171 101.901221 
L 598.163936 100.24682 
L 602.93108 98.65661 
L 608.339955 97.091182 
L 614.665589 95.497501 
L 622.36636 93.793975 
L 631.167242 92.074962 
L 637.814658 90.981596 
L 642.123423 90.484789 
L 645.148726 90.344711 
L 647.532298 90.442823 
L 649.549166 90.742378 
L 651.291007 91.223105 
L 652.849497 91.88193 
L 654.31631 92.749534 
L 655.691448 93.826727 
L 657.066586 95.203749 
L 658.441724 96.922313 
L 659.816861 99.016862 
L 661.283675 101.687786 
L 662.842164 105.014551 
L 664.675681 109.500461 
L 667.242605 116.469394 
L 671.001315 126.649713 
L 672.926508 131.186172 
L 674.576673 134.506579 
L 676.043487 136.985211 
L 677.5103 139.030996 
L 678.885438 140.58764 
L 680.352252 141.909014 
L 681.819065 142.932976 
L 683.432652 143.778825 
L 685.174493 144.433343 
L 687.191362 144.943524 
L 689.66661 145.325088 
L 693.150292 145.614029 
L 701.492794 146.232325 
L 704.609773 146.721241 
L 706.809993 147.276798 
L 708.551835 147.934069 
L 710.110324 148.764128 
L 711.485462 149.744892 
L 712.8606 151.001413 
L 714.235737 152.558658 
L 715.702551 154.560989 
L 717.26104 157.066158 
L 719.002881 160.291771 
L 721.01975 164.509272 
L 723.470704 170.17041 
L 727.046062 179.047337 
L 733.096668 194.074596 
L 735.755268 200.060908 
L 737.955488 204.505438 
L 739.972357 208.097441 
L 741.805874 210.931427 
L 743.547715 213.226287 
L 745.106204 214.933972 
L 746.573018 216.221748 
L 747.85648 217.075694 
L 749.048266 217.626888 
L 750.240052 217.936276 
L 751.340162 218.003729 
L 752.440272 217.862622 
L 753.632058 217.479988 
L 754.91552 216.812885 
L 756.290658 215.826033 
L 757.757472 214.496338 
L 759.499313 212.604544 
L 761.607857 209.971931 
L 765.274891 204.959766 
L 768.39187 200.860465 
L 770.408739 198.558287 
L 772.242256 196.793422 
L 773.984097 195.418041 
L 775.725938 194.315228 
L 777.559455 193.408949 
L 779.576324 192.662321 
L 781.684868 192.12351 
L 783.610061 191.85392 
L 785.260226 191.831346 
L 786.72704 192.020222 
L 788.102178 192.419803 
L 789.38564 193.022107 
L 790.669101 193.873753 
L 791.952563 194.992546 
L 793.327701 196.491371 
L 794.886191 198.544374 
L 796.628032 201.223136 
L 798.828252 205.042075 
L 802.128583 211.277177 
L 808.82092 223.980893 
L 811.754547 229.043146 
L 814.138119 232.72307 
L 816.246663 235.576599 
L 818.171856 237.825528 
L 820.097049 239.733165 
L 821.930566 241.246918 
L 823.855759 242.544543 
L 825.780952 243.577395 
L 827.889496 244.449128 
L 830.089717 245.119214 
L 832.564965 245.639824 
L 835.406916 246.004311 
L 838.798922 246.205735 
L 843.016011 246.221937 
L 848.608238 246.003927 
L 857.317444 245.411576 
L 894.446163 242.691617 
L 913.05636 241.635395 
L 933.408399 240.704878 
L 956.052334 239.896474 
L 981.721571 239.207821 
L 996.11468 238.905618 
L 996.11468 238.905618 
" style="fill:none;stroke:#008000;stroke-dasharray:9.6,2.4,1.5,2.4;stroke-dashoffset:0;stroke-width:1.5;"/>
   </g>
   <g id="patch_3">
    <path d="M 144 256.32 
L 144 34.56 
" style="fill:none;stroke:#000000;stroke-linecap:square;stroke-linejoin:miter;stroke-width:0.8;"/>
   </g>
   <g id="patch_4">
    <path d="M 1036.8 256.32 
L 1036.8 34.56 
" style="fill:none;stroke:#000000;stroke-linecap:square;stroke-linejoin:miter;stroke-width:0.8;"/>
   </g>
   <g id="patch_5">
    <path d="M 144 256.32 
L 1036.8 256.32 
" style="fill:none;stroke:#000000;stroke-linecap:square;stroke-linejoin:miter;stroke-width:0.8;"/>
   </g>
   <g id="patch_6">
    <path d="M 144 34.56 
L 1036.8 34.56 
" style="fill:none;stroke:#000000;stroke-linecap:square;stroke-linejoin:miter;stroke-width:0.8;"/>
   </g>
   <g id="text_18">
    <!-- In  RMSE: 0.0 -->
    <g transform="translate(184.581818 153.874732)scale(0.1 -0.1)">
     <defs>
      <path d="M 9.8125 72.90625 
L 50.296875 72.90625 
L 50.296875 64.59375 
L 35.015625 64.59375 
L 35.015625 8.296875 
L 50.296875 8.296875 
L 50.296875 0 
L 9.8125 0 
L 9.8125 8.296875 
L 25.09375 8.296875 
L 25.09375 64.59375 
L 9.8125 64.59375 
z
" id="DejaVuSansMono-73"/>
      <path d="M 51.3125 33.890625 
L 51.3125 0 
L 42.28125 0 
L 42.28125 33.890625 
Q 42.28125 41.265625 39.6875 44.71875 
Q 37.109375 48.1875 31.59375 48.1875 
Q 25.296875 48.1875 21.890625 43.71875 
Q 18.5 39.265625 18.5 30.90625 
L 18.5 0 
L 9.515625 0 
L 9.515625 54.6875 
L 18.5 54.6875 
L 18.5 46.484375 
Q 20.90625 51.171875 25 53.578125 
Q 29.109375 56 34.71875 56 
Q 43.0625 56 47.1875 50.5 
Q 51.3125 45.015625 51.3125 33.890625 
z
" id="DejaVuSansMono-110"/>
      <path id="DejaVuSansMono-32"/>
      <path d="M 37.109375 34.421875 
Q 40.921875 33.453125 43.609375 30.734375 
Q 46.296875 28.03125 50.296875 19.921875 
L 60.203125 0 
L 49.609375 0 
L 40.921875 18.40625 
Q 37.15625 26.265625 34.15625 28.53125 
Q 31.15625 30.8125 26.3125 30.8125 
L 16.890625 30.8125 
L 16.890625 0 
L 6.984375 0 
L 6.984375 72.90625 
L 27.296875 72.90625 
Q 39.3125 72.90625 45.703125 67.484375 
Q 52.09375 62.0625 52.09375 51.8125 
Q 52.09375 44.578125 48.15625 40.015625 
Q 44.234375 35.453125 37.109375 34.421875 
z
M 16.890625 64.796875 
L 16.890625 38.921875 
L 27.6875 38.921875 
Q 34.765625 38.921875 38.234375 42.09375 
Q 41.703125 45.265625 41.703125 51.8125 
Q 41.703125 58.109375 38.015625 61.453125 
Q 34.328125 64.796875 27.296875 64.796875 
z
" id="DejaVuSansMono-82"/>
      <path d="M 4.203125 72.90625 
L 17.390625 72.90625 
L 29.984375 35.796875 
L 42.671875 72.90625 
L 55.90625 72.90625 
L 55.90625 0 
L 46.78125 0 
L 46.78125 64.40625 
L 33.796875 25.984375 
L 26.3125 25.984375 
L 13.28125 64.40625 
L 13.28125 0 
L 4.203125 0 
z
" id="DejaVuSansMono-77"/>
      <path d="M 49.421875 70.40625 
L 49.421875 60.40625 
Q 44.921875 63.28125 40.40625 64.75 
Q 35.890625 66.21875 31.296875 66.21875 
Q 24.3125 66.21875 20.265625 62.96875 
Q 16.21875 59.71875 16.21875 54.203125 
Q 16.21875 49.359375 18.875 46.8125 
Q 21.53125 44.28125 28.8125 42.578125 
L 33.984375 41.40625 
Q 44.234375 39.015625 48.921875 33.890625 
Q 53.609375 28.765625 53.609375 19.921875 
Q 53.609375 9.515625 47.15625 4.046875 
Q 40.71875 -1.421875 28.421875 -1.421875 
Q 23.296875 -1.421875 18.109375 -0.3125 
Q 12.9375 0.78125 7.71875 2.984375 
L 7.71875 13.484375 
Q 13.328125 9.90625 18.328125 8.25 
Q 23.34375 6.59375 28.421875 6.59375 
Q 35.890625 6.59375 40.03125 9.9375 
Q 44.1875 13.28125 44.1875 19.28125 
Q 44.1875 24.75 41.328125 27.625 
Q 38.484375 30.515625 31.390625 32.078125 
L 26.125 33.296875 
Q 15.96875 35.59375 11.375 40.234375 
Q 6.78125 44.875 6.78125 52.6875 
Q 6.78125 62.453125 13.34375 68.328125 
Q 19.921875 74.21875 30.8125 74.21875 
Q 35.015625 74.21875 39.640625 73.265625 
Q 44.28125 72.3125 49.421875 70.40625 
z
" id="DejaVuSansMono-83"/>
      <path d="M 9.625 72.90625 
L 52.875 72.90625 
L 52.875 64.59375 
L 19.484375 64.59375 
L 19.484375 43.015625 
L 51.421875 43.015625 
L 51.421875 34.71875 
L 19.484375 34.71875 
L 19.484375 8.296875 
L 53.8125 8.296875 
L 53.8125 0 
L 9.625 0 
z
" id="DejaVuSansMono-69"/>
      <path d="M 23.875 51.90625 
L 36.1875 51.90625 
L 36.1875 37.109375 
L 23.875 37.109375 
z
M 23.875 14.890625 
L 36.1875 14.890625 
L 36.1875 0 
L 23.875 0 
z
" id="DejaVuSansMono-58"/>
      <path d="M 23.578125 36.625 
Q 23.578125 39.3125 25.453125 41.265625 
Q 27.34375 43.21875 29.984375 43.21875 
Q 32.71875 43.21875 34.671875 41.265625 
Q 36.625 39.3125 36.625 36.625 
Q 36.625 33.890625 34.6875 31.984375 
Q 32.765625 30.078125 29.984375 30.078125 
Q 27.25 30.078125 25.40625 31.9375 
Q 23.578125 33.796875 23.578125 36.625 
z
M 30.078125 66.40625 
Q 23.1875 66.40625 19.796875 58.984375 
Q 16.40625 51.5625 16.40625 36.375 
Q 16.40625 21.234375 19.796875 13.8125 
Q 23.1875 6.390625 30.078125 6.390625 
Q 37.015625 6.390625 40.40625 13.8125 
Q 43.796875 21.234375 43.796875 36.375 
Q 43.796875 51.5625 40.40625 58.984375 
Q 37.015625 66.40625 30.078125 66.40625 
z
M 30.078125 74.21875 
Q 41.75 74.21875 47.734375 64.640625 
Q 53.71875 55.078125 53.71875 36.375 
Q 53.71875 17.71875 47.734375 8.140625 
Q 41.75 -1.421875 30.078125 -1.421875 
Q 18.40625 -1.421875 12.453125 8.140625 
Q 6.5 17.71875 6.5 36.375 
Q 6.5 55.078125 12.453125 64.640625 
Q 18.40625 74.21875 30.078125 74.21875 
z
" id="DejaVuSansMono-48"/>
      <path d="M 23.875 14.890625 
L 36.1875 14.890625 
L 36.1875 0 
L 23.875 0 
z
" id="DejaVuSansMono-46"/>
     </defs>
     <use xlink:href="#DejaVuSansMono-73"/>
     <use x="60.205078" xlink:href="#DejaVuSansMono-110"/>
     <use x="120.410156" xlink:href="#DejaVuSansMono-32"/>
     <use x="180.615234" xlink:href="#DejaVuSansMono-32"/>
     <use x="240.820312" xlink:href="#DejaVuSansMono-82"/>
     <use x="301.025391" xlink:href="#DejaVuSansMono-77"/>
     <use x="361.230469" xlink:href="#DejaVuSansMono-83"/>
     <use x="421.435547" xlink:href="#DejaVuSansMono-69"/>
     <use x="481.640625" xlink:href="#DejaVuSansMono-58"/>
     <use x="541.845703" xlink:href="#DejaVuSansMono-32"/>
     <use x="602.050781" xlink:href="#DejaVuSansMono-48"/>
     <use x="662.255859" xlink:href="#DejaVuSansMono-46"/>
     <use x="722.460938" xlink:href="#DejaVuSansMono-48"/>
    </g>
    <!-- Out RMSE: 0.90639 -->
    <g transform="translate(184.581818 165.136295)scale(0.1 -0.1)">
     <defs>
      <path d="M 44.1875 36.375 
Q 44.1875 52.4375 40.890625 59.328125 
Q 37.59375 66.21875 30.078125 66.21875 
Q 22.609375 66.21875 19.3125 59.328125 
Q 16.015625 52.4375 16.015625 36.375 
Q 16.015625 20.359375 19.3125 13.46875 
Q 22.609375 6.59375 30.078125 6.59375 
Q 37.59375 6.59375 40.890625 13.453125 
Q 44.1875 20.3125 44.1875 36.375 
z
M 54.5 36.375 
Q 54.5 17.328125 48.46875 7.953125 
Q 42.4375 -1.421875 30.078125 -1.421875 
Q 17.71875 -1.421875 11.71875 7.90625 
Q 5.71875 17.234375 5.71875 36.375 
Q 5.71875 55.46875 11.75 64.84375 
Q 17.78125 74.21875 30.078125 74.21875 
Q 42.4375 74.21875 48.46875 64.84375 
Q 54.5 55.46875 54.5 36.375 
z
" id="DejaVuSansMono-79"/>
      <path d="M 9.515625 20.703125 
L 9.515625 54.59375 
L 18.5 54.59375 
L 18.5 20.703125 
Q 18.5 13.328125 21.109375 9.859375 
Q 23.734375 6.390625 29.203125 6.390625 
Q 35.546875 6.390625 38.90625 10.859375 
Q 42.28125 15.328125 42.28125 23.6875 
L 42.28125 54.59375 
L 51.3125 54.59375 
L 51.3125 0 
L 42.28125 0 
L 42.28125 8.203125 
Q 39.890625 3.46875 35.765625 1.015625 
Q 31.640625 -1.421875 26.125 -1.421875 
Q 17.71875 -1.421875 13.609375 4.078125 
Q 9.515625 9.578125 9.515625 20.703125 
z
" id="DejaVuSansMono-117"/>
      <path d="M 29.984375 70.21875 
L 29.984375 54.6875 
L 50.390625 54.6875 
L 50.390625 47.703125 
L 29.984375 47.703125 
L 29.984375 18.015625 
Q 29.984375 11.96875 32.28125 9.5625 
Q 34.578125 7.171875 40.28125 7.171875 
L 50.390625 7.171875 
L 50.390625 0 
L 39.40625 0 
Q 29.296875 0 25.140625 4.046875 
Q 21 8.109375 21 18.015625 
L 21 47.703125 
L 6.390625 47.703125 
L 6.390625 54.6875 
L 21 54.6875 
L 21 70.21875 
z
" id="DejaVuSansMono-116"/>
      <path d="M 29.109375 32.328125 
Q 35.40625 32.328125 38.984375 36.859375 
Q 42.578125 41.40625 42.578125 49.421875 
Q 42.578125 57.421875 38.984375 61.953125 
Q 35.40625 66.5 29.109375 66.5 
Q 22.5625 66.5 19.234375 62.171875 
Q 15.921875 57.859375 15.921875 49.421875 
Q 15.921875 40.921875 19.21875 36.625 
Q 22.515625 32.328125 29.109375 32.328125 
z
M 11.53125 1.515625 
L 11.53125 10.59375 
Q 14.59375 8.796875 18.0625 7.84375 
Q 21.53125 6.890625 25.296875 6.890625 
Q 34.671875 6.890625 39.46875 13.9375 
Q 44.28125 21 44.28125 34.71875 
Q 42 29.828125 37.84375 27.21875 
Q 33.6875 24.609375 28.328125 24.609375 
Q 17.78125 24.609375 11.984375 31.09375 
Q 6.203125 37.59375 6.203125 49.515625 
Q 6.203125 61.28125 12.125 67.75 
Q 18.0625 74.21875 28.90625 74.21875 
Q 41.609375 74.21875 47.515625 65.078125 
Q 53.421875 55.953125 53.421875 36.375 
Q 53.421875 17.96875 46.3125 8.265625 
Q 39.203125 -1.421875 25.6875 -1.421875 
Q 22.125 -1.421875 18.5 -0.65625 
Q 14.890625 0.09375 11.53125 1.515625 
z
" id="DejaVuSansMono-57"/>
      <path d="M 48.390625 71.296875 
L 48.390625 62.203125 
Q 45.3125 64.015625 41.84375 64.96875 
Q 38.375 65.921875 34.625 65.921875 
Q 25.25 65.921875 20.40625 58.859375 
Q 15.578125 51.8125 15.578125 38.09375 
Q 17.921875 42.96875 22.0625 45.578125 
Q 26.21875 48.1875 31.59375 48.1875 
Q 42.140625 48.1875 47.921875 41.71875 
Q 53.71875 35.25 53.71875 23.390625 
Q 53.71875 11.578125 47.75 5.078125 
Q 41.796875 -1.421875 31 -1.421875 
Q 18.3125 -1.421875 12.40625 7.6875 
Q 6.5 16.796875 6.5 36.375 
Q 6.5 54.828125 13.59375 64.515625 
Q 20.703125 74.21875 34.1875 74.21875 
Q 37.796875 74.21875 41.40625 73.453125 
Q 45.015625 72.703125 48.390625 71.296875 
z
M 30.8125 40.484375 
Q 24.515625 40.484375 20.890625 35.9375 
Q 17.28125 31.390625 17.28125 23.390625 
Q 17.28125 15.375 20.890625 10.828125 
Q 24.515625 6.296875 30.8125 6.296875 
Q 37.359375 6.296875 40.671875 10.609375 
Q 44 14.9375 44 23.390625 
Q 44 31.890625 40.671875 36.1875 
Q 37.359375 40.484375 30.8125 40.484375 
z
" id="DejaVuSansMono-54"/>
      <path d="M 37.890625 39.015625 
Q 45.0625 37.109375 48.875 32.25 
Q 52.6875 27.390625 52.6875 20.125 
Q 52.6875 10.0625 45.921875 4.3125 
Q 39.15625 -1.421875 27.203125 -1.421875 
Q 22.171875 -1.421875 16.9375 -0.484375 
Q 11.71875 0.4375 6.6875 2.203125 
L 6.6875 12.015625 
Q 11.671875 9.421875 16.5 8.15625 
Q 21.34375 6.890625 26.125 6.890625 
Q 34.234375 6.890625 38.578125 10.546875 
Q 42.921875 14.203125 42.921875 21.09375 
Q 42.921875 27.4375 38.578125 31.171875 
Q 34.234375 34.90625 26.8125 34.90625 
L 19.28125 34.90625 
L 19.28125 43.015625 
L 26.8125 43.015625 
Q 33.59375 43.015625 37.40625 45.984375 
Q 41.21875 48.96875 41.21875 54.296875 
Q 41.21875 59.90625 37.671875 62.90625 
Q 34.125 65.921875 27.59375 65.921875 
Q 23.25 65.921875 18.609375 64.9375 
Q 13.96875 63.96875 8.890625 62.015625 
L 8.890625 71.09375 
Q 14.796875 72.65625 19.40625 73.4375 
Q 24.03125 74.21875 27.59375 74.21875 
Q 38.234375 74.21875 44.609375 68.875 
Q 50.984375 63.53125 50.984375 54.6875 
Q 50.984375 48.6875 47.625 44.671875 
Q 44.28125 40.671875 37.890625 39.015625 
z
" id="DejaVuSansMono-51"/>
     </defs>
     <use xlink:href="#DejaVuSansMono-79"/>
     <use x="60.205078" xlink:href="#DejaVuSansMono-117"/>
     <use x="120.410156" xlink:href="#DejaVuSansMono-116"/>
     <use x="180.615234" xlink:href="#DejaVuSansMono-32"/>
     <use x="240.820312" xlink:href="#DejaVuSansMono-82"/>
     <use x="301.025391" xlink:href="#DejaVuSansMono-77"/>
     <use x="361.230469" xlink:href="#DejaVuSansMono-83"/>
     <use x="421.435547" xlink:href="#DejaVuSansMono-69"/>
     <use x="481.640625" xlink:href="#DejaVuSansMono-58"/>
     <use x="541.845703" xlink:href="#DejaVuSansMono-32"/>
     <use x="602.050781" xlink:href="#DejaVuSansMono-48"/>
     <use x="662.255859" xlink:href="#DejaVuSansMono-46"/>
     <use x="722.460938" xlink:href="#DejaVuSansMono-57"/>
     <use x="782.666016" xlink:href="#DejaVuSansMono-48"/>
     <use x="842.871094" xlink:href="#DejaVuSansMono-54"/>
     <use x="903.076172" xlink:href="#DejaVuSansMono-51"/>
     <use x="963.28125" xlink:href="#DejaVuSansMono-57"/>
    </g>
   </g>
   <g id="text_19">
    <!-- ..\WaveformData\t4_traces\inv_t4_invSim_620_200Traces fitting using transfer functions -->
    <g transform="translate(325.554375 28.56)scale(0.12 -0.12)">
     <defs>
      <path d="M 8.296875 72.90625 
L 33.6875 -9.28125 
L 25.390625 -9.28125 
L 0 72.90625 
z
" id="DejaVuSans-92"/>
      <path d="M 3.328125 72.90625 
L 13.28125 72.90625 
L 28.609375 11.28125 
L 43.890625 72.90625 
L 54.984375 72.90625 
L 70.3125 11.28125 
L 85.59375 72.90625 
L 95.609375 72.90625 
L 77.296875 0 
L 64.890625 0 
L 49.515625 63.28125 
L 33.984375 0 
L 21.578125 0 
z
" id="DejaVuSans-87"/>
      <path d="M 2.984375 54.6875 
L 12.5 54.6875 
L 29.59375 8.796875 
L 46.6875 54.6875 
L 56.203125 54.6875 
L 35.6875 0 
L 23.484375 0 
z
" id="DejaVuSans-118"/>
      <path d="M 37.109375 75.984375 
L 37.109375 68.5 
L 28.515625 68.5 
Q 23.6875 68.5 21.796875 66.546875 
Q 19.921875 64.59375 19.921875 59.515625 
L 19.921875 54.6875 
L 34.71875 54.6875 
L 34.71875 47.703125 
L 19.921875 47.703125 
L 19.921875 0 
L 10.890625 0 
L 10.890625 47.703125 
L 2.296875 47.703125 
L 2.296875 54.6875 
L 10.890625 54.6875 
L 10.890625 58.5 
Q 10.890625 67.625 15.140625 71.796875 
Q 19.390625 75.984375 28.609375 75.984375 
z
" id="DejaVuSans-102"/>
      <path d="M 41.109375 46.296875 
Q 39.59375 47.171875 37.8125 47.578125 
Q 36.03125 48 33.890625 48 
Q 26.265625 48 22.1875 43.046875 
Q 18.109375 38.09375 18.109375 28.8125 
L 18.109375 0 
L 9.078125 0 
L 9.078125 54.6875 
L 18.109375 54.6875 
L 18.109375 46.1875 
Q 20.953125 51.171875 25.484375 53.578125 
Q 30.03125 56 36.53125 56 
Q 37.453125 56 38.578125 55.875 
Q 39.703125 55.765625 41.0625 55.515625 
z
" id="DejaVuSans-114"/>
      <path d="M 19.671875 64.796875 
L 19.671875 8.109375 
L 31.59375 8.109375 
Q 46.6875 8.109375 53.6875 14.9375 
Q 60.6875 21.78125 60.6875 36.53125 
Q 60.6875 51.171875 53.6875 57.984375 
Q 46.6875 64.796875 31.59375 64.796875 
z
M 9.8125 72.90625 
L 30.078125 72.90625 
Q 51.265625 72.90625 61.171875 64.09375 
Q 71.09375 55.28125 71.09375 36.53125 
Q 71.09375 17.671875 61.125 8.828125 
Q 51.171875 0 30.078125 0 
L 9.8125 0 
z
" id="DejaVuSans-68"/>
      <path d="M 50.984375 -16.609375 
L 50.984375 -23.578125 
L -0.984375 -23.578125 
L -0.984375 -16.609375 
z
" id="DejaVuSans-95"/>
      <path d="M 48.78125 52.59375 
L 48.78125 44.1875 
Q 44.96875 46.296875 41.140625 47.34375 
Q 37.3125 48.390625 33.40625 48.390625 
Q 24.65625 48.390625 19.8125 42.84375 
Q 14.984375 37.3125 14.984375 27.296875 
Q 14.984375 17.28125 19.8125 11.734375 
Q 24.65625 6.203125 33.40625 6.203125 
Q 37.3125 6.203125 41.140625 7.25 
Q 44.96875 8.296875 48.78125 10.40625 
L 48.78125 2.09375 
Q 45.015625 0.34375 40.984375 -0.53125 
Q 36.96875 -1.421875 32.421875 -1.421875 
Q 20.0625 -1.421875 12.78125 6.34375 
Q 5.515625 14.109375 5.515625 27.296875 
Q 5.515625 40.671875 12.859375 48.328125 
Q 20.21875 56 33.015625 56 
Q 37.15625 56 41.109375 55.140625 
Q 45.0625 54.296875 48.78125 52.59375 
z
" id="DejaVuSans-99"/>
      <path d="M 54.890625 33.015625 
L 54.890625 0 
L 45.90625 0 
L 45.90625 32.71875 
Q 45.90625 40.484375 42.875 44.328125 
Q 39.84375 48.1875 33.796875 48.1875 
Q 26.515625 48.1875 22.3125 43.546875 
Q 18.109375 38.921875 18.109375 30.90625 
L 18.109375 0 
L 9.078125 0 
L 9.078125 54.6875 
L 18.109375 54.6875 
L 18.109375 46.1875 
Q 21.34375 51.125 25.703125 53.5625 
Q 30.078125 56 35.796875 56 
Q 45.21875 56 50.046875 50.171875 
Q 54.890625 44.34375 54.890625 33.015625 
z
" id="DejaVuSans-110"/>
      <path d="M 53.515625 70.515625 
L 53.515625 60.890625 
Q 47.90625 63.578125 42.921875 64.890625 
Q 37.9375 66.21875 33.296875 66.21875 
Q 25.25 66.21875 20.875 63.09375 
Q 16.5 59.96875 16.5 54.203125 
Q 16.5 49.359375 19.40625 46.890625 
Q 22.3125 44.4375 30.421875 42.921875 
L 36.375 41.703125 
Q 47.40625 39.59375 52.65625 34.296875 
Q 57.90625 29 57.90625 20.125 
Q 57.90625 9.515625 50.796875 4.046875 
Q 43.703125 -1.421875 29.984375 -1.421875 
Q 24.8125 -1.421875 18.96875 -0.25 
Q 13.140625 0.921875 6.890625 3.21875 
L 6.890625 13.375 
Q 12.890625 10.015625 18.65625 8.296875 
Q 24.421875 6.59375 29.984375 6.59375 
Q 38.421875 6.59375 43.015625 9.90625 
Q 47.609375 13.234375 47.609375 19.390625 
Q 47.609375 24.75 44.3125 27.78125 
Q 41.015625 30.8125 33.5 32.328125 
L 27.484375 33.5 
Q 16.453125 35.6875 11.515625 40.375 
Q 6.59375 45.0625 6.59375 53.421875 
Q 6.59375 63.09375 13.40625 68.65625 
Q 20.21875 74.21875 32.171875 74.21875 
Q 37.3125 74.21875 42.625 73.28125 
Q 47.953125 72.359375 53.515625 70.515625 
z
" id="DejaVuSans-83"/>
      <path d="M 8.5 21.578125 
L 8.5 54.6875 
L 17.484375 54.6875 
L 17.484375 21.921875 
Q 17.484375 14.15625 20.5 10.265625 
Q 23.53125 6.390625 29.59375 6.390625 
Q 36.859375 6.390625 41.078125 11.03125 
Q 45.3125 15.671875 45.3125 23.6875 
L 45.3125 54.6875 
L 54.296875 54.6875 
L 54.296875 0 
L 45.3125 0 
L 45.3125 8.40625 
Q 42.046875 3.421875 37.71875 1 
Q 33.40625 -1.421875 27.6875 -1.421875 
Q 18.265625 -1.421875 13.375 4.4375 
Q 8.5 10.296875 8.5 21.578125 
z
M 31.109375 56 
z
" id="DejaVuSans-117"/>
     </defs>
     <use xlink:href="#DejaVuSans-46"/>
     <use x="31.787109" xlink:href="#DejaVuSans-46"/>
     <use x="63.574219" xlink:href="#DejaVuSans-92"/>
     <use x="97.265625" xlink:href="#DejaVuSans-87"/>
     <use x="189.767578" xlink:href="#DejaVuSans-97"/>
     <use x="251.046875" xlink:href="#DejaVuSans-118"/>
     <use x="310.226562" xlink:href="#DejaVuSans-101"/>
     <use x="371.75" xlink:href="#DejaVuSans-102"/>
     <use x="406.955078" xlink:href="#DejaVuSans-111"/>
     <use x="468.136719" xlink:href="#DejaVuSans-114"/>
     <use x="507.5" xlink:href="#DejaVuSans-109"/>
     <use x="604.912109" xlink:href="#DejaVuSans-68"/>
     <use x="681.914062" xlink:href="#DejaVuSans-97"/>
     <use x="743.193359" xlink:href="#DejaVuSans-116"/>
     <use x="782.402344" xlink:href="#DejaVuSans-97"/>
     <use x="843.681641" xlink:href="#DejaVuSans-92"/>
     <use x="877.373047" xlink:href="#DejaVuSans-116"/>
     <use x="916.582031" xlink:href="#DejaVuSans-52"/>
     <use x="980.205078" xlink:href="#DejaVuSans-95"/>
     <use x="1030.205078" xlink:href="#DejaVuSans-116"/>
     <use x="1069.414062" xlink:href="#DejaVuSans-114"/>
     <use x="1110.527344" xlink:href="#DejaVuSans-97"/>
     <use x="1171.806641" xlink:href="#DejaVuSans-99"/>
     <use x="1226.787109" xlink:href="#DejaVuSans-101"/>
     <use x="1288.310547" xlink:href="#DejaVuSans-115"/>
     <use x="1340.410156" xlink:href="#DejaVuSans-92"/>
     <use x="1374.101562" xlink:href="#DejaVuSans-105"/>
     <use x="1401.884766" xlink:href="#DejaVuSans-110"/>
     <use x="1465.263672" xlink:href="#DejaVuSans-118"/>
     <use x="1524.443359" xlink:href="#DejaVuSans-95"/>
     <use x="1574.443359" xlink:href="#DejaVuSans-116"/>
     <use x="1613.652344" xlink:href="#DejaVuSans-52"/>
     <use x="1677.275391" xlink:href="#DejaVuSans-95"/>
     <use x="1727.275391" xlink:href="#DejaVuSans-105"/>
     <use x="1755.058594" xlink:href="#DejaVuSans-110"/>
     <use x="1818.4375" xlink:href="#DejaVuSans-118"/>
     <use x="1877.617188" xlink:href="#DejaVuSans-83"/>
     <use x="1941.09375" xlink:href="#DejaVuSans-105"/>
     <use x="1968.876953" xlink:href="#DejaVuSans-109"/>
     <use x="2066.289062" xlink:href="#DejaVuSans-95"/>
     <use x="2116.289062" xlink:href="#DejaVuSans-54"/>
     <use x="2179.912109" xlink:href="#DejaVuSans-50"/>
     <use x="2243.535156" xlink:href="#DejaVuSans-48"/>
     <use x="2307.158203" xlink:href="#DejaVuSans-95"/>
     <use x="2357.158203" xlink:href="#DejaVuSans-50"/>
     <use x="2420.78125" xlink:href="#DejaVuSans-48"/>
     <use x="2484.404297" xlink:href="#DejaVuSans-48"/>
     <use x="2548.027344" xlink:href="#DejaVuSans-84"/>
     <use x="2594.361328" xlink:href="#DejaVuSans-114"/>
     <use x="2635.474609" xlink:href="#DejaVuSans-97"/>
     <use x="2696.753906" xlink:href="#DejaVuSans-99"/>
     <use x="2751.734375" xlink:href="#DejaVuSans-101"/>
     <use x="2813.257812" xlink:href="#DejaVuSans-115"/>
     <use x="2865.357422" xlink:href="#DejaVuSans-32"/>
     <use x="2897.144531" xlink:href="#DejaVuSans-102"/>
     <use x="2932.349609" xlink:href="#DejaVuSans-105"/>
     <use x="2960.132812" xlink:href="#DejaVuSans-116"/>
     <use x="2999.341797" xlink:href="#DejaVuSans-116"/>
     <use x="3038.550781" xlink:href="#DejaVuSans-105"/>
     <use x="3066.333984" xlink:href="#DejaVuSans-110"/>
     <use x="3129.712891" xlink:href="#DejaVuSans-103"/>
     <use x="3193.189453" xlink:href="#DejaVuSans-32"/>
     <use x="3224.976562" xlink:href="#DejaVuSans-117"/>
     <use x="3288.355469" xlink:href="#DejaVuSans-115"/>
     <use x="3340.455078" xlink:href="#DejaVuSans-105"/>
     <use x="3368.238281" xlink:href="#DejaVuSans-110"/>
     <use x="3431.617188" xlink:href="#DejaVuSans-103"/>
     <use x="3495.09375" xlink:href="#DejaVuSans-32"/>
     <use x="3526.880859" xlink:href="#DejaVuSans-116"/>
     <use x="3566.089844" xlink:href="#DejaVuSans-114"/>
     <use x="3607.203125" xlink:href="#DejaVuSans-97"/>
     <use x="3668.482422" xlink:href="#DejaVuSans-110"/>
     <use x="3731.861328" xlink:href="#DejaVuSans-115"/>
     <use x="3783.960938" xlink:href="#DejaVuSans-102"/>
     <use x="3819.166016" xlink:href="#DejaVuSans-101"/>
     <use x="3880.689453" xlink:href="#DejaVuSans-114"/>
     <use x="3921.802734" xlink:href="#DejaVuSans-32"/>
     <use x="3953.589844" xlink:href="#DejaVuSans-102"/>
     <use x="3988.794922" xlink:href="#DejaVuSans-117"/>
     <use x="4052.173828" xlink:href="#DejaVuSans-110"/>
     <use x="4115.552734" xlink:href="#DejaVuSans-99"/>
     <use x="4170.533203" xlink:href="#DejaVuSans-116"/>
     <use x="4209.742188" xlink:href="#DejaVuSans-105"/>
     <use x="4237.525391" xlink:href="#DejaVuSans-111"/>
     <use x="4298.707031" xlink:href="#DejaVuSans-110"/>
     <use x="4362.085938" xlink:href="#DejaVuSans-115"/>
    </g>
   </g>
   <g id="legend_1">
    <g id="patch_7">
     <path d="M 151 176.29625 
L 368.865625 176.29625 
Q 370.865625 176.29625 370.865625 174.29625 
L 370.865625 116.58375 
Q 370.865625 114.58375 368.865625 114.58375 
L 151 114.58375 
Q 149 114.58375 149 116.58375 
L 149 174.29625 
Q 149 176.29625 151 176.29625 
z
" style="fill:#ffffff;opacity:0.8;stroke:#cccccc;stroke-linejoin:miter;"/>
    </g>
    <g id="line2d_19">
     <path d="M 153 122.682187 
L 173 122.682187 
" style="fill:none;stroke:#ff0000;stroke-linecap:square;stroke-width:1.5;"/>
    </g>
    <g id="line2d_20"/>
    <g id="text_20">
     <!-- Input -->
     <g transform="translate(181 126.182187)scale(0.1 -0.1)">
      <defs>
       <path d="M 9.8125 72.90625 
L 19.671875 72.90625 
L 19.671875 0 
L 9.8125 0 
z
" id="DejaVuSans-73"/>
       <path d="M 18.109375 8.203125 
L 18.109375 -20.796875 
L 9.078125 -20.796875 
L 9.078125 54.6875 
L 18.109375 54.6875 
L 18.109375 46.390625 
Q 20.953125 51.265625 25.265625 53.625 
Q 29.59375 56 35.59375 56 
Q 45.5625 56 51.78125 48.09375 
Q 58.015625 40.1875 58.015625 27.296875 
Q 58.015625 14.40625 51.78125 6.484375 
Q 45.5625 -1.421875 35.59375 -1.421875 
Q 29.59375 -1.421875 25.265625 0.953125 
Q 20.953125 3.328125 18.109375 8.203125 
z
M 48.6875 27.296875 
Q 48.6875 37.203125 44.609375 42.84375 
Q 40.53125 48.484375 33.40625 48.484375 
Q 26.265625 48.484375 22.1875 42.84375 
Q 18.109375 37.203125 18.109375 27.296875 
Q 18.109375 17.390625 22.1875 11.75 
Q 26.265625 6.109375 33.40625 6.109375 
Q 40.53125 6.109375 44.609375 11.75 
Q 48.6875 17.390625 48.6875 27.296875 
z
" id="DejaVuSans-112"/>
      </defs>
      <use xlink:href="#DejaVuSans-73"/>
      <use x="29.492188" xlink:href="#DejaVuSans-110"/>
      <use x="92.871094" xlink:href="#DejaVuSans-112"/>
      <use x="156.347656" xlink:href="#DejaVuSans-117"/>
      <use x="219.726562" xlink:href="#DejaVuSans-116"/>
     </g>
    </g>
    <g id="line2d_21">
     <path d="M 153 137.360312 
L 173 137.360312 
" style="fill:none;stroke:#008000;stroke-linecap:square;stroke-width:1.5;"/>
    </g>
    <g id="line2d_22"/>
    <g id="text_21">
     <!-- Output -->
     <g transform="translate(181 140.860312)scale(0.1 -0.1)">
      <defs>
       <path d="M 39.40625 66.21875 
Q 28.65625 66.21875 22.328125 58.203125 
Q 16.015625 50.203125 16.015625 36.375 
Q 16.015625 22.609375 22.328125 14.59375 
Q 28.65625 6.59375 39.40625 6.59375 
Q 50.140625 6.59375 56.421875 14.59375 
Q 62.703125 22.609375 62.703125 36.375 
Q 62.703125 50.203125 56.421875 58.203125 
Q 50.140625 66.21875 39.40625 66.21875 
z
M 39.40625 74.21875 
Q 54.734375 74.21875 63.90625 63.9375 
Q 73.09375 53.65625 73.09375 36.375 
Q 73.09375 19.140625 63.90625 8.859375 
Q 54.734375 -1.421875 39.40625 -1.421875 
Q 24.03125 -1.421875 14.8125 8.828125 
Q 5.609375 19.09375 5.609375 36.375 
Q 5.609375 53.65625 14.8125 63.9375 
Q 24.03125 74.21875 39.40625 74.21875 
z
" id="DejaVuSans-79"/>
      </defs>
      <use xlink:href="#DejaVuSans-79"/>
      <use x="78.710938" xlink:href="#DejaVuSans-117"/>
      <use x="142.089844" xlink:href="#DejaVuSans-116"/>
      <use x="181.298828" xlink:href="#DejaVuSans-112"/>
      <use x="244.775391" xlink:href="#DejaVuSans-117"/>
      <use x="308.154297" xlink:href="#DejaVuSans-116"/>
     </g>
    </g>
    <g id="line2d_23">
     <path d="M 153 152.038437 
L 173 152.038437 
" style="fill:none;stroke:#008000;stroke-dasharray:5.55,2.4;stroke-dashoffset:0;stroke-width:1.5;"/>
    </g>
    <g id="line2d_24"/>
    <g id="text_22">
     <!-- Output fitting from transfer functions -->
     <g transform="translate(181 155.538437)scale(0.1 -0.1)">
      <use xlink:href="#DejaVuSans-79"/>
      <use x="78.710938" xlink:href="#DejaVuSans-117"/>
      <use x="142.089844" xlink:href="#DejaVuSans-116"/>
      <use x="181.298828" xlink:href="#DejaVuSans-112"/>
      <use x="244.775391" xlink:href="#DejaVuSans-117"/>
      <use x="308.154297" xlink:href="#DejaVuSans-116"/>
      <use x="347.363281" xlink:href="#DejaVuSans-32"/>
      <use x="379.150391" xlink:href="#DejaVuSans-102"/>
      <use x="414.355469" xlink:href="#DejaVuSans-105"/>
      <use x="442.138672" xlink:href="#DejaVuSans-116"/>
      <use x="481.347656" xlink:href="#DejaVuSans-116"/>
      <use x="520.556641" xlink:href="#DejaVuSans-105"/>
      <use x="548.339844" xlink:href="#DejaVuSans-110"/>
      <use x="611.71875" xlink:href="#DejaVuSans-103"/>
      <use x="675.195312" xlink:href="#DejaVuSans-32"/>
      <use x="706.982422" xlink:href="#DejaVuSans-102"/>
      <use x="742.1875" xlink:href="#DejaVuSans-114"/>
      <use x="781.050781" xlink:href="#DejaVuSans-111"/>
      <use x="842.232422" xlink:href="#DejaVuSans-109"/>
      <use x="939.644531" xlink:href="#DejaVuSans-32"/>
      <use x="971.431641" xlink:href="#DejaVuSans-116"/>
      <use x="1010.640625" xlink:href="#DejaVuSans-114"/>
      <use x="1051.753906" xlink:href="#DejaVuSans-97"/>
      <use x="1113.033203" xlink:href="#DejaVuSans-110"/>
      <use x="1176.412109" xlink:href="#DejaVuSans-115"/>
      <use x="1228.511719" xlink:href="#DejaVuSans-102"/>
      <use x="1263.716797" xlink:href="#DejaVuSans-101"/>
      <use x="1325.240234" xlink:href="#DejaVuSans-114"/>
      <use x="1366.353516" xlink:href="#DejaVuSans-32"/>
      <use x="1398.140625" xlink:href="#DejaVuSans-102"/>
      <use x="1433.345703" xlink:href="#DejaVuSans-117"/>
      <use x="1496.724609" xlink:href="#DejaVuSans-110"/>
      <use x="1560.103516" xlink:href="#DejaVuSans-99"/>
      <use x="1615.083984" xlink:href="#DejaVuSans-116"/>
      <use x="1654.292969" xlink:href="#DejaVuSans-105"/>
      <use x="1682.076172" xlink:href="#DejaVuSans-111"/>
      <use x="1743.257812" xlink:href="#DejaVuSans-110"/>
      <use x="1806.636719" xlink:href="#DejaVuSans-115"/>
     </g>
    </g>
    <g id="line2d_25">
     <path d="M 153 166.716563 
L 173 166.716563 
" style="fill:none;stroke:#008000;stroke-dasharray:9.6,2.4,1.5,2.4;stroke-dashoffset:0;stroke-width:1.5;"/>
    </g>
    <g id="line2d_26"/>
    <g id="text_23">
     <!-- fitting error -->
     <g transform="translate(181 170.216563)scale(0.1 -0.1)">
      <use xlink:href="#DejaVuSans-102"/>
      <use x="35.205078" xlink:href="#DejaVuSans-105"/>
      <use x="62.988281" xlink:href="#DejaVuSans-116"/>
      <use x="102.197266" xlink:href="#DejaVuSans-116"/>
      <use x="141.40625" xlink:href="#DejaVuSans-105"/>
      <use x="169.189453" xlink:href="#DejaVuSans-110"/>
      <use x="232.568359" xlink:href="#DejaVuSans-103"/>
      <use x="296.044922" xlink:href="#DejaVuSans-32"/>
      <use x="327.832031" xlink:href="#DejaVuSans-101"/>
      <use x="389.355469" xlink:href="#DejaVuSans-114"/>
      <use x="428.71875" xlink:href="#DejaVuSans-114"/>
      <use x="467.582031" xlink:href="#DejaVuSans-111"/>
      <use x="528.763672" xlink:href="#DejaVuSans-114"/>
     </g>
    </g>
   </g>
  </g>
 </g>
 <defs>
  <clipPath id="p857e39c96b">
   <rect height="221.76" width="892.8" x="144" y="34.56"/>
  </clipPath>
 </defs>
</svg>
