<?xml version="1.0" encoding="utf-8" standalone="no"?>
<!DOCTYPE svg PUBLIC "-//W3C//DTD SVG 1.1//EN"
  "http://www.w3.org/Graphics/SVG/1.1/DTD/svg11.dtd">
<!-- Created with matplotlib (http://matplotlib.org/) -->
<svg height="432pt" version="1.1" viewBox="0 0 864 432" width="864pt" xmlns="http://www.w3.org/2000/svg" xmlns:xlink="http://www.w3.org/1999/xlink">
 <defs>
  <style type="text/css">
*{stroke-linecap:butt;stroke-linejoin:round;}
  </style>
 </defs>
 <g id="figure_1">
  <g id="patch_1">
   <path d="M 0 432 
L 864 432 
L 864 0 
L 0 0 
z
" style="fill:#ffffff;"/>
  </g>
  <g id="axes_1">
   <g id="patch_2">
    <path d="M 108 384.48 
L 777.6 384.48 
L 777.6 51.84 
L 108 51.84 
z
" style="fill:#ffffff;"/>
   </g>
   <g id="matplotlib.axis_1">
    <g id="xtick_1">
     <g id="line2d_1">
      <defs>
       <path d="M 0 0 
L 0 3.5 
" id="m8f8b8265bf" style="stroke:#000000;stroke-width:0.8;"/>
      </defs>
      <g>
       <use style="stroke:#000000;stroke-width:0.8;" x="138.436364" xlink:href="#m8f8b8265bf" y="384.48"/>
      </g>
     </g>
     <g id="text_1">
      <!-- 0.0 -->
      <defs>
       <path d="M 31.78125 66.40625 
Q 24.171875 66.40625 20.328125 58.90625 
Q 16.5 51.421875 16.5 36.375 
Q 16.5 21.390625 20.328125 13.890625 
Q 24.171875 6.390625 31.78125 6.390625 
Q 39.453125 6.390625 43.28125 13.890625 
Q 47.125 21.390625 47.125 36.375 
Q 47.125 51.421875 43.28125 58.90625 
Q 39.453125 66.40625 31.78125 66.40625 
z
M 31.78125 74.21875 
Q 44.046875 74.21875 50.515625 64.515625 
Q 56.984375 54.828125 56.984375 36.375 
Q 56.984375 17.96875 50.515625 8.265625 
Q 44.046875 -1.421875 31.78125 -1.421875 
Q 19.53125 -1.421875 13.0625 8.265625 
Q 6.59375 17.96875 6.59375 36.375 
Q 6.59375 54.828125 13.0625 64.515625 
Q 19.53125 74.21875 31.78125 74.21875 
z
" id="DejaVuSans-30"/>
       <path d="M 10.6875 12.40625 
L 21 12.40625 
L 21 0 
L 10.6875 0 
z
" id="DejaVuSans-2e"/>
      </defs>
      <g transform="translate(130.484801 399.078438)scale(0.1 -0.1)">
       <use xlink:href="#DejaVuSans-30"/>
       <use x="63.623047" xlink:href="#DejaVuSans-2e"/>
       <use x="95.410156" xlink:href="#DejaVuSans-30"/>
      </g>
     </g>
    </g>
    <g id="xtick_2">
     <g id="line2d_2">
      <g>
       <use style="stroke:#000000;stroke-width:0.8;" x="263.541363" xlink:href="#m8f8b8265bf" y="384.48"/>
      </g>
     </g>
     <g id="text_2">
      <!-- 0.2 -->
      <defs>
       <path d="M 19.1875 8.296875 
L 53.609375 8.296875 
L 53.609375 0 
L 7.328125 0 
L 7.328125 8.296875 
Q 12.9375 14.109375 22.625 23.890625 
Q 32.328125 33.6875 34.8125 36.53125 
Q 39.546875 41.84375 41.421875 45.53125 
Q 43.3125 49.21875 43.3125 52.78125 
Q 43.3125 58.59375 39.234375 62.25 
Q 35.15625 65.921875 28.609375 65.921875 
Q 23.96875 65.921875 18.8125 64.3125 
Q 13.671875 62.703125 7.8125 59.421875 
L 7.8125 69.390625 
Q 13.765625 71.78125 18.9375 73 
Q 24.125 74.21875 28.421875 74.21875 
Q 39.75 74.21875 46.484375 68.546875 
Q 53.21875 62.890625 53.21875 53.421875 
Q 53.21875 48.921875 51.53125 44.890625 
Q 49.859375 40.875 45.40625 35.40625 
Q 44.1875 33.984375 37.640625 27.21875 
Q 31.109375 20.453125 19.1875 8.296875 
z
" id="DejaVuSans-32"/>
      </defs>
      <g transform="translate(255.5898 399.078438)scale(0.1 -0.1)">
       <use xlink:href="#DejaVuSans-30"/>
       <use x="63.623047" xlink:href="#DejaVuSans-2e"/>
       <use x="95.410156" xlink:href="#DejaVuSans-32"/>
      </g>
     </g>
    </g>
    <g id="xtick_3">
     <g id="line2d_3">
      <g>
       <use style="stroke:#000000;stroke-width:0.8;" x="388.646362" xlink:href="#m8f8b8265bf" y="384.48"/>
      </g>
     </g>
     <g id="text_3">
      <!-- 0.4 -->
      <defs>
       <path d="M 37.796875 64.3125 
L 12.890625 25.390625 
L 37.796875 25.390625 
z
M 35.203125 72.90625 
L 47.609375 72.90625 
L 47.609375 25.390625 
L 58.015625 25.390625 
L 58.015625 17.1875 
L 47.609375 17.1875 
L 47.609375 0 
L 37.796875 0 
L 37.796875 17.1875 
L 4.890625 17.1875 
L 4.890625 26.703125 
z
" id="DejaVuSans-34"/>
      </defs>
      <g transform="translate(380.694799 399.078438)scale(0.1 -0.1)">
       <use xlink:href="#DejaVuSans-30"/>
       <use x="63.623047" xlink:href="#DejaVuSans-2e"/>
       <use x="95.410156" xlink:href="#DejaVuSans-34"/>
      </g>
     </g>
    </g>
    <g id="xtick_4">
     <g id="line2d_4">
      <g>
       <use style="stroke:#000000;stroke-width:0.8;" x="513.751361" xlink:href="#m8f8b8265bf" y="384.48"/>
      </g>
     </g>
     <g id="text_4">
      <!-- 0.6 -->
      <defs>
       <path d="M 33.015625 40.375 
Q 26.375 40.375 22.484375 35.828125 
Q 18.609375 31.296875 18.609375 23.390625 
Q 18.609375 15.53125 22.484375 10.953125 
Q 26.375 6.390625 33.015625 6.390625 
Q 39.65625 6.390625 43.53125 10.953125 
Q 47.40625 15.53125 47.40625 23.390625 
Q 47.40625 31.296875 43.53125 35.828125 
Q 39.65625 40.375 33.015625 40.375 
z
M 52.59375 71.296875 
L 52.59375 62.3125 
Q 48.875 64.0625 45.09375 64.984375 
Q 41.3125 65.921875 37.59375 65.921875 
Q 27.828125 65.921875 22.671875 59.328125 
Q 17.53125 52.734375 16.796875 39.40625 
Q 19.671875 43.65625 24.015625 45.921875 
Q 28.375 48.1875 33.59375 48.1875 
Q 44.578125 48.1875 50.953125 41.515625 
Q 57.328125 34.859375 57.328125 23.390625 
Q 57.328125 12.15625 50.6875 5.359375 
Q 44.046875 -1.421875 33.015625 -1.421875 
Q 20.359375 -1.421875 13.671875 8.265625 
Q 6.984375 17.96875 6.984375 36.375 
Q 6.984375 53.65625 15.1875 63.9375 
Q 23.390625 74.21875 37.203125 74.21875 
Q 40.921875 74.21875 44.703125 73.484375 
Q 48.484375 72.75 52.59375 71.296875 
z
" id="DejaVuSans-36"/>
      </defs>
      <g transform="translate(505.799799 399.078438)scale(0.1 -0.1)">
       <use xlink:href="#DejaVuSans-30"/>
       <use x="63.623047" xlink:href="#DejaVuSans-2e"/>
       <use x="95.410156" xlink:href="#DejaVuSans-36"/>
      </g>
     </g>
    </g>
    <g id="xtick_5">
     <g id="line2d_5">
      <g>
       <use style="stroke:#000000;stroke-width:0.8;" x="638.85636" xlink:href="#m8f8b8265bf" y="384.48"/>
      </g>
     </g>
     <g id="text_5">
      <!-- 0.8 -->
      <defs>
       <path d="M 31.78125 34.625 
Q 24.75 34.625 20.71875 30.859375 
Q 16.703125 27.09375 16.703125 20.515625 
Q 16.703125 13.921875 20.71875 10.15625 
Q 24.75 6.390625 31.78125 6.390625 
Q 38.8125 6.390625 42.859375 10.171875 
Q 46.921875 13.96875 46.921875 20.515625 
Q 46.921875 27.09375 42.890625 30.859375 
Q 38.875 34.625 31.78125 34.625 
z
M 21.921875 38.8125 
Q 15.578125 40.375 12.03125 44.71875 
Q 8.5 49.078125 8.5 55.328125 
Q 8.5 64.0625 14.71875 69.140625 
Q 20.953125 74.21875 31.78125 74.21875 
Q 42.671875 74.21875 48.875 69.140625 
Q 55.078125 64.0625 55.078125 55.328125 
Q 55.078125 49.078125 51.53125 44.71875 
Q 48 40.375 41.703125 38.8125 
Q 48.828125 37.15625 52.796875 32.3125 
Q 56.78125 27.484375 56.78125 20.515625 
Q 56.78125 9.90625 50.3125 4.234375 
Q 43.84375 -1.421875 31.78125 -1.421875 
Q 19.734375 -1.421875 13.25 4.234375 
Q 6.78125 9.90625 6.78125 20.515625 
Q 6.78125 27.484375 10.78125 32.3125 
Q 14.796875 37.15625 21.921875 38.8125 
z
M 18.3125 54.390625 
Q 18.3125 48.734375 21.84375 45.5625 
Q 25.390625 42.390625 31.78125 42.390625 
Q 38.140625 42.390625 41.71875 45.5625 
Q 45.3125 48.734375 45.3125 54.390625 
Q 45.3125 60.0625 41.71875 63.234375 
Q 38.140625 66.40625 31.78125 66.40625 
Q 25.390625 66.40625 21.84375 63.234375 
Q 18.3125 60.0625 18.3125 54.390625 
z
" id="DejaVuSans-38"/>
      </defs>
      <g transform="translate(630.904798 399.078438)scale(0.1 -0.1)">
       <use xlink:href="#DejaVuSans-30"/>
       <use x="63.623047" xlink:href="#DejaVuSans-2e"/>
       <use x="95.410156" xlink:href="#DejaVuSans-38"/>
      </g>
     </g>
    </g>
    <g id="xtick_6">
     <g id="line2d_6">
      <g>
       <use style="stroke:#000000;stroke-width:0.8;" x="763.961359" xlink:href="#m8f8b8265bf" y="384.48"/>
      </g>
     </g>
     <g id="text_6">
      <!-- 1.0 -->
      <defs>
       <path d="M 12.40625 8.296875 
L 28.515625 8.296875 
L 28.515625 63.921875 
L 10.984375 60.40625 
L 10.984375 69.390625 
L 28.421875 72.90625 
L 38.28125 72.90625 
L 38.28125 8.296875 
L 54.390625 8.296875 
L 54.390625 0 
L 12.40625 0 
z
" id="DejaVuSans-31"/>
      </defs>
      <g transform="translate(756.009797 399.078438)scale(0.1 -0.1)">
       <use xlink:href="#DejaVuSans-31"/>
       <use x="63.623047" xlink:href="#DejaVuSans-2e"/>
       <use x="95.410156" xlink:href="#DejaVuSans-30"/>
      </g>
     </g>
    </g>
    <g id="text_7">
     <!-- Time [s] -->
     <defs>
      <path d="M -0.296875 72.90625 
L 61.375 72.90625 
L 61.375 64.59375 
L 35.5 64.59375 
L 35.5 0 
L 25.59375 0 
L 25.59375 64.59375 
L -0.296875 64.59375 
z
" id="DejaVuSans-54"/>
      <path d="M 9.421875 54.6875 
L 18.40625 54.6875 
L 18.40625 0 
L 9.421875 0 
z
M 9.421875 75.984375 
L 18.40625 75.984375 
L 18.40625 64.59375 
L 9.421875 64.59375 
z
" id="DejaVuSans-69"/>
      <path d="M 52 44.1875 
Q 55.375 50.25 60.0625 53.125 
Q 64.75 56 71.09375 56 
Q 79.640625 56 84.28125 50.015625 
Q 88.921875 44.046875 88.921875 33.015625 
L 88.921875 0 
L 79.890625 0 
L 79.890625 32.71875 
Q 79.890625 40.578125 77.09375 44.375 
Q 74.3125 48.1875 68.609375 48.1875 
Q 61.625 48.1875 57.5625 43.546875 
Q 53.515625 38.921875 53.515625 30.90625 
L 53.515625 0 
L 44.484375 0 
L 44.484375 32.71875 
Q 44.484375 40.625 41.703125 44.40625 
Q 38.921875 48.1875 33.109375 48.1875 
Q 26.21875 48.1875 22.15625 43.53125 
Q 18.109375 38.875 18.109375 30.90625 
L 18.109375 0 
L 9.078125 0 
L 9.078125 54.6875 
L 18.109375 54.6875 
L 18.109375 46.1875 
Q 21.1875 51.21875 25.484375 53.609375 
Q 29.78125 56 35.6875 56 
Q 41.65625 56 45.828125 52.96875 
Q 50 49.953125 52 44.1875 
z
" id="DejaVuSans-6d"/>
      <path d="M 56.203125 29.59375 
L 56.203125 25.203125 
L 14.890625 25.203125 
Q 15.484375 15.921875 20.484375 11.0625 
Q 25.484375 6.203125 34.421875 6.203125 
Q 39.59375 6.203125 44.453125 7.46875 
Q 49.3125 8.734375 54.109375 11.28125 
L 54.109375 2.78125 
Q 49.265625 0.734375 44.1875 -0.34375 
Q 39.109375 -1.421875 33.890625 -1.421875 
Q 20.796875 -1.421875 13.15625 6.1875 
Q 5.515625 13.8125 5.515625 26.8125 
Q 5.515625 40.234375 12.765625 48.109375 
Q 20.015625 56 32.328125 56 
Q 43.359375 56 49.78125 48.890625 
Q 56.203125 41.796875 56.203125 29.59375 
z
M 47.21875 32.234375 
Q 47.125 39.59375 43.09375 43.984375 
Q 39.0625 48.390625 32.421875 48.390625 
Q 24.90625 48.390625 20.390625 44.140625 
Q 15.875 39.890625 15.1875 32.171875 
z
" id="DejaVuSans-65"/>
      <path id="DejaVuSans-20"/>
      <path d="M 8.59375 75.984375 
L 29.296875 75.984375 
L 29.296875 69 
L 17.578125 69 
L 17.578125 -6.203125 
L 29.296875 -6.203125 
L 29.296875 -13.1875 
L 8.59375 -13.1875 
z
" id="DejaVuSans-5b"/>
      <path d="M 44.28125 53.078125 
L 44.28125 44.578125 
Q 40.484375 46.53125 36.375 47.5 
Q 32.28125 48.484375 27.875 48.484375 
Q 21.1875 48.484375 17.84375 46.4375 
Q 14.5 44.390625 14.5 40.28125 
Q 14.5 37.15625 16.890625 35.375 
Q 19.28125 33.59375 26.515625 31.984375 
L 29.59375 31.296875 
Q 39.15625 29.25 43.1875 25.515625 
Q 47.21875 21.78125 47.21875 15.09375 
Q 47.21875 7.46875 41.1875 3.015625 
Q 35.15625 -1.421875 24.609375 -1.421875 
Q 20.21875 -1.421875 15.453125 -0.5625 
Q 10.6875 0.296875 5.421875 2 
L 5.421875 11.28125 
Q 10.40625 8.6875 15.234375 7.390625 
Q 20.0625 6.109375 24.8125 6.109375 
Q 31.15625 6.109375 34.5625 8.28125 
Q 37.984375 10.453125 37.984375 14.40625 
Q 37.984375 18.0625 35.515625 20.015625 
Q 33.0625 21.96875 24.703125 23.78125 
L 21.578125 24.515625 
Q 13.234375 26.265625 9.515625 29.90625 
Q 5.8125 33.546875 5.8125 39.890625 
Q 5.8125 47.609375 11.28125 51.796875 
Q 16.75 56 26.8125 56 
Q 31.78125 56 36.171875 55.265625 
Q 40.578125 54.546875 44.28125 53.078125 
z
" id="DejaVuSans-73"/>
      <path d="M 30.421875 75.984375 
L 30.421875 -13.1875 
L 9.71875 -13.1875 
L 9.71875 -6.203125 
L 21.390625 -6.203125 
L 21.390625 69 
L 9.71875 69 
L 9.71875 75.984375 
z
" id="DejaVuSans-5d"/>
     </defs>
     <g transform="translate(422.317187 412.756563)scale(0.1 -0.1)">
      <use xlink:href="#DejaVuSans-54"/>
      <use x="61.037109" xlink:href="#DejaVuSans-69"/>
      <use x="88.820312" xlink:href="#DejaVuSans-6d"/>
      <use x="186.232422" xlink:href="#DejaVuSans-65"/>
      <use x="247.755859" xlink:href="#DejaVuSans-20"/>
      <use x="279.542969" xlink:href="#DejaVuSans-5b"/>
      <use x="318.556641" xlink:href="#DejaVuSans-73"/>
      <use x="370.65625" xlink:href="#DejaVuSans-5d"/>
     </g>
    </g>
    <g id="text_8">
     <!-- 1e−8 -->
     <defs>
      <path d="M 10.59375 35.5 
L 73.1875 35.5 
L 73.1875 27.203125 
L 10.59375 27.203125 
z
" id="DejaVuSans-2212"/>
     </defs>
     <g transform="translate(750.342188 411.756563)scale(0.1 -0.1)">
      <use xlink:href="#DejaVuSans-31"/>
      <use x="63.623047" xlink:href="#DejaVuSans-65"/>
      <use x="125.146484" xlink:href="#DejaVuSans-2212"/>
      <use x="208.935547" xlink:href="#DejaVuSans-38"/>
     </g>
    </g>
   </g>
   <g id="matplotlib.axis_2">
    <g id="ytick_1">
     <g id="line2d_7">
      <defs>
       <path d="M 0 0 
L -3.5 0 
" id="m7daae6544a" style="stroke:#000000;stroke-width:0.8;"/>
      </defs>
      <g>
       <use style="stroke:#000000;stroke-width:0.8;" x="108" xlink:href="#m7daae6544a" y="368.937625"/>
      </g>
     </g>
     <g id="text_9">
      <!-- 0.0 -->
      <g transform="translate(85.096875 372.736844)scale(0.1 -0.1)">
       <use xlink:href="#DejaVuSans-30"/>
       <use x="63.623047" xlink:href="#DejaVuSans-2e"/>
       <use x="95.410156" xlink:href="#DejaVuSans-30"/>
      </g>
     </g>
    </g>
    <g id="ytick_2">
     <g id="line2d_8">
      <g>
       <use style="stroke:#000000;stroke-width:0.8;" x="108" xlink:href="#m7daae6544a" y="318.699162"/>
      </g>
     </g>
     <g id="text_10">
      <!-- 0.2 -->
      <g transform="translate(85.096875 322.49838)scale(0.1 -0.1)">
       <use xlink:href="#DejaVuSans-30"/>
       <use x="63.623047" xlink:href="#DejaVuSans-2e"/>
       <use x="95.410156" xlink:href="#DejaVuSans-32"/>
      </g>
     </g>
    </g>
    <g id="ytick_3">
     <g id="line2d_9">
      <g>
       <use style="stroke:#000000;stroke-width:0.8;" x="108" xlink:href="#m7daae6544a" y="268.460698"/>
      </g>
     </g>
     <g id="text_11">
      <!-- 0.4 -->
      <g transform="translate(85.096875 272.259917)scale(0.1 -0.1)">
       <use xlink:href="#DejaVuSans-30"/>
       <use x="63.623047" xlink:href="#DejaVuSans-2e"/>
       <use x="95.410156" xlink:href="#DejaVuSans-34"/>
      </g>
     </g>
    </g>
    <g id="ytick_4">
     <g id="line2d_10">
      <g>
       <use style="stroke:#000000;stroke-width:0.8;" x="108" xlink:href="#m7daae6544a" y="218.222235"/>
      </g>
     </g>
     <g id="text_12">
      <!-- 0.6 -->
      <g transform="translate(85.096875 222.021454)scale(0.1 -0.1)">
       <use xlink:href="#DejaVuSans-30"/>
       <use x="63.623047" xlink:href="#DejaVuSans-2e"/>
       <use x="95.410156" xlink:href="#DejaVuSans-36"/>
      </g>
     </g>
    </g>
    <g id="ytick_5">
     <g id="line2d_11">
      <g>
       <use style="stroke:#000000;stroke-width:0.8;" x="108" xlink:href="#m7daae6544a" y="167.983772"/>
      </g>
     </g>
     <g id="text_13">
      <!-- 0.8 -->
      <g transform="translate(85.096875 171.782991)scale(0.1 -0.1)">
       <use xlink:href="#DejaVuSans-30"/>
       <use x="63.623047" xlink:href="#DejaVuSans-2e"/>
       <use x="95.410156" xlink:href="#DejaVuSans-38"/>
      </g>
     </g>
    </g>
    <g id="ytick_6">
     <g id="line2d_12">
      <g>
       <use style="stroke:#000000;stroke-width:0.8;" x="108" xlink:href="#m7daae6544a" y="117.745309"/>
      </g>
     </g>
     <g id="text_14">
      <!-- 1.0 -->
      <g transform="translate(85.096875 121.544528)scale(0.1 -0.1)">
       <use xlink:href="#DejaVuSans-31"/>
       <use x="63.623047" xlink:href="#DejaVuSans-2e"/>
       <use x="95.410156" xlink:href="#DejaVuSans-30"/>
      </g>
     </g>
    </g>
    <g id="ytick_7">
     <g id="line2d_13">
      <g>
       <use style="stroke:#000000;stroke-width:0.8;" x="108" xlink:href="#m7daae6544a" y="67.506846"/>
      </g>
     </g>
     <g id="text_15">
      <!-- 1.2 -->
      <g transform="translate(85.096875 71.306064)scale(0.1 -0.1)">
       <use xlink:href="#DejaVuSans-31"/>
       <use x="63.623047" xlink:href="#DejaVuSans-2e"/>
       <use x="95.410156" xlink:href="#DejaVuSans-32"/>
      </g>
     </g>
    </g>
    <g id="text_16">
     <!-- Voltage [V] -->
     <defs>
      <path d="M 28.609375 0 
L 0.78125 72.90625 
L 11.078125 72.90625 
L 34.1875 11.53125 
L 57.328125 72.90625 
L 67.578125 72.90625 
L 39.796875 0 
z
" id="DejaVuSans-56"/>
      <path d="M 30.609375 48.390625 
Q 23.390625 48.390625 19.1875 42.75 
Q 14.984375 37.109375 14.984375 27.296875 
Q 14.984375 17.484375 19.15625 11.84375 
Q 23.34375 6.203125 30.609375 6.203125 
Q 37.796875 6.203125 41.984375 11.859375 
Q 46.1875 17.53125 46.1875 27.296875 
Q 46.1875 37.015625 41.984375 42.703125 
Q 37.796875 48.390625 30.609375 48.390625 
z
M 30.609375 56 
Q 42.328125 56 49.015625 48.375 
Q 55.71875 40.765625 55.71875 27.296875 
Q 55.71875 13.875 49.015625 6.21875 
Q 42.328125 -1.421875 30.609375 -1.421875 
Q 18.84375 -1.421875 12.171875 6.21875 
Q 5.515625 13.875 5.515625 27.296875 
Q 5.515625 40.765625 12.171875 48.375 
Q 18.84375 56 30.609375 56 
z
" id="DejaVuSans-6f"/>
      <path d="M 9.421875 75.984375 
L 18.40625 75.984375 
L 18.40625 0 
L 9.421875 0 
z
" id="DejaVuSans-6c"/>
      <path d="M 18.3125 70.21875 
L 18.3125 54.6875 
L 36.8125 54.6875 
L 36.8125 47.703125 
L 18.3125 47.703125 
L 18.3125 18.015625 
Q 18.3125 11.328125 20.140625 9.421875 
Q 21.96875 7.515625 27.59375 7.515625 
L 36.8125 7.515625 
L 36.8125 0 
L 27.59375 0 
Q 17.1875 0 13.234375 3.875 
Q 9.28125 7.765625 9.28125 18.015625 
L 9.28125 47.703125 
L 2.6875 47.703125 
L 2.6875 54.6875 
L 9.28125 54.6875 
L 9.28125 70.21875 
z
" id="DejaVuSans-74"/>
      <path d="M 34.28125 27.484375 
Q 23.390625 27.484375 19.1875 25 
Q 14.984375 22.515625 14.984375 16.5 
Q 14.984375 11.71875 18.140625 8.90625 
Q 21.296875 6.109375 26.703125 6.109375 
Q 34.1875 6.109375 38.703125 11.40625 
Q 43.21875 16.703125 43.21875 25.484375 
L 43.21875 27.484375 
z
M 52.203125 31.203125 
L 52.203125 0 
L 43.21875 0 
L 43.21875 8.296875 
Q 40.140625 3.328125 35.546875 0.953125 
Q 30.953125 -1.421875 24.3125 -1.421875 
Q 15.921875 -1.421875 10.953125 3.296875 
Q 6 8.015625 6 15.921875 
Q 6 25.140625 12.171875 29.828125 
Q 18.359375 34.515625 30.609375 34.515625 
L 43.21875 34.515625 
L 43.21875 35.40625 
Q 43.21875 41.609375 39.140625 45 
Q 35.0625 48.390625 27.6875 48.390625 
Q 23 48.390625 18.546875 47.265625 
Q 14.109375 46.140625 10.015625 43.890625 
L 10.015625 52.203125 
Q 14.9375 54.109375 19.578125 55.046875 
Q 24.21875 56 28.609375 56 
Q 40.484375 56 46.34375 49.84375 
Q 52.203125 43.703125 52.203125 31.203125 
z
" id="DejaVuSans-61"/>
      <path d="M 45.40625 27.984375 
Q 45.40625 37.75 41.375 43.109375 
Q 37.359375 48.484375 30.078125 48.484375 
Q 22.859375 48.484375 18.828125 43.109375 
Q 14.796875 37.75 14.796875 27.984375 
Q 14.796875 18.265625 18.828125 12.890625 
Q 22.859375 7.515625 30.078125 7.515625 
Q 37.359375 7.515625 41.375 12.890625 
Q 45.40625 18.265625 45.40625 27.984375 
z
M 54.390625 6.78125 
Q 54.390625 -7.171875 48.1875 -13.984375 
Q 42 -20.796875 29.203125 -20.796875 
Q 24.46875 -20.796875 20.265625 -20.09375 
Q 16.0625 -19.390625 12.109375 -17.921875 
L 12.109375 -9.1875 
Q 16.0625 -11.328125 19.921875 -12.34375 
Q 23.78125 -13.375 27.78125 -13.375 
Q 36.625 -13.375 41.015625 -8.765625 
Q 45.40625 -4.15625 45.40625 5.171875 
L 45.40625 9.625 
Q 42.625 4.78125 38.28125 2.390625 
Q 33.9375 0 27.875 0 
Q 17.828125 0 11.671875 7.65625 
Q 5.515625 15.328125 5.515625 27.984375 
Q 5.515625 40.671875 11.671875 48.328125 
Q 17.828125 56 27.875 56 
Q 33.9375 56 38.28125 53.609375 
Q 42.625 51.21875 45.40625 46.390625 
L 45.40625 54.6875 
L 54.390625 54.6875 
z
" id="DejaVuSans-67"/>
     </defs>
     <g transform="translate(79.017187 246.209219)rotate(-90)scale(0.1 -0.1)">
      <use xlink:href="#DejaVuSans-56"/>
      <use x="68.298828" xlink:href="#DejaVuSans-6f"/>
      <use x="129.480469" xlink:href="#DejaVuSans-6c"/>
      <use x="157.263672" xlink:href="#DejaVuSans-74"/>
      <use x="196.472656" xlink:href="#DejaVuSans-61"/>
      <use x="257.751953" xlink:href="#DejaVuSans-67"/>
      <use x="321.228516" xlink:href="#DejaVuSans-65"/>
      <use x="382.751953" xlink:href="#DejaVuSans-20"/>
      <use x="414.539062" xlink:href="#DejaVuSans-5b"/>
      <use x="453.552734" xlink:href="#DejaVuSans-56"/>
      <use x="521.960938" xlink:href="#DejaVuSans-5d"/>
     </g>
    </g>
   </g>
   <g id="line2d_14">
    <path clip-path="url(#pea983df6cf)" d="M 138.436364 368.937603 
L 224.400888 369.048544 
L 232.163653 369.241674 
L 232.95807 368.944317 
L 233.627381 368.452894 
L 234.246651 367.71186 
L 234.865921 366.604466 
L 235.503956 364.982918 
L 236.186467 362.606375 
L 236.930841 359.160175 
L 237.750279 354.251952 
L 238.669801 347.310509 
L 239.720683 337.582092 
L 240.971733 323.796281 
L 242.560566 303.641715 
L 244.975093 269.804753 
L 250.435926 192.766105 
L 252.687816 164.361177 
L 254.483073 144.392845 
L 256.053141 129.301311 
L 257.491848 117.540085 
L 258.842982 108.27988 
L 260.119053 101.036247 
L 261.326316 95.40753 
L 262.489793 90.98127 
L 263.647014 87.423884 
L 264.729172 84.751701 
L 265.830096 82.588432 
L 266.91851 80.930312 
L 267.963136 79.768799 
L 268.776569 79.197085 
L 269.414605 79.011705 
L 269.983832 79.097613 
L 270.490508 79.419641 
L 270.990928 80.007682 
L 271.5539 81.042092 
L 272.148149 82.619329 
L 272.836226 85.137532 
L 273.605622 88.897127 
L 274.443826 94.163877 
L 275.382113 101.500702 
L 276.483037 111.965374 
L 277.746598 126.211821 
L 279.279134 146.158149 
L 281.280814 175.341597 
L 288.81839 288.189519 
L 290.263353 305.010336 
L 291.508148 317.020644 
L 292.634092 325.82815 
L 293.678719 332.331067 
L 294.654538 337.076291 
L 295.561549 340.442268 
L 296.380987 342.682527 
L 297.100341 344.046725 
L 297.7071 344.761545 
L 298.220031 345.050205 
L 298.670409 345.059811 
L 299.114531 344.839897 
L 299.596186 344.335367 
L 300.140392 343.417867 
L 300.753407 341.917747 
L 301.441484 339.603009 
L 302.192865 336.253209 
L 303.024813 331.473421 
L 303.95059 324.784421 
L 305.001472 315.483398 
L 306.246267 302.366914 
L 307.816335 283.302874 
L 310.168309 251.707779 
L 315.485271 179.753614 
L 317.549504 155.083514 
L 319.257187 137.228614 
L 320.777213 123.573498 
L 322.184644 112.856353 
L 323.535778 104.248495 
L 324.811849 97.517043 
L 326.037878 92.197543 
L 327.270162 87.844129 
L 328.433639 84.521357 
L 329.655164 81.731113 
L 330.849917 79.581158 
L 331.944585 78.031804 
L 333.076786 76.798952 
L 334.083881 76.019502 
L 334.909574 75.650249 
L 335.56012 75.581674 
L 336.166879 75.740679 
L 336.711086 76.102144 
L 337.261548 76.710281 
L 337.918349 77.794176 
L 338.612682 79.401555 
L 339.413354 81.874544 
L 340.282834 85.310855 
L 341.302439 90.270396 
L 342.528468 97.365072 
L 344.18611 108.382366 
L 350.116086 149.037165 
L 351.304584 155.021545 
L 352.280403 158.875715 
L 353.106096 161.303765 
L 353.806684 162.734908 
L 354.407188 163.495644 
L 354.913863 163.804836 
L 355.364241 163.827644 
L 355.814619 163.617196 
L 356.308784 163.122548 
L 356.878012 162.215995 
L 357.541068 160.710373 
L 358.297953 158.401463 
L 359.154923 155.025514 
L 360.126926 150.237387 
L 361.296658 143.278505 
L 363.029362 131.441922 
L 366.031882 110.989994 
L 367.608205 101.878746 
L 369.009381 95.046566 
L 370.316728 89.724806 
L 371.611565 85.364359 
L 372.85636 81.92001 
L 374.132431 79.038331 
L 375.333439 76.831104 
L 376.647041 74.881601 
L 377.948133 73.341792 
L 379.161652 72.188568 
L 380.700443 71.036098 
L 382.458168 70.037859 
L 384.491125 69.181294 
L 386.74927 68.48323 
L 388.901076 67.993405 
L 390.790161 67.72689 
L 391.941127 67.790442 
L 392.64797 68.045402 
L 393.25473 68.48524 
L 393.836468 69.173004 
L 394.436972 70.234292 
L 395.087518 71.879853 
L 395.763085 74.233274 
L 396.527039 77.78865 
L 397.365242 82.863237 
L 398.30353 90.034526 
L 399.348156 99.833538 
L 400.549164 113.318547 
L 401.95034 131.716123 
L 403.645513 157.094183 
L 405.928679 194.905208 
L 411.652233 291.077402 
L 413.159748 311.936085 
L 414.404543 326.232444 
L 415.517978 336.585009 
L 416.556349 344.259158 
L 417.544679 349.984725 
L 418.501732 354.285035 
L 419.446274 357.546591 
L 420.384562 360.01603 
L 421.329105 361.895983 
L 422.292413 363.331422 
L 423.286998 364.423593 
L 424.312859 365.22707 
L 425.301188 365.730203 
L 426.151902 365.926995 
L 426.865001 365.870494 
L 427.490526 365.598031 
L 428.07952 365.093742 
L 428.673769 364.277736 
L 429.293039 363.024347 
L 429.94984 361.161284 
L 430.662939 358.426658 
L 431.444845 354.48742 
L 432.308069 348.922902 
L 433.277633 341.133323 
L 434.397323 330.225297 
L 435.748457 314.738964 
L 437.524948 291.607367 
L 440.758912 245.972556 
L 444.555849 193.455276 
L 446.83276 164.916714 
L 448.621761 145.152852 
L 450.160553 130.511756 
L 451.555473 119.289313 
L 452.844055 110.652643 
L 454.076339 103.860654 
L 455.22105 98.719249 
L 456.321974 94.7165 
L 457.404132 91.572828 
L 458.442504 89.207601 
L 459.362025 87.609013 
L 460.168953 86.606002 
L 460.85703 86.094575 
L 461.389289 85.960438 
L 461.864688 86.069455 
L 462.327577 86.414594 
L 462.840507 87.109643 
L 463.409735 88.312352 
L 464.016494 90.143795 
L 464.698317 92.928513 
L 465.492733 97.186223 
L 466.374723 103.209814 
L 467.388074 111.790041 
L 468.526529 123.433283 
L 469.858898 139.465607 
L 471.485263 161.894167 
L 473.687111 195.612515 
L 479.692151 289.124833 
L 481.218432 308.649962 
L 482.481992 322.114322 
L 483.620448 331.975027 
L 484.68384 339.325919 
L 485.697191 344.83903 
L 486.67301 348.967497 
L 487.611297 352.017501 
L 488.512053 354.228489 
L 489.350257 355.73194 
L 490.094631 356.643582 
L 490.733668 357.101262 
L 491.28413 357.237361 
L 491.78455 357.134364 
L 492.28497 356.793855 
L 492.816666 356.145018 
L 493.398404 355.060583 
L 494.042695 353.354897 
L 494.749538 350.812899 
L 495.525189 347.145576 
L 496.382158 341.95839 
L 497.339212 334.726588 
L 498.440136 324.606703 
L 499.747483 310.404465 
L 501.430145 289.513579 
L 504.138668 252.688082 
L 508.767553 189.993017 
L 510.969401 163.191349 
L 512.689595 144.831502 
L 514.172089 131.288343 
L 515.510713 121.009553 
L 516.761763 113.056051 
L 517.93775 106.946802 
L 519.019908 102.390676 
L 520.133342 98.660219 
L 521.147381 96.028728 
L 522.042069 94.289975 
L 522.81772 93.253556 
L 523.399459 92.804173 
L 523.912389 92.678325 
L 524.331491 92.788096 
L 524.788124 93.150316 
L 525.269778 93.833308 
L 525.826496 95.041794 
L 526.433255 96.906897 
L 527.146353 99.867701 
L 527.94077 104.170123 
L 528.829016 110.231644 
L 529.886153 119.105138 
L 531.087161 131.192236 
L 532.525868 148.05543 
L 534.364912 172.417517 
L 537.442495 216.672203 
L 540.682714 262.239494 
L 542.446695 284.009076 
L 543.860381 298.847986 
L 545.08641 309.494772 
L 546.187334 317.215318 
L 547.188174 322.745393 
L 548.08893 326.55377 
L 548.889602 329.039845 
L 549.57768 330.514218 
L 550.165673 331.295401 
L 550.659838 331.614039 
L 551.09145 331.641494 
L 551.516807 331.440138 
L 551.985951 330.953579 
L 552.523902 330.048181 
L 553.136917 328.54801 
L 553.824994 326.237091 
L 554.588135 322.845116 
L 555.426338 318.051086 
L 556.364626 311.315439 
L 557.428018 301.979424 
L 558.691579 288.796148 
L 560.293799 269.576168 
L 562.764622 236.905141 
L 567.424784 175.233861 
L 569.438974 151.668103 
L 571.115381 134.561705 
L 572.616641 121.429848 
L 574.017817 111.05455 
L 575.337675 102.854377 
L 576.638767 96.124433 
L 577.902327 90.719779 
L 579.184654 86.214645 
L 580.416938 82.671828 
L 581.73054 79.602007 
L 582.994101 77.218945 
L 584.151322 75.442262 
L 585.371096 73.91853 
L 586.684698 72.607808 
L 588.092129 71.511856 
L 589.562113 70.641726 
L 591.213499 69.96853 
L 592.283147 69.782146 
L 592.98999 69.863281 
L 593.615515 70.152654 
L 594.159722 70.633688 
L 594.74146 71.451821 
L 595.354475 72.731897 
L 596.005021 74.649248 
L 596.718119 77.506812 
L 597.500025 81.635157 
L 598.369505 87.502005 
L 599.357835 95.801902 
L 600.477524 107.219848 
L 601.73483 122.383424 
L 603.242345 143.379007 
L 605.112665 172.726911 
L 607.877485 220.029263 
L 611.774506 286.299648 
L 613.357084 309.388266 
L 614.6269 324.832248 
L 615.752845 335.942057 
L 616.797472 344.147779 
L 617.792056 350.279107 
L 618.755365 354.886032 
L 619.693652 358.336297 
L 620.625685 360.950634 
L 621.557717 362.927904 
L 622.508515 364.438361 
L 623.490589 365.591472 
L 624.541471 366.486113 
L 625.704947 367.182914 
L 627.056081 367.726816 
L 628.713723 368.145637 
L 630.921826 368.460591 
L 634.174556 368.680905 
L 640.323467 368.835134 
L 653.884849 368.925367 
L 713.828909 368.937606 
L 747.163636 368.937606 
L 747.163636 368.937606 
" style="fill:none;stroke:#ff0000;stroke-linecap:square;stroke-width:1.5;"/>
   </g>
   <g id="line2d_15">
    <path clip-path="url(#pea983df6cf)" d="M 138.436364 67.506846 
L 237.518835 67.39607 
L 244.330802 66.96 
L 245.456747 67.070022 
L 246.251164 67.375221 
L 246.958007 67.930105 
L 247.577277 68.734674 
L 248.16527 69.858257 
L 248.803306 71.564104 
L 249.503894 74.122498 
L 250.260779 77.791413 
L 251.117748 83.157885 
L 252.056036 90.534399 
L 253.106918 100.611983 
L 254.326692 114.557678 
L 255.752889 133.56947 
L 257.485593 159.833084 
L 259.837567 199.168218 
L 265.260868 290.968233 
L 266.768384 312.101395 
L 268.013178 326.579894 
L 269.126863 337.06451 
L 270.165235 344.837684 
L 271.153564 350.640478 
L 272.110617 354.99941 
L 273.048905 358.283876 
L 273.980937 360.770931 
L 274.919225 362.664077 
L 275.876278 364.111402 
L 276.883373 365.238421 
L 277.965531 366.117082 
L 279.160284 366.798876 
L 280.44261 367.2763 
L 281.574811 367.474685 
L 282.456801 367.414876 
L 283.188665 367.146116 
L 283.851722 366.660945 
L 284.489757 365.908243 
L 285.140303 364.777586 
L 285.822125 363.117248 
L 286.547734 360.732438 
L 287.342151 357.312412 
L 288.217886 352.499675 
L 289.193705 345.826224 
L 290.30714 336.593349 
L 291.626997 323.680456 
L 293.290894 305.05756 
L 295.799249 274.160177 
L 300.378092 217.697419 
L 302.342991 196.356773 
L 303.913059 181.599677 
L 305.251682 171.014684 
L 306.427669 163.392353 
L 307.484807 157.919023 
L 308.435605 154.099368 
L 309.280063 151.565013 
L 310.011928 150.020457 
L 310.618687 149.211517 
L 311.119107 148.880823 
L 311.544464 148.850931 
L 311.95731 149.053542 
L 312.401433 149.538318 
L 312.908108 150.445299 
L 313.489846 151.973477 
L 314.159158 154.40208 
L 314.916043 158.038013 
L 315.773013 163.306948 
L 316.742576 170.723351 
L 317.856011 181.056448 
L 319.144592 195.210809 
L 320.689639 214.776982 
L 322.741361 243.840661 
L 327.282673 309.104595 
L 328.646317 324.930841 
L 329.8178 336.06268 
L 330.893703 344.254478 
L 331.907054 350.34131 
L 332.882873 354.912423 
L 333.839926 358.373456 
L 334.784469 360.987335 
L 335.729012 362.971865 
L 336.69232 364.493734 
L 337.69316 365.667322 
L 338.762808 366.581522 
L 339.94505 367.298733 
L 341.321205 367.868094 
L 343.010123 368.31721 
L 345.230736 368.665109 
L 348.314574 368.90969 
L 351.867556 368.973339 
L 356.046063 368.801369 
L 361.396742 368.637198 
L 367.695778 368.686764 
L 383.433987 368.913292 
L 398.841481 369.087547 
L 405.465791 369.272931 
L 406.303994 369.00484 
L 406.992072 368.548276 
L 407.617597 367.858408 
L 408.236867 366.828925 
L 408.874902 365.312957 
L 409.556724 363.081408 
L 410.294844 359.856051 
L 411.108026 355.24371 
L 412.015038 348.737729 
L 413.047154 339.620995 
L 414.260672 326.793759 
L 415.768188 308.329943 
L 417.913738 279.033207 
L 424.756982 183.869752 
L 426.83998 158.622362 
L 428.536154 140.641715 
L 430.018648 127.192049 
L 431.376037 116.833481 
L 432.633342 108.871187 
L 433.82184 102.689093 
L 434.960295 97.871726 
L 436.092495 94.027479 
L 437.162143 91.155849 
L 438.162983 89.068189 
L 439.063739 87.668295 
L 439.820624 86.875783 
L 440.452405 86.533408 
L 440.946569 86.507284 
L 441.415713 86.712005 
L 441.909878 87.203589 
L 442.441574 88.089042 
L 443.029568 89.545957 
L 443.705135 91.89561 
L 444.424488 95.239733 
L 445.243926 100.1415 
L 446.175958 107.138211 
L 447.22684 116.796807 
L 448.415338 129.83939 
L 449.822769 147.857716 
L 451.542963 172.920756 
L 453.932468 211.313115 
L 458.817819 290.437916 
L 460.362865 311.470952 
L 461.626989 325.813883 
L 462.752934 336.188276 
L 463.803816 343.900651 
L 464.804656 349.664264 
L 465.767964 353.972177 
L 466.718762 357.245487 
L 467.663305 359.727483 
L 468.607848 361.607828 
L 469.571156 363.045974 
L 470.559486 364.132964 
L 471.560326 364.913579 
L 472.504868 365.380825 
L 473.318051 365.546843 
L 474.012384 365.468021 
L 474.637909 365.172473 
L 475.238413 364.635781 
L 475.845172 363.782973 
L 476.483207 362.48087 
L 477.16503 360.552501 
L 477.903149 357.757615 
L 478.710076 353.781095 
L 479.598322 348.22819 
L 480.599162 340.482735 
L 481.750128 329.737205 
L 483.132538 314.613267 
L 484.940305 292.198799 
L 488.099207 249.741219 
L 491.965952 198.649003 
L 494.105247 173.227135 
L 495.775399 155.896498 
L 497.214107 143.186946 
L 498.508943 133.646009 
L 499.703696 126.435006 
L 500.810875 121.060219 
L 501.830481 117.161789 
L 502.756258 114.461221 
L 503.54442 112.796569 
L 504.201221 111.883485 
L 504.732917 111.487857 
L 505.202061 111.416016 
L 505.633673 111.596372 
L 506.090306 112.061832 
L 506.578216 112.88951 
L 507.141188 114.292419 
L 507.791734 116.540339 
L 508.54862 120.033671 
L 509.386823 125.026093 
L 510.337621 132.114539 
L 511.413524 141.901117 
L 512.652064 155.309587 
L 514.122047 173.783124 
L 515.973601 200.047291 
L 519.013653 246.882952 
L 521.948241 290.914076 
L 523.543329 311.633373 
L 524.831911 325.630613 
L 525.976622 335.753412 
L 527.033759 343.222766 
L 528.047109 348.863089 
L 529.022928 353.095398 
L 529.986237 356.32289 
L 530.937035 358.763196 
L 531.887833 360.616422 
L 532.844886 362.012599 
L 533.795684 363.020353 
L 534.69644 363.664317 
L 535.497112 363.975753 
L 536.1977 364.017536 
L 536.82948 363.835427 
L 537.442495 363.420683 
L 538.061765 362.719372 
L 538.706055 361.637012 
L 539.394133 360.025113 
L 540.144763 357.665995 
L 540.964201 354.313994 
L 541.871212 349.611586 
L 542.884562 343.117215 
L 544.041784 334.182078 
L 545.417939 321.725049 
L 547.181919 303.579444 
L 550.259502 269.157556 
L 553.262022 236.540686 
L 555.113576 218.757174 
L 556.59607 206.54644 
L 557.859631 197.888996 
L 558.973065 191.726068 
L 559.96227 187.432086 
L 560.838005 184.553171 
L 561.601146 182.74848 
L 562.245437 181.744715 
L 562.777133 181.288198 
L 563.221256 181.176166 
L 563.634102 181.301838 
L 564.065714 181.68041 
L 564.553624 182.42615 
L 565.116596 183.724211 
L 565.760887 185.808429 
L 566.492751 188.974708 
L 567.3247 193.619606 
L 568.269242 200.227195 
L 569.345145 209.40639 
L 570.602451 222.160177 
L 572.116221 239.932913 
L 574.192964 267.21373 
L 577.633352 312.488231 
L 579.015762 327.558664 
L 580.191749 338.073349 
L 581.267652 345.792597 
L 582.287258 351.565679 
L 583.263077 355.872291 
L 584.22013 359.13169 
L 585.164673 361.590649 
L 586.109215 363.45427 
L 587.072524 364.879603 
L 588.079619 365.980029 
L 589.155522 366.829462 
L 590.35653 367.492239 
L 591.757706 368.005527 
L 593.509176 368.400354 
L 596.023786 368.719647 
L 601.384536 369.121334 
L 605.556787 369.290325 
L 606.507585 369.09353 
L 607.233194 368.718152 
L 607.87123 368.133688 
L 608.484244 367.260291 
L 609.109769 365.961317 
L 609.766571 364.053808 
L 610.473414 361.277365 
L 611.249065 357.273361 
L 612.106034 351.61261 
L 613.075598 343.629673 
L 614.195288 332.45601 
L 615.558932 316.464002 
L 617.366699 292.424094 
L 620.900916 241.698468 
L 624.410111 192.726542 
L 626.655745 164.342488 
L 628.451002 144.340622 
L 630.03358 129.106561 
L 631.484798 117.208009 
L 632.867209 107.66471 
L 634.174556 100.128689 
L 635.488158 93.858176 
L 636.720443 89.00715 
L 637.958982 84.990584 
L 639.203777 81.684894 
L 640.417295 79.050389 
L 641.655835 76.857731 
L 642.90063 75.067986 
L 644.28304 73.471156 
L 645.853108 72.051668 
L 647.623343 70.840419 
L 649.143369 70.054187 
L 651.17007 69.280263 
L 653.278089 68.719602 
L 655.29228 68.34834 
L 658.082121 68.012747 
L 660.521669 67.830633 
L 663.68057 67.688207 
L 669.372847 67.570649 
L 747.163636 67.506846 
L 747.163636 67.506846 
" style="fill:none;stroke:#008000;stroke-linecap:square;stroke-width:1.5;"/>
   </g>
   <g id="line2d_16">
    <path clip-path="url(#pea983df6cf)" d="M 138.436364 368.937625 
L 211.239842 368.827581 
L 216.700675 368.592079 
L 220.07851 368.236834 
L 222.555589 367.761452 
L 224.525993 367.163292 
L 226.158613 366.444963 
L 227.622341 365.559578 
L 228.917178 364.521303 
L 230.155718 363.236483 
L 231.33796 361.671312 
L 232.463905 359.795117 
L 233.533553 357.583093 
L 234.6032 354.86166 
L 235.672848 351.527135 
L 236.76195 347.380256 
L 237.887895 342.150287 
L 239.01384 335.801827 
L 240.139785 328.172316 
L 241.322027 318.619826 
L 242.560566 306.777922 
L 243.9117 291.644224 
L 245.431726 271.972091 
L 247.289535 244.822357 
L 253.200747 155.892761 
L 254.720772 137.493833 
L 256.128204 123.078314 
L 257.42304 112.048005 
L 258.66158 103.381076 
L 259.843822 96.66839 
L 260.969767 91.537438 
L 262.039415 87.672578 
L 263.052765 84.817705 
L 264.009818 82.770184 
L 264.854277 81.444567 
L 265.642439 80.590254 
L 266.374303 80.116083 
L 267.04987 79.946918 
L 267.66914 80.018925 
L 268.313681 80.328833 
L 268.989248 80.919628 
L 269.721112 81.882643 
L 270.509273 83.321914 
L 271.353732 85.368784 
L 272.254488 88.190599 
L 273.155244 91.751563 
L 274.112297 96.448748 
L 275.125648 102.579398 
L 276.195296 110.498271 
L 277.321241 120.604945 
L 278.503483 133.306313 
L 279.79832 149.707367 
L 281.318345 172.015993 
L 283.345046 205.445402 
L 287.004368 266.171044 
L 288.580691 288.300085 
L 289.931825 304.183579 
L 291.114067 315.589884 
L 292.183715 323.940253 
L 293.197065 330.216906 
L 294.154118 334.785113 
L 294.998577 337.797368 
L 295.730441 339.685857 
L 296.406008 340.866226 
L 296.968981 341.454543 
L 297.475656 341.686513 
L 297.926034 341.661401 
L 298.376412 341.422073 
L 298.883087 340.899627 
L 299.502357 339.899432 
L 300.177924 338.354853 
L 300.966085 335.950068 
L 301.828434 332.562005 
L 302.799624 327.772957 
L 303.869272 321.263824 
L 304.995217 312.966468 
L 306.233757 302.090354 
L 307.584891 288.155646 
L 309.104916 270.076805 
L 310.962726 245.180741 
L 317.662098 152.543902 
L 319.238421 135.216085 
L 320.645852 122.033975 
L 321.996986 111.399576 
L 323.291823 102.952184 
L 324.530363 96.320007 
L 325.712605 91.162609 
L 326.83855 87.188897 
L 327.964495 84.019366 
L 329.004618 81.723484 
L 330.017968 80.009451 
L 330.975022 78.823351 
L 331.81948 78.103203 
L 332.607642 77.695624 
L 333.395803 77.538242 
L 334.127668 77.615735 
L 334.859532 77.911838 
L 335.647693 78.482786 
L 336.492152 79.398377 
L 337.336611 80.648013 
L 338.237367 82.376853 
L 339.19442 84.698843 
L 340.207771 87.749518 
L 341.277418 91.684222 
L 342.459661 96.941869 
L 343.6982 103.501312 
L 345.105631 112.204374 
L 346.907143 124.892453 
L 350.679059 151.937669 
L 351.805004 158.280641 
L 352.70576 162.229988 
L 353.437624 164.570277 
L 354.056894 165.889306 
L 354.563569 166.499964 
L 354.95765 166.679677 
L 355.351731 166.601689 
L 355.745811 166.269248 
L 356.196189 165.585071 
L 356.759162 164.291498 
L 357.434729 162.138025 
L 358.279188 158.621956 
L 359.307676 153.313717 
L 360.72743 144.672163 
L 366.751236 106.386883 
L 368.271261 98.83227 
L 369.678693 92.893085 
L 371.029827 88.101598 
L 372.380961 84.120167 
L 373.675797 80.974957 
L 374.970634 78.396431 
L 376.265471 76.300969 
L 377.560308 74.613406 
L 378.911442 73.217486 
L 380.262576 72.134848 
L 381.670007 71.289823 
L 383.077438 70.696697 
L 384.484869 70.334776 
L 385.892301 70.201248 
L 387.187137 70.294958 
L 388.425677 70.608899 
L 389.551622 71.124465 
L 390.621269 71.865959 
L 391.63462 72.851031 
L 392.591673 74.096705 
L 393.548726 75.723892 
L 394.50578 77.824751 
L 395.462833 80.512156 
L 396.389423 83.800441 
L 397.346476 88.060031 
L 398.30353 93.374421 
L 399.260583 99.938507 
L 400.273933 108.471604 
L 401.343581 119.479046 
L 402.469526 133.483988 
L 403.708066 151.818606 
L 405.171794 177.079125 
L 407.31109 218.485833 
L 409.95706 268.881505 
L 411.420789 292.688452 
L 412.715626 310.269734 
L 413.897868 323.366551 
L 415.023813 333.377659 
L 416.093461 340.908989 
L 417.106811 346.509036 
L 418.063864 350.631806 
L 419.020917 353.796929 
L 419.921673 356.034388 
L 420.766132 357.57308 
L 421.554294 358.583492 
L 422.286158 359.193307 
L 423.018022 359.51446 
L 423.693589 359.571486 
L 424.369156 359.408926 
L 425.10102 358.990876 
L 425.889182 358.259745 
L 426.733641 357.145437 
L 427.634397 355.559906 
L 428.56743 353.451308 
L 429.58078 350.567577 
L 430.594131 346.990442 
L 431.663778 342.362355 
L 432.733426 336.743244 
L 433.859371 329.623158 
L 435.041613 320.670718 
L 436.280153 309.533678 
L 437.631287 295.244426 
L 439.095015 277.303184 
L 440.84023 253.031426 
L 443.655093 210.185155 
L 446.357361 170.254855 
L 448.102575 147.724409 
L 449.566304 131.581664 
L 450.917438 119.071103 
L 452.155977 109.582115 
L 453.33822 102.183738 
L 454.464165 96.523631 
L 455.477515 92.487256 
L 456.434568 89.522164 
L 457.335324 87.433441 
L 458.123486 86.137116 
L 458.799053 85.409318 
L 459.418323 85.049592 
L 459.981295 84.978476 
L 460.48797 85.125651 
L 461.031489 85.51096 
L 461.639499 86.230082 
L 462.315066 87.402412 
L 463.046931 89.143203 
L 463.835092 91.607673 
L 464.679551 94.988485 
L 465.580307 99.52391 
L 466.53736 105.504149 
L 467.55071 113.271695 
L 468.620358 123.208761 
L 469.8026 136.381717 
L 471.097437 153.447347 
L 472.617463 176.64849 
L 474.756758 213.191768 
L 477.909404 266.821238 
L 479.485727 289.805478 
L 480.836861 306.405178 
L 482.075401 318.954041 
L 483.201346 328.219465 
L 484.270994 335.274212 
L 485.284344 340.537843 
L 486.241397 344.372209 
L 487.142153 347.074948 
L 487.930315 348.784839 
L 488.662179 349.866943 
L 489.281449 350.424392 
L 489.844421 350.658337 
L 490.407394 350.640012 
L 490.946346 350.390496 
L 491.565616 349.826207 
L 492.241183 348.871629 
L 492.973047 347.432737 
L 493.817506 345.233943 
L 494.718262 342.223099 
L 495.675315 338.224592 
L 496.688666 333.027657 
L 497.758313 326.38475 
L 498.940556 317.559808 
L 500.179095 306.553427 
L 501.530229 292.451602 
L 503.050255 274.091693 
L 504.851767 249.476237 
L 508.398494 196.996346 
L 510.650384 165.701215 
L 512.283004 145.951139 
L 513.690435 131.433753 
L 514.985272 120.252562 
L 516.167514 111.845288 
L 517.293459 105.369284 
L 518.306809 100.747756 
L 519.263863 97.374074 
L 520.108321 95.158199 
L 520.840186 93.793578 
L 521.485352 93.008386 
L 522.048325 92.638964 
L 522.555 92.557011 
L 523.061675 92.712973 
L 523.56835 93.108771 
L 524.131323 93.833822 
L 524.80689 95.109052 
L 525.538754 97.005343 
L 526.326916 99.671835 
L 527.227672 103.553891 
L 528.184725 108.712438 
L 529.198075 115.406545 
L 530.32402 124.410132 
L 531.506263 135.694533 
L 532.857397 150.86545 
L 534.377422 170.579502 
L 536.347826 199.249618 
L 540.851606 265.829347 
L 542.427929 285.301024 
L 543.779063 299.325187 
L 544.961305 309.406804 
L 546.030953 316.745377 
L 546.988006 321.901591 
L 547.888762 325.574665 
L 548.676924 327.880165 
L 549.352491 329.200828 
L 549.915463 329.849565 
L 550.365841 330.077599 
L 550.816219 330.049993 
L 551.266597 329.768896 
L 551.773273 329.151596 
L 552.336245 328.093406 
L 553.011812 326.307134 
L 553.799973 323.509943 
L 554.644432 319.656483 
L 555.601485 314.211205 
L 556.671133 306.7649 
L 557.853375 296.877174 
L 559.148212 284.119403 
L 560.631582 267.242659 
L 562.489391 243.373161 
L 569.526548 149.889339 
L 571.102871 133.349838 
L 572.566599 120.256063 
L 573.917733 110.076133 
L 575.21257 101.921048 
L 576.451109 95.440994 
L 577.689649 90.09647 
L 578.928188 85.733213 
L 580.110431 82.35038 
L 581.292673 79.616613 
L 582.474915 77.434599 
L 583.60086 75.795561 
L 584.726805 74.528655 
L 585.85275 73.592975 
L 586.922398 72.986601 
L 587.935748 72.656381 
L 588.892801 72.564387 
L 589.849855 72.697278 
L 590.750611 73.046854 
L 591.651367 73.641853 
L 592.552123 74.520051 
L 593.452879 75.731226 
L 594.353635 77.338854 
L 595.254391 79.421827 
L 596.155147 82.075968 
L 597.055903 85.414968 
L 598.012956 89.860241 
L 598.970009 95.403627 
L 599.98336 102.680246 
L 600.99671 111.623525 
L 602.066358 123.087513 
L 603.2486 138.349792 
L 604.543437 158.178121 
L 606.11976 186.094148 
L 611.805782 290.788786 
L 613.100619 308.716983 
L 614.282861 322.22452 
L 615.408806 332.68639 
L 616.478454 340.688044 
L 617.548102 347.069337 
L 618.561452 351.863027 
L 619.574803 355.655908 
L 620.588153 358.636832 
L 621.601504 360.967273 
L 622.671151 362.869639 
L 623.740799 364.325113 
L 624.866744 365.486132 
L 626.048986 366.394786 
L 627.40012 367.14599 
L 628.920146 367.730407 
L 630.777955 368.193161 
L 633.14244 368.535583 
L 636.40768 368.766079 
L 641.812216 368.895778 
L 655.773934 368.936536 
L 700.305059 368.937625 
L 700.305059 368.937625 
" style="fill:none;stroke:#ff0000;stroke-dasharray:5.55,2.4;stroke-dashoffset:0;stroke-width:1.5;"/>
   </g>
   <g id="line2d_17">
    <path clip-path="url(#pea983df6cf)" d="M 138.436364 67.506846 
L 231.112771 67.616544 
L 235.447659 67.853764 
L 238.113084 68.210297 
L 240.083487 68.692113 
L 241.65981 69.30457 
L 242.954647 70.035997 
L 244.136889 70.957885 
L 245.206537 72.07399 
L 246.219888 73.455847 
L 247.176941 75.132911 
L 248.133994 77.26699 
L 249.091047 79.972749 
L 250.048101 83.387542 
L 251.005154 87.672177 
L 251.962207 93.009183 
L 252.91926 99.597019 
L 253.932611 108.160888 
L 255.002259 119.212335 
L 256.128204 133.281859 
L 257.366743 151.713271 
L 258.830472 177.120676 
L 260.969767 218.768278 
L 263.615738 269.385682 
L 265.079466 293.244107 
L 266.374303 310.834081 
L 267.556545 323.921405 
L 268.651464 333.674776 
L 269.721112 341.254044 
L 270.734462 346.907165 
L 271.747813 351.309254 
L 272.704866 354.508312 
L 273.605622 356.810168 
L 274.506378 358.535399 
L 275.350837 359.708466 
L 276.195296 360.511834 
L 276.983457 360.968817 
L 277.771619 361.172218 
L 278.55978 361.142525 
L 279.347942 360.893204 
L 280.1924 360.390347 
L 281.093156 359.586563 
L 282.05021 358.422342 
L 283.06356 356.821076 
L 284.133208 354.683069 
L 285.202856 352.033404 
L 286.328801 348.620101 
L 287.454746 344.479824 
L 288.636988 339.243232 
L 289.81923 332.979222 
L 291.05777 325.190109 
L 292.352606 315.58473 
L 293.70374 303.881012 
L 295.223766 288.659762 
L 296.968981 268.741486 
L 299.277168 239.543462 
L 303.193705 189.824077 
L 304.826325 172.12917 
L 306.121162 160.368823 
L 307.247107 152.096003 
L 308.20416 146.641942 
L 308.992322 143.307318 
L 309.667889 141.313981 
L 310.230861 140.278871 
L 310.681239 139.867918 
L 311.019023 139.805959 
L 311.356806 139.956847 
L 311.750887 140.403665 
L 312.201265 141.273386 
L 312.764237 142.901398 
L 313.439804 145.649029 
L 314.171669 149.597805 
L 315.016127 155.389201 
L 316.029478 164.020173 
L 317.155423 175.602569 
L 318.506557 191.879343 
L 320.308069 216.474245 
L 325.093335 283.238516 
L 326.669658 301.550458 
L 328.077089 315.478121 
L 329.398699 326.444767 
L 330.637238 334.974304 
L 331.875778 341.98346 
L 333.05802 347.436861 
L 334.240262 351.860457 
L 335.422504 355.42101 
L 336.604747 358.269063 
L 337.786989 360.535833 
L 338.969231 362.33278 
L 340.207771 363.81235 
L 341.502607 365.011198 
L 342.910039 366.001968 
L 344.430064 366.795448 
L 346.175279 367.447234 
L 348.20198 367.960566 
L 350.735356 368.361802 
L 354.056894 368.649951 
L 359.011052 368.835159 
L 368.214964 368.918833 
L 383.527816 368.842438 
L 389.439027 368.617383 
L 392.985754 368.272936 
L 395.575427 367.805322 
L 397.627963 367.211726 
L 399.31688 366.498046 
L 400.780609 365.647324 
L 402.131743 364.604677 
L 403.370282 363.366412 
L 404.552524 361.863493 
L 405.678469 360.067981 
L 406.804414 357.83395 
L 407.874062 355.216855 
L 408.94371 352.018901 
L 410.013358 348.129549 
L 411.139303 343.153811 
L 412.265248 337.123289 
L 413.391193 329.882386 
L 414.573435 320.817349 
L 415.811974 309.568924 
L 417.163108 295.158583 
L 418.626837 277.083069 
L 420.372051 252.650883 
L 423.243211 208.713573 
L 425.889182 169.542482 
L 427.578099 147.676001 
L 429.017808 131.696655 
L 430.368942 119.08395 
L 431.607481 109.512584 
L 432.789723 102.044131 
L 433.915668 96.323191 
L 434.929019 92.235543 
L 435.886072 89.224163 
L 436.786828 87.09346 
L 437.57499 85.761835 
L 438.250557 85.005272 
L 438.869826 84.620943 
L 439.432799 84.52953 
L 439.939474 84.66072 
L 440.502447 85.049857 
L 441.121716 85.784847 
L 441.797283 86.972477 
L 442.529148 88.744293 
L 443.317309 91.2641 
L 444.161768 94.736808 
L 445.062524 99.417597 
L 446.019577 105.618973 
L 447.032928 113.710886 
L 448.102575 124.105651 
L 449.284818 137.930238 
L 450.579654 155.870097 
L 452.09968 180.232797 
L 454.407867 221.419163 
L 457.110135 268.669132 
L 458.686458 292.309397 
L 460.037592 309.297331 
L 461.245419 321.812668 
L 462.371364 331.322239 
L 463.441011 338.610414 
L 464.510659 344.402441 
L 465.524009 348.695534 
L 466.481063 351.832765 
L 467.381819 354.081783 
L 468.226277 355.648135 
L 469.014439 356.689017 
L 469.746303 357.325282 
L 470.42187 357.651077 
L 471.097437 357.739762 
L 471.773004 357.600527 
L 472.448571 357.238488 
L 473.180435 356.596215 
L 473.968597 355.609847 
L 474.869353 354.095136 
L 475.826406 352.005825 
L 476.839757 349.209215 
L 477.853107 345.750455 
L 478.922755 341.300378 
L 480.0487 335.626512 
L 481.230942 328.453043 
L 482.469482 319.468427 
L 483.764318 308.347944 
L 485.17175 294.191396 
L 486.691775 276.562044 
L 488.549585 252.218638 
L 491.790805 206.043336 
L 494.267884 172.322485 
L 495.956801 152.257454 
L 497.364233 138.01406 
L 498.602772 127.545941 
L 499.728717 119.766405 
L 500.742068 114.186699 
L 501.642824 110.352405 
L 502.430985 107.86189 
L 503.106552 106.368619 
L 503.669525 105.578124 
L 504.1762 105.222059 
L 504.570281 105.180089 
L 504.964361 105.345978 
L 505.414739 105.793347 
L 505.921415 106.630658 
L 506.540684 108.144711 
L 507.216251 110.428753 
L 508.004413 113.955158 
L 508.848872 118.800382 
L 509.805925 125.672437 
L 510.875573 135.131485 
L 512.057815 147.767546 
L 513.352652 164.096829 
L 514.928975 186.949672 
L 517.406053 226.676837 
L 520.108321 269.016588 
L 521.766838 291.530928 
L 523.17427 307.707573 
L 524.469106 320.07872 
L 525.651349 329.347763 
L 526.777294 336.522271 
L 527.846941 341.999493 
L 528.860292 346.124363 
L 529.873642 349.338375 
L 530.830696 351.636364 
L 531.675154 353.133884 
L 532.463316 354.125174 
L 533.19518 354.721165 
L 533.870747 355.010742 
L 534.546314 355.061669 
L 535.221881 354.881726 
L 535.897448 354.475514 
L 536.629312 353.781872 
L 537.473771 352.651288 
L 538.374527 351.04559 
L 539.33158 348.867452 
L 540.344931 345.998257 
L 541.414579 342.293567 
L 542.540524 337.57959 
L 543.722766 331.65236 
L 544.961305 324.282431 
L 546.256142 315.229234 
L 547.663573 303.780486 
L 549.239896 289.026047 
L 551.097706 269.380623 
L 554.306649 232.47048 
L 556.558539 207.836819 
L 558.022267 194.114277 
L 559.204509 185.027127 
L 560.181204 179.16016 
L 560.969366 175.640458 
L 561.644933 173.551052 
L 562.207905 172.493735 
L 562.601986 172.133678 
L 562.939769 172.078178 
L 563.277553 172.258527 
L 563.671634 172.768794 
L 564.122012 173.748355 
L 564.684984 175.565712 
L 565.360551 178.60553 
L 566.148713 183.302925 
L 567.049469 190.107385 
L 568.119116 199.986358 
L 569.413953 214.11586 
L 571.215465 236.435361 
L 575.437759 289.589037 
L 577.070379 306.910661 
L 578.47781 319.621944 
L 579.828944 329.849719 
L 581.067484 337.622217 
L 582.306023 344.014523 
L 583.488266 348.990418 
L 584.670508 353.025972 
L 585.85275 356.269805 
L 587.034992 358.855807 
L 588.217234 360.900203 
L 589.399477 362.50099 
L 590.581719 363.738753 
L 591.820258 364.716369 
L 593.115095 365.450624 
L 594.466229 365.954393 
L 595.817363 366.226235 
L 597.224794 366.28417 
L 598.632226 366.116595 
L 599.98336 365.731057 
L 601.278196 365.128492 
L 602.516736 364.300912 
L 603.698978 363.235183 
L 604.824923 361.916331 
L 605.950868 360.236884 
L 607.020516 358.236648 
L 608.090164 355.760541 
L 609.159811 352.714326 
L 610.229459 348.989693 
L 611.299107 344.465365 
L 612.425052 338.694563 
L 613.550997 331.733873 
L 614.733239 322.978173 
L 615.971779 312.05697 
L 617.266615 298.614884 
L 618.730344 280.938398 
L 620.419261 257.630805 
L 622.840043 220.693531 
L 626.161581 170.429718 
L 627.906795 147.440367 
L 629.370524 130.896785 
L 630.721658 117.98675 
L 632.016495 107.67199 
L 633.255034 99.531745 
L 634.437276 93.154009 
L 635.619519 87.950011 
L 636.801761 83.739786 
L 637.984003 80.356992 
L 639.166245 77.654059 
L 640.348488 75.503912 
L 641.53073 73.799528 
L 642.769269 72.39573 
L 644.064106 71.257525 
L 645.471537 70.315929 
L 647.04786 69.537093 
L 648.849372 68.906462 
L 650.988668 68.405969 
L 653.634639 68.026559 
L 657.181365 67.755917 
L 662.585901 67.58798 
L 673.563865 67.515151 
L 700.305059 67.506878 
L 700.305059 67.506878 
" style="fill:none;stroke:#008000;stroke-dasharray:5.55,2.4;stroke-dashoffset:0;stroke-width:1.5;"/>
   </g>
   <g id="patch_3">
    <path d="M 108 384.48 
L 108 51.84 
" style="fill:none;stroke:#000000;stroke-linecap:square;stroke-linejoin:miter;stroke-width:0.8;"/>
   </g>
   <g id="patch_4">
    <path d="M 777.6 384.48 
L 777.6 51.84 
" style="fill:none;stroke:#000000;stroke-linecap:square;stroke-linejoin:miter;stroke-width:0.8;"/>
   </g>
   <g id="patch_5">
    <path d="M 108 384.48 
L 777.6 384.48 
" style="fill:none;stroke:#000000;stroke-linecap:square;stroke-linejoin:miter;stroke-width:0.8;"/>
   </g>
   <g id="patch_6">
    <path d="M 108 51.84 
L 777.6 51.84 
" style="fill:none;stroke:#000000;stroke-linecap:square;stroke-linejoin:miter;stroke-width:0.8;"/>
   </g>
   <g id="text_17">
    <!-- In  RMSE: 0.01135 -->
    <defs>
     <path d="M 9.8125 72.90625 
L 50.296875 72.90625 
L 50.296875 64.59375 
L 35.015625 64.59375 
L 35.015625 8.296875 
L 50.296875 8.296875 
L 50.296875 0 
L 9.8125 0 
L 9.8125 8.296875 
L 25.09375 8.296875 
L 25.09375 64.59375 
L 9.8125 64.59375 
z
" id="DejaVuSansMono-49"/>
     <path d="M 51.3125 33.890625 
L 51.3125 0 
L 42.28125 0 
L 42.28125 33.890625 
Q 42.28125 41.265625 39.6875 44.71875 
Q 37.109375 48.1875 31.59375 48.1875 
Q 25.296875 48.1875 21.890625 43.71875 
Q 18.5 39.265625 18.5 30.90625 
L 18.5 0 
L 9.515625 0 
L 9.515625 54.6875 
L 18.5 54.6875 
L 18.5 46.484375 
Q 20.90625 51.171875 25 53.578125 
Q 29.109375 56 34.71875 56 
Q 43.0625 56 47.1875 50.5 
Q 51.3125 45.015625 51.3125 33.890625 
z
" id="DejaVuSansMono-6e"/>
     <path id="DejaVuSansMono-20"/>
     <path d="M 37.109375 34.421875 
Q 40.921875 33.453125 43.609375 30.734375 
Q 46.296875 28.03125 50.296875 19.921875 
L 60.203125 0 
L 49.609375 0 
L 40.921875 18.40625 
Q 37.15625 26.265625 34.15625 28.53125 
Q 31.15625 30.8125 26.3125 30.8125 
L 16.890625 30.8125 
L 16.890625 0 
L 6.984375 0 
L 6.984375 72.90625 
L 27.296875 72.90625 
Q 39.3125 72.90625 45.703125 67.484375 
Q 52.09375 62.0625 52.09375 51.8125 
Q 52.09375 44.578125 48.15625 40.015625 
Q 44.234375 35.453125 37.109375 34.421875 
z
M 16.890625 64.796875 
L 16.890625 38.921875 
L 27.6875 38.921875 
Q 34.765625 38.921875 38.234375 42.09375 
Q 41.703125 45.265625 41.703125 51.8125 
Q 41.703125 58.109375 38.015625 61.453125 
Q 34.328125 64.796875 27.296875 64.796875 
z
" id="DejaVuSansMono-52"/>
     <path d="M 4.203125 72.90625 
L 17.390625 72.90625 
L 29.984375 35.796875 
L 42.671875 72.90625 
L 55.90625 72.90625 
L 55.90625 0 
L 46.78125 0 
L 46.78125 64.40625 
L 33.796875 25.984375 
L 26.3125 25.984375 
L 13.28125 64.40625 
L 13.28125 0 
L 4.203125 0 
z
" id="DejaVuSansMono-4d"/>
     <path d="M 49.421875 70.40625 
L 49.421875 60.40625 
Q 44.921875 63.28125 40.40625 64.75 
Q 35.890625 66.21875 31.296875 66.21875 
Q 24.3125 66.21875 20.265625 62.96875 
Q 16.21875 59.71875 16.21875 54.203125 
Q 16.21875 49.359375 18.875 46.8125 
Q 21.53125 44.28125 28.8125 42.578125 
L 33.984375 41.40625 
Q 44.234375 39.015625 48.921875 33.890625 
Q 53.609375 28.765625 53.609375 19.921875 
Q 53.609375 9.515625 47.15625 4.046875 
Q 40.71875 -1.421875 28.421875 -1.421875 
Q 23.296875 -1.421875 18.109375 -0.3125 
Q 12.9375 0.78125 7.71875 2.984375 
L 7.71875 13.484375 
Q 13.328125 9.90625 18.328125 8.25 
Q 23.34375 6.59375 28.421875 6.59375 
Q 35.890625 6.59375 40.03125 9.9375 
Q 44.1875 13.28125 44.1875 19.28125 
Q 44.1875 24.75 41.328125 27.625 
Q 38.484375 30.515625 31.390625 32.078125 
L 26.125 33.296875 
Q 15.96875 35.59375 11.375 40.234375 
Q 6.78125 44.875 6.78125 52.6875 
Q 6.78125 62.453125 13.34375 68.328125 
Q 19.921875 74.21875 30.8125 74.21875 
Q 35.015625 74.21875 39.640625 73.265625 
Q 44.28125 72.3125 49.421875 70.40625 
z
" id="DejaVuSansMono-53"/>
     <path d="M 9.625 72.90625 
L 52.875 72.90625 
L 52.875 64.59375 
L 19.484375 64.59375 
L 19.484375 43.015625 
L 51.421875 43.015625 
L 51.421875 34.71875 
L 19.484375 34.71875 
L 19.484375 8.296875 
L 53.8125 8.296875 
L 53.8125 0 
L 9.625 0 
z
" id="DejaVuSansMono-45"/>
     <path d="M 23.875 51.90625 
L 36.1875 51.90625 
L 36.1875 37.109375 
L 23.875 37.109375 
z
M 23.875 14.890625 
L 36.1875 14.890625 
L 36.1875 0 
L 23.875 0 
z
" id="DejaVuSansMono-3a"/>
     <path d="M 23.578125 36.625 
Q 23.578125 39.3125 25.453125 41.265625 
Q 27.34375 43.21875 29.984375 43.21875 
Q 32.71875 43.21875 34.671875 41.265625 
Q 36.625 39.3125 36.625 36.625 
Q 36.625 33.890625 34.6875 31.984375 
Q 32.765625 30.078125 29.984375 30.078125 
Q 27.25 30.078125 25.40625 31.9375 
Q 23.578125 33.796875 23.578125 36.625 
z
M 30.078125 66.40625 
Q 23.1875 66.40625 19.796875 58.984375 
Q 16.40625 51.5625 16.40625 36.375 
Q 16.40625 21.234375 19.796875 13.8125 
Q 23.1875 6.390625 30.078125 6.390625 
Q 37.015625 6.390625 40.40625 13.8125 
Q 43.796875 21.234375 43.796875 36.375 
Q 43.796875 51.5625 40.40625 58.984375 
Q 37.015625 66.40625 30.078125 66.40625 
z
M 30.078125 74.21875 
Q 41.75 74.21875 47.734375 64.640625 
Q 53.71875 55.078125 53.71875 36.375 
Q 53.71875 17.71875 47.734375 8.140625 
Q 41.75 -1.421875 30.078125 -1.421875 
Q 18.40625 -1.421875 12.453125 8.140625 
Q 6.5 17.71875 6.5 36.375 
Q 6.5 55.078125 12.453125 64.640625 
Q 18.40625 74.21875 30.078125 74.21875 
z
" id="DejaVuSansMono-30"/>
     <path d="M 23.875 14.890625 
L 36.1875 14.890625 
L 36.1875 0 
L 23.875 0 
z
" id="DejaVuSansMono-2e"/>
     <path d="M 13.1875 8.296875 
L 28.515625 8.296875 
L 28.515625 64.015625 
L 12.015625 60.296875 
L 12.015625 69.28125 
L 28.421875 72.90625 
L 38.28125 72.90625 
L 38.28125 8.296875 
L 53.421875 8.296875 
L 53.421875 0 
L 13.1875 0 
z
" id="DejaVuSansMono-31"/>
     <path d="M 37.890625 39.015625 
Q 45.0625 37.109375 48.875 32.25 
Q 52.6875 27.390625 52.6875 20.125 
Q 52.6875 10.0625 45.921875 4.3125 
Q 39.15625 -1.421875 27.203125 -1.421875 
Q 22.171875 -1.421875 16.9375 -0.484375 
Q 11.71875 0.4375 6.6875 2.203125 
L 6.6875 12.015625 
Q 11.671875 9.421875 16.5 8.15625 
Q 21.34375 6.890625 26.125 6.890625 
Q 34.234375 6.890625 38.578125 10.546875 
Q 42.921875 14.203125 42.921875 21.09375 
Q 42.921875 27.4375 38.578125 31.171875 
Q 34.234375 34.90625 26.8125 34.90625 
L 19.28125 34.90625 
L 19.28125 43.015625 
L 26.8125 43.015625 
Q 33.59375 43.015625 37.40625 45.984375 
Q 41.21875 48.96875 41.21875 54.296875 
Q 41.21875 59.90625 37.671875 62.90625 
Q 34.125 65.921875 27.59375 65.921875 
Q 23.25 65.921875 18.609375 64.9375 
Q 13.96875 63.96875 8.890625 62.015625 
L 8.890625 71.09375 
Q 14.796875 72.65625 19.40625 73.4375 
Q 24.03125 74.21875 27.59375 74.21875 
Q 38.234375 74.21875 44.609375 68.875 
Q 50.984375 63.53125 50.984375 54.6875 
Q 50.984375 48.6875 47.625 44.671875 
Q 44.28125 40.671875 37.890625 39.015625 
z
" id="DejaVuSansMono-33"/>
     <path d="M 10.109375 72.90625 
L 47.015625 72.90625 
L 47.015625 64.59375 
L 19.09375 64.59375 
L 19.09375 46.6875 
Q 21.1875 47.46875 23.3125 47.828125 
Q 25.4375 48.1875 27.59375 48.1875 
Q 38.921875 48.1875 45.5625 41.5 
Q 52.203125 34.8125 52.203125 23.390625 
Q 52.203125 11.859375 45.234375 5.21875 
Q 38.28125 -1.421875 26.21875 -1.421875 
Q 20.40625 -1.421875 15.59375 -0.640625 
Q 10.796875 0.140625 6.984375 1.703125 
L 6.984375 11.71875 
Q 11.46875 9.28125 16.015625 8.078125 
Q 20.5625 6.890625 25.296875 6.890625 
Q 33.453125 6.890625 37.859375 11.1875 
Q 42.28125 15.484375 42.28125 23.390625 
Q 42.28125 31.203125 37.71875 35.546875 
Q 33.15625 39.890625 25 39.890625 
Q 21.046875 39.890625 17.28125 38.984375 
Q 13.53125 38.09375 10.109375 36.28125 
z
" id="DejaVuSansMono-35"/>
    </defs>
    <g transform="translate(138.436364 282.318368)scale(0.1 -0.1)">
     <use xlink:href="#DejaVuSansMono-49"/>
     <use x="60.205078" xlink:href="#DejaVuSansMono-6e"/>
     <use x="120.410156" xlink:href="#DejaVuSansMono-20"/>
     <use x="180.615234" xlink:href="#DejaVuSansMono-20"/>
     <use x="240.820312" xlink:href="#DejaVuSansMono-52"/>
     <use x="301.025391" xlink:href="#DejaVuSansMono-4d"/>
     <use x="361.230469" xlink:href="#DejaVuSansMono-53"/>
     <use x="421.435547" xlink:href="#DejaVuSansMono-45"/>
     <use x="481.640625" xlink:href="#DejaVuSansMono-3a"/>
     <use x="541.845703" xlink:href="#DejaVuSansMono-20"/>
     <use x="602.050781" xlink:href="#DejaVuSansMono-30"/>
     <use x="662.255859" xlink:href="#DejaVuSansMono-2e"/>
     <use x="722.460938" xlink:href="#DejaVuSansMono-30"/>
     <use x="782.666016" xlink:href="#DejaVuSansMono-31"/>
     <use x="842.871094" xlink:href="#DejaVuSansMono-31"/>
     <use x="903.076172" xlink:href="#DejaVuSansMono-33"/>
     <use x="963.28125" xlink:href="#DejaVuSansMono-35"/>
    </g>
    <!-- Out RMSE: 0.01625 -->
    <defs>
     <path d="M 44.1875 36.375 
Q 44.1875 52.4375 40.890625 59.328125 
Q 37.59375 66.21875 30.078125 66.21875 
Q 22.609375 66.21875 19.3125 59.328125 
Q 16.015625 52.4375 16.015625 36.375 
Q 16.015625 20.359375 19.3125 13.46875 
Q 22.609375 6.59375 30.078125 6.59375 
Q 37.59375 6.59375 40.890625 13.453125 
Q 44.1875 20.3125 44.1875 36.375 
z
M 54.5 36.375 
Q 54.5 17.328125 48.46875 7.953125 
Q 42.4375 -1.421875 30.078125 -1.421875 
Q 17.71875 -1.421875 11.71875 7.90625 
Q 5.71875 17.234375 5.71875 36.375 
Q 5.71875 55.46875 11.75 64.84375 
Q 17.78125 74.21875 30.078125 74.21875 
Q 42.4375 74.21875 48.46875 64.84375 
Q 54.5 55.46875 54.5 36.375 
z
" id="DejaVuSansMono-4f"/>
     <path d="M 9.515625 20.703125 
L 9.515625 54.59375 
L 18.5 54.59375 
L 18.5 20.703125 
Q 18.5 13.328125 21.109375 9.859375 
Q 23.734375 6.390625 29.203125 6.390625 
Q 35.546875 6.390625 38.90625 10.859375 
Q 42.28125 15.328125 42.28125 23.6875 
L 42.28125 54.59375 
L 51.3125 54.59375 
L 51.3125 0 
L 42.28125 0 
L 42.28125 8.203125 
Q 39.890625 3.46875 35.765625 1.015625 
Q 31.640625 -1.421875 26.125 -1.421875 
Q 17.71875 -1.421875 13.609375 4.078125 
Q 9.515625 9.578125 9.515625 20.703125 
z
" id="DejaVuSansMono-75"/>
     <path d="M 29.984375 70.21875 
L 29.984375 54.6875 
L 50.390625 54.6875 
L 50.390625 47.703125 
L 29.984375 47.703125 
L 29.984375 18.015625 
Q 29.984375 11.96875 32.28125 9.5625 
Q 34.578125 7.171875 40.28125 7.171875 
L 50.390625 7.171875 
L 50.390625 0 
L 39.40625 0 
Q 29.296875 0 25.140625 4.046875 
Q 21 8.109375 21 18.015625 
L 21 47.703125 
L 6.390625 47.703125 
L 6.390625 54.6875 
L 21 54.6875 
L 21 70.21875 
z
" id="DejaVuSansMono-74"/>
     <path d="M 48.390625 71.296875 
L 48.390625 62.203125 
Q 45.3125 64.015625 41.84375 64.96875 
Q 38.375 65.921875 34.625 65.921875 
Q 25.25 65.921875 20.40625 58.859375 
Q 15.578125 51.8125 15.578125 38.09375 
Q 17.921875 42.96875 22.0625 45.578125 
Q 26.21875 48.1875 31.59375 48.1875 
Q 42.140625 48.1875 47.921875 41.71875 
Q 53.71875 35.25 53.71875 23.390625 
Q 53.71875 11.578125 47.75 5.078125 
Q 41.796875 -1.421875 31 -1.421875 
Q 18.3125 -1.421875 12.40625 7.6875 
Q 6.5 16.796875 6.5 36.375 
Q 6.5 54.828125 13.59375 64.515625 
Q 20.703125 74.21875 34.1875 74.21875 
Q 37.796875 74.21875 41.40625 73.453125 
Q 45.015625 72.703125 48.390625 71.296875 
z
M 30.8125 40.484375 
Q 24.515625 40.484375 20.890625 35.9375 
Q 17.28125 31.390625 17.28125 23.390625 
Q 17.28125 15.375 20.890625 10.828125 
Q 24.515625 6.296875 30.8125 6.296875 
Q 37.359375 6.296875 40.671875 10.609375 
Q 44 14.9375 44 23.390625 
Q 44 31.890625 40.671875 36.1875 
Q 37.359375 40.484375 30.8125 40.484375 
z
" id="DejaVuSansMono-36"/>
     <path d="M 18.21875 8.296875 
L 51.703125 8.296875 
L 51.703125 0 
L 7.421875 0 
L 7.421875 8.296875 
Q 16.546875 17.921875 23.375 25.296875 
Q 30.21875 32.671875 32.8125 35.6875 
Q 37.703125 41.65625 39.40625 45.34375 
Q 41.109375 49.03125 41.109375 52.875 
Q 41.109375 58.984375 37.515625 62.453125 
Q 33.9375 65.921875 27.6875 65.921875 
Q 23.25 65.921875 18.359375 64.3125 
Q 13.484375 62.703125 8.015625 59.421875 
L 8.015625 69.390625 
Q 13.03125 71.78125 17.890625 73 
Q 22.75 74.21875 27.484375 74.21875 
Q 38.1875 74.21875 44.703125 68.53125 
Q 51.21875 62.84375 51.21875 53.609375 
Q 51.21875 48.921875 49.046875 44.234375 
Q 46.875 39.546875 42 33.890625 
Q 39.265625 30.71875 34.0625 25.09375 
Q 28.859375 19.484375 18.21875 8.296875 
z
" id="DejaVuSansMono-32"/>
    </defs>
    <g transform="translate(138.436364 293.57993)scale(0.1 -0.1)">
     <use xlink:href="#DejaVuSansMono-4f"/>
     <use x="60.205078" xlink:href="#DejaVuSansMono-75"/>
     <use x="120.410156" xlink:href="#DejaVuSansMono-74"/>
     <use x="180.615234" xlink:href="#DejaVuSansMono-20"/>
     <use x="240.820312" xlink:href="#DejaVuSansMono-52"/>
     <use x="301.025391" xlink:href="#DejaVuSansMono-4d"/>
     <use x="361.230469" xlink:href="#DejaVuSansMono-53"/>
     <use x="421.435547" xlink:href="#DejaVuSansMono-45"/>
     <use x="481.640625" xlink:href="#DejaVuSansMono-3a"/>
     <use x="541.845703" xlink:href="#DejaVuSansMono-20"/>
     <use x="602.050781" xlink:href="#DejaVuSansMono-30"/>
     <use x="662.255859" xlink:href="#DejaVuSansMono-2e"/>
     <use x="722.460938" xlink:href="#DejaVuSansMono-30"/>
     <use x="782.666016" xlink:href="#DejaVuSansMono-31"/>
     <use x="842.871094" xlink:href="#DejaVuSansMono-36"/>
     <use x="903.076172" xlink:href="#DejaVuSansMono-32"/>
     <use x="963.28125" xlink:href="#DejaVuSansMono-35"/>
    </g>
   </g>
   <g id="text_18">
    <!-- inv_t4_invSim_Traces -->
    <defs>
     <path d="M 54.890625 33.015625 
L 54.890625 0 
L 45.90625 0 
L 45.90625 32.71875 
Q 45.90625 40.484375 42.875 44.328125 
Q 39.84375 48.1875 33.796875 48.1875 
Q 26.515625 48.1875 22.3125 43.546875 
Q 18.109375 38.921875 18.109375 30.90625 
L 18.109375 0 
L 9.078125 0 
L 9.078125 54.6875 
L 18.109375 54.6875 
L 18.109375 46.1875 
Q 21.34375 51.125 25.703125 53.5625 
Q 30.078125 56 35.796875 56 
Q 45.21875 56 50.046875 50.171875 
Q 54.890625 44.34375 54.890625 33.015625 
z
" id="DejaVuSans-6e"/>
     <path d="M 2.984375 54.6875 
L 12.5 54.6875 
L 29.59375 8.796875 
L 46.6875 54.6875 
L 56.203125 54.6875 
L 35.6875 0 
L 23.484375 0 
z
" id="DejaVuSans-76"/>
     <path d="M 50.984375 -16.609375 
L 50.984375 -23.578125 
L -0.984375 -23.578125 
L -0.984375 -16.609375 
z
" id="DejaVuSans-5f"/>
     <path d="M 53.515625 70.515625 
L 53.515625 60.890625 
Q 47.90625 63.578125 42.921875 64.890625 
Q 37.9375 66.21875 33.296875 66.21875 
Q 25.25 66.21875 20.875 63.09375 
Q 16.5 59.96875 16.5 54.203125 
Q 16.5 49.359375 19.40625 46.890625 
Q 22.3125 44.4375 30.421875 42.921875 
L 36.375 41.703125 
Q 47.40625 39.59375 52.65625 34.296875 
Q 57.90625 29 57.90625 20.125 
Q 57.90625 9.515625 50.796875 4.046875 
Q 43.703125 -1.421875 29.984375 -1.421875 
Q 24.8125 -1.421875 18.96875 -0.25 
Q 13.140625 0.921875 6.890625 3.21875 
L 6.890625 13.375 
Q 12.890625 10.015625 18.65625 8.296875 
Q 24.421875 6.59375 29.984375 6.59375 
Q 38.421875 6.59375 43.015625 9.90625 
Q 47.609375 13.234375 47.609375 19.390625 
Q 47.609375 24.75 44.3125 27.78125 
Q 41.015625 30.8125 33.5 32.328125 
L 27.484375 33.5 
Q 16.453125 35.6875 11.515625 40.375 
Q 6.59375 45.0625 6.59375 53.421875 
Q 6.59375 63.09375 13.40625 68.65625 
Q 20.21875 74.21875 32.171875 74.21875 
Q 37.3125 74.21875 42.625 73.28125 
Q 47.953125 72.359375 53.515625 70.515625 
z
" id="DejaVuSans-53"/>
     <path d="M 41.109375 46.296875 
Q 39.59375 47.171875 37.8125 47.578125 
Q 36.03125 48 33.890625 48 
Q 26.265625 48 22.1875 43.046875 
Q 18.109375 38.09375 18.109375 28.8125 
L 18.109375 0 
L 9.078125 0 
L 9.078125 54.6875 
L 18.109375 54.6875 
L 18.109375 46.1875 
Q 20.953125 51.171875 25.484375 53.578125 
Q 30.03125 56 36.53125 56 
Q 37.453125 56 38.578125 55.875 
Q 39.703125 55.765625 41.0625 55.515625 
z
" id="DejaVuSans-72"/>
     <path d="M 48.78125 52.59375 
L 48.78125 44.1875 
Q 44.96875 46.296875 41.140625 47.34375 
Q 37.3125 48.390625 33.40625 48.390625 
Q 24.65625 48.390625 19.8125 42.84375 
Q 14.984375 37.3125 14.984375 27.296875 
Q 14.984375 17.28125 19.8125 11.734375 
Q 24.65625 6.203125 33.40625 6.203125 
Q 37.3125 6.203125 41.140625 7.25 
Q 44.96875 8.296875 48.78125 10.40625 
L 48.78125 2.09375 
Q 45.015625 0.34375 40.984375 -0.53125 
Q 36.96875 -1.421875 32.421875 -1.421875 
Q 20.0625 -1.421875 12.78125 6.34375 
Q 5.515625 14.109375 5.515625 27.296875 
Q 5.515625 40.671875 12.859375 48.328125 
Q 20.21875 56 33.015625 56 
Q 37.15625 56 41.109375 55.140625 
Q 45.0625 54.296875 48.78125 52.59375 
z
" id="DejaVuSans-63"/>
    </defs>
    <g transform="translate(378.357188 45.84)scale(0.12 -0.12)">
     <use xlink:href="#DejaVuSans-69"/>
     <use x="27.783203" xlink:href="#DejaVuSans-6e"/>
     <use x="91.162109" xlink:href="#DejaVuSans-76"/>
     <use x="150.341797" xlink:href="#DejaVuSans-5f"/>
     <use x="200.341797" xlink:href="#DejaVuSans-74"/>
     <use x="239.550781" xlink:href="#DejaVuSans-34"/>
     <use x="303.173828" xlink:href="#DejaVuSans-5f"/>
     <use x="353.173828" xlink:href="#DejaVuSans-69"/>
     <use x="380.957031" xlink:href="#DejaVuSans-6e"/>
     <use x="444.335938" xlink:href="#DejaVuSans-76"/>
     <use x="503.515625" xlink:href="#DejaVuSans-53"/>
     <use x="566.992188" xlink:href="#DejaVuSans-69"/>
     <use x="594.775391" xlink:href="#DejaVuSans-6d"/>
     <use x="692.1875" xlink:href="#DejaVuSans-5f"/>
     <use x="742.1875" xlink:href="#DejaVuSans-54"/>
     <use x="803.052734" xlink:href="#DejaVuSans-72"/>
     <use x="844.166016" xlink:href="#DejaVuSans-61"/>
     <use x="905.445312" xlink:href="#DejaVuSans-63"/>
     <use x="960.425781" xlink:href="#DejaVuSans-65"/>
     <use x="1021.949219" xlink:href="#DejaVuSans-73"/>
    </g>
   </g>
   <g id="legend_1">
    <g id="patch_7">
     <path d="M 115 249.01625 
L 214.946875 249.01625 
Q 216.946875 249.01625 216.946875 247.01625 
L 216.946875 189.30375 
Q 216.946875 187.30375 214.946875 187.30375 
L 115 187.30375 
Q 113 187.30375 113 189.30375 
L 113 247.01625 
Q 113 249.01625 115 249.01625 
z
" style="fill:#ffffff;opacity:0.8;stroke:#cccccc;stroke-linejoin:miter;"/>
    </g>
    <g id="line2d_18">
     <path d="M 117 195.402188 
L 137 195.402188 
" style="fill:none;stroke:#ff0000;stroke-linecap:square;stroke-width:1.5;"/>
    </g>
    <g id="line2d_19"/>
    <g id="text_19">
     <!-- Input -->
     <defs>
      <path d="M 9.8125 72.90625 
L 19.671875 72.90625 
L 19.671875 0 
L 9.8125 0 
z
" id="DejaVuSans-49"/>
      <path d="M 18.109375 8.203125 
L 18.109375 -20.796875 
L 9.078125 -20.796875 
L 9.078125 54.6875 
L 18.109375 54.6875 
L 18.109375 46.390625 
Q 20.953125 51.265625 25.265625 53.625 
Q 29.59375 56 35.59375 56 
Q 45.5625 56 51.78125 48.09375 
Q 58.015625 40.1875 58.015625 27.296875 
Q 58.015625 14.40625 51.78125 6.484375 
Q 45.5625 -1.421875 35.59375 -1.421875 
Q 29.59375 -1.421875 25.265625 0.953125 
Q 20.953125 3.328125 18.109375 8.203125 
z
M 48.6875 27.296875 
Q 48.6875 37.203125 44.609375 42.84375 
Q 40.53125 48.484375 33.40625 48.484375 
Q 26.265625 48.484375 22.1875 42.84375 
Q 18.109375 37.203125 18.109375 27.296875 
Q 18.109375 17.390625 22.1875 11.75 
Q 26.265625 6.109375 33.40625 6.109375 
Q 40.53125 6.109375 44.609375 11.75 
Q 48.6875 17.390625 48.6875 27.296875 
z
" id="DejaVuSans-70"/>
      <path d="M 8.5 21.578125 
L 8.5 54.6875 
L 17.484375 54.6875 
L 17.484375 21.921875 
Q 17.484375 14.15625 20.5 10.265625 
Q 23.53125 6.390625 29.59375 6.390625 
Q 36.859375 6.390625 41.078125 11.03125 
Q 45.3125 15.671875 45.3125 23.6875 
L 45.3125 54.6875 
L 54.296875 54.6875 
L 54.296875 0 
L 45.3125 0 
L 45.3125 8.40625 
Q 42.046875 3.421875 37.71875 1 
Q 33.40625 -1.421875 27.6875 -1.421875 
Q 18.265625 -1.421875 13.375 4.4375 
Q 8.5 10.296875 8.5 21.578125 
z
M 31.109375 56 
z
" id="DejaVuSans-75"/>
     </defs>
     <g transform="translate(145 198.902188)scale(0.1 -0.1)">
      <use xlink:href="#DejaVuSans-49"/>
      <use x="29.492188" xlink:href="#DejaVuSans-6e"/>
      <use x="92.871094" xlink:href="#DejaVuSans-70"/>
      <use x="156.347656" xlink:href="#DejaVuSans-75"/>
      <use x="219.726562" xlink:href="#DejaVuSans-74"/>
     </g>
    </g>
    <g id="line2d_20">
     <path d="M 117 210.080313 
L 137 210.080313 
" style="fill:none;stroke:#008000;stroke-linecap:square;stroke-width:1.5;"/>
    </g>
    <g id="line2d_21"/>
    <g id="text_20">
     <!-- Output -->
     <defs>
      <path d="M 39.40625 66.21875 
Q 28.65625 66.21875 22.328125 58.203125 
Q 16.015625 50.203125 16.015625 36.375 
Q 16.015625 22.609375 22.328125 14.59375 
Q 28.65625 6.59375 39.40625 6.59375 
Q 50.140625 6.59375 56.421875 14.59375 
Q 62.703125 22.609375 62.703125 36.375 
Q 62.703125 50.203125 56.421875 58.203125 
Q 50.140625 66.21875 39.40625 66.21875 
z
M 39.40625 74.21875 
Q 54.734375 74.21875 63.90625 63.9375 
Q 73.09375 53.65625 73.09375 36.375 
Q 73.09375 19.140625 63.90625 8.859375 
Q 54.734375 -1.421875 39.40625 -1.421875 
Q 24.03125 -1.421875 14.8125 8.828125 
Q 5.609375 19.09375 5.609375 36.375 
Q 5.609375 53.65625 14.8125 63.9375 
Q 24.03125 74.21875 39.40625 74.21875 
z
" id="DejaVuSans-4f"/>
     </defs>
     <g transform="translate(145 213.580313)scale(0.1 -0.1)">
      <use xlink:href="#DejaVuSans-4f"/>
      <use x="78.710938" xlink:href="#DejaVuSans-75"/>
      <use x="142.089844" xlink:href="#DejaVuSans-74"/>
      <use x="181.298828" xlink:href="#DejaVuSans-70"/>
      <use x="244.775391" xlink:href="#DejaVuSans-75"/>
      <use x="308.154297" xlink:href="#DejaVuSans-74"/>
     </g>
    </g>
    <g id="line2d_22">
     <path d="M 117 224.758438 
L 137 224.758438 
" style="fill:none;stroke:#ff0000;stroke-dasharray:5.55,2.4;stroke-dashoffset:0;stroke-width:1.5;"/>
    </g>
    <g id="line2d_23"/>
    <g id="text_21">
     <!-- Input-fitting -->
     <defs>
      <path d="M 4.890625 31.390625 
L 31.203125 31.390625 
L 31.203125 23.390625 
L 4.890625 23.390625 
z
" id="DejaVuSans-2d"/>
      <path d="M 37.109375 75.984375 
L 37.109375 68.5 
L 28.515625 68.5 
Q 23.6875 68.5 21.796875 66.546875 
Q 19.921875 64.59375 19.921875 59.515625 
L 19.921875 54.6875 
L 34.71875 54.6875 
L 34.71875 47.703125 
L 19.921875 47.703125 
L 19.921875 0 
L 10.890625 0 
L 10.890625 47.703125 
L 2.296875 47.703125 
L 2.296875 54.6875 
L 10.890625 54.6875 
L 10.890625 58.5 
Q 10.890625 67.625 15.140625 71.796875 
Q 19.390625 75.984375 28.609375 75.984375 
z
" id="DejaVuSans-66"/>
     </defs>
     <g transform="translate(145 228.258438)scale(0.1 -0.1)">
      <use xlink:href="#DejaVuSans-49"/>
      <use x="29.492188" xlink:href="#DejaVuSans-6e"/>
      <use x="92.871094" xlink:href="#DejaVuSans-70"/>
      <use x="156.347656" xlink:href="#DejaVuSans-75"/>
      <use x="219.726562" xlink:href="#DejaVuSans-74"/>
      <use x="258.935547" xlink:href="#DejaVuSans-2d"/>
      <use x="295.019531" xlink:href="#DejaVuSans-66"/>
      <use x="330.224609" xlink:href="#DejaVuSans-69"/>
      <use x="358.007812" xlink:href="#DejaVuSans-74"/>
      <use x="397.216797" xlink:href="#DejaVuSans-74"/>
      <use x="436.425781" xlink:href="#DejaVuSans-69"/>
      <use x="464.208984" xlink:href="#DejaVuSans-6e"/>
      <use x="527.587891" xlink:href="#DejaVuSans-67"/>
     </g>
    </g>
    <g id="line2d_24">
     <path d="M 117 239.436563 
L 137 239.436563 
" style="fill:none;stroke:#008000;stroke-dasharray:5.55,2.4;stroke-dashoffset:0;stroke-width:1.5;"/>
    </g>
    <g id="line2d_25"/>
    <g id="text_22">
     <!-- Output-fitting -->
     <g transform="translate(145 242.936563)scale(0.1 -0.1)">
      <use xlink:href="#DejaVuSans-4f"/>
      <use x="78.710938" xlink:href="#DejaVuSans-75"/>
      <use x="142.089844" xlink:href="#DejaVuSans-74"/>
      <use x="181.298828" xlink:href="#DejaVuSans-70"/>
      <use x="244.775391" xlink:href="#DejaVuSans-75"/>
      <use x="308.154297" xlink:href="#DejaVuSans-74"/>
      <use x="347.363281" xlink:href="#DejaVuSans-2d"/>
      <use x="383.447266" xlink:href="#DejaVuSans-66"/>
      <use x="418.652344" xlink:href="#DejaVuSans-69"/>
      <use x="446.435547" xlink:href="#DejaVuSans-74"/>
      <use x="485.644531" xlink:href="#DejaVuSans-74"/>
      <use x="524.853516" xlink:href="#DejaVuSans-69"/>
      <use x="552.636719" xlink:href="#DejaVuSans-6e"/>
      <use x="616.015625" xlink:href="#DejaVuSans-67"/>
     </g>
    </g>
   </g>
  </g>
 </g>
 <defs>
  <clipPath id="pea983df6cf">
   <rect height="332.64" width="669.6" x="108" y="51.84"/>
  </clipPath>
 </defs>
</svg>
