<?xml version="1.0" encoding="utf-8" standalone="no"?>
<!DOCTYPE svg PUBLIC "-//W3C//DTD SVG 1.1//EN"
  "http://www.w3.org/Graphics/SVG/1.1/DTD/svg11.dtd">
<!-- Created with matplotlib (https://matplotlib.org/) -->
<svg height="288pt" version="1.1" viewBox="0 0 1152 288" width="1152pt" xmlns="http://www.w3.org/2000/svg" xmlns:xlink="http://www.w3.org/1999/xlink">
 <metadata>
  <rdf:RDF xmlns:cc="http://creativecommons.org/ns#" xmlns:dc="http://purl.org/dc/elements/1.1/" xmlns:rdf="http://www.w3.org/1999/02/22-rdf-syntax-ns#">
   <cc:Work>
    <dc:type rdf:resource="http://purl.org/dc/dcmitype/StillImage"/>
    <dc:date>2020-10-10T21:36:04.942559</dc:date>
    <dc:format>image/svg+xml</dc:format>
    <dc:creator>
     <cc:Agent>
      <dc:title>Matplotlib v3.3.0, https://matplotlib.org/</dc:title>
     </cc:Agent>
    </dc:creator>
   </cc:Work>
  </rdf:RDF>
 </metadata>
 <defs>
  <style type="text/css">*{stroke-linecap:butt;stroke-linejoin:round;}</style>
 </defs>
 <g id="figure_1">
  <g id="patch_1">
   <path d="M 0 288 
L 1152 288 
L 1152 0 
L 0 0 
z
" style="fill:#ffffff;"/>
  </g>
  <g id="axes_1">
   <g id="patch_2">
    <path d="M 144 256.32 
L 1036.8 256.32 
L 1036.8 34.56 
L 144 34.56 
z
" style="fill:#ffffff;"/>
   </g>
   <g id="matplotlib.axis_1">
    <g id="xtick_1">
     <g id="line2d_1">
      <defs>
       <path d="M 0 0 
L 0 3.5 
" id="m05504bcde3" style="stroke:#000000;stroke-width:0.8;"/>
      </defs>
      <g>
       <use style="stroke:#000000;stroke-width:0.8;" x="184.581818" xlink:href="#m05504bcde3" y="256.32"/>
      </g>
     </g>
     <g id="text_1">
      <!-- 0 -->
      <g transform="translate(181.400568 270.918437)scale(0.1 -0.1)">
       <defs>
        <path d="M 31.78125 66.40625 
Q 24.171875 66.40625 20.328125 58.90625 
Q 16.5 51.421875 16.5 36.375 
Q 16.5 21.390625 20.328125 13.890625 
Q 24.171875 6.390625 31.78125 6.390625 
Q 39.453125 6.390625 43.28125 13.890625 
Q 47.125 21.390625 47.125 36.375 
Q 47.125 51.421875 43.28125 58.90625 
Q 39.453125 66.40625 31.78125 66.40625 
z
M 31.78125 74.21875 
Q 44.046875 74.21875 50.515625 64.515625 
Q 56.984375 54.828125 56.984375 36.375 
Q 56.984375 17.96875 50.515625 8.265625 
Q 44.046875 -1.421875 31.78125 -1.421875 
Q 19.53125 -1.421875 13.0625 8.265625 
Q 6.59375 17.96875 6.59375 36.375 
Q 6.59375 54.828125 13.0625 64.515625 
Q 19.53125 74.21875 31.78125 74.21875 
z
" id="DejaVuSans-48"/>
       </defs>
       <use xlink:href="#DejaVuSans-48"/>
      </g>
     </g>
    </g>
    <g id="xtick_2">
     <g id="line2d_2">
      <g>
       <use style="stroke:#000000;stroke-width:0.8;" x="363.201845" xlink:href="#m05504bcde3" y="256.32"/>
      </g>
     </g>
     <g id="text_2">
      <!-- 2 -->
      <g transform="translate(360.020595 270.918437)scale(0.1 -0.1)">
       <defs>
        <path d="M 19.1875 8.296875 
L 53.609375 8.296875 
L 53.609375 0 
L 7.328125 0 
L 7.328125 8.296875 
Q 12.9375 14.109375 22.625 23.890625 
Q 32.328125 33.6875 34.8125 36.53125 
Q 39.546875 41.84375 41.421875 45.53125 
Q 43.3125 49.21875 43.3125 52.78125 
Q 43.3125 58.59375 39.234375 62.25 
Q 35.15625 65.921875 28.609375 65.921875 
Q 23.96875 65.921875 18.8125 64.3125 
Q 13.671875 62.703125 7.8125 59.421875 
L 7.8125 69.390625 
Q 13.765625 71.78125 18.9375 73 
Q 24.125 74.21875 28.421875 74.21875 
Q 39.75 74.21875 46.484375 68.546875 
Q 53.21875 62.890625 53.21875 53.421875 
Q 53.21875 48.921875 51.53125 44.890625 
Q 49.859375 40.875 45.40625 35.40625 
Q 44.1875 33.984375 37.640625 27.21875 
Q 31.109375 20.453125 19.1875 8.296875 
z
" id="DejaVuSans-50"/>
       </defs>
       <use xlink:href="#DejaVuSans-50"/>
      </g>
     </g>
    </g>
    <g id="xtick_3">
     <g id="line2d_3">
      <g>
       <use style="stroke:#000000;stroke-width:0.8;" x="541.821872" xlink:href="#m05504bcde3" y="256.32"/>
      </g>
     </g>
     <g id="text_3">
      <!-- 4 -->
      <g transform="translate(538.640622 270.918437)scale(0.1 -0.1)">
       <defs>
        <path d="M 37.796875 64.3125 
L 12.890625 25.390625 
L 37.796875 25.390625 
z
M 35.203125 72.90625 
L 47.609375 72.90625 
L 47.609375 25.390625 
L 58.015625 25.390625 
L 58.015625 17.1875 
L 47.609375 17.1875 
L 47.609375 0 
L 37.796875 0 
L 37.796875 17.1875 
L 4.890625 17.1875 
L 4.890625 26.703125 
z
" id="DejaVuSans-52"/>
       </defs>
       <use xlink:href="#DejaVuSans-52"/>
      </g>
     </g>
    </g>
    <g id="xtick_4">
     <g id="line2d_4">
      <g>
       <use style="stroke:#000000;stroke-width:0.8;" x="720.441899" xlink:href="#m05504bcde3" y="256.32"/>
      </g>
     </g>
     <g id="text_4">
      <!-- 6 -->
      <g transform="translate(717.260649 270.918437)scale(0.1 -0.1)">
       <defs>
        <path d="M 33.015625 40.375 
Q 26.375 40.375 22.484375 35.828125 
Q 18.609375 31.296875 18.609375 23.390625 
Q 18.609375 15.53125 22.484375 10.953125 
Q 26.375 6.390625 33.015625 6.390625 
Q 39.65625 6.390625 43.53125 10.953125 
Q 47.40625 15.53125 47.40625 23.390625 
Q 47.40625 31.296875 43.53125 35.828125 
Q 39.65625 40.375 33.015625 40.375 
z
M 52.59375 71.296875 
L 52.59375 62.3125 
Q 48.875 64.0625 45.09375 64.984375 
Q 41.3125 65.921875 37.59375 65.921875 
Q 27.828125 65.921875 22.671875 59.328125 
Q 17.53125 52.734375 16.796875 39.40625 
Q 19.671875 43.65625 24.015625 45.921875 
Q 28.375 48.1875 33.59375 48.1875 
Q 44.578125 48.1875 50.953125 41.515625 
Q 57.328125 34.859375 57.328125 23.390625 
Q 57.328125 12.15625 50.6875 5.359375 
Q 44.046875 -1.421875 33.015625 -1.421875 
Q 20.359375 -1.421875 13.671875 8.265625 
Q 6.984375 17.96875 6.984375 36.375 
Q 6.984375 53.65625 15.1875 63.9375 
Q 23.390625 74.21875 37.203125 74.21875 
Q 40.921875 74.21875 44.703125 73.484375 
Q 48.484375 72.75 52.59375 71.296875 
z
" id="DejaVuSans-54"/>
       </defs>
       <use xlink:href="#DejaVuSans-54"/>
      </g>
     </g>
    </g>
    <g id="xtick_5">
     <g id="line2d_5">
      <g>
       <use style="stroke:#000000;stroke-width:0.8;" x="899.061926" xlink:href="#m05504bcde3" y="256.32"/>
      </g>
     </g>
     <g id="text_5">
      <!-- 8 -->
      <g transform="translate(895.880676 270.918437)scale(0.1 -0.1)">
       <defs>
        <path d="M 31.78125 34.625 
Q 24.75 34.625 20.71875 30.859375 
Q 16.703125 27.09375 16.703125 20.515625 
Q 16.703125 13.921875 20.71875 10.15625 
Q 24.75 6.390625 31.78125 6.390625 
Q 38.8125 6.390625 42.859375 10.171875 
Q 46.921875 13.96875 46.921875 20.515625 
Q 46.921875 27.09375 42.890625 30.859375 
Q 38.875 34.625 31.78125 34.625 
z
M 21.921875 38.8125 
Q 15.578125 40.375 12.03125 44.71875 
Q 8.5 49.078125 8.5 55.328125 
Q 8.5 64.0625 14.71875 69.140625 
Q 20.953125 74.21875 31.78125 74.21875 
Q 42.671875 74.21875 48.875 69.140625 
Q 55.078125 64.0625 55.078125 55.328125 
Q 55.078125 49.078125 51.53125 44.71875 
Q 48 40.375 41.703125 38.8125 
Q 48.828125 37.15625 52.796875 32.3125 
Q 56.78125 27.484375 56.78125 20.515625 
Q 56.78125 9.90625 50.3125 4.234375 
Q 43.84375 -1.421875 31.78125 -1.421875 
Q 19.734375 -1.421875 13.25 4.234375 
Q 6.78125 9.90625 6.78125 20.515625 
Q 6.78125 27.484375 10.78125 32.3125 
Q 14.796875 37.15625 21.921875 38.8125 
z
M 18.3125 54.390625 
Q 18.3125 48.734375 21.84375 45.5625 
Q 25.390625 42.390625 31.78125 42.390625 
Q 38.140625 42.390625 41.71875 45.5625 
Q 45.3125 48.734375 45.3125 54.390625 
Q 45.3125 60.0625 41.71875 63.234375 
Q 38.140625 66.40625 31.78125 66.40625 
Q 25.390625 66.40625 21.84375 63.234375 
Q 18.3125 60.0625 18.3125 54.390625 
z
" id="DejaVuSans-56"/>
       </defs>
       <use xlink:href="#DejaVuSans-56"/>
      </g>
     </g>
    </g>
    <g id="text_6">
     <!-- Time [s] -->
     <g transform="translate(570.071094 284.596563)scale(0.1 -0.1)">
      <defs>
       <path d="M -0.296875 72.90625 
L 61.375 72.90625 
L 61.375 64.59375 
L 35.5 64.59375 
L 35.5 0 
L 25.59375 0 
L 25.59375 64.59375 
L -0.296875 64.59375 
z
" id="DejaVuSans-84"/>
       <path d="M 9.421875 54.6875 
L 18.40625 54.6875 
L 18.40625 0 
L 9.421875 0 
z
M 9.421875 75.984375 
L 18.40625 75.984375 
L 18.40625 64.59375 
L 9.421875 64.59375 
z
" id="DejaVuSans-105"/>
       <path d="M 52 44.1875 
Q 55.375 50.25 60.0625 53.125 
Q 64.75 56 71.09375 56 
Q 79.640625 56 84.28125 50.015625 
Q 88.921875 44.046875 88.921875 33.015625 
L 88.921875 0 
L 79.890625 0 
L 79.890625 32.71875 
Q 79.890625 40.578125 77.09375 44.375 
Q 74.3125 48.1875 68.609375 48.1875 
Q 61.625 48.1875 57.5625 43.546875 
Q 53.515625 38.921875 53.515625 30.90625 
L 53.515625 0 
L 44.484375 0 
L 44.484375 32.71875 
Q 44.484375 40.625 41.703125 44.40625 
Q 38.921875 48.1875 33.109375 48.1875 
Q 26.21875 48.1875 22.15625 43.53125 
Q 18.109375 38.875 18.109375 30.90625 
L 18.109375 0 
L 9.078125 0 
L 9.078125 54.6875 
L 18.109375 54.6875 
L 18.109375 46.1875 
Q 21.1875 51.21875 25.484375 53.609375 
Q 29.78125 56 35.6875 56 
Q 41.65625 56 45.828125 52.96875 
Q 50 49.953125 52 44.1875 
z
" id="DejaVuSans-109"/>
       <path d="M 56.203125 29.59375 
L 56.203125 25.203125 
L 14.890625 25.203125 
Q 15.484375 15.921875 20.484375 11.0625 
Q 25.484375 6.203125 34.421875 6.203125 
Q 39.59375 6.203125 44.453125 7.46875 
Q 49.3125 8.734375 54.109375 11.28125 
L 54.109375 2.78125 
Q 49.265625 0.734375 44.1875 -0.34375 
Q 39.109375 -1.421875 33.890625 -1.421875 
Q 20.796875 -1.421875 13.15625 6.1875 
Q 5.515625 13.8125 5.515625 26.8125 
Q 5.515625 40.234375 12.765625 48.109375 
Q 20.015625 56 32.328125 56 
Q 43.359375 56 49.78125 48.890625 
Q 56.203125 41.796875 56.203125 29.59375 
z
M 47.21875 32.234375 
Q 47.125 39.59375 43.09375 43.984375 
Q 39.0625 48.390625 32.421875 48.390625 
Q 24.90625 48.390625 20.390625 44.140625 
Q 15.875 39.890625 15.1875 32.171875 
z
" id="DejaVuSans-101"/>
       <path id="DejaVuSans-32"/>
       <path d="M 8.59375 75.984375 
L 29.296875 75.984375 
L 29.296875 69 
L 17.578125 69 
L 17.578125 -6.203125 
L 29.296875 -6.203125 
L 29.296875 -13.1875 
L 8.59375 -13.1875 
z
" id="DejaVuSans-91"/>
       <path d="M 44.28125 53.078125 
L 44.28125 44.578125 
Q 40.484375 46.53125 36.375 47.5 
Q 32.28125 48.484375 27.875 48.484375 
Q 21.1875 48.484375 17.84375 46.4375 
Q 14.5 44.390625 14.5 40.28125 
Q 14.5 37.15625 16.890625 35.375 
Q 19.28125 33.59375 26.515625 31.984375 
L 29.59375 31.296875 
Q 39.15625 29.25 43.1875 25.515625 
Q 47.21875 21.78125 47.21875 15.09375 
Q 47.21875 7.46875 41.1875 3.015625 
Q 35.15625 -1.421875 24.609375 -1.421875 
Q 20.21875 -1.421875 15.453125 -0.5625 
Q 10.6875 0.296875 5.421875 2 
L 5.421875 11.28125 
Q 10.40625 8.6875 15.234375 7.390625 
Q 20.0625 6.109375 24.8125 6.109375 
Q 31.15625 6.109375 34.5625 8.28125 
Q 37.984375 10.453125 37.984375 14.40625 
Q 37.984375 18.0625 35.515625 20.015625 
Q 33.0625 21.96875 24.703125 23.78125 
L 21.578125 24.515625 
Q 13.234375 26.265625 9.515625 29.90625 
Q 5.8125 33.546875 5.8125 39.890625 
Q 5.8125 47.609375 11.28125 51.796875 
Q 16.75 56 26.8125 56 
Q 31.78125 56 36.171875 55.265625 
Q 40.578125 54.546875 44.28125 53.078125 
z
" id="DejaVuSans-115"/>
       <path d="M 30.421875 75.984375 
L 30.421875 -13.1875 
L 9.71875 -13.1875 
L 9.71875 -6.203125 
L 21.390625 -6.203125 
L 21.390625 69 
L 9.71875 69 
L 9.71875 75.984375 
z
" id="DejaVuSans-93"/>
      </defs>
      <use xlink:href="#DejaVuSans-84"/>
      <use x="57.958984" xlink:href="#DejaVuSans-105"/>
      <use x="85.742188" xlink:href="#DejaVuSans-109"/>
      <use x="183.154297" xlink:href="#DejaVuSans-101"/>
      <use x="244.677734" xlink:href="#DejaVuSans-32"/>
      <use x="276.464844" xlink:href="#DejaVuSans-91"/>
      <use x="315.478516" xlink:href="#DejaVuSans-115"/>
      <use x="367.578125" xlink:href="#DejaVuSans-93"/>
     </g>
    </g>
    <g id="text_7">
     <!-- 1e−9 -->
     <g transform="translate(1009.542187 283.596563)scale(0.1 -0.1)">
      <defs>
       <path d="M 12.40625 8.296875 
L 28.515625 8.296875 
L 28.515625 63.921875 
L 10.984375 60.40625 
L 10.984375 69.390625 
L 28.421875 72.90625 
L 38.28125 72.90625 
L 38.28125 8.296875 
L 54.390625 8.296875 
L 54.390625 0 
L 12.40625 0 
z
" id="DejaVuSans-49"/>
       <path d="M 10.59375 35.5 
L 73.1875 35.5 
L 73.1875 27.203125 
L 10.59375 27.203125 
z
" id="DejaVuSans-8722"/>
       <path d="M 10.984375 1.515625 
L 10.984375 10.5 
Q 14.703125 8.734375 18.5 7.8125 
Q 22.3125 6.890625 25.984375 6.890625 
Q 35.75 6.890625 40.890625 13.453125 
Q 46.046875 20.015625 46.78125 33.40625 
Q 43.953125 29.203125 39.59375 26.953125 
Q 35.25 24.703125 29.984375 24.703125 
Q 19.046875 24.703125 12.671875 31.3125 
Q 6.296875 37.9375 6.296875 49.421875 
Q 6.296875 60.640625 12.9375 67.421875 
Q 19.578125 74.21875 30.609375 74.21875 
Q 43.265625 74.21875 49.921875 64.515625 
Q 56.59375 54.828125 56.59375 36.375 
Q 56.59375 19.140625 48.40625 8.859375 
Q 40.234375 -1.421875 26.421875 -1.421875 
Q 22.703125 -1.421875 18.890625 -0.6875 
Q 15.09375 0.046875 10.984375 1.515625 
z
M 30.609375 32.421875 
Q 37.25 32.421875 41.125 36.953125 
Q 45.015625 41.5 45.015625 49.421875 
Q 45.015625 57.28125 41.125 61.84375 
Q 37.25 66.40625 30.609375 66.40625 
Q 23.96875 66.40625 20.09375 61.84375 
Q 16.21875 57.28125 16.21875 49.421875 
Q 16.21875 41.5 20.09375 36.953125 
Q 23.96875 32.421875 30.609375 32.421875 
z
" id="DejaVuSans-57"/>
      </defs>
      <use xlink:href="#DejaVuSans-49"/>
      <use x="63.623047" xlink:href="#DejaVuSans-101"/>
      <use x="125.146484" xlink:href="#DejaVuSans-8722"/>
      <use x="208.935547" xlink:href="#DejaVuSans-57"/>
     </g>
    </g>
   </g>
   <g id="matplotlib.axis_2">
    <g id="ytick_1">
     <g id="line2d_6">
      <defs>
       <path d="M 0 0 
L -3.5 0 
" id="mc99cf2cafc" style="stroke:#000000;stroke-width:0.8;"/>
      </defs>
      <g>
       <use style="stroke:#000000;stroke-width:0.8;" x="144" xlink:href="#mc99cf2cafc" y="235.449543"/>
      </g>
     </g>
     <g id="text_8">
      <!-- 0.0 -->
      <g transform="translate(121.096875 239.248762)scale(0.1 -0.1)">
       <defs>
        <path d="M 10.6875 12.40625 
L 21 12.40625 
L 21 0 
L 10.6875 0 
z
" id="DejaVuSans-46"/>
       </defs>
       <use xlink:href="#DejaVuSans-48"/>
       <use x="63.623047" xlink:href="#DejaVuSans-46"/>
       <use x="95.410156" xlink:href="#DejaVuSans-48"/>
      </g>
     </g>
    </g>
    <g id="ytick_2">
     <g id="line2d_7">
      <g>
       <use style="stroke:#000000;stroke-width:0.8;" x="144" xlink:href="#mc99cf2cafc" y="203.705356"/>
      </g>
     </g>
     <g id="text_9">
      <!-- 0.2 -->
      <g transform="translate(121.096875 207.504575)scale(0.1 -0.1)">
       <use xlink:href="#DejaVuSans-48"/>
       <use x="63.623047" xlink:href="#DejaVuSans-46"/>
       <use x="95.410156" xlink:href="#DejaVuSans-50"/>
      </g>
     </g>
    </g>
    <g id="ytick_3">
     <g id="line2d_8">
      <g>
       <use style="stroke:#000000;stroke-width:0.8;" x="144" xlink:href="#mc99cf2cafc" y="171.96117"/>
      </g>
     </g>
     <g id="text_10">
      <!-- 0.4 -->
      <g transform="translate(121.096875 175.760389)scale(0.1 -0.1)">
       <use xlink:href="#DejaVuSans-48"/>
       <use x="63.623047" xlink:href="#DejaVuSans-46"/>
       <use x="95.410156" xlink:href="#DejaVuSans-52"/>
      </g>
     </g>
    </g>
    <g id="ytick_4">
     <g id="line2d_9">
      <g>
       <use style="stroke:#000000;stroke-width:0.8;" x="144" xlink:href="#mc99cf2cafc" y="140.216984"/>
      </g>
     </g>
     <g id="text_11">
      <!-- 0.6 -->
      <g transform="translate(121.096875 144.016202)scale(0.1 -0.1)">
       <use xlink:href="#DejaVuSans-48"/>
       <use x="63.623047" xlink:href="#DejaVuSans-46"/>
       <use x="95.410156" xlink:href="#DejaVuSans-54"/>
      </g>
     </g>
    </g>
    <g id="ytick_5">
     <g id="line2d_10">
      <g>
       <use style="stroke:#000000;stroke-width:0.8;" x="144" xlink:href="#mc99cf2cafc" y="108.472797"/>
      </g>
     </g>
     <g id="text_12">
      <!-- 0.8 -->
      <g transform="translate(121.096875 112.272016)scale(0.1 -0.1)">
       <use xlink:href="#DejaVuSans-48"/>
       <use x="63.623047" xlink:href="#DejaVuSans-46"/>
       <use x="95.410156" xlink:href="#DejaVuSans-56"/>
      </g>
     </g>
    </g>
    <g id="ytick_6">
     <g id="line2d_11">
      <g>
       <use style="stroke:#000000;stroke-width:0.8;" x="144" xlink:href="#mc99cf2cafc" y="76.728611"/>
      </g>
     </g>
     <g id="text_13">
      <!-- 1.0 -->
      <g transform="translate(121.096875 80.52783)scale(0.1 -0.1)">
       <use xlink:href="#DejaVuSans-49"/>
       <use x="63.623047" xlink:href="#DejaVuSans-46"/>
       <use x="95.410156" xlink:href="#DejaVuSans-48"/>
      </g>
     </g>
    </g>
    <g id="ytick_7">
     <g id="line2d_12">
      <g>
       <use style="stroke:#000000;stroke-width:0.8;" x="144" xlink:href="#mc99cf2cafc" y="44.984424"/>
      </g>
     </g>
     <g id="text_14">
      <!-- 1.2 -->
      <g transform="translate(121.096875 48.783643)scale(0.1 -0.1)">
       <use xlink:href="#DejaVuSans-49"/>
       <use x="63.623047" xlink:href="#DejaVuSans-46"/>
       <use x="95.410156" xlink:href="#DejaVuSans-50"/>
      </g>
     </g>
    </g>
    <g id="text_15">
     <!-- Voltage [V] -->
     <g transform="translate(115.017187 173.107188)rotate(-90)scale(0.1 -0.1)">
      <defs>
       <path d="M 28.609375 0 
L 0.78125 72.90625 
L 11.078125 72.90625 
L 34.1875 11.53125 
L 57.328125 72.90625 
L 67.578125 72.90625 
L 39.796875 0 
z
" id="DejaVuSans-86"/>
       <path d="M 30.609375 48.390625 
Q 23.390625 48.390625 19.1875 42.75 
Q 14.984375 37.109375 14.984375 27.296875 
Q 14.984375 17.484375 19.15625 11.84375 
Q 23.34375 6.203125 30.609375 6.203125 
Q 37.796875 6.203125 41.984375 11.859375 
Q 46.1875 17.53125 46.1875 27.296875 
Q 46.1875 37.015625 41.984375 42.703125 
Q 37.796875 48.390625 30.609375 48.390625 
z
M 30.609375 56 
Q 42.328125 56 49.015625 48.375 
Q 55.71875 40.765625 55.71875 27.296875 
Q 55.71875 13.875 49.015625 6.21875 
Q 42.328125 -1.421875 30.609375 -1.421875 
Q 18.84375 -1.421875 12.171875 6.21875 
Q 5.515625 13.875 5.515625 27.296875 
Q 5.515625 40.765625 12.171875 48.375 
Q 18.84375 56 30.609375 56 
z
" id="DejaVuSans-111"/>
       <path d="M 9.421875 75.984375 
L 18.40625 75.984375 
L 18.40625 0 
L 9.421875 0 
z
" id="DejaVuSans-108"/>
       <path d="M 18.3125 70.21875 
L 18.3125 54.6875 
L 36.8125 54.6875 
L 36.8125 47.703125 
L 18.3125 47.703125 
L 18.3125 18.015625 
Q 18.3125 11.328125 20.140625 9.421875 
Q 21.96875 7.515625 27.59375 7.515625 
L 36.8125 7.515625 
L 36.8125 0 
L 27.59375 0 
Q 17.1875 0 13.234375 3.875 
Q 9.28125 7.765625 9.28125 18.015625 
L 9.28125 47.703125 
L 2.6875 47.703125 
L 2.6875 54.6875 
L 9.28125 54.6875 
L 9.28125 70.21875 
z
" id="DejaVuSans-116"/>
       <path d="M 34.28125 27.484375 
Q 23.390625 27.484375 19.1875 25 
Q 14.984375 22.515625 14.984375 16.5 
Q 14.984375 11.71875 18.140625 8.90625 
Q 21.296875 6.109375 26.703125 6.109375 
Q 34.1875 6.109375 38.703125 11.40625 
Q 43.21875 16.703125 43.21875 25.484375 
L 43.21875 27.484375 
z
M 52.203125 31.203125 
L 52.203125 0 
L 43.21875 0 
L 43.21875 8.296875 
Q 40.140625 3.328125 35.546875 0.953125 
Q 30.953125 -1.421875 24.3125 -1.421875 
Q 15.921875 -1.421875 10.953125 3.296875 
Q 6 8.015625 6 15.921875 
Q 6 25.140625 12.171875 29.828125 
Q 18.359375 34.515625 30.609375 34.515625 
L 43.21875 34.515625 
L 43.21875 35.40625 
Q 43.21875 41.609375 39.140625 45 
Q 35.0625 48.390625 27.6875 48.390625 
Q 23 48.390625 18.546875 47.265625 
Q 14.109375 46.140625 10.015625 43.890625 
L 10.015625 52.203125 
Q 14.9375 54.109375 19.578125 55.046875 
Q 24.21875 56 28.609375 56 
Q 40.484375 56 46.34375 49.84375 
Q 52.203125 43.703125 52.203125 31.203125 
z
" id="DejaVuSans-97"/>
       <path d="M 45.40625 27.984375 
Q 45.40625 37.75 41.375 43.109375 
Q 37.359375 48.484375 30.078125 48.484375 
Q 22.859375 48.484375 18.828125 43.109375 
Q 14.796875 37.75 14.796875 27.984375 
Q 14.796875 18.265625 18.828125 12.890625 
Q 22.859375 7.515625 30.078125 7.515625 
Q 37.359375 7.515625 41.375 12.890625 
Q 45.40625 18.265625 45.40625 27.984375 
z
M 54.390625 6.78125 
Q 54.390625 -7.171875 48.1875 -13.984375 
Q 42 -20.796875 29.203125 -20.796875 
Q 24.46875 -20.796875 20.265625 -20.09375 
Q 16.0625 -19.390625 12.109375 -17.921875 
L 12.109375 -9.1875 
Q 16.0625 -11.328125 19.921875 -12.34375 
Q 23.78125 -13.375 27.78125 -13.375 
Q 36.625 -13.375 41.015625 -8.765625 
Q 45.40625 -4.15625 45.40625 5.171875 
L 45.40625 9.625 
Q 42.625 4.78125 38.28125 2.390625 
Q 33.9375 0 27.875 0 
Q 17.828125 0 11.671875 7.65625 
Q 5.515625 15.328125 5.515625 27.984375 
Q 5.515625 40.671875 11.671875 48.328125 
Q 17.828125 56 27.875 56 
Q 33.9375 56 38.28125 53.609375 
Q 42.625 51.21875 45.40625 46.390625 
L 45.40625 54.6875 
L 54.390625 54.6875 
z
" id="DejaVuSans-103"/>
      </defs>
      <use xlink:href="#DejaVuSans-86"/>
      <use x="60.658203" xlink:href="#DejaVuSans-111"/>
      <use x="121.839844" xlink:href="#DejaVuSans-108"/>
      <use x="149.623047" xlink:href="#DejaVuSans-116"/>
      <use x="188.832031" xlink:href="#DejaVuSans-97"/>
      <use x="250.111328" xlink:href="#DejaVuSans-103"/>
      <use x="313.587891" xlink:href="#DejaVuSans-101"/>
      <use x="375.111328" xlink:href="#DejaVuSans-32"/>
      <use x="406.898438" xlink:href="#DejaVuSans-91"/>
      <use x="445.912109" xlink:href="#DejaVuSans-86"/>
      <use x="514.320312" xlink:href="#DejaVuSans-93"/>
     </g>
    </g>
   </g>
   <g id="line2d_13">
    <path clip-path="url(#p60173dab27)" d="M 184.581818 235.449529 
L 309.453114 235.560532 
L 318.437702 235.637956 
L 319.813076 235.381032 
L 320.885778 234.959478 
L 321.832465 234.346316 
L 322.716634 233.504021 
L 323.600803 232.343817 
L 324.511765 230.766756 
L 325.476313 228.634082 
L 326.512309 225.783113 
L 327.646546 221.984927 
L 328.914749 216.925874 
L 330.370502 210.157124 
L 332.112047 200.938581 
L 334.353728 187.790345 
L 338.121897 164.142164 
L 343.800942 128.89561 
L 346.766034 111.926374 
L 349.123818 99.670468 
L 351.169018 90.181003 
L 353.026666 82.583937 
L 354.777142 76.337205 
L 356.420447 71.257818 
L 358.05482 66.91553 
L 359.635607 63.331929 
L 361.162808 60.384799 
L 362.832906 57.670989 
L 364.351176 55.603331 
L 366.012342 53.712965 
L 367.718163 52.113216 
L 369.432916 50.795833 
L 371.326288 49.618441 
L 373.460797 48.568661 
L 375.898961 47.649349 
L 378.667571 46.87987 
L 381.838076 46.261176 
L 385.474244 45.791838 
L 389.62716 45.460587 
L 397.29889 45.162827 
L 412.070766 45.011407 
L 420.680252 44.900461 
L 430.397181 44.66603 
L 431.942244 44.858717 
L 433.022896 45.201555 
L 433.969582 45.723905 
L 434.880544 46.489734 
L 435.773644 47.551418 
L 436.675675 48.990382 
L 437.640223 50.984552 
L 438.658357 53.634715 
L 439.783664 57.232125 
L 441.016142 61.970104 
L 442.364723 68.073876 
L 443.882993 76.015478 
L 445.615607 86.31053 
L 447.651876 99.809809 
L 450.206589 118.328383 
L 454.377366 150.463531 
L 458.226628 179.508763 
L 460.271827 193.308548 
L 461.897269 202.834725 
L 463.32623 209.945311 
L 464.648018 215.435325 
L 465.896661 219.707872 
L 467.102346 223.070608 
L 468.281239 225.72467 
L 469.460131 227.84535 
L 470.647954 229.533718 
L 471.86257 230.88161 
L 473.139703 231.970391 
L 474.515077 232.850838 
L 476.042279 233.562048 
L 477.810617 234.134152 
L 479.945126 234.58291 
L 482.704806 234.924198 
L 486.625515 235.167964 
L 493.154077 235.323655 
L 509.166291 235.425207 
L 533.869441 235.598567 
L 540.898139 235.653698 
L 542.318168 235.415137 
L 543.416681 235.009735 
L 544.372298 234.417991 
L 545.265398 233.596595 
L 546.149568 232.468918 
L 547.06053 230.928352 
L 548.016147 228.856447 
L 549.043212 226.076226 
L 550.168518 222.355975 
L 551.418858 217.414893 
L 552.847819 210.813388 
L 554.544709 201.86367 
L 556.714942 189.138124 
L 560.17124 167.347565 
L 566.074632 130.225295 
L 569.048655 112.96833 
L 571.408047 100.533529 
L 573.453246 90.909231 
L 575.310895 83.201139 
L 577.05244 76.890284 
L 578.722537 71.6497 
L 580.374772 67.201069 
L 581.937698 63.609532 
L 583.447037 60.650974 
L 585.08141 57.944782 
L 586.680059 55.731101 
L 588.323364 53.836291 
L 590.002392 52.236543 
L 591.68142 50.921222 
L 593.521206 49.748433 
L 595.593199 48.697224 
L 597.933121 47.778389 
L 600.60349 46.993831 
L 603.711479 46.334822 
L 607.596464 45.757237 
L 612.544239 45.253615 
L 616.715017 44.993948 
L 618.724492 45.068388 
L 619.939108 45.330595 
L 620.93045 45.763268 
L 621.859274 46.418627 
L 622.71665 47.294608 
L 623.591888 48.508505 
L 624.529643 50.215073 
L 625.512053 52.490813 
L 626.574842 55.536668 
L 627.771597 59.690871 
L 629.075523 65.056115 
L 630.575931 72.228238 
L 632.317476 81.71986 
L 634.389469 94.314906 
L 637.158079 112.622667 
L 645.546165 168.983518 
L 647.671743 181.277232 
L 649.511529 190.662273 
L 651.181627 198.069795 
L 652.753483 204.065351 
L 654.263179 208.974352 
L 655.736795 213.02991 
L 657.174686 216.35451 
L 658.585784 219.072177 
L 659.970089 221.269548 
L 661.336532 223.031125 
L 662.667252 224.394043 
L 663.953316 225.40273 
L 665.176863 226.087255 
L 666.3111 226.474728 
L 667.364958 226.60483 
L 668.347368 226.504587 
L 669.285124 226.184493 
L 670.205017 225.630249 
L 671.12491 224.808549 
L 672.062665 223.663404 
L 673.036144 222.110566 
L 674.054278 220.050905 
L 675.125998 217.363118 
L 676.278098 213.848402 
L 677.528438 209.292809 
L 678.930605 203.306126 
L 680.547116 195.38411 
L 682.53873 184.441968 
L 685.316271 167.823014 
L 693.613171 117.496749 
L 696.158507 103.730327 
L 698.284085 93.40753 
L 700.20425 85.153486 
L 701.98152 78.465716 
L 703.67841 72.926292 
L 705.321714 68.311322 
L 706.911432 64.494243 
L 708.527944 61.199831 
L 710.117662 58.468561 
L 711.653794 56.245675 
L 713.22565 54.335151 
L 714.806437 52.730958 
L 716.539052 51.279931 
L 718.280597 50.08889 
L 720.173969 49.041173 
L 722.263824 48.125194 
L 724.532298 47.356985 
L 726.988323 46.730513 
L 729.597337 46.241653 
L 733.151875 45.78533 
L 737.269067 45.457889 
L 741.734568 45.251552 
L 749.620642 45.082197 
L 762.124044 44.971092 
L 771.894559 44.686347 
L 775.172237 44.680315 
L 776.654783 44.895541 
L 777.771158 45.28774 
L 778.735706 45.87342 
L 779.602013 46.658137 
L 780.512975 47.807435 
L 781.432869 49.359249 
L 782.388486 51.432145 
L 783.433413 54.26817 
L 784.558719 57.999382 
L 785.791197 62.880051 
L 787.193364 69.398878 
L 788.774152 77.886385 
L 790.560352 88.754039 
L 792.676999 103.067635 
L 795.400955 123.115756 
L 804.314094 189.970155 
L 806.028846 200.454244 
L 807.502462 208.147003 
L 808.851043 214.048374 
L 810.119245 218.634854 
L 811.333861 222.22518 
L 812.521684 225.06635 
L 813.700576 227.324788 
L 814.879469 229.115365 
L 816.085154 230.550501 
L 817.344425 231.706878 
L 818.684075 232.636779 
L 820.15769 233.38851 
L 821.84565 233.995417 
L 823.864056 234.476532 
L 826.418322 234.845447 
L 829.946068 235.114214 
L 835.510082 235.29142 
L 847.718761 235.405056 
L 880.897431 235.448624 
L 996.218182 235.44953 
L 996.218182 235.44953 
" style="fill:none;stroke:#ff0000;stroke-linecap:square;stroke-width:1.5;"/>
   </g>
   <g id="line2d_14">
    <path clip-path="url(#p60173dab27)" d="M 184.581818 44.984424 
L 327.753718 44.873478 
L 336.800823 44.662538 
L 338.227997 44.824275 
L 339.389027 45.164414 
L 340.371437 45.683908 
L 341.300261 46.442594 
L 342.220154 47.514595 
L 343.131117 48.947051 
L 344.077803 50.873923 
L 345.104868 53.505358 
L 346.203381 56.960712 
L 347.409066 61.511876 
L 348.766578 67.553906 
L 350.275918 75.338692 
L 351.99067 85.403392 
L 354.000145 98.587229 
L 356.491895 116.499839 
L 360.332225 145.95119 
L 364.690554 178.971255 
L 366.753615 192.939379 
L 368.387988 202.563677 
L 369.82588 209.758036 
L 371.147668 215.281572 
L 372.398008 219.589424 
L 373.603693 222.977179 
L 374.782585 225.652481 
L 375.961478 227.791023 
L 377.149301 229.494011 
L 378.363917 230.853632 
L 379.64105 231.951708 
L 381.007493 232.83439 
L 382.525764 233.548845 
L 384.27749 234.122603 
L 386.394137 234.57426 
L 389.127024 234.918244 
L 392.994147 235.164113 
L 399.397675 235.321752 
L 414.937618 235.424133 
L 444.240233 235.615122 
L 450.554898 235.657636 
L 451.992789 235.421681 
L 453.091302 235.021662 
L 454.046919 234.436454 
L 454.940019 233.622805 
L 455.824189 232.504205 
L 456.72622 230.991113 
L 457.681837 228.935529 
L 458.708902 226.173536 
L 459.825277 222.505351 
L 461.066686 217.629166 
L 462.486716 211.104863 
L 464.174675 202.242124 
L 466.325349 189.672902 
L 469.683406 168.541972 
L 475.810073 130.007895 
L 478.775165 112.819925 
L 481.124018 100.453089 
L 483.169218 90.83833 
L 485.026866 83.139143 
L 486.777342 76.806448 
L 488.44744 71.577482 
L 490.072882 67.20599 
L 491.635807 63.613659 
L 493.225525 60.510189 
L 494.77952 57.948115 
L 496.378169 55.734276 
L 498.020401 53.840576 
L 499.69943 52.240669 
L 501.378458 50.92519 
L 503.218244 49.75256 
L 505.022306 48.823249 
L 507.255057 47.913461 
L 509.773599 47.135728 
L 512.569003 46.505447 
L 516.605815 45.90072 
L 520.205009 45.564867 
L 526.072677 45.258853 
L 534.155233 45.082514 
L 546.560394 44.971409 
L 556.33984 44.686505 
L 559.617518 44.680791 
L 561.100064 44.896334 
L 562.207508 45.284724 
L 563.172056 45.8685 
L 564.038363 46.651153 
L 564.913601 47.745692 
L 565.842426 49.295126 
L 566.798043 51.35088 
L 567.834039 54.140718 
L 568.959345 57.845264 
L 570.200754 62.735773 
L 571.559874 69.016202 
L 573.096006 77.194123 
L 574.864345 87.862265 
L 576.954199 101.896497 
L 579.615637 121.382079 
L 585.108203 163.773709 
L 587.912538 184.286977 
L 589.788048 196.455921 
L 591.342042 205.150955 
L 592.735278 211.733191 
L 594.030273 216.819086 
L 595.262752 220.794671 
L 596.459506 223.932174 
L 597.638398 226.41896 
L 598.81729 228.399349 
L 600.005113 229.971553 
L 601.237592 231.239749 
L 602.541518 232.26332 
L 603.952616 233.087731 
L 605.542334 233.754887 
L 607.399982 234.286664 
L 609.686319 234.700792 
L 612.713928 235.010379 
L 617.206222 235.226378 
L 632.862267 235.591036 
L 638.069041 235.61834 
L 639.66769 235.397789 
L 640.882307 235.012367 
L 641.936165 234.444375 
L 642.911519 233.661558 
L 643.867136 232.600762 
L 644.840616 231.176483 
L 645.867681 229.263199 
L 646.966194 226.726855 
L 648.162948 223.378976 
L 649.484736 218.989182 
L 650.967283 213.259134 
L 652.673104 205.738429 
L 654.709729 195.705282 
L 657.326513 181.624084 
L 661.729496 156.497005 
L 666.971994 126.938803 
L 669.829915 112.06816 
L 672.062665 101.574389 
L 673.973899 93.613407 
L 675.697583 87.347184 
L 677.296232 82.343729 
L 678.79664 78.351612 
L 680.2256 75.161083 
L 681.600974 72.624405 
L 682.922763 70.653726 
L 684.155241 69.215556 
L 685.235892 68.277991 
L 686.236164 67.702945 
L 687.075678 67.463594 
L 687.852675 67.465022 
L 688.620742 67.700247 
L 689.388808 68.190218 
L 690.130081 68.922874 
L 690.960664 70.065824 
L 691.835902 71.654461 
L 692.80045 73.87592 
L 693.854308 76.874666 
L 695.024269 80.898972 
L 696.328196 86.221567 
L 697.775018 93.101119 
L 699.427253 102.089486 
L 701.356349 113.882149 
L 703.723065 129.809938 
L 707.286534 155.506777 
L 711.359071 184.507647 
L 713.323891 196.913196 
L 714.913609 205.588929 
L 716.315777 212.063109 
L 717.619703 217.078103 
L 718.861112 221.004111 
L 720.066797 224.104686 
L 721.25462 226.562532 
L 722.433513 228.506169 
L 723.630267 230.06138 
L 724.871676 231.314613 
L 726.184533 232.324863 
L 727.613493 233.141807 
L 729.222235 233.800701 
L 731.106676 234.325661 
L 733.437667 234.734724 
L 736.536725 235.039183 
L 741.127259 235.246717 
L 749.7814 235.376113 
L 772.17142 235.442681 
L 786.541401 235.563636 
L 795.311645 235.639037 
L 796.687019 235.385398 
L 797.76767 234.96405 
L 798.714356 234.353963 
L 799.598525 233.515393 
L 800.482694 232.359289 
L 801.393657 230.785806 
L 802.358205 228.654574 
L 803.394201 225.800301 
L 804.528438 221.9903 
L 805.787709 216.944682 
L 807.234531 210.181774 
L 808.958215 201.002577 
L 811.182034 187.868372 
L 814.861607 164.585789 
L 820.273793 130.590765 
L 823.256748 113.254456 
L 825.614532 100.799005 
L 827.659732 91.144709 
L 829.526311 83.372971 
L 831.267856 77.039672 
L 832.946884 71.752551 
L 834.572327 67.355664 
L 836.126321 63.760476 
L 837.707108 60.650339 
L 839.24324 58.093662 
L 840.824028 55.878712 
L 842.44947 53.978187 
L 844.101705 52.377487 
L 845.75394 51.056929 
L 847.558003 49.879537 
L 849.558547 48.834042 
L 851.81809 47.912191 
L 853.899014 47.253816 
L 856.497935 46.629726 
L 860.19537 46.01992 
L 864.732318 45.567248 
L 870.644641 45.258218 
L 878.75399 45.081085 
L 888.979987 45.010455 
L 996.218182 44.984424 
L 996.218182 44.984424 
" style="fill:none;stroke:#008000;stroke-linecap:square;stroke-width:1.5;"/>
   </g>
   <g id="line2d_15">
    <path clip-path="url(#p60173dab27)" d="M 184.581818 44.984424 
L 309.649596 45.095279 
L 317.419567 45.334808 
L 322.207567 45.695693 
L 325.690657 46.173548 
L 328.459268 46.771459 
L 330.781328 47.496236 
L 332.746148 48.330808 
L 334.532348 49.322407 
L 336.139929 50.456487 
L 337.658199 51.788654 
L 339.156821 53.406846 
L 340.585781 55.286956 
L 342.014741 57.55777 
L 343.354392 60.101269 
L 344.694042 63.106882 
L 346.123002 66.891724 
L 347.551962 71.346114 
L 348.980922 76.536672 
L 350.499193 82.916162 
L 352.106773 90.67668 
L 353.803663 99.974409 
L 355.768483 112.02593 
L 358.269164 128.865614 
L 364.610175 172.278693 
L 366.664305 184.421082 
L 368.450505 193.690928 
L 370.058086 200.942572 
L 371.665666 207.174359 
L 373.183936 212.177536 
L 374.612896 216.171157 
L 376.041857 219.54463 
L 377.470817 222.372866 
L 378.899777 224.729048 
L 380.328737 226.681648 
L 381.847007 228.383384 
L 383.365278 229.765125 
L 385.036625 230.9834 
L 386.822826 232.003524 
L 388.787646 232.862277 
L 391.020396 233.583818 
L 393.610387 234.173985 
L 396.736237 234.643679 
L 400.665878 234.995833 
L 406.024478 235.237089 
L 414.15169 235.359072 
L 424.868891 235.298219 
L 431.924382 235.060319 
L 436.568503 234.695371 
L 440.051594 234.20688 
L 442.820204 233.601824 
L 445.142264 232.874803 
L 447.196395 232.000454 
L 449.036628 230.973486 
L 450.733518 229.765543 
L 452.341098 228.333189 
L 453.859368 226.666072 
L 455.297259 224.749436 
L 456.72622 222.460128 
L 458.15518 219.723845 
L 459.58414 216.472767 
L 461.0131 212.637304 
L 462.442061 208.150037 
L 463.960331 202.601507 
L 465.478601 196.196548 
L 467.13807 188.189421 
L 468.924271 178.427325 
L 470.978401 165.901993 
L 473.747011 147.46977 
L 479.105612 111.496451 
L 481.249052 98.772316 
L 483.124563 88.941375 
L 484.821453 81.19276 
L 486.429033 74.858518 
L 487.947304 69.733443 
L 489.465574 65.375961 
L 490.983844 61.708264 
L 492.412804 58.812014 
L 493.841764 56.384431 
L 495.360035 54.245922 
L 496.878305 52.491758 
L 498.440158 51.021745 
L 500.137049 49.740532 
L 501.923249 48.678623 
L 503.888069 47.778154 
L 506.03151 47.041497 
L 508.53219 46.421979 
L 511.47942 45.925762 
L 515.230441 45.533348 
L 520.142492 45.256339 
L 527.465913 45.08648 
L 538.451044 45.065907 
L 546.131706 45.242242 
L 550.597206 45.552906 
L 553.723057 45.981532 
L 556.134427 46.523461 
L 558.188557 47.210429 
L 559.885448 48.000798 
L 561.403718 48.938487 
L 562.832678 50.078789 
L 564.172328 51.434674 
L 565.422669 53.010022 
L 566.673009 54.949352 
L 567.923349 57.325661 
L 569.173689 60.220847 
L 570.424029 63.723802 
L 571.649184 67.834523 
L 572.899524 72.809975 
L 574.239174 79.1032 
L 575.668135 86.985517 
L 577.186405 96.702458 
L 578.883295 109.089946 
L 581.026735 126.539377 
L 586.921196 175.6393 
L 588.707397 188.087677 
L 590.234598 197.256917 
L 591.663558 204.567833 
L 593.003208 210.353552 
L 594.342858 215.190459 
L 595.682509 219.183808 
L 596.932849 222.249465 
L 598.183189 224.768922 
L 599.433529 226.826346 
L 600.773179 228.60378 
L 602.11283 230.018528 
L 603.54179 231.204853 
L 605.06006 232.175124 
L 606.75695 232.984789 
L 608.632461 233.624456 
L 610.775901 234.115055 
L 613.276581 234.457122 
L 616.313122 234.640833 
L 619.849798 234.624361 
L 623.511509 234.385871 
L 626.905289 233.945647 
L 629.85252 233.343052 
L 632.44251 232.586017 
L 634.675261 231.707297 
L 636.729391 230.660644 
L 638.604901 229.455043 
L 640.391101 228.034335 
L 642.087992 226.387592 
L 643.670654 224.542256 
L 645.278235 222.310095 
L 646.796505 219.820143 
L 648.314775 216.907695 
L 649.833045 213.520896 
L 651.440626 209.36161 
L 653.048206 204.559265 
L 654.709729 198.87409 
L 656.49593 191.913429 
L 658.37144 183.662253 
L 660.42557 173.591616 
L 662.926251 160.130231 
L 667.034511 136.515512 
L 670.606912 116.521998 
L 672.928972 104.783042 
L 674.893792 95.990987 
L 676.590683 89.375832 
L 678.108953 84.282836 
L 679.537913 80.22758 
L 680.877563 77.087465 
L 682.038594 74.889141 
L 683.110314 73.294427 
L 684.092724 72.202232 
L 684.985824 71.519489 
L 685.789614 71.160929 
L 686.593404 71.048597 
L 687.307884 71.159048 
L 688.111674 71.524629 
L 688.915465 72.151433 
L 689.808565 73.162221 
L 690.701665 74.51321 
L 691.684075 76.404073 
L 692.755795 78.965082 
L 693.916825 82.342687 
L 695.167165 86.696257 
L 696.506816 92.189899 
L 698.025086 99.431621 
L 699.721976 108.716645 
L 701.686796 120.800196 
L 704.455407 139.41632 
L 709.099528 170.699508 
L 711.242968 183.496402 
L 713.029168 192.891854 
L 714.726058 200.649282 
L 716.333639 206.949818 
L 717.851909 212.012153 
L 719.280869 216.053807 
L 720.709829 219.467094 
L 722.13879 222.327101 
L 723.56775 224.70774 
L 724.99671 226.678487 
L 726.523911 228.402864 
L 728.042181 229.791778 
L 729.71344 231.014159 
L 731.49964 232.035684 
L 733.46446 232.893591 
L 735.697211 233.612433 
L 738.287201 234.19845 
L 741.413052 234.662942 
L 745.342692 235.00936 
L 750.701293 235.244875 
L 758.917814 235.362141 
L 769.635016 235.294748 
L 776.601197 235.053167 
L 781.245318 234.680829 
L 784.639098 234.198779 
L 787.407708 233.589638 
L 789.729769 232.85774 
L 791.783899 231.977562 
L 793.570099 230.978051 
L 795.26699 229.771149 
L 796.87457 228.33998 
L 798.39284 226.674182 
L 799.8218 224.772023 
L 801.250761 222.486941 
L 802.679721 219.755502 
L 804.108681 216.5099 
L 805.537641 212.680525 
L 806.966601 208.19989 
L 808.484872 202.658854 
L 810.003142 196.261608 
L 811.610722 188.528706 
L 813.396922 178.807939 
L 815.451053 166.321585 
L 818.130353 148.529023 
L 823.756884 110.786478 
L 825.900324 98.138724 
L 827.775835 88.385897 
L 829.472725 80.710604 
L 831.080305 74.444017 
L 832.598575 69.378778 
L 834.116846 65.07577 
L 835.635116 61.4565 
L 837.064076 58.600166 
L 838.493036 56.207186 
L 840.011306 54.100033 
L 841.529577 52.372205 
L 843.137157 50.886742 
L 844.834047 49.633321 
L 846.620247 48.594756 
L 848.585068 47.714301 
L 850.817818 46.968624 
L 853.318498 46.370696 
L 856.355039 45.880189 
L 860.19537 45.499398 
L 865.294971 45.231029 
L 873.154252 45.063602 
L 889.140745 44.992265 
L 994.615871 44.984424 
L 996.134141 44.984424 
L 996.134141 44.984424 
" style="fill:none;stroke:#008000;stroke-dasharray:5.55,2.4;stroke-dashoffset:0;stroke-width:1.5;"/>
   </g>
   <g id="line2d_16">
    <path clip-path="url(#p60173dab27)" d="M 184.581818 235.449543 
L 309.649596 235.559604 
L 317.419567 235.798815 
L 321.939637 236.145589 
L 325.154797 236.600745 
L 327.923407 237.21682 
L 330.245468 237.957549 
L 332.299598 238.840448 
L 334.175108 239.885216 
L 336.050619 241.194818 
L 338.442341 243.173934 
L 340.764401 245.028375 
L 342.014741 245.762861 
L 343.086462 246.139563 
L 344.068872 246.238786 
L 344.961972 246.113677 
L 345.944382 245.746855 
L 347.016102 245.099894 
L 348.266442 244.077208 
L 349.963333 242.370578 
L 355.500553 236.554173 
L 357.554684 234.872139 
L 363.985005 229.905897 
L 367.468095 226.872428 
L 368.718435 226.094933 
L 369.879466 225.635321 
L 370.951186 225.451774 
L 372.022906 225.489433 
L 373.183936 225.749671 
L 374.612896 226.318053 
L 376.488407 227.335798 
L 383.795573 231.569691 
L 386.197655 232.584409 
L 388.698336 233.401055 
L 391.466946 234.062431 
L 394.592797 234.573115 
L 398.433127 234.963188 
L 403.345178 235.226087 
L 410.579289 235.368897 
L 421.832351 235.352863 
L 430.227492 235.147747 
L 435.139543 234.822838 
L 438.711943 234.37087 
L 441.659174 233.777596 
L 444.159854 233.048073 
L 446.303295 232.193977 
L 448.232837 231.193888 
L 450.376278 229.821436 
L 453.859368 227.543249 
L 455.029329 227.058837 
L 456.01174 226.884111 
L 456.90484 226.950081 
L 457.79794 227.250546 
L 458.69104 227.791715 
L 459.67345 228.655596 
L 460.83448 229.997783 
L 462.352751 232.140398 
L 466.5129 238.250693 
L 467.76324 239.593792 
L 468.834961 240.425035 
L 469.817371 240.902418 
L 470.710471 241.096467 
L 471.603571 241.07064 
L 472.585981 240.810105 
L 473.657701 240.288936 
L 474.997352 239.375632 
L 477.140792 237.595508 
L 480.177332 235.121553 
L 481.963533 233.956784 
L 483.571113 233.157484 
L 485.178693 232.596605 
L 486.875583 232.239658 
L 488.751094 232.076398 
L 490.983844 232.114548 
L 493.931074 232.403341 
L 499.958429 233.290849 
L 506.47806 234.160092 
L 512.1939 234.705097 
L 518.445601 235.069921 
L 526.930053 235.312491 
L 546.935496 235.765521 
L 550.686516 236.134653 
L 553.723057 236.653146 
L 556.223737 237.307614 
L 558.456487 238.124939 
L 563.189918 239.978119 
L 564.261638 240.086845 
L 565.244048 239.965136 
L 566.137149 239.641086 
L 567.119559 239.039965 
L 568.191279 238.108325 
L 569.530929 236.611337 
L 571.559874 233.943631 
L 573.792624 231.09212 
L 575.042965 229.828893 
L 576.114685 229.054213 
L 577.007785 228.665366 
L 577.900885 228.525318 
L 578.793985 228.632004 
L 579.687085 228.966561 
L 580.758805 229.618058 
L 582.277076 230.839048 
L 584.777756 232.852117 
L 585.938786 233.492408 
L 587.010506 233.831624 
L 588.082227 233.931592 
L 589.332567 233.805776 
L 591.306318 233.335993 
L 593.717688 232.814673 
L 595.503889 232.664436 
L 597.379399 232.737768 
L 599.790769 233.074165 
L 608.989701 234.575486 
L 612.651411 234.83422 
L 616.670362 234.889629 
L 620.742898 234.725644 
L 624.404609 234.358881 
L 627.61977 233.814386 
L 630.47769 233.103748 
L 632.97837 232.251892 
L 635.211121 231.259365 
L 637.533181 229.979375 
L 641.552132 227.710452 
L 642.866864 227.265779 
L 643.938584 227.137784 
L 644.920995 227.247334 
L 645.903405 227.593467 
L 646.885815 228.180689 
L 647.957535 229.086598 
L 649.207875 230.458796 
L 650.726146 232.490511 
L 653.048206 236.040403 
L 656.04938 240.557987 
L 657.65696 242.586513 
L 658.99661 243.950023 
L 660.24695 244.916377 
L 661.40798 245.538714 
L 662.569011 245.902547 
L 663.730041 246.027468 
L 664.980381 245.92956 
L 666.409341 245.580163 
L 668.106231 244.9277 
L 670.428292 243.781969 
L 679.448603 239.085639 
L 681.145493 238.578114 
L 682.663764 238.352706 
L 684.092724 238.372572 
L 685.521684 238.619273 
L 687.307884 239.168011 
L 690.969595 240.355923 
L 692.755795 240.652508 
L 694.541995 240.723213 
L 697.042676 240.578508 
L 704.812647 239.808634 
L 706.152297 239.368543 
L 707.402637 238.72489 
L 708.652978 237.822224 
L 709.992628 236.576425 
L 711.957448 234.399477 
L 714.368818 231.790741 
L 715.708469 230.669721 
L 716.869499 229.972189 
L 718.030529 229.538482 
L 719.191559 229.349971 
L 720.441899 229.380587 
L 721.87086 229.644508 
L 723.74637 230.231792 
L 728.258669 231.981915 
L 731.41033 233.048573 
L 734.35756 233.812181 
L 737.483411 234.390489 
L 741.145121 234.833375 
L 745.699932 235.146917 
L 751.951633 235.334526 
L 761.865045 235.385914 
L 772.225006 235.240126 
L 778.119467 234.954873 
L 782.049108 234.551033 
L 785.174958 234.012379 
L 787.764949 233.35093 
L 789.997699 232.561255 
L 792.051829 231.596281 
L 794.016649 230.42563 
L 799.10732 227.199788 
L 800.17904 226.893231 
L 801.072141 226.857057 
L 801.965241 227.047931 
L 802.858341 227.47785 
L 803.840751 228.224815 
L 804.912471 229.341466 
L 806.252121 231.095162 
L 808.484872 234.480528 
L 810.628312 237.580205 
L 811.967962 239.130158 
L 813.039682 240.055975 
L 814.022093 240.626369 
L 814.915193 240.905364 
L 815.808293 240.960593 
L 816.790703 240.780788 
L 817.862423 240.333187 
L 819.112763 239.550206 
L 820.898964 238.131978 
L 824.917914 234.859515 
L 826.704114 233.736545 
L 828.311695 232.977727 
L 829.919275 232.456108 
L 831.616165 232.136274 
L 833.580985 232.005904 
L 835.903046 232.089236 
L 839.118206 232.452588 
L 854.658149 234.526343 
L 860.4633 234.943936 
L 867.884962 235.229335 
L 878.334233 235.384918 
L 897.446576 235.443012 
L 979.165239 235.449543 
L 996.134141 235.449543 
L 996.134141 235.449543 
" style="fill:none;stroke:#008000;stroke-dasharray:9.6,2.4,1.5,2.4;stroke-dashoffset:0;stroke-width:1.5;"/>
   </g>
   <g id="patch_3">
    <path d="M 144 256.32 
L 144 34.56 
" style="fill:none;stroke:#000000;stroke-linecap:square;stroke-linejoin:miter;stroke-width:0.8;"/>
   </g>
   <g id="patch_4">
    <path d="M 1036.8 256.32 
L 1036.8 34.56 
" style="fill:none;stroke:#000000;stroke-linecap:square;stroke-linejoin:miter;stroke-width:0.8;"/>
   </g>
   <g id="patch_5">
    <path d="M 144 256.32 
L 1036.8 256.32 
" style="fill:none;stroke:#000000;stroke-linecap:square;stroke-linejoin:miter;stroke-width:0.8;"/>
   </g>
   <g id="patch_6">
    <path d="M 144 34.56 
L 1036.8 34.56 
" style="fill:none;stroke:#000000;stroke-linecap:square;stroke-linejoin:miter;stroke-width:0.8;"/>
   </g>
   <g id="text_16">
    <!-- In  RMSE: 0.0 -->
    <g transform="translate(184.581818 200.379841)scale(0.1 -0.1)">
     <defs>
      <path d="M 9.8125 72.90625 
L 50.296875 72.90625 
L 50.296875 64.59375 
L 35.015625 64.59375 
L 35.015625 8.296875 
L 50.296875 8.296875 
L 50.296875 0 
L 9.8125 0 
L 9.8125 8.296875 
L 25.09375 8.296875 
L 25.09375 64.59375 
L 9.8125 64.59375 
z
" id="DejaVuSansMono-73"/>
      <path d="M 51.3125 33.890625 
L 51.3125 0 
L 42.28125 0 
L 42.28125 33.890625 
Q 42.28125 41.265625 39.6875 44.71875 
Q 37.109375 48.1875 31.59375 48.1875 
Q 25.296875 48.1875 21.890625 43.71875 
Q 18.5 39.265625 18.5 30.90625 
L 18.5 0 
L 9.515625 0 
L 9.515625 54.6875 
L 18.5 54.6875 
L 18.5 46.484375 
Q 20.90625 51.171875 25 53.578125 
Q 29.109375 56 34.71875 56 
Q 43.0625 56 47.1875 50.5 
Q 51.3125 45.015625 51.3125 33.890625 
z
" id="DejaVuSansMono-110"/>
      <path id="DejaVuSansMono-32"/>
      <path d="M 37.109375 34.421875 
Q 40.921875 33.453125 43.609375 30.734375 
Q 46.296875 28.03125 50.296875 19.921875 
L 60.203125 0 
L 49.609375 0 
L 40.921875 18.40625 
Q 37.15625 26.265625 34.15625 28.53125 
Q 31.15625 30.8125 26.3125 30.8125 
L 16.890625 30.8125 
L 16.890625 0 
L 6.984375 0 
L 6.984375 72.90625 
L 27.296875 72.90625 
Q 39.3125 72.90625 45.703125 67.484375 
Q 52.09375 62.0625 52.09375 51.8125 
Q 52.09375 44.578125 48.15625 40.015625 
Q 44.234375 35.453125 37.109375 34.421875 
z
M 16.890625 64.796875 
L 16.890625 38.921875 
L 27.6875 38.921875 
Q 34.765625 38.921875 38.234375 42.09375 
Q 41.703125 45.265625 41.703125 51.8125 
Q 41.703125 58.109375 38.015625 61.453125 
Q 34.328125 64.796875 27.296875 64.796875 
z
" id="DejaVuSansMono-82"/>
      <path d="M 4.203125 72.90625 
L 17.390625 72.90625 
L 29.984375 35.796875 
L 42.671875 72.90625 
L 55.90625 72.90625 
L 55.90625 0 
L 46.78125 0 
L 46.78125 64.40625 
L 33.796875 25.984375 
L 26.3125 25.984375 
L 13.28125 64.40625 
L 13.28125 0 
L 4.203125 0 
z
" id="DejaVuSansMono-77"/>
      <path d="M 49.421875 70.40625 
L 49.421875 60.40625 
Q 44.921875 63.28125 40.40625 64.75 
Q 35.890625 66.21875 31.296875 66.21875 
Q 24.3125 66.21875 20.265625 62.96875 
Q 16.21875 59.71875 16.21875 54.203125 
Q 16.21875 49.359375 18.875 46.8125 
Q 21.53125 44.28125 28.8125 42.578125 
L 33.984375 41.40625 
Q 44.234375 39.015625 48.921875 33.890625 
Q 53.609375 28.765625 53.609375 19.921875 
Q 53.609375 9.515625 47.15625 4.046875 
Q 40.71875 -1.421875 28.421875 -1.421875 
Q 23.296875 -1.421875 18.109375 -0.3125 
Q 12.9375 0.78125 7.71875 2.984375 
L 7.71875 13.484375 
Q 13.328125 9.90625 18.328125 8.25 
Q 23.34375 6.59375 28.421875 6.59375 
Q 35.890625 6.59375 40.03125 9.9375 
Q 44.1875 13.28125 44.1875 19.28125 
Q 44.1875 24.75 41.328125 27.625 
Q 38.484375 30.515625 31.390625 32.078125 
L 26.125 33.296875 
Q 15.96875 35.59375 11.375 40.234375 
Q 6.78125 44.875 6.78125 52.6875 
Q 6.78125 62.453125 13.34375 68.328125 
Q 19.921875 74.21875 30.8125 74.21875 
Q 35.015625 74.21875 39.640625 73.265625 
Q 44.28125 72.3125 49.421875 70.40625 
z
" id="DejaVuSansMono-83"/>
      <path d="M 9.625 72.90625 
L 52.875 72.90625 
L 52.875 64.59375 
L 19.484375 64.59375 
L 19.484375 43.015625 
L 51.421875 43.015625 
L 51.421875 34.71875 
L 19.484375 34.71875 
L 19.484375 8.296875 
L 53.8125 8.296875 
L 53.8125 0 
L 9.625 0 
z
" id="DejaVuSansMono-69"/>
      <path d="M 23.875 51.90625 
L 36.1875 51.90625 
L 36.1875 37.109375 
L 23.875 37.109375 
z
M 23.875 14.890625 
L 36.1875 14.890625 
L 36.1875 0 
L 23.875 0 
z
" id="DejaVuSansMono-58"/>
      <path d="M 23.578125 36.625 
Q 23.578125 39.3125 25.453125 41.265625 
Q 27.34375 43.21875 29.984375 43.21875 
Q 32.71875 43.21875 34.671875 41.265625 
Q 36.625 39.3125 36.625 36.625 
Q 36.625 33.890625 34.6875 31.984375 
Q 32.765625 30.078125 29.984375 30.078125 
Q 27.25 30.078125 25.40625 31.9375 
Q 23.578125 33.796875 23.578125 36.625 
z
M 30.078125 66.40625 
Q 23.1875 66.40625 19.796875 58.984375 
Q 16.40625 51.5625 16.40625 36.375 
Q 16.40625 21.234375 19.796875 13.8125 
Q 23.1875 6.390625 30.078125 6.390625 
Q 37.015625 6.390625 40.40625 13.8125 
Q 43.796875 21.234375 43.796875 36.375 
Q 43.796875 51.5625 40.40625 58.984375 
Q 37.015625 66.40625 30.078125 66.40625 
z
M 30.078125 74.21875 
Q 41.75 74.21875 47.734375 64.640625 
Q 53.71875 55.078125 53.71875 36.375 
Q 53.71875 17.71875 47.734375 8.140625 
Q 41.75 -1.421875 30.078125 -1.421875 
Q 18.40625 -1.421875 12.453125 8.140625 
Q 6.5 17.71875 6.5 36.375 
Q 6.5 55.078125 12.453125 64.640625 
Q 18.40625 74.21875 30.078125 74.21875 
z
" id="DejaVuSansMono-48"/>
      <path d="M 23.875 14.890625 
L 36.1875 14.890625 
L 36.1875 0 
L 23.875 0 
z
" id="DejaVuSansMono-46"/>
     </defs>
     <use xlink:href="#DejaVuSansMono-73"/>
     <use x="60.205078" xlink:href="#DejaVuSansMono-110"/>
     <use x="120.410156" xlink:href="#DejaVuSansMono-32"/>
     <use x="180.615234" xlink:href="#DejaVuSansMono-32"/>
     <use x="240.820312" xlink:href="#DejaVuSansMono-82"/>
     <use x="301.025391" xlink:href="#DejaVuSansMono-77"/>
     <use x="361.230469" xlink:href="#DejaVuSansMono-83"/>
     <use x="421.435547" xlink:href="#DejaVuSansMono-69"/>
     <use x="481.640625" xlink:href="#DejaVuSansMono-58"/>
     <use x="541.845703" xlink:href="#DejaVuSansMono-32"/>
     <use x="602.050781" xlink:href="#DejaVuSansMono-48"/>
     <use x="662.255859" xlink:href="#DejaVuSansMono-46"/>
     <use x="722.460938" xlink:href="#DejaVuSansMono-48"/>
    </g>
    <!-- Out RMSE: 0.01759 -->
    <g transform="translate(184.581818 211.641403)scale(0.1 -0.1)">
     <defs>
      <path d="M 44.1875 36.375 
Q 44.1875 52.4375 40.890625 59.328125 
Q 37.59375 66.21875 30.078125 66.21875 
Q 22.609375 66.21875 19.3125 59.328125 
Q 16.015625 52.4375 16.015625 36.375 
Q 16.015625 20.359375 19.3125 13.46875 
Q 22.609375 6.59375 30.078125 6.59375 
Q 37.59375 6.59375 40.890625 13.453125 
Q 44.1875 20.3125 44.1875 36.375 
z
M 54.5 36.375 
Q 54.5 17.328125 48.46875 7.953125 
Q 42.4375 -1.421875 30.078125 -1.421875 
Q 17.71875 -1.421875 11.71875 7.90625 
Q 5.71875 17.234375 5.71875 36.375 
Q 5.71875 55.46875 11.75 64.84375 
Q 17.78125 74.21875 30.078125 74.21875 
Q 42.4375 74.21875 48.46875 64.84375 
Q 54.5 55.46875 54.5 36.375 
z
" id="DejaVuSansMono-79"/>
      <path d="M 9.515625 20.703125 
L 9.515625 54.59375 
L 18.5 54.59375 
L 18.5 20.703125 
Q 18.5 13.328125 21.109375 9.859375 
Q 23.734375 6.390625 29.203125 6.390625 
Q 35.546875 6.390625 38.90625 10.859375 
Q 42.28125 15.328125 42.28125 23.6875 
L 42.28125 54.59375 
L 51.3125 54.59375 
L 51.3125 0 
L 42.28125 0 
L 42.28125 8.203125 
Q 39.890625 3.46875 35.765625 1.015625 
Q 31.640625 -1.421875 26.125 -1.421875 
Q 17.71875 -1.421875 13.609375 4.078125 
Q 9.515625 9.578125 9.515625 20.703125 
z
" id="DejaVuSansMono-117"/>
      <path d="M 29.984375 70.21875 
L 29.984375 54.6875 
L 50.390625 54.6875 
L 50.390625 47.703125 
L 29.984375 47.703125 
L 29.984375 18.015625 
Q 29.984375 11.96875 32.28125 9.5625 
Q 34.578125 7.171875 40.28125 7.171875 
L 50.390625 7.171875 
L 50.390625 0 
L 39.40625 0 
Q 29.296875 0 25.140625 4.046875 
Q 21 8.109375 21 18.015625 
L 21 47.703125 
L 6.390625 47.703125 
L 6.390625 54.6875 
L 21 54.6875 
L 21 70.21875 
z
" id="DejaVuSansMono-116"/>
      <path d="M 13.1875 8.296875 
L 28.515625 8.296875 
L 28.515625 64.015625 
L 12.015625 60.296875 
L 12.015625 69.28125 
L 28.421875 72.90625 
L 38.28125 72.90625 
L 38.28125 8.296875 
L 53.421875 8.296875 
L 53.421875 0 
L 13.1875 0 
z
" id="DejaVuSansMono-49"/>
      <path d="M 6.78125 72.90625 
L 52.6875 72.90625 
L 52.6875 68.703125 
L 26.609375 0 
L 16.3125 0 
L 41.703125 64.59375 
L 6.78125 64.59375 
z
" id="DejaVuSansMono-55"/>
      <path d="M 10.109375 72.90625 
L 47.015625 72.90625 
L 47.015625 64.59375 
L 19.09375 64.59375 
L 19.09375 46.6875 
Q 21.1875 47.46875 23.3125 47.828125 
Q 25.4375 48.1875 27.59375 48.1875 
Q 38.921875 48.1875 45.5625 41.5 
Q 52.203125 34.8125 52.203125 23.390625 
Q 52.203125 11.859375 45.234375 5.21875 
Q 38.28125 -1.421875 26.21875 -1.421875 
Q 20.40625 -1.421875 15.59375 -0.640625 
Q 10.796875 0.140625 6.984375 1.703125 
L 6.984375 11.71875 
Q 11.46875 9.28125 16.015625 8.078125 
Q 20.5625 6.890625 25.296875 6.890625 
Q 33.453125 6.890625 37.859375 11.1875 
Q 42.28125 15.484375 42.28125 23.390625 
Q 42.28125 31.203125 37.71875 35.546875 
Q 33.15625 39.890625 25 39.890625 
Q 21.046875 39.890625 17.28125 38.984375 
Q 13.53125 38.09375 10.109375 36.28125 
z
" id="DejaVuSansMono-53"/>
      <path d="M 29.109375 32.328125 
Q 35.40625 32.328125 38.984375 36.859375 
Q 42.578125 41.40625 42.578125 49.421875 
Q 42.578125 57.421875 38.984375 61.953125 
Q 35.40625 66.5 29.109375 66.5 
Q 22.5625 66.5 19.234375 62.171875 
Q 15.921875 57.859375 15.921875 49.421875 
Q 15.921875 40.921875 19.21875 36.625 
Q 22.515625 32.328125 29.109375 32.328125 
z
M 11.53125 1.515625 
L 11.53125 10.59375 
Q 14.59375 8.796875 18.0625 7.84375 
Q 21.53125 6.890625 25.296875 6.890625 
Q 34.671875 6.890625 39.46875 13.9375 
Q 44.28125 21 44.28125 34.71875 
Q 42 29.828125 37.84375 27.21875 
Q 33.6875 24.609375 28.328125 24.609375 
Q 17.78125 24.609375 11.984375 31.09375 
Q 6.203125 37.59375 6.203125 49.515625 
Q 6.203125 61.28125 12.125 67.75 
Q 18.0625 74.21875 28.90625 74.21875 
Q 41.609375 74.21875 47.515625 65.078125 
Q 53.421875 55.953125 53.421875 36.375 
Q 53.421875 17.96875 46.3125 8.265625 
Q 39.203125 -1.421875 25.6875 -1.421875 
Q 22.125 -1.421875 18.5 -0.65625 
Q 14.890625 0.09375 11.53125 1.515625 
z
" id="DejaVuSansMono-57"/>
     </defs>
     <use xlink:href="#DejaVuSansMono-79"/>
     <use x="60.205078" xlink:href="#DejaVuSansMono-117"/>
     <use x="120.410156" xlink:href="#DejaVuSansMono-116"/>
     <use x="180.615234" xlink:href="#DejaVuSansMono-32"/>
     <use x="240.820312" xlink:href="#DejaVuSansMono-82"/>
     <use x="301.025391" xlink:href="#DejaVuSansMono-77"/>
     <use x="361.230469" xlink:href="#DejaVuSansMono-83"/>
     <use x="421.435547" xlink:href="#DejaVuSansMono-69"/>
     <use x="481.640625" xlink:href="#DejaVuSansMono-58"/>
     <use x="541.845703" xlink:href="#DejaVuSansMono-32"/>
     <use x="602.050781" xlink:href="#DejaVuSansMono-48"/>
     <use x="662.255859" xlink:href="#DejaVuSansMono-46"/>
     <use x="722.460938" xlink:href="#DejaVuSansMono-48"/>
     <use x="782.666016" xlink:href="#DejaVuSansMono-49"/>
     <use x="842.871094" xlink:href="#DejaVuSansMono-55"/>
     <use x="903.076172" xlink:href="#DejaVuSansMono-53"/>
     <use x="963.28125" xlink:href="#DejaVuSansMono-57"/>
    </g>
   </g>
   <g id="text_17">
    <!-- ..\WaveformData\t4_traces\inv_t4_invSim_520_200Traces fitting using transfer functions -->
    <g transform="translate(325.554375 28.56)scale(0.12 -0.12)">
     <defs>
      <path d="M 8.296875 72.90625 
L 33.6875 -9.28125 
L 25.390625 -9.28125 
L 0 72.90625 
z
" id="DejaVuSans-92"/>
      <path d="M 3.328125 72.90625 
L 13.28125 72.90625 
L 28.609375 11.28125 
L 43.890625 72.90625 
L 54.984375 72.90625 
L 70.3125 11.28125 
L 85.59375 72.90625 
L 95.609375 72.90625 
L 77.296875 0 
L 64.890625 0 
L 49.515625 63.28125 
L 33.984375 0 
L 21.578125 0 
z
" id="DejaVuSans-87"/>
      <path d="M 2.984375 54.6875 
L 12.5 54.6875 
L 29.59375 8.796875 
L 46.6875 54.6875 
L 56.203125 54.6875 
L 35.6875 0 
L 23.484375 0 
z
" id="DejaVuSans-118"/>
      <path d="M 37.109375 75.984375 
L 37.109375 68.5 
L 28.515625 68.5 
Q 23.6875 68.5 21.796875 66.546875 
Q 19.921875 64.59375 19.921875 59.515625 
L 19.921875 54.6875 
L 34.71875 54.6875 
L 34.71875 47.703125 
L 19.921875 47.703125 
L 19.921875 0 
L 10.890625 0 
L 10.890625 47.703125 
L 2.296875 47.703125 
L 2.296875 54.6875 
L 10.890625 54.6875 
L 10.890625 58.5 
Q 10.890625 67.625 15.140625 71.796875 
Q 19.390625 75.984375 28.609375 75.984375 
z
" id="DejaVuSans-102"/>
      <path d="M 41.109375 46.296875 
Q 39.59375 47.171875 37.8125 47.578125 
Q 36.03125 48 33.890625 48 
Q 26.265625 48 22.1875 43.046875 
Q 18.109375 38.09375 18.109375 28.8125 
L 18.109375 0 
L 9.078125 0 
L 9.078125 54.6875 
L 18.109375 54.6875 
L 18.109375 46.1875 
Q 20.953125 51.171875 25.484375 53.578125 
Q 30.03125 56 36.53125 56 
Q 37.453125 56 38.578125 55.875 
Q 39.703125 55.765625 41.0625 55.515625 
z
" id="DejaVuSans-114"/>
      <path d="M 19.671875 64.796875 
L 19.671875 8.109375 
L 31.59375 8.109375 
Q 46.6875 8.109375 53.6875 14.9375 
Q 60.6875 21.78125 60.6875 36.53125 
Q 60.6875 51.171875 53.6875 57.984375 
Q 46.6875 64.796875 31.59375 64.796875 
z
M 9.8125 72.90625 
L 30.078125 72.90625 
Q 51.265625 72.90625 61.171875 64.09375 
Q 71.09375 55.28125 71.09375 36.53125 
Q 71.09375 17.671875 61.125 8.828125 
Q 51.171875 0 30.078125 0 
L 9.8125 0 
z
" id="DejaVuSans-68"/>
      <path d="M 50.984375 -16.609375 
L 50.984375 -23.578125 
L -0.984375 -23.578125 
L -0.984375 -16.609375 
z
" id="DejaVuSans-95"/>
      <path d="M 48.78125 52.59375 
L 48.78125 44.1875 
Q 44.96875 46.296875 41.140625 47.34375 
Q 37.3125 48.390625 33.40625 48.390625 
Q 24.65625 48.390625 19.8125 42.84375 
Q 14.984375 37.3125 14.984375 27.296875 
Q 14.984375 17.28125 19.8125 11.734375 
Q 24.65625 6.203125 33.40625 6.203125 
Q 37.3125 6.203125 41.140625 7.25 
Q 44.96875 8.296875 48.78125 10.40625 
L 48.78125 2.09375 
Q 45.015625 0.34375 40.984375 -0.53125 
Q 36.96875 -1.421875 32.421875 -1.421875 
Q 20.0625 -1.421875 12.78125 6.34375 
Q 5.515625 14.109375 5.515625 27.296875 
Q 5.515625 40.671875 12.859375 48.328125 
Q 20.21875 56 33.015625 56 
Q 37.15625 56 41.109375 55.140625 
Q 45.0625 54.296875 48.78125 52.59375 
z
" id="DejaVuSans-99"/>
      <path d="M 54.890625 33.015625 
L 54.890625 0 
L 45.90625 0 
L 45.90625 32.71875 
Q 45.90625 40.484375 42.875 44.328125 
Q 39.84375 48.1875 33.796875 48.1875 
Q 26.515625 48.1875 22.3125 43.546875 
Q 18.109375 38.921875 18.109375 30.90625 
L 18.109375 0 
L 9.078125 0 
L 9.078125 54.6875 
L 18.109375 54.6875 
L 18.109375 46.1875 
Q 21.34375 51.125 25.703125 53.5625 
Q 30.078125 56 35.796875 56 
Q 45.21875 56 50.046875 50.171875 
Q 54.890625 44.34375 54.890625 33.015625 
z
" id="DejaVuSans-110"/>
      <path d="M 53.515625 70.515625 
L 53.515625 60.890625 
Q 47.90625 63.578125 42.921875 64.890625 
Q 37.9375 66.21875 33.296875 66.21875 
Q 25.25 66.21875 20.875 63.09375 
Q 16.5 59.96875 16.5 54.203125 
Q 16.5 49.359375 19.40625 46.890625 
Q 22.3125 44.4375 30.421875 42.921875 
L 36.375 41.703125 
Q 47.40625 39.59375 52.65625 34.296875 
Q 57.90625 29 57.90625 20.125 
Q 57.90625 9.515625 50.796875 4.046875 
Q 43.703125 -1.421875 29.984375 -1.421875 
Q 24.8125 -1.421875 18.96875 -0.25 
Q 13.140625 0.921875 6.890625 3.21875 
L 6.890625 13.375 
Q 12.890625 10.015625 18.65625 8.296875 
Q 24.421875 6.59375 29.984375 6.59375 
Q 38.421875 6.59375 43.015625 9.90625 
Q 47.609375 13.234375 47.609375 19.390625 
Q 47.609375 24.75 44.3125 27.78125 
Q 41.015625 30.8125 33.5 32.328125 
L 27.484375 33.5 
Q 16.453125 35.6875 11.515625 40.375 
Q 6.59375 45.0625 6.59375 53.421875 
Q 6.59375 63.09375 13.40625 68.65625 
Q 20.21875 74.21875 32.171875 74.21875 
Q 37.3125 74.21875 42.625 73.28125 
Q 47.953125 72.359375 53.515625 70.515625 
z
" id="DejaVuSans-83"/>
      <path d="M 10.796875 72.90625 
L 49.515625 72.90625 
L 49.515625 64.59375 
L 19.828125 64.59375 
L 19.828125 46.734375 
Q 21.96875 47.46875 24.109375 47.828125 
Q 26.265625 48.1875 28.421875 48.1875 
Q 40.625 48.1875 47.75 41.5 
Q 54.890625 34.8125 54.890625 23.390625 
Q 54.890625 11.625 47.5625 5.09375 
Q 40.234375 -1.421875 26.90625 -1.421875 
Q 22.3125 -1.421875 17.546875 -0.640625 
Q 12.796875 0.140625 7.71875 1.703125 
L 7.71875 11.625 
Q 12.109375 9.234375 16.796875 8.0625 
Q 21.484375 6.890625 26.703125 6.890625 
Q 35.15625 6.890625 40.078125 11.328125 
Q 45.015625 15.765625 45.015625 23.390625 
Q 45.015625 31 40.078125 35.4375 
Q 35.15625 39.890625 26.703125 39.890625 
Q 22.75 39.890625 18.8125 39.015625 
Q 14.890625 38.140625 10.796875 36.28125 
z
" id="DejaVuSans-53"/>
      <path d="M 8.5 21.578125 
L 8.5 54.6875 
L 17.484375 54.6875 
L 17.484375 21.921875 
Q 17.484375 14.15625 20.5 10.265625 
Q 23.53125 6.390625 29.59375 6.390625 
Q 36.859375 6.390625 41.078125 11.03125 
Q 45.3125 15.671875 45.3125 23.6875 
L 45.3125 54.6875 
L 54.296875 54.6875 
L 54.296875 0 
L 45.3125 0 
L 45.3125 8.40625 
Q 42.046875 3.421875 37.71875 1 
Q 33.40625 -1.421875 27.6875 -1.421875 
Q 18.265625 -1.421875 13.375 4.4375 
Q 8.5 10.296875 8.5 21.578125 
z
M 31.109375 56 
z
" id="DejaVuSans-117"/>
     </defs>
     <use xlink:href="#DejaVuSans-46"/>
     <use x="31.787109" xlink:href="#DejaVuSans-46"/>
     <use x="63.574219" xlink:href="#DejaVuSans-92"/>
     <use x="97.265625" xlink:href="#DejaVuSans-87"/>
     <use x="189.767578" xlink:href="#DejaVuSans-97"/>
     <use x="251.046875" xlink:href="#DejaVuSans-118"/>
     <use x="310.226562" xlink:href="#DejaVuSans-101"/>
     <use x="371.75" xlink:href="#DejaVuSans-102"/>
     <use x="406.955078" xlink:href="#DejaVuSans-111"/>
     <use x="468.136719" xlink:href="#DejaVuSans-114"/>
     <use x="507.5" xlink:href="#DejaVuSans-109"/>
     <use x="604.912109" xlink:href="#DejaVuSans-68"/>
     <use x="681.914062" xlink:href="#DejaVuSans-97"/>
     <use x="743.193359" xlink:href="#DejaVuSans-116"/>
     <use x="782.402344" xlink:href="#DejaVuSans-97"/>
     <use x="843.681641" xlink:href="#DejaVuSans-92"/>
     <use x="877.373047" xlink:href="#DejaVuSans-116"/>
     <use x="916.582031" xlink:href="#DejaVuSans-52"/>
     <use x="980.205078" xlink:href="#DejaVuSans-95"/>
     <use x="1030.205078" xlink:href="#DejaVuSans-116"/>
     <use x="1069.414062" xlink:href="#DejaVuSans-114"/>
     <use x="1110.527344" xlink:href="#DejaVuSans-97"/>
     <use x="1171.806641" xlink:href="#DejaVuSans-99"/>
     <use x="1226.787109" xlink:href="#DejaVuSans-101"/>
     <use x="1288.310547" xlink:href="#DejaVuSans-115"/>
     <use x="1340.410156" xlink:href="#DejaVuSans-92"/>
     <use x="1374.101562" xlink:href="#DejaVuSans-105"/>
     <use x="1401.884766" xlink:href="#DejaVuSans-110"/>
     <use x="1465.263672" xlink:href="#DejaVuSans-118"/>
     <use x="1524.443359" xlink:href="#DejaVuSans-95"/>
     <use x="1574.443359" xlink:href="#DejaVuSans-116"/>
     <use x="1613.652344" xlink:href="#DejaVuSans-52"/>
     <use x="1677.275391" xlink:href="#DejaVuSans-95"/>
     <use x="1727.275391" xlink:href="#DejaVuSans-105"/>
     <use x="1755.058594" xlink:href="#DejaVuSans-110"/>
     <use x="1818.4375" xlink:href="#DejaVuSans-118"/>
     <use x="1877.617188" xlink:href="#DejaVuSans-83"/>
     <use x="1941.09375" xlink:href="#DejaVuSans-105"/>
     <use x="1968.876953" xlink:href="#DejaVuSans-109"/>
     <use x="2066.289062" xlink:href="#DejaVuSans-95"/>
     <use x="2116.289062" xlink:href="#DejaVuSans-53"/>
     <use x="2179.912109" xlink:href="#DejaVuSans-50"/>
     <use x="2243.535156" xlink:href="#DejaVuSans-48"/>
     <use x="2307.158203" xlink:href="#DejaVuSans-95"/>
     <use x="2357.158203" xlink:href="#DejaVuSans-50"/>
     <use x="2420.78125" xlink:href="#DejaVuSans-48"/>
     <use x="2484.404297" xlink:href="#DejaVuSans-48"/>
     <use x="2548.027344" xlink:href="#DejaVuSans-84"/>
     <use x="2594.361328" xlink:href="#DejaVuSans-114"/>
     <use x="2635.474609" xlink:href="#DejaVuSans-97"/>
     <use x="2696.753906" xlink:href="#DejaVuSans-99"/>
     <use x="2751.734375" xlink:href="#DejaVuSans-101"/>
     <use x="2813.257812" xlink:href="#DejaVuSans-115"/>
     <use x="2865.357422" xlink:href="#DejaVuSans-32"/>
     <use x="2897.144531" xlink:href="#DejaVuSans-102"/>
     <use x="2932.349609" xlink:href="#DejaVuSans-105"/>
     <use x="2960.132812" xlink:href="#DejaVuSans-116"/>
     <use x="2999.341797" xlink:href="#DejaVuSans-116"/>
     <use x="3038.550781" xlink:href="#DejaVuSans-105"/>
     <use x="3066.333984" xlink:href="#DejaVuSans-110"/>
     <use x="3129.712891" xlink:href="#DejaVuSans-103"/>
     <use x="3193.189453" xlink:href="#DejaVuSans-32"/>
     <use x="3224.976562" xlink:href="#DejaVuSans-117"/>
     <use x="3288.355469" xlink:href="#DejaVuSans-115"/>
     <use x="3340.455078" xlink:href="#DejaVuSans-105"/>
     <use x="3368.238281" xlink:href="#DejaVuSans-110"/>
     <use x="3431.617188" xlink:href="#DejaVuSans-103"/>
     <use x="3495.09375" xlink:href="#DejaVuSans-32"/>
     <use x="3526.880859" xlink:href="#DejaVuSans-116"/>
     <use x="3566.089844" xlink:href="#DejaVuSans-114"/>
     <use x="3607.203125" xlink:href="#DejaVuSans-97"/>
     <use x="3668.482422" xlink:href="#DejaVuSans-110"/>
     <use x="3731.861328" xlink:href="#DejaVuSans-115"/>
     <use x="3783.960938" xlink:href="#DejaVuSans-102"/>
     <use x="3819.166016" xlink:href="#DejaVuSans-101"/>
     <use x="3880.689453" xlink:href="#DejaVuSans-114"/>
     <use x="3921.802734" xlink:href="#DejaVuSans-32"/>
     <use x="3953.589844" xlink:href="#DejaVuSans-102"/>
     <use x="3988.794922" xlink:href="#DejaVuSans-117"/>
     <use x="4052.173828" xlink:href="#DejaVuSans-110"/>
     <use x="4115.552734" xlink:href="#DejaVuSans-99"/>
     <use x="4170.533203" xlink:href="#DejaVuSans-116"/>
     <use x="4209.742188" xlink:href="#DejaVuSans-105"/>
     <use x="4237.525391" xlink:href="#DejaVuSans-111"/>
     <use x="4298.707031" xlink:href="#DejaVuSans-110"/>
     <use x="4362.085938" xlink:href="#DejaVuSans-115"/>
    </g>
   </g>
   <g id="legend_1">
    <g id="patch_7">
     <path d="M 151 176.29625 
L 368.865625 176.29625 
Q 370.865625 176.29625 370.865625 174.29625 
L 370.865625 116.58375 
Q 370.865625 114.58375 368.865625 114.58375 
L 151 114.58375 
Q 149 114.58375 149 116.58375 
L 149 174.29625 
Q 149 176.29625 151 176.29625 
z
" style="fill:#ffffff;opacity:0.8;stroke:#cccccc;stroke-linejoin:miter;"/>
    </g>
    <g id="line2d_17">
     <path d="M 153 122.682187 
L 173 122.682187 
" style="fill:none;stroke:#ff0000;stroke-linecap:square;stroke-width:1.5;"/>
    </g>
    <g id="line2d_18"/>
    <g id="text_18">
     <!-- Input -->
     <g transform="translate(181 126.182187)scale(0.1 -0.1)">
      <defs>
       <path d="M 9.8125 72.90625 
L 19.671875 72.90625 
L 19.671875 0 
L 9.8125 0 
z
" id="DejaVuSans-73"/>
       <path d="M 18.109375 8.203125 
L 18.109375 -20.796875 
L 9.078125 -20.796875 
L 9.078125 54.6875 
L 18.109375 54.6875 
L 18.109375 46.390625 
Q 20.953125 51.265625 25.265625 53.625 
Q 29.59375 56 35.59375 56 
Q 45.5625 56 51.78125 48.09375 
Q 58.015625 40.1875 58.015625 27.296875 
Q 58.015625 14.40625 51.78125 6.484375 
Q 45.5625 -1.421875 35.59375 -1.421875 
Q 29.59375 -1.421875 25.265625 0.953125 
Q 20.953125 3.328125 18.109375 8.203125 
z
M 48.6875 27.296875 
Q 48.6875 37.203125 44.609375 42.84375 
Q 40.53125 48.484375 33.40625 48.484375 
Q 26.265625 48.484375 22.1875 42.84375 
Q 18.109375 37.203125 18.109375 27.296875 
Q 18.109375 17.390625 22.1875 11.75 
Q 26.265625 6.109375 33.40625 6.109375 
Q 40.53125 6.109375 44.609375 11.75 
Q 48.6875 17.390625 48.6875 27.296875 
z
" id="DejaVuSans-112"/>
      </defs>
      <use xlink:href="#DejaVuSans-73"/>
      <use x="29.492188" xlink:href="#DejaVuSans-110"/>
      <use x="92.871094" xlink:href="#DejaVuSans-112"/>
      <use x="156.347656" xlink:href="#DejaVuSans-117"/>
      <use x="219.726562" xlink:href="#DejaVuSans-116"/>
     </g>
    </g>
    <g id="line2d_19">
     <path d="M 153 137.360312 
L 173 137.360312 
" style="fill:none;stroke:#008000;stroke-linecap:square;stroke-width:1.5;"/>
    </g>
    <g id="line2d_20"/>
    <g id="text_19">
     <!-- Output -->
     <g transform="translate(181 140.860312)scale(0.1 -0.1)">
      <defs>
       <path d="M 39.40625 66.21875 
Q 28.65625 66.21875 22.328125 58.203125 
Q 16.015625 50.203125 16.015625 36.375 
Q 16.015625 22.609375 22.328125 14.59375 
Q 28.65625 6.59375 39.40625 6.59375 
Q 50.140625 6.59375 56.421875 14.59375 
Q 62.703125 22.609375 62.703125 36.375 
Q 62.703125 50.203125 56.421875 58.203125 
Q 50.140625 66.21875 39.40625 66.21875 
z
M 39.40625 74.21875 
Q 54.734375 74.21875 63.90625 63.9375 
Q 73.09375 53.65625 73.09375 36.375 
Q 73.09375 19.140625 63.90625 8.859375 
Q 54.734375 -1.421875 39.40625 -1.421875 
Q 24.03125 -1.421875 14.8125 8.828125 
Q 5.609375 19.09375 5.609375 36.375 
Q 5.609375 53.65625 14.8125 63.9375 
Q 24.03125 74.21875 39.40625 74.21875 
z
" id="DejaVuSans-79"/>
      </defs>
      <use xlink:href="#DejaVuSans-79"/>
      <use x="78.710938" xlink:href="#DejaVuSans-117"/>
      <use x="142.089844" xlink:href="#DejaVuSans-116"/>
      <use x="181.298828" xlink:href="#DejaVuSans-112"/>
      <use x="244.775391" xlink:href="#DejaVuSans-117"/>
      <use x="308.154297" xlink:href="#DejaVuSans-116"/>
     </g>
    </g>
    <g id="line2d_21">
     <path d="M 153 152.038437 
L 173 152.038437 
" style="fill:none;stroke:#008000;stroke-dasharray:5.55,2.4;stroke-dashoffset:0;stroke-width:1.5;"/>
    </g>
    <g id="line2d_22"/>
    <g id="text_20">
     <!-- Output fitting from transfer functions -->
     <g transform="translate(181 155.538437)scale(0.1 -0.1)">
      <use xlink:href="#DejaVuSans-79"/>
      <use x="78.710938" xlink:href="#DejaVuSans-117"/>
      <use x="142.089844" xlink:href="#DejaVuSans-116"/>
      <use x="181.298828" xlink:href="#DejaVuSans-112"/>
      <use x="244.775391" xlink:href="#DejaVuSans-117"/>
      <use x="308.154297" xlink:href="#DejaVuSans-116"/>
      <use x="347.363281" xlink:href="#DejaVuSans-32"/>
      <use x="379.150391" xlink:href="#DejaVuSans-102"/>
      <use x="414.355469" xlink:href="#DejaVuSans-105"/>
      <use x="442.138672" xlink:href="#DejaVuSans-116"/>
      <use x="481.347656" xlink:href="#DejaVuSans-116"/>
      <use x="520.556641" xlink:href="#DejaVuSans-105"/>
      <use x="548.339844" xlink:href="#DejaVuSans-110"/>
      <use x="611.71875" xlink:href="#DejaVuSans-103"/>
      <use x="675.195312" xlink:href="#DejaVuSans-32"/>
      <use x="706.982422" xlink:href="#DejaVuSans-102"/>
      <use x="742.1875" xlink:href="#DejaVuSans-114"/>
      <use x="781.050781" xlink:href="#DejaVuSans-111"/>
      <use x="842.232422" xlink:href="#DejaVuSans-109"/>
      <use x="939.644531" xlink:href="#DejaVuSans-32"/>
      <use x="971.431641" xlink:href="#DejaVuSans-116"/>
      <use x="1010.640625" xlink:href="#DejaVuSans-114"/>
      <use x="1051.753906" xlink:href="#DejaVuSans-97"/>
      <use x="1113.033203" xlink:href="#DejaVuSans-110"/>
      <use x="1176.412109" xlink:href="#DejaVuSans-115"/>
      <use x="1228.511719" xlink:href="#DejaVuSans-102"/>
      <use x="1263.716797" xlink:href="#DejaVuSans-101"/>
      <use x="1325.240234" xlink:href="#DejaVuSans-114"/>
      <use x="1366.353516" xlink:href="#DejaVuSans-32"/>
      <use x="1398.140625" xlink:href="#DejaVuSans-102"/>
      <use x="1433.345703" xlink:href="#DejaVuSans-117"/>
      <use x="1496.724609" xlink:href="#DejaVuSans-110"/>
      <use x="1560.103516" xlink:href="#DejaVuSans-99"/>
      <use x="1615.083984" xlink:href="#DejaVuSans-116"/>
      <use x="1654.292969" xlink:href="#DejaVuSans-105"/>
      <use x="1682.076172" xlink:href="#DejaVuSans-111"/>
      <use x="1743.257812" xlink:href="#DejaVuSans-110"/>
      <use x="1806.636719" xlink:href="#DejaVuSans-115"/>
     </g>
    </g>
    <g id="line2d_23">
     <path d="M 153 166.716563 
L 173 166.716563 
" style="fill:none;stroke:#008000;stroke-dasharray:9.6,2.4,1.5,2.4;stroke-dashoffset:0;stroke-width:1.5;"/>
    </g>
    <g id="line2d_24"/>
    <g id="text_21">
     <!-- fitting error -->
     <g transform="translate(181 170.216563)scale(0.1 -0.1)">
      <use xlink:href="#DejaVuSans-102"/>
      <use x="35.205078" xlink:href="#DejaVuSans-105"/>
      <use x="62.988281" xlink:href="#DejaVuSans-116"/>
      <use x="102.197266" xlink:href="#DejaVuSans-116"/>
      <use x="141.40625" xlink:href="#DejaVuSans-105"/>
      <use x="169.189453" xlink:href="#DejaVuSans-110"/>
      <use x="232.568359" xlink:href="#DejaVuSans-103"/>
      <use x="296.044922" xlink:href="#DejaVuSans-32"/>
      <use x="327.832031" xlink:href="#DejaVuSans-101"/>
      <use x="389.355469" xlink:href="#DejaVuSans-114"/>
      <use x="428.71875" xlink:href="#DejaVuSans-114"/>
      <use x="467.582031" xlink:href="#DejaVuSans-111"/>
      <use x="528.763672" xlink:href="#DejaVuSans-114"/>
     </g>
    </g>
   </g>
  </g>
 </g>
 <defs>
  <clipPath id="p60173dab27">
   <rect height="221.76" width="892.8" x="144" y="34.56"/>
  </clipPath>
 </defs>
</svg>
