<?xml version="1.0" encoding="utf-8" standalone="no"?>
<!DOCTYPE svg PUBLIC "-//W3C//DTD SVG 1.1//EN"
  "http://www.w3.org/Graphics/SVG/1.1/DTD/svg11.dtd">
<!-- Created with matplotlib (https://matplotlib.org/) -->
<svg height="288pt" version="1.1" viewBox="0 0 1152 288" width="1152pt" xmlns="http://www.w3.org/2000/svg" xmlns:xlink="http://www.w3.org/1999/xlink">
 <defs>
  <style type="text/css">
*{stroke-linecap:butt;stroke-linejoin:round;}
  </style>
 </defs>
 <g id="figure_1">
  <g id="patch_1">
   <path d="M 0 288 
L 1152 288 
L 1152 0 
L 0 0 
z
" style="fill:#ffffff;"/>
  </g>
  <g id="axes_1">
   <g id="patch_2">
    <path d="M 144 256.32 
L 1036.8 256.32 
L 1036.8 34.56 
L 144 34.56 
z
" style="fill:#ffffff;"/>
   </g>
   <g id="matplotlib.axis_1">
    <g id="xtick_1">
     <g id="line2d_1">
      <defs>
       <path d="M 0 0 
L 0 3.5 
" id="m71753ecc23" style="stroke:#000000;stroke-width:0.8;"/>
      </defs>
      <g>
       <use style="stroke:#000000;stroke-width:0.8;" x="184.581818" xlink:href="#m71753ecc23" y="256.32"/>
      </g>
     </g>
     <g id="text_1">
      <!-- 0.0 -->
      <defs>
       <path d="M 31.78125 66.40625 
Q 24.171875 66.40625 20.328125 58.90625 
Q 16.5 51.421875 16.5 36.375 
Q 16.5 21.390625 20.328125 13.890625 
Q 24.171875 6.390625 31.78125 6.390625 
Q 39.453125 6.390625 43.28125 13.890625 
Q 47.125 21.390625 47.125 36.375 
Q 47.125 51.421875 43.28125 58.90625 
Q 39.453125 66.40625 31.78125 66.40625 
z
M 31.78125 74.21875 
Q 44.046875 74.21875 50.515625 64.515625 
Q 56.984375 54.828125 56.984375 36.375 
Q 56.984375 17.96875 50.515625 8.265625 
Q 44.046875 -1.421875 31.78125 -1.421875 
Q 19.53125 -1.421875 13.0625 8.265625 
Q 6.59375 17.96875 6.59375 36.375 
Q 6.59375 54.828125 13.0625 64.515625 
Q 19.53125 74.21875 31.78125 74.21875 
z
" id="DejaVuSans-48"/>
       <path d="M 10.6875 12.40625 
L 21 12.40625 
L 21 0 
L 10.6875 0 
z
" id="DejaVuSans-46"/>
      </defs>
      <g transform="translate(176.630256 270.918437)scale(0.1 -0.1)">
       <use xlink:href="#DejaVuSans-48"/>
       <use x="63.623047" xlink:href="#DejaVuSans-46"/>
       <use x="95.410156" xlink:href="#DejaVuSans-48"/>
      </g>
     </g>
    </g>
    <g id="xtick_2">
     <g id="line2d_2">
      <g>
       <use style="stroke:#000000;stroke-width:0.8;" x="321.495109" xlink:href="#m71753ecc23" y="256.32"/>
      </g>
     </g>
     <g id="text_2">
      <!-- 0.2 -->
      <defs>
       <path d="M 19.1875 8.296875 
L 53.609375 8.296875 
L 53.609375 0 
L 7.328125 0 
L 7.328125 8.296875 
Q 12.9375 14.109375 22.625 23.890625 
Q 32.328125 33.6875 34.8125 36.53125 
Q 39.546875 41.84375 41.421875 45.53125 
Q 43.3125 49.21875 43.3125 52.78125 
Q 43.3125 58.59375 39.234375 62.25 
Q 35.15625 65.921875 28.609375 65.921875 
Q 23.96875 65.921875 18.8125 64.3125 
Q 13.671875 62.703125 7.8125 59.421875 
L 7.8125 69.390625 
Q 13.765625 71.78125 18.9375 73 
Q 24.125 74.21875 28.421875 74.21875 
Q 39.75 74.21875 46.484375 68.546875 
Q 53.21875 62.890625 53.21875 53.421875 
Q 53.21875 48.921875 51.53125 44.890625 
Q 49.859375 40.875 45.40625 35.40625 
Q 44.1875 33.984375 37.640625 27.21875 
Q 31.109375 20.453125 19.1875 8.296875 
z
" id="DejaVuSans-50"/>
      </defs>
      <g transform="translate(313.543546 270.918437)scale(0.1 -0.1)">
       <use xlink:href="#DejaVuSans-48"/>
       <use x="63.623047" xlink:href="#DejaVuSans-46"/>
       <use x="95.410156" xlink:href="#DejaVuSans-50"/>
      </g>
     </g>
    </g>
    <g id="xtick_3">
     <g id="line2d_3">
      <g>
       <use style="stroke:#000000;stroke-width:0.8;" x="458.4084" xlink:href="#m71753ecc23" y="256.32"/>
      </g>
     </g>
     <g id="text_3">
      <!-- 0.4 -->
      <defs>
       <path d="M 37.796875 64.3125 
L 12.890625 25.390625 
L 37.796875 25.390625 
z
M 35.203125 72.90625 
L 47.609375 72.90625 
L 47.609375 25.390625 
L 58.015625 25.390625 
L 58.015625 17.1875 
L 47.609375 17.1875 
L 47.609375 0 
L 37.796875 0 
L 37.796875 17.1875 
L 4.890625 17.1875 
L 4.890625 26.703125 
z
" id="DejaVuSans-52"/>
      </defs>
      <g transform="translate(450.456837 270.918437)scale(0.1 -0.1)">
       <use xlink:href="#DejaVuSans-48"/>
       <use x="63.623047" xlink:href="#DejaVuSans-46"/>
       <use x="95.410156" xlink:href="#DejaVuSans-52"/>
      </g>
     </g>
    </g>
    <g id="xtick_4">
     <g id="line2d_4">
      <g>
       <use style="stroke:#000000;stroke-width:0.8;" x="595.321691" xlink:href="#m71753ecc23" y="256.32"/>
      </g>
     </g>
     <g id="text_4">
      <!-- 0.6 -->
      <defs>
       <path d="M 33.015625 40.375 
Q 26.375 40.375 22.484375 35.828125 
Q 18.609375 31.296875 18.609375 23.390625 
Q 18.609375 15.53125 22.484375 10.953125 
Q 26.375 6.390625 33.015625 6.390625 
Q 39.65625 6.390625 43.53125 10.953125 
Q 47.40625 15.53125 47.40625 23.390625 
Q 47.40625 31.296875 43.53125 35.828125 
Q 39.65625 40.375 33.015625 40.375 
z
M 52.59375 71.296875 
L 52.59375 62.3125 
Q 48.875 64.0625 45.09375 64.984375 
Q 41.3125 65.921875 37.59375 65.921875 
Q 27.828125 65.921875 22.671875 59.328125 
Q 17.53125 52.734375 16.796875 39.40625 
Q 19.671875 43.65625 24.015625 45.921875 
Q 28.375 48.1875 33.59375 48.1875 
Q 44.578125 48.1875 50.953125 41.515625 
Q 57.328125 34.859375 57.328125 23.390625 
Q 57.328125 12.15625 50.6875 5.359375 
Q 44.046875 -1.421875 33.015625 -1.421875 
Q 20.359375 -1.421875 13.671875 8.265625 
Q 6.984375 17.96875 6.984375 36.375 
Q 6.984375 53.65625 15.1875 63.9375 
Q 23.390625 74.21875 37.203125 74.21875 
Q 40.921875 74.21875 44.703125 73.484375 
Q 48.484375 72.75 52.59375 71.296875 
z
" id="DejaVuSans-54"/>
      </defs>
      <g transform="translate(587.370128 270.918437)scale(0.1 -0.1)">
       <use xlink:href="#DejaVuSans-48"/>
       <use x="63.623047" xlink:href="#DejaVuSans-46"/>
       <use x="95.410156" xlink:href="#DejaVuSans-54"/>
      </g>
     </g>
    </g>
    <g id="xtick_5">
     <g id="line2d_5">
      <g>
       <use style="stroke:#000000;stroke-width:0.8;" x="732.234981" xlink:href="#m71753ecc23" y="256.32"/>
      </g>
     </g>
     <g id="text_5">
      <!-- 0.8 -->
      <defs>
       <path d="M 31.78125 34.625 
Q 24.75 34.625 20.71875 30.859375 
Q 16.703125 27.09375 16.703125 20.515625 
Q 16.703125 13.921875 20.71875 10.15625 
Q 24.75 6.390625 31.78125 6.390625 
Q 38.8125 6.390625 42.859375 10.171875 
Q 46.921875 13.96875 46.921875 20.515625 
Q 46.921875 27.09375 42.890625 30.859375 
Q 38.875 34.625 31.78125 34.625 
z
M 21.921875 38.8125 
Q 15.578125 40.375 12.03125 44.71875 
Q 8.5 49.078125 8.5 55.328125 
Q 8.5 64.0625 14.71875 69.140625 
Q 20.953125 74.21875 31.78125 74.21875 
Q 42.671875 74.21875 48.875 69.140625 
Q 55.078125 64.0625 55.078125 55.328125 
Q 55.078125 49.078125 51.53125 44.71875 
Q 48 40.375 41.703125 38.8125 
Q 48.828125 37.15625 52.796875 32.3125 
Q 56.78125 27.484375 56.78125 20.515625 
Q 56.78125 9.90625 50.3125 4.234375 
Q 43.84375 -1.421875 31.78125 -1.421875 
Q 19.734375 -1.421875 13.25 4.234375 
Q 6.78125 9.90625 6.78125 20.515625 
Q 6.78125 27.484375 10.78125 32.3125 
Q 14.796875 37.15625 21.921875 38.8125 
z
M 18.3125 54.390625 
Q 18.3125 48.734375 21.84375 45.5625 
Q 25.390625 42.390625 31.78125 42.390625 
Q 38.140625 42.390625 41.71875 45.5625 
Q 45.3125 48.734375 45.3125 54.390625 
Q 45.3125 60.0625 41.71875 63.234375 
Q 38.140625 66.40625 31.78125 66.40625 
Q 25.390625 66.40625 21.84375 63.234375 
Q 18.3125 60.0625 18.3125 54.390625 
z
" id="DejaVuSans-56"/>
      </defs>
      <g transform="translate(724.283419 270.918437)scale(0.1 -0.1)">
       <use xlink:href="#DejaVuSans-48"/>
       <use x="63.623047" xlink:href="#DejaVuSans-46"/>
       <use x="95.410156" xlink:href="#DejaVuSans-56"/>
      </g>
     </g>
    </g>
    <g id="xtick_6">
     <g id="line2d_6">
      <g>
       <use style="stroke:#000000;stroke-width:0.8;" x="869.148272" xlink:href="#m71753ecc23" y="256.32"/>
      </g>
     </g>
     <g id="text_6">
      <!-- 1.0 -->
      <defs>
       <path d="M 12.40625 8.296875 
L 28.515625 8.296875 
L 28.515625 63.921875 
L 10.984375 60.40625 
L 10.984375 69.390625 
L 28.421875 72.90625 
L 38.28125 72.90625 
L 38.28125 8.296875 
L 54.390625 8.296875 
L 54.390625 0 
L 12.40625 0 
z
" id="DejaVuSans-49"/>
      </defs>
      <g transform="translate(861.19671 270.918437)scale(0.1 -0.1)">
       <use xlink:href="#DejaVuSans-49"/>
       <use x="63.623047" xlink:href="#DejaVuSans-46"/>
       <use x="95.410156" xlink:href="#DejaVuSans-48"/>
      </g>
     </g>
    </g>
    <g id="xtick_7">
     <g id="line2d_7">
      <g>
       <use style="stroke:#000000;stroke-width:0.8;" x="1006.061563" xlink:href="#m71753ecc23" y="256.32"/>
      </g>
     </g>
     <g id="text_7">
      <!-- 1.2 -->
      <g transform="translate(998.11 270.918437)scale(0.1 -0.1)">
       <use xlink:href="#DejaVuSans-49"/>
       <use x="63.623047" xlink:href="#DejaVuSans-46"/>
       <use x="95.410156" xlink:href="#DejaVuSans-50"/>
      </g>
     </g>
    </g>
    <g id="text_8">
     <!-- Time [s] -->
     <defs>
      <path d="M -0.296875 72.90625 
L 61.375 72.90625 
L 61.375 64.59375 
L 35.5 64.59375 
L 35.5 0 
L 25.59375 0 
L 25.59375 64.59375 
L -0.296875 64.59375 
z
" id="DejaVuSans-84"/>
      <path d="M 9.421875 54.6875 
L 18.40625 54.6875 
L 18.40625 0 
L 9.421875 0 
z
M 9.421875 75.984375 
L 18.40625 75.984375 
L 18.40625 64.59375 
L 9.421875 64.59375 
z
" id="DejaVuSans-105"/>
      <path d="M 52 44.1875 
Q 55.375 50.25 60.0625 53.125 
Q 64.75 56 71.09375 56 
Q 79.640625 56 84.28125 50.015625 
Q 88.921875 44.046875 88.921875 33.015625 
L 88.921875 0 
L 79.890625 0 
L 79.890625 32.71875 
Q 79.890625 40.578125 77.09375 44.375 
Q 74.3125 48.1875 68.609375 48.1875 
Q 61.625 48.1875 57.5625 43.546875 
Q 53.515625 38.921875 53.515625 30.90625 
L 53.515625 0 
L 44.484375 0 
L 44.484375 32.71875 
Q 44.484375 40.625 41.703125 44.40625 
Q 38.921875 48.1875 33.109375 48.1875 
Q 26.21875 48.1875 22.15625 43.53125 
Q 18.109375 38.875 18.109375 30.90625 
L 18.109375 0 
L 9.078125 0 
L 9.078125 54.6875 
L 18.109375 54.6875 
L 18.109375 46.1875 
Q 21.1875 51.21875 25.484375 53.609375 
Q 29.78125 56 35.6875 56 
Q 41.65625 56 45.828125 52.96875 
Q 50 49.953125 52 44.1875 
z
" id="DejaVuSans-109"/>
      <path d="M 56.203125 29.59375 
L 56.203125 25.203125 
L 14.890625 25.203125 
Q 15.484375 15.921875 20.484375 11.0625 
Q 25.484375 6.203125 34.421875 6.203125 
Q 39.59375 6.203125 44.453125 7.46875 
Q 49.3125 8.734375 54.109375 11.28125 
L 54.109375 2.78125 
Q 49.265625 0.734375 44.1875 -0.34375 
Q 39.109375 -1.421875 33.890625 -1.421875 
Q 20.796875 -1.421875 13.15625 6.1875 
Q 5.515625 13.8125 5.515625 26.8125 
Q 5.515625 40.234375 12.765625 48.109375 
Q 20.015625 56 32.328125 56 
Q 43.359375 56 49.78125 48.890625 
Q 56.203125 41.796875 56.203125 29.59375 
z
M 47.21875 32.234375 
Q 47.125 39.59375 43.09375 43.984375 
Q 39.0625 48.390625 32.421875 48.390625 
Q 24.90625 48.390625 20.390625 44.140625 
Q 15.875 39.890625 15.1875 32.171875 
z
" id="DejaVuSans-101"/>
      <path id="DejaVuSans-32"/>
      <path d="M 8.59375 75.984375 
L 29.296875 75.984375 
L 29.296875 69 
L 17.578125 69 
L 17.578125 -6.203125 
L 29.296875 -6.203125 
L 29.296875 -13.1875 
L 8.59375 -13.1875 
z
" id="DejaVuSans-91"/>
      <path d="M 44.28125 53.078125 
L 44.28125 44.578125 
Q 40.484375 46.53125 36.375 47.5 
Q 32.28125 48.484375 27.875 48.484375 
Q 21.1875 48.484375 17.84375 46.4375 
Q 14.5 44.390625 14.5 40.28125 
Q 14.5 37.15625 16.890625 35.375 
Q 19.28125 33.59375 26.515625 31.984375 
L 29.59375 31.296875 
Q 39.15625 29.25 43.1875 25.515625 
Q 47.21875 21.78125 47.21875 15.09375 
Q 47.21875 7.46875 41.1875 3.015625 
Q 35.15625 -1.421875 24.609375 -1.421875 
Q 20.21875 -1.421875 15.453125 -0.5625 
Q 10.6875 0.296875 5.421875 2 
L 5.421875 11.28125 
Q 10.40625 8.6875 15.234375 7.390625 
Q 20.0625 6.109375 24.8125 6.109375 
Q 31.15625 6.109375 34.5625 8.28125 
Q 37.984375 10.453125 37.984375 14.40625 
Q 37.984375 18.0625 35.515625 20.015625 
Q 33.0625 21.96875 24.703125 23.78125 
L 21.578125 24.515625 
Q 13.234375 26.265625 9.515625 29.90625 
Q 5.8125 33.546875 5.8125 39.890625 
Q 5.8125 47.609375 11.28125 51.796875 
Q 16.75 56 26.8125 56 
Q 31.78125 56 36.171875 55.265625 
Q 40.578125 54.546875 44.28125 53.078125 
z
" id="DejaVuSans-115"/>
      <path d="M 30.421875 75.984375 
L 30.421875 -13.1875 
L 9.71875 -13.1875 
L 9.71875 -6.203125 
L 21.390625 -6.203125 
L 21.390625 69 
L 9.71875 69 
L 9.71875 75.984375 
z
" id="DejaVuSans-93"/>
     </defs>
     <g transform="translate(569.917187 284.596563)scale(0.1 -0.1)">
      <use xlink:href="#DejaVuSans-84"/>
      <use x="61.037109" xlink:href="#DejaVuSans-105"/>
      <use x="88.820312" xlink:href="#DejaVuSans-109"/>
      <use x="186.232422" xlink:href="#DejaVuSans-101"/>
      <use x="247.755859" xlink:href="#DejaVuSans-32"/>
      <use x="279.542969" xlink:href="#DejaVuSans-91"/>
      <use x="318.556641" xlink:href="#DejaVuSans-115"/>
      <use x="370.65625" xlink:href="#DejaVuSans-93"/>
     </g>
    </g>
    <g id="text_9">
     <!-- 1e−8 -->
     <defs>
      <path d="M 10.59375 35.5 
L 73.1875 35.5 
L 73.1875 27.203125 
L 10.59375 27.203125 
z
" id="DejaVuSans-8722"/>
     </defs>
     <g transform="translate(1009.542187 283.596563)scale(0.1 -0.1)">
      <use xlink:href="#DejaVuSans-49"/>
      <use x="63.623047" xlink:href="#DejaVuSans-101"/>
      <use x="125.146484" xlink:href="#DejaVuSans-8722"/>
      <use x="208.935547" xlink:href="#DejaVuSans-56"/>
     </g>
    </g>
   </g>
   <g id="matplotlib.axis_2">
    <g id="ytick_1">
     <g id="line2d_8">
      <defs>
       <path d="M 0 0 
L -3.5 0 
" id="m1231c1f3bd" style="stroke:#000000;stroke-width:0.8;"/>
      </defs>
      <g>
       <use style="stroke:#000000;stroke-width:0.8;" x="144" xlink:href="#m1231c1f3bd" y="222.984438"/>
      </g>
     </g>
     <g id="text_10">
      <!-- −1 -->
      <g transform="translate(122.257812 226.783657)scale(0.1 -0.1)">
       <use xlink:href="#DejaVuSans-8722"/>
       <use x="83.789062" xlink:href="#DejaVuSans-49"/>
      </g>
     </g>
    </g>
    <g id="ytick_2">
     <g id="line2d_9">
      <g>
       <use style="stroke:#000000;stroke-width:0.8;" x="144" xlink:href="#m1231c1f3bd" y="187.952585"/>
      </g>
     </g>
     <g id="text_11">
      <!-- 0 -->
      <g transform="translate(130.6375 191.751804)scale(0.1 -0.1)">
       <use xlink:href="#DejaVuSans-48"/>
      </g>
     </g>
    </g>
    <g id="ytick_3">
     <g id="line2d_10">
      <g>
       <use style="stroke:#000000;stroke-width:0.8;" x="144" xlink:href="#m1231c1f3bd" y="152.920732"/>
      </g>
     </g>
     <g id="text_12">
      <!-- 1 -->
      <g transform="translate(130.6375 156.719951)scale(0.1 -0.1)">
       <use xlink:href="#DejaVuSans-49"/>
      </g>
     </g>
    </g>
    <g id="ytick_4">
     <g id="line2d_11">
      <g>
       <use style="stroke:#000000;stroke-width:0.8;" x="144" xlink:href="#m1231c1f3bd" y="117.888879"/>
      </g>
     </g>
     <g id="text_13">
      <!-- 2 -->
      <g transform="translate(130.6375 121.688098)scale(0.1 -0.1)">
       <use xlink:href="#DejaVuSans-50"/>
      </g>
     </g>
    </g>
    <g id="ytick_5">
     <g id="line2d_12">
      <g>
       <use style="stroke:#000000;stroke-width:0.8;" x="144" xlink:href="#m1231c1f3bd" y="82.857026"/>
      </g>
     </g>
     <g id="text_14">
      <!-- 3 -->
      <defs>
       <path d="M 40.578125 39.3125 
Q 47.65625 37.796875 51.625 33 
Q 55.609375 28.21875 55.609375 21.1875 
Q 55.609375 10.40625 48.1875 4.484375 
Q 40.765625 -1.421875 27.09375 -1.421875 
Q 22.515625 -1.421875 17.65625 -0.515625 
Q 12.796875 0.390625 7.625 2.203125 
L 7.625 11.71875 
Q 11.71875 9.328125 16.59375 8.109375 
Q 21.484375 6.890625 26.8125 6.890625 
Q 36.078125 6.890625 40.9375 10.546875 
Q 45.796875 14.203125 45.796875 21.1875 
Q 45.796875 27.640625 41.28125 31.265625 
Q 36.765625 34.90625 28.71875 34.90625 
L 20.21875 34.90625 
L 20.21875 43.015625 
L 29.109375 43.015625 
Q 36.375 43.015625 40.234375 45.921875 
Q 44.09375 48.828125 44.09375 54.296875 
Q 44.09375 59.90625 40.109375 62.90625 
Q 36.140625 65.921875 28.71875 65.921875 
Q 24.65625 65.921875 20.015625 65.03125 
Q 15.375 64.15625 9.8125 62.3125 
L 9.8125 71.09375 
Q 15.4375 72.65625 20.34375 73.4375 
Q 25.25 74.21875 29.59375 74.21875 
Q 40.828125 74.21875 47.359375 69.109375 
Q 53.90625 64.015625 53.90625 55.328125 
Q 53.90625 49.265625 50.4375 45.09375 
Q 46.96875 40.921875 40.578125 39.3125 
z
" id="DejaVuSans-51"/>
      </defs>
      <g transform="translate(130.6375 86.656244)scale(0.1 -0.1)">
       <use xlink:href="#DejaVuSans-51"/>
      </g>
     </g>
    </g>
    <g id="ytick_6">
     <g id="line2d_13">
      <g>
       <use style="stroke:#000000;stroke-width:0.8;" x="144" xlink:href="#m1231c1f3bd" y="47.825173"/>
      </g>
     </g>
     <g id="text_15">
      <!-- 4 -->
      <g transform="translate(130.6375 51.624391)scale(0.1 -0.1)">
       <use xlink:href="#DejaVuSans-52"/>
      </g>
     </g>
    </g>
    <g id="text_16">
     <!-- Voltage [V] -->
     <defs>
      <path d="M 28.609375 0 
L 0.78125 72.90625 
L 11.078125 72.90625 
L 34.1875 11.53125 
L 57.328125 72.90625 
L 67.578125 72.90625 
L 39.796875 0 
z
" id="DejaVuSans-86"/>
      <path d="M 30.609375 48.390625 
Q 23.390625 48.390625 19.1875 42.75 
Q 14.984375 37.109375 14.984375 27.296875 
Q 14.984375 17.484375 19.15625 11.84375 
Q 23.34375 6.203125 30.609375 6.203125 
Q 37.796875 6.203125 41.984375 11.859375 
Q 46.1875 17.53125 46.1875 27.296875 
Q 46.1875 37.015625 41.984375 42.703125 
Q 37.796875 48.390625 30.609375 48.390625 
z
M 30.609375 56 
Q 42.328125 56 49.015625 48.375 
Q 55.71875 40.765625 55.71875 27.296875 
Q 55.71875 13.875 49.015625 6.21875 
Q 42.328125 -1.421875 30.609375 -1.421875 
Q 18.84375 -1.421875 12.171875 6.21875 
Q 5.515625 13.875 5.515625 27.296875 
Q 5.515625 40.765625 12.171875 48.375 
Q 18.84375 56 30.609375 56 
z
" id="DejaVuSans-111"/>
      <path d="M 9.421875 75.984375 
L 18.40625 75.984375 
L 18.40625 0 
L 9.421875 0 
z
" id="DejaVuSans-108"/>
      <path d="M 18.3125 70.21875 
L 18.3125 54.6875 
L 36.8125 54.6875 
L 36.8125 47.703125 
L 18.3125 47.703125 
L 18.3125 18.015625 
Q 18.3125 11.328125 20.140625 9.421875 
Q 21.96875 7.515625 27.59375 7.515625 
L 36.8125 7.515625 
L 36.8125 0 
L 27.59375 0 
Q 17.1875 0 13.234375 3.875 
Q 9.28125 7.765625 9.28125 18.015625 
L 9.28125 47.703125 
L 2.6875 47.703125 
L 2.6875 54.6875 
L 9.28125 54.6875 
L 9.28125 70.21875 
z
" id="DejaVuSans-116"/>
      <path d="M 34.28125 27.484375 
Q 23.390625 27.484375 19.1875 25 
Q 14.984375 22.515625 14.984375 16.5 
Q 14.984375 11.71875 18.140625 8.90625 
Q 21.296875 6.109375 26.703125 6.109375 
Q 34.1875 6.109375 38.703125 11.40625 
Q 43.21875 16.703125 43.21875 25.484375 
L 43.21875 27.484375 
z
M 52.203125 31.203125 
L 52.203125 0 
L 43.21875 0 
L 43.21875 8.296875 
Q 40.140625 3.328125 35.546875 0.953125 
Q 30.953125 -1.421875 24.3125 -1.421875 
Q 15.921875 -1.421875 10.953125 3.296875 
Q 6 8.015625 6 15.921875 
Q 6 25.140625 12.171875 29.828125 
Q 18.359375 34.515625 30.609375 34.515625 
L 43.21875 34.515625 
L 43.21875 35.40625 
Q 43.21875 41.609375 39.140625 45 
Q 35.0625 48.390625 27.6875 48.390625 
Q 23 48.390625 18.546875 47.265625 
Q 14.109375 46.140625 10.015625 43.890625 
L 10.015625 52.203125 
Q 14.9375 54.109375 19.578125 55.046875 
Q 24.21875 56 28.609375 56 
Q 40.484375 56 46.34375 49.84375 
Q 52.203125 43.703125 52.203125 31.203125 
z
" id="DejaVuSans-97"/>
      <path d="M 45.40625 27.984375 
Q 45.40625 37.75 41.375 43.109375 
Q 37.359375 48.484375 30.078125 48.484375 
Q 22.859375 48.484375 18.828125 43.109375 
Q 14.796875 37.75 14.796875 27.984375 
Q 14.796875 18.265625 18.828125 12.890625 
Q 22.859375 7.515625 30.078125 7.515625 
Q 37.359375 7.515625 41.375 12.890625 
Q 45.40625 18.265625 45.40625 27.984375 
z
M 54.390625 6.78125 
Q 54.390625 -7.171875 48.1875 -13.984375 
Q 42 -20.796875 29.203125 -20.796875 
Q 24.46875 -20.796875 20.265625 -20.09375 
Q 16.0625 -19.390625 12.109375 -17.921875 
L 12.109375 -9.1875 
Q 16.0625 -11.328125 19.921875 -12.34375 
Q 23.78125 -13.375 27.78125 -13.375 
Q 36.625 -13.375 41.015625 -8.765625 
Q 45.40625 -4.15625 45.40625 5.171875 
L 45.40625 9.625 
Q 42.625 4.78125 38.28125 2.390625 
Q 33.9375 0 27.875 0 
Q 17.828125 0 11.671875 7.65625 
Q 5.515625 15.328125 5.515625 27.984375 
Q 5.515625 40.671875 11.671875 48.328125 
Q 17.828125 56 27.875 56 
Q 33.9375 56 38.28125 53.609375 
Q 42.625 51.21875 45.40625 46.390625 
L 45.40625 54.6875 
L 54.390625 54.6875 
z
" id="DejaVuSans-103"/>
     </defs>
     <g transform="translate(116.178125 173.489219)rotate(-90)scale(0.1 -0.1)">
      <use xlink:href="#DejaVuSans-86"/>
      <use x="68.298828" xlink:href="#DejaVuSans-111"/>
      <use x="129.480469" xlink:href="#DejaVuSans-108"/>
      <use x="157.263672" xlink:href="#DejaVuSans-116"/>
      <use x="196.472656" xlink:href="#DejaVuSans-97"/>
      <use x="257.751953" xlink:href="#DejaVuSans-103"/>
      <use x="321.228516" xlink:href="#DejaVuSans-101"/>
      <use x="382.751953" xlink:href="#DejaVuSans-32"/>
      <use x="414.539062" xlink:href="#DejaVuSans-91"/>
      <use x="453.552734" xlink:href="#DejaVuSans-86"/>
      <use x="521.960938" xlink:href="#DejaVuSans-93"/>
     </g>
    </g>
   </g>
   <g id="line2d_14">
    <path clip-path="url(#p80ba25038a)" d="M 184.581818 187.952582 
L 289.079381 187.841477 
L 290.469051 187.521246 
L 291.653351 187.020167 
L 292.782886 186.296822 
L 293.939803 185.283427 
L 295.185714 183.884147 
L 296.609612 181.933633 
L 298.368948 179.121969 
L 300.949764 174.530039 
L 307.38551 162.955018 
L 309.849949 159.032413 
L 311.86942 156.222414 
L 313.690367 154.059323 
L 315.429166 152.331811 
L 317.147427 150.9332 
L 318.886226 149.797607 
L 320.761938 148.840607 
L 322.788255 148.059292 
L 325.156855 147.399852 
L 327.908812 146.879699 
L 331.530169 146.454552 
L 336.109918 146.167466 
L 339.341072 146.146342 
L 340.929266 146.346024 
L 342.209405 146.733581 
L 343.366323 147.32618 
L 344.516394 148.180011 
L 345.693849 149.338725 
L 346.980833 150.926193 
L 348.432114 153.088356 
L 350.088765 155.974476 
L 352.108236 159.964408 
L 354.956033 166.133826 
L 359.809609 176.66789 
L 361.527871 179.829336 
L 362.944923 181.988408 
L 364.238754 183.56782 
L 365.505202 184.769505 
L 366.792187 185.68769 
L 368.168165 186.396354 
L 369.722063 186.941764 
L 371.577238 187.349494 
L 373.986912 187.639277 
L 377.553503 187.823886 
L 384.447087 187.917938 
L 404.751328 187.912726 
L 406.298448 187.65005 
L 407.530668 187.217623 
L 408.667048 186.58102 
L 409.803428 185.684269 
L 411.008265 184.440607 
L 412.356861 182.714566 
L 413.972438 180.264624 
L 416.14936 176.524581 
L 425.213019 160.509381 
L 427.376249 157.322435 
L 429.258807 154.933669 
L 430.997606 153.07826 
L 432.667948 151.614709 
L 434.351982 150.436483 
L 436.097626 149.494056 
L 437.945955 148.75548 
L 439.944889 148.197142 
L 442.108119 147.823913 
L 443.887992 147.726139 
L 445.277662 147.865706 
L 446.441425 148.198823 
L 447.564114 148.753728 
L 448.679957 149.556413 
L 449.884794 150.711168 
L 451.158088 152.24819 
L 452.589516 154.336464 
L 454.232476 157.142473 
L 456.238256 161.033909 
L 459.065515 167.055801 
L 463.686339 176.90296 
L 465.390909 179.980299 
L 466.801116 182.086568 
L 468.101792 183.641446 
L 469.375086 184.822646 
L 470.675762 185.727992 
L 472.072278 186.427172 
L 473.646781 186.961994 
L 475.54303 187.362996 
L 478.041697 187.650294 
L 481.841041 187.840781 
L 486.1547 187.858692 
L 487.941418 187.655441 
L 489.276323 187.284372 
L 490.467468 186.72221 
L 491.638077 185.919035 
L 492.84976 184.810581 
L 494.177818 183.283294 
L 495.731784 181.138995 
L 497.717027 177.992991 
L 501.078248 172.174834 
L 505.630615 164.394939 
L 508.067672 160.661111 
L 509.984458 158.115174 
L 511.661646 156.244894 
L 513.222457 154.827249 
L 514.742195 153.741956 
L 516.248241 152.93685 
L 517.726904 152.393292 
L 519.109729 152.112407 
L 520.389868 152.078951 
L 521.553631 152.273098 
L 522.67632 152.691764 
L 523.792163 153.35134 
L 524.955926 154.305853 
L 526.201837 155.625965 
L 527.577816 157.422255 
L 529.138627 159.842185 
L 531.000648 163.160697 
L 533.49247 168.095178 
L 538.667792 178.455075 
L 540.262832 181.067134 
L 541.630938 182.896304 
L 542.924769 184.263664 
L 544.204908 185.299493 
L 545.546658 186.100357 
L 547.018476 186.716757 
L 548.723047 187.183721 
L 550.852048 187.526052 
L 553.795684 187.757551 
L 558.683489 187.890278 
L 575.119929 187.991659 
L 577.248931 187.831357 
L 578.638601 187.509192 
L 579.822901 187.006148 
L 580.952435 186.280941 
L 582.109353 185.265801 
L 583.355264 183.864942 
L 584.779162 181.913097 
L 586.545343 179.088899 
L 589.13985 174.470671 
L 595.533701 162.971963 
L 597.99814 159.047607 
L 600.011518 156.243594 
L 601.832465 154.077592 
L 603.571264 152.347506 
L 605.303217 150.936668 
L 607.042016 149.80118 
L 608.917728 148.84425 
L 610.95089 148.060658 
L 613.196268 147.430575 
L 615.886614 146.911088 
L 619.090385 146.515158 
L 623.82074 146.190833 
L 630.166671 145.977243 
L 635.967208 145.939654 
L 637.644395 146.136288 
L 638.951917 146.510148 
L 640.101989 147.069291 
L 641.245215 147.87639 
L 642.436361 148.994432 
L 643.743883 150.533696 
L 645.236237 152.646503 
L 647.036647 155.603864 
L 649.43263 160.003728 
L 656.463127 173.170944 
L 658.263537 175.936057 
L 659.796966 177.899785 
L 661.186636 179.3312 
L 662.501003 180.374064 
L 663.760606 181.096371 
L 664.98598 181.547491 
L 666.190817 181.757051 
L 667.395654 181.742912 
L 668.607336 181.506577 
L 669.798482 181.047267 
L 670.975936 180.351296 
L 672.167082 179.383531 
L 673.440375 178.053967 
L 674.891656 176.201742 
L 676.68522 173.528195 
L 679.382412 169.057136 
L 684.639882 160.31398 
L 686.857878 157.089253 
L 688.754127 154.712058 
L 690.520308 152.845659 
L 692.23857 151.346646 
L 694.005642 150.103225 
L 695.778669 149.11841 
L 697.715992 148.289941 
L 699.947678 147.585906 
L 702.466883 147.030021 
L 705.574815 146.586202 
L 709.326239 146.27554 
L 715.391498 146.04517 
L 729.657862 145.864091 
L 731.773173 146.01767 
L 733.128614 146.330855 
L 734.299223 146.824839 
L 735.421912 147.541801 
L 736.599366 148.572613 
L 737.831586 149.957598 
L 739.200719 151.844448 
L 740.747839 154.371247 
L 742.582477 157.816002 
L 744.944231 162.759211 
L 752.39916 178.726757 
L 753.898361 181.203264 
L 755.226419 182.983166 
L 756.492867 184.318997 
L 757.766161 185.343133 
L 759.101066 186.131606 
L 760.572883 186.739097 
L 762.291145 187.200369 
L 764.44753 187.53772 
L 767.480159 187.769428 
L 772.806086 187.920455 
L 777.926643 187.891932 
L 779.59014 187.659395 
L 780.863433 187.260352 
L 782.013505 186.665504 
L 783.149885 185.822116 
L 784.341031 184.650787 
L 785.655398 183.03164 
L 787.202519 180.752695 
L 789.215144 177.361843 
L 793.015309 170.421476 
L 797.006332 163.321006 
L 799.525536 159.27592 
L 801.565544 156.40624 
L 803.400182 154.199465 
L 805.145827 152.441286 
L 806.843552 151.036824 
L 808.616579 149.859368 
L 810.464908 148.900091 
L 812.456997 148.114712 
L 814.75714 147.454782 
L 817.392721 146.935154 
L 820.726559 146.518556 
L 825.16255 146.221486 
L 827.989809 146.216616 
L 829.509547 146.420642 
L 830.755458 146.808024 
L 831.898684 147.401113 
L 833.021373 148.238094 
L 834.219364 149.419894 
L 835.513195 151.022111 
L 836.971321 153.20237 
L 838.641663 156.121981 
L 840.674826 160.149663 
L 843.570542 166.432087 
L 848.252976 176.589415 
L 849.978084 179.773772 
L 851.395136 181.942843 
L 852.695813 183.539076 
L 853.962261 184.74742 
L 855.249246 185.671322 
L 856.625224 186.384794 
L 858.172344 186.932235 
L 860.020674 187.342687 
L 862.416656 187.634739 
L 865.949019 187.821245 
L 872.726501 187.917037 
L 899.493049 187.951834 
L 996.218182 187.952582 
L 996.218182 187.952582 
" style="fill:none;stroke:#ff0000;stroke-linecap:square;stroke-width:1.5;"/>
   </g>
   <g id="line2d_15">
    <path clip-path="url(#p80ba25038a)" d="M 184.581818 145.914361 
L 303.682005 146.024466 
L 305.051138 146.367533 
L 306.214901 146.889473 
L 307.351281 147.65033 
L 308.52189 148.713301 
L 309.767801 150.153916 
L 311.14378 152.093805 
L 312.725128 154.724918 
L 314.60084 158.300332 
L 317.058434 163.499949 
L 323.828796 178.092677 
L 325.389608 180.771917 
L 326.745049 182.671414 
L 328.018343 184.083678 
L 329.284791 185.162021 
L 330.599158 185.99105 
L 332.036748 186.632016 
L 333.686553 187.118738 
L 335.726561 187.478706 
L 338.492209 187.72546 
L 343.051422 187.879604 
L 353.470523 187.96755 
L 355.524223 187.800375 
L 356.900201 187.471312 
L 358.077656 186.962152 
L 359.20719 186.228431 
L 360.364108 185.204742 
L 361.616864 183.787007 
L 363.047608 181.815722 
L 364.827481 178.959267 
L 367.476753 174.233663 
L 373.651474 163.12536 
L 376.13645 159.153312 
L 378.162767 156.318268 
L 379.990559 154.133216 
L 381.729358 152.393538 
L 383.413392 151.009184 
L 385.138499 149.866795 
L 386.993674 148.903945 
L 388.978917 148.121158 
L 391.285906 147.458916 
L 393.928332 146.937572 
L 397.296399 146.515578 
L 401.4791 146.220329 
L 408.810807 145.993813 
L 418.559033 145.905043 
L 420.284141 146.104479 
L 421.591663 146.477673 
L 422.769117 147.054753 
L 423.905497 147.869419 
L 425.082952 148.995273 
L 426.369937 150.547884 
L 427.780144 152.608738 
L 429.416257 155.411952 
L 431.394654 159.270227 
L 434.146612 165.174716 
L 439.376699 176.460494 
L 441.122344 179.647734 
L 442.559933 181.827427 
L 443.874301 183.427787 
L 445.147595 184.635298 
L 446.441425 185.559746 
L 447.824249 186.273661 
L 449.378215 186.82138 
L 451.240236 187.234324 
L 453.65744 187.530732 
L 456.737989 187.681004 
L 458.825917 187.58572 
L 460.270352 187.305474 
L 461.48888 186.843851 
L 462.632106 186.170813 
L 463.782178 185.230682 
L 465.007552 183.931867 
L 466.390376 182.125302 
L 468.053873 179.56397 
L 470.354016 175.574462 
L 478.452437 161.206714 
L 480.697815 157.810895 
L 482.621447 155.292259 
L 484.402209 153.318175 
L 486.120471 151.738582 
L 487.838733 150.457782 
L 489.591223 149.425008 
L 491.473781 148.576467 
L 493.506943 147.904941 
L 495.861852 147.369444 
L 498.716494 146.971027 
L 501.228853 146.837696 
L 502.851275 146.965247 
L 504.158797 147.291779 
L 505.302023 147.799951 
L 506.458941 148.558811 
L 507.670623 149.628088 
L 508.984991 151.095712 
L 510.463654 153.095299 
L 512.195608 155.830302 
L 514.406757 159.766222 
L 518.815365 168.199114 
L 521.670007 173.383867 
L 523.566256 176.385736 
L 525.140759 178.478536 
L 526.564657 180.012749 
L 527.906408 181.140172 
L 529.207084 181.948924 
L 530.480377 182.483363 
L 531.726288 182.768757 
L 532.958508 182.824882 
L 534.183882 182.658943 
L 535.388719 182.271063 
L 536.566173 181.656037 
L 537.743628 180.785159 
L 538.975847 179.589427 
L 540.34498 177.938148 
L 541.973221 175.607164 
L 544.177525 172.029378 
L 552.097959 158.843063 
L 554.137967 156.040959 
L 555.96576 153.898187 
L 557.704559 152.195327 
L 559.395438 150.838158 
L 561.154773 149.705438 
L 563.057868 148.751661 
L 565.043111 147.999107 
L 567.452785 147.338616 
L 570.08152 146.847049 
L 573.572809 146.440855 
L 578.063565 146.161406 
L 586.634337 145.921613 
L 590.988179 145.965718 
L 592.528454 146.210766 
L 593.788056 146.640431 
L 594.917591 147.264139 
L 596.033434 148.132858 
L 597.231426 149.353508 
L 598.532102 151.005575 
L 599.970444 153.196615 
L 601.661324 156.192998 
L 603.742406 160.362149 
L 606.775035 166.993556 
L 611.087804 176.371786 
L 612.840294 179.638573 
L 614.264192 181.843307 
L 615.564868 183.461085 
L 616.82447 184.682291 
L 618.111455 185.623388 
L 619.480588 186.348117 
L 621.014017 186.904157 
L 622.84181 187.32247 
L 625.196718 187.62103 
L 628.633242 187.813108 
L 635.097808 187.91376 
L 652.205124 187.912357 
L 653.957614 187.653968 
L 655.360975 187.225157 
L 656.668497 186.590451 
L 657.98971 185.696401 
L 659.406763 184.460562 
L 661.029185 182.736349 
L 663.062348 180.228646 
L 666.950685 174.984332 
L 669.887475 171.220177 
L 671.906946 168.979617 
L 673.584134 167.438012 
L 675.09018 166.346697 
L 676.507233 165.588033 
L 677.86952 165.104716 
L 679.177042 164.871694 
L 680.409262 164.874 
L 681.586716 165.098834 
L 682.736788 165.547984 
L 683.907396 166.249953 
L 685.139616 167.2564 
L 686.481366 168.649592 
L 688.007949 170.569828 
L 689.876816 173.300744 
L 695.785514 182.23292 
L 697.216258 183.807115 
L 698.5717 184.975265 
L 699.940833 185.864782 
L 701.398959 186.546537 
L 703.048764 187.067374 
L 705.034007 187.452345 
L 707.649051 187.719512 
L 711.626382 187.879934 
L 719.978093 187.945731 
L 746.655647 187.883878 
L 748.12062 187.594209 
L 749.325457 187.131098 
L 750.454991 186.456659 
L 751.598217 185.509121 
L 752.816746 184.200779 
L 754.19957 182.373153 
L 755.876758 179.76363 
L 758.211129 175.679315 
L 766.035724 161.698807 
L 768.329021 158.172203 
L 770.27319 155.575793 
L 772.066754 153.542558 
L 773.791862 151.916229 
L 775.544352 150.573002 
L 777.365299 149.467887 
L 779.213628 148.600253 
L 781.281019 147.873518 
L 783.677001 147.278186 
L 786.593254 146.809075 
L 790.070852 146.493858 
L 792.590878 146.462995 
L 794.096924 146.658087 
L 795.335989 147.043263 
L 796.465524 147.630291 
L 797.588213 148.467728 
L 798.786204 149.649773 
L 800.080035 151.251674 
L 801.510779 153.386431 
L 803.174275 156.284031 
L 805.207438 160.299277 
L 808.089463 166.535 
L 812.771897 176.664432 
L 814.490159 179.823545 
L 815.907211 181.982436 
L 817.201042 183.562463 
L 818.460644 184.759394 
L 819.747629 185.680013 
L 821.123608 186.390817 
L 822.670728 186.936132 
L 824.525903 187.346109 
L 826.935577 187.63775 
L 830.536397 187.827748 
L 838.196695 187.958656 
L 843.132419 187.899231 
L 844.734305 187.650622 
L 845.987061 187.233737 
L 847.130287 186.616996 
L 848.266668 185.745984 
L 849.464659 184.537354 
L 850.792718 182.867747 
L 852.374066 180.501156 
L 854.461994 176.943384 
L 859.308725 168.077603 
L 862.669946 162.2259 
L 865.0317 158.538766 
L 867.010097 155.849388 
L 868.817353 153.759657 
L 870.54958 152.090687 
L 872.288378 150.7242 
L 874.081943 149.602305 
L 875.9645 148.688709 
L 878.093502 147.915451 
L 880.503176 147.291568 
L 883.296207 146.804521 
L 886.931255 146.414056 
L 891.483622 146.152753 
L 898.069151 145.994339 
L 916.367612 145.91811 
L 996.218182 145.914361 
L 996.218182 145.914361 
" style="fill:none;stroke:#008000;stroke-linecap:square;stroke-width:1.5;"/>
   </g>
   <g id="line2d_16">
    <path clip-path="url(#p80ba25038a)" d="M 184.581818 51.990377 
L 297.225722 50.148641 
L 300.717011 50.393435 
L 303.148043 50.776587 
L 305.06483 51.296016 
L 306.707789 51.972786 
L 308.145379 52.807657 
L 309.446055 53.815632 
L 310.746731 55.118366 
L 311.978951 56.670181 
L 313.279627 58.679894 
L 314.64876 61.220697 
L 316.223263 64.636329 
L 318.482332 70.149097 
L 321.562881 77.592281 
L 323.205841 80.964208 
L 324.64343 83.415932 
L 325.944106 85.221552 
L 327.244783 86.663273 
L 328.545459 87.787321 
L 329.914592 88.685272 
L 331.420638 89.404807 
L 333.132054 89.965602 
L 335.117297 90.373719 
L 337.581736 90.642666 
L 340.799198 90.754386 
L 344.769684 90.663906 
L 348.671713 90.36105 
L 351.752262 89.912255 
L 354.216701 89.34126 
L 356.338857 88.623792 
L 358.187186 87.763105 
L 359.830146 86.758672 
L 361.404649 85.535873 
L 362.910695 84.086711 
L 364.416741 82.331767 
L 365.99809 80.141145 
L 367.709506 77.37864 
L 369.749445 73.639634 
L 377.00585 59.879458 
L 378.717266 57.335671 
L 380.360225 55.286519 
L 381.934728 53.673004 
L 383.509231 52.369772 
L 385.15219 51.294483 
L 386.932063 50.398982 
L 388.917306 49.658461 
L 391.176375 49.060349 
L 393.914641 48.574711 
L 397.40593 48.191341 
L 402.334808 47.89007 
L 409.214701 47.700557 
L 414.55432 47.748163 
L 417.840239 47.983818 
L 420.167765 48.358982 
L 422.016094 48.869161 
L 423.590597 49.526222 
L 425.028186 50.37267 
L 426.328863 51.401003 
L 427.561082 52.657668 
L 428.793302 54.235232 
L 430.093978 56.285994 
L 431.463111 58.885196 
L 433.037614 62.381575 
L 435.36514 68.181964 
L 438.171862 75.05577 
L 439.746365 78.346599 
L 441.115498 80.735646 
L 442.416174 82.583364 
L 443.716851 84.046553 
L 445.017527 85.172007 
L 446.318203 86.013581 
L 447.755793 86.675839 
L 449.330296 87.146944 
L 451.041712 87.425861 
L 453.000256 87.511645 
L 455.060801 87.374883 
L 457.114501 87.013516 
L 459.031287 86.448401 
L 460.742703 85.717894 
L 462.317206 84.814019 
L 463.823252 83.698265 
L 465.329298 82.294204 
L 466.766888 80.650375 
L 468.272934 78.58667 
L 469.915893 75.936803 
L 471.764223 72.516829 
L 474.570945 66.782217 
L 477.788408 60.331287 
L 479.705194 56.995097 
L 481.348153 54.569603 
L 482.922656 52.642494 
L 484.409055 51.164321 
L 485.915101 49.971376 
L 487.489604 49.008691 
L 489.132564 48.26561 
L 490.912436 47.71089 
L 492.760766 47.366113 
L 494.677552 47.227846 
L 496.594338 47.305069 
L 498.442667 47.598791 
L 500.154084 48.094386 
L 501.728586 48.779445 
L 503.234633 49.682505 
L 504.672222 50.811671 
L 506.109812 52.240118 
L 507.547401 53.997718 
L 509.053447 56.205582 
L 510.696407 59.01998 
L 512.750106 63.006234 
L 518.158181 73.744878 
L 519.869597 76.508863 
L 521.375644 78.530985 
L 522.813233 80.093238 
L 524.182366 81.262488 
L 525.551499 82.14775 
L 526.920632 82.779996 
L 528.358221 83.204845 
L 529.864268 83.420419 
L 531.438771 83.4247 
L 533.08173 83.2122 
L 534.793146 82.771099 
L 536.573019 82.081232 
L 538.352892 81.153853 
L 540.201221 79.931665 
L 542.021141 78.461678 
L 543.937927 76.623316 
L 545.998472 74.324935 
L 548.325998 71.37228 
L 551.33809 67.151029 
L 557.499189 58.421986 
L 559.895171 55.466031 
L 562.017327 53.184852 
L 564.071027 51.299262 
L 566.056269 49.769931 
L 568.109969 48.46646 
L 570.232125 47.380323 
L 572.559651 46.44451 
L 575.092546 45.669767 
L 577.967726 45.025934 
L 580.569078 44.64 
L 581.048275 44.750721 
L 581.322101 45.089311 
L 581.527471 45.72619 
L 581.732841 47.069467 
L 581.938211 49.722264 
L 582.212038 56.517624 
L 583.033517 82.157795 
L 583.307344 84.734427 
L 583.58117 85.722862 
L 583.854997 86.07138 
L 584.265737 86.201241 
L 585.361043 86.165479 
L 589.194615 86.036451 
L 592.069794 86.151719 
L 594.260407 86.455186 
L 595.971823 86.907081 
L 597.409413 87.504628 
L 598.710089 88.282117 
L 599.922525 89.270793 
L 601.086288 90.517033 
L 602.250051 92.107865 
L 603.413814 94.084782 
L 604.646033 96.616645 
L 606.083623 100.098076 
L 608.137322 105.733107 
L 610.944045 113.36028 
L 612.450091 116.806275 
L 613.750767 119.256398 
L 614.982987 121.120899 
L 616.215206 122.579777 
L 617.447426 123.692245 
L 618.748102 124.562074 
L 620.185692 125.243236 
L 621.828651 125.760063 
L 623.813894 126.13427 
L 626.34679 126.371918 
L 630.043449 126.476183 
L 636.857144 126.406927 
L 665.198195 125.965583 
L 667.320351 126.217575 
L 668.826397 126.617273 
L 669.99016 127.15227 
L 671.01701 127.877598 
L 671.906946 128.77571 
L 672.796883 130.003901 
L 673.686819 131.644022 
L 674.576756 133.768942 
L 675.535149 136.64446 
L 676.698912 140.900714 
L 678.821068 149.77623 
L 680.327114 155.563261 
L 681.42242 158.948522 
L 682.380813 161.258811 
L 683.339206 163.007293 
L 684.297599 164.285285 
L 685.255992 165.194605 
L 686.282842 165.864852 
L 687.446605 166.357182 
L 688.884194 166.71115 
L 690.800981 166.933571 
L 693.738318 167.022636 
L 699.954524 166.936643 
L 753.138492 165.660045 
L 870.255216 162.95369 
L 872.651199 163.099263 
L 874.088788 163.400938 
L 875.115638 163.841276 
L 875.937118 164.428425 
L 876.690141 165.245644 
L 877.374707 166.312488 
L 878.059274 167.78597 
L 878.812297 169.991524 
L 879.633776 173.200256 
L 880.592169 177.976825 
L 883.946545 195.862358 
L 884.768025 198.625654 
L 885.521048 200.469636 
L 886.274071 201.77693 
L 887.027094 202.67698 
L 887.848574 203.326867 
L 888.806967 203.792266 
L 889.97073 204.099256 
L 891.613689 204.281676 
L 894.420412 204.332734 
L 902.909036 204.167838 
L 996.153833 202.093693 
L 996.153833 202.093693 
" style="fill:none;stroke:#008000;stroke-dasharray:5.55,2.4;stroke-dashoffset:0;stroke-width:1.5;"/>
   </g>
   <g id="line2d_17">
    <path clip-path="url(#p80ba25038a)" d="M 184.581818 94.028601 
L 296.404242 92.202799 
L 300.237815 92.45749 
L 305.407113 92.867435 
L 306.981616 92.690888 
L 308.693032 92.259633 
L 313.62191 90.846575 
L 314.991043 90.780289 
L 316.428633 90.939216 
L 318.345419 91.403616 
L 320.809858 91.971715 
L 322.247447 92.071018 
L 323.82195 91.946942 
L 327.039413 91.381401 
L 329.640765 91.065615 
L 332.652858 90.944019 
L 345.24888 90.676589 
L 349.219366 90.290162 
L 352.299915 89.775376 
L 357.50262 88.823284 
L 358.940209 88.861462 
L 360.377799 89.126254 
L 362.020758 89.664977 
L 366.751113 91.366355 
L 368.257159 91.573043 
L 369.749445 91.546022 
L 371.460861 91.279075 
L 374.404497 90.541126 
L 377.485046 89.858264 
L 380.017942 89.531131 
L 382.961578 89.389989 
L 387.41126 89.430624 
L 401.718699 89.662015 
L 414.14358 89.786119 
L 418.182522 90.088924 
L 420.920788 90.23575 
L 422.495291 90.099132 
L 424.001337 89.743259 
L 425.849666 89.061174 
L 429.340955 87.727211 
L 430.710088 87.466319 
L 432.010764 87.446747 
L 433.379897 87.662665 
L 435.228227 88.211148 
L 437.692666 88.920121 
L 439.198712 89.108692 
L 440.841672 89.0751 
L 443.922221 88.718803 
L 447.618879 88.392937 
L 453.684823 87.910477 
L 456.429934 87.435547 
L 461.769553 86.407495 
L 463.344055 86.414285 
L 465.055472 86.650287 
L 470.18972 87.539603 
L 471.764223 87.464805 
L 473.475639 87.148306 
L 480.047477 85.659761 
L 482.03272 85.615622 
L 484.340598 85.797462 
L 487.831887 86.323682 
L 495.225205 87.687458 
L 498.031928 88.420366 
L 500.290997 89.242122 
L 503.097719 90.532983 
L 506.452095 92.026899 
L 509.874927 93.257741 
L 513.776956 94.459862 
L 515.625285 94.806856 
L 517.131332 94.863491 
L 518.500465 94.68828 
L 519.869597 94.284004 
L 521.4441 93.568656 
L 523.70317 92.256324 
L 527.126002 90.285925 
L 529.248158 89.341194 
L 531.164944 88.722805 
L 533.013273 88.355633 
L 534.72469 88.232062 
L 536.299192 88.338066 
L 537.736782 88.663728 
L 539.174371 89.226228 
L 540.817331 90.118145 
L 543.86947 92.098152 
L 546.272299 93.523244 
L 548.120628 94.359956 
L 549.763588 94.865045 
L 551.33809 95.118692 
L 552.844137 95.141393 
L 554.41864 94.940996 
L 556.130056 94.492593 
L 558.183755 93.710484 
L 561.264304 92.265088 
L 566.124726 90.001678 
L 569.136818 88.861702 
L 572.148911 87.965218 
L 575.366373 87.24593 
L 578.926119 86.682127 
L 580.774448 86.543054 
L 581.116731 86.704318 
L 581.322101 86.996585 
L 581.527471 87.639455 
L 581.732841 88.988618 
L 581.938211 91.64716 
L 582.212038 98.450017 
L 583.033517 124.111557 
L 583.307344 126.694985 
L 583.58117 127.690041 
L 583.854997 128.04504 
L 584.265737 128.184289 
L 585.361043 128.172069 
L 590.084552 128.087174 
L 592.412078 127.953442 
L 593.918124 127.643304 
L 595.287257 127.126964 
L 596.724846 126.341831 
L 598.710089 124.977878 
L 601.360114 123.181204 
L 602.660791 122.572788 
L 603.756097 122.304672 
L 604.782947 122.29027 
L 605.809796 122.506708 
L 606.973559 122.9915 
L 608.753432 124.018881 
L 610.944045 125.230862 
L 612.450091 125.799673 
L 614.09305 126.168256 
L 616.283663 126.405384 
L 620.254148 126.565075 
L 627.031356 126.613046 
L 637.199427 126.427443 
L 652.807542 126.144233 
L 654.382045 126.409107 
L 655.751178 126.866145 
L 657.051854 127.541798 
L 658.352531 128.467179 
L 659.79012 129.769356 
L 661.43308 131.569782 
L 663.486779 134.175756 
L 666.225045 138.042488 
L 668.963311 142.265868 
L 670.81164 145.512152 
L 672.180773 148.361091 
L 673.412993 151.463168 
L 674.576756 155.03546 
L 675.808975 159.599512 
L 677.383478 166.399446 
L 679.711004 176.436636 
L 680.80631 180.169792 
L 681.696247 182.490936 
L 682.517726 184.049472 
L 683.27075 185.014562 
L 683.955316 185.544996 
L 684.639882 185.78417 
L 685.324449 185.770136 
L 686.077472 185.50477 
L 686.898952 184.965129 
L 687.925801 183.994391 
L 689.158021 182.498883 
L 690.800981 180.131678 
L 695.710212 172.825672 
L 697.147802 171.205268 
L 698.516934 169.985629 
L 699.886067 169.056502 
L 701.323657 168.341521 
L 702.966616 167.773962 
L 704.951859 167.333133 
L 707.553212 166.998233 
L 711.523697 166.737755 
L 719.738495 166.472033 
L 746.566654 165.876361 
L 748.0727 166.126623 
L 749.30492 166.563757 
L 750.400226 167.183265 
L 751.563989 168.109032 
L 752.796209 169.395571 
L 754.165341 171.165614 
L 755.808301 173.671592 
L 758.135827 177.676543 
L 766.076798 191.669877 
L 768.335867 195.085204 
L 770.252653 197.600488 
L 772.032526 199.580879 
L 773.743942 201.160693 
L 775.455358 202.442662 
L 777.235231 203.496279 
L 779.08356 204.336015 
L 781.13726 205.023894 
L 783.464786 205.563052 
L 786.203052 205.960453 
L 789.557427 206.213421 
L 792.275977 206.225649 
L 793.85048 206.028434 
L 795.0827 205.663467 
L 796.246463 205.082874 
L 797.410226 204.234646 
L 798.573989 203.10554 
L 799.874665 201.517732 
L 801.312255 199.390151 
L 802.955214 196.540146 
L 804.940457 192.624519 
L 807.678723 186.683185 
L 812.881428 175.303516 
L 814.592844 172.148849 
L 815.968822 170.044692 
L 817.269499 168.444155 
L 818.570175 167.200294 
L 819.870851 166.264175 
L 821.239984 165.545781 
L 822.814487 164.972593 
L 824.731273 164.523722 
L 827.264169 164.17944 
L 831.097741 163.908528 
L 839.791735 163.574794 
L 843.214567 163.575603 
L 844.78907 163.79336 
L 846.02129 164.182851 
L 847.185053 164.793229 
L 848.348816 165.674418 
L 849.581035 166.913752 
L 850.950168 168.637085 
L 852.593128 171.100477 
L 854.78374 174.829025 
L 863.614648 190.294799 
L 865.80526 193.505502 
L 867.722046 195.928104 
L 869.57065 197.904962 
L 871.555892 199.6883 
L 875.321008 202.943042 
L 876.279401 204.154603 
L 877.100881 205.549185 
L 877.853904 207.257076 
L 878.606927 209.512878 
L 879.428407 212.727754 
L 880.3868 217.507656 
L 881.892846 226.436669 
L 883.261979 234.049423 
L 884.220372 238.146078 
L 885.041851 240.729036 
L 885.794875 242.43898 
L 886.547898 243.651715 
L 887.369377 244.555507 
L 888.259314 245.1922 
L 889.286163 245.641584 
L 890.58684 245.953865 
L 892.435169 246.15105 
L 895.652631 246.238029 
L 903.114406 246.16699 
L 929.06632 245.611736 
L 996.153833 244.131917 
L 996.153833 244.131917 
" style="fill:none;stroke:#008000;stroke-dasharray:9.6,2.4,1.5,2.4;stroke-dashoffset:0;stroke-width:1.5;"/>
   </g>
   <g id="patch_3">
    <path d="M 144 256.32 
L 144 34.56 
" style="fill:none;stroke:#000000;stroke-linecap:square;stroke-linejoin:miter;stroke-width:0.8;"/>
   </g>
   <g id="patch_4">
    <path d="M 1036.8 256.32 
L 1036.8 34.56 
" style="fill:none;stroke:#000000;stroke-linecap:square;stroke-linejoin:miter;stroke-width:0.8;"/>
   </g>
   <g id="patch_5">
    <path d="M 144 256.32 
L 1036.8 256.32 
" style="fill:none;stroke:#000000;stroke-linecap:square;stroke-linejoin:miter;stroke-width:0.8;"/>
   </g>
   <g id="patch_6">
    <path d="M 144 34.56 
L 1036.8 34.56 
" style="fill:none;stroke:#000000;stroke-linecap:square;stroke-linejoin:miter;stroke-width:0.8;"/>
   </g>
   <g id="text_17">
    <!-- In  RMSE: 0.0 -->
    <defs>
     <path d="M 9.8125 72.90625 
L 50.296875 72.90625 
L 50.296875 64.59375 
L 35.015625 64.59375 
L 35.015625 8.296875 
L 50.296875 8.296875 
L 50.296875 0 
L 9.8125 0 
L 9.8125 8.296875 
L 25.09375 8.296875 
L 25.09375 64.59375 
L 9.8125 64.59375 
z
" id="DejaVuSansMono-73"/>
     <path d="M 51.3125 33.890625 
L 51.3125 0 
L 42.28125 0 
L 42.28125 33.890625 
Q 42.28125 41.265625 39.6875 44.71875 
Q 37.109375 48.1875 31.59375 48.1875 
Q 25.296875 48.1875 21.890625 43.71875 
Q 18.5 39.265625 18.5 30.90625 
L 18.5 0 
L 9.515625 0 
L 9.515625 54.6875 
L 18.5 54.6875 
L 18.5 46.484375 
Q 20.90625 51.171875 25 53.578125 
Q 29.109375 56 34.71875 56 
Q 43.0625 56 47.1875 50.5 
Q 51.3125 45.015625 51.3125 33.890625 
z
" id="DejaVuSansMono-110"/>
     <path id="DejaVuSansMono-32"/>
     <path d="M 37.109375 34.421875 
Q 40.921875 33.453125 43.609375 30.734375 
Q 46.296875 28.03125 50.296875 19.921875 
L 60.203125 0 
L 49.609375 0 
L 40.921875 18.40625 
Q 37.15625 26.265625 34.15625 28.53125 
Q 31.15625 30.8125 26.3125 30.8125 
L 16.890625 30.8125 
L 16.890625 0 
L 6.984375 0 
L 6.984375 72.90625 
L 27.296875 72.90625 
Q 39.3125 72.90625 45.703125 67.484375 
Q 52.09375 62.0625 52.09375 51.8125 
Q 52.09375 44.578125 48.15625 40.015625 
Q 44.234375 35.453125 37.109375 34.421875 
z
M 16.890625 64.796875 
L 16.890625 38.921875 
L 27.6875 38.921875 
Q 34.765625 38.921875 38.234375 42.09375 
Q 41.703125 45.265625 41.703125 51.8125 
Q 41.703125 58.109375 38.015625 61.453125 
Q 34.328125 64.796875 27.296875 64.796875 
z
" id="DejaVuSansMono-82"/>
     <path d="M 4.203125 72.90625 
L 17.390625 72.90625 
L 29.984375 35.796875 
L 42.671875 72.90625 
L 55.90625 72.90625 
L 55.90625 0 
L 46.78125 0 
L 46.78125 64.40625 
L 33.796875 25.984375 
L 26.3125 25.984375 
L 13.28125 64.40625 
L 13.28125 0 
L 4.203125 0 
z
" id="DejaVuSansMono-77"/>
     <path d="M 49.421875 70.40625 
L 49.421875 60.40625 
Q 44.921875 63.28125 40.40625 64.75 
Q 35.890625 66.21875 31.296875 66.21875 
Q 24.3125 66.21875 20.265625 62.96875 
Q 16.21875 59.71875 16.21875 54.203125 
Q 16.21875 49.359375 18.875 46.8125 
Q 21.53125 44.28125 28.8125 42.578125 
L 33.984375 41.40625 
Q 44.234375 39.015625 48.921875 33.890625 
Q 53.609375 28.765625 53.609375 19.921875 
Q 53.609375 9.515625 47.15625 4.046875 
Q 40.71875 -1.421875 28.421875 -1.421875 
Q 23.296875 -1.421875 18.109375 -0.3125 
Q 12.9375 0.78125 7.71875 2.984375 
L 7.71875 13.484375 
Q 13.328125 9.90625 18.328125 8.25 
Q 23.34375 6.59375 28.421875 6.59375 
Q 35.890625 6.59375 40.03125 9.9375 
Q 44.1875 13.28125 44.1875 19.28125 
Q 44.1875 24.75 41.328125 27.625 
Q 38.484375 30.515625 31.390625 32.078125 
L 26.125 33.296875 
Q 15.96875 35.59375 11.375 40.234375 
Q 6.78125 44.875 6.78125 52.6875 
Q 6.78125 62.453125 13.34375 68.328125 
Q 19.921875 74.21875 30.8125 74.21875 
Q 35.015625 74.21875 39.640625 73.265625 
Q 44.28125 72.3125 49.421875 70.40625 
z
" id="DejaVuSansMono-83"/>
     <path d="M 9.625 72.90625 
L 52.875 72.90625 
L 52.875 64.59375 
L 19.484375 64.59375 
L 19.484375 43.015625 
L 51.421875 43.015625 
L 51.421875 34.71875 
L 19.484375 34.71875 
L 19.484375 8.296875 
L 53.8125 8.296875 
L 53.8125 0 
L 9.625 0 
z
" id="DejaVuSansMono-69"/>
     <path d="M 23.875 51.90625 
L 36.1875 51.90625 
L 36.1875 37.109375 
L 23.875 37.109375 
z
M 23.875 14.890625 
L 36.1875 14.890625 
L 36.1875 0 
L 23.875 0 
z
" id="DejaVuSansMono-58"/>
     <path d="M 23.578125 36.625 
Q 23.578125 39.3125 25.453125 41.265625 
Q 27.34375 43.21875 29.984375 43.21875 
Q 32.71875 43.21875 34.671875 41.265625 
Q 36.625 39.3125 36.625 36.625 
Q 36.625 33.890625 34.6875 31.984375 
Q 32.765625 30.078125 29.984375 30.078125 
Q 27.25 30.078125 25.40625 31.9375 
Q 23.578125 33.796875 23.578125 36.625 
z
M 30.078125 66.40625 
Q 23.1875 66.40625 19.796875 58.984375 
Q 16.40625 51.5625 16.40625 36.375 
Q 16.40625 21.234375 19.796875 13.8125 
Q 23.1875 6.390625 30.078125 6.390625 
Q 37.015625 6.390625 40.40625 13.8125 
Q 43.796875 21.234375 43.796875 36.375 
Q 43.796875 51.5625 40.40625 58.984375 
Q 37.015625 66.40625 30.078125 66.40625 
z
M 30.078125 74.21875 
Q 41.75 74.21875 47.734375 64.640625 
Q 53.71875 55.078125 53.71875 36.375 
Q 53.71875 17.71875 47.734375 8.140625 
Q 41.75 -1.421875 30.078125 -1.421875 
Q 18.40625 -1.421875 12.453125 8.140625 
Q 6.5 17.71875 6.5 36.375 
Q 6.5 55.078125 12.453125 64.640625 
Q 18.40625 74.21875 30.078125 74.21875 
z
" id="DejaVuSansMono-48"/>
     <path d="M 23.875 14.890625 
L 36.1875 14.890625 
L 36.1875 0 
L 23.875 0 
z
" id="DejaVuSansMono-46"/>
    </defs>
    <g transform="translate(184.581818 171.436244)scale(0.1 -0.1)">
     <use xlink:href="#DejaVuSansMono-73"/>
     <use x="60.205078" xlink:href="#DejaVuSansMono-110"/>
     <use x="120.410156" xlink:href="#DejaVuSansMono-32"/>
     <use x="180.615234" xlink:href="#DejaVuSansMono-32"/>
     <use x="240.820312" xlink:href="#DejaVuSansMono-82"/>
     <use x="301.025391" xlink:href="#DejaVuSansMono-77"/>
     <use x="361.230469" xlink:href="#DejaVuSansMono-83"/>
     <use x="421.435547" xlink:href="#DejaVuSansMono-69"/>
     <use x="481.640625" xlink:href="#DejaVuSansMono-58"/>
     <use x="541.845703" xlink:href="#DejaVuSansMono-32"/>
     <use x="602.050781" xlink:href="#DejaVuSansMono-48"/>
     <use x="662.255859" xlink:href="#DejaVuSansMono-46"/>
     <use x="722.460938" xlink:href="#DejaVuSansMono-48"/>
    </g>
    <!-- Out RMSE: 1.77622 -->
    <defs>
     <path d="M 44.1875 36.375 
Q 44.1875 52.4375 40.890625 59.328125 
Q 37.59375 66.21875 30.078125 66.21875 
Q 22.609375 66.21875 19.3125 59.328125 
Q 16.015625 52.4375 16.015625 36.375 
Q 16.015625 20.359375 19.3125 13.46875 
Q 22.609375 6.59375 30.078125 6.59375 
Q 37.59375 6.59375 40.890625 13.453125 
Q 44.1875 20.3125 44.1875 36.375 
z
M 54.5 36.375 
Q 54.5 17.328125 48.46875 7.953125 
Q 42.4375 -1.421875 30.078125 -1.421875 
Q 17.71875 -1.421875 11.71875 7.90625 
Q 5.71875 17.234375 5.71875 36.375 
Q 5.71875 55.46875 11.75 64.84375 
Q 17.78125 74.21875 30.078125 74.21875 
Q 42.4375 74.21875 48.46875 64.84375 
Q 54.5 55.46875 54.5 36.375 
z
" id="DejaVuSansMono-79"/>
     <path d="M 9.515625 20.703125 
L 9.515625 54.59375 
L 18.5 54.59375 
L 18.5 20.703125 
Q 18.5 13.328125 21.109375 9.859375 
Q 23.734375 6.390625 29.203125 6.390625 
Q 35.546875 6.390625 38.90625 10.859375 
Q 42.28125 15.328125 42.28125 23.6875 
L 42.28125 54.59375 
L 51.3125 54.59375 
L 51.3125 0 
L 42.28125 0 
L 42.28125 8.203125 
Q 39.890625 3.46875 35.765625 1.015625 
Q 31.640625 -1.421875 26.125 -1.421875 
Q 17.71875 -1.421875 13.609375 4.078125 
Q 9.515625 9.578125 9.515625 20.703125 
z
" id="DejaVuSansMono-117"/>
     <path d="M 29.984375 70.21875 
L 29.984375 54.6875 
L 50.390625 54.6875 
L 50.390625 47.703125 
L 29.984375 47.703125 
L 29.984375 18.015625 
Q 29.984375 11.96875 32.28125 9.5625 
Q 34.578125 7.171875 40.28125 7.171875 
L 50.390625 7.171875 
L 50.390625 0 
L 39.40625 0 
Q 29.296875 0 25.140625 4.046875 
Q 21 8.109375 21 18.015625 
L 21 47.703125 
L 6.390625 47.703125 
L 6.390625 54.6875 
L 21 54.6875 
L 21 70.21875 
z
" id="DejaVuSansMono-116"/>
     <path d="M 13.1875 8.296875 
L 28.515625 8.296875 
L 28.515625 64.015625 
L 12.015625 60.296875 
L 12.015625 69.28125 
L 28.421875 72.90625 
L 38.28125 72.90625 
L 38.28125 8.296875 
L 53.421875 8.296875 
L 53.421875 0 
L 13.1875 0 
z
" id="DejaVuSansMono-49"/>
     <path d="M 6.78125 72.90625 
L 52.6875 72.90625 
L 52.6875 68.703125 
L 26.609375 0 
L 16.3125 0 
L 41.703125 64.59375 
L 6.78125 64.59375 
z
" id="DejaVuSansMono-55"/>
     <path d="M 48.390625 71.296875 
L 48.390625 62.203125 
Q 45.3125 64.015625 41.84375 64.96875 
Q 38.375 65.921875 34.625 65.921875 
Q 25.25 65.921875 20.40625 58.859375 
Q 15.578125 51.8125 15.578125 38.09375 
Q 17.921875 42.96875 22.0625 45.578125 
Q 26.21875 48.1875 31.59375 48.1875 
Q 42.140625 48.1875 47.921875 41.71875 
Q 53.71875 35.25 53.71875 23.390625 
Q 53.71875 11.578125 47.75 5.078125 
Q 41.796875 -1.421875 31 -1.421875 
Q 18.3125 -1.421875 12.40625 7.6875 
Q 6.5 16.796875 6.5 36.375 
Q 6.5 54.828125 13.59375 64.515625 
Q 20.703125 74.21875 34.1875 74.21875 
Q 37.796875 74.21875 41.40625 73.453125 
Q 45.015625 72.703125 48.390625 71.296875 
z
M 30.8125 40.484375 
Q 24.515625 40.484375 20.890625 35.9375 
Q 17.28125 31.390625 17.28125 23.390625 
Q 17.28125 15.375 20.890625 10.828125 
Q 24.515625 6.296875 30.8125 6.296875 
Q 37.359375 6.296875 40.671875 10.609375 
Q 44 14.9375 44 23.390625 
Q 44 31.890625 40.671875 36.1875 
Q 37.359375 40.484375 30.8125 40.484375 
z
" id="DejaVuSansMono-54"/>
     <path d="M 18.21875 8.296875 
L 51.703125 8.296875 
L 51.703125 0 
L 7.421875 0 
L 7.421875 8.296875 
Q 16.546875 17.921875 23.375 25.296875 
Q 30.21875 32.671875 32.8125 35.6875 
Q 37.703125 41.65625 39.40625 45.34375 
Q 41.109375 49.03125 41.109375 52.875 
Q 41.109375 58.984375 37.515625 62.453125 
Q 33.9375 65.921875 27.6875 65.921875 
Q 23.25 65.921875 18.359375 64.3125 
Q 13.484375 62.703125 8.015625 59.421875 
L 8.015625 69.390625 
Q 13.03125 71.78125 17.890625 73 
Q 22.75 74.21875 27.484375 74.21875 
Q 38.1875 74.21875 44.703125 68.53125 
Q 51.21875 62.84375 51.21875 53.609375 
Q 51.21875 48.921875 49.046875 44.234375 
Q 46.875 39.546875 42 33.890625 
Q 39.265625 30.71875 34.0625 25.09375 
Q 28.859375 19.484375 18.21875 8.296875 
z
" id="DejaVuSansMono-50"/>
    </defs>
    <g transform="translate(184.581818 182.697807)scale(0.1 -0.1)">
     <use xlink:href="#DejaVuSansMono-79"/>
     <use x="60.205078" xlink:href="#DejaVuSansMono-117"/>
     <use x="120.410156" xlink:href="#DejaVuSansMono-116"/>
     <use x="180.615234" xlink:href="#DejaVuSansMono-32"/>
     <use x="240.820312" xlink:href="#DejaVuSansMono-82"/>
     <use x="301.025391" xlink:href="#DejaVuSansMono-77"/>
     <use x="361.230469" xlink:href="#DejaVuSansMono-83"/>
     <use x="421.435547" xlink:href="#DejaVuSansMono-69"/>
     <use x="481.640625" xlink:href="#DejaVuSansMono-58"/>
     <use x="541.845703" xlink:href="#DejaVuSansMono-32"/>
     <use x="602.050781" xlink:href="#DejaVuSansMono-49"/>
     <use x="662.255859" xlink:href="#DejaVuSansMono-46"/>
     <use x="722.460938" xlink:href="#DejaVuSansMono-55"/>
     <use x="782.666016" xlink:href="#DejaVuSansMono-55"/>
     <use x="842.871094" xlink:href="#DejaVuSansMono-54"/>
     <use x="903.076172" xlink:href="#DejaVuSansMono-50"/>
     <use x="963.28125" xlink:href="#DejaVuSansMono-50"/>
    </g>
   </g>
   <g id="text_18">
    <!-- inv_t4_invSim_720_200Traces fitting using transfer functions -->
    <defs>
     <path d="M 54.890625 33.015625 
L 54.890625 0 
L 45.90625 0 
L 45.90625 32.71875 
Q 45.90625 40.484375 42.875 44.328125 
Q 39.84375 48.1875 33.796875 48.1875 
Q 26.515625 48.1875 22.3125 43.546875 
Q 18.109375 38.921875 18.109375 30.90625 
L 18.109375 0 
L 9.078125 0 
L 9.078125 54.6875 
L 18.109375 54.6875 
L 18.109375 46.1875 
Q 21.34375 51.125 25.703125 53.5625 
Q 30.078125 56 35.796875 56 
Q 45.21875 56 50.046875 50.171875 
Q 54.890625 44.34375 54.890625 33.015625 
z
" id="DejaVuSans-110"/>
     <path d="M 2.984375 54.6875 
L 12.5 54.6875 
L 29.59375 8.796875 
L 46.6875 54.6875 
L 56.203125 54.6875 
L 35.6875 0 
L 23.484375 0 
z
" id="DejaVuSans-118"/>
     <path d="M 50.984375 -16.609375 
L 50.984375 -23.578125 
L -0.984375 -23.578125 
L -0.984375 -16.609375 
z
" id="DejaVuSans-95"/>
     <path d="M 53.515625 70.515625 
L 53.515625 60.890625 
Q 47.90625 63.578125 42.921875 64.890625 
Q 37.9375 66.21875 33.296875 66.21875 
Q 25.25 66.21875 20.875 63.09375 
Q 16.5 59.96875 16.5 54.203125 
Q 16.5 49.359375 19.40625 46.890625 
Q 22.3125 44.4375 30.421875 42.921875 
L 36.375 41.703125 
Q 47.40625 39.59375 52.65625 34.296875 
Q 57.90625 29 57.90625 20.125 
Q 57.90625 9.515625 50.796875 4.046875 
Q 43.703125 -1.421875 29.984375 -1.421875 
Q 24.8125 -1.421875 18.96875 -0.25 
Q 13.140625 0.921875 6.890625 3.21875 
L 6.890625 13.375 
Q 12.890625 10.015625 18.65625 8.296875 
Q 24.421875 6.59375 29.984375 6.59375 
Q 38.421875 6.59375 43.015625 9.90625 
Q 47.609375 13.234375 47.609375 19.390625 
Q 47.609375 24.75 44.3125 27.78125 
Q 41.015625 30.8125 33.5 32.328125 
L 27.484375 33.5 
Q 16.453125 35.6875 11.515625 40.375 
Q 6.59375 45.0625 6.59375 53.421875 
Q 6.59375 63.09375 13.40625 68.65625 
Q 20.21875 74.21875 32.171875 74.21875 
Q 37.3125 74.21875 42.625 73.28125 
Q 47.953125 72.359375 53.515625 70.515625 
z
" id="DejaVuSans-83"/>
     <path d="M 8.203125 72.90625 
L 55.078125 72.90625 
L 55.078125 68.703125 
L 28.609375 0 
L 18.3125 0 
L 43.21875 64.59375 
L 8.203125 64.59375 
z
" id="DejaVuSans-55"/>
     <path d="M 41.109375 46.296875 
Q 39.59375 47.171875 37.8125 47.578125 
Q 36.03125 48 33.890625 48 
Q 26.265625 48 22.1875 43.046875 
Q 18.109375 38.09375 18.109375 28.8125 
L 18.109375 0 
L 9.078125 0 
L 9.078125 54.6875 
L 18.109375 54.6875 
L 18.109375 46.1875 
Q 20.953125 51.171875 25.484375 53.578125 
Q 30.03125 56 36.53125 56 
Q 37.453125 56 38.578125 55.875 
Q 39.703125 55.765625 41.0625 55.515625 
z
" id="DejaVuSans-114"/>
     <path d="M 48.78125 52.59375 
L 48.78125 44.1875 
Q 44.96875 46.296875 41.140625 47.34375 
Q 37.3125 48.390625 33.40625 48.390625 
Q 24.65625 48.390625 19.8125 42.84375 
Q 14.984375 37.3125 14.984375 27.296875 
Q 14.984375 17.28125 19.8125 11.734375 
Q 24.65625 6.203125 33.40625 6.203125 
Q 37.3125 6.203125 41.140625 7.25 
Q 44.96875 8.296875 48.78125 10.40625 
L 48.78125 2.09375 
Q 45.015625 0.34375 40.984375 -0.53125 
Q 36.96875 -1.421875 32.421875 -1.421875 
Q 20.0625 -1.421875 12.78125 6.34375 
Q 5.515625 14.109375 5.515625 27.296875 
Q 5.515625 40.671875 12.859375 48.328125 
Q 20.21875 56 33.015625 56 
Q 37.15625 56 41.109375 55.140625 
Q 45.0625 54.296875 48.78125 52.59375 
z
" id="DejaVuSans-99"/>
     <path d="M 37.109375 75.984375 
L 37.109375 68.5 
L 28.515625 68.5 
Q 23.6875 68.5 21.796875 66.546875 
Q 19.921875 64.59375 19.921875 59.515625 
L 19.921875 54.6875 
L 34.71875 54.6875 
L 34.71875 47.703125 
L 19.921875 47.703125 
L 19.921875 0 
L 10.890625 0 
L 10.890625 47.703125 
L 2.296875 47.703125 
L 2.296875 54.6875 
L 10.890625 54.6875 
L 10.890625 58.5 
Q 10.890625 67.625 15.140625 71.796875 
Q 19.390625 75.984375 28.609375 75.984375 
z
" id="DejaVuSans-102"/>
     <path d="M 8.5 21.578125 
L 8.5 54.6875 
L 17.484375 54.6875 
L 17.484375 21.921875 
Q 17.484375 14.15625 20.5 10.265625 
Q 23.53125 6.390625 29.59375 6.390625 
Q 36.859375 6.390625 41.078125 11.03125 
Q 45.3125 15.671875 45.3125 23.6875 
L 45.3125 54.6875 
L 54.296875 54.6875 
L 54.296875 0 
L 45.3125 0 
L 45.3125 8.40625 
Q 42.046875 3.421875 37.71875 1 
Q 33.40625 -1.421875 27.6875 -1.421875 
Q 18.265625 -1.421875 13.375 4.4375 
Q 8.5 10.296875 8.5 21.578125 
z
M 31.109375 56 
z
" id="DejaVuSans-117"/>
    </defs>
    <g transform="translate(407.127187 28.56)scale(0.12 -0.12)">
     <use xlink:href="#DejaVuSans-105"/>
     <use x="27.783203" xlink:href="#DejaVuSans-110"/>
     <use x="91.162109" xlink:href="#DejaVuSans-118"/>
     <use x="150.341797" xlink:href="#DejaVuSans-95"/>
     <use x="200.341797" xlink:href="#DejaVuSans-116"/>
     <use x="239.550781" xlink:href="#DejaVuSans-52"/>
     <use x="303.173828" xlink:href="#DejaVuSans-95"/>
     <use x="353.173828" xlink:href="#DejaVuSans-105"/>
     <use x="380.957031" xlink:href="#DejaVuSans-110"/>
     <use x="444.335938" xlink:href="#DejaVuSans-118"/>
     <use x="503.515625" xlink:href="#DejaVuSans-83"/>
     <use x="566.992188" xlink:href="#DejaVuSans-105"/>
     <use x="594.775391" xlink:href="#DejaVuSans-109"/>
     <use x="692.1875" xlink:href="#DejaVuSans-95"/>
     <use x="742.1875" xlink:href="#DejaVuSans-55"/>
     <use x="805.810547" xlink:href="#DejaVuSans-50"/>
     <use x="869.433594" xlink:href="#DejaVuSans-48"/>
     <use x="933.056641" xlink:href="#DejaVuSans-95"/>
     <use x="983.056641" xlink:href="#DejaVuSans-50"/>
     <use x="1046.679688" xlink:href="#DejaVuSans-48"/>
     <use x="1110.302734" xlink:href="#DejaVuSans-48"/>
     <use x="1173.925781" xlink:href="#DejaVuSans-84"/>
     <use x="1234.791016" xlink:href="#DejaVuSans-114"/>
     <use x="1275.904297" xlink:href="#DejaVuSans-97"/>
     <use x="1337.183594" xlink:href="#DejaVuSans-99"/>
     <use x="1392.164062" xlink:href="#DejaVuSans-101"/>
     <use x="1453.6875" xlink:href="#DejaVuSans-115"/>
     <use x="1505.787109" xlink:href="#DejaVuSans-32"/>
     <use x="1537.574219" xlink:href="#DejaVuSans-102"/>
     <use x="1572.779297" xlink:href="#DejaVuSans-105"/>
     <use x="1600.5625" xlink:href="#DejaVuSans-116"/>
     <use x="1639.771484" xlink:href="#DejaVuSans-116"/>
     <use x="1678.980469" xlink:href="#DejaVuSans-105"/>
     <use x="1706.763672" xlink:href="#DejaVuSans-110"/>
     <use x="1770.142578" xlink:href="#DejaVuSans-103"/>
     <use x="1833.619141" xlink:href="#DejaVuSans-32"/>
     <use x="1865.40625" xlink:href="#DejaVuSans-117"/>
     <use x="1928.785156" xlink:href="#DejaVuSans-115"/>
     <use x="1980.884766" xlink:href="#DejaVuSans-105"/>
     <use x="2008.667969" xlink:href="#DejaVuSans-110"/>
     <use x="2072.046875" xlink:href="#DejaVuSans-103"/>
     <use x="2135.523438" xlink:href="#DejaVuSans-32"/>
     <use x="2167.310547" xlink:href="#DejaVuSans-116"/>
     <use x="2206.519531" xlink:href="#DejaVuSans-114"/>
     <use x="2247.632812" xlink:href="#DejaVuSans-97"/>
     <use x="2308.912109" xlink:href="#DejaVuSans-110"/>
     <use x="2372.291016" xlink:href="#DejaVuSans-115"/>
     <use x="2424.390625" xlink:href="#DejaVuSans-102"/>
     <use x="2459.595703" xlink:href="#DejaVuSans-101"/>
     <use x="2521.119141" xlink:href="#DejaVuSans-114"/>
     <use x="2562.232422" xlink:href="#DejaVuSans-32"/>
     <use x="2594.019531" xlink:href="#DejaVuSans-102"/>
     <use x="2629.224609" xlink:href="#DejaVuSans-117"/>
     <use x="2692.603516" xlink:href="#DejaVuSans-110"/>
     <use x="2755.982422" xlink:href="#DejaVuSans-99"/>
     <use x="2810.962891" xlink:href="#DejaVuSans-116"/>
     <use x="2850.171875" xlink:href="#DejaVuSans-105"/>
     <use x="2877.955078" xlink:href="#DejaVuSans-111"/>
     <use x="2939.136719" xlink:href="#DejaVuSans-110"/>
     <use x="3002.515625" xlink:href="#DejaVuSans-115"/>
    </g>
   </g>
   <g id="legend_1">
    <g id="patch_7">
     <path d="M 151 176.29625 
L 369.0875 176.29625 
Q 371.0875 176.29625 371.0875 174.29625 
L 371.0875 116.58375 
Q 371.0875 114.58375 369.0875 114.58375 
L 151 114.58375 
Q 149 114.58375 149 116.58375 
L 149 174.29625 
Q 149 176.29625 151 176.29625 
z
" style="fill:#ffffff;opacity:0.8;stroke:#cccccc;stroke-linejoin:miter;"/>
    </g>
    <g id="line2d_18">
     <path d="M 153 122.682187 
L 173 122.682187 
" style="fill:none;stroke:#ff0000;stroke-linecap:square;stroke-width:1.5;"/>
    </g>
    <g id="line2d_19"/>
    <g id="text_19">
     <!-- Input -->
     <defs>
      <path d="M 9.8125 72.90625 
L 19.671875 72.90625 
L 19.671875 0 
L 9.8125 0 
z
" id="DejaVuSans-73"/>
      <path d="M 18.109375 8.203125 
L 18.109375 -20.796875 
L 9.078125 -20.796875 
L 9.078125 54.6875 
L 18.109375 54.6875 
L 18.109375 46.390625 
Q 20.953125 51.265625 25.265625 53.625 
Q 29.59375 56 35.59375 56 
Q 45.5625 56 51.78125 48.09375 
Q 58.015625 40.1875 58.015625 27.296875 
Q 58.015625 14.40625 51.78125 6.484375 
Q 45.5625 -1.421875 35.59375 -1.421875 
Q 29.59375 -1.421875 25.265625 0.953125 
Q 20.953125 3.328125 18.109375 8.203125 
z
M 48.6875 27.296875 
Q 48.6875 37.203125 44.609375 42.84375 
Q 40.53125 48.484375 33.40625 48.484375 
Q 26.265625 48.484375 22.1875 42.84375 
Q 18.109375 37.203125 18.109375 27.296875 
Q 18.109375 17.390625 22.1875 11.75 
Q 26.265625 6.109375 33.40625 6.109375 
Q 40.53125 6.109375 44.609375 11.75 
Q 48.6875 17.390625 48.6875 27.296875 
z
" id="DejaVuSans-112"/>
     </defs>
     <g transform="translate(181 126.182187)scale(0.1 -0.1)">
      <use xlink:href="#DejaVuSans-73"/>
      <use x="29.492188" xlink:href="#DejaVuSans-110"/>
      <use x="92.871094" xlink:href="#DejaVuSans-112"/>
      <use x="156.347656" xlink:href="#DejaVuSans-117"/>
      <use x="219.726562" xlink:href="#DejaVuSans-116"/>
     </g>
    </g>
    <g id="line2d_20">
     <path d="M 153 137.360312 
L 173 137.360312 
" style="fill:none;stroke:#008000;stroke-linecap:square;stroke-width:1.5;"/>
    </g>
    <g id="line2d_21"/>
    <g id="text_20">
     <!-- Output -->
     <defs>
      <path d="M 39.40625 66.21875 
Q 28.65625 66.21875 22.328125 58.203125 
Q 16.015625 50.203125 16.015625 36.375 
Q 16.015625 22.609375 22.328125 14.59375 
Q 28.65625 6.59375 39.40625 6.59375 
Q 50.140625 6.59375 56.421875 14.59375 
Q 62.703125 22.609375 62.703125 36.375 
Q 62.703125 50.203125 56.421875 58.203125 
Q 50.140625 66.21875 39.40625 66.21875 
z
M 39.40625 74.21875 
Q 54.734375 74.21875 63.90625 63.9375 
Q 73.09375 53.65625 73.09375 36.375 
Q 73.09375 19.140625 63.90625 8.859375 
Q 54.734375 -1.421875 39.40625 -1.421875 
Q 24.03125 -1.421875 14.8125 8.828125 
Q 5.609375 19.09375 5.609375 36.375 
Q 5.609375 53.65625 14.8125 63.9375 
Q 24.03125 74.21875 39.40625 74.21875 
z
" id="DejaVuSans-79"/>
     </defs>
     <g transform="translate(181 140.860312)scale(0.1 -0.1)">
      <use xlink:href="#DejaVuSans-79"/>
      <use x="78.710938" xlink:href="#DejaVuSans-117"/>
      <use x="142.089844" xlink:href="#DejaVuSans-116"/>
      <use x="181.298828" xlink:href="#DejaVuSans-112"/>
      <use x="244.775391" xlink:href="#DejaVuSans-117"/>
      <use x="308.154297" xlink:href="#DejaVuSans-116"/>
     </g>
    </g>
    <g id="line2d_22">
     <path d="M 153 152.038437 
L 173 152.038437 
" style="fill:none;stroke:#008000;stroke-dasharray:5.55,2.4;stroke-dashoffset:0;stroke-width:1.5;"/>
    </g>
    <g id="line2d_23"/>
    <g id="text_21">
     <!-- Output fitting from transfer functions -->
     <g transform="translate(181 155.538437)scale(0.1 -0.1)">
      <use xlink:href="#DejaVuSans-79"/>
      <use x="78.710938" xlink:href="#DejaVuSans-117"/>
      <use x="142.089844" xlink:href="#DejaVuSans-116"/>
      <use x="181.298828" xlink:href="#DejaVuSans-112"/>
      <use x="244.775391" xlink:href="#DejaVuSans-117"/>
      <use x="308.154297" xlink:href="#DejaVuSans-116"/>
      <use x="347.363281" xlink:href="#DejaVuSans-32"/>
      <use x="379.150391" xlink:href="#DejaVuSans-102"/>
      <use x="414.355469" xlink:href="#DejaVuSans-105"/>
      <use x="442.138672" xlink:href="#DejaVuSans-116"/>
      <use x="481.347656" xlink:href="#DejaVuSans-116"/>
      <use x="520.556641" xlink:href="#DejaVuSans-105"/>
      <use x="548.339844" xlink:href="#DejaVuSans-110"/>
      <use x="611.71875" xlink:href="#DejaVuSans-103"/>
      <use x="675.195312" xlink:href="#DejaVuSans-32"/>
      <use x="706.982422" xlink:href="#DejaVuSans-102"/>
      <use x="742.1875" xlink:href="#DejaVuSans-114"/>
      <use x="783.269531" xlink:href="#DejaVuSans-111"/>
      <use x="844.451172" xlink:href="#DejaVuSans-109"/>
      <use x="941.863281" xlink:href="#DejaVuSans-32"/>
      <use x="973.650391" xlink:href="#DejaVuSans-116"/>
      <use x="1012.859375" xlink:href="#DejaVuSans-114"/>
      <use x="1053.972656" xlink:href="#DejaVuSans-97"/>
      <use x="1115.251953" xlink:href="#DejaVuSans-110"/>
      <use x="1178.630859" xlink:href="#DejaVuSans-115"/>
      <use x="1230.730469" xlink:href="#DejaVuSans-102"/>
      <use x="1265.935547" xlink:href="#DejaVuSans-101"/>
      <use x="1327.458984" xlink:href="#DejaVuSans-114"/>
      <use x="1368.572266" xlink:href="#DejaVuSans-32"/>
      <use x="1400.359375" xlink:href="#DejaVuSans-102"/>
      <use x="1435.564453" xlink:href="#DejaVuSans-117"/>
      <use x="1498.943359" xlink:href="#DejaVuSans-110"/>
      <use x="1562.322266" xlink:href="#DejaVuSans-99"/>
      <use x="1617.302734" xlink:href="#DejaVuSans-116"/>
      <use x="1656.511719" xlink:href="#DejaVuSans-105"/>
      <use x="1684.294922" xlink:href="#DejaVuSans-111"/>
      <use x="1745.476562" xlink:href="#DejaVuSans-110"/>
      <use x="1808.855469" xlink:href="#DejaVuSans-115"/>
     </g>
    </g>
    <g id="line2d_24">
     <path d="M 153 166.716563 
L 173 166.716563 
" style="fill:none;stroke:#008000;stroke-dasharray:9.6,2.4,1.5,2.4;stroke-dashoffset:0;stroke-width:1.5;"/>
    </g>
    <g id="line2d_25"/>
    <g id="text_22">
     <!-- fitting error -->
     <g transform="translate(181 170.216563)scale(0.1 -0.1)">
      <use xlink:href="#DejaVuSans-102"/>
      <use x="35.205078" xlink:href="#DejaVuSans-105"/>
      <use x="62.988281" xlink:href="#DejaVuSans-116"/>
      <use x="102.197266" xlink:href="#DejaVuSans-116"/>
      <use x="141.40625" xlink:href="#DejaVuSans-105"/>
      <use x="169.189453" xlink:href="#DejaVuSans-110"/>
      <use x="232.568359" xlink:href="#DejaVuSans-103"/>
      <use x="296.044922" xlink:href="#DejaVuSans-32"/>
      <use x="327.832031" xlink:href="#DejaVuSans-101"/>
      <use x="389.355469" xlink:href="#DejaVuSans-114"/>
      <use x="430.453125" xlink:href="#DejaVuSans-114"/>
      <use x="471.535156" xlink:href="#DejaVuSans-111"/>
      <use x="532.716797" xlink:href="#DejaVuSans-114"/>
     </g>
    </g>
   </g>
  </g>
 </g>
 <defs>
  <clipPath id="p80ba25038a">
   <rect height="221.76" width="892.8" x="144" y="34.56"/>
  </clipPath>
 </defs>
</svg>
