<?xml version="1.0" encoding="utf-8" standalone="no"?>
<!DOCTYPE svg PUBLIC "-//W3C//DTD SVG 1.1//EN"
  "http://www.w3.org/Graphics/SVG/1.1/DTD/svg11.dtd">
<!-- Created with matplotlib (http://matplotlib.org/) -->
<svg height="432pt" version="1.1" viewBox="0 0 864 432" width="864pt" xmlns="http://www.w3.org/2000/svg" xmlns:xlink="http://www.w3.org/1999/xlink">
 <defs>
  <style type="text/css">
*{stroke-linecap:butt;stroke-linejoin:round;}
  </style>
 </defs>
 <g id="figure_1">
  <g id="patch_1">
   <path d="M 0 432 
L 864 432 
L 864 0 
L 0 0 
z
" style="fill:#ffffff;"/>
  </g>
  <g id="axes_1">
   <g id="patch_2">
    <path d="M 108 384.48 
L 777.6 384.48 
L 777.6 51.84 
L 108 51.84 
z
" style="fill:#ffffff;"/>
   </g>
   <g id="matplotlib.axis_1">
    <g id="xtick_1">
     <g id="line2d_1">
      <defs>
       <path d="M 0 0 
L 0 3.5 
" id="m5bab28eb56" style="stroke:#000000;stroke-width:0.8;"/>
      </defs>
      <g>
       <use style="stroke:#000000;stroke-width:0.8;" x="138.436364" xlink:href="#m5bab28eb56" y="384.48"/>
      </g>
     </g>
     <g id="text_1">
      <!-- 0.0 -->
      <defs>
       <path d="M 31.78125 66.40625 
Q 24.171875 66.40625 20.328125 58.90625 
Q 16.5 51.421875 16.5 36.375 
Q 16.5 21.390625 20.328125 13.890625 
Q 24.171875 6.390625 31.78125 6.390625 
Q 39.453125 6.390625 43.28125 13.890625 
Q 47.125 21.390625 47.125 36.375 
Q 47.125 51.421875 43.28125 58.90625 
Q 39.453125 66.40625 31.78125 66.40625 
z
M 31.78125 74.21875 
Q 44.046875 74.21875 50.515625 64.515625 
Q 56.984375 54.828125 56.984375 36.375 
Q 56.984375 17.96875 50.515625 8.265625 
Q 44.046875 -1.421875 31.78125 -1.421875 
Q 19.53125 -1.421875 13.0625 8.265625 
Q 6.59375 17.96875 6.59375 36.375 
Q 6.59375 54.828125 13.0625 64.515625 
Q 19.53125 74.21875 31.78125 74.21875 
z
" id="DejaVuSans-30"/>
       <path d="M 10.6875 12.40625 
L 21 12.40625 
L 21 0 
L 10.6875 0 
z
" id="DejaVuSans-2e"/>
      </defs>
      <g transform="translate(130.484801 399.078438)scale(0.1 -0.1)">
       <use xlink:href="#DejaVuSans-30"/>
       <use x="63.623047" xlink:href="#DejaVuSans-2e"/>
       <use x="95.410156" xlink:href="#DejaVuSans-30"/>
      </g>
     </g>
    </g>
    <g id="xtick_2">
     <g id="line2d_2">
      <g>
       <use style="stroke:#000000;stroke-width:0.8;" x="249.29172" xlink:href="#m5bab28eb56" y="384.48"/>
      </g>
     </g>
     <g id="text_2">
      <!-- 0.2 -->
      <defs>
       <path d="M 19.1875 8.296875 
L 53.609375 8.296875 
L 53.609375 0 
L 7.328125 0 
L 7.328125 8.296875 
Q 12.9375 14.109375 22.625 23.890625 
Q 32.328125 33.6875 34.8125 36.53125 
Q 39.546875 41.84375 41.421875 45.53125 
Q 43.3125 49.21875 43.3125 52.78125 
Q 43.3125 58.59375 39.234375 62.25 
Q 35.15625 65.921875 28.609375 65.921875 
Q 23.96875 65.921875 18.8125 64.3125 
Q 13.671875 62.703125 7.8125 59.421875 
L 7.8125 69.390625 
Q 13.765625 71.78125 18.9375 73 
Q 24.125 74.21875 28.421875 74.21875 
Q 39.75 74.21875 46.484375 68.546875 
Q 53.21875 62.890625 53.21875 53.421875 
Q 53.21875 48.921875 51.53125 44.890625 
Q 49.859375 40.875 45.40625 35.40625 
Q 44.1875 33.984375 37.640625 27.21875 
Q 31.109375 20.453125 19.1875 8.296875 
z
" id="DejaVuSans-32"/>
      </defs>
      <g transform="translate(241.340158 399.078438)scale(0.1 -0.1)">
       <use xlink:href="#DejaVuSans-30"/>
       <use x="63.623047" xlink:href="#DejaVuSans-2e"/>
       <use x="95.410156" xlink:href="#DejaVuSans-32"/>
      </g>
     </g>
    </g>
    <g id="xtick_3">
     <g id="line2d_3">
      <g>
       <use style="stroke:#000000;stroke-width:0.8;" x="360.147077" xlink:href="#m5bab28eb56" y="384.48"/>
      </g>
     </g>
     <g id="text_3">
      <!-- 0.4 -->
      <defs>
       <path d="M 37.796875 64.3125 
L 12.890625 25.390625 
L 37.796875 25.390625 
z
M 35.203125 72.90625 
L 47.609375 72.90625 
L 47.609375 25.390625 
L 58.015625 25.390625 
L 58.015625 17.1875 
L 47.609375 17.1875 
L 47.609375 0 
L 37.796875 0 
L 37.796875 17.1875 
L 4.890625 17.1875 
L 4.890625 26.703125 
z
" id="DejaVuSans-34"/>
      </defs>
      <g transform="translate(352.195515 399.078438)scale(0.1 -0.1)">
       <use xlink:href="#DejaVuSans-30"/>
       <use x="63.623047" xlink:href="#DejaVuSans-2e"/>
       <use x="95.410156" xlink:href="#DejaVuSans-34"/>
      </g>
     </g>
    </g>
    <g id="xtick_4">
     <g id="line2d_4">
      <g>
       <use style="stroke:#000000;stroke-width:0.8;" x="471.002434" xlink:href="#m5bab28eb56" y="384.48"/>
      </g>
     </g>
     <g id="text_4">
      <!-- 0.6 -->
      <defs>
       <path d="M 33.015625 40.375 
Q 26.375 40.375 22.484375 35.828125 
Q 18.609375 31.296875 18.609375 23.390625 
Q 18.609375 15.53125 22.484375 10.953125 
Q 26.375 6.390625 33.015625 6.390625 
Q 39.65625 6.390625 43.53125 10.953125 
Q 47.40625 15.53125 47.40625 23.390625 
Q 47.40625 31.296875 43.53125 35.828125 
Q 39.65625 40.375 33.015625 40.375 
z
M 52.59375 71.296875 
L 52.59375 62.3125 
Q 48.875 64.0625 45.09375 64.984375 
Q 41.3125 65.921875 37.59375 65.921875 
Q 27.828125 65.921875 22.671875 59.328125 
Q 17.53125 52.734375 16.796875 39.40625 
Q 19.671875 43.65625 24.015625 45.921875 
Q 28.375 48.1875 33.59375 48.1875 
Q 44.578125 48.1875 50.953125 41.515625 
Q 57.328125 34.859375 57.328125 23.390625 
Q 57.328125 12.15625 50.6875 5.359375 
Q 44.046875 -1.421875 33.015625 -1.421875 
Q 20.359375 -1.421875 13.671875 8.265625 
Q 6.984375 17.96875 6.984375 36.375 
Q 6.984375 53.65625 15.1875 63.9375 
Q 23.390625 74.21875 37.203125 74.21875 
Q 40.921875 74.21875 44.703125 73.484375 
Q 48.484375 72.75 52.59375 71.296875 
z
" id="DejaVuSans-36"/>
      </defs>
      <g transform="translate(463.050872 399.078438)scale(0.1 -0.1)">
       <use xlink:href="#DejaVuSans-30"/>
       <use x="63.623047" xlink:href="#DejaVuSans-2e"/>
       <use x="95.410156" xlink:href="#DejaVuSans-36"/>
      </g>
     </g>
    </g>
    <g id="xtick_5">
     <g id="line2d_5">
      <g>
       <use style="stroke:#000000;stroke-width:0.8;" x="581.857791" xlink:href="#m5bab28eb56" y="384.48"/>
      </g>
     </g>
     <g id="text_5">
      <!-- 0.8 -->
      <defs>
       <path d="M 31.78125 34.625 
Q 24.75 34.625 20.71875 30.859375 
Q 16.703125 27.09375 16.703125 20.515625 
Q 16.703125 13.921875 20.71875 10.15625 
Q 24.75 6.390625 31.78125 6.390625 
Q 38.8125 6.390625 42.859375 10.171875 
Q 46.921875 13.96875 46.921875 20.515625 
Q 46.921875 27.09375 42.890625 30.859375 
Q 38.875 34.625 31.78125 34.625 
z
M 21.921875 38.8125 
Q 15.578125 40.375 12.03125 44.71875 
Q 8.5 49.078125 8.5 55.328125 
Q 8.5 64.0625 14.71875 69.140625 
Q 20.953125 74.21875 31.78125 74.21875 
Q 42.671875 74.21875 48.875 69.140625 
Q 55.078125 64.0625 55.078125 55.328125 
Q 55.078125 49.078125 51.53125 44.71875 
Q 48 40.375 41.703125 38.8125 
Q 48.828125 37.15625 52.796875 32.3125 
Q 56.78125 27.484375 56.78125 20.515625 
Q 56.78125 9.90625 50.3125 4.234375 
Q 43.84375 -1.421875 31.78125 -1.421875 
Q 19.734375 -1.421875 13.25 4.234375 
Q 6.78125 9.90625 6.78125 20.515625 
Q 6.78125 27.484375 10.78125 32.3125 
Q 14.796875 37.15625 21.921875 38.8125 
z
M 18.3125 54.390625 
Q 18.3125 48.734375 21.84375 45.5625 
Q 25.390625 42.390625 31.78125 42.390625 
Q 38.140625 42.390625 41.71875 45.5625 
Q 45.3125 48.734375 45.3125 54.390625 
Q 45.3125 60.0625 41.71875 63.234375 
Q 38.140625 66.40625 31.78125 66.40625 
Q 25.390625 66.40625 21.84375 63.234375 
Q 18.3125 60.0625 18.3125 54.390625 
z
" id="DejaVuSans-38"/>
      </defs>
      <g transform="translate(573.906229 399.078438)scale(0.1 -0.1)">
       <use xlink:href="#DejaVuSans-30"/>
       <use x="63.623047" xlink:href="#DejaVuSans-2e"/>
       <use x="95.410156" xlink:href="#DejaVuSans-38"/>
      </g>
     </g>
    </g>
    <g id="xtick_6">
     <g id="line2d_6">
      <g>
       <use style="stroke:#000000;stroke-width:0.8;" x="692.713148" xlink:href="#m5bab28eb56" y="384.48"/>
      </g>
     </g>
     <g id="text_6">
      <!-- 1.0 -->
      <defs>
       <path d="M 12.40625 8.296875 
L 28.515625 8.296875 
L 28.515625 63.921875 
L 10.984375 60.40625 
L 10.984375 69.390625 
L 28.421875 72.90625 
L 38.28125 72.90625 
L 38.28125 8.296875 
L 54.390625 8.296875 
L 54.390625 0 
L 12.40625 0 
z
" id="DejaVuSans-31"/>
      </defs>
      <g transform="translate(684.761585 399.078438)scale(0.1 -0.1)">
       <use xlink:href="#DejaVuSans-31"/>
       <use x="63.623047" xlink:href="#DejaVuSans-2e"/>
       <use x="95.410156" xlink:href="#DejaVuSans-30"/>
      </g>
     </g>
    </g>
    <g id="text_7">
     <!-- Time [s] -->
     <defs>
      <path d="M -0.296875 72.90625 
L 61.375 72.90625 
L 61.375 64.59375 
L 35.5 64.59375 
L 35.5 0 
L 25.59375 0 
L 25.59375 64.59375 
L -0.296875 64.59375 
z
" id="DejaVuSans-54"/>
      <path d="M 9.421875 54.6875 
L 18.40625 54.6875 
L 18.40625 0 
L 9.421875 0 
z
M 9.421875 75.984375 
L 18.40625 75.984375 
L 18.40625 64.59375 
L 9.421875 64.59375 
z
" id="DejaVuSans-69"/>
      <path d="M 52 44.1875 
Q 55.375 50.25 60.0625 53.125 
Q 64.75 56 71.09375 56 
Q 79.640625 56 84.28125 50.015625 
Q 88.921875 44.046875 88.921875 33.015625 
L 88.921875 0 
L 79.890625 0 
L 79.890625 32.71875 
Q 79.890625 40.578125 77.09375 44.375 
Q 74.3125 48.1875 68.609375 48.1875 
Q 61.625 48.1875 57.5625 43.546875 
Q 53.515625 38.921875 53.515625 30.90625 
L 53.515625 0 
L 44.484375 0 
L 44.484375 32.71875 
Q 44.484375 40.625 41.703125 44.40625 
Q 38.921875 48.1875 33.109375 48.1875 
Q 26.21875 48.1875 22.15625 43.53125 
Q 18.109375 38.875 18.109375 30.90625 
L 18.109375 0 
L 9.078125 0 
L 9.078125 54.6875 
L 18.109375 54.6875 
L 18.109375 46.1875 
Q 21.1875 51.21875 25.484375 53.609375 
Q 29.78125 56 35.6875 56 
Q 41.65625 56 45.828125 52.96875 
Q 50 49.953125 52 44.1875 
z
" id="DejaVuSans-6d"/>
      <path d="M 56.203125 29.59375 
L 56.203125 25.203125 
L 14.890625 25.203125 
Q 15.484375 15.921875 20.484375 11.0625 
Q 25.484375 6.203125 34.421875 6.203125 
Q 39.59375 6.203125 44.453125 7.46875 
Q 49.3125 8.734375 54.109375 11.28125 
L 54.109375 2.78125 
Q 49.265625 0.734375 44.1875 -0.34375 
Q 39.109375 -1.421875 33.890625 -1.421875 
Q 20.796875 -1.421875 13.15625 6.1875 
Q 5.515625 13.8125 5.515625 26.8125 
Q 5.515625 40.234375 12.765625 48.109375 
Q 20.015625 56 32.328125 56 
Q 43.359375 56 49.78125 48.890625 
Q 56.203125 41.796875 56.203125 29.59375 
z
M 47.21875 32.234375 
Q 47.125 39.59375 43.09375 43.984375 
Q 39.0625 48.390625 32.421875 48.390625 
Q 24.90625 48.390625 20.390625 44.140625 
Q 15.875 39.890625 15.1875 32.171875 
z
" id="DejaVuSans-65"/>
      <path id="DejaVuSans-20"/>
      <path d="M 8.59375 75.984375 
L 29.296875 75.984375 
L 29.296875 69 
L 17.578125 69 
L 17.578125 -6.203125 
L 29.296875 -6.203125 
L 29.296875 -13.1875 
L 8.59375 -13.1875 
z
" id="DejaVuSans-5b"/>
      <path d="M 44.28125 53.078125 
L 44.28125 44.578125 
Q 40.484375 46.53125 36.375 47.5 
Q 32.28125 48.484375 27.875 48.484375 
Q 21.1875 48.484375 17.84375 46.4375 
Q 14.5 44.390625 14.5 40.28125 
Q 14.5 37.15625 16.890625 35.375 
Q 19.28125 33.59375 26.515625 31.984375 
L 29.59375 31.296875 
Q 39.15625 29.25 43.1875 25.515625 
Q 47.21875 21.78125 47.21875 15.09375 
Q 47.21875 7.46875 41.1875 3.015625 
Q 35.15625 -1.421875 24.609375 -1.421875 
Q 20.21875 -1.421875 15.453125 -0.5625 
Q 10.6875 0.296875 5.421875 2 
L 5.421875 11.28125 
Q 10.40625 8.6875 15.234375 7.390625 
Q 20.0625 6.109375 24.8125 6.109375 
Q 31.15625 6.109375 34.5625 8.28125 
Q 37.984375 10.453125 37.984375 14.40625 
Q 37.984375 18.0625 35.515625 20.015625 
Q 33.0625 21.96875 24.703125 23.78125 
L 21.578125 24.515625 
Q 13.234375 26.265625 9.515625 29.90625 
Q 5.8125 33.546875 5.8125 39.890625 
Q 5.8125 47.609375 11.28125 51.796875 
Q 16.75 56 26.8125 56 
Q 31.78125 56 36.171875 55.265625 
Q 40.578125 54.546875 44.28125 53.078125 
z
" id="DejaVuSans-73"/>
      <path d="M 30.421875 75.984375 
L 30.421875 -13.1875 
L 9.71875 -13.1875 
L 9.71875 -6.203125 
L 21.390625 -6.203125 
L 21.390625 69 
L 9.71875 69 
L 9.71875 75.984375 
z
" id="DejaVuSans-5d"/>
     </defs>
     <g transform="translate(422.317187 412.756563)scale(0.1 -0.1)">
      <use xlink:href="#DejaVuSans-54"/>
      <use x="61.037109" xlink:href="#DejaVuSans-69"/>
      <use x="88.820312" xlink:href="#DejaVuSans-6d"/>
      <use x="186.232422" xlink:href="#DejaVuSans-65"/>
      <use x="247.755859" xlink:href="#DejaVuSans-20"/>
      <use x="279.542969" xlink:href="#DejaVuSans-5b"/>
      <use x="318.556641" xlink:href="#DejaVuSans-73"/>
      <use x="370.65625" xlink:href="#DejaVuSans-5d"/>
     </g>
    </g>
    <g id="text_8">
     <!-- 1e−8 -->
     <defs>
      <path d="M 10.59375 35.5 
L 73.1875 35.5 
L 73.1875 27.203125 
L 10.59375 27.203125 
z
" id="DejaVuSans-2212"/>
     </defs>
     <g transform="translate(750.342188 411.756563)scale(0.1 -0.1)">
      <use xlink:href="#DejaVuSans-31"/>
      <use x="63.623047" xlink:href="#DejaVuSans-65"/>
      <use x="125.146484" xlink:href="#DejaVuSans-2212"/>
      <use x="208.935547" xlink:href="#DejaVuSans-38"/>
     </g>
    </g>
   </g>
   <g id="matplotlib.axis_2">
    <g id="ytick_1">
     <g id="line2d_7">
      <defs>
       <path d="M 0 0 
L -3.5 0 
" id="m910aa4d761" style="stroke:#000000;stroke-width:0.8;"/>
      </defs>
      <g>
       <use style="stroke:#000000;stroke-width:0.8;" x="108" xlink:href="#m910aa4d761" y="368.937626"/>
      </g>
     </g>
     <g id="text_9">
      <!-- 0.0 -->
      <g transform="translate(85.096875 372.736844)scale(0.1 -0.1)">
       <use xlink:href="#DejaVuSans-30"/>
       <use x="63.623047" xlink:href="#DejaVuSans-2e"/>
       <use x="95.410156" xlink:href="#DejaVuSans-30"/>
      </g>
     </g>
    </g>
    <g id="ytick_2">
     <g id="line2d_8">
      <g>
       <use style="stroke:#000000;stroke-width:0.8;" x="108" xlink:href="#m910aa4d761" y="318.699246"/>
      </g>
     </g>
     <g id="text_10">
      <!-- 0.2 -->
      <g transform="translate(85.096875 322.498465)scale(0.1 -0.1)">
       <use xlink:href="#DejaVuSans-30"/>
       <use x="63.623047" xlink:href="#DejaVuSans-2e"/>
       <use x="95.410156" xlink:href="#DejaVuSans-32"/>
      </g>
     </g>
    </g>
    <g id="ytick_3">
     <g id="line2d_9">
      <g>
       <use style="stroke:#000000;stroke-width:0.8;" x="108" xlink:href="#m910aa4d761" y="268.460866"/>
      </g>
     </g>
     <g id="text_11">
      <!-- 0.4 -->
      <g transform="translate(85.096875 272.260085)scale(0.1 -0.1)">
       <use xlink:href="#DejaVuSans-30"/>
       <use x="63.623047" xlink:href="#DejaVuSans-2e"/>
       <use x="95.410156" xlink:href="#DejaVuSans-34"/>
      </g>
     </g>
    </g>
    <g id="ytick_4">
     <g id="line2d_10">
      <g>
       <use style="stroke:#000000;stroke-width:0.8;" x="108" xlink:href="#m910aa4d761" y="218.222486"/>
      </g>
     </g>
     <g id="text_12">
      <!-- 0.6 -->
      <g transform="translate(85.096875 222.021705)scale(0.1 -0.1)">
       <use xlink:href="#DejaVuSans-30"/>
       <use x="63.623047" xlink:href="#DejaVuSans-2e"/>
       <use x="95.410156" xlink:href="#DejaVuSans-36"/>
      </g>
     </g>
    </g>
    <g id="ytick_5">
     <g id="line2d_11">
      <g>
       <use style="stroke:#000000;stroke-width:0.8;" x="108" xlink:href="#m910aa4d761" y="167.984107"/>
      </g>
     </g>
     <g id="text_13">
      <!-- 0.8 -->
      <g transform="translate(85.096875 171.783325)scale(0.1 -0.1)">
       <use xlink:href="#DejaVuSans-30"/>
       <use x="63.623047" xlink:href="#DejaVuSans-2e"/>
       <use x="95.410156" xlink:href="#DejaVuSans-38"/>
      </g>
     </g>
    </g>
    <g id="ytick_6">
     <g id="line2d_12">
      <g>
       <use style="stroke:#000000;stroke-width:0.8;" x="108" xlink:href="#m910aa4d761" y="117.745727"/>
      </g>
     </g>
     <g id="text_14">
      <!-- 1.0 -->
      <g transform="translate(85.096875 121.544946)scale(0.1 -0.1)">
       <use xlink:href="#DejaVuSans-31"/>
       <use x="63.623047" xlink:href="#DejaVuSans-2e"/>
       <use x="95.410156" xlink:href="#DejaVuSans-30"/>
      </g>
     </g>
    </g>
    <g id="ytick_7">
     <g id="line2d_13">
      <g>
       <use style="stroke:#000000;stroke-width:0.8;" x="108" xlink:href="#m910aa4d761" y="67.507347"/>
      </g>
     </g>
     <g id="text_15">
      <!-- 1.2 -->
      <g transform="translate(85.096875 71.306566)scale(0.1 -0.1)">
       <use xlink:href="#DejaVuSans-31"/>
       <use x="63.623047" xlink:href="#DejaVuSans-2e"/>
       <use x="95.410156" xlink:href="#DejaVuSans-32"/>
      </g>
     </g>
    </g>
    <g id="text_16">
     <!-- Voltage [V] -->
     <defs>
      <path d="M 28.609375 0 
L 0.78125 72.90625 
L 11.078125 72.90625 
L 34.1875 11.53125 
L 57.328125 72.90625 
L 67.578125 72.90625 
L 39.796875 0 
z
" id="DejaVuSans-56"/>
      <path d="M 30.609375 48.390625 
Q 23.390625 48.390625 19.1875 42.75 
Q 14.984375 37.109375 14.984375 27.296875 
Q 14.984375 17.484375 19.15625 11.84375 
Q 23.34375 6.203125 30.609375 6.203125 
Q 37.796875 6.203125 41.984375 11.859375 
Q 46.1875 17.53125 46.1875 27.296875 
Q 46.1875 37.015625 41.984375 42.703125 
Q 37.796875 48.390625 30.609375 48.390625 
z
M 30.609375 56 
Q 42.328125 56 49.015625 48.375 
Q 55.71875 40.765625 55.71875 27.296875 
Q 55.71875 13.875 49.015625 6.21875 
Q 42.328125 -1.421875 30.609375 -1.421875 
Q 18.84375 -1.421875 12.171875 6.21875 
Q 5.515625 13.875 5.515625 27.296875 
Q 5.515625 40.765625 12.171875 48.375 
Q 18.84375 56 30.609375 56 
z
" id="DejaVuSans-6f"/>
      <path d="M 9.421875 75.984375 
L 18.40625 75.984375 
L 18.40625 0 
L 9.421875 0 
z
" id="DejaVuSans-6c"/>
      <path d="M 18.3125 70.21875 
L 18.3125 54.6875 
L 36.8125 54.6875 
L 36.8125 47.703125 
L 18.3125 47.703125 
L 18.3125 18.015625 
Q 18.3125 11.328125 20.140625 9.421875 
Q 21.96875 7.515625 27.59375 7.515625 
L 36.8125 7.515625 
L 36.8125 0 
L 27.59375 0 
Q 17.1875 0 13.234375 3.875 
Q 9.28125 7.765625 9.28125 18.015625 
L 9.28125 47.703125 
L 2.6875 47.703125 
L 2.6875 54.6875 
L 9.28125 54.6875 
L 9.28125 70.21875 
z
" id="DejaVuSans-74"/>
      <path d="M 34.28125 27.484375 
Q 23.390625 27.484375 19.1875 25 
Q 14.984375 22.515625 14.984375 16.5 
Q 14.984375 11.71875 18.140625 8.90625 
Q 21.296875 6.109375 26.703125 6.109375 
Q 34.1875 6.109375 38.703125 11.40625 
Q 43.21875 16.703125 43.21875 25.484375 
L 43.21875 27.484375 
z
M 52.203125 31.203125 
L 52.203125 0 
L 43.21875 0 
L 43.21875 8.296875 
Q 40.140625 3.328125 35.546875 0.953125 
Q 30.953125 -1.421875 24.3125 -1.421875 
Q 15.921875 -1.421875 10.953125 3.296875 
Q 6 8.015625 6 15.921875 
Q 6 25.140625 12.171875 29.828125 
Q 18.359375 34.515625 30.609375 34.515625 
L 43.21875 34.515625 
L 43.21875 35.40625 
Q 43.21875 41.609375 39.140625 45 
Q 35.0625 48.390625 27.6875 48.390625 
Q 23 48.390625 18.546875 47.265625 
Q 14.109375 46.140625 10.015625 43.890625 
L 10.015625 52.203125 
Q 14.9375 54.109375 19.578125 55.046875 
Q 24.21875 56 28.609375 56 
Q 40.484375 56 46.34375 49.84375 
Q 52.203125 43.703125 52.203125 31.203125 
z
" id="DejaVuSans-61"/>
      <path d="M 45.40625 27.984375 
Q 45.40625 37.75 41.375 43.109375 
Q 37.359375 48.484375 30.078125 48.484375 
Q 22.859375 48.484375 18.828125 43.109375 
Q 14.796875 37.75 14.796875 27.984375 
Q 14.796875 18.265625 18.828125 12.890625 
Q 22.859375 7.515625 30.078125 7.515625 
Q 37.359375 7.515625 41.375 12.890625 
Q 45.40625 18.265625 45.40625 27.984375 
z
M 54.390625 6.78125 
Q 54.390625 -7.171875 48.1875 -13.984375 
Q 42 -20.796875 29.203125 -20.796875 
Q 24.46875 -20.796875 20.265625 -20.09375 
Q 16.0625 -19.390625 12.109375 -17.921875 
L 12.109375 -9.1875 
Q 16.0625 -11.328125 19.921875 -12.34375 
Q 23.78125 -13.375 27.78125 -13.375 
Q 36.625 -13.375 41.015625 -8.765625 
Q 45.40625 -4.15625 45.40625 5.171875 
L 45.40625 9.625 
Q 42.625 4.78125 38.28125 2.390625 
Q 33.9375 0 27.875 0 
Q 17.828125 0 11.671875 7.65625 
Q 5.515625 15.328125 5.515625 27.984375 
Q 5.515625 40.671875 11.671875 48.328125 
Q 17.828125 56 27.875 56 
Q 33.9375 56 38.28125 53.609375 
Q 42.625 51.21875 45.40625 46.390625 
L 45.40625 54.6875 
L 54.390625 54.6875 
z
" id="DejaVuSans-67"/>
     </defs>
     <g transform="translate(79.017187 246.209219)rotate(-90)scale(0.1 -0.1)">
      <use xlink:href="#DejaVuSans-56"/>
      <use x="68.298828" xlink:href="#DejaVuSans-6f"/>
      <use x="129.480469" xlink:href="#DejaVuSans-6c"/>
      <use x="157.263672" xlink:href="#DejaVuSans-74"/>
      <use x="196.472656" xlink:href="#DejaVuSans-61"/>
      <use x="257.751953" xlink:href="#DejaVuSans-67"/>
      <use x="321.228516" xlink:href="#DejaVuSans-65"/>
      <use x="382.751953" xlink:href="#DejaVuSans-20"/>
      <use x="414.539062" xlink:href="#DejaVuSans-5b"/>
      <use x="453.552734" xlink:href="#DejaVuSans-56"/>
      <use x="521.960938" xlink:href="#DejaVuSans-5d"/>
     </g>
    </g>
   </g>
   <g id="line2d_14">
    <path clip-path="url(#p11d81d534c)" d="M 138.436364 368.937604 
L 214.609403 369.048545 
L 221.487978 369.241675 
L 222.191909 368.944318 
L 222.790528 368.446939 
L 223.35589 367.674845 
L 223.926795 366.496167 
L 224.525414 364.717077 
L 225.173918 362.041981 
L 225.883392 358.110637 
L 226.676008 352.384258 
L 227.573937 344.168218 
L 228.62152 332.402718 
L 229.907442 315.280323 
L 231.670042 288.554083 
L 239.380697 168.048286 
L 241.115584 145.864801 
L 242.617674 129.403141 
L 243.986737 116.751258 
L 245.27266 106.849776 
L 246.51424 98.965113 
L 247.739191 92.609707 
L 248.914258 87.653189 
L 250.128124 83.51656 
L 251.308734 80.285479 
L 252.4838 77.702975 
L 253.714295 75.546744 
L 255.00576 73.759514 
L 256.297225 72.353844 
L 257.727259 71.145108 
L 259.284777 70.152649 
L 260.870008 69.416406 
L 262.061703 69.049414 
L 263.081573 68.976066 
L 263.75779 69.179029 
L 264.334238 69.616354 
L 264.882972 70.348328 
L 265.403992 71.409111 
L 265.969355 73.051906 
L 266.595687 75.570858 
L 267.299619 79.385207 
L 268.086692 84.964933 
L 268.967992 92.882753 
L 269.998947 104.316254 
L 271.179556 120.063048 
L 272.576334 141.845429 
L 274.333391 172.969512 
L 277.021634 225.086255 
L 280.302952 287.827184 
L 281.7607 311.510686 
L 282.935767 327.16906 
L 283.977807 338.231426 
L 284.947792 346.275221 
L 285.873434 352.181621 
L 286.771362 356.53804 
L 287.652662 359.757534 
L 288.522822 362.132284 
L 289.398579 363.903439 
L 290.296507 365.233834 
L 291.238778 366.240058 
L 292.258647 367.006277 
L 293.417086 367.59581 
L 294.813863 368.049094 
L 296.620805 368.3896 
L 299.203735 368.632628 
L 303.75989 368.802805 
L 310.483268 369.0863 
L 315.322104 369.275077 
L 316.109177 369.041739 
L 316.73551 368.62254 
L 317.306415 367.963554 
L 317.871777 366.953078 
L 318.459311 365.417149 
L 319.085643 363.116341 
L 319.772947 359.685492 
L 320.532306 354.689353 
L 321.385892 347.504988 
L 322.372505 337.198725 
L 323.5642 322.244995 
L 325.110632 299.802657 
L 327.671391 258.873625 
L 331.756411 194.0788 
L 333.890376 163.709825 
L 335.569835 142.824801 
L 337.027583 127.34603 
L 338.352304 115.549305 
L 339.566171 106.607878 
L 340.730152 99.601382 
L 341.855334 94.137456 
L 342.919545 90.002084 
L 343.994842 86.696399 
L 345.070139 84.135246 
L 346.095551 82.295265 
L 346.915881 81.234231 
L 347.619812 80.660509 
L 348.168546 80.486433 
L 348.595339 80.557771 
L 349.027675 80.852168 
L 349.471097 81.425137 
L 349.969946 82.448744 
L 350.529765 84.140019 
L 351.161641 86.813956 
L 351.882201 90.925465 
L 352.691445 96.935734 
L 353.606002 105.494596 
L 354.659127 117.57567 
L 355.879091 134.282318 
L 357.342381 157.558211 
L 359.232465 191.443521 
L 365.623277 309.154356 
L 366.826057 325.47987 
L 367.884726 336.974913 
L 368.865796 345.321538 
L 369.796981 351.43524 
L 370.700452 355.957759 
L 371.581752 359.288805 
L 372.457509 361.767586 
L 373.338809 363.618768 
L 374.242281 365.012637 
L 375.190094 366.072212 
L 376.215506 366.887567 
L 377.38503 367.530887 
L 378.792893 368.045061 
L 380.466809 368.418325 
L 381.686938 368.489395 
L 382.474011 368.322517 
L 383.105887 367.962451 
L 383.682335 367.371421 
L 384.25324 366.451284 
L 384.846316 365.044053 
L 385.478192 362.929849 
L 386.165495 359.80046 
L 386.924854 355.240038 
L 387.772897 348.715377 
L 388.748425 339.372741 
L 389.90132 326.053969 
L 391.364611 306.376525 
L 393.542919 273.723387 
L 398.830719 193.651297 
L 400.726346 168.620325 
L 402.222893 151.646736 
L 403.519901 139.349511 
L 404.689425 130.283167 
L 405.759179 123.634218 
L 406.745792 118.820677 
L 407.638177 115.499318 
L 408.419708 113.384784 
L 409.090383 112.191623 
L 409.600317 111.703808 
L 410.021568 111.600066 
L 410.409561 111.763089 
L 410.808641 112.207197 
L 411.246519 113.036884 
L 411.795253 114.613113 
L 412.4105 117.126288 
L 413.119975 121.041591 
L 413.923676 126.815739 
L 414.838233 135.099796 
L 415.885816 146.728374 
L 417.110768 162.947734 
L 418.590687 185.678742 
L 420.552826 219.53941 
L 425.508061 306.651228 
L 426.766269 323.940867 
L 427.85182 335.953718 
L 428.849518 344.638643 
L 429.791789 350.982851 
L 430.700803 355.656434 
L 431.587646 359.102795 
L 432.463403 361.653483 
L 433.33916 363.549341 
L 434.231546 364.97071 
L 435.162731 366.046115 
L 436.165972 366.867773 
L 437.291154 367.499291 
L 438.621418 367.984302 
L 440.300877 368.349526 
L 442.639925 368.613848 
L 449.324503 369.022569 
L 454.429392 369.254568 
L 455.227551 369.032392 
L 455.859426 368.625019 
L 456.430331 367.984739 
L 456.995694 366.999054 
L 457.583227 365.495827 
L 458.20956 363.236938 
L 458.89132 359.889942 
L 459.645137 355.007005 
L 460.49318 347.966023 
L 461.468707 337.890407 
L 462.638231 323.347853 
L 464.145864 301.606893 
L 466.556968 263.14238 
L 470.963469 192.96597 
L 473.075263 162.926735 
L 474.749789 142.14274 
L 476.213079 126.631339 
L 477.565515 114.573173 
L 478.845894 105.089674 
L 480.076389 97.588331 
L 481.290255 91.546412 
L 482.454236 86.834554 
L 483.645931 82.929525 
L 484.876426 79.701207 
L 486.10692 77.136537 
L 487.281987 75.186032 
L 488.473682 73.603272 
L 489.798403 72.213176 
L 491.283865 71.015744 
L 492.963324 70.007962 
L 494.914378 69.159185 
L 496.46081 68.64801 
L 500.008182 67.798479 
L 502.565227 67.447815 
L 503.418813 67.519656 
L 504.095031 67.786673 
L 504.65485 68.243339 
L 505.231298 69.03158 
L 505.813289 70.254884 
L 506.41745 72.088334 
L 507.071497 74.836122 
L 507.786514 78.851676 
L 508.617929 84.920472 
L 509.565743 93.65768 
L 510.64104 105.759352 
L 511.915876 122.718498 
L 513.54545 147.560748 
L 516.023067 189.173048 
L 519.825406 252.671898 
L 521.482693 276.578333 
L 522.801872 292.57559 
L 523.93814 303.805425 
L 524.952466 311.742285 
L 525.855937 317.169688 
L 526.654096 320.713127 
L 527.346942 322.862098 
L 527.934475 324.024514 
L 528.416696 324.535891 
L 528.815775 324.663119 
L 529.181598 324.547471 
L 529.580677 324.169376 
L 530.04627 323.394349 
L 530.589461 322.025454 
L 531.210251 319.820692 
L 531.90864 316.471626 
L 532.684627 311.601794 
L 533.560385 304.603612 
L 534.563626 294.685526 
L 535.771949 280.380198 
L 537.357181 258.743332 
L 540.20062 216.25598 
L 543.332284 170.60645 
L 545.155855 147.171954 
L 546.685659 130.251416 
L 548.071351 117.301871 
L 549.368358 107.197928 
L 550.604396 99.2467 
L 551.824525 92.820206 
L 553.038391 87.631335 
L 554.246715 83.465317 
L 555.421782 80.20359 
L 556.58022 77.614053 
L 557.783001 75.462846 
L 559.00241 73.735148 
L 560.399187 72.201621 
L 561.734994 71.083064 
L 563.20937 70.150891 
L 564.794602 69.41515 
L 566.424176 68.870063 
L 568.824194 68.332261 
L 571.93923 67.880367 
L 575.325861 67.461881 
L 578.817805 67.098909 
L 580.053842 67.209182 
L 580.707888 67.500816 
L 581.334221 68.060221 
L 581.888498 68.88413 
L 582.448318 70.127279 
L 583.035851 71.978563 
L 583.678812 74.758504 
L 584.393829 78.883326 
L 585.19753 84.896106 
L 586.101002 93.404227 
L 587.143042 105.426774 
L 588.367994 122.323021 
L 589.820199 145.632197 
L 591.671483 179.173073 
L 594.90846 242.673179 
L 597.419333 289.994241 
L 598.843825 312.856296 
L 600.002263 328.064634 
L 601.038761 338.886157 
L 602.003202 346.740501 
L 602.923302 352.503657 
L 603.815688 356.755002 
L 604.691445 359.899407 
L 605.567202 362.247757 
L 606.448502 363.995925 
L 607.351973 365.308106 
L 608.30533 366.307327 
L 609.352913 367.082687 
L 610.561236 367.69498 
L 612.046698 368.189398 
L 614.047637 368.60636 
L 616.652738 368.92006 
L 617.866604 368.878939 
L 618.62042 368.636193 
L 619.235668 368.20248 
L 619.806573 367.517052 
L 620.377478 366.461733 
L 620.970554 364.864534 
L 621.60243 362.483669 
L 622.295276 358.951168 
L 623.060178 353.829566 
L 623.924849 346.439844 
L 624.922548 335.87512 
L 626.125328 320.610615 
L 627.699474 297.563934 
L 630.399467 254.1739 
L 634.240605 193.234795 
L 636.3524 163.16715 
L 638.026316 142.355223 
L 639.495149 126.752589 
L 640.847585 114.667873 
L 642.105793 105.309718 
L 643.330745 97.791796 
L 644.544611 91.703909 
L 645.747391 86.813705 
L 646.944629 82.889837 
L 648.086439 79.872017 
L 649.28922 77.319656 
L 650.442116 75.363374 
L 651.589469 73.798699 
L 652.847677 72.433471 
L 654.227826 71.272714 
L 655.702202 70.340541 
L 657.087894 69.713314 
L 658.329474 69.434994 
L 659.016778 69.51437 
L 659.604311 69.817308 
L 660.147502 70.373949 
L 660.712865 71.326971 
L 661.28377 72.772078 
L 661.882389 74.909721 
L 662.558606 78.198828 
L 663.317965 83.093051 
L 664.160466 90.056593 
L 665.135993 100.10452 
L 666.227919 113.730173 
L 667.519384 132.727791 
L 669.104615 159.513338 
L 671.260752 200.055133 
L 676.310213 296.318676 
L 677.651563 316.908549 
L 678.776745 330.932543 
L 679.791072 340.939274 
L 680.744428 348.252495 
L 681.658984 353.631704 
L 682.545827 357.589419 
L 683.421584 360.528291 
L 684.291799 362.705592 
L 685.173099 364.334527 
L 686.082113 365.559939 
L 687.041012 366.486143 
L 688.094138 367.195346 
L 689.308004 367.741026 
L 690.799008 368.15907 
L 691.791164 368.340141 
L 691.791164 368.340141 
" style="fill:none;stroke:#ff0000;stroke-linecap:square;stroke-width:1.5;"/>
   </g>
   <g id="line2d_15">
    <path clip-path="url(#p11d81d534c)" d="M 138.436364 67.507347 
L 226.232587 67.396572 
L 232.274204 66.960251 
L 233.266359 67.071278 
L 233.965413 67.375974 
L 234.536318 67.869315 
L 235.107223 68.680665 
L 235.683671 69.925069 
L 236.276747 71.759524 
L 236.925251 74.526654 
L 237.640268 78.611034 
L 238.449512 84.623061 
L 239.347441 93.032714 
L 240.389481 104.999245 
L 241.60889 121.755378 
L 243.055552 144.903666 
L 244.901294 178.276117 
L 248.0773 240.547619 
L 250.66023 289.372567 
L 252.095807 312.49993 
L 253.254245 327.780637 
L 254.290743 338.667193 
L 255.255184 346.576138 
L 256.180827 352.41367 
L 257.073212 356.691902 
L 257.954512 359.873823 
L 258.824727 362.219727 
L 259.700484 363.968399 
L 260.598413 365.281472 
L 261.540683 366.274429 
L 262.566095 367.034345 
L 263.741162 367.62435 
L 265.182282 368.090321 
L 267.166593 368.48236 
L 270.386941 368.866583 
L 274.416533 369.144482 
L 275.358803 368.99548 
L 276.040564 368.663459 
L 276.628097 368.123834 
L 277.19346 367.288035 
L 277.769907 366.013569 
L 278.379612 364.086464 
L 279.039201 361.211144 
L 279.765304 356.983159 
L 280.574548 350.872314 
L 281.494647 342.124498 
L 282.58103 329.518734 
L 283.927922 311.108804 
L 285.834635 281.680468 
L 292.419387 177.795034 
L 294.281757 152.798577 
L 295.844818 134.681964 
L 297.252681 120.849203 
L 298.566317 110.055989 
L 299.807897 101.608657 
L 301.01622 94.8526 
L 302.219001 89.37109 
L 303.349726 85.177441 
L 304.574677 81.507528 
L 305.733116 78.724573 
L 306.96361 76.362866 
L 308.116506 74.596736 
L 309.419056 73.012218 
L 310.671722 71.81353 
L 311.990901 70.823583 
L 313.742415 69.842929 
L 315.704555 69.075538 
L 317.966004 68.474436 
L 324.927721 67.325233 
L 326.706949 67.194864 
L 327.654763 67.348845 
L 328.319895 67.70604 
L 328.8908 68.283781 
L 329.467248 69.22349 
L 330.038153 70.607306 
L 330.664485 72.760775 
L 331.33516 75.923029 
L 332.061263 80.445991 
L 332.903764 87.188735 
L 333.85712 96.739804 
L 334.943502 109.981134 
L 336.212796 128.303197 
L 337.759228 154.037882 
L 339.832223 192.568986 
L 345.319564 296.395917 
L 346.660913 316.624602 
L 347.791638 330.490093 
L 348.811507 340.40421 
L 349.770406 347.65865 
L 350.684963 352.967701 
L 351.577349 356.899096 
L 352.453106 359.801043 
L 353.328863 361.967618 
L 354.215706 363.592091 
L 355.13636 364.826536 
L 356.106344 365.76152 
L 357.137299 366.451749 
L 358.151625 366.874283 
L 358.983041 366.995297 
L 359.648173 366.87531 
L 360.224621 366.545308 
L 360.773355 365.965915 
L 361.327631 365.039419 
L 361.909622 363.604683 
L 362.535955 361.425689 
L 363.217715 358.194128 
L 363.971532 353.471462 
L 364.814032 346.690381 
L 365.778474 337.006689 
L 366.925827 323.087166 
L 368.383575 302.486316 
L 370.606225 267.512039 
L 375.58363 188.672121 
L 377.628912 160.035466 
L 379.269571 140.04054 
L 380.722497 124.946243 
L 382.058304 113.293602 
L 383.327598 104.113291 
L 384.547007 96.883737 
L 385.699902 91.319586 
L 386.874969 86.748647 
L 387.955809 83.378405 
L 389.103162 80.532149 
L 390.139659 78.499756 
L 391.1817 76.882834 
L 392.179398 75.671335 
L 393.138297 74.792415 
L 393.975255 74.286263 
L 394.668101 74.123239 
L 395.233463 74.233513 
L 395.74894 74.587442 
L 396.242247 75.209393 
L 396.779895 76.268167 
L 397.345257 77.882075 
L 397.988219 80.4269 
L 398.697693 84.19302 
L 399.518022 89.857649 
L 400.449207 97.981697 
L 401.524504 109.48503 
L 402.77717 125.432927 
L 404.323602 148.151527 
L 406.485282 183.512162 
L 411.473773 266.052212 
L 413.025748 287.556223 
L 414.295042 302.22907 
L 415.409138 312.656297 
L 416.406836 320.018481 
L 417.310307 325.129382 
L 418.114009 328.488119 
L 418.812397 330.528299 
L 419.399931 331.623873 
L 419.882152 332.104353 
L 420.286774 332.218695 
L 420.658139 332.092597 
L 421.062761 331.702697 
L 421.533896 330.912347 
L 422.08263 329.521572 
L 422.708963 327.283201 
L 423.407352 323.911804 
L 424.183339 319.008815 
L 425.053554 312.008247 
L 426.056795 302.018471 
L 427.259243 287.664813 
L 428.916032 264.770179 
L 431.792728 221.18012 
L 434.985362 173.96172 
L 436.853275 149.528711 
L 438.40525 132.025911 
L 439.802028 118.69679 
L 441.104578 108.320504 
L 442.335073 100.211276 
L 443.526768 93.753384 
L 444.707377 88.526332 
L 445.871359 84.338209 
L 447.068596 80.860206 
L 448.17715 78.257104 
L 449.31896 76.085299 
L 450.610425 74.13605 
L 451.735607 72.792174 
L 453.165641 71.46161 
L 454.490363 70.523408 
L 455.903768 69.758027 
L 457.965678 68.944918 
L 460.714891 68.189333 
L 464.05718 67.545528 
L 466.108004 67.377983 
L 466.96159 67.565875 
L 467.560209 67.928847 
L 468.153285 68.585212 
L 468.696476 69.53748 
L 469.28401 71.048902 
L 469.888172 73.232513 
L 470.547761 76.454803 
L 471.284949 81.186002 
L 472.12745 88.105585 
L 473.075263 97.794559 
L 474.189969 111.624432 
L 475.475891 130.490274 
L 477.050037 157.04279 
L 479.172917 196.93764 
L 484.433004 297.354742 
L 485.757726 317.550721 
L 486.877365 331.3924 
L 487.891691 341.303427 
L 488.845047 348.535498 
L 489.759604 353.848584 
L 490.646447 357.753967 
L 491.522204 360.651877 
L 492.392419 362.797624 
L 493.273719 364.40227 
L 494.182733 365.609014 
L 495.147174 366.525283 
L 496.205843 367.224996 
L 497.430795 367.76386 
L 498.938428 368.175671 
L 500.955995 368.482495 
L 504.028518 368.702047 
L 515.92884 369.167345 
L 516.71037 368.873674 
L 517.36996 368.386075 
L 517.99075 367.638132 
L 518.61154 366.521737 
L 519.260044 364.86799 
L 519.958432 362.434679 
L 520.723334 358.912557 
L 521.582463 353.840161 
L 522.55799 346.668308 
L 523.705343 336.478458 
L 525.129835 321.693001 
L 527.191744 297.700909 
L 531.204708 250.790596 
L 532.845368 234.401932 
L 534.153461 223.441299 
L 535.267557 215.87545 
L 536.243084 210.684318 
L 537.102213 207.234172 
L 537.844944 205.096554 
L 538.471277 203.911782 
L 538.975669 203.382697 
L 539.385834 203.244265 
L 539.751656 203.351373 
L 540.13965 203.712713 
L 540.588614 204.462897 
L 541.115177 205.816646 
L 541.724882 208.048913 
L 542.42327 211.507248 
L 543.221429 216.646961 
L 544.141528 224.107837 
L 545.211283 234.713511 
L 546.491662 249.768647 
L 548.187749 272.582172 
L 551.741384 321.05839 
L 552.966335 334.290225 
L 554.03609 343.548053 
L 555.022702 350.242131 
L 555.95943 355.148667 
L 556.868444 358.779237 
L 557.76083 361.468337 
L 558.647672 363.465679 
L 559.545601 364.961022 
L 560.476786 366.090478 
L 561.468941 366.947631 
L 562.566409 367.600414 
L 563.841246 368.095158 
L 565.426477 368.462402 
L 567.577071 368.717354 
L 570.952617 368.869448 
L 578.391011 368.929562 
L 585.519011 369.055135 
L 592.198046 369.248873 
L 592.913063 368.956182 
L 593.517225 368.462762 
L 594.082587 367.700346 
L 594.653492 366.534434 
L 595.252111 364.771849 
L 595.895072 362.143809 
L 596.604547 358.246072 
L 597.39162 352.603827 
L 598.284005 344.498701 
L 599.326046 332.870111 
L 600.606425 315.904208 
L 602.346854 289.601503 
L 610.261927 166.173842 
L 611.969099 144.562421 
L 613.460104 128.401438 
L 614.823625 115.952217 
L 616.131718 106.030137 
L 617.37884 98.257757 
L 618.576078 92.16133 
L 619.70126 87.481625 
L 620.909584 83.415581 
L 621.995966 80.471361 
L 623.115605 78.02425 
L 624.268501 76.020241 
L 625.438025 74.421153 
L 626.579835 73.199607 
L 627.760445 72.228248 
L 628.819113 71.597254 
L 629.750963 71.296828 
L 630.393925 71.320189 
L 630.914945 71.551286 
L 631.430422 72.034328 
L 631.9459 72.840151 
L 632.511262 74.180511 
L 633.115424 76.238024 
L 633.775013 79.32467 
L 634.512201 83.903647 
L 635.332531 90.448452 
L 636.285887 99.953805 
L 637.39444 113.438539 
L 638.669277 131.839024 
L 640.215709 157.568711 
L 642.277619 195.890547 
L 647.792673 300.290648 
L 649.084138 319.493439 
L 650.187148 332.751925 
L 651.190389 342.267024 
L 652.138203 349.238014 
L 653.047217 354.353841 
L 653.93406 358.133849 
L 654.809817 360.935071 
L 655.685574 363.018552 
L 656.572417 364.57244 
L 657.486974 365.738144 
L 658.462501 366.626019 
L 659.543341 367.309227 
L 660.82372 367.84936 
L 662.469922 368.290628 
L 664.847769 368.679861 
L 668.805306 369.076719 
L 670.351738 369.071345 
L 671.149896 368.851935 
L 671.781772 368.447299 
L 672.35822 367.802927 
L 672.923582 366.819482 
L 673.511116 365.321186 
L 674.137448 363.071365 
L 674.819209 359.738983 
L 675.573025 354.877134 
L 676.421069 347.863949 
L 677.396596 337.821907 
L 678.560577 323.390908 
L 680.062667 301.781924 
L 682.440515 263.906129 
L 686.930157 192.432991 
L 689.025323 162.677502 
L 690.693696 141.998581 
L 691.791164 130.140339 
L 691.791164 130.140339 
" style="fill:none;stroke:#008000;stroke-linecap:square;stroke-width:1.5;"/>
   </g>
   <g id="line2d_16">
    <path clip-path="url(#p11d81d534c)" d="M 138.436364 368.937626 
L 202.670281 368.827085 
L 207.547916 368.590952 
L 210.535468 368.239929 
L 212.730404 367.772098 
L 214.498547 367.17675 
L 216.022808 366.426486 
L 217.364158 365.508852 
L 218.583567 364.390978 
L 219.681035 363.082461 
L 220.717533 361.511177 
L 221.75403 359.531644 
L 222.790528 357.045805 
L 223.827026 353.936749 
L 224.863523 350.067823 
L 225.900021 345.283455 
L 226.936518 339.412784 
L 228.033986 331.814493 
L 229.131454 322.594055 
L 230.289893 310.913537 
L 231.509302 296.332847 
L 232.911622 276.713206 
L 234.597289 249.690742 
L 240.694333 148.231011 
L 242.096654 130.328284 
L 243.377033 116.700764 
L 244.596442 106.040242 
L 245.75488 97.809249 
L 246.852348 91.499533 
L 247.949816 86.42347 
L 249.047284 82.379859 
L 250.144752 79.187347 
L 251.24222 76.689414 
L 252.339689 74.755611 
L 253.437157 73.280669 
L 254.534625 72.18264 
L 255.632093 71.400897 
L 256.729561 70.894493 
L 257.766058 70.648812 
L 258.802556 70.62547 
L 259.778083 70.817586 
L 260.75361 71.242255 
L 261.668167 71.887485 
L 262.582724 72.821195 
L 263.43631 74.010734 
L 264.289896 75.578337 
L 265.143482 77.611652 
L 265.997068 80.218801 
L 266.850655 83.530292 
L 267.765211 88.034832 
L 268.679768 93.740451 
L 269.594325 100.883252 
L 270.569852 110.356359 
L 271.60635 122.80197 
L 272.703818 138.871694 
L 273.923227 160.199954 
L 275.447488 191.157854 
L 279.959301 285.816324 
L 281.23968 306.522118 
L 282.398119 321.739379 
L 283.495587 333.230129 
L 284.532084 341.776029 
L 285.507611 348.087621 
L 286.483138 353.016305 
L 287.458666 356.828369 
L 288.428595 359.74008 
L 289.404122 361.976763 
L 290.379649 363.675556 
L 291.416146 365.029523 
L 292.452644 366.031746 
L 293.611082 366.842968 
L 294.891462 367.464331 
L 296.354753 367.926576 
L 298.122895 368.247276 
L 300.317832 368.407074 
L 302.81762 368.359573 
L 305.195467 368.098568 
L 307.207492 367.664344 
L 308.914664 367.072631 
L 310.377955 366.330652 
L 311.658335 365.435403 
L 312.816773 364.361767 
L 313.914241 363.045271 
L 314.950739 361.462522 
L 315.987236 359.466818 
L 317.023734 356.958975 
L 318.060231 353.820702 
L 319.074558 350.00642 
L 320.111056 345.195068 
L 321.147553 339.289028 
L 322.245021 331.642729 
L 323.342489 322.362443 
L 324.500928 310.605972 
L 325.720337 295.933468 
L 327.122657 276.200761 
L 328.829829 248.687135 
L 334.743963 149.903982 
L 336.146283 131.81746 
L 337.426662 118.073693 
L 338.585101 107.859332 
L 339.682569 99.978947 
L 340.780037 93.665283 
L 341.816534 88.973867 
L 342.792062 85.555066 
L 343.706618 83.135909 
L 344.499234 81.603897 
L 345.230879 80.629172 
L 345.901554 80.095789 
L 346.450288 79.914434 
L 346.999022 79.965969 
L 347.547756 80.257397 
L 348.09649 80.799562 
L 348.706195 81.714214 
L 349.37687 83.130697 
L 350.108515 85.216845 
L 350.901131 88.192997 
L 351.754717 92.349249 
L 352.608303 97.638602 
L 353.52286 104.747322 
L 354.498387 114.191383 
L 355.518811 126.342324 
L 356.616279 142.149368 
L 357.896658 164.078272 
L 359.48189 195.426803 
L 363.688851 280.928563 
L 365.0302 302.588034 
L 366.188639 317.944052 
L 367.286107 329.696127 
L 368.322604 338.535993 
L 369.359102 345.480398 
L 370.334629 350.561705 
L 371.310156 354.479892 
L 372.224713 357.286552 
L 373.13927 359.406006 
L 373.992856 360.870975 
L 374.846442 361.920692 
L 375.700028 362.615606 
L 376.492644 362.982503 
L 377.28526 363.107137 
L 378.077876 363.005112 
L 378.870492 362.683506 
L 379.724078 362.090498 
L 380.607041 361.196575 
L 381.542826 359.912606 
L 382.518353 358.162452 
L 383.493881 355.931607 
L 384.469408 353.14315 
L 385.505905 349.466092 
L 386.542403 344.927675 
L 387.578901 339.386389 
L 388.676369 332.260962 
L 389.834807 323.150321 
L 390.993246 312.241074 
L 392.273625 297.97059 
L 393.675945 279.705326 
L 395.322147 255.20771 
L 398.065817 210.357777 
L 400.504635 171.994029 
L 402.089867 150.529136 
L 403.370246 135.989821 
L 404.528685 125.213714 
L 405.565182 117.540682 
L 406.479739 112.314883 
L 407.272355 108.948927 
L 407.94303 106.940379 
L 408.491764 105.869757 
L 408.979527 105.353148 
L 409.34535 105.236645 
L 409.711173 105.354785 
L 410.076995 105.710321 
L 410.503788 106.429572 
L 411.052522 107.845602 
L 411.662227 110.084118 
L 412.393872 113.725451 
L 413.186488 118.890136 
L 414.101045 126.48406 
L 415.076572 136.561946 
L 416.17404 150.325734 
L 417.454419 169.407625 
L 419.039651 196.633788 
L 424.100198 286.422992 
L 425.502518 305.887798 
L 426.721927 319.901871 
L 427.862906 330.641918 
L 428.960374 339.012271 
L 430.057842 345.713417 
L 431.094339 350.747536 
L 432.130837 354.740527 
L 433.167335 357.883256 
L 434.203832 360.34045 
L 435.24033 362.250069 
L 436.276827 363.725042 
L 437.374295 364.913571 
L 438.532734 365.842874 
L 439.752143 366.541469 
L 441.093493 367.053789 
L 442.556783 367.372842 
L 444.142015 367.486835 
L 445.727247 367.38257 
L 447.251508 367.069024 
L 448.714798 366.538437 
L 449.995178 365.84434 
L 451.214587 364.928738 
L 452.373025 363.765265 
L 453.470493 362.327754 
L 454.506991 360.593865 
L 455.543488 358.405638 
L 456.579986 355.657553 
L 457.616484 352.224556 
L 458.652981 347.961896 
L 459.689479 342.707121 
L 460.725976 336.285427 
L 461.823444 328.017428 
L 462.981883 317.443156 
L 464.201292 304.083354 
L 465.481671 287.527577 
L 466.944962 265.649046 
L 468.896016 232.827787 
L 472.920066 164.330391 
L 474.494821 141.826132 
L 475.836171 125.654241 
L 477.116551 112.855932 
L 478.274989 103.363741 
L 479.433428 95.642342 
L 480.530896 89.741264 
L 481.628364 85.002472 
L 482.725832 81.229217 
L 483.8233 78.24598 
L 484.920768 75.901829 
L 486.018236 74.070497 
L 487.115704 72.648631 
L 488.274142 71.500514 
L 489.493551 70.601179 
L 490.773931 69.926088 
L 492.176251 69.438655 
L 493.639541 69.16181 
L 495.163803 69.097637 
L 496.627093 69.251811 
L 498.029414 69.62425 
L 499.309793 70.200894 
L 500.468231 70.971482 
L 501.5657 71.982495 
L 502.576312 73.222735 
L 503.55184 74.776147 
L 504.527367 76.768623 
L 505.502894 79.308568 
L 506.478421 82.526694 
L 507.453948 86.576974 
L 508.429475 91.635305 
L 509.405002 97.894402 
L 510.4415 106.082693 
L 511.477998 116.073878 
L 512.575466 128.807459 
L 513.794874 145.646969 
L 515.197195 168.285959 
L 517.087279 202.781402 
L 520.257742 260.825332 
L 521.660062 282.331403 
L 522.818501 296.998057 
L 523.854998 307.535286 
L 524.769555 314.795611 
L 525.623141 319.900044 
L 526.354786 323.045092 
L 526.964491 324.83637 
L 527.513225 325.828789 
L 527.940018 326.207685 
L 528.305841 326.265742 
L 528.671663 326.082641 
L 529.098456 325.569938 
L 529.58622 324.596928 
L 530.195925 322.811227 
L 530.866599 320.129873 
L 531.659215 316.010116 
L 532.573772 310.000194 
L 533.61027 301.599851 
L 534.768708 290.290302 
L 536.110058 274.851543 
L 537.695289 253.860934 
L 539.951196 220.675005 
L 543.548452 167.851474 
L 545.255625 146.091575 
L 546.779886 129.428317 
L 548.121236 117.051391 
L 549.401615 107.165076 
L 550.646632 99.206712 
L 551.830068 92.982159 
L 552.988506 87.984235 
L 554.146945 83.908575 
L 555.305383 80.606636 
L 556.463822 77.945795 
L 557.62226 75.810993 
L 558.841669 74.02499 
L 560.061078 72.619129 
L 561.341458 71.467968 
L 562.743778 70.50665 
L 564.268039 69.73533 
L 565.975212 69.127739 
L 567.865295 68.694415 
L 569.938291 68.449497 
L 572.011286 68.428551 
L 573.840399 68.627809 
L 575.36466 69.008593 
L 576.64504 69.544606 
L 577.803478 70.269193 
L 578.839976 71.18165 
L 579.815503 72.345168 
L 580.73006 73.786881 
L 581.644616 75.666549 
L 582.559173 78.105241 
L 583.412759 81.016948 
L 584.327316 84.986828 
L 585.241873 90.040964 
L 586.156429 96.414863 
L 587.070986 104.359076 
L 588.046513 114.837802 
L 589.083011 128.502129 
L 590.180479 145.962576 
L 591.455315 169.912045 
L 593.223458 207.883276 
L 596.271981 273.611504 
L 597.61333 297.569612 
L 598.771769 314.624112 
L 599.869237 327.660617 
L 600.905734 337.428207 
L 601.881262 344.666776 
L 602.856789 350.318812 
L 603.832316 354.673315 
L 604.746873 357.805665 
L 605.661429 360.202129 
L 606.575986 362.009993 
L 607.490543 363.347166 
L 608.405099 364.305632 
L 609.319656 364.955148 
L 610.234213 365.346664 
L 611.20974 365.519147 
L 612.185267 365.463383 
L 613.160794 365.189684 
L 614.136321 364.694597 
L 615.172819 363.907367 
L 616.148346 362.889331 
L 617.123873 361.558503 
L 618.0994 359.857446 
L 619.074927 357.713682 
L 620.050455 355.038763 
L 621.025982 351.727728 
L 622.062479 347.377052 
L 623.098977 342.008712 
L 624.135474 335.448026 
L 625.232943 327.00655 
L 626.391381 316.224186 
L 627.61079 302.627547 
L 628.95214 284.958984 
L 630.46598 261.892984 
L 632.538976 226.555311 
L 636.014291 167.264357 
L 637.599523 144.182687 
L 639.001843 126.943916 
L 640.282222 113.915702 
L 641.501631 103.780845 
L 642.66007 95.990798 
L 643.757538 90.041309 
L 644.855006 85.271262 
L 645.952474 81.485006 
L 646.988971 78.655552 
L 648.025469 76.423259 
L 649.061967 74.684073 
L 650.098464 73.354356 
L 651.134962 72.369649 
L 652.171459 71.683436 
L 653.207957 71.266277 
L 654.183484 71.107907 
L 655.159011 71.180047 
L 656.073568 71.473001 
L 656.988125 72.012573 
L 657.841711 72.776244 
L 658.695297 73.840195 
L 659.548883 75.267858 
L 660.40247 77.140182 
L 661.256056 79.558036 
L 662.109642 82.644248 
L 662.963228 86.544643 
L 663.877785 91.818291 
L 664.792342 98.448534 
L 665.767869 107.285331 
L 666.743396 118.209912 
L 667.779894 132.333972 
L 668.938332 151.280943 
L 670.279682 177.024624 
L 672.352677 221.840909 
L 674.730524 272.020449 
L 676.132845 296.935983 
L 677.352254 314.722064 
L 678.449722 327.620666 
L 679.486219 337.333334 
L 680.522717 344.973209 
L 681.498244 350.583363 
L 682.473771 354.946413 
L 683.449298 358.311261 
L 684.424825 360.889541 
L 685.400353 362.855345 
L 686.37588 364.348503 
L 687.412377 365.540127 
L 688.509845 366.469217 
L 689.729254 367.20849 
L 691.131575 367.790369 
L 692.838969 368.242029 
L 694.972934 368.565737 
L 698.021457 368.785723 
L 703.203945 368.904502 
L 718.080733 368.937208 
L 747.163636 368.937626 
L 747.163636 368.937626 
" style="fill:none;stroke:#ff0000;stroke-dasharray:5.55,2.4;stroke-dashoffset:0;stroke-width:1.5;"/>
   </g>
   <g id="line2d_17">
    <path clip-path="url(#p11d81d534c)" d="M 138.436364 67.507347 
L 220.35171 67.616543 
L 224.192848 67.849708 
L 226.570696 68.201412 
L 228.338839 68.680364 
L 229.741159 69.284518 
L 230.960568 70.055713 
L 231.997065 70.966266 
L 232.972593 72.113996 
L 233.926614 73.596416 
L 234.84117 75.451583 
L 235.755727 77.852163 
L 236.670284 80.944927 
L 237.584841 84.907046 
L 238.499397 89.94637 
L 239.413954 96.29723 
L 240.328511 104.209064 
L 241.304038 114.642165 
L 242.340535 128.24579 
L 243.438003 145.631174 
L 244.718383 169.60014 
L 246.486526 207.478927 
L 249.535048 273.181294 
L 250.876398 297.191008 
L 252.034836 314.310835 
L 253.132304 327.419239 
L 254.168802 337.258974 
L 255.144329 344.567122 
L 256.119856 350.290051 
L 257.095383 354.717782 
L 258.07091 358.108635 
L 259.046438 360.681462 
L 260.021965 362.615137 
L 260.997492 364.051928 
L 261.973019 365.102478 
L 263.009517 365.889343 
L 264.106985 366.433119 
L 265.265423 366.750441 
L 266.484832 366.848827 
L 267.765211 366.720999 
L 269.045591 366.361019 
L 270.265 365.784456 
L 271.423438 364.990963 
L 272.520906 363.972337 
L 273.618374 362.634194 
L 274.654872 361.00799 
L 275.691369 358.947023 
L 276.727867 356.351878 
L 277.764365 353.103654 
L 278.800862 349.063542 
L 279.83736 344.074261 
L 280.873857 337.9645 
L 281.971325 330.077895 
L 283.068793 320.539354 
L 284.227232 308.504352 
L 285.507611 292.745494 
L 286.909932 272.627753 
L 288.672476 243.886586 
L 293.976905 154.860489 
L 295.440196 135.23646 
L 296.781546 120.189592 
L 298.000955 108.915805 
L 299.159393 100.15483 
L 300.317832 93.065558 
L 301.4153 87.668668 
L 302.512768 83.346511 
L 303.610236 79.910849 
L 304.707704 77.196222 
L 305.805172 75.061713 
L 306.90264 73.390092 
L 308.061078 72.022226 
L 309.280487 70.925526 
L 310.560867 70.064865 
L 312.024157 69.355851 
L 313.670359 68.816383 
L 315.560443 68.443036 
L 317.633438 68.265968 
L 319.684262 68.30999 
L 321.513376 68.567581 
L 323.037637 69.003067 
L 324.318016 69.594202 
L 325.476455 70.380667 
L 326.512952 71.362738 
L 327.48848 72.608737 
L 328.403036 74.147447 
L 329.317593 76.14843 
L 330.23215 78.738744 
L 331.146706 82.074272 
L 332.061263 86.341846 
L 332.97582 91.758378 
L 333.890376 98.564723 
L 334.865904 107.638808 
L 335.841431 118.862104 
L 336.877928 133.374444 
L 338.036367 152.8274 
L 339.438687 180.470031 
L 341.816534 232.918741 
L 343.767589 273.876392 
L 345.108938 297.667233 
L 346.267377 314.558439 
L 347.364845 327.425707 
L 348.401343 337.016996 
L 349.37687 344.068715 
L 350.291426 349.20721 
L 351.205983 353.156341 
L 352.059569 355.949122 
L 352.913156 358.022955 
L 353.705771 359.404471 
L 354.437417 360.278591 
L 355.152988 360.803755 
L 355.823663 361.026469 
L 356.494338 361.005312 
L 357.165013 360.749707 
L 357.896658 360.206744 
L 358.628304 359.38364 
L 359.420919 358.160914 
L 360.274506 356.42906 
L 361.189062 354.043776 
L 362.103619 351.037995 
L 363.079146 347.046429 
L 364.054673 342.120528 
L 365.091171 335.708319 
L 366.188639 327.410499 
L 367.286107 317.379444 
L 368.444545 304.759344 
L 369.724925 288.321136 
L 371.188215 266.537953 
L 373.078299 234.827517 
L 377.28526 163.220525 
L 378.809521 141.560897 
L 380.150871 125.486428 
L 381.420885 112.906205 
L 382.579324 103.540765 
L 383.676792 96.339029 
L 384.77426 90.561691 
L 385.810758 86.23456 
L 386.847255 82.847756 
L 387.822782 80.400187 
L 388.737339 78.674699 
L 389.590925 77.508587 
L 390.383541 76.779173 
L 391.115186 76.392222 
L 391.785861 76.273109 
L 392.456536 76.379443 
L 393.127211 76.716465 
L 393.858856 77.359576 
L 394.590502 78.310385 
L 395.383118 79.720852 
L 396.236704 81.735041 
L 397.09029 84.334187 
L 398.004847 87.867918 
L 398.919404 92.298783 
L 399.894931 98.170417 
L 400.931428 105.898059 
L 401.967926 115.358077 
L 403.065394 127.442021 
L 404.284803 143.467223 
L 405.687123 165.121169 
L 407.455266 196.233592 
L 411.479315 268.288529 
L 412.881636 288.746028 
L 414.040074 302.674304 
L 415.076572 312.725802 
L 416.052099 320.12879 
L 416.905685 325.033783 
L 417.698301 328.338557 
L 418.368976 330.23934 
L 418.91771 331.208545 
L 419.405473 331.641276 
L 419.771296 331.707093 
L 420.137119 331.555011 
L 420.563912 331.106049 
L 421.051676 330.239391 
L 421.66138 328.631593 
L 422.332055 326.195308 
L 423.124671 322.417832 
L 424.039227 316.850395 
L 425.014755 309.484437 
L 426.112223 299.451599 
L 427.375142 285.694914 
L 428.777462 267.891311 
L 430.545605 242.438 
L 436.64265 151.853773 
L 438.166911 133.86838 
L 439.569231 119.899369 
L 440.849611 109.267453 
L 442.06902 100.883429 
L 443.288429 94.010571 
L 444.446867 88.693733 
L 445.605306 84.379548 
L 446.763744 80.904332 
L 447.922183 78.121931 
L 449.080621 75.905955 
L 450.23906 74.149771 
L 451.458469 72.701216 
L 452.738848 71.532994 
L 454.080198 70.616703 
L 455.482518 69.926796 
L 457.006779 69.429737 
L 458.592011 69.153818 
L 460.116272 69.11182 
L 461.518592 69.286939 
L 462.798972 69.667039 
L 463.95741 70.246241 
L 464.993908 71.013832 
L 465.969435 72.0178 
L 466.883991 73.279363 
L 467.798548 74.938127 
L 468.713105 77.10235 
L 469.566691 79.696711 
L 470.420277 82.98107 
L 471.334834 87.443463 
L 472.249391 93.0973 
L 473.163947 100.18403 
L 474.129276 109.491276 
L 475.104526 121.062345 
L 476.201994 136.918487 
L 477.421403 158.079374 
L 478.884693 187.688883 
L 483.701359 288.96066 
L 484.920768 308.361221 
L 486.018236 322.607095 
L 487.054733 333.423157 
L 488.091231 341.97714 
L 489.066758 348.278622 
L 490.042285 353.186141 
L 491.017812 356.970539 
L 491.993339 359.865862 
L 492.968867 362.066551 
L 493.944394 363.729655 
L 494.919921 364.979411 
L 495.956418 365.962159 
L 497.114857 366.745268 
L 498.395236 367.32761 
L 499.858527 367.733463 
L 501.504729 367.955879 
L 503.429899 367.986504 
L 505.441923 367.799522 
L 507.392978 367.399996 
L 509.161121 366.811754 
L 510.685382 366.078586 
L 512.087702 365.160384 
L 513.368081 364.057745 
L 514.58749 362.708669 
L 515.745929 361.088459 
L 516.843397 359.177915 
L 517.940865 356.822092 
L 519.038333 353.929565 
L 520.135801 350.396217 
L 521.233269 346.106844 
L 522.391707 340.623568 
L 523.550146 334.017038 
L 524.769555 325.70596 
L 526.049934 315.363476 
L 527.452254 302.097681 
L 529.037486 284.858087 
L 531.293393 257.559953 
L 533.976092 225.601872 
L 535.317442 212.272699 
L 536.35394 204.11308 
L 537.146555 199.42976 
L 537.81723 196.64933 
L 538.365964 195.234903 
L 538.792757 194.690262 
L 539.09761 194.604438 
L 539.402462 194.773509 
L 539.768285 195.313828 
L 540.195078 196.408101 
L 540.743812 198.539888 
L 541.414487 202.220213 
L 542.207102 208.005423 
L 543.121659 216.414176 
L 544.280098 229.247648 
L 545.9263 250.217851 
L 549.584526 297.40932 
L 551.098423 313.714659 
L 552.439772 325.834403 
L 553.659181 334.951052 
L 554.81762 342.059533 
L 555.976058 347.83033 
L 557.073526 352.237718 
L 558.170994 355.77878 
L 559.268462 358.602777 
L 560.36593 360.841519 
L 561.463398 362.607772 
L 562.621837 364.063434 
L 563.841246 365.239495 
L 565.121625 366.171088 
L 566.523946 366.922227 
L 568.109177 367.522454 
L 569.999261 367.994706 
L 572.316138 368.331043 
L 575.120778 368.503334 
L 578.230271 368.469873 
L 580.973941 368.228983 
L 583.168877 367.826911 
L 584.997991 367.270101 
L 586.522252 366.576676 
L 587.863602 365.722592 
L 589.083011 364.677999 
L 590.180479 363.452023 
L 591.272404 361.887805 
L 592.308902 360.002692 
L 593.345399 357.631436 
L 594.381897 354.660487 
L 595.418394 350.956396 
L 596.454892 346.366204 
L 597.491389 340.720407 
L 598.527887 333.839806 
L 599.625355 325.012367 
L 600.783794 313.775841 
L 602.003202 299.667587 
L 603.344552 281.437243 
L 604.929784 256.636888 
L 607.307631 215.370114 
L 610.051301 168.672926 
L 611.636533 145.331582 
L 613.038853 127.865102 
L 614.319233 114.65218 
L 615.538642 104.372252 
L 616.69708 96.476316 
L 617.794548 90.456437 
L 618.892016 85.645578 
L 619.928514 82.036316 
L 620.965011 79.186381 
L 622.001509 76.97278 
L 622.977036 75.381197 
L 623.952563 74.200869 
L 624.86712 73.426773 
L 625.720706 72.973004 
L 626.574292 72.770329 
L 627.366908 72.809529 
L 628.159524 73.0795 
L 628.95214 73.601531 
L 629.734335 74.394954 
L 630.526951 75.524217 
L 631.319567 77.037759 
L 632.173153 79.180338 
L 633.026739 81.963218 
L 633.880325 85.520447 
L 634.794882 90.36966 
L 635.709439 96.505845 
L 636.623996 104.161917 
L 637.599523 114.260417 
L 638.63602 127.426144 
L 639.733488 144.256767 
L 641.013868 167.499463 
L 642.72104 203.088797 
L 646.135385 275.285548 
L 647.476735 298.574809 
L 648.635173 315.177052 
L 649.732642 327.909174 
L 650.769139 337.491916 
L 651.805637 345.024786 
L 652.781164 350.549847 
L 653.756691 354.837144 
L 654.732218 358.129798 
L 655.707745 360.633797 
L 656.683272 362.517672 
L 657.6588 363.915591 
L 658.634327 364.931882 
L 659.609854 365.645786 
L 660.646351 366.138112 
L 661.743819 366.413447 
L 662.902258 366.468802 
L 664.060696 366.302457 
L 665.219135 365.914825 
L 666.377573 365.287612 
L 667.475041 364.439171 
L 668.572509 363.294975 
L 669.609007 361.884211 
L 670.645505 360.080572 
L 671.682002 357.795623 
L 672.7185 354.92188 
L 673.754997 351.331819 
L 674.791495 346.878235 
L 675.827993 341.396949 
L 676.86449 334.71309 
L 677.961958 326.131752 
L 679.120397 315.195979 
L 680.339806 301.440826 
L 681.681155 283.618016 
L 683.205417 260.260568 
L 685.400353 222.7316 
L 688.570816 168.771315 
L 690.156047 145.526643 
L 691.558368 128.100911 
L 692.838969 114.886806 
L 694.058378 104.579014 
L 695.216816 96.632888 
L 696.314284 90.544974 
L 697.411752 85.644815 
L 698.50922 81.733669 
L 699.606688 78.632797 
L 700.704156 76.187386 
L 701.801624 74.266969 
L 702.960063 72.690684 
L 704.118501 71.477023 
L 705.398881 70.460087 
L 706.801201 69.640499 
L 708.386433 68.983079 
L 710.215546 68.471212 
L 712.471452 68.076878 
L 715.459004 67.790857 
L 719.909847 67.607551 
L 728.384739 67.521165 
L 747.163636 67.507518 
L 747.163636 67.507518 
" style="fill:none;stroke:#008000;stroke-dasharray:5.55,2.4;stroke-dashoffset:0;stroke-width:1.5;"/>
   </g>
   <g id="patch_3">
    <path d="M 108 384.48 
L 108 51.84 
" style="fill:none;stroke:#000000;stroke-linecap:square;stroke-linejoin:miter;stroke-width:0.8;"/>
   </g>
   <g id="patch_4">
    <path d="M 777.6 384.48 
L 777.6 51.84 
" style="fill:none;stroke:#000000;stroke-linecap:square;stroke-linejoin:miter;stroke-width:0.8;"/>
   </g>
   <g id="patch_5">
    <path d="M 108 384.48 
L 777.6 384.48 
" style="fill:none;stroke:#000000;stroke-linecap:square;stroke-linejoin:miter;stroke-width:0.8;"/>
   </g>
   <g id="patch_6">
    <path d="M 108 51.84 
L 777.6 51.84 
" style="fill:none;stroke:#000000;stroke-linecap:square;stroke-linejoin:miter;stroke-width:0.8;"/>
   </g>
   <g id="text_17">
    <!-- In  RMSE: 0.01472 -->
    <defs>
     <path d="M 9.8125 72.90625 
L 50.296875 72.90625 
L 50.296875 64.59375 
L 35.015625 64.59375 
L 35.015625 8.296875 
L 50.296875 8.296875 
L 50.296875 0 
L 9.8125 0 
L 9.8125 8.296875 
L 25.09375 8.296875 
L 25.09375 64.59375 
L 9.8125 64.59375 
z
" id="DejaVuSansMono-49"/>
     <path d="M 51.3125 33.890625 
L 51.3125 0 
L 42.28125 0 
L 42.28125 33.890625 
Q 42.28125 41.265625 39.6875 44.71875 
Q 37.109375 48.1875 31.59375 48.1875 
Q 25.296875 48.1875 21.890625 43.71875 
Q 18.5 39.265625 18.5 30.90625 
L 18.5 0 
L 9.515625 0 
L 9.515625 54.6875 
L 18.5 54.6875 
L 18.5 46.484375 
Q 20.90625 51.171875 25 53.578125 
Q 29.109375 56 34.71875 56 
Q 43.0625 56 47.1875 50.5 
Q 51.3125 45.015625 51.3125 33.890625 
z
" id="DejaVuSansMono-6e"/>
     <path id="DejaVuSansMono-20"/>
     <path d="M 37.109375 34.421875 
Q 40.921875 33.453125 43.609375 30.734375 
Q 46.296875 28.03125 50.296875 19.921875 
L 60.203125 0 
L 49.609375 0 
L 40.921875 18.40625 
Q 37.15625 26.265625 34.15625 28.53125 
Q 31.15625 30.8125 26.3125 30.8125 
L 16.890625 30.8125 
L 16.890625 0 
L 6.984375 0 
L 6.984375 72.90625 
L 27.296875 72.90625 
Q 39.3125 72.90625 45.703125 67.484375 
Q 52.09375 62.0625 52.09375 51.8125 
Q 52.09375 44.578125 48.15625 40.015625 
Q 44.234375 35.453125 37.109375 34.421875 
z
M 16.890625 64.796875 
L 16.890625 38.921875 
L 27.6875 38.921875 
Q 34.765625 38.921875 38.234375 42.09375 
Q 41.703125 45.265625 41.703125 51.8125 
Q 41.703125 58.109375 38.015625 61.453125 
Q 34.328125 64.796875 27.296875 64.796875 
z
" id="DejaVuSansMono-52"/>
     <path d="M 4.203125 72.90625 
L 17.390625 72.90625 
L 29.984375 35.796875 
L 42.671875 72.90625 
L 55.90625 72.90625 
L 55.90625 0 
L 46.78125 0 
L 46.78125 64.40625 
L 33.796875 25.984375 
L 26.3125 25.984375 
L 13.28125 64.40625 
L 13.28125 0 
L 4.203125 0 
z
" id="DejaVuSansMono-4d"/>
     <path d="M 49.421875 70.40625 
L 49.421875 60.40625 
Q 44.921875 63.28125 40.40625 64.75 
Q 35.890625 66.21875 31.296875 66.21875 
Q 24.3125 66.21875 20.265625 62.96875 
Q 16.21875 59.71875 16.21875 54.203125 
Q 16.21875 49.359375 18.875 46.8125 
Q 21.53125 44.28125 28.8125 42.578125 
L 33.984375 41.40625 
Q 44.234375 39.015625 48.921875 33.890625 
Q 53.609375 28.765625 53.609375 19.921875 
Q 53.609375 9.515625 47.15625 4.046875 
Q 40.71875 -1.421875 28.421875 -1.421875 
Q 23.296875 -1.421875 18.109375 -0.3125 
Q 12.9375 0.78125 7.71875 2.984375 
L 7.71875 13.484375 
Q 13.328125 9.90625 18.328125 8.25 
Q 23.34375 6.59375 28.421875 6.59375 
Q 35.890625 6.59375 40.03125 9.9375 
Q 44.1875 13.28125 44.1875 19.28125 
Q 44.1875 24.75 41.328125 27.625 
Q 38.484375 30.515625 31.390625 32.078125 
L 26.125 33.296875 
Q 15.96875 35.59375 11.375 40.234375 
Q 6.78125 44.875 6.78125 52.6875 
Q 6.78125 62.453125 13.34375 68.328125 
Q 19.921875 74.21875 30.8125 74.21875 
Q 35.015625 74.21875 39.640625 73.265625 
Q 44.28125 72.3125 49.421875 70.40625 
z
" id="DejaVuSansMono-53"/>
     <path d="M 9.625 72.90625 
L 52.875 72.90625 
L 52.875 64.59375 
L 19.484375 64.59375 
L 19.484375 43.015625 
L 51.421875 43.015625 
L 51.421875 34.71875 
L 19.484375 34.71875 
L 19.484375 8.296875 
L 53.8125 8.296875 
L 53.8125 0 
L 9.625 0 
z
" id="DejaVuSansMono-45"/>
     <path d="M 23.875 51.90625 
L 36.1875 51.90625 
L 36.1875 37.109375 
L 23.875 37.109375 
z
M 23.875 14.890625 
L 36.1875 14.890625 
L 36.1875 0 
L 23.875 0 
z
" id="DejaVuSansMono-3a"/>
     <path d="M 23.578125 36.625 
Q 23.578125 39.3125 25.453125 41.265625 
Q 27.34375 43.21875 29.984375 43.21875 
Q 32.71875 43.21875 34.671875 41.265625 
Q 36.625 39.3125 36.625 36.625 
Q 36.625 33.890625 34.6875 31.984375 
Q 32.765625 30.078125 29.984375 30.078125 
Q 27.25 30.078125 25.40625 31.9375 
Q 23.578125 33.796875 23.578125 36.625 
z
M 30.078125 66.40625 
Q 23.1875 66.40625 19.796875 58.984375 
Q 16.40625 51.5625 16.40625 36.375 
Q 16.40625 21.234375 19.796875 13.8125 
Q 23.1875 6.390625 30.078125 6.390625 
Q 37.015625 6.390625 40.40625 13.8125 
Q 43.796875 21.234375 43.796875 36.375 
Q 43.796875 51.5625 40.40625 58.984375 
Q 37.015625 66.40625 30.078125 66.40625 
z
M 30.078125 74.21875 
Q 41.75 74.21875 47.734375 64.640625 
Q 53.71875 55.078125 53.71875 36.375 
Q 53.71875 17.71875 47.734375 8.140625 
Q 41.75 -1.421875 30.078125 -1.421875 
Q 18.40625 -1.421875 12.453125 8.140625 
Q 6.5 17.71875 6.5 36.375 
Q 6.5 55.078125 12.453125 64.640625 
Q 18.40625 74.21875 30.078125 74.21875 
z
" id="DejaVuSansMono-30"/>
     <path d="M 23.875 14.890625 
L 36.1875 14.890625 
L 36.1875 0 
L 23.875 0 
z
" id="DejaVuSansMono-2e"/>
     <path d="M 13.1875 8.296875 
L 28.515625 8.296875 
L 28.515625 64.015625 
L 12.015625 60.296875 
L 12.015625 69.28125 
L 28.421875 72.90625 
L 38.28125 72.90625 
L 38.28125 8.296875 
L 53.421875 8.296875 
L 53.421875 0 
L 13.1875 0 
z
" id="DejaVuSansMono-31"/>
     <path d="M 35.890625 63.921875 
L 12.890625 25.390625 
L 35.890625 25.390625 
z
M 34.28125 72.90625 
L 45.703125 72.90625 
L 45.703125 25.390625 
L 55.421875 25.390625 
L 55.421875 17.390625 
L 45.703125 17.390625 
L 45.703125 0 
L 35.890625 0 
L 35.890625 17.390625 
L 4.984375 17.390625 
L 4.984375 26.703125 
z
" id="DejaVuSansMono-34"/>
     <path d="M 6.78125 72.90625 
L 52.6875 72.90625 
L 52.6875 68.703125 
L 26.609375 0 
L 16.3125 0 
L 41.703125 64.59375 
L 6.78125 64.59375 
z
" id="DejaVuSansMono-37"/>
     <path d="M 18.21875 8.296875 
L 51.703125 8.296875 
L 51.703125 0 
L 7.421875 0 
L 7.421875 8.296875 
Q 16.546875 17.921875 23.375 25.296875 
Q 30.21875 32.671875 32.8125 35.6875 
Q 37.703125 41.65625 39.40625 45.34375 
Q 41.109375 49.03125 41.109375 52.875 
Q 41.109375 58.984375 37.515625 62.453125 
Q 33.9375 65.921875 27.6875 65.921875 
Q 23.25 65.921875 18.359375 64.3125 
Q 13.484375 62.703125 8.015625 59.421875 
L 8.015625 69.390625 
Q 13.03125 71.78125 17.890625 73 
Q 22.75 74.21875 27.484375 74.21875 
Q 38.1875 74.21875 44.703125 68.53125 
Q 51.21875 62.84375 51.21875 53.609375 
Q 51.21875 48.921875 49.046875 44.234375 
Q 46.875 39.546875 42 33.890625 
Q 39.265625 30.71875 34.0625 25.09375 
Q 28.859375 19.484375 18.21875 8.296875 
z
" id="DejaVuSansMono-32"/>
    </defs>
    <g transform="translate(138.436364 282.318493)scale(0.1 -0.1)">
     <use xlink:href="#DejaVuSansMono-49"/>
     <use x="60.205078" xlink:href="#DejaVuSansMono-6e"/>
     <use x="120.410156" xlink:href="#DejaVuSansMono-20"/>
     <use x="180.615234" xlink:href="#DejaVuSansMono-20"/>
     <use x="240.820312" xlink:href="#DejaVuSansMono-52"/>
     <use x="301.025391" xlink:href="#DejaVuSansMono-4d"/>
     <use x="361.230469" xlink:href="#DejaVuSansMono-53"/>
     <use x="421.435547" xlink:href="#DejaVuSansMono-45"/>
     <use x="481.640625" xlink:href="#DejaVuSansMono-3a"/>
     <use x="541.845703" xlink:href="#DejaVuSansMono-20"/>
     <use x="602.050781" xlink:href="#DejaVuSansMono-30"/>
     <use x="662.255859" xlink:href="#DejaVuSansMono-2e"/>
     <use x="722.460938" xlink:href="#DejaVuSansMono-30"/>
     <use x="782.666016" xlink:href="#DejaVuSansMono-31"/>
     <use x="842.871094" xlink:href="#DejaVuSansMono-34"/>
     <use x="903.076172" xlink:href="#DejaVuSansMono-37"/>
     <use x="963.28125" xlink:href="#DejaVuSansMono-32"/>
    </g>
    <!-- Out RMSE: 0.01446 -->
    <defs>
     <path d="M 44.1875 36.375 
Q 44.1875 52.4375 40.890625 59.328125 
Q 37.59375 66.21875 30.078125 66.21875 
Q 22.609375 66.21875 19.3125 59.328125 
Q 16.015625 52.4375 16.015625 36.375 
Q 16.015625 20.359375 19.3125 13.46875 
Q 22.609375 6.59375 30.078125 6.59375 
Q 37.59375 6.59375 40.890625 13.453125 
Q 44.1875 20.3125 44.1875 36.375 
z
M 54.5 36.375 
Q 54.5 17.328125 48.46875 7.953125 
Q 42.4375 -1.421875 30.078125 -1.421875 
Q 17.71875 -1.421875 11.71875 7.90625 
Q 5.71875 17.234375 5.71875 36.375 
Q 5.71875 55.46875 11.75 64.84375 
Q 17.78125 74.21875 30.078125 74.21875 
Q 42.4375 74.21875 48.46875 64.84375 
Q 54.5 55.46875 54.5 36.375 
z
" id="DejaVuSansMono-4f"/>
     <path d="M 9.515625 20.703125 
L 9.515625 54.59375 
L 18.5 54.59375 
L 18.5 20.703125 
Q 18.5 13.328125 21.109375 9.859375 
Q 23.734375 6.390625 29.203125 6.390625 
Q 35.546875 6.390625 38.90625 10.859375 
Q 42.28125 15.328125 42.28125 23.6875 
L 42.28125 54.59375 
L 51.3125 54.59375 
L 51.3125 0 
L 42.28125 0 
L 42.28125 8.203125 
Q 39.890625 3.46875 35.765625 1.015625 
Q 31.640625 -1.421875 26.125 -1.421875 
Q 17.71875 -1.421875 13.609375 4.078125 
Q 9.515625 9.578125 9.515625 20.703125 
z
" id="DejaVuSansMono-75"/>
     <path d="M 29.984375 70.21875 
L 29.984375 54.6875 
L 50.390625 54.6875 
L 50.390625 47.703125 
L 29.984375 47.703125 
L 29.984375 18.015625 
Q 29.984375 11.96875 32.28125 9.5625 
Q 34.578125 7.171875 40.28125 7.171875 
L 50.390625 7.171875 
L 50.390625 0 
L 39.40625 0 
Q 29.296875 0 25.140625 4.046875 
Q 21 8.109375 21 18.015625 
L 21 47.703125 
L 6.390625 47.703125 
L 6.390625 54.6875 
L 21 54.6875 
L 21 70.21875 
z
" id="DejaVuSansMono-74"/>
     <path d="M 48.390625 71.296875 
L 48.390625 62.203125 
Q 45.3125 64.015625 41.84375 64.96875 
Q 38.375 65.921875 34.625 65.921875 
Q 25.25 65.921875 20.40625 58.859375 
Q 15.578125 51.8125 15.578125 38.09375 
Q 17.921875 42.96875 22.0625 45.578125 
Q 26.21875 48.1875 31.59375 48.1875 
Q 42.140625 48.1875 47.921875 41.71875 
Q 53.71875 35.25 53.71875 23.390625 
Q 53.71875 11.578125 47.75 5.078125 
Q 41.796875 -1.421875 31 -1.421875 
Q 18.3125 -1.421875 12.40625 7.6875 
Q 6.5 16.796875 6.5 36.375 
Q 6.5 54.828125 13.59375 64.515625 
Q 20.703125 74.21875 34.1875 74.21875 
Q 37.796875 74.21875 41.40625 73.453125 
Q 45.015625 72.703125 48.390625 71.296875 
z
M 30.8125 40.484375 
Q 24.515625 40.484375 20.890625 35.9375 
Q 17.28125 31.390625 17.28125 23.390625 
Q 17.28125 15.375 20.890625 10.828125 
Q 24.515625 6.296875 30.8125 6.296875 
Q 37.359375 6.296875 40.671875 10.609375 
Q 44 14.9375 44 23.390625 
Q 44 31.890625 40.671875 36.1875 
Q 37.359375 40.484375 30.8125 40.484375 
z
" id="DejaVuSansMono-36"/>
    </defs>
    <g transform="translate(138.436364 293.580056)scale(0.1 -0.1)">
     <use xlink:href="#DejaVuSansMono-4f"/>
     <use x="60.205078" xlink:href="#DejaVuSansMono-75"/>
     <use x="120.410156" xlink:href="#DejaVuSansMono-74"/>
     <use x="180.615234" xlink:href="#DejaVuSansMono-20"/>
     <use x="240.820312" xlink:href="#DejaVuSansMono-52"/>
     <use x="301.025391" xlink:href="#DejaVuSansMono-4d"/>
     <use x="361.230469" xlink:href="#DejaVuSansMono-53"/>
     <use x="421.435547" xlink:href="#DejaVuSansMono-45"/>
     <use x="481.640625" xlink:href="#DejaVuSansMono-3a"/>
     <use x="541.845703" xlink:href="#DejaVuSansMono-20"/>
     <use x="602.050781" xlink:href="#DejaVuSansMono-30"/>
     <use x="662.255859" xlink:href="#DejaVuSansMono-2e"/>
     <use x="722.460938" xlink:href="#DejaVuSansMono-30"/>
     <use x="782.666016" xlink:href="#DejaVuSansMono-31"/>
     <use x="842.871094" xlink:href="#DejaVuSansMono-34"/>
     <use x="903.076172" xlink:href="#DejaVuSansMono-34"/>
     <use x="963.28125" xlink:href="#DejaVuSansMono-36"/>
    </g>
   </g>
   <g id="text_18">
    <!-- inv_t4_invSim_720_200Traces -->
    <defs>
     <path d="M 54.890625 33.015625 
L 54.890625 0 
L 45.90625 0 
L 45.90625 32.71875 
Q 45.90625 40.484375 42.875 44.328125 
Q 39.84375 48.1875 33.796875 48.1875 
Q 26.515625 48.1875 22.3125 43.546875 
Q 18.109375 38.921875 18.109375 30.90625 
L 18.109375 0 
L 9.078125 0 
L 9.078125 54.6875 
L 18.109375 54.6875 
L 18.109375 46.1875 
Q 21.34375 51.125 25.703125 53.5625 
Q 30.078125 56 35.796875 56 
Q 45.21875 56 50.046875 50.171875 
Q 54.890625 44.34375 54.890625 33.015625 
z
" id="DejaVuSans-6e"/>
     <path d="M 2.984375 54.6875 
L 12.5 54.6875 
L 29.59375 8.796875 
L 46.6875 54.6875 
L 56.203125 54.6875 
L 35.6875 0 
L 23.484375 0 
z
" id="DejaVuSans-76"/>
     <path d="M 50.984375 -16.609375 
L 50.984375 -23.578125 
L -0.984375 -23.578125 
L -0.984375 -16.609375 
z
" id="DejaVuSans-5f"/>
     <path d="M 53.515625 70.515625 
L 53.515625 60.890625 
Q 47.90625 63.578125 42.921875 64.890625 
Q 37.9375 66.21875 33.296875 66.21875 
Q 25.25 66.21875 20.875 63.09375 
Q 16.5 59.96875 16.5 54.203125 
Q 16.5 49.359375 19.40625 46.890625 
Q 22.3125 44.4375 30.421875 42.921875 
L 36.375 41.703125 
Q 47.40625 39.59375 52.65625 34.296875 
Q 57.90625 29 57.90625 20.125 
Q 57.90625 9.515625 50.796875 4.046875 
Q 43.703125 -1.421875 29.984375 -1.421875 
Q 24.8125 -1.421875 18.96875 -0.25 
Q 13.140625 0.921875 6.890625 3.21875 
L 6.890625 13.375 
Q 12.890625 10.015625 18.65625 8.296875 
Q 24.421875 6.59375 29.984375 6.59375 
Q 38.421875 6.59375 43.015625 9.90625 
Q 47.609375 13.234375 47.609375 19.390625 
Q 47.609375 24.75 44.3125 27.78125 
Q 41.015625 30.8125 33.5 32.328125 
L 27.484375 33.5 
Q 16.453125 35.6875 11.515625 40.375 
Q 6.59375 45.0625 6.59375 53.421875 
Q 6.59375 63.09375 13.40625 68.65625 
Q 20.21875 74.21875 32.171875 74.21875 
Q 37.3125 74.21875 42.625 73.28125 
Q 47.953125 72.359375 53.515625 70.515625 
z
" id="DejaVuSans-53"/>
     <path d="M 8.203125 72.90625 
L 55.078125 72.90625 
L 55.078125 68.703125 
L 28.609375 0 
L 18.3125 0 
L 43.21875 64.59375 
L 8.203125 64.59375 
z
" id="DejaVuSans-37"/>
     <path d="M 41.109375 46.296875 
Q 39.59375 47.171875 37.8125 47.578125 
Q 36.03125 48 33.890625 48 
Q 26.265625 48 22.1875 43.046875 
Q 18.109375 38.09375 18.109375 28.8125 
L 18.109375 0 
L 9.078125 0 
L 9.078125 54.6875 
L 18.109375 54.6875 
L 18.109375 46.1875 
Q 20.953125 51.171875 25.484375 53.578125 
Q 30.03125 56 36.53125 56 
Q 37.453125 56 38.578125 55.875 
Q 39.703125 55.765625 41.0625 55.515625 
z
" id="DejaVuSans-72"/>
     <path d="M 48.78125 52.59375 
L 48.78125 44.1875 
Q 44.96875 46.296875 41.140625 47.34375 
Q 37.3125 48.390625 33.40625 48.390625 
Q 24.65625 48.390625 19.8125 42.84375 
Q 14.984375 37.3125 14.984375 27.296875 
Q 14.984375 17.28125 19.8125 11.734375 
Q 24.65625 6.203125 33.40625 6.203125 
Q 37.3125 6.203125 41.140625 7.25 
Q 44.96875 8.296875 48.78125 10.40625 
L 48.78125 2.09375 
Q 45.015625 0.34375 40.984375 -0.53125 
Q 36.96875 -1.421875 32.421875 -1.421875 
Q 20.0625 -1.421875 12.78125 6.34375 
Q 5.515625 14.109375 5.515625 27.296875 
Q 5.515625 40.671875 12.859375 48.328125 
Q 20.21875 56 33.015625 56 
Q 37.15625 56 41.109375 55.140625 
Q 45.0625 54.296875 48.78125 52.59375 
z
" id="DejaVuSans-63"/>
    </defs>
    <g transform="translate(352.452188 45.84)scale(0.12 -0.12)">
     <use xlink:href="#DejaVuSans-69"/>
     <use x="27.783203" xlink:href="#DejaVuSans-6e"/>
     <use x="91.162109" xlink:href="#DejaVuSans-76"/>
     <use x="150.341797" xlink:href="#DejaVuSans-5f"/>
     <use x="200.341797" xlink:href="#DejaVuSans-74"/>
     <use x="239.550781" xlink:href="#DejaVuSans-34"/>
     <use x="303.173828" xlink:href="#DejaVuSans-5f"/>
     <use x="353.173828" xlink:href="#DejaVuSans-69"/>
     <use x="380.957031" xlink:href="#DejaVuSans-6e"/>
     <use x="444.335938" xlink:href="#DejaVuSans-76"/>
     <use x="503.515625" xlink:href="#DejaVuSans-53"/>
     <use x="566.992188" xlink:href="#DejaVuSans-69"/>
     <use x="594.775391" xlink:href="#DejaVuSans-6d"/>
     <use x="692.1875" xlink:href="#DejaVuSans-5f"/>
     <use x="742.1875" xlink:href="#DejaVuSans-37"/>
     <use x="805.810547" xlink:href="#DejaVuSans-32"/>
     <use x="869.433594" xlink:href="#DejaVuSans-30"/>
     <use x="933.056641" xlink:href="#DejaVuSans-5f"/>
     <use x="983.056641" xlink:href="#DejaVuSans-32"/>
     <use x="1046.679688" xlink:href="#DejaVuSans-30"/>
     <use x="1110.302734" xlink:href="#DejaVuSans-30"/>
     <use x="1173.925781" xlink:href="#DejaVuSans-54"/>
     <use x="1234.791016" xlink:href="#DejaVuSans-72"/>
     <use x="1275.904297" xlink:href="#DejaVuSans-61"/>
     <use x="1337.183594" xlink:href="#DejaVuSans-63"/>
     <use x="1392.164062" xlink:href="#DejaVuSans-65"/>
     <use x="1453.6875" xlink:href="#DejaVuSans-73"/>
    </g>
   </g>
   <g id="legend_1">
    <g id="patch_7">
     <path d="M 115 249.01625 
L 214.946875 249.01625 
Q 216.946875 249.01625 216.946875 247.01625 
L 216.946875 189.30375 
Q 216.946875 187.30375 214.946875 187.30375 
L 115 187.30375 
Q 113 187.30375 113 189.30375 
L 113 247.01625 
Q 113 249.01625 115 249.01625 
z
" style="fill:#ffffff;opacity:0.8;stroke:#cccccc;stroke-linejoin:miter;"/>
    </g>
    <g id="line2d_18">
     <path d="M 117 195.402188 
L 137 195.402188 
" style="fill:none;stroke:#ff0000;stroke-linecap:square;stroke-width:1.5;"/>
    </g>
    <g id="line2d_19"/>
    <g id="text_19">
     <!-- Input -->
     <defs>
      <path d="M 9.8125 72.90625 
L 19.671875 72.90625 
L 19.671875 0 
L 9.8125 0 
z
" id="DejaVuSans-49"/>
      <path d="M 18.109375 8.203125 
L 18.109375 -20.796875 
L 9.078125 -20.796875 
L 9.078125 54.6875 
L 18.109375 54.6875 
L 18.109375 46.390625 
Q 20.953125 51.265625 25.265625 53.625 
Q 29.59375 56 35.59375 56 
Q 45.5625 56 51.78125 48.09375 
Q 58.015625 40.1875 58.015625 27.296875 
Q 58.015625 14.40625 51.78125 6.484375 
Q 45.5625 -1.421875 35.59375 -1.421875 
Q 29.59375 -1.421875 25.265625 0.953125 
Q 20.953125 3.328125 18.109375 8.203125 
z
M 48.6875 27.296875 
Q 48.6875 37.203125 44.609375 42.84375 
Q 40.53125 48.484375 33.40625 48.484375 
Q 26.265625 48.484375 22.1875 42.84375 
Q 18.109375 37.203125 18.109375 27.296875 
Q 18.109375 17.390625 22.1875 11.75 
Q 26.265625 6.109375 33.40625 6.109375 
Q 40.53125 6.109375 44.609375 11.75 
Q 48.6875 17.390625 48.6875 27.296875 
z
" id="DejaVuSans-70"/>
      <path d="M 8.5 21.578125 
L 8.5 54.6875 
L 17.484375 54.6875 
L 17.484375 21.921875 
Q 17.484375 14.15625 20.5 10.265625 
Q 23.53125 6.390625 29.59375 6.390625 
Q 36.859375 6.390625 41.078125 11.03125 
Q 45.3125 15.671875 45.3125 23.6875 
L 45.3125 54.6875 
L 54.296875 54.6875 
L 54.296875 0 
L 45.3125 0 
L 45.3125 8.40625 
Q 42.046875 3.421875 37.71875 1 
Q 33.40625 -1.421875 27.6875 -1.421875 
Q 18.265625 -1.421875 13.375 4.4375 
Q 8.5 10.296875 8.5 21.578125 
z
M 31.109375 56 
z
" id="DejaVuSans-75"/>
     </defs>
     <g transform="translate(145 198.902188)scale(0.1 -0.1)">
      <use xlink:href="#DejaVuSans-49"/>
      <use x="29.492188" xlink:href="#DejaVuSans-6e"/>
      <use x="92.871094" xlink:href="#DejaVuSans-70"/>
      <use x="156.347656" xlink:href="#DejaVuSans-75"/>
      <use x="219.726562" xlink:href="#DejaVuSans-74"/>
     </g>
    </g>
    <g id="line2d_20">
     <path d="M 117 210.080313 
L 137 210.080313 
" style="fill:none;stroke:#008000;stroke-linecap:square;stroke-width:1.5;"/>
    </g>
    <g id="line2d_21"/>
    <g id="text_20">
     <!-- Output -->
     <defs>
      <path d="M 39.40625 66.21875 
Q 28.65625 66.21875 22.328125 58.203125 
Q 16.015625 50.203125 16.015625 36.375 
Q 16.015625 22.609375 22.328125 14.59375 
Q 28.65625 6.59375 39.40625 6.59375 
Q 50.140625 6.59375 56.421875 14.59375 
Q 62.703125 22.609375 62.703125 36.375 
Q 62.703125 50.203125 56.421875 58.203125 
Q 50.140625 66.21875 39.40625 66.21875 
z
M 39.40625 74.21875 
Q 54.734375 74.21875 63.90625 63.9375 
Q 73.09375 53.65625 73.09375 36.375 
Q 73.09375 19.140625 63.90625 8.859375 
Q 54.734375 -1.421875 39.40625 -1.421875 
Q 24.03125 -1.421875 14.8125 8.828125 
Q 5.609375 19.09375 5.609375 36.375 
Q 5.609375 53.65625 14.8125 63.9375 
Q 24.03125 74.21875 39.40625 74.21875 
z
" id="DejaVuSans-4f"/>
     </defs>
     <g transform="translate(145 213.580313)scale(0.1 -0.1)">
      <use xlink:href="#DejaVuSans-4f"/>
      <use x="78.710938" xlink:href="#DejaVuSans-75"/>
      <use x="142.089844" xlink:href="#DejaVuSans-74"/>
      <use x="181.298828" xlink:href="#DejaVuSans-70"/>
      <use x="244.775391" xlink:href="#DejaVuSans-75"/>
      <use x="308.154297" xlink:href="#DejaVuSans-74"/>
     </g>
    </g>
    <g id="line2d_22">
     <path d="M 117 224.758438 
L 137 224.758438 
" style="fill:none;stroke:#ff0000;stroke-dasharray:5.55,2.4;stroke-dashoffset:0;stroke-width:1.5;"/>
    </g>
    <g id="line2d_23"/>
    <g id="text_21">
     <!-- Input-fitting -->
     <defs>
      <path d="M 4.890625 31.390625 
L 31.203125 31.390625 
L 31.203125 23.390625 
L 4.890625 23.390625 
z
" id="DejaVuSans-2d"/>
      <path d="M 37.109375 75.984375 
L 37.109375 68.5 
L 28.515625 68.5 
Q 23.6875 68.5 21.796875 66.546875 
Q 19.921875 64.59375 19.921875 59.515625 
L 19.921875 54.6875 
L 34.71875 54.6875 
L 34.71875 47.703125 
L 19.921875 47.703125 
L 19.921875 0 
L 10.890625 0 
L 10.890625 47.703125 
L 2.296875 47.703125 
L 2.296875 54.6875 
L 10.890625 54.6875 
L 10.890625 58.5 
Q 10.890625 67.625 15.140625 71.796875 
Q 19.390625 75.984375 28.609375 75.984375 
z
" id="DejaVuSans-66"/>
     </defs>
     <g transform="translate(145 228.258438)scale(0.1 -0.1)">
      <use xlink:href="#DejaVuSans-49"/>
      <use x="29.492188" xlink:href="#DejaVuSans-6e"/>
      <use x="92.871094" xlink:href="#DejaVuSans-70"/>
      <use x="156.347656" xlink:href="#DejaVuSans-75"/>
      <use x="219.726562" xlink:href="#DejaVuSans-74"/>
      <use x="258.935547" xlink:href="#DejaVuSans-2d"/>
      <use x="295.019531" xlink:href="#DejaVuSans-66"/>
      <use x="330.224609" xlink:href="#DejaVuSans-69"/>
      <use x="358.007812" xlink:href="#DejaVuSans-74"/>
      <use x="397.216797" xlink:href="#DejaVuSans-74"/>
      <use x="436.425781" xlink:href="#DejaVuSans-69"/>
      <use x="464.208984" xlink:href="#DejaVuSans-6e"/>
      <use x="527.587891" xlink:href="#DejaVuSans-67"/>
     </g>
    </g>
    <g id="line2d_24">
     <path d="M 117 239.436563 
L 137 239.436563 
" style="fill:none;stroke:#008000;stroke-dasharray:5.55,2.4;stroke-dashoffset:0;stroke-width:1.5;"/>
    </g>
    <g id="line2d_25"/>
    <g id="text_22">
     <!-- Output-fitting -->
     <g transform="translate(145 242.936563)scale(0.1 -0.1)">
      <use xlink:href="#DejaVuSans-4f"/>
      <use x="78.710938" xlink:href="#DejaVuSans-75"/>
      <use x="142.089844" xlink:href="#DejaVuSans-74"/>
      <use x="181.298828" xlink:href="#DejaVuSans-70"/>
      <use x="244.775391" xlink:href="#DejaVuSans-75"/>
      <use x="308.154297" xlink:href="#DejaVuSans-74"/>
      <use x="347.363281" xlink:href="#DejaVuSans-2d"/>
      <use x="383.447266" xlink:href="#DejaVuSans-66"/>
      <use x="418.652344" xlink:href="#DejaVuSans-69"/>
      <use x="446.435547" xlink:href="#DejaVuSans-74"/>
      <use x="485.644531" xlink:href="#DejaVuSans-74"/>
      <use x="524.853516" xlink:href="#DejaVuSans-69"/>
      <use x="552.636719" xlink:href="#DejaVuSans-6e"/>
      <use x="616.015625" xlink:href="#DejaVuSans-67"/>
     </g>
    </g>
   </g>
  </g>
 </g>
 <defs>
  <clipPath id="p11d81d534c">
   <rect height="332.64" width="669.6" x="108" y="51.84"/>
  </clipPath>
 </defs>
</svg>
