<?xml version="1.0" encoding="utf-8" standalone="no"?>
<!DOCTYPE svg PUBLIC "-//W3C//DTD SVG 1.1//EN"
  "http://www.w3.org/Graphics/SVG/1.1/DTD/svg11.dtd">
<!-- Created with matplotlib (https://matplotlib.org/) -->
<svg height="288pt" version="1.1" viewBox="0 0 1152 288" width="1152pt" xmlns="http://www.w3.org/2000/svg" xmlns:xlink="http://www.w3.org/1999/xlink">
 <metadata>
  <rdf:RDF xmlns:cc="http://creativecommons.org/ns#" xmlns:dc="http://purl.org/dc/elements/1.1/" xmlns:rdf="http://www.w3.org/1999/02/22-rdf-syntax-ns#">
   <cc:Work>
    <dc:type rdf:resource="http://purl.org/dc/dcmitype/StillImage"/>
    <dc:date>2020-08-03T15:05:09.569928</dc:date>
    <dc:format>image/svg+xml</dc:format>
    <dc:creator>
     <cc:Agent>
      <dc:title>Matplotlib v3.3.0, https://matplotlib.org/</dc:title>
     </cc:Agent>
    </dc:creator>
   </cc:Work>
  </rdf:RDF>
 </metadata>
 <defs>
  <style type="text/css">*{stroke-linecap:butt;stroke-linejoin:round;}</style>
 </defs>
 <g id="figure_1">
  <g id="patch_1">
   <path d="M 0 288 
L 1152 288 
L 1152 0 
L 0 0 
z
" style="fill:#ffffff;"/>
  </g>
  <g id="axes_1">
   <g id="patch_2">
    <path d="M 144 256.32 
L 1036.8 256.32 
L 1036.8 34.56 
L 144 34.56 
z
" style="fill:#ffffff;"/>
   </g>
   <g id="matplotlib.axis_1">
    <g id="xtick_1">
     <g id="line2d_1">
      <defs>
       <path d="M 0 0 
L 0 3.5 
" id="m341bebd87d" style="stroke:#000000;stroke-width:0.8;"/>
      </defs>
      <g>
       <use style="stroke:#000000;stroke-width:0.8;" x="184.581818" xlink:href="#m341bebd87d" y="256.32"/>
      </g>
     </g>
     <g id="text_1">
      <!-- 0 -->
      <g transform="translate(181.400568 270.918437)scale(0.1 -0.1)">
       <defs>
        <path d="M 31.78125 66.40625 
Q 24.171875 66.40625 20.328125 58.90625 
Q 16.5 51.421875 16.5 36.375 
Q 16.5 21.390625 20.328125 13.890625 
Q 24.171875 6.390625 31.78125 6.390625 
Q 39.453125 6.390625 43.28125 13.890625 
Q 47.125 21.390625 47.125 36.375 
Q 47.125 51.421875 43.28125 58.90625 
Q 39.453125 66.40625 31.78125 66.40625 
z
M 31.78125 74.21875 
Q 44.046875 74.21875 50.515625 64.515625 
Q 56.984375 54.828125 56.984375 36.375 
Q 56.984375 17.96875 50.515625 8.265625 
Q 44.046875 -1.421875 31.78125 -1.421875 
Q 19.53125 -1.421875 13.0625 8.265625 
Q 6.59375 17.96875 6.59375 36.375 
Q 6.59375 54.828125 13.0625 64.515625 
Q 19.53125 74.21875 31.78125 74.21875 
z
" id="DejaVuSans-48"/>
       </defs>
       <use xlink:href="#DejaVuSans-48"/>
      </g>
     </g>
    </g>
    <g id="xtick_2">
     <g id="line2d_2">
      <g>
       <use style="stroke:#000000;stroke-width:0.8;" x="367.933517" xlink:href="#m341bebd87d" y="256.32"/>
      </g>
     </g>
     <g id="text_2">
      <!-- 2 -->
      <g transform="translate(364.752267 270.918437)scale(0.1 -0.1)">
       <defs>
        <path d="M 19.1875 8.296875 
L 53.609375 8.296875 
L 53.609375 0 
L 7.328125 0 
L 7.328125 8.296875 
Q 12.9375 14.109375 22.625 23.890625 
Q 32.328125 33.6875 34.8125 36.53125 
Q 39.546875 41.84375 41.421875 45.53125 
Q 43.3125 49.21875 43.3125 52.78125 
Q 43.3125 58.59375 39.234375 62.25 
Q 35.15625 65.921875 28.609375 65.921875 
Q 23.96875 65.921875 18.8125 64.3125 
Q 13.671875 62.703125 7.8125 59.421875 
L 7.8125 69.390625 
Q 13.765625 71.78125 18.9375 73 
Q 24.125 74.21875 28.421875 74.21875 
Q 39.75 74.21875 46.484375 68.546875 
Q 53.21875 62.890625 53.21875 53.421875 
Q 53.21875 48.921875 51.53125 44.890625 
Q 49.859375 40.875 45.40625 35.40625 
Q 44.1875 33.984375 37.640625 27.21875 
Q 31.109375 20.453125 19.1875 8.296875 
z
" id="DejaVuSans-50"/>
       </defs>
       <use xlink:href="#DejaVuSans-50"/>
      </g>
     </g>
    </g>
    <g id="xtick_3">
     <g id="line2d_3">
      <g>
       <use style="stroke:#000000;stroke-width:0.8;" x="551.285215" xlink:href="#m341bebd87d" y="256.32"/>
      </g>
     </g>
     <g id="text_3">
      <!-- 4 -->
      <g transform="translate(548.103965 270.918437)scale(0.1 -0.1)">
       <defs>
        <path d="M 37.796875 64.3125 
L 12.890625 25.390625 
L 37.796875 25.390625 
z
M 35.203125 72.90625 
L 47.609375 72.90625 
L 47.609375 25.390625 
L 58.015625 25.390625 
L 58.015625 17.1875 
L 47.609375 17.1875 
L 47.609375 0 
L 37.796875 0 
L 37.796875 17.1875 
L 4.890625 17.1875 
L 4.890625 26.703125 
z
" id="DejaVuSans-52"/>
       </defs>
       <use xlink:href="#DejaVuSans-52"/>
      </g>
     </g>
    </g>
    <g id="xtick_4">
     <g id="line2d_4">
      <g>
       <use style="stroke:#000000;stroke-width:0.8;" x="734.636914" xlink:href="#m341bebd87d" y="256.32"/>
      </g>
     </g>
     <g id="text_4">
      <!-- 6 -->
      <g transform="translate(731.455664 270.918437)scale(0.1 -0.1)">
       <defs>
        <path d="M 33.015625 40.375 
Q 26.375 40.375 22.484375 35.828125 
Q 18.609375 31.296875 18.609375 23.390625 
Q 18.609375 15.53125 22.484375 10.953125 
Q 26.375 6.390625 33.015625 6.390625 
Q 39.65625 6.390625 43.53125 10.953125 
Q 47.40625 15.53125 47.40625 23.390625 
Q 47.40625 31.296875 43.53125 35.828125 
Q 39.65625 40.375 33.015625 40.375 
z
M 52.59375 71.296875 
L 52.59375 62.3125 
Q 48.875 64.0625 45.09375 64.984375 
Q 41.3125 65.921875 37.59375 65.921875 
Q 27.828125 65.921875 22.671875 59.328125 
Q 17.53125 52.734375 16.796875 39.40625 
Q 19.671875 43.65625 24.015625 45.921875 
Q 28.375 48.1875 33.59375 48.1875 
Q 44.578125 48.1875 50.953125 41.515625 
Q 57.328125 34.859375 57.328125 23.390625 
Q 57.328125 12.15625 50.6875 5.359375 
Q 44.046875 -1.421875 33.015625 -1.421875 
Q 20.359375 -1.421875 13.671875 8.265625 
Q 6.984375 17.96875 6.984375 36.375 
Q 6.984375 53.65625 15.1875 63.9375 
Q 23.390625 74.21875 37.203125 74.21875 
Q 40.921875 74.21875 44.703125 73.484375 
Q 48.484375 72.75 52.59375 71.296875 
z
" id="DejaVuSans-54"/>
       </defs>
       <use xlink:href="#DejaVuSans-54"/>
      </g>
     </g>
    </g>
    <g id="xtick_5">
     <g id="line2d_5">
      <g>
       <use style="stroke:#000000;stroke-width:0.8;" x="917.988613" xlink:href="#m341bebd87d" y="256.32"/>
      </g>
     </g>
     <g id="text_5">
      <!-- 8 -->
      <g transform="translate(914.807363 270.918437)scale(0.1 -0.1)">
       <defs>
        <path d="M 31.78125 34.625 
Q 24.75 34.625 20.71875 30.859375 
Q 16.703125 27.09375 16.703125 20.515625 
Q 16.703125 13.921875 20.71875 10.15625 
Q 24.75 6.390625 31.78125 6.390625 
Q 38.8125 6.390625 42.859375 10.171875 
Q 46.921875 13.96875 46.921875 20.515625 
Q 46.921875 27.09375 42.890625 30.859375 
Q 38.875 34.625 31.78125 34.625 
z
M 21.921875 38.8125 
Q 15.578125 40.375 12.03125 44.71875 
Q 8.5 49.078125 8.5 55.328125 
Q 8.5 64.0625 14.71875 69.140625 
Q 20.953125 74.21875 31.78125 74.21875 
Q 42.671875 74.21875 48.875 69.140625 
Q 55.078125 64.0625 55.078125 55.328125 
Q 55.078125 49.078125 51.53125 44.71875 
Q 48 40.375 41.703125 38.8125 
Q 48.828125 37.15625 52.796875 32.3125 
Q 56.78125 27.484375 56.78125 20.515625 
Q 56.78125 9.90625 50.3125 4.234375 
Q 43.84375 -1.421875 31.78125 -1.421875 
Q 19.734375 -1.421875 13.25 4.234375 
Q 6.78125 9.90625 6.78125 20.515625 
Q 6.78125 27.484375 10.78125 32.3125 
Q 14.796875 37.15625 21.921875 38.8125 
z
M 18.3125 54.390625 
Q 18.3125 48.734375 21.84375 45.5625 
Q 25.390625 42.390625 31.78125 42.390625 
Q 38.140625 42.390625 41.71875 45.5625 
Q 45.3125 48.734375 45.3125 54.390625 
Q 45.3125 60.0625 41.71875 63.234375 
Q 38.140625 66.40625 31.78125 66.40625 
Q 25.390625 66.40625 21.84375 63.234375 
Q 18.3125 60.0625 18.3125 54.390625 
z
" id="DejaVuSans-56"/>
       </defs>
       <use xlink:href="#DejaVuSans-56"/>
      </g>
     </g>
    </g>
    <g id="text_6">
     <!-- Time [s] -->
     <g transform="translate(570.071094 284.596563)scale(0.1 -0.1)">
      <defs>
       <path d="M -0.296875 72.90625 
L 61.375 72.90625 
L 61.375 64.59375 
L 35.5 64.59375 
L 35.5 0 
L 25.59375 0 
L 25.59375 64.59375 
L -0.296875 64.59375 
z
" id="DejaVuSans-84"/>
       <path d="M 9.421875 54.6875 
L 18.40625 54.6875 
L 18.40625 0 
L 9.421875 0 
z
M 9.421875 75.984375 
L 18.40625 75.984375 
L 18.40625 64.59375 
L 9.421875 64.59375 
z
" id="DejaVuSans-105"/>
       <path d="M 52 44.1875 
Q 55.375 50.25 60.0625 53.125 
Q 64.75 56 71.09375 56 
Q 79.640625 56 84.28125 50.015625 
Q 88.921875 44.046875 88.921875 33.015625 
L 88.921875 0 
L 79.890625 0 
L 79.890625 32.71875 
Q 79.890625 40.578125 77.09375 44.375 
Q 74.3125 48.1875 68.609375 48.1875 
Q 61.625 48.1875 57.5625 43.546875 
Q 53.515625 38.921875 53.515625 30.90625 
L 53.515625 0 
L 44.484375 0 
L 44.484375 32.71875 
Q 44.484375 40.625 41.703125 44.40625 
Q 38.921875 48.1875 33.109375 48.1875 
Q 26.21875 48.1875 22.15625 43.53125 
Q 18.109375 38.875 18.109375 30.90625 
L 18.109375 0 
L 9.078125 0 
L 9.078125 54.6875 
L 18.109375 54.6875 
L 18.109375 46.1875 
Q 21.1875 51.21875 25.484375 53.609375 
Q 29.78125 56 35.6875 56 
Q 41.65625 56 45.828125 52.96875 
Q 50 49.953125 52 44.1875 
z
" id="DejaVuSans-109"/>
       <path d="M 56.203125 29.59375 
L 56.203125 25.203125 
L 14.890625 25.203125 
Q 15.484375 15.921875 20.484375 11.0625 
Q 25.484375 6.203125 34.421875 6.203125 
Q 39.59375 6.203125 44.453125 7.46875 
Q 49.3125 8.734375 54.109375 11.28125 
L 54.109375 2.78125 
Q 49.265625 0.734375 44.1875 -0.34375 
Q 39.109375 -1.421875 33.890625 -1.421875 
Q 20.796875 -1.421875 13.15625 6.1875 
Q 5.515625 13.8125 5.515625 26.8125 
Q 5.515625 40.234375 12.765625 48.109375 
Q 20.015625 56 32.328125 56 
Q 43.359375 56 49.78125 48.890625 
Q 56.203125 41.796875 56.203125 29.59375 
z
M 47.21875 32.234375 
Q 47.125 39.59375 43.09375 43.984375 
Q 39.0625 48.390625 32.421875 48.390625 
Q 24.90625 48.390625 20.390625 44.140625 
Q 15.875 39.890625 15.1875 32.171875 
z
" id="DejaVuSans-101"/>
       <path id="DejaVuSans-32"/>
       <path d="M 8.59375 75.984375 
L 29.296875 75.984375 
L 29.296875 69 
L 17.578125 69 
L 17.578125 -6.203125 
L 29.296875 -6.203125 
L 29.296875 -13.1875 
L 8.59375 -13.1875 
z
" id="DejaVuSans-91"/>
       <path d="M 44.28125 53.078125 
L 44.28125 44.578125 
Q 40.484375 46.53125 36.375 47.5 
Q 32.28125 48.484375 27.875 48.484375 
Q 21.1875 48.484375 17.84375 46.4375 
Q 14.5 44.390625 14.5 40.28125 
Q 14.5 37.15625 16.890625 35.375 
Q 19.28125 33.59375 26.515625 31.984375 
L 29.59375 31.296875 
Q 39.15625 29.25 43.1875 25.515625 
Q 47.21875 21.78125 47.21875 15.09375 
Q 47.21875 7.46875 41.1875 3.015625 
Q 35.15625 -1.421875 24.609375 -1.421875 
Q 20.21875 -1.421875 15.453125 -0.5625 
Q 10.6875 0.296875 5.421875 2 
L 5.421875 11.28125 
Q 10.40625 8.6875 15.234375 7.390625 
Q 20.0625 6.109375 24.8125 6.109375 
Q 31.15625 6.109375 34.5625 8.28125 
Q 37.984375 10.453125 37.984375 14.40625 
Q 37.984375 18.0625 35.515625 20.015625 
Q 33.0625 21.96875 24.703125 23.78125 
L 21.578125 24.515625 
Q 13.234375 26.265625 9.515625 29.90625 
Q 5.8125 33.546875 5.8125 39.890625 
Q 5.8125 47.609375 11.28125 51.796875 
Q 16.75 56 26.8125 56 
Q 31.78125 56 36.171875 55.265625 
Q 40.578125 54.546875 44.28125 53.078125 
z
" id="DejaVuSans-115"/>
       <path d="M 30.421875 75.984375 
L 30.421875 -13.1875 
L 9.71875 -13.1875 
L 9.71875 -6.203125 
L 21.390625 -6.203125 
L 21.390625 69 
L 9.71875 69 
L 9.71875 75.984375 
z
" id="DejaVuSans-93"/>
      </defs>
      <use xlink:href="#DejaVuSans-84"/>
      <use x="57.958984" xlink:href="#DejaVuSans-105"/>
      <use x="85.742188" xlink:href="#DejaVuSans-109"/>
      <use x="183.154297" xlink:href="#DejaVuSans-101"/>
      <use x="244.677734" xlink:href="#DejaVuSans-32"/>
      <use x="276.464844" xlink:href="#DejaVuSans-91"/>
      <use x="315.478516" xlink:href="#DejaVuSans-115"/>
      <use x="367.578125" xlink:href="#DejaVuSans-93"/>
     </g>
    </g>
    <g id="text_7">
     <!-- 1e−9 -->
     <g transform="translate(1009.542187 283.596563)scale(0.1 -0.1)">
      <defs>
       <path d="M 12.40625 8.296875 
L 28.515625 8.296875 
L 28.515625 63.921875 
L 10.984375 60.40625 
L 10.984375 69.390625 
L 28.421875 72.90625 
L 38.28125 72.90625 
L 38.28125 8.296875 
L 54.390625 8.296875 
L 54.390625 0 
L 12.40625 0 
z
" id="DejaVuSans-49"/>
       <path d="M 10.59375 35.5 
L 73.1875 35.5 
L 73.1875 27.203125 
L 10.59375 27.203125 
z
" id="DejaVuSans-8722"/>
       <path d="M 10.984375 1.515625 
L 10.984375 10.5 
Q 14.703125 8.734375 18.5 7.8125 
Q 22.3125 6.890625 25.984375 6.890625 
Q 35.75 6.890625 40.890625 13.453125 
Q 46.046875 20.015625 46.78125 33.40625 
Q 43.953125 29.203125 39.59375 26.953125 
Q 35.25 24.703125 29.984375 24.703125 
Q 19.046875 24.703125 12.671875 31.3125 
Q 6.296875 37.9375 6.296875 49.421875 
Q 6.296875 60.640625 12.9375 67.421875 
Q 19.578125 74.21875 30.609375 74.21875 
Q 43.265625 74.21875 49.921875 64.515625 
Q 56.59375 54.828125 56.59375 36.375 
Q 56.59375 19.140625 48.40625 8.859375 
Q 40.234375 -1.421875 26.421875 -1.421875 
Q 22.703125 -1.421875 18.890625 -0.6875 
Q 15.09375 0.046875 10.984375 1.515625 
z
M 30.609375 32.421875 
Q 37.25 32.421875 41.125 36.953125 
Q 45.015625 41.5 45.015625 49.421875 
Q 45.015625 57.28125 41.125 61.84375 
Q 37.25 66.40625 30.609375 66.40625 
Q 23.96875 66.40625 20.09375 61.84375 
Q 16.21875 57.28125 16.21875 49.421875 
Q 16.21875 41.5 20.09375 36.953125 
Q 23.96875 32.421875 30.609375 32.421875 
z
" id="DejaVuSans-57"/>
      </defs>
      <use xlink:href="#DejaVuSans-49"/>
      <use x="63.623047" xlink:href="#DejaVuSans-101"/>
      <use x="125.146484" xlink:href="#DejaVuSans-8722"/>
      <use x="208.935547" xlink:href="#DejaVuSans-57"/>
     </g>
    </g>
   </g>
   <g id="matplotlib.axis_2">
    <g id="ytick_1">
     <g id="line2d_6">
      <defs>
       <path d="M 0 0 
L -3.5 0 
" id="mfe7b879bca" style="stroke:#000000;stroke-width:0.8;"/>
      </defs>
      <g>
       <use style="stroke:#000000;stroke-width:0.8;" x="144" xlink:href="#mfe7b879bca" y="239.851152"/>
      </g>
     </g>
     <g id="text_8">
      <!-- 0.0 -->
      <g transform="translate(121.096875 243.650371)scale(0.1 -0.1)">
       <defs>
        <path d="M 10.6875 12.40625 
L 21 12.40625 
L 21 0 
L 10.6875 0 
z
" id="DejaVuSans-46"/>
       </defs>
       <use xlink:href="#DejaVuSans-48"/>
       <use x="63.623047" xlink:href="#DejaVuSans-46"/>
       <use x="95.410156" xlink:href="#DejaVuSans-48"/>
      </g>
     </g>
    </g>
    <g id="ytick_2">
     <g id="line2d_7">
      <g>
       <use style="stroke:#000000;stroke-width:0.8;" x="144" xlink:href="#mfe7b879bca" y="207.374932"/>
      </g>
     </g>
     <g id="text_9">
      <!-- 0.2 -->
      <g transform="translate(121.096875 211.17415)scale(0.1 -0.1)">
       <use xlink:href="#DejaVuSans-48"/>
       <use x="63.623047" xlink:href="#DejaVuSans-46"/>
       <use x="95.410156" xlink:href="#DejaVuSans-50"/>
      </g>
     </g>
    </g>
    <g id="ytick_3">
     <g id="line2d_8">
      <g>
       <use style="stroke:#000000;stroke-width:0.8;" x="144" xlink:href="#mfe7b879bca" y="174.898711"/>
      </g>
     </g>
     <g id="text_10">
      <!-- 0.4 -->
      <g transform="translate(121.096875 178.69793)scale(0.1 -0.1)">
       <use xlink:href="#DejaVuSans-48"/>
       <use x="63.623047" xlink:href="#DejaVuSans-46"/>
       <use x="95.410156" xlink:href="#DejaVuSans-52"/>
      </g>
     </g>
    </g>
    <g id="ytick_4">
     <g id="line2d_9">
      <g>
       <use style="stroke:#000000;stroke-width:0.8;" x="144" xlink:href="#mfe7b879bca" y="142.42249"/>
      </g>
     </g>
     <g id="text_11">
      <!-- 0.6 -->
      <g transform="translate(121.096875 146.221709)scale(0.1 -0.1)">
       <use xlink:href="#DejaVuSans-48"/>
       <use x="63.623047" xlink:href="#DejaVuSans-46"/>
       <use x="95.410156" xlink:href="#DejaVuSans-54"/>
      </g>
     </g>
    </g>
    <g id="ytick_5">
     <g id="line2d_10">
      <g>
       <use style="stroke:#000000;stroke-width:0.8;" x="144" xlink:href="#mfe7b879bca" y="109.94627"/>
      </g>
     </g>
     <g id="text_12">
      <!-- 0.8 -->
      <g transform="translate(121.096875 113.745488)scale(0.1 -0.1)">
       <use xlink:href="#DejaVuSans-48"/>
       <use x="63.623047" xlink:href="#DejaVuSans-46"/>
       <use x="95.410156" xlink:href="#DejaVuSans-56"/>
      </g>
     </g>
    </g>
    <g id="ytick_6">
     <g id="line2d_11">
      <g>
       <use style="stroke:#000000;stroke-width:0.8;" x="144" xlink:href="#mfe7b879bca" y="77.470049"/>
      </g>
     </g>
     <g id="text_13">
      <!-- 1.0 -->
      <g transform="translate(121.096875 81.269268)scale(0.1 -0.1)">
       <use xlink:href="#DejaVuSans-49"/>
       <use x="63.623047" xlink:href="#DejaVuSans-46"/>
       <use x="95.410156" xlink:href="#DejaVuSans-48"/>
      </g>
     </g>
    </g>
    <g id="ytick_7">
     <g id="line2d_12">
      <g>
       <use style="stroke:#000000;stroke-width:0.8;" x="144" xlink:href="#mfe7b879bca" y="44.993828"/>
      </g>
     </g>
     <g id="text_14">
      <!-- 1.2 -->
      <g transform="translate(121.096875 48.793047)scale(0.1 -0.1)">
       <use xlink:href="#DejaVuSans-49"/>
       <use x="63.623047" xlink:href="#DejaVuSans-46"/>
       <use x="95.410156" xlink:href="#DejaVuSans-50"/>
      </g>
     </g>
    </g>
    <g id="text_15">
     <!-- Voltage [V] -->
     <g transform="translate(115.017187 173.107188)rotate(-90)scale(0.1 -0.1)">
      <defs>
       <path d="M 28.609375 0 
L 0.78125 72.90625 
L 11.078125 72.90625 
L 34.1875 11.53125 
L 57.328125 72.90625 
L 67.578125 72.90625 
L 39.796875 0 
z
" id="DejaVuSans-86"/>
       <path d="M 30.609375 48.390625 
Q 23.390625 48.390625 19.1875 42.75 
Q 14.984375 37.109375 14.984375 27.296875 
Q 14.984375 17.484375 19.15625 11.84375 
Q 23.34375 6.203125 30.609375 6.203125 
Q 37.796875 6.203125 41.984375 11.859375 
Q 46.1875 17.53125 46.1875 27.296875 
Q 46.1875 37.015625 41.984375 42.703125 
Q 37.796875 48.390625 30.609375 48.390625 
z
M 30.609375 56 
Q 42.328125 56 49.015625 48.375 
Q 55.71875 40.765625 55.71875 27.296875 
Q 55.71875 13.875 49.015625 6.21875 
Q 42.328125 -1.421875 30.609375 -1.421875 
Q 18.84375 -1.421875 12.171875 6.21875 
Q 5.515625 13.875 5.515625 27.296875 
Q 5.515625 40.765625 12.171875 48.375 
Q 18.84375 56 30.609375 56 
z
" id="DejaVuSans-111"/>
       <path d="M 9.421875 75.984375 
L 18.40625 75.984375 
L 18.40625 0 
L 9.421875 0 
z
" id="DejaVuSans-108"/>
       <path d="M 18.3125 70.21875 
L 18.3125 54.6875 
L 36.8125 54.6875 
L 36.8125 47.703125 
L 18.3125 47.703125 
L 18.3125 18.015625 
Q 18.3125 11.328125 20.140625 9.421875 
Q 21.96875 7.515625 27.59375 7.515625 
L 36.8125 7.515625 
L 36.8125 0 
L 27.59375 0 
Q 17.1875 0 13.234375 3.875 
Q 9.28125 7.765625 9.28125 18.015625 
L 9.28125 47.703125 
L 2.6875 47.703125 
L 2.6875 54.6875 
L 9.28125 54.6875 
L 9.28125 70.21875 
z
" id="DejaVuSans-116"/>
       <path d="M 34.28125 27.484375 
Q 23.390625 27.484375 19.1875 25 
Q 14.984375 22.515625 14.984375 16.5 
Q 14.984375 11.71875 18.140625 8.90625 
Q 21.296875 6.109375 26.703125 6.109375 
Q 34.1875 6.109375 38.703125 11.40625 
Q 43.21875 16.703125 43.21875 25.484375 
L 43.21875 27.484375 
z
M 52.203125 31.203125 
L 52.203125 0 
L 43.21875 0 
L 43.21875 8.296875 
Q 40.140625 3.328125 35.546875 0.953125 
Q 30.953125 -1.421875 24.3125 -1.421875 
Q 15.921875 -1.421875 10.953125 3.296875 
Q 6 8.015625 6 15.921875 
Q 6 25.140625 12.171875 29.828125 
Q 18.359375 34.515625 30.609375 34.515625 
L 43.21875 34.515625 
L 43.21875 35.40625 
Q 43.21875 41.609375 39.140625 45 
Q 35.0625 48.390625 27.6875 48.390625 
Q 23 48.390625 18.546875 47.265625 
Q 14.109375 46.140625 10.015625 43.890625 
L 10.015625 52.203125 
Q 14.9375 54.109375 19.578125 55.046875 
Q 24.21875 56 28.609375 56 
Q 40.484375 56 46.34375 49.84375 
Q 52.203125 43.703125 52.203125 31.203125 
z
" id="DejaVuSans-97"/>
       <path d="M 45.40625 27.984375 
Q 45.40625 37.75 41.375 43.109375 
Q 37.359375 48.484375 30.078125 48.484375 
Q 22.859375 48.484375 18.828125 43.109375 
Q 14.796875 37.75 14.796875 27.984375 
Q 14.796875 18.265625 18.828125 12.890625 
Q 22.859375 7.515625 30.078125 7.515625 
Q 37.359375 7.515625 41.375 12.890625 
Q 45.40625 18.265625 45.40625 27.984375 
z
M 54.390625 6.78125 
Q 54.390625 -7.171875 48.1875 -13.984375 
Q 42 -20.796875 29.203125 -20.796875 
Q 24.46875 -20.796875 20.265625 -20.09375 
Q 16.0625 -19.390625 12.109375 -17.921875 
L 12.109375 -9.1875 
Q 16.0625 -11.328125 19.921875 -12.34375 
Q 23.78125 -13.375 27.78125 -13.375 
Q 36.625 -13.375 41.015625 -8.765625 
Q 45.40625 -4.15625 45.40625 5.171875 
L 45.40625 9.625 
Q 42.625 4.78125 38.28125 2.390625 
Q 33.9375 0 27.875 0 
Q 17.828125 0 11.671875 7.65625 
Q 5.515625 15.328125 5.515625 27.984375 
Q 5.515625 40.671875 11.671875 48.328125 
Q 17.828125 56 27.875 56 
Q 33.9375 56 38.28125 53.609375 
Q 42.625 51.21875 45.40625 46.390625 
L 45.40625 54.6875 
L 54.390625 54.6875 
z
" id="DejaVuSans-103"/>
      </defs>
      <use xlink:href="#DejaVuSans-86"/>
      <use x="60.658203" xlink:href="#DejaVuSans-111"/>
      <use x="121.839844" xlink:href="#DejaVuSans-108"/>
      <use x="149.623047" xlink:href="#DejaVuSans-116"/>
      <use x="188.832031" xlink:href="#DejaVuSans-97"/>
      <use x="250.111328" xlink:href="#DejaVuSans-103"/>
      <use x="313.587891" xlink:href="#DejaVuSans-101"/>
      <use x="375.111328" xlink:href="#DejaVuSans-32"/>
      <use x="406.898438" xlink:href="#DejaVuSans-91"/>
      <use x="445.912109" xlink:href="#DejaVuSans-86"/>
      <use x="514.320312" xlink:href="#DejaVuSans-93"/>
     </g>
    </g>
   </g>
   <g id="line2d_13">
    <path clip-path="url(#pe131641428)" d="M 184.581818 239.851138 
L 312.641795 239.962231 
L 321.974397 240.044869 
L 323.36787 239.788833 
L 324.46798 239.364337 
L 325.430576 238.752125 
L 326.329 237.912908 
L 327.218255 236.770935 
L 328.135014 235.220217 
L 329.106778 233.12078 
L 330.151882 230.306756 
L 331.288663 226.57557 
L 332.55379 221.619846 
L 333.994201 215.029366 
L 335.699371 206.124353 
L 337.853754 193.609626 
L 341.154084 172.95561 
L 347.73641 131.675524 
L 350.734211 114.365877 
L 353.117783 101.849168 
L 355.189657 92.116857 
L 357.078179 84.279825 
L 358.847523 77.855526 
L 360.543527 72.512716 
L 362.175357 68.084421 
L 363.825522 64.261321 
L 365.420682 61.1311 
L 366.951668 58.591947 
L 368.510158 56.41945 
L 370.077815 54.599807 
L 371.782986 52.977783 
L 373.506492 51.658274 
L 375.194611 50.626504 
L 377.01896 49.751432 
L 379.164175 48.996847 
L 380.896849 48.620935 
L 382.235316 48.542018 
L 383.353761 48.691246 
L 384.353028 49.052057 
L 385.242284 49.598794 
L 386.140707 50.404692 
L 387.112471 51.598517 
L 388.120906 53.218594 
L 389.202681 55.40132 
L 390.394467 58.329701 
L 391.778772 62.371854 
L 393.355597 67.70786 
L 395.326627 75.24624 
L 397.930221 86.172328 
L 404.448374 113.873798 
L 406.382735 120.919611 
L 407.968727 125.8969 
L 409.334697 129.48877 
L 410.544818 132.074024 
L 411.617426 133.86939 
L 412.58919 135.083806 
L 413.469278 135.845633 
L 414.285193 136.269529 
L 415.05527 136.426601 
L 415.81618 136.356419 
L 416.595424 136.058207 
L 417.421882 135.496319 
L 418.311138 134.611212 
L 419.273734 133.323011 
L 420.300504 131.563904 
L 421.418949 129.187602 
L 422.638238 126.05225 
L 424.004208 121.897259 
L 425.599368 116.291717 
L 427.652907 108.198042 
L 433.850194 83.229447 
L 435.821225 76.505505 
L 437.608904 71.175508 
L 439.341578 66.714087 
L 441.010078 63.03989 
L 442.669411 59.938248 
L 444.255403 57.432059 
L 445.978909 55.152715 
L 447.601572 53.37107 
L 449.215067 51.898435 
L 450.966075 50.585097 
L 452.872933 49.434952 
L 454.990645 48.434846 
L 457.36505 47.58673 
L 459.556102 47.004106 
L 462.058853 46.54132 
L 463.872293 46.395502 
L 465.256598 46.505109 
L 466.2742 46.797233 
L 467.163456 47.262292 
L 468.052712 47.977906 
L 468.951135 49.008052 
L 469.867894 50.426451 
L 470.821322 52.336864 
L 471.838924 54.895016 
L 472.948202 58.307617 
L 474.204161 62.947008 
L 475.588467 68.97086 
L 477.174459 76.94572 
L 478.998808 87.340985 
L 481.199029 101.241295 
L 484.215164 121.847018 
L 491.732584 173.752641 
L 493.905301 186.91488 
L 495.674645 196.329022 
L 497.233135 203.461336 
L 498.65411 208.961947 
L 499.98341 213.254605 
L 501.248537 216.616901 
L 502.458658 219.224222 
L 503.613774 221.203858 
L 504.704716 222.649619 
L 505.723327 223.64474 
L 506.65842 224.261288 
L 507.529341 224.577844 
L 508.354424 224.643939 
L 509.152004 224.485667 
L 509.958751 224.095684 
L 510.793001 223.438677 
L 511.663922 222.46301 
L 512.599015 221.065851 
L 513.589115 219.167323 
L 514.643387 216.646535 
L 515.789335 213.305073 
L 517.054462 208.893747 
L 518.46627 203.128276 
L 520.116435 195.405138 
L 522.142471 184.793257 
L 524.984423 168.605875 
L 533.620288 118.725404 
L 536.123038 105.87307 
L 538.185745 96.400471 
L 540.002577 89.065602 
L 541.671077 83.22162 
L 543.266237 78.422544 
L 544.815559 74.449273 
L 546.355713 71.103086 
L 547.85003 68.360469 
L 549.408519 65.954306 
L 551.067852 63.822892 
L 552.690515 62.09678 
L 554.514864 60.504471 
L 556.430889 59.151674 
L 558.447758 57.996495 
L 561.13386 56.741614 
L 570.594808 52.59911 
L 576.249099 49.918523 
L 580.136155 48.386782 
L 583.555664 47.353063 
L 587.300348 46.538722 
L 591.040723 45.9889 
L 594.955281 45.615261 
L 601.216742 45.282867 
L 609.632585 45.095804 
L 620.101967 45.021433 
L 673.916607 44.910527 
L 684.221064 44.656563 
L 685.962905 44.859377 
L 687.173027 45.251527 
L 688.190628 45.840321 
L 689.052381 46.586462 
L 689.923302 47.622778 
L 690.821725 49.035494 
L 691.793489 50.999006 
L 692.829426 53.620649 
L 693.99371 57.229894 
L 695.249669 61.892018 
L 696.661477 68.028725 
L 698.256637 75.987185 
L 700.135992 86.535721 
L 702.492061 101.102995 
L 706.058251 124.728877 
L 711.311278 159.367007 
L 713.69485 173.5679 
L 715.59254 183.591247 
L 717.233538 191.113471 
L 718.709519 196.87446 
L 720.057154 201.27325 
L 721.297986 204.597906 
L 722.443934 207.062575 
L 723.498207 208.829136 
L 724.469971 210.043373 
L 725.359226 210.815803 
L 726.184309 211.251228 
L 726.972721 211.42168 
L 727.751966 211.360462 
L 728.540378 211.070482 
L 729.365461 210.522835 
L 730.236382 209.671211 
L 731.180643 208.422257 
L 732.17991 206.718295 
L 733.252517 204.436142 
L 734.4168 201.416877 
L 735.700262 197.441397 
L 737.139573 192.221559 
L 738.798906 185.323951 
L 740.815775 175.934995 
L 743.56605 161.982398 
L 751.899385 119.055525 
L 754.209616 108.654918 
L 756.143977 100.930936 
L 757.858315 94.965947 
L 759.416804 90.31545 
L 760.865283 86.666357 
L 762.212918 83.848005 
L 763.478045 81.697268 
L 764.642328 80.135941 
L 765.705768 79.065119 
L 766.659197 78.407946 
L 767.511782 78.080683 
L 768.291027 78.013961 
L 769.033601 78.172867 
L 769.776175 78.564254 
L 770.546253 79.231153 
L 771.362168 80.24334 
L 772.251423 81.720163 
L 773.21402 83.77141 
L 774.268292 86.5662 
L 775.423408 90.284744 
L 776.70687 95.202553 
L 778.127845 101.563605 
L 779.74134 109.853095 
L 781.611528 120.687942 
L 783.875921 135.194924 
L 787.038738 157.052378 
L 791.897558 190.592471 
L 793.831918 202.317556 
L 795.408743 210.578451 
L 796.820551 216.843536 
L 798.140683 221.728236 
L 799.396642 225.555199 
L 800.615931 228.583087 
L 801.816885 230.9897 
L 803.017838 232.912072 
L 804.237127 234.453346 
L 805.502254 235.698251 
L 806.840721 236.704382 
L 808.298367 237.520296 
L 809.939365 238.17995 
L 811.864558 238.707547 
L 814.238962 239.118737 
L 817.392612 239.426206 
L 822.049745 239.637691 
L 830.694777 239.77029 
L 852.953673 239.843856 
L 993.49275 239.851138 
L 996.218182 239.851138 
L 996.218182 239.851138 
" style="fill:none;stroke:#ff0000;stroke-linecap:square;stroke-width:1.5;"/>
   </g>
   <g id="line2d_14">
    <path clip-path="url(#pe131641428)" d="M 184.581818 239.851152 
L 294.352463 239.740382 
L 302.328262 239.504964 
L 307.278758 239.14966 
L 310.854116 238.68416 
L 313.696067 238.104134 
L 316.07964 237.403341 
L 318.188184 236.556286 
L 320.021701 235.589936 
L 321.763542 234.417991 
L 323.322032 233.108237 
L 324.880521 231.496673 
L 326.347335 229.648619 
L 327.814148 227.419022 
L 329.189286 224.923804 
L 330.564424 221.976864 
L 331.939561 218.517148 
L 333.361637 214.335301 
L 334.828451 209.312871 
L 336.38694 203.124906 
L 337.94543 196.017742 
L 339.687271 186.982542 
L 341.612464 175.739526 
L 343.90436 160.945177 
L 348.121449 131.849964 
L 351.055076 112.403696 
L 353.163621 99.818078 
L 354.997138 90.135744 
L 356.738979 82.123462 
L 358.297468 75.937863 
L 359.855958 70.640486 
L 361.322771 66.407416 
L 362.789585 62.836304 
L 364.256398 59.856137 
L 365.631536 57.53652 
L 367.006674 55.620376 
L 368.381812 54.058623 
L 369.756949 52.808297 
L 371.223763 51.777 
L 372.690577 51.022934 
L 374.15739 50.518845 
L 375.680493 50.2397 
L 377.147306 50.194928 
L 378.61412 50.366881 
L 380.080934 50.760046 
L 381.547747 51.386221 
L 383.014561 52.264336 
L 384.481374 53.4202 
L 385.856512 54.784666 
L 387.23165 56.452637 
L 388.606788 58.458649 
L 390.073601 61.012152 
L 391.540415 64.035908 
L 393.007228 67.569815 
L 394.565718 71.917349 
L 396.215883 77.203438 
L 398.0494 83.877011 
L 400.157945 92.460809 
L 403.274923 106.248475 
L 406.483578 120.190564 
L 408.225419 126.8388 
L 409.600557 131.310131 
L 410.792343 134.49629 
L 411.800777 136.627586 
L 412.717536 138.08225 
L 413.542619 138.981904 
L 414.276025 139.449345 
L 414.917756 139.600536 
L 415.559487 139.51241 
L 416.201218 139.188312 
L 416.891171 138.582686 
L 417.641904 137.631199 
L 418.558663 136.076549 
L 419.567097 133.903628 
L 420.758883 130.776335 
L 422.134021 126.528911 
L 423.875862 120.392886 
L 426.442786 110.427816 
L 431.484957 90.731883 
L 433.776854 82.755176 
L 435.793722 76.516809 
L 437.627239 71.528179 
L 439.36908 67.388768 
L 441.110922 63.807221 
L 442.852763 60.743167 
L 444.502928 58.27462 
L 446.153093 56.185549 
L 447.803259 54.434991 
L 449.5451 52.912944 
L 451.286941 51.68783 
L 453.028782 50.728527 
L 454.770623 50.012187 
L 456.512464 49.525172 
L 458.254305 49.264116 
L 459.904471 49.232569 
L 461.46296 49.411863 
L 463.02145 49.820111 
L 464.449851 50.426817 
L 465.824989 51.257678 
L 467.108451 52.290401 
L 468.391912 53.61596 
L 469.675374 55.286229 
L 470.86716 57.198503 
L 472.058946 59.51464 
L 473.342408 62.529324 
L 474.62587 66.161025 
L 475.909332 70.48957 
L 477.192794 75.589424 
L 478.567932 81.978273 
L 480.034745 89.895046 
L 481.593235 99.545225 
L 483.426752 112.383958 
L 485.810324 130.846586 
L 490.944171 171.165442 
L 492.777688 183.601514 
L 494.427854 193.293193 
L 495.894667 200.607429 
L 497.269805 206.345897 
L 498.553267 210.760366 
L 499.745053 214.093309 
L 500.845163 216.560251 
L 501.945273 218.485052 
L 502.953708 219.807986 
L 503.870466 220.669483 
L 504.787225 221.226323 
L 505.677489 221.491737 
L 506.502571 221.507277 
L 507.327654 221.310228 
L 508.244413 220.850593 
L 509.161171 220.144784 
L 510.169605 219.090271 
L 511.269716 217.612247 
L 512.461502 215.627497 
L 513.744964 213.042901 
L 515.120101 209.754447 
L 516.586915 205.647638 
L 518.145404 200.60056 
L 519.79557 194.491233 
L 521.629087 186.805024 
L 523.645955 177.335997 
L 526.029527 164.98507 
L 529.238182 147.039545 
L 534.922085 115.137077 
L 537.397333 102.613149 
L 539.562533 92.796832 
L 541.487726 85.069073 
L 543.321243 78.607024 
L 545.063084 73.258829 
L 546.804925 68.636511 
L 548.45509 64.873251 
L 550.105256 61.650608 
L 551.755421 58.908764 
L 553.405586 56.588832 
L 555.055751 54.635041 
L 556.797593 52.913294 
L 558.63111 51.420504 
L 560.556302 50.146584 
L 562.573171 49.076091 
L 564.773391 48.156036 
L 567.248639 47.363327 
L 570.090591 46.692877 
L 573.452986 46.138704 
L 577.578399 45.698298 
L 582.895598 45.370098 
L 590.371489 45.149427 
L 603.022756 45.028677 
L 638.181361 44.995194 
L 663.483895 45.108473 
L 670.176232 45.350477 
L 674.393321 45.714475 
L 677.5103 46.199754 
L 679.985548 46.803242 
L 682.094093 47.544255 
L 683.891031 48.404127 
L 685.541196 49.43854 
L 687.099686 50.690834 
L 688.566499 52.175127 
L 689.941637 53.896586 
L 691.225099 55.849116 
L 692.508561 58.19577 
L 693.792023 61.001073 
L 695.075485 64.333459 
L 696.450622 68.567644 
L 697.82576 73.567587 
L 699.200898 79.401497 
L 700.667712 86.593424 
L 702.226201 95.339528 
L 704.059718 106.992204 
L 706.259938 122.532611 
L 713.043951 171.689389 
L 714.785792 182.134662 
L 716.344282 190.158925 
L 717.71942 196.128286 
L 719.002881 200.750236 
L 720.194667 204.238743 
L 721.270484 206.748772 
L 722.278918 208.576382 
L 723.195676 209.818101 
L 724.020759 210.609981 
L 724.845842 211.107238 
L 725.579248 211.31221 
L 726.312655 211.30282 
L 727.046062 211.086805 
L 727.871145 210.6056 
L 728.787903 209.785732 
L 729.796338 208.549791 
L 730.896448 206.816798 
L 732.088234 204.502553 
L 733.371696 201.520268 
L 734.838509 197.513427 
L 736.396999 192.58803 
L 738.13884 186.317594 
L 740.064033 178.53042 
L 742.264253 168.68784 
L 745.106204 154.877148 
L 753.540383 113.149488 
L 755.740603 103.72875 
L 757.665796 96.408622 
L 759.407637 90.637431 
L 760.966126 86.222673 
L 762.341264 82.952983 
L 763.624726 80.458356 
L 764.724836 78.768026 
L 765.73327 77.597613 
L 766.650029 76.861289 
L 767.475112 76.476164 
L 768.208518 76.363031 
L 768.941925 76.473585 
L 769.675332 76.815998 
L 770.408739 77.398871 
L 771.233821 78.353132 
L 772.15058 79.79927 
L 773.067338 81.668374 
L 774.075773 84.232263 
L 775.175883 87.65684 
L 776.367669 92.124002 
L 777.651131 97.821262 
L 779.117944 105.430484 
L 780.76811 115.28113 
L 782.693303 128.194767 
L 785.718606 150.256581 
L 789.202288 175.249719 
L 791.219157 188.14666 
L 792.960998 197.920172 
L 794.519487 205.494881 
L 795.986301 211.61846 
L 797.453114 216.819537 
L 798.828252 220.929327 
L 800.20339 224.377946 
L 801.578528 227.247827 
L 802.953665 229.61954 
L 804.328803 231.568235 
L 805.795617 233.256778 
L 807.26243 234.612981 
L 808.82092 235.758295 
L 810.562761 236.751388 
L 812.396278 237.542467 
L 814.504822 238.209796 
L 816.98007 238.754541 
L 820.005373 239.183874 
L 823.947435 239.504108 
L 829.539662 239.715846 
L 839.165626 239.825965 
L 869.418656 239.851263 
L 996.11468 239.851152 
L 996.11468 239.851152 
" style="fill:none;stroke:#ff0000;stroke-dasharray:5.55,2.4;stroke-dashoffset:0;stroke-width:1.5;"/>
   </g>
   <g id="line2d_15">
    <path clip-path="url(#pe131641428)" d="M 184.581818 239.851166 
L 294.352463 239.741323 
L 302.328262 239.504413 
L 306.912055 239.162864 
L 310.395737 238.689074 
L 313.237688 238.090435 
L 315.712936 237.346009 
L 317.821481 236.487674 
L 319.838349 235.425645 
L 322.221921 233.89578 
L 324.972197 232.165884 
L 326.255659 231.633254 
L 327.264093 231.452267 
L 328.180852 231.513574 
L 329.09761 231.811813 
L 330.014369 232.354196 
L 331.022803 233.22422 
L 332.214589 234.580615 
L 333.728341 236.684926 
L 338.037106 242.924731 
L 339.228892 244.181125 
L 340.237326 244.961217 
L 341.154084 245.422552 
L 342.070843 245.641389 
L 342.987601 245.623273 
L 343.90436 245.38478 
L 344.912794 244.898303 
L 346.196256 244.008638 
L 347.938097 242.496026 
L 351.971835 238.902923 
L 353.713676 237.700543 
L 355.272165 236.890561 
L 356.830655 236.33594 
L 358.389144 236.018209 
L 360.039309 235.904009 
L 361.964502 235.999766 
L 364.256398 236.343612 
L 367.373377 237.056979 
L 371.498791 238.24182 
L 375.130438 239.502307 
L 377.880713 240.691017 
L 380.447637 242.051434 
L 384.022995 243.972892 
L 385.398133 244.42961 
L 386.498243 244.5709 
L 387.506677 244.492246 
L 388.606788 244.167909 
L 389.706898 243.60768 
L 391.082035 242.63321 
L 393.007228 240.951913 
L 396.032531 238.308092 
L 397.499345 237.326962 
L 398.782807 236.734193 
L 399.974593 236.437218 
L 401.074703 236.387777 
L 402.174813 236.548751 
L 403.366599 236.941955 
L 404.741737 237.636341 
L 406.483578 238.782193 
L 411.250722 242.0742 
L 412.62586 242.687321 
L 413.817646 242.985675 
L 414.917756 243.036114 
L 416.017866 242.854872 
L 417.183525 242.4147 
L 418.466987 241.675767 
L 420.39218 240.262182 
L 422.867428 238.482952 
L 424.242565 237.763634 
L 425.434351 237.371012 
L 426.626137 237.206289 
L 427.909599 237.264788 
L 429.376413 237.568325 
L 431.484957 238.264224 
L 436.343777 239.932058 
L 438.819025 240.497107 
L 441.385949 240.850187 
L 444.594604 241.051171 
L 450.828562 241.15585 
L 454.953975 241.351312 
L 457.795926 241.703369 
L 460.087822 242.206341 
L 462.196367 242.901666 
L 464.816554 244.033703 
L 466.925099 244.862022 
L 468.208561 245.124802 
L 469.216995 245.118414 
L 470.225429 244.884274 
L 471.233864 244.408382 
L 472.333974 243.626261 
L 473.617436 242.425143 
L 475.542629 240.27153 
L 478.017877 237.551854 
L 479.301339 236.470889 
L 480.309773 235.885306 
L 481.226531 235.592062 
L 482.14329 235.543765 
L 483.060048 235.742037 
L 483.976807 236.173063 
L 485.076917 236.955559 
L 486.452055 238.227608 
L 490.210765 241.865951 
L 491.402551 242.644328 
L 492.502661 243.102912 
L 493.602771 243.309708 
L 494.702881 243.288523 
L 495.986343 243.028592 
L 497.544833 242.467724 
L 499.653377 241.449469 
L 502.495328 239.813636 
L 505.952516 237.550037 
L 509.161171 235.513386 
L 510.903012 234.661774 
L 512.27815 234.222526 
L 513.469936 234.067618 
L 514.570046 234.146879 
L 515.670156 234.456515 
L 516.861942 235.046657 
L 518.145404 235.939722 
L 519.887245 237.446404 
L 523.920983 241.039234 
L 525.479472 242.080333 
L 526.946286 242.786315 
L 528.321424 243.207973 
L 529.788237 243.433434 
L 531.530078 243.471331 
L 533.730299 243.286387 
L 536.297223 242.844331 
L 538.589119 242.231773 
L 540.754319 241.424056 
L 543.137891 240.284113 
L 547.263304 238.002032 
L 550.838662 236.133612 
L 553.680614 234.898866 
L 556.430889 233.948873 
L 559.089489 233.269987 
L 561.473061 232.883344 
L 563.673281 232.744831 
L 565.781826 232.837642 
L 567.89037 233.15761 
L 570.273942 233.752738 
L 573.636338 234.844972 
L 580.053647 236.955633 
L 583.537329 237.835865 
L 587.071158 238.494494 
L 591.01322 238.997068 
L 595.780364 239.370921 
L 601.922646 239.625842 
L 610.998555 239.778618 
L 630.617187 239.845035 
L 665.500764 240.01251 
L 670.634612 240.262597 
L 674.301646 240.65348 
L 677.235273 241.179902 
L 679.710521 241.841022 
L 681.910741 242.658232 
L 684.074383 243.706284 
L 688.10812 245.744921 
L 689.299906 246.050602 
L 690.308341 246.085946 
L 691.225099 245.906617 
L 692.141858 245.513856 
L 693.150292 244.842458 
L 694.342078 243.767278 
L 695.900567 242.029415 
L 699.842629 237.457519 
L 701.034415 236.458162 
L 702.042849 235.868214 
L 702.959608 235.562311 
L 703.876366 235.485734 
L 704.793125 235.63472 
L 705.801559 236.03861 
L 706.993345 236.78668 
L 708.551835 238.062448 
L 712.218869 241.163143 
L 713.594006 241.995737 
L 714.877468 242.523924 
L 716.16093 242.809885 
L 717.444392 242.873925 
L 718.911206 242.716019 
L 720.561371 242.304688 
L 722.553945 241.571973 
L 725.7626 240.118809 
L 730.713096 237.900354 
L 732.454937 237.374276 
L 733.830075 237.177576 
L 735.205213 237.21267 
L 736.58035 237.475704 
L 738.230516 238.034974 
L 740.889115 239.220558 
L 743.731067 240.412201 
L 745.747935 241.019908 
L 747.764804 241.396865 
L 749.965024 241.577784 
L 752.348596 241.549233 
L 754.732169 241.298431 
L 757.024065 240.835037 
L 759.682664 240.059512 
L 764.358133 238.655534 
L 766.375001 238.327121 
L 768.758573 238.187974 
L 776.000966 238.11886 
L 777.742807 238.365388 
L 779.20962 238.790384 
L 780.76811 239.478447 
L 782.784978 240.646427 
L 785.535254 242.240311 
L 786.818716 242.723556 
L 787.918826 242.898499 
L 788.92726 242.828103 
L 789.935695 242.527874 
L 791.035805 241.958988 
L 792.410943 240.981184 
L 796.536356 237.854261 
L 797.911494 237.17339 
L 799.286631 236.74944 
L 800.661769 236.561101 
L 802.220258 236.577893 
L 804.145451 236.831429 
L 807.354106 237.518288 
L 812.487954 238.591023 
L 816.246663 239.129364 
L 820.463753 239.49795 
L 825.872628 239.734239 
L 834.123454 239.846516 
L 858.967609 239.854464 
L 996.11468 239.851166 
L 996.11468 239.851166 
" style="fill:none;stroke:#ff0000;stroke-dasharray:9.6,2.4,1.5,2.4;stroke-dashoffset:0;stroke-width:1.5;"/>
   </g>
   <g id="line2d_16">
    <path clip-path="url(#pe131641428)" d="M 184.581818 44.993828 
L 331.435344 44.882922 
L 340.769046 44.662896 
L 342.364206 44.857428 
L 343.583494 45.252177 
L 344.591929 45.836586 
L 345.49952 46.632254 
L 346.397943 47.72995 
L 347.314702 49.220284 
L 348.295633 51.275217 
L 349.304067 53.914884 
L 350.459183 57.611165 
L 351.72431 62.475616 
L 353.108615 68.738168 
L 354.667105 76.881905 
L 356.390611 87.089408 
L 358.453317 100.69334 
L 361.020241 119.196796 
L 365.081481 150.337091 
L 369.252732 181.807767 
L 371.352109 196.001662 
L 373.02061 205.833805 
L 374.481006 213.166432 
L 375.88218 219.039838 
L 377.156474 223.437118 
L 378.38493 226.902992 
L 379.585884 229.647112 
L 380.77767 231.832242 
L 381.978624 233.581225 
L 383.20708 234.985428 
L 384.490542 236.119777 
L 385.874847 237.045973 
L 387.405834 237.799163 
L 389.16601 238.411135 
L 391.283722 238.903298 
L 393.98816 239.29195 
L 397.728535 239.589462 
L 402.614857 239.752789 
L 405.924355 239.664251 
L 408.445441 239.376124 
L 410.902354 238.866636 
L 414.037668 237.967129 
L 418.448652 236.721448 
L 420.648872 236.345445 
L 422.5924 236.237052 
L 424.517593 236.354655 
L 426.699478 236.719775 
L 430.357344 237.602676 
L 434.565266 238.538786 
L 438.00311 239.066597 
L 441.880999 239.428724 
L 446.978176 239.666238 
L 455.219835 239.799842 
L 485.278604 239.920936 
L 486.571233 239.577545 
L 487.653008 239.061625 
L 488.63394 238.345965 
L 489.578201 237.377602 
L 490.53163 236.072971 
L 491.530897 234.312698 
L 492.594337 231.966885 
L 493.740285 228.876012 
L 494.996244 224.822274 
L 496.408052 219.479404 
L 498.030715 212.429173 
L 500.001745 202.815205 
L 502.623675 188.827405 
L 511.984787 137.914807 
L 514.240013 127.36796 
L 516.137703 119.506896 
L 517.815371 113.465036 
L 519.33719 108.787957 
L 520.730663 105.199838 
L 522.014125 102.482877 
L 523.215079 100.441941 
L 524.324357 98.979229 
L 525.332791 98.000606 
L 526.249549 97.407493 
L 527.0838 97.123554 
L 527.863044 97.090184 
L 528.614786 97.282216 
L 529.375696 97.713289 
L 530.164108 98.423966 
L 531.007526 99.494967 
L 531.924284 101.036207 
L 532.923551 103.173711 
L 534.014494 106.055976 
L 535.224615 109.914589 
L 536.563082 114.962222 
L 538.066566 121.538949 
L 539.80089 130.174977 
L 541.872764 141.682244 
L 544.650543 158.474804 
L 550.856998 196.383095 
L 552.736352 206.247065 
L 554.322345 213.44071 
L 555.761655 218.976883 
L 557.10929 223.309779 
L 558.40192 226.743827 
L 559.667047 229.491296 
L 560.913838 231.6829 
L 562.169797 233.45168 
L 563.453259 234.88198 
L 564.791727 236.044353 
L 566.22187 236.992457 
L 567.789527 237.763678 
L 569.577206 238.390214 
L 571.690609 238.887604 
L 574.323906 239.269459 
L 577.890097 239.547678 
L 583.363145 239.729651 
L 594.139366 239.825734 
L 633.770836 239.850976 
L 696.148092 239.963271 
L 705.691548 240.042498 
L 707.268373 239.79435 
L 708.496829 239.38135 
L 709.569437 238.787071 
L 710.577871 237.968834 
L 711.56797 236.869762 
L 712.585572 235.393206 
L 713.658179 233.425867 
L 714.804128 230.841511 
L 716.060087 227.439301 
L 717.462727 222.970743 
L 719.08539 217.015709 
L 721.028918 208.984534 
L 723.63572 197.184543 
L 731.043129 163.128111 
L 733.28002 154.154038 
L 735.159375 147.492174 
L 736.818708 142.399741 
L 738.303856 138.529046 
L 739.669827 135.564373 
L 740.925786 133.344899 
L 742.090069 131.717711 
L 743.162676 130.584063 
L 744.143608 129.857765 
L 745.042031 129.459997 
L 745.876282 129.328452 
L 746.673861 129.426205 
L 747.471441 129.752201 
L 748.296524 130.339712 
L 749.167444 131.245994 
L 750.102538 132.555094 
L 751.12014 134.380761 
L 752.229418 136.84582 
L 753.457874 140.139704 
L 754.833012 144.492963 
L 756.391501 150.198791 
L 758.225018 157.801718 
L 760.544417 168.437404 
L 768.346032 205.046825 
L 770.097041 211.729814 
L 771.637195 216.76673 
L 773.067338 220.711405 
L 774.424141 223.825807 
L 775.744273 226.31634 
L 777.036903 228.294195 
L 778.320365 229.860929 
L 779.585491 231.062937 
L 780.813948 231.932805 
L 781.978231 232.493648 
L 783.060006 232.773855 
L 784.050105 232.805676 
L 784.976031 232.615077 
L 785.865287 232.2031 
L 786.745375 231.544371 
L 787.634631 230.593547 
L 788.560557 229.264984 
L 789.532321 227.463349 
L 790.55909 225.070901 
L 791.659201 221.920998 
L 792.860154 217.778949 
L 794.198622 212.326337 
L 795.738776 205.066684 
L 797.581461 195.246541 
L 800.001703 181.051721 
L 804.75968 151.478842 
L 809.050109 125.479808 
L 811.846223 109.844148 
L 814.119784 98.3444 
L 816.127485 89.300276 
L 817.970169 81.991275 
L 819.712011 75.962341 
L 821.435517 70.809339 
L 823.067347 66.626077 
L 824.717512 63.021216 
L 826.331007 60.037626 
L 827.907831 57.574304 
L 829.512159 55.465299 
L 831.153157 53.662219 
L 832.959171 52.026879 
L 834.78352 50.6835 
L 836.827892 49.476196 
L 838.835593 48.534386 
L 841.439187 47.593388 
L 844.42782 46.808924 
L 847.911502 46.181646 
L 850.91847 45.814503 
L 855.080553 45.483895 
L 859.655178 45.271013 
L 867.786826 45.094018 
L 878.1737 45.021108 
L 996.218182 44.993828 
L 996.218182 44.993828 
" style="fill:none;stroke:#008000;stroke-linecap:square;stroke-width:1.5;"/>
   </g>
   <g id="line2d_17">
    <path clip-path="url(#pe131641428)" d="M 184.581818 44.993828 
L 322.405273 45.103588 
L 328.822583 45.34062 
L 332.764644 45.696109 
L 335.653534 46.170358 
L 337.94543 46.763517 
L 339.870623 47.484509 
L 341.520788 48.328244 
L 343.079277 49.380083 
L 344.454415 50.57264 
L 345.737877 51.965928 
L 347.021339 53.691196 
L 348.304801 55.81879 
L 349.496587 58.224937 
L 350.688373 61.119054 
L 351.880159 64.577959 
L 353.163621 69.024943 
L 354.447083 74.312794 
L 355.82222 81.002641 
L 357.197358 88.814863 
L 358.755848 99.034532 
L 360.497689 112.041794 
L 362.697909 130.293444 
L 368.19846 176.776937 
L 370.031977 189.931504 
L 371.590466 199.594735 
L 373.05728 207.358081 
L 374.477431 213.686774 
L 375.772169 218.517781 
L 377.055631 222.51641 
L 378.339092 225.8262 
L 379.622554 228.544366 
L 380.906016 230.762283 
L 382.189478 232.562489 
L 383.564616 234.109803 
L 384.939754 235.336575 
L 386.406567 236.362912 
L 388.056732 237.244973 
L 389.890249 237.967886 
L 391.998794 238.554696 
L 394.474042 239.010327 
L 397.591021 239.346812 
L 401.349731 239.520902 
L 405.200116 239.485027 
L 408.500447 239.241924 
L 411.250722 238.825954 
L 413.909322 238.200455 
L 418.375311 236.852781 
L 420.667207 236.318732 
L 422.409048 236.136845 
L 424.150889 236.188257 
L 426.076082 236.486884 
L 428.826358 237.177103 
L 433.868529 238.454582 
L 437.077184 239.002933 
L 440.652542 239.375463 
L 445.144659 239.606875 
L 451.470293 239.694165 
L 459.354416 239.581056 
L 465.549961 239.285376 
L 470.042078 238.857703 
L 473.52576 238.310431 
L 476.367711 237.648323 
L 478.842959 236.846762 
L 481.04318 235.897285 
L 482.968373 234.829785 
L 484.80189 233.555264 
L 486.452055 232.145273 
L 488.10222 230.435795 
L 489.66071 228.49621 
L 491.219199 226.187581 
L 492.777688 223.453127 
L 494.336178 220.233079 
L 495.894667 216.467125 
L 497.453157 212.097999 
L 499.011646 207.076326 
L 500.661811 201.008963 
L 502.403653 193.750616 
L 504.328845 184.739324 
L 506.502571 173.459021 
L 509.436199 156.921507 
L 514.753398 126.746556 
L 516.861942 116.18905 
L 518.603784 108.581808 
L 520.070597 103.117574 
L 521.354059 99.121738 
L 522.545845 96.11243 
L 523.554279 94.116558 
L 524.471038 92.752908 
L 525.296121 91.900013 
L 526.029527 91.443809 
L 526.671258 91.279984 
L 527.312989 91.337292 
L 527.95472 91.616726 
L 528.688127 92.208784 
L 529.421534 93.091831 
L 530.246616 94.432122 
L 531.163375 96.348942 
L 532.171809 98.969899 
L 533.363595 102.741615 
L 534.647057 107.584353 
L 536.113871 114.037129 
L 537.764036 122.324557 
L 539.83756 133.950876 
L 543.137891 153.967115 
L 546.804925 175.858665 
L 549.005145 187.713538 
L 550.930338 196.929655 
L 552.672179 204.239861 
L 554.322345 210.255383 
L 555.880834 215.156113 
L 557.439324 219.352684 
L 558.997813 222.911537 
L 560.556302 225.904881 
L 562.114792 228.405262 
L 563.673281 230.481874 
L 565.231771 232.198316 
L 566.881936 233.686244 
L 568.623777 234.952802 
L 570.457294 236.011989 
L 572.444552 236.907202 
L 574.736448 237.686776 
L 577.303372 238.319636 
L 580.328675 238.83367 
L 584.087384 239.239767 
L 589.088027 239.541106 
L 596.330419 239.735342 
L 609.531741 239.831906 
L 655.141393 239.839297 
L 676.135163 239.698023 
L 684.34941 239.434455 
L 689.66661 239.055501 
L 693.700347 238.553152 
L 696.909002 237.937787 
L 699.659277 237.18633 
L 702.042849 236.30501 
L 704.151394 235.29173 
L 706.076587 234.124204 
L 707.910104 232.747196 
L 709.651945 231.149633 
L 711.30211 229.327282 
L 712.8606 227.284264 
L 714.419089 224.882034 
L 715.977578 222.072931 
L 717.536068 218.809253 
L 719.186233 214.808345 
L 720.836398 210.202643 
L 722.553945 204.734474 
L 724.387462 198.1304 
L 726.404331 189.99726 
L 728.787903 179.398064 
L 732.913316 159.774413 
L 735.755268 146.789321 
L 737.680461 139.006053 
L 739.23895 133.623133 
L 740.522412 129.949552 
L 741.622522 127.418308 
L 742.630956 125.63923 
L 743.456039 124.588079 
L 744.189446 123.968779 
L 744.831177 123.674385 
L 745.472908 123.613069 
L 746.114639 123.785411 
L 746.75637 124.190623 
L 747.489776 124.936039 
L 748.314859 126.127955 
L 749.231618 127.877728 
L 750.240052 130.29566 
L 751.431838 133.772586 
L 752.806976 138.529916 
L 754.457141 145.119075 
L 756.565686 154.554573 
L 764.999864 193.436676 
L 766.925057 200.748487 
L 768.666898 206.55812 
L 770.317063 211.331415 
L 771.875552 215.192444 
L 773.342366 218.270098 
L 774.80918 220.83146 
L 776.184317 222.785551 
L 777.467779 224.236 
L 778.659565 225.271647 
L 779.851351 226.015456 
L 780.951461 226.446866 
L 782.051572 226.634067 
L 783.060006 226.589323 
L 784.06844 226.333649 
L 785.076875 225.860931 
L 786.176985 225.08786 
L 787.277095 224.032809 
L 788.377205 222.679166 
L 789.568991 220.853465 
L 790.760777 218.627651 
L 792.044239 215.749889 
L 793.419377 212.07262 
L 794.794515 207.739475 
L 796.261328 202.355243 
L 797.819818 195.744478 
L 799.469983 187.74638 
L 801.3035 177.720112 
L 803.412045 164.920275 
L 806.437348 145.012542 
L 811.112816 114.273186 
L 813.313036 101.302032 
L 815.238229 91.21782 
L 816.98007 83.225162 
L 818.630236 76.658008 
L 820.188725 71.319333 
L 821.747214 66.760026 
L 823.214028 63.114585 
L 824.680842 60.026384 
L 826.147655 57.427267 
L 827.614469 55.251769 
L 829.172958 53.336689 
L 830.731448 51.765955 
L 832.381613 50.414527 
L 834.123454 49.272791 
L 836.048647 48.283629 
L 838.157191 47.457204 
L 840.540764 46.767773 
L 843.291039 46.206868 
L 846.683045 45.751978 
L 850.99181 45.410628 
L 857.042416 45.173512 
L 866.851732 45.039695 
L 891.329184 44.995345 
L 996.11468 44.993828 
L 996.11468 44.993828 
" style="fill:none;stroke:#008000;stroke-dasharray:5.55,2.4;stroke-dashoffset:0;stroke-width:1.5;"/>
   </g>
   <g id="line2d_18">
    <path clip-path="url(#pe131641428)" d="M 184.581818 239.851152 
L 322.405273 239.961075 
L 327.9975 240.189422 
L 331.847886 240.569333 
L 334.828451 241.08192 
L 337.303699 241.730298 
L 339.503919 242.538119 
L 342.620898 243.973734 
L 344.454415 244.683823 
L 345.646201 244.918369 
L 346.654635 244.904146 
L 347.66307 244.657375 
L 348.671504 244.167323 
L 349.771614 243.373406 
L 351.146752 242.078932 
L 356.188924 236.990143 
L 357.197358 236.41823 
L 358.114117 236.138841 
L 358.939199 236.099442 
L 359.764282 236.263423 
L 360.68104 236.672061 
L 361.781151 237.434029 
L 363.247964 238.767237 
L 366.089915 241.414073 
L 367.190026 242.118768 
L 368.19846 242.499926 
L 369.115219 242.610452 
L 370.123653 242.488039 
L 371.223763 242.116665 
L 372.782252 241.329991 
L 376.047196 239.630292 
L 377.697361 239.051048 
L 379.347527 238.709475 
L 381.181044 238.565588 
L 383.47294 238.622788 
L 387.598353 238.998274 
L 393.373932 239.46371 
L 398.416103 239.629057 
L 411.159046 239.893324 
L 415.376136 240.068925 
L 418.650338 239.949579 
L 424.150889 239.723714 
L 429.559765 239.829048 
L 437.16886 239.90787 
L 453.30381 239.756342 
L 462.196367 239.494168 
L 467.475154 239.129401 
L 471.233864 238.65554 
L 474.350843 238.047027 
L 477.009442 237.312087 
L 479.393014 236.424865 
L 481.593235 235.36232 
L 483.976807 233.942921 
L 487.643841 231.727824 
L 488.927303 231.225849 
L 490.027413 231.03299 
L 491.035847 231.094245 
L 491.952606 231.366582 
L 492.96104 231.910169 
L 494.06115 232.784651 
L 495.252936 234.028166 
L 496.811426 236.012977 
L 502.495328 243.662483 
L 503.77879 244.850232 
L 504.878901 245.589796 
L 505.952516 246.045272 
L 506.960951 246.229961 
L 507.969385 246.184849 
L 508.977819 245.923025 
L 510.07793 245.41364 
L 511.361391 244.567198 
L 512.919881 243.256331 
L 515.120101 241.07694 
L 519.612218 236.550109 
L 521.262383 235.226507 
L 522.637521 234.397343 
L 523.829307 233.930896 
L 524.929417 233.734449 
L 526.029527 233.771447 
L 527.129638 234.034185 
L 528.321424 234.547217 
L 529.788237 235.442586 
L 531.621754 236.841987 
L 535.197112 239.926293 
L 538.039064 242.238259 
L 539.83756 243.433704 
L 541.304374 244.157386 
L 542.587836 244.546722 
L 543.687946 244.663431 
L 544.788056 244.554905 
L 545.888167 244.206584 
L 546.988277 243.617248 
L 548.180063 242.726738 
L 549.646876 241.345393 
L 554.505696 236.522479 
L 555.880834 235.61459 
L 557.164296 235.041771 
L 558.447758 234.721468 
L 559.822896 234.621556 
L 561.381385 234.74797 
L 563.306578 235.143594 
L 566.423557 236.048836 
L 571.671174 237.553452 
L 575.103151 238.293814 
L 578.770185 238.855046 
L 582.987274 239.270374 
L 588.35462 239.565699 
L 596.147067 239.751827 
L 610.723527 239.837746 
L 662.567137 239.821903 
L 678.152031 239.656289 
L 685.541196 239.368885 
L 690.216665 238.978121 
L 693.883699 238.453497 
L 697.000678 237.787045 
L 699.659277 236.99851 
L 702.042849 236.064162 
L 704.426421 234.885889 
L 709.193566 232.426982 
L 710.477027 232.066758 
L 711.577138 231.98387 
L 712.585572 232.127508 
L 713.594006 232.496805 
L 714.694116 233.157068 
L 715.885903 234.155484 
L 717.26104 235.617042 
L 719.094557 237.917339 
L 723.012325 242.929333 
L 724.479138 244.405364 
L 725.670924 245.314794 
L 726.771035 245.884881 
L 727.779469 246.163155 
L 728.787903 246.202283 
L 729.796338 246.005903 
L 730.804772 245.585696 
L 731.904882 244.893868 
L 733.188344 243.820513 
L 734.838509 242.117219 
L 737.863812 238.570463 
L 739.880681 236.387134 
L 741.255819 235.204869 
L 742.447605 234.473184 
L 743.456039 234.103773 
L 744.464473 233.979431 
L 745.472908 234.101378 
L 746.481342 234.457619 
L 747.581452 235.085682 
L 748.864914 236.079048 
L 750.606755 237.740496 
L 755.923955 243.035265 
L 757.299092 244.007037 
L 758.490878 244.605168 
L 759.590989 244.929023 
L 760.691099 245.019516 
L 761.791209 244.873247 
L 762.891319 244.4982 
L 764.083105 243.857571 
L 765.549919 242.797887 
L 767.750139 240.886418 
L 770.59209 238.471354 
L 772.333932 237.286399 
L 773.984097 236.423912 
L 775.817614 235.716549 
L 778.476214 234.956034 
L 786.72704 232.886858 
L 788.010502 232.918074 
L 789.110612 233.153989 
L 790.210722 233.616815 
L 791.310832 234.323374 
L 792.502618 235.357425 
L 793.969432 236.951668 
L 796.628032 240.27176 
L 798.461549 242.386326 
L 799.745011 243.561518 
L 800.845121 244.293277 
L 801.853555 244.712679 
L 802.861989 244.884428 
L 803.870424 244.816941 
L 804.970534 244.496792 
L 806.16232 243.909836 
L 807.720809 242.8797 
L 813.67974 238.664051 
L 815.421581 237.822111 
L 817.163422 237.225955 
L 818.996939 236.844269 
L 821.013808 236.665979 
L 823.39738 236.693606 
L 826.606034 236.978593 
L 832.931668 237.827064 
L 840.265736 238.70426 
L 846.224666 239.199585 
L 852.917003 239.529174 
L 862.359616 239.739261 
L 878.127862 239.833249 
L 996.11468 239.851152 
L 996.11468 239.851152 
" style="fill:none;stroke:#008000;stroke-dasharray:9.6,2.4,1.5,2.4;stroke-dashoffset:0;stroke-width:1.5;"/>
   </g>
   <g id="patch_3">
    <path d="M 144 256.32 
L 144 34.56 
" style="fill:none;stroke:#000000;stroke-linecap:square;stroke-linejoin:miter;stroke-width:0.8;"/>
   </g>
   <g id="patch_4">
    <path d="M 1036.8 256.32 
L 1036.8 34.56 
" style="fill:none;stroke:#000000;stroke-linecap:square;stroke-linejoin:miter;stroke-width:0.8;"/>
   </g>
   <g id="patch_5">
    <path d="M 144 256.32 
L 1036.8 256.32 
" style="fill:none;stroke:#000000;stroke-linecap:square;stroke-linejoin:miter;stroke-width:0.8;"/>
   </g>
   <g id="patch_6">
    <path d="M 144 34.56 
L 1036.8 34.56 
" style="fill:none;stroke:#000000;stroke-linecap:square;stroke-linejoin:miter;stroke-width:0.8;"/>
   </g>
   <g id="text_16">
    <!-- In  RMSE: 0.01196 -->
    <g transform="translate(184.581818 204.232424)scale(0.1 -0.1)">
     <defs>
      <path d="M 9.8125 72.90625 
L 50.296875 72.90625 
L 50.296875 64.59375 
L 35.015625 64.59375 
L 35.015625 8.296875 
L 50.296875 8.296875 
L 50.296875 0 
L 9.8125 0 
L 9.8125 8.296875 
L 25.09375 8.296875 
L 25.09375 64.59375 
L 9.8125 64.59375 
z
" id="DejaVuSansMono-73"/>
      <path d="M 51.3125 33.890625 
L 51.3125 0 
L 42.28125 0 
L 42.28125 33.890625 
Q 42.28125 41.265625 39.6875 44.71875 
Q 37.109375 48.1875 31.59375 48.1875 
Q 25.296875 48.1875 21.890625 43.71875 
Q 18.5 39.265625 18.5 30.90625 
L 18.5 0 
L 9.515625 0 
L 9.515625 54.6875 
L 18.5 54.6875 
L 18.5 46.484375 
Q 20.90625 51.171875 25 53.578125 
Q 29.109375 56 34.71875 56 
Q 43.0625 56 47.1875 50.5 
Q 51.3125 45.015625 51.3125 33.890625 
z
" id="DejaVuSansMono-110"/>
      <path id="DejaVuSansMono-32"/>
      <path d="M 37.109375 34.421875 
Q 40.921875 33.453125 43.609375 30.734375 
Q 46.296875 28.03125 50.296875 19.921875 
L 60.203125 0 
L 49.609375 0 
L 40.921875 18.40625 
Q 37.15625 26.265625 34.15625 28.53125 
Q 31.15625 30.8125 26.3125 30.8125 
L 16.890625 30.8125 
L 16.890625 0 
L 6.984375 0 
L 6.984375 72.90625 
L 27.296875 72.90625 
Q 39.3125 72.90625 45.703125 67.484375 
Q 52.09375 62.0625 52.09375 51.8125 
Q 52.09375 44.578125 48.15625 40.015625 
Q 44.234375 35.453125 37.109375 34.421875 
z
M 16.890625 64.796875 
L 16.890625 38.921875 
L 27.6875 38.921875 
Q 34.765625 38.921875 38.234375 42.09375 
Q 41.703125 45.265625 41.703125 51.8125 
Q 41.703125 58.109375 38.015625 61.453125 
Q 34.328125 64.796875 27.296875 64.796875 
z
" id="DejaVuSansMono-82"/>
      <path d="M 4.203125 72.90625 
L 17.390625 72.90625 
L 29.984375 35.796875 
L 42.671875 72.90625 
L 55.90625 72.90625 
L 55.90625 0 
L 46.78125 0 
L 46.78125 64.40625 
L 33.796875 25.984375 
L 26.3125 25.984375 
L 13.28125 64.40625 
L 13.28125 0 
L 4.203125 0 
z
" id="DejaVuSansMono-77"/>
      <path d="M 49.421875 70.40625 
L 49.421875 60.40625 
Q 44.921875 63.28125 40.40625 64.75 
Q 35.890625 66.21875 31.296875 66.21875 
Q 24.3125 66.21875 20.265625 62.96875 
Q 16.21875 59.71875 16.21875 54.203125 
Q 16.21875 49.359375 18.875 46.8125 
Q 21.53125 44.28125 28.8125 42.578125 
L 33.984375 41.40625 
Q 44.234375 39.015625 48.921875 33.890625 
Q 53.609375 28.765625 53.609375 19.921875 
Q 53.609375 9.515625 47.15625 4.046875 
Q 40.71875 -1.421875 28.421875 -1.421875 
Q 23.296875 -1.421875 18.109375 -0.3125 
Q 12.9375 0.78125 7.71875 2.984375 
L 7.71875 13.484375 
Q 13.328125 9.90625 18.328125 8.25 
Q 23.34375 6.59375 28.421875 6.59375 
Q 35.890625 6.59375 40.03125 9.9375 
Q 44.1875 13.28125 44.1875 19.28125 
Q 44.1875 24.75 41.328125 27.625 
Q 38.484375 30.515625 31.390625 32.078125 
L 26.125 33.296875 
Q 15.96875 35.59375 11.375 40.234375 
Q 6.78125 44.875 6.78125 52.6875 
Q 6.78125 62.453125 13.34375 68.328125 
Q 19.921875 74.21875 30.8125 74.21875 
Q 35.015625 74.21875 39.640625 73.265625 
Q 44.28125 72.3125 49.421875 70.40625 
z
" id="DejaVuSansMono-83"/>
      <path d="M 9.625 72.90625 
L 52.875 72.90625 
L 52.875 64.59375 
L 19.484375 64.59375 
L 19.484375 43.015625 
L 51.421875 43.015625 
L 51.421875 34.71875 
L 19.484375 34.71875 
L 19.484375 8.296875 
L 53.8125 8.296875 
L 53.8125 0 
L 9.625 0 
z
" id="DejaVuSansMono-69"/>
      <path d="M 23.875 51.90625 
L 36.1875 51.90625 
L 36.1875 37.109375 
L 23.875 37.109375 
z
M 23.875 14.890625 
L 36.1875 14.890625 
L 36.1875 0 
L 23.875 0 
z
" id="DejaVuSansMono-58"/>
      <path d="M 23.578125 36.625 
Q 23.578125 39.3125 25.453125 41.265625 
Q 27.34375 43.21875 29.984375 43.21875 
Q 32.71875 43.21875 34.671875 41.265625 
Q 36.625 39.3125 36.625 36.625 
Q 36.625 33.890625 34.6875 31.984375 
Q 32.765625 30.078125 29.984375 30.078125 
Q 27.25 30.078125 25.40625 31.9375 
Q 23.578125 33.796875 23.578125 36.625 
z
M 30.078125 66.40625 
Q 23.1875 66.40625 19.796875 58.984375 
Q 16.40625 51.5625 16.40625 36.375 
Q 16.40625 21.234375 19.796875 13.8125 
Q 23.1875 6.390625 30.078125 6.390625 
Q 37.015625 6.390625 40.40625 13.8125 
Q 43.796875 21.234375 43.796875 36.375 
Q 43.796875 51.5625 40.40625 58.984375 
Q 37.015625 66.40625 30.078125 66.40625 
z
M 30.078125 74.21875 
Q 41.75 74.21875 47.734375 64.640625 
Q 53.71875 55.078125 53.71875 36.375 
Q 53.71875 17.71875 47.734375 8.140625 
Q 41.75 -1.421875 30.078125 -1.421875 
Q 18.40625 -1.421875 12.453125 8.140625 
Q 6.5 17.71875 6.5 36.375 
Q 6.5 55.078125 12.453125 64.640625 
Q 18.40625 74.21875 30.078125 74.21875 
z
" id="DejaVuSansMono-48"/>
      <path d="M 23.875 14.890625 
L 36.1875 14.890625 
L 36.1875 0 
L 23.875 0 
z
" id="DejaVuSansMono-46"/>
      <path d="M 13.1875 8.296875 
L 28.515625 8.296875 
L 28.515625 64.015625 
L 12.015625 60.296875 
L 12.015625 69.28125 
L 28.421875 72.90625 
L 38.28125 72.90625 
L 38.28125 8.296875 
L 53.421875 8.296875 
L 53.421875 0 
L 13.1875 0 
z
" id="DejaVuSansMono-49"/>
      <path d="M 29.109375 32.328125 
Q 35.40625 32.328125 38.984375 36.859375 
Q 42.578125 41.40625 42.578125 49.421875 
Q 42.578125 57.421875 38.984375 61.953125 
Q 35.40625 66.5 29.109375 66.5 
Q 22.5625 66.5 19.234375 62.171875 
Q 15.921875 57.859375 15.921875 49.421875 
Q 15.921875 40.921875 19.21875 36.625 
Q 22.515625 32.328125 29.109375 32.328125 
z
M 11.53125 1.515625 
L 11.53125 10.59375 
Q 14.59375 8.796875 18.0625 7.84375 
Q 21.53125 6.890625 25.296875 6.890625 
Q 34.671875 6.890625 39.46875 13.9375 
Q 44.28125 21 44.28125 34.71875 
Q 42 29.828125 37.84375 27.21875 
Q 33.6875 24.609375 28.328125 24.609375 
Q 17.78125 24.609375 11.984375 31.09375 
Q 6.203125 37.59375 6.203125 49.515625 
Q 6.203125 61.28125 12.125 67.75 
Q 18.0625 74.21875 28.90625 74.21875 
Q 41.609375 74.21875 47.515625 65.078125 
Q 53.421875 55.953125 53.421875 36.375 
Q 53.421875 17.96875 46.3125 8.265625 
Q 39.203125 -1.421875 25.6875 -1.421875 
Q 22.125 -1.421875 18.5 -0.65625 
Q 14.890625 0.09375 11.53125 1.515625 
z
" id="DejaVuSansMono-57"/>
      <path d="M 48.390625 71.296875 
L 48.390625 62.203125 
Q 45.3125 64.015625 41.84375 64.96875 
Q 38.375 65.921875 34.625 65.921875 
Q 25.25 65.921875 20.40625 58.859375 
Q 15.578125 51.8125 15.578125 38.09375 
Q 17.921875 42.96875 22.0625 45.578125 
Q 26.21875 48.1875 31.59375 48.1875 
Q 42.140625 48.1875 47.921875 41.71875 
Q 53.71875 35.25 53.71875 23.390625 
Q 53.71875 11.578125 47.75 5.078125 
Q 41.796875 -1.421875 31 -1.421875 
Q 18.3125 -1.421875 12.40625 7.6875 
Q 6.5 16.796875 6.5 36.375 
Q 6.5 54.828125 13.59375 64.515625 
Q 20.703125 74.21875 34.1875 74.21875 
Q 37.796875 74.21875 41.40625 73.453125 
Q 45.015625 72.703125 48.390625 71.296875 
z
M 30.8125 40.484375 
Q 24.515625 40.484375 20.890625 35.9375 
Q 17.28125 31.390625 17.28125 23.390625 
Q 17.28125 15.375 20.890625 10.828125 
Q 24.515625 6.296875 30.8125 6.296875 
Q 37.359375 6.296875 40.671875 10.609375 
Q 44 14.9375 44 23.390625 
Q 44 31.890625 40.671875 36.1875 
Q 37.359375 40.484375 30.8125 40.484375 
z
" id="DejaVuSansMono-54"/>
     </defs>
     <use xlink:href="#DejaVuSansMono-73"/>
     <use x="60.205078" xlink:href="#DejaVuSansMono-110"/>
     <use x="120.410156" xlink:href="#DejaVuSansMono-32"/>
     <use x="180.615234" xlink:href="#DejaVuSansMono-32"/>
     <use x="240.820312" xlink:href="#DejaVuSansMono-82"/>
     <use x="301.025391" xlink:href="#DejaVuSansMono-77"/>
     <use x="361.230469" xlink:href="#DejaVuSansMono-83"/>
     <use x="421.435547" xlink:href="#DejaVuSansMono-69"/>
     <use x="481.640625" xlink:href="#DejaVuSansMono-58"/>
     <use x="541.845703" xlink:href="#DejaVuSansMono-32"/>
     <use x="602.050781" xlink:href="#DejaVuSansMono-48"/>
     <use x="662.255859" xlink:href="#DejaVuSansMono-46"/>
     <use x="722.460938" xlink:href="#DejaVuSansMono-48"/>
     <use x="782.666016" xlink:href="#DejaVuSansMono-49"/>
     <use x="842.871094" xlink:href="#DejaVuSansMono-49"/>
     <use x="903.076172" xlink:href="#DejaVuSansMono-57"/>
     <use x="963.28125" xlink:href="#DejaVuSansMono-54"/>
    </g>
    <!-- Out RMSE: 0.01274 -->
    <g transform="translate(184.581818 215.493987)scale(0.1 -0.1)">
     <defs>
      <path d="M 44.1875 36.375 
Q 44.1875 52.4375 40.890625 59.328125 
Q 37.59375 66.21875 30.078125 66.21875 
Q 22.609375 66.21875 19.3125 59.328125 
Q 16.015625 52.4375 16.015625 36.375 
Q 16.015625 20.359375 19.3125 13.46875 
Q 22.609375 6.59375 30.078125 6.59375 
Q 37.59375 6.59375 40.890625 13.453125 
Q 44.1875 20.3125 44.1875 36.375 
z
M 54.5 36.375 
Q 54.5 17.328125 48.46875 7.953125 
Q 42.4375 -1.421875 30.078125 -1.421875 
Q 17.71875 -1.421875 11.71875 7.90625 
Q 5.71875 17.234375 5.71875 36.375 
Q 5.71875 55.46875 11.75 64.84375 
Q 17.78125 74.21875 30.078125 74.21875 
Q 42.4375 74.21875 48.46875 64.84375 
Q 54.5 55.46875 54.5 36.375 
z
" id="DejaVuSansMono-79"/>
      <path d="M 9.515625 20.703125 
L 9.515625 54.59375 
L 18.5 54.59375 
L 18.5 20.703125 
Q 18.5 13.328125 21.109375 9.859375 
Q 23.734375 6.390625 29.203125 6.390625 
Q 35.546875 6.390625 38.90625 10.859375 
Q 42.28125 15.328125 42.28125 23.6875 
L 42.28125 54.59375 
L 51.3125 54.59375 
L 51.3125 0 
L 42.28125 0 
L 42.28125 8.203125 
Q 39.890625 3.46875 35.765625 1.015625 
Q 31.640625 -1.421875 26.125 -1.421875 
Q 17.71875 -1.421875 13.609375 4.078125 
Q 9.515625 9.578125 9.515625 20.703125 
z
" id="DejaVuSansMono-117"/>
      <path d="M 29.984375 70.21875 
L 29.984375 54.6875 
L 50.390625 54.6875 
L 50.390625 47.703125 
L 29.984375 47.703125 
L 29.984375 18.015625 
Q 29.984375 11.96875 32.28125 9.5625 
Q 34.578125 7.171875 40.28125 7.171875 
L 50.390625 7.171875 
L 50.390625 0 
L 39.40625 0 
Q 29.296875 0 25.140625 4.046875 
Q 21 8.109375 21 18.015625 
L 21 47.703125 
L 6.390625 47.703125 
L 6.390625 54.6875 
L 21 54.6875 
L 21 70.21875 
z
" id="DejaVuSansMono-116"/>
      <path d="M 18.21875 8.296875 
L 51.703125 8.296875 
L 51.703125 0 
L 7.421875 0 
L 7.421875 8.296875 
Q 16.546875 17.921875 23.375 25.296875 
Q 30.21875 32.671875 32.8125 35.6875 
Q 37.703125 41.65625 39.40625 45.34375 
Q 41.109375 49.03125 41.109375 52.875 
Q 41.109375 58.984375 37.515625 62.453125 
Q 33.9375 65.921875 27.6875 65.921875 
Q 23.25 65.921875 18.359375 64.3125 
Q 13.484375 62.703125 8.015625 59.421875 
L 8.015625 69.390625 
Q 13.03125 71.78125 17.890625 73 
Q 22.75 74.21875 27.484375 74.21875 
Q 38.1875 74.21875 44.703125 68.53125 
Q 51.21875 62.84375 51.21875 53.609375 
Q 51.21875 48.921875 49.046875 44.234375 
Q 46.875 39.546875 42 33.890625 
Q 39.265625 30.71875 34.0625 25.09375 
Q 28.859375 19.484375 18.21875 8.296875 
z
" id="DejaVuSansMono-50"/>
      <path d="M 6.78125 72.90625 
L 52.6875 72.90625 
L 52.6875 68.703125 
L 26.609375 0 
L 16.3125 0 
L 41.703125 64.59375 
L 6.78125 64.59375 
z
" id="DejaVuSansMono-55"/>
      <path d="M 35.890625 63.921875 
L 12.890625 25.390625 
L 35.890625 25.390625 
z
M 34.28125 72.90625 
L 45.703125 72.90625 
L 45.703125 25.390625 
L 55.421875 25.390625 
L 55.421875 17.390625 
L 45.703125 17.390625 
L 45.703125 0 
L 35.890625 0 
L 35.890625 17.390625 
L 4.984375 17.390625 
L 4.984375 26.703125 
z
" id="DejaVuSansMono-52"/>
     </defs>
     <use xlink:href="#DejaVuSansMono-79"/>
     <use x="60.205078" xlink:href="#DejaVuSansMono-117"/>
     <use x="120.410156" xlink:href="#DejaVuSansMono-116"/>
     <use x="180.615234" xlink:href="#DejaVuSansMono-32"/>
     <use x="240.820312" xlink:href="#DejaVuSansMono-82"/>
     <use x="301.025391" xlink:href="#DejaVuSansMono-77"/>
     <use x="361.230469" xlink:href="#DejaVuSansMono-83"/>
     <use x="421.435547" xlink:href="#DejaVuSansMono-69"/>
     <use x="481.640625" xlink:href="#DejaVuSansMono-58"/>
     <use x="541.845703" xlink:href="#DejaVuSansMono-32"/>
     <use x="602.050781" xlink:href="#DejaVuSansMono-48"/>
     <use x="662.255859" xlink:href="#DejaVuSansMono-46"/>
     <use x="722.460938" xlink:href="#DejaVuSansMono-48"/>
     <use x="782.666016" xlink:href="#DejaVuSansMono-49"/>
     <use x="842.871094" xlink:href="#DejaVuSansMono-50"/>
     <use x="903.076172" xlink:href="#DejaVuSansMono-55"/>
     <use x="963.28125" xlink:href="#DejaVuSansMono-52"/>
    </g>
   </g>
   <g id="text_17">
    <!-- ..\Waveformdata\t4_traces\inv_t4_invSim_620_200Traces -->
    <g transform="translate(419.290312 28.56)scale(0.12 -0.12)">
     <defs>
      <path d="M 8.296875 72.90625 
L 33.6875 -9.28125 
L 25.390625 -9.28125 
L 0 72.90625 
z
" id="DejaVuSans-92"/>
      <path d="M 3.328125 72.90625 
L 13.28125 72.90625 
L 28.609375 11.28125 
L 43.890625 72.90625 
L 54.984375 72.90625 
L 70.3125 11.28125 
L 85.59375 72.90625 
L 95.609375 72.90625 
L 77.296875 0 
L 64.890625 0 
L 49.515625 63.28125 
L 33.984375 0 
L 21.578125 0 
z
" id="DejaVuSans-87"/>
      <path d="M 2.984375 54.6875 
L 12.5 54.6875 
L 29.59375 8.796875 
L 46.6875 54.6875 
L 56.203125 54.6875 
L 35.6875 0 
L 23.484375 0 
z
" id="DejaVuSans-118"/>
      <path d="M 37.109375 75.984375 
L 37.109375 68.5 
L 28.515625 68.5 
Q 23.6875 68.5 21.796875 66.546875 
Q 19.921875 64.59375 19.921875 59.515625 
L 19.921875 54.6875 
L 34.71875 54.6875 
L 34.71875 47.703125 
L 19.921875 47.703125 
L 19.921875 0 
L 10.890625 0 
L 10.890625 47.703125 
L 2.296875 47.703125 
L 2.296875 54.6875 
L 10.890625 54.6875 
L 10.890625 58.5 
Q 10.890625 67.625 15.140625 71.796875 
Q 19.390625 75.984375 28.609375 75.984375 
z
" id="DejaVuSans-102"/>
      <path d="M 41.109375 46.296875 
Q 39.59375 47.171875 37.8125 47.578125 
Q 36.03125 48 33.890625 48 
Q 26.265625 48 22.1875 43.046875 
Q 18.109375 38.09375 18.109375 28.8125 
L 18.109375 0 
L 9.078125 0 
L 9.078125 54.6875 
L 18.109375 54.6875 
L 18.109375 46.1875 
Q 20.953125 51.171875 25.484375 53.578125 
Q 30.03125 56 36.53125 56 
Q 37.453125 56 38.578125 55.875 
Q 39.703125 55.765625 41.0625 55.515625 
z
" id="DejaVuSans-114"/>
      <path d="M 45.40625 46.390625 
L 45.40625 75.984375 
L 54.390625 75.984375 
L 54.390625 0 
L 45.40625 0 
L 45.40625 8.203125 
Q 42.578125 3.328125 38.25 0.953125 
Q 33.9375 -1.421875 27.875 -1.421875 
Q 17.96875 -1.421875 11.734375 6.484375 
Q 5.515625 14.40625 5.515625 27.296875 
Q 5.515625 40.1875 11.734375 48.09375 
Q 17.96875 56 27.875 56 
Q 33.9375 56 38.25 53.625 
Q 42.578125 51.265625 45.40625 46.390625 
z
M 14.796875 27.296875 
Q 14.796875 17.390625 18.875 11.75 
Q 22.953125 6.109375 30.078125 6.109375 
Q 37.203125 6.109375 41.296875 11.75 
Q 45.40625 17.390625 45.40625 27.296875 
Q 45.40625 37.203125 41.296875 42.84375 
Q 37.203125 48.484375 30.078125 48.484375 
Q 22.953125 48.484375 18.875 42.84375 
Q 14.796875 37.203125 14.796875 27.296875 
z
" id="DejaVuSans-100"/>
      <path d="M 50.984375 -16.609375 
L 50.984375 -23.578125 
L -0.984375 -23.578125 
L -0.984375 -16.609375 
z
" id="DejaVuSans-95"/>
      <path d="M 48.78125 52.59375 
L 48.78125 44.1875 
Q 44.96875 46.296875 41.140625 47.34375 
Q 37.3125 48.390625 33.40625 48.390625 
Q 24.65625 48.390625 19.8125 42.84375 
Q 14.984375 37.3125 14.984375 27.296875 
Q 14.984375 17.28125 19.8125 11.734375 
Q 24.65625 6.203125 33.40625 6.203125 
Q 37.3125 6.203125 41.140625 7.25 
Q 44.96875 8.296875 48.78125 10.40625 
L 48.78125 2.09375 
Q 45.015625 0.34375 40.984375 -0.53125 
Q 36.96875 -1.421875 32.421875 -1.421875 
Q 20.0625 -1.421875 12.78125 6.34375 
Q 5.515625 14.109375 5.515625 27.296875 
Q 5.515625 40.671875 12.859375 48.328125 
Q 20.21875 56 33.015625 56 
Q 37.15625 56 41.109375 55.140625 
Q 45.0625 54.296875 48.78125 52.59375 
z
" id="DejaVuSans-99"/>
      <path d="M 54.890625 33.015625 
L 54.890625 0 
L 45.90625 0 
L 45.90625 32.71875 
Q 45.90625 40.484375 42.875 44.328125 
Q 39.84375 48.1875 33.796875 48.1875 
Q 26.515625 48.1875 22.3125 43.546875 
Q 18.109375 38.921875 18.109375 30.90625 
L 18.109375 0 
L 9.078125 0 
L 9.078125 54.6875 
L 18.109375 54.6875 
L 18.109375 46.1875 
Q 21.34375 51.125 25.703125 53.5625 
Q 30.078125 56 35.796875 56 
Q 45.21875 56 50.046875 50.171875 
Q 54.890625 44.34375 54.890625 33.015625 
z
" id="DejaVuSans-110"/>
      <path d="M 53.515625 70.515625 
L 53.515625 60.890625 
Q 47.90625 63.578125 42.921875 64.890625 
Q 37.9375 66.21875 33.296875 66.21875 
Q 25.25 66.21875 20.875 63.09375 
Q 16.5 59.96875 16.5 54.203125 
Q 16.5 49.359375 19.40625 46.890625 
Q 22.3125 44.4375 30.421875 42.921875 
L 36.375 41.703125 
Q 47.40625 39.59375 52.65625 34.296875 
Q 57.90625 29 57.90625 20.125 
Q 57.90625 9.515625 50.796875 4.046875 
Q 43.703125 -1.421875 29.984375 -1.421875 
Q 24.8125 -1.421875 18.96875 -0.25 
Q 13.140625 0.921875 6.890625 3.21875 
L 6.890625 13.375 
Q 12.890625 10.015625 18.65625 8.296875 
Q 24.421875 6.59375 29.984375 6.59375 
Q 38.421875 6.59375 43.015625 9.90625 
Q 47.609375 13.234375 47.609375 19.390625 
Q 47.609375 24.75 44.3125 27.78125 
Q 41.015625 30.8125 33.5 32.328125 
L 27.484375 33.5 
Q 16.453125 35.6875 11.515625 40.375 
Q 6.59375 45.0625 6.59375 53.421875 
Q 6.59375 63.09375 13.40625 68.65625 
Q 20.21875 74.21875 32.171875 74.21875 
Q 37.3125 74.21875 42.625 73.28125 
Q 47.953125 72.359375 53.515625 70.515625 
z
" id="DejaVuSans-83"/>
     </defs>
     <use xlink:href="#DejaVuSans-46"/>
     <use x="31.787109" xlink:href="#DejaVuSans-46"/>
     <use x="63.574219" xlink:href="#DejaVuSans-92"/>
     <use x="97.265625" xlink:href="#DejaVuSans-87"/>
     <use x="189.767578" xlink:href="#DejaVuSans-97"/>
     <use x="251.046875" xlink:href="#DejaVuSans-118"/>
     <use x="310.226562" xlink:href="#DejaVuSans-101"/>
     <use x="371.75" xlink:href="#DejaVuSans-102"/>
     <use x="406.955078" xlink:href="#DejaVuSans-111"/>
     <use x="468.136719" xlink:href="#DejaVuSans-114"/>
     <use x="507.5" xlink:href="#DejaVuSans-109"/>
     <use x="604.912109" xlink:href="#DejaVuSans-100"/>
     <use x="668.388672" xlink:href="#DejaVuSans-97"/>
     <use x="729.667969" xlink:href="#DejaVuSans-116"/>
     <use x="768.876953" xlink:href="#DejaVuSans-97"/>
     <use x="830.15625" xlink:href="#DejaVuSans-92"/>
     <use x="863.847656" xlink:href="#DejaVuSans-116"/>
     <use x="903.056641" xlink:href="#DejaVuSans-52"/>
     <use x="966.679688" xlink:href="#DejaVuSans-95"/>
     <use x="1016.679688" xlink:href="#DejaVuSans-116"/>
     <use x="1055.888672" xlink:href="#DejaVuSans-114"/>
     <use x="1097.001953" xlink:href="#DejaVuSans-97"/>
     <use x="1158.28125" xlink:href="#DejaVuSans-99"/>
     <use x="1213.261719" xlink:href="#DejaVuSans-101"/>
     <use x="1274.785156" xlink:href="#DejaVuSans-115"/>
     <use x="1326.884766" xlink:href="#DejaVuSans-92"/>
     <use x="1360.576172" xlink:href="#DejaVuSans-105"/>
     <use x="1388.359375" xlink:href="#DejaVuSans-110"/>
     <use x="1451.738281" xlink:href="#DejaVuSans-118"/>
     <use x="1510.917969" xlink:href="#DejaVuSans-95"/>
     <use x="1560.917969" xlink:href="#DejaVuSans-116"/>
     <use x="1600.126953" xlink:href="#DejaVuSans-52"/>
     <use x="1663.75" xlink:href="#DejaVuSans-95"/>
     <use x="1713.75" xlink:href="#DejaVuSans-105"/>
     <use x="1741.533203" xlink:href="#DejaVuSans-110"/>
     <use x="1804.912109" xlink:href="#DejaVuSans-118"/>
     <use x="1864.091797" xlink:href="#DejaVuSans-83"/>
     <use x="1927.568359" xlink:href="#DejaVuSans-105"/>
     <use x="1955.351562" xlink:href="#DejaVuSans-109"/>
     <use x="2052.763672" xlink:href="#DejaVuSans-95"/>
     <use x="2102.763672" xlink:href="#DejaVuSans-54"/>
     <use x="2166.386719" xlink:href="#DejaVuSans-50"/>
     <use x="2230.009766" xlink:href="#DejaVuSans-48"/>
     <use x="2293.632812" xlink:href="#DejaVuSans-95"/>
     <use x="2343.632812" xlink:href="#DejaVuSans-50"/>
     <use x="2407.255859" xlink:href="#DejaVuSans-48"/>
     <use x="2470.878906" xlink:href="#DejaVuSans-48"/>
     <use x="2534.501953" xlink:href="#DejaVuSans-84"/>
     <use x="2580.835938" xlink:href="#DejaVuSans-114"/>
     <use x="2621.949219" xlink:href="#DejaVuSans-97"/>
     <use x="2683.228516" xlink:href="#DejaVuSans-99"/>
     <use x="2738.208984" xlink:href="#DejaVuSans-101"/>
     <use x="2799.732422" xlink:href="#DejaVuSans-115"/>
    </g>
   </g>
   <g id="legend_1">
    <g id="patch_7">
     <path d="M 151 190.974375 
L 277.9 190.974375 
Q 279.9 190.974375 279.9 188.974375 
L 279.9 101.905625 
Q 279.9 99.905625 277.9 99.905625 
L 151 99.905625 
Q 149 99.905625 149 101.905625 
L 149 188.974375 
Q 149 190.974375 151 190.974375 
z
" style="fill:#ffffff;opacity:0.8;stroke:#cccccc;stroke-linejoin:miter;"/>
    </g>
    <g id="line2d_19">
     <path d="M 153 108.004063 
L 173 108.004063 
" style="fill:none;stroke:#ff0000;stroke-linecap:square;stroke-width:1.5;"/>
    </g>
    <g id="line2d_20"/>
    <g id="text_18">
     <!-- Input -->
     <g transform="translate(181 111.504063)scale(0.1 -0.1)">
      <defs>
       <path d="M 9.8125 72.90625 
L 19.671875 72.90625 
L 19.671875 0 
L 9.8125 0 
z
" id="DejaVuSans-73"/>
       <path d="M 18.109375 8.203125 
L 18.109375 -20.796875 
L 9.078125 -20.796875 
L 9.078125 54.6875 
L 18.109375 54.6875 
L 18.109375 46.390625 
Q 20.953125 51.265625 25.265625 53.625 
Q 29.59375 56 35.59375 56 
Q 45.5625 56 51.78125 48.09375 
Q 58.015625 40.1875 58.015625 27.296875 
Q 58.015625 14.40625 51.78125 6.484375 
Q 45.5625 -1.421875 35.59375 -1.421875 
Q 29.59375 -1.421875 25.265625 0.953125 
Q 20.953125 3.328125 18.109375 8.203125 
z
M 48.6875 27.296875 
Q 48.6875 37.203125 44.609375 42.84375 
Q 40.53125 48.484375 33.40625 48.484375 
Q 26.265625 48.484375 22.1875 42.84375 
Q 18.109375 37.203125 18.109375 27.296875 
Q 18.109375 17.390625 22.1875 11.75 
Q 26.265625 6.109375 33.40625 6.109375 
Q 40.53125 6.109375 44.609375 11.75 
Q 48.6875 17.390625 48.6875 27.296875 
z
" id="DejaVuSans-112"/>
       <path d="M 8.5 21.578125 
L 8.5 54.6875 
L 17.484375 54.6875 
L 17.484375 21.921875 
Q 17.484375 14.15625 20.5 10.265625 
Q 23.53125 6.390625 29.59375 6.390625 
Q 36.859375 6.390625 41.078125 11.03125 
Q 45.3125 15.671875 45.3125 23.6875 
L 45.3125 54.6875 
L 54.296875 54.6875 
L 54.296875 0 
L 45.3125 0 
L 45.3125 8.40625 
Q 42.046875 3.421875 37.71875 1 
Q 33.40625 -1.421875 27.6875 -1.421875 
Q 18.265625 -1.421875 13.375 4.4375 
Q 8.5 10.296875 8.5 21.578125 
z
M 31.109375 56 
z
" id="DejaVuSans-117"/>
      </defs>
      <use xlink:href="#DejaVuSans-73"/>
      <use x="29.492188" xlink:href="#DejaVuSans-110"/>
      <use x="92.871094" xlink:href="#DejaVuSans-112"/>
      <use x="156.347656" xlink:href="#DejaVuSans-117"/>
      <use x="219.726562" xlink:href="#DejaVuSans-116"/>
     </g>
    </g>
    <g id="line2d_21">
     <path d="M 153 122.682188 
L 173 122.682188 
" style="fill:none;stroke:#ff0000;stroke-dasharray:5.55,2.4;stroke-dashoffset:0;stroke-width:1.5;"/>
    </g>
    <g id="line2d_22"/>
    <g id="text_19">
     <!-- Input fitting -->
     <g transform="translate(181 126.182188)scale(0.1 -0.1)">
      <use xlink:href="#DejaVuSans-73"/>
      <use x="29.492188" xlink:href="#DejaVuSans-110"/>
      <use x="92.871094" xlink:href="#DejaVuSans-112"/>
      <use x="156.347656" xlink:href="#DejaVuSans-117"/>
      <use x="219.726562" xlink:href="#DejaVuSans-116"/>
      <use x="258.935547" xlink:href="#DejaVuSans-32"/>
      <use x="290.722656" xlink:href="#DejaVuSans-102"/>
      <use x="325.927734" xlink:href="#DejaVuSans-105"/>
      <use x="353.710938" xlink:href="#DejaVuSans-116"/>
      <use x="392.919922" xlink:href="#DejaVuSans-116"/>
      <use x="432.128906" xlink:href="#DejaVuSans-105"/>
      <use x="459.912109" xlink:href="#DejaVuSans-110"/>
      <use x="523.291016" xlink:href="#DejaVuSans-103"/>
     </g>
    </g>
    <g id="line2d_23">
     <path d="M 153 137.360313 
L 173 137.360313 
" style="fill:none;stroke:#ff0000;stroke-dasharray:9.6,2.4,1.5,2.4;stroke-dashoffset:0;stroke-width:1.5;"/>
    </g>
    <g id="line2d_24"/>
    <g id="text_20">
     <!-- Input fitting error -->
     <g transform="translate(181 140.860313)scale(0.1 -0.1)">
      <use xlink:href="#DejaVuSans-73"/>
      <use x="29.492188" xlink:href="#DejaVuSans-110"/>
      <use x="92.871094" xlink:href="#DejaVuSans-112"/>
      <use x="156.347656" xlink:href="#DejaVuSans-117"/>
      <use x="219.726562" xlink:href="#DejaVuSans-116"/>
      <use x="258.935547" xlink:href="#DejaVuSans-32"/>
      <use x="290.722656" xlink:href="#DejaVuSans-102"/>
      <use x="325.927734" xlink:href="#DejaVuSans-105"/>
      <use x="353.710938" xlink:href="#DejaVuSans-116"/>
      <use x="392.919922" xlink:href="#DejaVuSans-116"/>
      <use x="432.128906" xlink:href="#DejaVuSans-105"/>
      <use x="459.912109" xlink:href="#DejaVuSans-110"/>
      <use x="523.291016" xlink:href="#DejaVuSans-103"/>
      <use x="586.767578" xlink:href="#DejaVuSans-32"/>
      <use x="618.554688" xlink:href="#DejaVuSans-101"/>
      <use x="680.078125" xlink:href="#DejaVuSans-114"/>
      <use x="719.441406" xlink:href="#DejaVuSans-114"/>
      <use x="758.304688" xlink:href="#DejaVuSans-111"/>
      <use x="819.486328" xlink:href="#DejaVuSans-114"/>
     </g>
    </g>
    <g id="line2d_25">
     <path d="M 153 152.038438 
L 173 152.038438 
" style="fill:none;stroke:#008000;stroke-linecap:square;stroke-width:1.5;"/>
    </g>
    <g id="line2d_26"/>
    <g id="text_21">
     <!-- Output -->
     <g transform="translate(181 155.538438)scale(0.1 -0.1)">
      <defs>
       <path d="M 39.40625 66.21875 
Q 28.65625 66.21875 22.328125 58.203125 
Q 16.015625 50.203125 16.015625 36.375 
Q 16.015625 22.609375 22.328125 14.59375 
Q 28.65625 6.59375 39.40625 6.59375 
Q 50.140625 6.59375 56.421875 14.59375 
Q 62.703125 22.609375 62.703125 36.375 
Q 62.703125 50.203125 56.421875 58.203125 
Q 50.140625 66.21875 39.40625 66.21875 
z
M 39.40625 74.21875 
Q 54.734375 74.21875 63.90625 63.9375 
Q 73.09375 53.65625 73.09375 36.375 
Q 73.09375 19.140625 63.90625 8.859375 
Q 54.734375 -1.421875 39.40625 -1.421875 
Q 24.03125 -1.421875 14.8125 8.828125 
Q 5.609375 19.09375 5.609375 36.375 
Q 5.609375 53.65625 14.8125 63.9375 
Q 24.03125 74.21875 39.40625 74.21875 
z
" id="DejaVuSans-79"/>
      </defs>
      <use xlink:href="#DejaVuSans-79"/>
      <use x="78.710938" xlink:href="#DejaVuSans-117"/>
      <use x="142.089844" xlink:href="#DejaVuSans-116"/>
      <use x="181.298828" xlink:href="#DejaVuSans-112"/>
      <use x="244.775391" xlink:href="#DejaVuSans-117"/>
      <use x="308.154297" xlink:href="#DejaVuSans-116"/>
     </g>
    </g>
    <g id="line2d_27">
     <path d="M 153 166.716563 
L 173 166.716563 
" style="fill:none;stroke:#008000;stroke-dasharray:5.55,2.4;stroke-dashoffset:0;stroke-width:1.5;"/>
    </g>
    <g id="line2d_28"/>
    <g id="text_22">
     <!-- Output fitting -->
     <g transform="translate(181 170.216563)scale(0.1 -0.1)">
      <use xlink:href="#DejaVuSans-79"/>
      <use x="78.710938" xlink:href="#DejaVuSans-117"/>
      <use x="142.089844" xlink:href="#DejaVuSans-116"/>
      <use x="181.298828" xlink:href="#DejaVuSans-112"/>
      <use x="244.775391" xlink:href="#DejaVuSans-117"/>
      <use x="308.154297" xlink:href="#DejaVuSans-116"/>
      <use x="347.363281" xlink:href="#DejaVuSans-32"/>
      <use x="379.150391" xlink:href="#DejaVuSans-102"/>
      <use x="414.355469" xlink:href="#DejaVuSans-105"/>
      <use x="442.138672" xlink:href="#DejaVuSans-116"/>
      <use x="481.347656" xlink:href="#DejaVuSans-116"/>
      <use x="520.556641" xlink:href="#DejaVuSans-105"/>
      <use x="548.339844" xlink:href="#DejaVuSans-110"/>
      <use x="611.71875" xlink:href="#DejaVuSans-103"/>
     </g>
    </g>
    <g id="line2d_29">
     <path d="M 153 181.394688 
L 173 181.394688 
" style="fill:none;stroke:#008000;stroke-dasharray:9.6,2.4,1.5,2.4;stroke-dashoffset:0;stroke-width:1.5;"/>
    </g>
    <g id="line2d_30"/>
    <g id="text_23">
     <!-- Output fitting error -->
     <g transform="translate(181 184.894688)scale(0.1 -0.1)">
      <use xlink:href="#DejaVuSans-79"/>
      <use x="78.710938" xlink:href="#DejaVuSans-117"/>
      <use x="142.089844" xlink:href="#DejaVuSans-116"/>
      <use x="181.298828" xlink:href="#DejaVuSans-112"/>
      <use x="244.775391" xlink:href="#DejaVuSans-117"/>
      <use x="308.154297" xlink:href="#DejaVuSans-116"/>
      <use x="347.363281" xlink:href="#DejaVuSans-32"/>
      <use x="379.150391" xlink:href="#DejaVuSans-102"/>
      <use x="414.355469" xlink:href="#DejaVuSans-105"/>
      <use x="442.138672" xlink:href="#DejaVuSans-116"/>
      <use x="481.347656" xlink:href="#DejaVuSans-116"/>
      <use x="520.556641" xlink:href="#DejaVuSans-105"/>
      <use x="548.339844" xlink:href="#DejaVuSans-110"/>
      <use x="611.71875" xlink:href="#DejaVuSans-103"/>
      <use x="675.195312" xlink:href="#DejaVuSans-32"/>
      <use x="706.982422" xlink:href="#DejaVuSans-101"/>
      <use x="768.505859" xlink:href="#DejaVuSans-114"/>
      <use x="807.869141" xlink:href="#DejaVuSans-114"/>
      <use x="846.732422" xlink:href="#DejaVuSans-111"/>
      <use x="907.914062" xlink:href="#DejaVuSans-114"/>
     </g>
    </g>
   </g>
  </g>
 </g>
 <defs>
  <clipPath id="pe131641428">
   <rect height="221.76" width="892.8" x="144" y="34.56"/>
  </clipPath>
 </defs>
</svg>
