<?xml version="1.0" encoding="utf-8" standalone="no"?>
<!DOCTYPE svg PUBLIC "-//W3C//DTD SVG 1.1//EN"
  "http://www.w3.org/Graphics/SVG/1.1/DTD/svg11.dtd">
<!-- Created with matplotlib (http://matplotlib.org/) -->
<svg height="432pt" version="1.1" viewBox="0 0 864 432" width="864pt" xmlns="http://www.w3.org/2000/svg" xmlns:xlink="http://www.w3.org/1999/xlink">
 <defs>
  <style type="text/css">
*{stroke-linecap:butt;stroke-linejoin:round;}
  </style>
 </defs>
 <g id="figure_1">
  <g id="patch_1">
   <path d="M 0 432 
L 864 432 
L 864 0 
L 0 0 
z
" style="fill:#ffffff;"/>
  </g>
  <g id="axes_1">
   <g id="patch_2">
    <path d="M 108 384.48 
L 777.6 384.48 
L 777.6 51.84 
L 108 51.84 
z
" style="fill:#ffffff;"/>
   </g>
   <g id="matplotlib.axis_1">
    <g id="xtick_1">
     <g id="line2d_1">
      <defs>
       <path d="M 0 0 
L 0 3.5 
" id="m3f0478470c" style="stroke:#000000;stroke-width:0.8;"/>
      </defs>
      <g>
       <use style="stroke:#000000;stroke-width:0.8;" x="138.436364" xlink:href="#m3f0478470c" y="384.48"/>
      </g>
     </g>
     <g id="text_1">
      <!-- 0.0 -->
      <defs>
       <path d="M 31.78125 66.40625 
Q 24.171875 66.40625 20.328125 58.90625 
Q 16.5 51.421875 16.5 36.375 
Q 16.5 21.390625 20.328125 13.890625 
Q 24.171875 6.390625 31.78125 6.390625 
Q 39.453125 6.390625 43.28125 13.890625 
Q 47.125 21.390625 47.125 36.375 
Q 47.125 51.421875 43.28125 58.90625 
Q 39.453125 66.40625 31.78125 66.40625 
z
M 31.78125 74.21875 
Q 44.046875 74.21875 50.515625 64.515625 
Q 56.984375 54.828125 56.984375 36.375 
Q 56.984375 17.96875 50.515625 8.265625 
Q 44.046875 -1.421875 31.78125 -1.421875 
Q 19.53125 -1.421875 13.0625 8.265625 
Q 6.59375 17.96875 6.59375 36.375 
Q 6.59375 54.828125 13.0625 64.515625 
Q 19.53125 74.21875 31.78125 74.21875 
z
" id="DejaVuSans-30"/>
       <path d="M 10.6875 12.40625 
L 21 12.40625 
L 21 0 
L 10.6875 0 
z
" id="DejaVuSans-2e"/>
      </defs>
      <g transform="translate(130.484801 399.078438)scale(0.1 -0.1)">
       <use xlink:href="#DejaVuSans-30"/>
       <use x="63.623047" xlink:href="#DejaVuSans-2e"/>
       <use x="95.410156" xlink:href="#DejaVuSans-30"/>
      </g>
     </g>
    </g>
    <g id="xtick_2">
     <g id="line2d_2">
      <g>
       <use style="stroke:#000000;stroke-width:0.8;" x="232.220103" xlink:href="#m3f0478470c" y="384.48"/>
      </g>
     </g>
     <g id="text_2">
      <!-- 0.2 -->
      <defs>
       <path d="M 19.1875 8.296875 
L 53.609375 8.296875 
L 53.609375 0 
L 7.328125 0 
L 7.328125 8.296875 
Q 12.9375 14.109375 22.625 23.890625 
Q 32.328125 33.6875 34.8125 36.53125 
Q 39.546875 41.84375 41.421875 45.53125 
Q 43.3125 49.21875 43.3125 52.78125 
Q 43.3125 58.59375 39.234375 62.25 
Q 35.15625 65.921875 28.609375 65.921875 
Q 23.96875 65.921875 18.8125 64.3125 
Q 13.671875 62.703125 7.8125 59.421875 
L 7.8125 69.390625 
Q 13.765625 71.78125 18.9375 73 
Q 24.125 74.21875 28.421875 74.21875 
Q 39.75 74.21875 46.484375 68.546875 
Q 53.21875 62.890625 53.21875 53.421875 
Q 53.21875 48.921875 51.53125 44.890625 
Q 49.859375 40.875 45.40625 35.40625 
Q 44.1875 33.984375 37.640625 27.21875 
Q 31.109375 20.453125 19.1875 8.296875 
z
" id="DejaVuSans-32"/>
      </defs>
      <g transform="translate(224.26854 399.078438)scale(0.1 -0.1)">
       <use xlink:href="#DejaVuSans-30"/>
       <use x="63.623047" xlink:href="#DejaVuSans-2e"/>
       <use x="95.410156" xlink:href="#DejaVuSans-32"/>
      </g>
     </g>
    </g>
    <g id="xtick_3">
     <g id="line2d_3">
      <g>
       <use style="stroke:#000000;stroke-width:0.8;" x="326.003842" xlink:href="#m3f0478470c" y="384.48"/>
      </g>
     </g>
     <g id="text_3">
      <!-- 0.4 -->
      <defs>
       <path d="M 37.796875 64.3125 
L 12.890625 25.390625 
L 37.796875 25.390625 
z
M 35.203125 72.90625 
L 47.609375 72.90625 
L 47.609375 25.390625 
L 58.015625 25.390625 
L 58.015625 17.1875 
L 47.609375 17.1875 
L 47.609375 0 
L 37.796875 0 
L 37.796875 17.1875 
L 4.890625 17.1875 
L 4.890625 26.703125 
z
" id="DejaVuSans-34"/>
      </defs>
      <g transform="translate(318.052279 399.078438)scale(0.1 -0.1)">
       <use xlink:href="#DejaVuSans-30"/>
       <use x="63.623047" xlink:href="#DejaVuSans-2e"/>
       <use x="95.410156" xlink:href="#DejaVuSans-34"/>
      </g>
     </g>
    </g>
    <g id="xtick_4">
     <g id="line2d_4">
      <g>
       <use style="stroke:#000000;stroke-width:0.8;" x="419.787581" xlink:href="#m3f0478470c" y="384.48"/>
      </g>
     </g>
     <g id="text_4">
      <!-- 0.6 -->
      <defs>
       <path d="M 33.015625 40.375 
Q 26.375 40.375 22.484375 35.828125 
Q 18.609375 31.296875 18.609375 23.390625 
Q 18.609375 15.53125 22.484375 10.953125 
Q 26.375 6.390625 33.015625 6.390625 
Q 39.65625 6.390625 43.53125 10.953125 
Q 47.40625 15.53125 47.40625 23.390625 
Q 47.40625 31.296875 43.53125 35.828125 
Q 39.65625 40.375 33.015625 40.375 
z
M 52.59375 71.296875 
L 52.59375 62.3125 
Q 48.875 64.0625 45.09375 64.984375 
Q 41.3125 65.921875 37.59375 65.921875 
Q 27.828125 65.921875 22.671875 59.328125 
Q 17.53125 52.734375 16.796875 39.40625 
Q 19.671875 43.65625 24.015625 45.921875 
Q 28.375 48.1875 33.59375 48.1875 
Q 44.578125 48.1875 50.953125 41.515625 
Q 57.328125 34.859375 57.328125 23.390625 
Q 57.328125 12.15625 50.6875 5.359375 
Q 44.046875 -1.421875 33.015625 -1.421875 
Q 20.359375 -1.421875 13.671875 8.265625 
Q 6.984375 17.96875 6.984375 36.375 
Q 6.984375 53.65625 15.1875 63.9375 
Q 23.390625 74.21875 37.203125 74.21875 
Q 40.921875 74.21875 44.703125 73.484375 
Q 48.484375 72.75 52.59375 71.296875 
z
" id="DejaVuSans-36"/>
      </defs>
      <g transform="translate(411.836018 399.078438)scale(0.1 -0.1)">
       <use xlink:href="#DejaVuSans-30"/>
       <use x="63.623047" xlink:href="#DejaVuSans-2e"/>
       <use x="95.410156" xlink:href="#DejaVuSans-36"/>
      </g>
     </g>
    </g>
    <g id="xtick_5">
     <g id="line2d_5">
      <g>
       <use style="stroke:#000000;stroke-width:0.8;" x="513.57132" xlink:href="#m3f0478470c" y="384.48"/>
      </g>
     </g>
     <g id="text_5">
      <!-- 0.8 -->
      <defs>
       <path d="M 31.78125 34.625 
Q 24.75 34.625 20.71875 30.859375 
Q 16.703125 27.09375 16.703125 20.515625 
Q 16.703125 13.921875 20.71875 10.15625 
Q 24.75 6.390625 31.78125 6.390625 
Q 38.8125 6.390625 42.859375 10.171875 
Q 46.921875 13.96875 46.921875 20.515625 
Q 46.921875 27.09375 42.890625 30.859375 
Q 38.875 34.625 31.78125 34.625 
z
M 21.921875 38.8125 
Q 15.578125 40.375 12.03125 44.71875 
Q 8.5 49.078125 8.5 55.328125 
Q 8.5 64.0625 14.71875 69.140625 
Q 20.953125 74.21875 31.78125 74.21875 
Q 42.671875 74.21875 48.875 69.140625 
Q 55.078125 64.0625 55.078125 55.328125 
Q 55.078125 49.078125 51.53125 44.71875 
Q 48 40.375 41.703125 38.8125 
Q 48.828125 37.15625 52.796875 32.3125 
Q 56.78125 27.484375 56.78125 20.515625 
Q 56.78125 9.90625 50.3125 4.234375 
Q 43.84375 -1.421875 31.78125 -1.421875 
Q 19.734375 -1.421875 13.25 4.234375 
Q 6.78125 9.90625 6.78125 20.515625 
Q 6.78125 27.484375 10.78125 32.3125 
Q 14.796875 37.15625 21.921875 38.8125 
z
M 18.3125 54.390625 
Q 18.3125 48.734375 21.84375 45.5625 
Q 25.390625 42.390625 31.78125 42.390625 
Q 38.140625 42.390625 41.71875 45.5625 
Q 45.3125 48.734375 45.3125 54.390625 
Q 45.3125 60.0625 41.71875 63.234375 
Q 38.140625 66.40625 31.78125 66.40625 
Q 25.390625 66.40625 21.84375 63.234375 
Q 18.3125 60.0625 18.3125 54.390625 
z
" id="DejaVuSans-38"/>
      </defs>
      <g transform="translate(505.619757 399.078438)scale(0.1 -0.1)">
       <use xlink:href="#DejaVuSans-30"/>
       <use x="63.623047" xlink:href="#DejaVuSans-2e"/>
       <use x="95.410156" xlink:href="#DejaVuSans-38"/>
      </g>
     </g>
    </g>
    <g id="xtick_6">
     <g id="line2d_6">
      <g>
       <use style="stroke:#000000;stroke-width:0.8;" x="607.355059" xlink:href="#m3f0478470c" y="384.48"/>
      </g>
     </g>
     <g id="text_6">
      <!-- 1.0 -->
      <defs>
       <path d="M 12.40625 8.296875 
L 28.515625 8.296875 
L 28.515625 63.921875 
L 10.984375 60.40625 
L 10.984375 69.390625 
L 28.421875 72.90625 
L 38.28125 72.90625 
L 38.28125 8.296875 
L 54.390625 8.296875 
L 54.390625 0 
L 12.40625 0 
z
" id="DejaVuSans-31"/>
      </defs>
      <g transform="translate(599.403496 399.078438)scale(0.1 -0.1)">
       <use xlink:href="#DejaVuSans-31"/>
       <use x="63.623047" xlink:href="#DejaVuSans-2e"/>
       <use x="95.410156" xlink:href="#DejaVuSans-30"/>
      </g>
     </g>
    </g>
    <g id="xtick_7">
     <g id="line2d_7">
      <g>
       <use style="stroke:#000000;stroke-width:0.8;" x="701.138798" xlink:href="#m3f0478470c" y="384.48"/>
      </g>
     </g>
     <g id="text_7">
      <!-- 1.2 -->
      <g transform="translate(693.187235 399.078438)scale(0.1 -0.1)">
       <use xlink:href="#DejaVuSans-31"/>
       <use x="63.623047" xlink:href="#DejaVuSans-2e"/>
       <use x="95.410156" xlink:href="#DejaVuSans-32"/>
      </g>
     </g>
    </g>
    <g id="text_8">
     <!-- Time [s] -->
     <defs>
      <path d="M -0.296875 72.90625 
L 61.375 72.90625 
L 61.375 64.59375 
L 35.5 64.59375 
L 35.5 0 
L 25.59375 0 
L 25.59375 64.59375 
L -0.296875 64.59375 
z
" id="DejaVuSans-54"/>
      <path d="M 9.421875 54.6875 
L 18.40625 54.6875 
L 18.40625 0 
L 9.421875 0 
z
M 9.421875 75.984375 
L 18.40625 75.984375 
L 18.40625 64.59375 
L 9.421875 64.59375 
z
" id="DejaVuSans-69"/>
      <path d="M 52 44.1875 
Q 55.375 50.25 60.0625 53.125 
Q 64.75 56 71.09375 56 
Q 79.640625 56 84.28125 50.015625 
Q 88.921875 44.046875 88.921875 33.015625 
L 88.921875 0 
L 79.890625 0 
L 79.890625 32.71875 
Q 79.890625 40.578125 77.09375 44.375 
Q 74.3125 48.1875 68.609375 48.1875 
Q 61.625 48.1875 57.5625 43.546875 
Q 53.515625 38.921875 53.515625 30.90625 
L 53.515625 0 
L 44.484375 0 
L 44.484375 32.71875 
Q 44.484375 40.625 41.703125 44.40625 
Q 38.921875 48.1875 33.109375 48.1875 
Q 26.21875 48.1875 22.15625 43.53125 
Q 18.109375 38.875 18.109375 30.90625 
L 18.109375 0 
L 9.078125 0 
L 9.078125 54.6875 
L 18.109375 54.6875 
L 18.109375 46.1875 
Q 21.1875 51.21875 25.484375 53.609375 
Q 29.78125 56 35.6875 56 
Q 41.65625 56 45.828125 52.96875 
Q 50 49.953125 52 44.1875 
z
" id="DejaVuSans-6d"/>
      <path d="M 56.203125 29.59375 
L 56.203125 25.203125 
L 14.890625 25.203125 
Q 15.484375 15.921875 20.484375 11.0625 
Q 25.484375 6.203125 34.421875 6.203125 
Q 39.59375 6.203125 44.453125 7.46875 
Q 49.3125 8.734375 54.109375 11.28125 
L 54.109375 2.78125 
Q 49.265625 0.734375 44.1875 -0.34375 
Q 39.109375 -1.421875 33.890625 -1.421875 
Q 20.796875 -1.421875 13.15625 6.1875 
Q 5.515625 13.8125 5.515625 26.8125 
Q 5.515625 40.234375 12.765625 48.109375 
Q 20.015625 56 32.328125 56 
Q 43.359375 56 49.78125 48.890625 
Q 56.203125 41.796875 56.203125 29.59375 
z
M 47.21875 32.234375 
Q 47.125 39.59375 43.09375 43.984375 
Q 39.0625 48.390625 32.421875 48.390625 
Q 24.90625 48.390625 20.390625 44.140625 
Q 15.875 39.890625 15.1875 32.171875 
z
" id="DejaVuSans-65"/>
      <path id="DejaVuSans-20"/>
      <path d="M 8.59375 75.984375 
L 29.296875 75.984375 
L 29.296875 69 
L 17.578125 69 
L 17.578125 -6.203125 
L 29.296875 -6.203125 
L 29.296875 -13.1875 
L 8.59375 -13.1875 
z
" id="DejaVuSans-5b"/>
      <path d="M 44.28125 53.078125 
L 44.28125 44.578125 
Q 40.484375 46.53125 36.375 47.5 
Q 32.28125 48.484375 27.875 48.484375 
Q 21.1875 48.484375 17.84375 46.4375 
Q 14.5 44.390625 14.5 40.28125 
Q 14.5 37.15625 16.890625 35.375 
Q 19.28125 33.59375 26.515625 31.984375 
L 29.59375 31.296875 
Q 39.15625 29.25 43.1875 25.515625 
Q 47.21875 21.78125 47.21875 15.09375 
Q 47.21875 7.46875 41.1875 3.015625 
Q 35.15625 -1.421875 24.609375 -1.421875 
Q 20.21875 -1.421875 15.453125 -0.5625 
Q 10.6875 0.296875 5.421875 2 
L 5.421875 11.28125 
Q 10.40625 8.6875 15.234375 7.390625 
Q 20.0625 6.109375 24.8125 6.109375 
Q 31.15625 6.109375 34.5625 8.28125 
Q 37.984375 10.453125 37.984375 14.40625 
Q 37.984375 18.0625 35.515625 20.015625 
Q 33.0625 21.96875 24.703125 23.78125 
L 21.578125 24.515625 
Q 13.234375 26.265625 9.515625 29.90625 
Q 5.8125 33.546875 5.8125 39.890625 
Q 5.8125 47.609375 11.28125 51.796875 
Q 16.75 56 26.8125 56 
Q 31.78125 56 36.171875 55.265625 
Q 40.578125 54.546875 44.28125 53.078125 
z
" id="DejaVuSans-73"/>
      <path d="M 30.421875 75.984375 
L 30.421875 -13.1875 
L 9.71875 -13.1875 
L 9.71875 -6.203125 
L 21.390625 -6.203125 
L 21.390625 69 
L 9.71875 69 
L 9.71875 75.984375 
z
" id="DejaVuSans-5d"/>
     </defs>
     <g transform="translate(422.317187 412.756563)scale(0.1 -0.1)">
      <use xlink:href="#DejaVuSans-54"/>
      <use x="61.037109" xlink:href="#DejaVuSans-69"/>
      <use x="88.820312" xlink:href="#DejaVuSans-6d"/>
      <use x="186.232422" xlink:href="#DejaVuSans-65"/>
      <use x="247.755859" xlink:href="#DejaVuSans-20"/>
      <use x="279.542969" xlink:href="#DejaVuSans-5b"/>
      <use x="318.556641" xlink:href="#DejaVuSans-73"/>
      <use x="370.65625" xlink:href="#DejaVuSans-5d"/>
     </g>
    </g>
    <g id="text_9">
     <!-- 1e−8 -->
     <defs>
      <path d="M 10.59375 35.5 
L 73.1875 35.5 
L 73.1875 27.203125 
L 10.59375 27.203125 
z
" id="DejaVuSans-2212"/>
     </defs>
     <g transform="translate(750.342188 411.756563)scale(0.1 -0.1)">
      <use xlink:href="#DejaVuSans-31"/>
      <use x="63.623047" xlink:href="#DejaVuSans-65"/>
      <use x="125.146484" xlink:href="#DejaVuSans-2212"/>
      <use x="208.935547" xlink:href="#DejaVuSans-38"/>
     </g>
    </g>
   </g>
   <g id="matplotlib.axis_2">
    <g id="ytick_1">
     <g id="line2d_8">
      <defs>
       <path d="M 0 0 
L -3.5 0 
" id="mcaf72cb8fd" style="stroke:#000000;stroke-width:0.8;"/>
      </defs>
      <g>
       <use style="stroke:#000000;stroke-width:0.8;" x="108" xlink:href="#mcaf72cb8fd" y="368.937626"/>
      </g>
     </g>
     <g id="text_10">
      <!-- 0.0 -->
      <g transform="translate(85.096875 372.736844)scale(0.1 -0.1)">
       <use xlink:href="#DejaVuSans-30"/>
       <use x="63.623047" xlink:href="#DejaVuSans-2e"/>
       <use x="95.410156" xlink:href="#DejaVuSans-30"/>
      </g>
     </g>
    </g>
    <g id="ytick_2">
     <g id="line2d_9">
      <g>
       <use style="stroke:#000000;stroke-width:0.8;" x="108" xlink:href="#mcaf72cb8fd" y="318.699246"/>
      </g>
     </g>
     <g id="text_11">
      <!-- 0.2 -->
      <g transform="translate(85.096875 322.498465)scale(0.1 -0.1)">
       <use xlink:href="#DejaVuSans-30"/>
       <use x="63.623047" xlink:href="#DejaVuSans-2e"/>
       <use x="95.410156" xlink:href="#DejaVuSans-32"/>
      </g>
     </g>
    </g>
    <g id="ytick_3">
     <g id="line2d_10">
      <g>
       <use style="stroke:#000000;stroke-width:0.8;" x="108" xlink:href="#mcaf72cb8fd" y="268.460866"/>
      </g>
     </g>
     <g id="text_12">
      <!-- 0.4 -->
      <g transform="translate(85.096875 272.260085)scale(0.1 -0.1)">
       <use xlink:href="#DejaVuSans-30"/>
       <use x="63.623047" xlink:href="#DejaVuSans-2e"/>
       <use x="95.410156" xlink:href="#DejaVuSans-34"/>
      </g>
     </g>
    </g>
    <g id="ytick_4">
     <g id="line2d_11">
      <g>
       <use style="stroke:#000000;stroke-width:0.8;" x="108" xlink:href="#mcaf72cb8fd" y="218.222486"/>
      </g>
     </g>
     <g id="text_13">
      <!-- 0.6 -->
      <g transform="translate(85.096875 222.021705)scale(0.1 -0.1)">
       <use xlink:href="#DejaVuSans-30"/>
       <use x="63.623047" xlink:href="#DejaVuSans-2e"/>
       <use x="95.410156" xlink:href="#DejaVuSans-36"/>
      </g>
     </g>
    </g>
    <g id="ytick_5">
     <g id="line2d_12">
      <g>
       <use style="stroke:#000000;stroke-width:0.8;" x="108" xlink:href="#mcaf72cb8fd" y="167.984107"/>
      </g>
     </g>
     <g id="text_14">
      <!-- 0.8 -->
      <g transform="translate(85.096875 171.783325)scale(0.1 -0.1)">
       <use xlink:href="#DejaVuSans-30"/>
       <use x="63.623047" xlink:href="#DejaVuSans-2e"/>
       <use x="95.410156" xlink:href="#DejaVuSans-38"/>
      </g>
     </g>
    </g>
    <g id="ytick_6">
     <g id="line2d_13">
      <g>
       <use style="stroke:#000000;stroke-width:0.8;" x="108" xlink:href="#mcaf72cb8fd" y="117.745727"/>
      </g>
     </g>
     <g id="text_15">
      <!-- 1.0 -->
      <g transform="translate(85.096875 121.544946)scale(0.1 -0.1)">
       <use xlink:href="#DejaVuSans-31"/>
       <use x="63.623047" xlink:href="#DejaVuSans-2e"/>
       <use x="95.410156" xlink:href="#DejaVuSans-30"/>
      </g>
     </g>
    </g>
    <g id="ytick_7">
     <g id="line2d_14">
      <g>
       <use style="stroke:#000000;stroke-width:0.8;" x="108" xlink:href="#mcaf72cb8fd" y="67.507347"/>
      </g>
     </g>
     <g id="text_16">
      <!-- 1.2 -->
      <g transform="translate(85.096875 71.306566)scale(0.1 -0.1)">
       <use xlink:href="#DejaVuSans-31"/>
       <use x="63.623047" xlink:href="#DejaVuSans-2e"/>
       <use x="95.410156" xlink:href="#DejaVuSans-32"/>
      </g>
     </g>
    </g>
    <g id="text_17">
     <!-- Voltage [V] -->
     <defs>
      <path d="M 28.609375 0 
L 0.78125 72.90625 
L 11.078125 72.90625 
L 34.1875 11.53125 
L 57.328125 72.90625 
L 67.578125 72.90625 
L 39.796875 0 
z
" id="DejaVuSans-56"/>
      <path d="M 30.609375 48.390625 
Q 23.390625 48.390625 19.1875 42.75 
Q 14.984375 37.109375 14.984375 27.296875 
Q 14.984375 17.484375 19.15625 11.84375 
Q 23.34375 6.203125 30.609375 6.203125 
Q 37.796875 6.203125 41.984375 11.859375 
Q 46.1875 17.53125 46.1875 27.296875 
Q 46.1875 37.015625 41.984375 42.703125 
Q 37.796875 48.390625 30.609375 48.390625 
z
M 30.609375 56 
Q 42.328125 56 49.015625 48.375 
Q 55.71875 40.765625 55.71875 27.296875 
Q 55.71875 13.875 49.015625 6.21875 
Q 42.328125 -1.421875 30.609375 -1.421875 
Q 18.84375 -1.421875 12.171875 6.21875 
Q 5.515625 13.875 5.515625 27.296875 
Q 5.515625 40.765625 12.171875 48.375 
Q 18.84375 56 30.609375 56 
z
" id="DejaVuSans-6f"/>
      <path d="M 9.421875 75.984375 
L 18.40625 75.984375 
L 18.40625 0 
L 9.421875 0 
z
" id="DejaVuSans-6c"/>
      <path d="M 18.3125 70.21875 
L 18.3125 54.6875 
L 36.8125 54.6875 
L 36.8125 47.703125 
L 18.3125 47.703125 
L 18.3125 18.015625 
Q 18.3125 11.328125 20.140625 9.421875 
Q 21.96875 7.515625 27.59375 7.515625 
L 36.8125 7.515625 
L 36.8125 0 
L 27.59375 0 
Q 17.1875 0 13.234375 3.875 
Q 9.28125 7.765625 9.28125 18.015625 
L 9.28125 47.703125 
L 2.6875 47.703125 
L 2.6875 54.6875 
L 9.28125 54.6875 
L 9.28125 70.21875 
z
" id="DejaVuSans-74"/>
      <path d="M 34.28125 27.484375 
Q 23.390625 27.484375 19.1875 25 
Q 14.984375 22.515625 14.984375 16.5 
Q 14.984375 11.71875 18.140625 8.90625 
Q 21.296875 6.109375 26.703125 6.109375 
Q 34.1875 6.109375 38.703125 11.40625 
Q 43.21875 16.703125 43.21875 25.484375 
L 43.21875 27.484375 
z
M 52.203125 31.203125 
L 52.203125 0 
L 43.21875 0 
L 43.21875 8.296875 
Q 40.140625 3.328125 35.546875 0.953125 
Q 30.953125 -1.421875 24.3125 -1.421875 
Q 15.921875 -1.421875 10.953125 3.296875 
Q 6 8.015625 6 15.921875 
Q 6 25.140625 12.171875 29.828125 
Q 18.359375 34.515625 30.609375 34.515625 
L 43.21875 34.515625 
L 43.21875 35.40625 
Q 43.21875 41.609375 39.140625 45 
Q 35.0625 48.390625 27.6875 48.390625 
Q 23 48.390625 18.546875 47.265625 
Q 14.109375 46.140625 10.015625 43.890625 
L 10.015625 52.203125 
Q 14.9375 54.109375 19.578125 55.046875 
Q 24.21875 56 28.609375 56 
Q 40.484375 56 46.34375 49.84375 
Q 52.203125 43.703125 52.203125 31.203125 
z
" id="DejaVuSans-61"/>
      <path d="M 45.40625 27.984375 
Q 45.40625 37.75 41.375 43.109375 
Q 37.359375 48.484375 30.078125 48.484375 
Q 22.859375 48.484375 18.828125 43.109375 
Q 14.796875 37.75 14.796875 27.984375 
Q 14.796875 18.265625 18.828125 12.890625 
Q 22.859375 7.515625 30.078125 7.515625 
Q 37.359375 7.515625 41.375 12.890625 
Q 45.40625 18.265625 45.40625 27.984375 
z
M 54.390625 6.78125 
Q 54.390625 -7.171875 48.1875 -13.984375 
Q 42 -20.796875 29.203125 -20.796875 
Q 24.46875 -20.796875 20.265625 -20.09375 
Q 16.0625 -19.390625 12.109375 -17.921875 
L 12.109375 -9.1875 
Q 16.0625 -11.328125 19.921875 -12.34375 
Q 23.78125 -13.375 27.78125 -13.375 
Q 36.625 -13.375 41.015625 -8.765625 
Q 45.40625 -4.15625 45.40625 5.171875 
L 45.40625 9.625 
Q 42.625 4.78125 38.28125 2.390625 
Q 33.9375 0 27.875 0 
Q 17.828125 0 11.671875 7.65625 
Q 5.515625 15.328125 5.515625 27.984375 
Q 5.515625 40.671875 11.671875 48.328125 
Q 17.828125 56 27.875 56 
Q 33.9375 56 38.28125 53.609375 
Q 42.625 51.21875 45.40625 46.390625 
L 45.40625 54.6875 
L 54.390625 54.6875 
z
" id="DejaVuSans-67"/>
     </defs>
     <g transform="translate(79.017187 246.209219)rotate(-90)scale(0.1 -0.1)">
      <use xlink:href="#DejaVuSans-56"/>
      <use x="68.298828" xlink:href="#DejaVuSans-6f"/>
      <use x="129.480469" xlink:href="#DejaVuSans-6c"/>
      <use x="157.263672" xlink:href="#DejaVuSans-74"/>
      <use x="196.472656" xlink:href="#DejaVuSans-61"/>
      <use x="257.751953" xlink:href="#DejaVuSans-67"/>
      <use x="321.228516" xlink:href="#DejaVuSans-65"/>
      <use x="382.751953" xlink:href="#DejaVuSans-20"/>
      <use x="414.539062" xlink:href="#DejaVuSans-5b"/>
      <use x="453.552734" xlink:href="#DejaVuSans-56"/>
      <use x="521.960938" xlink:href="#DejaVuSans-5d"/>
     </g>
    </g>
   </g>
   <g id="line2d_15">
    <path clip-path="url(#pb65cce4f67)" d="M 138.436364 368.937604 
L 202.878828 369.048545 
L 208.698109 369.241675 
L 209.298325 368.940899 
L 209.818825 368.422832 
L 210.320568 367.589338 
L 210.836379 366.27037 
L 211.385013 364.214522 
L 211.989919 361.017663 
L 212.660472 356.194337 
L 213.420121 349.006842 
L 214.301688 338.405677 
L 215.370822 322.675011 
L 216.786957 298.274682 
L 219.351942 249.432678 
L 222.578103 189.293896 
L 224.449745 158.379081 
L 225.936217 137.33023 
L 227.249189 121.759924 
L 228.463689 109.898241 
L 229.621918 100.703864 
L 230.719188 93.679533 
L 231.80239 88.116889 
L 232.843389 83.841603 
L 233.870321 80.468096 
L 234.911321 77.744422 
L 235.928874 75.628632 
L 236.979252 73.894404 
L 238.189062 72.338521 
L 239.389494 71.154654 
L 240.744669 70.139336 
L 242.301479 69.269961 
L 244.064614 68.543011 
L 246.868748 67.758288 
L 248.350531 67.63219 
L 248.950747 67.808024 
L 249.443111 68.168484 
L 249.944854 68.836655 
L 250.446597 69.916277 
L 250.967097 71.591476 
L 251.548556 74.273703 
L 252.181596 78.30885 
L 252.917799 84.578097 
L 253.747785 93.706913 
L 254.695001 106.687757 
L 255.834473 125.576157 
L 257.213094 152.376549 
L 259.074701 193.292695 
L 263.931714 302.1405 
L 265.094632 322.114451 
L 266.08874 335.572735 
L 266.998442 345.02223 
L 267.856564 351.73453 
L 268.68186 356.530672 
L 269.488401 359.976671 
L 270.285562 362.458507 
L 271.087413 364.260857 
L 271.908021 365.576972 
L 272.766142 366.544278 
L 273.708669 367.274274 
L 274.810628 367.840965 
L 276.208006 368.298535 
L 278.182153 368.694479 
L 281.1973 369.056998 
L 282.327394 369.020052 
L 282.979191 368.781773 
L 283.513759 368.34568 
L 284.015502 367.635443 
L 284.526623 366.498911 
L 285.06588 364.714864 
L 285.652028 361.946011 
L 286.299136 357.740058 
L 287.02596 351.45892 
L 287.860635 342.184508 
L 288.859432 328.416479 
L 290.130202 307.565642 
L 292.057457 271.803929 
L 296.685685 185.076434 
L 298.490975 155.719888 
L 299.949312 135.442673 
L 301.248217 120.343679 
L 302.453338 108.821381 
L 303.588121 99.996759 
L 304.704148 93.004581 
L 305.806107 87.493431 
L 306.875241 83.242008 
L 307.944376 79.869505 
L 309.036956 77.154874 
L 310.115469 75.052398 
L 311.259631 73.310382 
L 312.41786 71.943647 
L 313.740211 70.75551 
L 314.940643 69.932856 
L 316.652196 69.05268 
L 318.696682 68.297094 
L 320.703654 67.768587 
L 322.101031 67.582202 
L 322.926328 67.736685 
L 323.446828 68.080567 
L 323.967328 68.73668 
L 324.478449 69.800729 
L 325.003638 71.453069 
L 325.56634 73.989103 
L 326.20407 77.965722 
L 326.902759 83.777046 
L 327.713988 92.468789 
L 328.661204 105.170809 
L 329.763163 123.101239 
L 331.108959 148.846826 
L 332.886161 187.454795 
L 338.236524 306.567757 
L 339.357239 325.02466 
L 340.33259 337.608721 
L 341.228225 346.441962 
L 342.076968 352.732983 
L 342.897575 357.244944 
L 343.704116 360.498773 
L 344.501277 362.837232 
L 345.303128 364.532777 
L 346.128425 365.775102 
L 346.995784 366.688075 
L 347.947689 367.369506 
L 349.054337 367.88375 
L 350.432958 368.269505 
L 352.313322 368.550076 
L 355.248753 368.73987 
L 369.832125 369.207043 
L 370.422962 368.891622 
L 370.938773 368.355723 
L 371.440516 367.493428 
L 371.956326 366.135879 
L 372.50965 364.008459 
L 373.11826 360.7166 
L 373.793503 355.7593 
L 374.562529 348.348943 
L 375.458164 337.404376 
L 376.550745 321.116616 
L 378.01846 295.590948 
L 380.921067 240.217226 
L 383.828363 186.624856 
L 385.666524 156.625234 
L 387.13424 136.127322 
L 388.428455 121.025464 
L 389.61013 109.720397 
L 390.726157 101.111799 
L 391.785913 94.613967 
L 392.812845 89.668501 
L 393.797574 85.981507 
L 394.763547 83.201315 
L 395.654492 81.256587 
L 396.484478 79.934062 
L 397.164411 79.239265 
L 397.680221 79.013443 
L 398.097559 79.078753 
L 398.486761 79.38797 
L 398.885342 80.001883 
L 399.354261 81.17721 
L 399.860693 83.078984 
L 400.442152 86.168896 
L 401.117395 91.061863 
L 401.881733 98.335878 
L 402.7633 108.975111 
L 403.813678 124.594072 
L 405.051623 146.573388 
L 406.617811 178.631428 
L 409.101814 234.754229 
L 411.737138 292.906711 
L 413.017286 316.399936 
L 414.058285 331.647962 
L 414.991433 342.228768 
L 415.863622 349.726987 
L 416.698297 355.085633 
L 417.514216 358.949392 
L 418.316067 361.722259 
L 419.117918 363.729471 
L 419.929147 365.185022 
L 420.773201 366.256634 
L 421.687592 367.061661 
L 422.728592 367.67918 
L 424.00874 368.171891 
L 425.73905 368.585678 
L 428.379062 368.967705 
L 429.931183 369.024571 
L 430.643939 368.835325 
L 431.197263 368.45768 
L 431.703696 367.830761 
L 432.210128 366.825784 
L 432.740006 365.242161 
L 433.312087 362.775989 
L 433.940438 359.014661 
L 434.643816 353.36741 
L 435.445667 345.013966 
L 436.388193 332.715804 
L 437.565179 314.223785 
L 439.225151 284.26674 
L 445.297649 171.72566 
L 446.924796 146.797075 
L 448.308107 128.857778 
L 449.560119 115.377238 
L 450.727727 105.078873 
L 451.857821 97.004058 
L 452.969158 90.636092 
L 454.061739 85.65144 
L 455.173076 81.644678 
L 456.27738 78.520102 
L 457.31369 76.209639 
L 458.406271 74.288775 
L 459.541054 72.730883 
L 460.633634 71.560077 
L 461.796553 70.592235 
L 463.37212 69.630421 
L 465.163389 68.889656 
L 467.189118 68.354869 
L 469.30863 68.014252 
L 471.221819 67.819327 
L 479.723315 67.019532 
L 480.525165 67.173011 
L 481.050354 67.488005 
L 481.519273 68.005461 
L 482.002259 68.8673 
L 482.51807 70.268197 
L 483.09484 72.56811 
L 483.713813 76.055156 
L 484.412501 81.398259 
L 485.186217 89.123666 
L 486.081852 100.395651 
L 487.150987 116.889163 
L 488.426446 140.287085 
L 490.044215 174.360035 
L 492.768633 237.307067 
L 495.197631 291.522618 
L 496.482469 315.465326 
L 497.523468 330.963414 
L 498.456616 341.729298 
L 499.328805 349.364946 
L 500.16817 354.851299 
L 500.984088 358.782706 
L 501.785939 361.604422 
L 502.58779 363.646793 
L 503.399019 365.127032 
L 504.238384 366.209621 
L 505.138708 367.012877 
L 506.146883 367.613692 
L 507.352004 368.066965 
L 508.911628 368.404589 
L 511.14837 368.643786 
L 515.06853 368.806005 
L 528.56401 369.25085 
L 530.810131 369.316677 
L 531.50882 369.104961 
L 532.057454 368.702441 
L 532.559197 368.047408 
L 533.06563 366.996138 
L 533.595508 365.347277 
L 534.167589 362.791492 
L 534.800629 358.879093 
L 535.513385 352.985659 
L 536.329304 344.254058 
L 537.290587 331.416012 
L 538.500397 312.054793 
L 540.249464 280.099968 
L 545.735813 177.789885 
L 547.442677 150.869147 
L 548.858811 131.880396 
L 550.13427 117.63897 
L 551.34408 106.579242 
L 552.483553 98.153261 
L 553.604878 91.502453 
L 554.664634 86.479118 
L 555.794728 82.234477 
L 556.929512 78.904426 
L 558.022092 76.401048 
L 559.086538 74.484956 
L 560.183807 72.931334 
L 561.43582 71.56485 
L 562.884779 70.395552 
L 564.164927 69.638962 
L 565.974953 68.889154 
L 568.024128 68.34683 
L 570.575046 67.913524 
L 573.712112 67.4659 
L 576.71788 67.095392 
L 577.636961 67.156432 
L 578.293447 67.446056 
L 578.799879 67.932866 
L 579.306312 68.763809 
L 579.803366 70.025044 
L 580.347311 72.040859 
L 580.942838 75.154382 
L 581.613392 79.934564 
L 582.37304 87.068665 
L 583.245229 97.497399 
L 584.253404 112.358414 
L 585.453836 133.507139 
L 586.959065 164.210903 
L 589.162983 214.247927 
L 592.586089 291.724527 
L 593.870926 315.62958 
L 594.911926 331.0922 
L 595.845074 341.827815 
L 596.717263 349.438998 
L 597.551938 354.879975 
L 598.367857 358.803718 
L 599.169708 361.619695 
L 599.971559 363.657785 
L 600.782788 365.134859 
L 601.620746 366.213625 
L 602.52107 367.015621 
L 603.529245 367.615488 
L 604.734366 368.068055 
L 606.295865 368.405391 
L 606.61473 368.452488 
L 606.61473 368.452488 
" style="fill:none;stroke:#ff0000;stroke-linecap:square;stroke-width:1.5;"/>
   </g>
   <g id="line2d_16">
    <path clip-path="url(#pb65cce4f67)" d="M 138.436364 67.507347 
L 212.712053 67.396572 
L 217.823267 66.960251 
L 218.662632 67.071278 
L 219.258158 67.378988 
L 219.802104 67.957985 
L 220.28509 68.819825 
L 220.800901 70.22022 
L 221.349536 72.386247 
L 221.954441 75.72936 
L 222.634373 80.815494 
L 223.412778 88.439419 
L 224.30438 99.499399 
L 225.350069 115.421448 
L 226.578636 137.659969 
L 228.154202 170.470253 
L 230.634782 227.474085 
L 233.424849 290.325991 
L 234.723753 314.723104 
L 235.774131 330.503909 
L 236.711969 341.424803 
L 237.588847 349.171644 
L 238.428211 354.708117 
L 239.24413 358.677768 
L 240.045981 361.52816 
L 240.847831 363.591928 
L 241.659061 365.087977 
L 242.498425 366.182246 
L 243.39406 366.990681 
L 244.397546 367.59679 
L 245.597978 368.055071 
L 247.14541 368.395951 
L 249.414976 368.647634 
L 258.544823 369.24444 
L 259.238823 369.036125 
L 259.786473 368.637879 
L 260.292905 367.97986 
L 260.799337 366.93128 
L 261.329215 365.286762 
L 261.901296 362.737722 
L 262.534336 358.835145 
L 263.247093 352.954946 
L 264.058322 344.295781 
L 265.019605 331.488757 
L 266.224727 312.23854 
L 267.964415 280.495897 
L 273.497655 177.356981 
L 275.19983 150.561713 
L 276.615965 131.616594 
L 277.886734 117.461126 
L 279.049653 106.811846 
L 280.189125 98.332612 
L 281.305152 91.665477 
L 282.402421 86.443197 
L 283.466867 82.419605 
L 284.507866 79.294025 
L 285.647339 76.612551 
L 286.786811 74.543986 
L 287.846568 73.049645 
L 289.04231 71.75249 
L 290.130202 70.857745 
L 291.382214 70.120496 
L 292.301295 69.846195 
L 292.873376 69.894926 
L 293.37043 70.16973 
L 293.844038 70.720092 
L 294.303578 71.608808 
L 294.828767 73.162682 
L 295.391469 75.593466 
L 296.029199 79.448256 
L 296.751334 85.340967 
L 297.562563 93.93374 
L 298.509732 106.520463 
L 299.635137 124.736448 
L 300.980933 150.406426 
L 302.758135 188.907839 
L 308.056916 306.551405 
L 309.177632 324.999365 
L 310.152983 337.583501 
L 311.048618 346.419972 
L 311.90205 352.744892 
L 312.722657 357.252899 
L 313.529198 360.504131 
L 314.326359 362.840872 
L 315.12821 364.535261 
L 315.953507 365.776785 
L 316.821007 366.689302 
L 317.772912 367.370254 
L 318.87956 367.884112 
L 320.258181 368.269562 
L 322.147923 368.551798 
L 325.73984 368.812988 
L 332.947121 369.179385 
L 333.556715 368.890998 
L 334.077215 368.392676 
L 334.578958 367.58597 
L 335.094768 366.303685 
L 335.643403 364.297011 
L 336.243619 361.192756 
L 336.909484 356.496859 
L 337.664443 349.476161 
L 338.536632 339.141418 
L 339.591699 323.803691 
L 340.979698 300.095949 
L 343.361805 254.913836 
L 346.826973 190.083769 
L 348.707337 158.935295 
L 350.198499 137.740351 
L 351.51616 122.049599 
L 352.73066 110.135115 
L 353.879511 100.96234 
L 355.014294 93.672249 
L 356.092807 88.133216 
L 357.138496 83.838337 
L 358.231076 80.275934 
L 359.290832 77.55025 
L 360.434994 75.24883 
L 361.541642 73.516862 
L 362.849925 71.949425 
L 364.144141 70.789923 
L 365.288302 70.012735 
L 366.774775 69.265188 
L 368.350342 68.710808 
L 370.854367 68.154669 
L 377.15565 67.254397 
L 379.458041 67.119004 
L 380.114527 67.335532 
L 380.620959 67.730908 
L 381.089878 68.366423 
L 381.600999 69.462374 
L 382.126188 71.14762 
L 382.712336 73.845421 
L 383.350066 77.906943 
L 384.067511 83.991062 
L 384.897498 93.061853 
L 385.849402 106.046715 
L 386.988875 124.874051 
L 388.367496 151.607802 
L 390.229103 192.424375 
L 395.026141 299.564201 
L 396.221884 320.263945 
L 397.230059 334.082841 
L 398.14914 343.791433 
L 399.01195 350.679383 
L 399.841936 355.614352 
L 400.653166 359.164746 
L 401.455017 361.724241 
L 402.261557 363.586658 
L 403.086854 364.952446 
L 403.954353 365.967269 
L 404.887501 366.720196 
L 405.867542 367.231587 
L 406.706906 367.437016 
L 407.33868 367.375343 
L 407.863869 367.100873 
L 408.351545 366.585387 
L 408.843909 365.721495 
L 409.364409 364.323565 
L 409.922422 362.141875 
L 410.536706 358.782208 
L 411.221327 353.719026 
L 411.995043 346.229162 
L 412.895367 335.201172 
L 413.992636 318.825269 
L 415.465041 293.212738 
L 418.419229 236.907069 
L 421.260876 184.702636 
L 423.066213 155.401452 
L 424.52924 135.109568 
L 425.828144 120.057446 
L 427.033265 108.575464 
L 428.177427 99.720699 
L 429.298143 92.746104 
L 430.40948 87.236461 
L 431.487993 82.997849 
L 432.557128 79.674832 
L 433.565303 77.193056 
L 434.625059 75.133282 
L 435.722329 73.471648 
L 436.814909 72.193583 
L 437.799639 71.300345 
L 438.934422 70.53019 
L 439.928529 70.122506 
L 440.575637 70.09588 
L 441.100826 70.320194 
L 441.546299 70.764301 
L 441.987083 71.508834 
L 442.479447 72.791169 
L 443.023393 74.878071 
L 443.61892 78.101114 
L 444.280095 82.94535 
L 445.039743 90.222128 
L 445.911932 100.803838 
L 446.952932 116.352868 
L 448.17212 138.089834 
L 449.714863 169.82881 
L 452.068834 223.467172 
L 455.069914 290.974593 
L 456.366474 315.184745 
L 457.412163 330.792403 
L 458.35 341.639472 
L 459.226878 349.329664 
L 460.066243 354.823407 
L 460.882161 358.761267 
L 461.684012 361.588271 
L 462.485863 363.634847 
L 463.297093 365.118351 
L 464.136457 366.20347 
L 465.032092 367.005246 
L 466.040267 367.608784 
L 467.245388 368.064121 
L 468.802198 368.402778 
L 471.029562 368.64247 
L 474.926276 368.805065 
L 488.023175 369.243254 
L 490.358391 369.3151 
L 491.05239 369.104266 
L 491.601025 368.702134 
L 492.102768 368.047707 
L 492.6092 366.997368 
L 493.139078 365.349872 
L 493.715848 362.771374 
L 494.353578 358.819081 
L 495.066334 352.907666 
L 495.882253 344.15592 
L 496.848225 331.22817 
L 498.062725 311.755096 
L 499.82117 279.5904 
L 505.24187 178.447581 
L 506.953423 151.36829 
L 508.37706 132.208276 
L 509.652519 117.909906 
L 510.843573 106.954272 
L 511.959599 98.612691 
L 513.070936 91.922949 
L 514.163517 86.675299 
L 515.218584 82.641659 
L 516.250205 79.498244 
L 517.380299 76.786878 
L 518.515082 74.673098 
L 519.574839 73.127263 
L 520.775271 71.763794 
L 521.891297 70.785653 
L 523.354323 69.827104 
L 524.99085 69.076292 
L 526.753984 68.533466 
L 529.759753 68.002698 
L 535.353953 67.514883 
L 537.407817 67.293834 
L 540.802788 67.041135 
L 541.506166 67.265198 
L 542.017287 67.66384 
L 542.528409 68.372452 
L 543.030152 69.482469 
L 543.550652 71.189318 
L 544.132111 73.908219 
L 544.783908 78.124726 
L 545.515421 84.4417 
L 546.345407 93.662704 
L 547.297312 106.814609 
L 548.441474 125.908635 
L 549.829473 153.0354 
L 551.714526 194.627906 
L 556.441836 300.824305 
L 557.618822 321.272908 
L 558.617619 334.974145 
L 559.527321 344.566782 
L 560.385442 351.393557 
L 561.215428 356.302266 
L 562.021969 359.809591 
L 562.82382 362.35003 
L 563.625671 364.183106 
L 564.441589 365.515211 
L 565.295021 366.495018 
L 566.22348 367.225651 
L 567.283236 367.774177 
L 568.582141 368.187812 
L 570.312451 368.492009 
L 572.905571 368.701529 
L 578.148083 368.855432 
L 583.324945 369.076669 
L 587.906281 369.274817 
L 588.553388 369.026142 
L 589.087956 368.57685 
L 589.589699 367.848671 
L 590.10082 366.685806 
L 590.640077 364.863554 
L 591.226225 362.040946 
L 591.878022 357.727499 
L 592.609535 351.298147 
L 593.453589 341.774638 
L 594.461764 327.696688 
L 595.75598 306.250452 
L 597.762952 268.783221 
L 602.094354 187.48441 
L 603.937204 157.243116 
L 605.409609 136.550229 
L 606.61473 122.271929 
L 606.61473 122.271929 
" style="fill:none;stroke:#008000;stroke-linecap:square;stroke-width:1.5;"/>
   </g>
   <g id="line2d_17">
    <path clip-path="url(#pb65cce4f67)" d="M 138.436364 368.937626 
L 192.736117 368.827209 
L 196.881358 368.590148 
L 199.441654 368.232698 
L 201.331397 367.750262 
L 202.855382 367.131026 
L 204.13553 366.369458 
L 205.29376 365.410344 
L 206.33007 364.256889 
L 207.305421 362.83578 
L 208.280772 360.994759 
L 209.195163 358.784515 
L 210.109555 355.986374 
L 211.023946 352.460702 
L 211.938337 348.044762 
L 212.913688 342.14591 
L 213.889039 334.784347 
L 214.86439 325.718361 
L 215.9007 313.979778 
L 216.99797 299.003288 
L 218.217159 279.284445 
L 219.741145 250.69778 
L 225.157812 144.994807 
L 226.43796 126.395085 
L 227.596189 112.66606 
L 228.693459 102.202337 
L 229.729769 94.323994 
L 230.76608 88.098623 
L 231.74143 83.491687 
L 232.716781 79.874033 
L 233.692132 77.053381 
L 234.667483 74.867668 
L 235.703793 73.092833 
L 236.740104 71.757941 
L 237.837373 70.715169 
L 238.995603 69.934111 
L 240.214791 69.38918 
L 241.494939 69.066777 
L 242.775087 68.973871 
L 243.994276 69.105295 
L 245.091546 69.439281 
L 246.127856 69.994427 
L 247.042247 70.73863 
L 247.895679 71.717086 
L 248.749111 73.054892 
L 249.541584 74.715089 
L 250.334057 76.894035 
L 251.126529 79.7344 
L 251.919002 83.411247 
L 252.711474 88.133584 
L 253.564906 94.664685 
L 254.418339 103.015175 
L 255.33273 114.351887 
L 256.308081 129.533016 
L 257.344391 149.352056 
L 258.56358 177.162403 
L 260.569567 229.140688 
L 262.459309 276.022826 
L 263.678498 301.075015 
L 264.775768 319.163166 
L 265.751119 331.783497 
L 266.66551 340.997245 
L 267.579902 348.081292 
L 268.494293 353.437882 
L 269.347725 357.201407 
L 270.201157 360.030586 
L 271.054589 362.131664 
L 271.908021 363.66795 
L 272.761453 364.765281 
L 273.614885 365.518069 
L 274.468317 365.994906 
L 275.382709 366.253179 
L 276.2971 366.285347 
L 277.272451 366.089529 
L 278.247802 365.655798 
L 279.223153 364.964058 
L 280.137544 364.045953 
L 281.051936 362.816473 
L 281.966327 361.208279 
L 282.880719 359.134396 
L 283.79511 356.486131 
L 284.709501 353.131382 
L 285.623893 348.914122 
L 286.538284 343.656191 
L 287.513635 336.681186 
L 288.488986 328.058394 
L 289.525296 316.842738 
L 290.622566 302.451428 
L 291.841755 283.362465 
L 293.304781 256.591501 
L 295.621239 209.186817 
L 297.873362 164.678285 
L 299.330339 140.225653 
L 300.549528 123.262233 
L 301.707757 110.143066 
L 302.805027 100.195406 
L 303.841337 92.734345 
L 304.877648 86.855868 
L 305.852999 82.51527 
L 306.828349 79.112486 
L 307.8037 76.46295 
L 308.779051 74.412196 
L 309.815361 72.748855 
L 310.851672 71.49958 
L 311.948942 70.52582 
L 313.107171 69.799584 
L 314.326359 69.298024 
L 315.606507 69.010498 
L 316.886655 68.945922 
L 318.105844 69.1017 
L 319.203114 69.457969 
L 320.178465 69.994777 
L 321.092856 70.744969 
L 321.946288 71.728314 
L 322.79972 73.070141 
L 323.592193 74.732935 
L 324.384665 76.912801 
L 325.177138 79.751556 
L 325.969611 83.423058 
L 326.762083 88.134725 
L 327.615515 94.646131 
L 328.468947 102.965733 
L 329.383339 114.253986 
L 330.35869 129.363827 
L 331.395 149.086525 
L 332.614188 176.768598 
L 334.56489 227.121791 
L 336.515592 275.559563 
L 337.734781 300.651414 
L 338.83205 318.809691 
L 339.807401 331.508905 
L 340.782752 341.343712 
L 341.697144 348.386007 
L 342.611535 353.730011 
L 343.464967 357.506547 
L 344.318399 360.372072 
L 345.171831 362.533542 
L 346.086223 364.255381 
L 346.995784 365.510989 
L 347.971135 366.484744 
L 349.007445 367.213678 
L 350.226634 367.789627 
L 351.628701 368.200291 
L 353.396524 368.477096 
L 355.652023 368.59501 
L 358.273279 368.506061 
L 360.589737 368.213303 
L 362.41852 367.768069 
L 363.942506 367.168512 
L 365.222654 366.424869 
L 366.380883 365.48427 
L 367.417193 364.349899 
L 368.392544 362.949297 
L 369.367895 361.131408 
L 370.282287 358.945141 
L 371.196678 356.172793 
L 372.111069 352.673924 
L 373.024476 348.289715 
L 373.938868 342.82521 
L 374.914219 335.583825 
L 375.889569 326.642845 
L 376.92588 315.033784 
L 378.023149 300.177097 
L 379.242338 280.549883 
L 380.705364 253.197136 
L 383.509498 195.263252 
L 385.399241 158.919906 
L 386.740348 137.110587 
L 387.959537 120.758766 
L 389.056806 108.862504 
L 390.093117 99.88827 
L 391.068468 93.220685 
L 392.043818 88.052463 
L 392.95821 84.388012 
L 393.811642 81.872913 
L 394.543155 80.346177 
L 395.213709 79.424734 
L 395.762344 79.001054 
L 396.250019 78.87342 
L 396.737695 78.984457 
L 397.22537 79.342764 
L 397.774005 80.057906 
L 398.383599 81.270706 
L 399.054153 83.167748 
L 399.785666 86.000943 
L 400.517179 89.754449 
L 401.309652 95.032501 
L 402.163084 102.362826 
L 403.016516 111.665819 
L 403.930907 124.096883 
L 404.967218 141.489981 
L 406.125447 164.997718 
L 407.643477 200.896892 
L 410.874327 278.791204 
L 412.093516 302.355846 
L 413.190785 319.475765 
L 414.227096 332.198258 
L 415.202447 341.469792 
L 416.116838 348.162581 
L 417.03123 353.279063 
L 417.945621 357.13765 
L 418.799053 359.843768 
L 419.652485 361.870612 
L 420.505917 363.361772 
L 421.359349 364.428542 
L 422.212781 365.154637 
L 423.066213 365.600599 
L 423.919645 365.807527 
L 424.834037 365.791578 
L 425.748428 365.541035 
L 426.66282 365.050402 
L 427.577211 364.297567 
L 428.491603 363.24359 
L 429.405994 361.831683 
L 430.320385 359.985615 
L 431.234777 357.607785 
L 432.149168 354.577421 
L 433.06356 350.749556 
L 433.977951 345.955772 
L 434.953302 339.565687 
L 435.928653 331.621375 
L 436.964963 321.216928 
L 438.062233 307.749304 
L 439.220462 290.660903 
L 440.56157 267.371113 
L 442.329393 232.365777 
L 445.804081 162.751002 
L 447.206148 139.451481 
L 448.425336 122.630683 
L 449.583565 109.638122 
L 450.680835 99.795136 
L 451.717145 92.416681 
L 452.753456 86.604784 
L 453.728807 82.313027 
L 454.704158 78.946801 
L 455.677164 76.32811 
L 456.652515 74.290808 
L 457.688825 72.63054 
L 458.725135 71.37188 
L 459.822405 70.372172 
L 461.041594 69.561136 
L 462.382701 68.933182 
L 463.967646 68.439098 
L 465.918348 68.074168 
L 468.356725 67.855924 
L 471.0999 67.833876 
L 473.416358 68.02242 
L 475.184182 68.380191 
L 476.525289 68.864939 
L 477.683518 69.519236 
L 478.658869 70.319512 
L 479.573261 71.3605 
L 480.426693 72.67611 
L 481.280125 74.434149 
L 482.072597 76.58431 
L 482.86507 79.376923 
L 483.657542 82.984734 
L 484.450015 87.614188 
L 485.303447 94.015981 
L 486.156879 102.205453 
L 487.07127 113.336509 
L 487.985662 127.239233 
L 489.021972 146.565891 
L 490.241161 173.881956 
L 492.008984 219.281969 
L 494.203524 274.463772 
L 495.422712 299.807047 
L 496.519982 318.18016 
L 497.495333 331.042353 
L 498.470684 341.008154 
L 499.385075 348.14528 
L 500.299467 353.560798 
L 501.152899 357.387047 
L 502.006331 360.289511 
L 502.859763 362.478279 
L 503.774154 364.221593 
L 504.688546 365.498755 
L 505.663897 366.483817 
L 506.700207 367.222682 
L 507.912831 367.80702 
L 509.314898 368.2327 
L 511.143681 368.541619 
L 513.582058 368.713872 
L 516.873867 368.713901 
L 519.982798 368.507255 
L 522.299256 368.145616 
L 524.06708 367.656387 
L 525.530106 367.025178 
L 526.749295 366.267124 
L 527.846565 365.333023 
L 528.882875 364.156754 
L 529.858226 362.708035 
L 530.833577 360.832068 
L 531.747968 358.581013 
L 532.66236 355.732836 
L 533.576751 352.146491 
L 534.491142 347.657974 
L 535.466493 341.667642 
L 536.441844 334.200067 
L 537.417195 325.01517 
L 538.453505 313.140628 
L 539.611735 297.100544 
L 540.891883 276.000965 
L 542.476828 245.776863 
L 547.292623 150.870368 
L 548.63373 130.436311 
L 549.791959 115.965578 
L 550.889229 104.857045 
L 551.925539 96.446137 
L 552.966305 89.74444 
L 553.99877 84.535052 
L 554.974121 80.687209 
L 555.949471 77.678284 
L 556.924822 75.338331 
L 557.961133 73.428153 
L 558.997443 71.978432 
L 560.094713 70.826565 
L 561.252942 69.932497 
L 562.53309 69.227355 
L 563.996116 68.682131 
L 565.70298 68.290704 
L 567.714642 68.066254 
L 569.848222 68.05497 
L 571.677005 68.254718 
L 573.20099 68.638568 
L 574.420179 69.16619 
L 575.456489 69.844315 
L 576.43184 70.756949 
L 577.285272 71.85464 
L 578.138704 73.32683 
L 578.931177 75.133199 
L 579.723649 77.487086 
L 580.516122 80.539865 
L 581.308595 84.475686 
L 582.101067 89.512221 
L 582.954499 96.451155 
L 583.807931 105.284279 
L 584.722323 117.212686 
L 585.697673 133.078063 
L 586.794943 154.933019 
L 588.136051 186.686035 
L 592.403211 292.073755 
L 593.500481 311.991973 
L 594.536791 326.929389 
L 595.512142 337.846135 
L 596.426533 345.720742 
L 597.340925 351.727897 
L 598.255316 356.25163 
L 599.108748 359.430283 
L 599.96218 361.83208 
L 600.876572 363.748331 
L 601.784867 365.146446 
L 602.760218 366.235128 
L 603.796528 367.053665 
L 604.954758 367.680083 
L 606.295865 368.150787 
L 608.002635 368.504743 
L 610.380053 368.749468 
L 614.159538 368.887632 
L 623.303452 368.935603 
L 747.163636 368.937626 
L 747.163636 368.937626 
" style="fill:none;stroke:#ff0000;stroke-dasharray:5.55,2.4;stroke-dashoffset:0;stroke-width:1.5;"/>
   </g>
   <g id="line2d_18">
    <path clip-path="url(#pb65cce4f67)" d="M 138.436364 67.507347 
L 207.732137 67.617664 
L 211.023946 67.857731 
L 213.035607 68.216853 
L 214.498634 68.691728 
L 215.717822 69.321182 
L 216.754132 70.110902 
L 217.668524 71.085518 
L 218.521956 72.316567 
L 219.375388 73.961972 
L 220.167861 75.975858 
L 220.960333 78.594471 
L 221.752806 81.982793 
L 222.545278 86.33945 
L 223.39871 92.380252 
L 224.24342 100.045993 
L 225.096853 109.82506 
L 226.011244 122.90991 
L 226.986595 140.099131 
L 228.144824 164.787197 
L 229.66881 202.762752 
L 232.655822 278.26443 
L 233.87501 302.934151 
L 234.911321 319.787091 
L 235.886672 332.307869 
L 236.801063 341.446523 
L 237.715455 348.476985 
L 238.629846 353.803043 
L 239.483278 357.55943 
L 240.33671 360.402645 
L 241.190142 362.540024 
L 242.104534 364.233852 
L 243.018925 365.464034 
L 243.994276 366.398041 
L 245.030586 367.077104 
L 246.188815 367.560168 
L 247.468963 367.849582 
L 248.93199 367.946194 
L 250.455976 367.825345 
L 251.919002 367.495046 
L 253.260109 366.971407 
L 254.479298 366.256156 
L 255.576568 365.353525 
L 256.612878 364.203892 
L 257.588229 362.779266 
L 258.50262 361.057902 
L 259.411338 358.880952 
L 260.325729 356.105178 
L 261.240121 352.603067 
L 262.154512 348.21161 
L 263.068904 342.746429 
L 264.044255 335.508631 
L 265.019605 326.577683 
L 266.055916 314.988552 
L 267.153186 300.165214 
L 268.372374 280.589841 
L 269.8354 253.31331 
L 272.578575 196.74591 
L 274.468317 160.228508 
L 275.870384 137.26359 
L 277.089573 120.789428 
L 278.186842 108.730179 
L 279.284112 99.065417 
L 280.320422 91.849361 
L 281.356733 86.193395 
L 282.332084 82.045541 
L 283.307435 78.826421 
L 284.282785 76.361305 
L 285.197177 74.608644 
L 286.111568 73.302897 
L 287.02596 72.376539 
L 287.879392 71.814017 
L 288.671864 71.534659 
L 289.464337 71.486061 
L 290.19585 71.654596 
L 290.927363 72.047119 
L 291.658877 72.694166 
L 292.39039 73.639661 
L 293.121903 74.943009 
L 293.914375 76.848915 
L 294.706848 79.391273 
L 295.499321 82.726949 
L 296.291793 87.046106 
L 297.145225 93.05267 
L 297.989232 100.670789 
L 298.842664 110.385565 
L 299.757055 123.359788 
L 300.793366 141.539371 
L 301.951595 166.140845 
L 303.475581 203.78248 
L 306.401633 276.972316 
L 307.620822 301.612877 
L 308.718092 319.430054 
L 309.693443 331.895798 
L 310.668794 341.560474 
L 311.583185 348.491275 
L 312.497576 353.7591 
L 313.411968 357.716603 
L 314.2654 360.492471 
L 315.118832 362.585866 
L 316.033223 364.250555 
L 316.947615 365.464076 
L 317.922966 366.38914 
L 318.959276 367.064836 
L 320.117505 367.548459 
L 321.397653 367.841417 
L 322.86068 367.944313 
L 324.384665 367.832272 
L 325.908651 367.49528 
L 327.249759 366.975821 
L 328.468947 366.266825 
L 329.566217 365.372805 
L 330.602527 364.23508 
L 331.577878 362.826369 
L 332.553229 360.99684 
L 333.46762 358.797638 
L 334.382012 356.011767 
L 335.296403 352.500525 
L 336.210795 348.102101 
L 337.186146 342.226348 
L 338.161497 334.893369 
L 339.136847 325.862081 
L 340.173158 314.167067 
L 341.270428 299.242946 
L 342.489616 279.585797 
L 344.013602 251.070267 
L 349.434161 145.311688 
L 350.714309 126.670815 
L 351.872539 112.899718 
L 352.969808 102.395971 
L 354.006119 94.481846 
L 355.042429 88.223601 
L 356.078739 83.333836 
L 357.05409 79.745404 
L 358.029441 76.944192 
L 359.004792 74.768739 
L 360.041102 72.9948 
L 361.077413 71.649686 
L 362.174682 70.581733 
L 363.332911 69.753375 
L 364.674019 69.075014 
L 366.198005 68.563655 
L 367.965828 68.208695 
L 370.038449 68.021804 
L 372.172029 68.04815 
L 373.999827 68.283611 
L 375.462853 68.688103 
L 376.682042 69.255091 
L 377.718352 69.982235 
L 378.632744 70.889232 
L 379.486176 72.042041 
L 380.339608 73.589639 
L 381.13208 75.490286 
L 381.924553 77.968942 
L 382.717026 81.185341 
L 383.509498 85.333128 
L 384.301971 90.639929 
L 385.155403 97.945412 
L 386.008835 107.229979 
L 386.923226 119.733109 
L 387.898577 136.289144 
L 388.995847 158.93929 
L 390.397914 193.063444 
L 394.05548 284.921802 
L 395.213709 307.208093 
L 396.250019 323.063059 
L 397.22537 334.669983 
L 398.139761 343.008591 
L 398.993193 348.933274 
L 399.846626 353.388101 
L 400.639098 356.452892 
L 401.431571 358.67675 
L 402.163084 360.111955 
L 402.833638 360.986378 
L 403.443232 361.460467 
L 404.052826 361.658021 
L 404.601461 361.614787 
L 405.211055 361.330516 
L 405.82065 360.799863 
L 406.491203 359.925418 
L 407.216761 358.617023 
L 408.009234 356.717773 
L 408.862666 354.052689 
L 409.716098 350.645383 
L 410.630489 346.030141 
L 411.544881 340.245265 
L 412.520232 332.571323 
L 413.495583 323.121721 
L 414.531893 310.919164 
L 415.690122 294.487205 
L 416.97027 272.981325 
L 418.616175 241.168291 
L 422.883335 156.383053 
L 424.224442 135.035405 
L 425.443631 119.036544 
L 426.540901 107.360445 
L 427.63817 98.021925 
L 428.674481 91.05981 
L 429.710791 85.60964 
L 430.686142 81.618321 
L 431.661493 78.527297 
L 432.636844 76.169538 
L 433.551235 74.505497 
L 434.465627 73.283195 
L 435.319059 72.486811 
L 436.172491 71.990356 
L 436.964963 71.785149 
L 437.696476 71.815925 
L 438.42799 72.070755 
L 439.159503 72.573558 
L 439.891016 73.361101 
L 440.622529 74.484884 
L 441.354042 76.013367 
L 442.146515 78.22836 
L 442.938988 81.162555 
L 443.73146 84.98935 
L 444.523933 89.915117 
L 445.377365 96.719027 
L 446.230797 105.385755 
L 447.145188 117.085027 
L 448.120539 132.635587 
L 449.217809 154.052667 
L 450.497957 183.699003 
L 455.130874 295.806377 
L 456.225799 314.743646 
L 457.262109 328.922328 
L 458.23746 339.267995 
L 459.151851 346.730926 
L 460.066243 352.430423 
L 460.980634 356.730655 
L 461.895026 359.945452 
L 462.809417 362.332213 
L 463.723809 364.094994 
L 464.6382 365.391753 
L 465.613551 366.396143 
L 466.649861 367.152823 
L 467.86905 367.756692 
L 469.271117 368.195907 
L 471.03894 368.508735 
L 473.416358 368.690147 
L 476.525289 368.698546 
L 479.573261 368.497657 
L 481.889719 368.133276 
L 483.657542 367.638433 
L 485.120569 366.999419 
L 486.339757 366.231822 
L 487.437027 365.285949 
L 488.473337 364.094939 
L 489.448688 362.628243 
L 490.424039 360.729309 
L 491.338431 358.45116 
L 492.252822 355.569419 
L 493.167214 351.94192 
L 494.081605 347.403604 
L 495.056956 341.349706 
L 496.032307 333.807438 
L 497.068617 323.895716 
L 498.104927 311.787609 
L 499.263157 295.477456 
L 500.543305 274.101384 
L 502.12825 243.635408 
L 506.700207 153.197999 
L 508.03475 132.458142 
L 509.253938 116.921874 
L 510.351208 105.628462 
L 511.387518 97.064171 
L 512.423829 90.257738 
L 513.460139 84.918399 
L 514.43549 80.987937 
L 515.410841 77.912376 
L 516.386192 75.519149 
L 517.422502 73.564205 
L 518.458812 72.079253 
L 519.556082 70.897839 
L 520.714311 69.978582 
L 521.994459 69.249733 
L 523.457486 68.678599 
L 525.225309 68.239811 
L 527.419848 67.938205 
L 530.102063 67.799572 
L 532.845238 67.873462 
L 534.917858 68.133586 
L 536.502804 68.544271 
L 537.782952 69.102053 
L 538.880221 69.829292 
L 539.855572 70.756438 
L 540.709004 71.867755 
L 541.562436 73.355513 
L 542.354909 75.179104 
L 543.147382 77.553979 
L 543.939854 80.632735 
L 544.732327 84.600843 
L 545.524799 89.677306 
L 546.378231 96.669099 
L 547.231663 105.566054 
L 548.146055 117.574395 
L 549.121406 133.53445 
L 550.218675 155.496994 
L 551.559783 187.356811 
L 555.766593 291.431834 
L 556.863863 311.481672 
L 557.900173 326.535114 
L 558.875524 337.545311 
L 559.789916 345.491307 
L 560.704307 351.554661 
L 561.618699 356.121197 
L 562.472131 359.329672 
L 563.325563 361.753309 
L 564.239954 363.685823 
L 565.154345 365.102263 
L 566.129696 366.19436 
L 567.166007 367.012111 
L 568.324236 367.63258 
L 569.665343 368.089313 
L 571.311248 368.404017 
L 573.383869 368.565446 
L 575.883205 368.535018 
L 578.260623 368.295389 
L 580.211325 367.885021 
L 581.79627 367.32857 
L 583.137377 366.621356 
L 584.295607 365.761615 
L 585.331917 364.725945 
L 586.307268 363.448484 
L 587.282619 361.79174 
L 588.19701 359.80028 
L 589.111402 357.275334 
L 590.025793 354.087763 
L 590.940185 350.085389 
L 591.854576 345.093861 
L 592.829927 338.462544 
L 593.805278 330.243939 
L 594.841588 319.515248 
L 595.938858 305.680471 
L 597.097087 288.20632 
L 598.438194 264.529714 
L 600.327937 226.707497 
L 603.430772 164.550461 
L 604.893798 140.041044 
L 606.112987 123.119765 
L 607.271216 110.034859 
L 608.368392 100.113853 
L 609.404702 92.671026 
L 610.441012 86.805155 
L 611.416363 82.471575 
L 612.391714 79.071271 
L 613.367065 76.419577 
L 614.342416 74.361557 
L 615.378726 72.68381 
L 616.415037 71.411292 
L 617.512306 70.399822 
L 618.731495 69.578067 
L 620.072602 68.939766 
L 621.657548 68.433234 
L 623.608249 68.04806 
L 626.229505 67.769607 
L 630.191868 67.595122 
L 638.046256 67.517363 
L 682.119924 67.507347 
L 747.163636 67.507347 
L 747.163636 67.507347 
" style="fill:none;stroke:#008000;stroke-dasharray:5.55,2.4;stroke-dashoffset:0;stroke-width:1.5;"/>
   </g>
   <g id="patch_3">
    <path d="M 108 384.48 
L 108 51.84 
" style="fill:none;stroke:#000000;stroke-linecap:square;stroke-linejoin:miter;stroke-width:0.8;"/>
   </g>
   <g id="patch_4">
    <path d="M 777.6 384.48 
L 777.6 51.84 
" style="fill:none;stroke:#000000;stroke-linecap:square;stroke-linejoin:miter;stroke-width:0.8;"/>
   </g>
   <g id="patch_5">
    <path d="M 108 384.48 
L 777.6 384.48 
" style="fill:none;stroke:#000000;stroke-linecap:square;stroke-linejoin:miter;stroke-width:0.8;"/>
   </g>
   <g id="patch_6">
    <path d="M 108 51.84 
L 777.6 51.84 
" style="fill:none;stroke:#000000;stroke-linecap:square;stroke-linejoin:miter;stroke-width:0.8;"/>
   </g>
   <g id="text_18">
    <!-- In  RMSE: 0.21283 -->
    <defs>
     <path d="M 9.8125 72.90625 
L 50.296875 72.90625 
L 50.296875 64.59375 
L 35.015625 64.59375 
L 35.015625 8.296875 
L 50.296875 8.296875 
L 50.296875 0 
L 9.8125 0 
L 9.8125 8.296875 
L 25.09375 8.296875 
L 25.09375 64.59375 
L 9.8125 64.59375 
z
" id="DejaVuSansMono-49"/>
     <path d="M 51.3125 33.890625 
L 51.3125 0 
L 42.28125 0 
L 42.28125 33.890625 
Q 42.28125 41.265625 39.6875 44.71875 
Q 37.109375 48.1875 31.59375 48.1875 
Q 25.296875 48.1875 21.890625 43.71875 
Q 18.5 39.265625 18.5 30.90625 
L 18.5 0 
L 9.515625 0 
L 9.515625 54.6875 
L 18.5 54.6875 
L 18.5 46.484375 
Q 20.90625 51.171875 25 53.578125 
Q 29.109375 56 34.71875 56 
Q 43.0625 56 47.1875 50.5 
Q 51.3125 45.015625 51.3125 33.890625 
z
" id="DejaVuSansMono-6e"/>
     <path id="DejaVuSansMono-20"/>
     <path d="M 37.109375 34.421875 
Q 40.921875 33.453125 43.609375 30.734375 
Q 46.296875 28.03125 50.296875 19.921875 
L 60.203125 0 
L 49.609375 0 
L 40.921875 18.40625 
Q 37.15625 26.265625 34.15625 28.53125 
Q 31.15625 30.8125 26.3125 30.8125 
L 16.890625 30.8125 
L 16.890625 0 
L 6.984375 0 
L 6.984375 72.90625 
L 27.296875 72.90625 
Q 39.3125 72.90625 45.703125 67.484375 
Q 52.09375 62.0625 52.09375 51.8125 
Q 52.09375 44.578125 48.15625 40.015625 
Q 44.234375 35.453125 37.109375 34.421875 
z
M 16.890625 64.796875 
L 16.890625 38.921875 
L 27.6875 38.921875 
Q 34.765625 38.921875 38.234375 42.09375 
Q 41.703125 45.265625 41.703125 51.8125 
Q 41.703125 58.109375 38.015625 61.453125 
Q 34.328125 64.796875 27.296875 64.796875 
z
" id="DejaVuSansMono-52"/>
     <path d="M 4.203125 72.90625 
L 17.390625 72.90625 
L 29.984375 35.796875 
L 42.671875 72.90625 
L 55.90625 72.90625 
L 55.90625 0 
L 46.78125 0 
L 46.78125 64.40625 
L 33.796875 25.984375 
L 26.3125 25.984375 
L 13.28125 64.40625 
L 13.28125 0 
L 4.203125 0 
z
" id="DejaVuSansMono-4d"/>
     <path d="M 49.421875 70.40625 
L 49.421875 60.40625 
Q 44.921875 63.28125 40.40625 64.75 
Q 35.890625 66.21875 31.296875 66.21875 
Q 24.3125 66.21875 20.265625 62.96875 
Q 16.21875 59.71875 16.21875 54.203125 
Q 16.21875 49.359375 18.875 46.8125 
Q 21.53125 44.28125 28.8125 42.578125 
L 33.984375 41.40625 
Q 44.234375 39.015625 48.921875 33.890625 
Q 53.609375 28.765625 53.609375 19.921875 
Q 53.609375 9.515625 47.15625 4.046875 
Q 40.71875 -1.421875 28.421875 -1.421875 
Q 23.296875 -1.421875 18.109375 -0.3125 
Q 12.9375 0.78125 7.71875 2.984375 
L 7.71875 13.484375 
Q 13.328125 9.90625 18.328125 8.25 
Q 23.34375 6.59375 28.421875 6.59375 
Q 35.890625 6.59375 40.03125 9.9375 
Q 44.1875 13.28125 44.1875 19.28125 
Q 44.1875 24.75 41.328125 27.625 
Q 38.484375 30.515625 31.390625 32.078125 
L 26.125 33.296875 
Q 15.96875 35.59375 11.375 40.234375 
Q 6.78125 44.875 6.78125 52.6875 
Q 6.78125 62.453125 13.34375 68.328125 
Q 19.921875 74.21875 30.8125 74.21875 
Q 35.015625 74.21875 39.640625 73.265625 
Q 44.28125 72.3125 49.421875 70.40625 
z
" id="DejaVuSansMono-53"/>
     <path d="M 9.625 72.90625 
L 52.875 72.90625 
L 52.875 64.59375 
L 19.484375 64.59375 
L 19.484375 43.015625 
L 51.421875 43.015625 
L 51.421875 34.71875 
L 19.484375 34.71875 
L 19.484375 8.296875 
L 53.8125 8.296875 
L 53.8125 0 
L 9.625 0 
z
" id="DejaVuSansMono-45"/>
     <path d="M 23.875 51.90625 
L 36.1875 51.90625 
L 36.1875 37.109375 
L 23.875 37.109375 
z
M 23.875 14.890625 
L 36.1875 14.890625 
L 36.1875 0 
L 23.875 0 
z
" id="DejaVuSansMono-3a"/>
     <path d="M 23.578125 36.625 
Q 23.578125 39.3125 25.453125 41.265625 
Q 27.34375 43.21875 29.984375 43.21875 
Q 32.71875 43.21875 34.671875 41.265625 
Q 36.625 39.3125 36.625 36.625 
Q 36.625 33.890625 34.6875 31.984375 
Q 32.765625 30.078125 29.984375 30.078125 
Q 27.25 30.078125 25.40625 31.9375 
Q 23.578125 33.796875 23.578125 36.625 
z
M 30.078125 66.40625 
Q 23.1875 66.40625 19.796875 58.984375 
Q 16.40625 51.5625 16.40625 36.375 
Q 16.40625 21.234375 19.796875 13.8125 
Q 23.1875 6.390625 30.078125 6.390625 
Q 37.015625 6.390625 40.40625 13.8125 
Q 43.796875 21.234375 43.796875 36.375 
Q 43.796875 51.5625 40.40625 58.984375 
Q 37.015625 66.40625 30.078125 66.40625 
z
M 30.078125 74.21875 
Q 41.75 74.21875 47.734375 64.640625 
Q 53.71875 55.078125 53.71875 36.375 
Q 53.71875 17.71875 47.734375 8.140625 
Q 41.75 -1.421875 30.078125 -1.421875 
Q 18.40625 -1.421875 12.453125 8.140625 
Q 6.5 17.71875 6.5 36.375 
Q 6.5 55.078125 12.453125 64.640625 
Q 18.40625 74.21875 30.078125 74.21875 
z
" id="DejaVuSansMono-30"/>
     <path d="M 23.875 14.890625 
L 36.1875 14.890625 
L 36.1875 0 
L 23.875 0 
z
" id="DejaVuSansMono-2e"/>
     <path d="M 18.21875 8.296875 
L 51.703125 8.296875 
L 51.703125 0 
L 7.421875 0 
L 7.421875 8.296875 
Q 16.546875 17.921875 23.375 25.296875 
Q 30.21875 32.671875 32.8125 35.6875 
Q 37.703125 41.65625 39.40625 45.34375 
Q 41.109375 49.03125 41.109375 52.875 
Q 41.109375 58.984375 37.515625 62.453125 
Q 33.9375 65.921875 27.6875 65.921875 
Q 23.25 65.921875 18.359375 64.3125 
Q 13.484375 62.703125 8.015625 59.421875 
L 8.015625 69.390625 
Q 13.03125 71.78125 17.890625 73 
Q 22.75 74.21875 27.484375 74.21875 
Q 38.1875 74.21875 44.703125 68.53125 
Q 51.21875 62.84375 51.21875 53.609375 
Q 51.21875 48.921875 49.046875 44.234375 
Q 46.875 39.546875 42 33.890625 
Q 39.265625 30.71875 34.0625 25.09375 
Q 28.859375 19.484375 18.21875 8.296875 
z
" id="DejaVuSansMono-32"/>
     <path d="M 13.1875 8.296875 
L 28.515625 8.296875 
L 28.515625 64.015625 
L 12.015625 60.296875 
L 12.015625 69.28125 
L 28.421875 72.90625 
L 38.28125 72.90625 
L 38.28125 8.296875 
L 53.421875 8.296875 
L 53.421875 0 
L 13.1875 0 
z
" id="DejaVuSansMono-31"/>
     <path d="M 30.078125 34.625 
Q 23.484375 34.625 19.890625 30.9375 
Q 16.3125 27.25 16.3125 20.515625 
Q 16.3125 13.765625 19.9375 10.03125 
Q 23.578125 6.296875 30.078125 6.296875 
Q 36.71875 6.296875 40.296875 9.984375 
Q 43.890625 13.671875 43.890625 20.515625 
Q 43.890625 27.203125 40.25 30.90625 
Q 36.625 34.625 30.078125 34.625 
z
M 21.484375 38.71875 
Q 15.1875 40.328125 11.640625 44.71875 
Q 8.109375 49.125 8.109375 55.328125 
Q 8.109375 64.015625 14.015625 69.109375 
Q 19.921875 74.21875 30.078125 74.21875 
Q 40.28125 74.21875 46.1875 69.109375 
Q 52.09375 64.015625 52.09375 55.328125 
Q 52.09375 49.125 48.546875 44.71875 
Q 45.015625 40.328125 38.71875 38.71875 
Q 46.046875 37.109375 49.921875 32.21875 
Q 53.8125 27.34375 53.8125 19.578125 
Q 53.8125 9.71875 47.515625 4.140625 
Q 41.21875 -1.421875 30.078125 -1.421875 
Q 18.953125 -1.421875 12.671875 4.125 
Q 6.390625 9.671875 6.390625 19.484375 
Q 6.390625 27.296875 10.265625 32.203125 
Q 14.15625 37.109375 21.484375 38.71875 
z
M 17.921875 54.390625 
Q 17.921875 48.53125 21.046875 45.453125 
Q 24.171875 42.390625 30.078125 42.390625 
Q 36.03125 42.390625 39.15625 45.453125 
Q 42.28125 48.53125 42.28125 54.390625 
Q 42.28125 60.359375 39.171875 63.484375 
Q 36.078125 66.609375 30.078125 66.609375 
Q 24.171875 66.609375 21.046875 63.453125 
Q 17.921875 60.296875 17.921875 54.390625 
z
" id="DejaVuSansMono-38"/>
     <path d="M 37.890625 39.015625 
Q 45.0625 37.109375 48.875 32.25 
Q 52.6875 27.390625 52.6875 20.125 
Q 52.6875 10.0625 45.921875 4.3125 
Q 39.15625 -1.421875 27.203125 -1.421875 
Q 22.171875 -1.421875 16.9375 -0.484375 
Q 11.71875 0.4375 6.6875 2.203125 
L 6.6875 12.015625 
Q 11.671875 9.421875 16.5 8.15625 
Q 21.34375 6.890625 26.125 6.890625 
Q 34.234375 6.890625 38.578125 10.546875 
Q 42.921875 14.203125 42.921875 21.09375 
Q 42.921875 27.4375 38.578125 31.171875 
Q 34.234375 34.90625 26.8125 34.90625 
L 19.28125 34.90625 
L 19.28125 43.015625 
L 26.8125 43.015625 
Q 33.59375 43.015625 37.40625 45.984375 
Q 41.21875 48.96875 41.21875 54.296875 
Q 41.21875 59.90625 37.671875 62.90625 
Q 34.125 65.921875 27.59375 65.921875 
Q 23.25 65.921875 18.609375 64.9375 
Q 13.96875 63.96875 8.890625 62.015625 
L 8.890625 71.09375 
Q 14.796875 72.65625 19.40625 73.4375 
Q 24.03125 74.21875 27.59375 74.21875 
Q 38.234375 74.21875 44.609375 68.875 
Q 50.984375 63.53125 50.984375 54.6875 
Q 50.984375 48.6875 47.625 44.671875 
Q 44.28125 40.671875 37.890625 39.015625 
z
" id="DejaVuSansMono-33"/>
    </defs>
    <g transform="translate(138.436364 282.318493)scale(0.1 -0.1)">
     <use xlink:href="#DejaVuSansMono-49"/>
     <use x="60.205078" xlink:href="#DejaVuSansMono-6e"/>
     <use x="120.410156" xlink:href="#DejaVuSansMono-20"/>
     <use x="180.615234" xlink:href="#DejaVuSansMono-20"/>
     <use x="240.820312" xlink:href="#DejaVuSansMono-52"/>
     <use x="301.025391" xlink:href="#DejaVuSansMono-4d"/>
     <use x="361.230469" xlink:href="#DejaVuSansMono-53"/>
     <use x="421.435547" xlink:href="#DejaVuSansMono-45"/>
     <use x="481.640625" xlink:href="#DejaVuSansMono-3a"/>
     <use x="541.845703" xlink:href="#DejaVuSansMono-20"/>
     <use x="602.050781" xlink:href="#DejaVuSansMono-30"/>
     <use x="662.255859" xlink:href="#DejaVuSansMono-2e"/>
     <use x="722.460938" xlink:href="#DejaVuSansMono-32"/>
     <use x="782.666016" xlink:href="#DejaVuSansMono-31"/>
     <use x="842.871094" xlink:href="#DejaVuSansMono-32"/>
     <use x="903.076172" xlink:href="#DejaVuSansMono-38"/>
     <use x="963.28125" xlink:href="#DejaVuSansMono-33"/>
    </g>
    <!-- Out RMSE: 0.22453 -->
    <defs>
     <path d="M 44.1875 36.375 
Q 44.1875 52.4375 40.890625 59.328125 
Q 37.59375 66.21875 30.078125 66.21875 
Q 22.609375 66.21875 19.3125 59.328125 
Q 16.015625 52.4375 16.015625 36.375 
Q 16.015625 20.359375 19.3125 13.46875 
Q 22.609375 6.59375 30.078125 6.59375 
Q 37.59375 6.59375 40.890625 13.453125 
Q 44.1875 20.3125 44.1875 36.375 
z
M 54.5 36.375 
Q 54.5 17.328125 48.46875 7.953125 
Q 42.4375 -1.421875 30.078125 -1.421875 
Q 17.71875 -1.421875 11.71875 7.90625 
Q 5.71875 17.234375 5.71875 36.375 
Q 5.71875 55.46875 11.75 64.84375 
Q 17.78125 74.21875 30.078125 74.21875 
Q 42.4375 74.21875 48.46875 64.84375 
Q 54.5 55.46875 54.5 36.375 
z
" id="DejaVuSansMono-4f"/>
     <path d="M 9.515625 20.703125 
L 9.515625 54.59375 
L 18.5 54.59375 
L 18.5 20.703125 
Q 18.5 13.328125 21.109375 9.859375 
Q 23.734375 6.390625 29.203125 6.390625 
Q 35.546875 6.390625 38.90625 10.859375 
Q 42.28125 15.328125 42.28125 23.6875 
L 42.28125 54.59375 
L 51.3125 54.59375 
L 51.3125 0 
L 42.28125 0 
L 42.28125 8.203125 
Q 39.890625 3.46875 35.765625 1.015625 
Q 31.640625 -1.421875 26.125 -1.421875 
Q 17.71875 -1.421875 13.609375 4.078125 
Q 9.515625 9.578125 9.515625 20.703125 
z
" id="DejaVuSansMono-75"/>
     <path d="M 29.984375 70.21875 
L 29.984375 54.6875 
L 50.390625 54.6875 
L 50.390625 47.703125 
L 29.984375 47.703125 
L 29.984375 18.015625 
Q 29.984375 11.96875 32.28125 9.5625 
Q 34.578125 7.171875 40.28125 7.171875 
L 50.390625 7.171875 
L 50.390625 0 
L 39.40625 0 
Q 29.296875 0 25.140625 4.046875 
Q 21 8.109375 21 18.015625 
L 21 47.703125 
L 6.390625 47.703125 
L 6.390625 54.6875 
L 21 54.6875 
L 21 70.21875 
z
" id="DejaVuSansMono-74"/>
     <path d="M 35.890625 63.921875 
L 12.890625 25.390625 
L 35.890625 25.390625 
z
M 34.28125 72.90625 
L 45.703125 72.90625 
L 45.703125 25.390625 
L 55.421875 25.390625 
L 55.421875 17.390625 
L 45.703125 17.390625 
L 45.703125 0 
L 35.890625 0 
L 35.890625 17.390625 
L 4.984375 17.390625 
L 4.984375 26.703125 
z
" id="DejaVuSansMono-34"/>
     <path d="M 10.109375 72.90625 
L 47.015625 72.90625 
L 47.015625 64.59375 
L 19.09375 64.59375 
L 19.09375 46.6875 
Q 21.1875 47.46875 23.3125 47.828125 
Q 25.4375 48.1875 27.59375 48.1875 
Q 38.921875 48.1875 45.5625 41.5 
Q 52.203125 34.8125 52.203125 23.390625 
Q 52.203125 11.859375 45.234375 5.21875 
Q 38.28125 -1.421875 26.21875 -1.421875 
Q 20.40625 -1.421875 15.59375 -0.640625 
Q 10.796875 0.140625 6.984375 1.703125 
L 6.984375 11.71875 
Q 11.46875 9.28125 16.015625 8.078125 
Q 20.5625 6.890625 25.296875 6.890625 
Q 33.453125 6.890625 37.859375 11.1875 
Q 42.28125 15.484375 42.28125 23.390625 
Q 42.28125 31.203125 37.71875 35.546875 
Q 33.15625 39.890625 25 39.890625 
Q 21.046875 39.890625 17.28125 38.984375 
Q 13.53125 38.09375 10.109375 36.28125 
z
" id="DejaVuSansMono-35"/>
    </defs>
    <g transform="translate(138.436364 293.580056)scale(0.1 -0.1)">
     <use xlink:href="#DejaVuSansMono-4f"/>
     <use x="60.205078" xlink:href="#DejaVuSansMono-75"/>
     <use x="120.410156" xlink:href="#DejaVuSansMono-74"/>
     <use x="180.615234" xlink:href="#DejaVuSansMono-20"/>
     <use x="240.820312" xlink:href="#DejaVuSansMono-52"/>
     <use x="301.025391" xlink:href="#DejaVuSansMono-4d"/>
     <use x="361.230469" xlink:href="#DejaVuSansMono-53"/>
     <use x="421.435547" xlink:href="#DejaVuSansMono-45"/>
     <use x="481.640625" xlink:href="#DejaVuSansMono-3a"/>
     <use x="541.845703" xlink:href="#DejaVuSansMono-20"/>
     <use x="602.050781" xlink:href="#DejaVuSansMono-30"/>
     <use x="662.255859" xlink:href="#DejaVuSansMono-2e"/>
     <use x="722.460938" xlink:href="#DejaVuSansMono-32"/>
     <use x="782.666016" xlink:href="#DejaVuSansMono-32"/>
     <use x="842.871094" xlink:href="#DejaVuSansMono-34"/>
     <use x="903.076172" xlink:href="#DejaVuSansMono-35"/>
     <use x="963.28125" xlink:href="#DejaVuSansMono-33"/>
    </g>
   </g>
   <g id="text_19">
    <!-- inv_t4_invSim_820_200Traces -->
    <defs>
     <path d="M 54.890625 33.015625 
L 54.890625 0 
L 45.90625 0 
L 45.90625 32.71875 
Q 45.90625 40.484375 42.875 44.328125 
Q 39.84375 48.1875 33.796875 48.1875 
Q 26.515625 48.1875 22.3125 43.546875 
Q 18.109375 38.921875 18.109375 30.90625 
L 18.109375 0 
L 9.078125 0 
L 9.078125 54.6875 
L 18.109375 54.6875 
L 18.109375 46.1875 
Q 21.34375 51.125 25.703125 53.5625 
Q 30.078125 56 35.796875 56 
Q 45.21875 56 50.046875 50.171875 
Q 54.890625 44.34375 54.890625 33.015625 
z
" id="DejaVuSans-6e"/>
     <path d="M 2.984375 54.6875 
L 12.5 54.6875 
L 29.59375 8.796875 
L 46.6875 54.6875 
L 56.203125 54.6875 
L 35.6875 0 
L 23.484375 0 
z
" id="DejaVuSans-76"/>
     <path d="M 50.984375 -16.609375 
L 50.984375 -23.578125 
L -0.984375 -23.578125 
L -0.984375 -16.609375 
z
" id="DejaVuSans-5f"/>
     <path d="M 53.515625 70.515625 
L 53.515625 60.890625 
Q 47.90625 63.578125 42.921875 64.890625 
Q 37.9375 66.21875 33.296875 66.21875 
Q 25.25 66.21875 20.875 63.09375 
Q 16.5 59.96875 16.5 54.203125 
Q 16.5 49.359375 19.40625 46.890625 
Q 22.3125 44.4375 30.421875 42.921875 
L 36.375 41.703125 
Q 47.40625 39.59375 52.65625 34.296875 
Q 57.90625 29 57.90625 20.125 
Q 57.90625 9.515625 50.796875 4.046875 
Q 43.703125 -1.421875 29.984375 -1.421875 
Q 24.8125 -1.421875 18.96875 -0.25 
Q 13.140625 0.921875 6.890625 3.21875 
L 6.890625 13.375 
Q 12.890625 10.015625 18.65625 8.296875 
Q 24.421875 6.59375 29.984375 6.59375 
Q 38.421875 6.59375 43.015625 9.90625 
Q 47.609375 13.234375 47.609375 19.390625 
Q 47.609375 24.75 44.3125 27.78125 
Q 41.015625 30.8125 33.5 32.328125 
L 27.484375 33.5 
Q 16.453125 35.6875 11.515625 40.375 
Q 6.59375 45.0625 6.59375 53.421875 
Q 6.59375 63.09375 13.40625 68.65625 
Q 20.21875 74.21875 32.171875 74.21875 
Q 37.3125 74.21875 42.625 73.28125 
Q 47.953125 72.359375 53.515625 70.515625 
z
" id="DejaVuSans-53"/>
     <path d="M 41.109375 46.296875 
Q 39.59375 47.171875 37.8125 47.578125 
Q 36.03125 48 33.890625 48 
Q 26.265625 48 22.1875 43.046875 
Q 18.109375 38.09375 18.109375 28.8125 
L 18.109375 0 
L 9.078125 0 
L 9.078125 54.6875 
L 18.109375 54.6875 
L 18.109375 46.1875 
Q 20.953125 51.171875 25.484375 53.578125 
Q 30.03125 56 36.53125 56 
Q 37.453125 56 38.578125 55.875 
Q 39.703125 55.765625 41.0625 55.515625 
z
" id="DejaVuSans-72"/>
     <path d="M 48.78125 52.59375 
L 48.78125 44.1875 
Q 44.96875 46.296875 41.140625 47.34375 
Q 37.3125 48.390625 33.40625 48.390625 
Q 24.65625 48.390625 19.8125 42.84375 
Q 14.984375 37.3125 14.984375 27.296875 
Q 14.984375 17.28125 19.8125 11.734375 
Q 24.65625 6.203125 33.40625 6.203125 
Q 37.3125 6.203125 41.140625 7.25 
Q 44.96875 8.296875 48.78125 10.40625 
L 48.78125 2.09375 
Q 45.015625 0.34375 40.984375 -0.53125 
Q 36.96875 -1.421875 32.421875 -1.421875 
Q 20.0625 -1.421875 12.78125 6.34375 
Q 5.515625 14.109375 5.515625 27.296875 
Q 5.515625 40.671875 12.859375 48.328125 
Q 20.21875 56 33.015625 56 
Q 37.15625 56 41.109375 55.140625 
Q 45.0625 54.296875 48.78125 52.59375 
z
" id="DejaVuSans-63"/>
    </defs>
    <g transform="translate(352.452188 45.84)scale(0.12 -0.12)">
     <use xlink:href="#DejaVuSans-69"/>
     <use x="27.783203" xlink:href="#DejaVuSans-6e"/>
     <use x="91.162109" xlink:href="#DejaVuSans-76"/>
     <use x="150.341797" xlink:href="#DejaVuSans-5f"/>
     <use x="200.341797" xlink:href="#DejaVuSans-74"/>
     <use x="239.550781" xlink:href="#DejaVuSans-34"/>
     <use x="303.173828" xlink:href="#DejaVuSans-5f"/>
     <use x="353.173828" xlink:href="#DejaVuSans-69"/>
     <use x="380.957031" xlink:href="#DejaVuSans-6e"/>
     <use x="444.335938" xlink:href="#DejaVuSans-76"/>
     <use x="503.515625" xlink:href="#DejaVuSans-53"/>
     <use x="566.992188" xlink:href="#DejaVuSans-69"/>
     <use x="594.775391" xlink:href="#DejaVuSans-6d"/>
     <use x="692.1875" xlink:href="#DejaVuSans-5f"/>
     <use x="742.1875" xlink:href="#DejaVuSans-38"/>
     <use x="805.810547" xlink:href="#DejaVuSans-32"/>
     <use x="869.433594" xlink:href="#DejaVuSans-30"/>
     <use x="933.056641" xlink:href="#DejaVuSans-5f"/>
     <use x="983.056641" xlink:href="#DejaVuSans-32"/>
     <use x="1046.679688" xlink:href="#DejaVuSans-30"/>
     <use x="1110.302734" xlink:href="#DejaVuSans-30"/>
     <use x="1173.925781" xlink:href="#DejaVuSans-54"/>
     <use x="1234.791016" xlink:href="#DejaVuSans-72"/>
     <use x="1275.904297" xlink:href="#DejaVuSans-61"/>
     <use x="1337.183594" xlink:href="#DejaVuSans-63"/>
     <use x="1392.164062" xlink:href="#DejaVuSans-65"/>
     <use x="1453.6875" xlink:href="#DejaVuSans-73"/>
    </g>
   </g>
   <g id="legend_1">
    <g id="patch_7">
     <path d="M 115 249.01625 
L 214.946875 249.01625 
Q 216.946875 249.01625 216.946875 247.01625 
L 216.946875 189.30375 
Q 216.946875 187.30375 214.946875 187.30375 
L 115 187.30375 
Q 113 187.30375 113 189.30375 
L 113 247.01625 
Q 113 249.01625 115 249.01625 
z
" style="fill:#ffffff;opacity:0.8;stroke:#cccccc;stroke-linejoin:miter;"/>
    </g>
    <g id="line2d_19">
     <path d="M 117 195.402188 
L 137 195.402188 
" style="fill:none;stroke:#ff0000;stroke-linecap:square;stroke-width:1.5;"/>
    </g>
    <g id="line2d_20"/>
    <g id="text_20">
     <!-- Input -->
     <defs>
      <path d="M 9.8125 72.90625 
L 19.671875 72.90625 
L 19.671875 0 
L 9.8125 0 
z
" id="DejaVuSans-49"/>
      <path d="M 18.109375 8.203125 
L 18.109375 -20.796875 
L 9.078125 -20.796875 
L 9.078125 54.6875 
L 18.109375 54.6875 
L 18.109375 46.390625 
Q 20.953125 51.265625 25.265625 53.625 
Q 29.59375 56 35.59375 56 
Q 45.5625 56 51.78125 48.09375 
Q 58.015625 40.1875 58.015625 27.296875 
Q 58.015625 14.40625 51.78125 6.484375 
Q 45.5625 -1.421875 35.59375 -1.421875 
Q 29.59375 -1.421875 25.265625 0.953125 
Q 20.953125 3.328125 18.109375 8.203125 
z
M 48.6875 27.296875 
Q 48.6875 37.203125 44.609375 42.84375 
Q 40.53125 48.484375 33.40625 48.484375 
Q 26.265625 48.484375 22.1875 42.84375 
Q 18.109375 37.203125 18.109375 27.296875 
Q 18.109375 17.390625 22.1875 11.75 
Q 26.265625 6.109375 33.40625 6.109375 
Q 40.53125 6.109375 44.609375 11.75 
Q 48.6875 17.390625 48.6875 27.296875 
z
" id="DejaVuSans-70"/>
      <path d="M 8.5 21.578125 
L 8.5 54.6875 
L 17.484375 54.6875 
L 17.484375 21.921875 
Q 17.484375 14.15625 20.5 10.265625 
Q 23.53125 6.390625 29.59375 6.390625 
Q 36.859375 6.390625 41.078125 11.03125 
Q 45.3125 15.671875 45.3125 23.6875 
L 45.3125 54.6875 
L 54.296875 54.6875 
L 54.296875 0 
L 45.3125 0 
L 45.3125 8.40625 
Q 42.046875 3.421875 37.71875 1 
Q 33.40625 -1.421875 27.6875 -1.421875 
Q 18.265625 -1.421875 13.375 4.4375 
Q 8.5 10.296875 8.5 21.578125 
z
M 31.109375 56 
z
" id="DejaVuSans-75"/>
     </defs>
     <g transform="translate(145 198.902188)scale(0.1 -0.1)">
      <use xlink:href="#DejaVuSans-49"/>
      <use x="29.492188" xlink:href="#DejaVuSans-6e"/>
      <use x="92.871094" xlink:href="#DejaVuSans-70"/>
      <use x="156.347656" xlink:href="#DejaVuSans-75"/>
      <use x="219.726562" xlink:href="#DejaVuSans-74"/>
     </g>
    </g>
    <g id="line2d_21">
     <path d="M 117 210.080313 
L 137 210.080313 
" style="fill:none;stroke:#008000;stroke-linecap:square;stroke-width:1.5;"/>
    </g>
    <g id="line2d_22"/>
    <g id="text_21">
     <!-- Output -->
     <defs>
      <path d="M 39.40625 66.21875 
Q 28.65625 66.21875 22.328125 58.203125 
Q 16.015625 50.203125 16.015625 36.375 
Q 16.015625 22.609375 22.328125 14.59375 
Q 28.65625 6.59375 39.40625 6.59375 
Q 50.140625 6.59375 56.421875 14.59375 
Q 62.703125 22.609375 62.703125 36.375 
Q 62.703125 50.203125 56.421875 58.203125 
Q 50.140625 66.21875 39.40625 66.21875 
z
M 39.40625 74.21875 
Q 54.734375 74.21875 63.90625 63.9375 
Q 73.09375 53.65625 73.09375 36.375 
Q 73.09375 19.140625 63.90625 8.859375 
Q 54.734375 -1.421875 39.40625 -1.421875 
Q 24.03125 -1.421875 14.8125 8.828125 
Q 5.609375 19.09375 5.609375 36.375 
Q 5.609375 53.65625 14.8125 63.9375 
Q 24.03125 74.21875 39.40625 74.21875 
z
" id="DejaVuSans-4f"/>
     </defs>
     <g transform="translate(145 213.580313)scale(0.1 -0.1)">
      <use xlink:href="#DejaVuSans-4f"/>
      <use x="78.710938" xlink:href="#DejaVuSans-75"/>
      <use x="142.089844" xlink:href="#DejaVuSans-74"/>
      <use x="181.298828" xlink:href="#DejaVuSans-70"/>
      <use x="244.775391" xlink:href="#DejaVuSans-75"/>
      <use x="308.154297" xlink:href="#DejaVuSans-74"/>
     </g>
    </g>
    <g id="line2d_23">
     <path d="M 117 224.758438 
L 137 224.758438 
" style="fill:none;stroke:#ff0000;stroke-dasharray:5.55,2.4;stroke-dashoffset:0;stroke-width:1.5;"/>
    </g>
    <g id="line2d_24"/>
    <g id="text_22">
     <!-- Input-fitting -->
     <defs>
      <path d="M 4.890625 31.390625 
L 31.203125 31.390625 
L 31.203125 23.390625 
L 4.890625 23.390625 
z
" id="DejaVuSans-2d"/>
      <path d="M 37.109375 75.984375 
L 37.109375 68.5 
L 28.515625 68.5 
Q 23.6875 68.5 21.796875 66.546875 
Q 19.921875 64.59375 19.921875 59.515625 
L 19.921875 54.6875 
L 34.71875 54.6875 
L 34.71875 47.703125 
L 19.921875 47.703125 
L 19.921875 0 
L 10.890625 0 
L 10.890625 47.703125 
L 2.296875 47.703125 
L 2.296875 54.6875 
L 10.890625 54.6875 
L 10.890625 58.5 
Q 10.890625 67.625 15.140625 71.796875 
Q 19.390625 75.984375 28.609375 75.984375 
z
" id="DejaVuSans-66"/>
     </defs>
     <g transform="translate(145 228.258438)scale(0.1 -0.1)">
      <use xlink:href="#DejaVuSans-49"/>
      <use x="29.492188" xlink:href="#DejaVuSans-6e"/>
      <use x="92.871094" xlink:href="#DejaVuSans-70"/>
      <use x="156.347656" xlink:href="#DejaVuSans-75"/>
      <use x="219.726562" xlink:href="#DejaVuSans-74"/>
      <use x="258.935547" xlink:href="#DejaVuSans-2d"/>
      <use x="295.019531" xlink:href="#DejaVuSans-66"/>
      <use x="330.224609" xlink:href="#DejaVuSans-69"/>
      <use x="358.007812" xlink:href="#DejaVuSans-74"/>
      <use x="397.216797" xlink:href="#DejaVuSans-74"/>
      <use x="436.425781" xlink:href="#DejaVuSans-69"/>
      <use x="464.208984" xlink:href="#DejaVuSans-6e"/>
      <use x="527.587891" xlink:href="#DejaVuSans-67"/>
     </g>
    </g>
    <g id="line2d_25">
     <path d="M 117 239.436563 
L 137 239.436563 
" style="fill:none;stroke:#008000;stroke-dasharray:5.55,2.4;stroke-dashoffset:0;stroke-width:1.5;"/>
    </g>
    <g id="line2d_26"/>
    <g id="text_23">
     <!-- Output-fitting -->
     <g transform="translate(145 242.936563)scale(0.1 -0.1)">
      <use xlink:href="#DejaVuSans-4f"/>
      <use x="78.710938" xlink:href="#DejaVuSans-75"/>
      <use x="142.089844" xlink:href="#DejaVuSans-74"/>
      <use x="181.298828" xlink:href="#DejaVuSans-70"/>
      <use x="244.775391" xlink:href="#DejaVuSans-75"/>
      <use x="308.154297" xlink:href="#DejaVuSans-74"/>
      <use x="347.363281" xlink:href="#DejaVuSans-2d"/>
      <use x="383.447266" xlink:href="#DejaVuSans-66"/>
      <use x="418.652344" xlink:href="#DejaVuSans-69"/>
      <use x="446.435547" xlink:href="#DejaVuSans-74"/>
      <use x="485.644531" xlink:href="#DejaVuSans-74"/>
      <use x="524.853516" xlink:href="#DejaVuSans-69"/>
      <use x="552.636719" xlink:href="#DejaVuSans-6e"/>
      <use x="616.015625" xlink:href="#DejaVuSans-67"/>
     </g>
    </g>
   </g>
  </g>
 </g>
 <defs>
  <clipPath id="pb65cce4f67">
   <rect height="332.64" width="669.6" x="108" y="51.84"/>
  </clipPath>
 </defs>
</svg>
