<?xml version="1.0" encoding="utf-8" standalone="no"?>
<!DOCTYPE svg PUBLIC "-//W3C//DTD SVG 1.1//EN"
  "http://www.w3.org/Graphics/SVG/1.1/DTD/svg11.dtd">
<!-- Created with matplotlib (https://matplotlib.org/) -->
<svg height="288pt" version="1.1" viewBox="0 0 1152 288" width="1152pt" xmlns="http://www.w3.org/2000/svg" xmlns:xlink="http://www.w3.org/1999/xlink">
 <metadata>
  <rdf:RDF xmlns:cc="http://creativecommons.org/ns#" xmlns:dc="http://purl.org/dc/elements/1.1/" xmlns:rdf="http://www.w3.org/1999/02/22-rdf-syntax-ns#">
   <cc:Work>
    <dc:type rdf:resource="http://purl.org/dc/dcmitype/StillImage"/>
    <dc:date>2020-08-12T14:49:01.475773</dc:date>
    <dc:format>image/svg+xml</dc:format>
    <dc:creator>
     <cc:Agent>
      <dc:title>Matplotlib v3.3.0, https://matplotlib.org/</dc:title>
     </cc:Agent>
    </dc:creator>
   </cc:Work>
  </rdf:RDF>
 </metadata>
 <defs>
  <style type="text/css">*{stroke-linecap:butt;stroke-linejoin:round;}</style>
 </defs>
 <g id="figure_1">
  <g id="patch_1">
   <path d="M 0 288 
L 1152 288 
L 1152 0 
L 0 0 
z
" style="fill:#ffffff;"/>
  </g>
  <g id="axes_1">
   <g id="patch_2">
    <path d="M 144 256.32 
L 1036.8 256.32 
L 1036.8 34.56 
L 144 34.56 
z
" style="fill:#ffffff;"/>
   </g>
   <g id="matplotlib.axis_1">
    <g id="xtick_1">
     <g id="line2d_1">
      <defs>
       <path d="M 0 0 
L 0 3.5 
" id="mbdd1aad27d" style="stroke:#000000;stroke-width:0.8;"/>
      </defs>
      <g>
       <use style="stroke:#000000;stroke-width:0.8;" x="184.581818" xlink:href="#mbdd1aad27d" y="256.32"/>
      </g>
     </g>
     <g id="text_1">
      <!-- 0.0 -->
      <g transform="translate(176.630256 270.918437)scale(0.1 -0.1)">
       <defs>
        <path d="M 31.78125 66.40625 
Q 24.171875 66.40625 20.328125 58.90625 
Q 16.5 51.421875 16.5 36.375 
Q 16.5 21.390625 20.328125 13.890625 
Q 24.171875 6.390625 31.78125 6.390625 
Q 39.453125 6.390625 43.28125 13.890625 
Q 47.125 21.390625 47.125 36.375 
Q 47.125 51.421875 43.28125 58.90625 
Q 39.453125 66.40625 31.78125 66.40625 
z
M 31.78125 74.21875 
Q 44.046875 74.21875 50.515625 64.515625 
Q 56.984375 54.828125 56.984375 36.375 
Q 56.984375 17.96875 50.515625 8.265625 
Q 44.046875 -1.421875 31.78125 -1.421875 
Q 19.53125 -1.421875 13.0625 8.265625 
Q 6.59375 17.96875 6.59375 36.375 
Q 6.59375 54.828125 13.0625 64.515625 
Q 19.53125 74.21875 31.78125 74.21875 
z
" id="DejaVuSans-48"/>
        <path d="M 10.6875 12.40625 
L 21 12.40625 
L 21 0 
L 10.6875 0 
z
" id="DejaVuSans-46"/>
       </defs>
       <use xlink:href="#DejaVuSans-48"/>
       <use x="63.623047" xlink:href="#DejaVuSans-46"/>
       <use x="95.410156" xlink:href="#DejaVuSans-48"/>
      </g>
     </g>
    </g>
    <g id="xtick_2">
     <g id="line2d_2">
      <g>
       <use style="stroke:#000000;stroke-width:0.8;" x="323.648398" xlink:href="#mbdd1aad27d" y="256.32"/>
      </g>
     </g>
     <g id="text_2">
      <!-- 0.2 -->
      <g transform="translate(315.696835 270.918437)scale(0.1 -0.1)">
       <defs>
        <path d="M 19.1875 8.296875 
L 53.609375 8.296875 
L 53.609375 0 
L 7.328125 0 
L 7.328125 8.296875 
Q 12.9375 14.109375 22.625 23.890625 
Q 32.328125 33.6875 34.8125 36.53125 
Q 39.546875 41.84375 41.421875 45.53125 
Q 43.3125 49.21875 43.3125 52.78125 
Q 43.3125 58.59375 39.234375 62.25 
Q 35.15625 65.921875 28.609375 65.921875 
Q 23.96875 65.921875 18.8125 64.3125 
Q 13.671875 62.703125 7.8125 59.421875 
L 7.8125 69.390625 
Q 13.765625 71.78125 18.9375 73 
Q 24.125 74.21875 28.421875 74.21875 
Q 39.75 74.21875 46.484375 68.546875 
Q 53.21875 62.890625 53.21875 53.421875 
Q 53.21875 48.921875 51.53125 44.890625 
Q 49.859375 40.875 45.40625 35.40625 
Q 44.1875 33.984375 37.640625 27.21875 
Q 31.109375 20.453125 19.1875 8.296875 
z
" id="DejaVuSans-50"/>
       </defs>
       <use xlink:href="#DejaVuSans-48"/>
       <use x="63.623047" xlink:href="#DejaVuSans-46"/>
       <use x="95.410156" xlink:href="#DejaVuSans-50"/>
      </g>
     </g>
    </g>
    <g id="xtick_3">
     <g id="line2d_3">
      <g>
       <use style="stroke:#000000;stroke-width:0.8;" x="462.714977" xlink:href="#mbdd1aad27d" y="256.32"/>
      </g>
     </g>
     <g id="text_3">
      <!-- 0.4 -->
      <g transform="translate(454.763415 270.918437)scale(0.1 -0.1)">
       <defs>
        <path d="M 37.796875 64.3125 
L 12.890625 25.390625 
L 37.796875 25.390625 
z
M 35.203125 72.90625 
L 47.609375 72.90625 
L 47.609375 25.390625 
L 58.015625 25.390625 
L 58.015625 17.1875 
L 47.609375 17.1875 
L 47.609375 0 
L 37.796875 0 
L 37.796875 17.1875 
L 4.890625 17.1875 
L 4.890625 26.703125 
z
" id="DejaVuSans-52"/>
       </defs>
       <use xlink:href="#DejaVuSans-48"/>
       <use x="63.623047" xlink:href="#DejaVuSans-46"/>
       <use x="95.410156" xlink:href="#DejaVuSans-52"/>
      </g>
     </g>
    </g>
    <g id="xtick_4">
     <g id="line2d_4">
      <g>
       <use style="stroke:#000000;stroke-width:0.8;" x="601.781557" xlink:href="#mbdd1aad27d" y="256.32"/>
      </g>
     </g>
     <g id="text_4">
      <!-- 0.6 -->
      <g transform="translate(593.829994 270.918437)scale(0.1 -0.1)">
       <defs>
        <path d="M 33.015625 40.375 
Q 26.375 40.375 22.484375 35.828125 
Q 18.609375 31.296875 18.609375 23.390625 
Q 18.609375 15.53125 22.484375 10.953125 
Q 26.375 6.390625 33.015625 6.390625 
Q 39.65625 6.390625 43.53125 10.953125 
Q 47.40625 15.53125 47.40625 23.390625 
Q 47.40625 31.296875 43.53125 35.828125 
Q 39.65625 40.375 33.015625 40.375 
z
M 52.59375 71.296875 
L 52.59375 62.3125 
Q 48.875 64.0625 45.09375 64.984375 
Q 41.3125 65.921875 37.59375 65.921875 
Q 27.828125 65.921875 22.671875 59.328125 
Q 17.53125 52.734375 16.796875 39.40625 
Q 19.671875 43.65625 24.015625 45.921875 
Q 28.375 48.1875 33.59375 48.1875 
Q 44.578125 48.1875 50.953125 41.515625 
Q 57.328125 34.859375 57.328125 23.390625 
Q 57.328125 12.15625 50.6875 5.359375 
Q 44.046875 -1.421875 33.015625 -1.421875 
Q 20.359375 -1.421875 13.671875 8.265625 
Q 6.984375 17.96875 6.984375 36.375 
Q 6.984375 53.65625 15.1875 63.9375 
Q 23.390625 74.21875 37.203125 74.21875 
Q 40.921875 74.21875 44.703125 73.484375 
Q 48.484375 72.75 52.59375 71.296875 
z
" id="DejaVuSans-54"/>
       </defs>
       <use xlink:href="#DejaVuSans-48"/>
       <use x="63.623047" xlink:href="#DejaVuSans-46"/>
       <use x="95.410156" xlink:href="#DejaVuSans-54"/>
      </g>
     </g>
    </g>
    <g id="xtick_5">
     <g id="line2d_5">
      <g>
       <use style="stroke:#000000;stroke-width:0.8;" x="740.848136" xlink:href="#mbdd1aad27d" y="256.32"/>
      </g>
     </g>
     <g id="text_5">
      <!-- 0.8 -->
      <g transform="translate(732.896573 270.918437)scale(0.1 -0.1)">
       <defs>
        <path d="M 31.78125 34.625 
Q 24.75 34.625 20.71875 30.859375 
Q 16.703125 27.09375 16.703125 20.515625 
Q 16.703125 13.921875 20.71875 10.15625 
Q 24.75 6.390625 31.78125 6.390625 
Q 38.8125 6.390625 42.859375 10.171875 
Q 46.921875 13.96875 46.921875 20.515625 
Q 46.921875 27.09375 42.890625 30.859375 
Q 38.875 34.625 31.78125 34.625 
z
M 21.921875 38.8125 
Q 15.578125 40.375 12.03125 44.71875 
Q 8.5 49.078125 8.5 55.328125 
Q 8.5 64.0625 14.71875 69.140625 
Q 20.953125 74.21875 31.78125 74.21875 
Q 42.671875 74.21875 48.875 69.140625 
Q 55.078125 64.0625 55.078125 55.328125 
Q 55.078125 49.078125 51.53125 44.71875 
Q 48 40.375 41.703125 38.8125 
Q 48.828125 37.15625 52.796875 32.3125 
Q 56.78125 27.484375 56.78125 20.515625 
Q 56.78125 9.90625 50.3125 4.234375 
Q 43.84375 -1.421875 31.78125 -1.421875 
Q 19.734375 -1.421875 13.25 4.234375 
Q 6.78125 9.90625 6.78125 20.515625 
Q 6.78125 27.484375 10.78125 32.3125 
Q 14.796875 37.15625 21.921875 38.8125 
z
M 18.3125 54.390625 
Q 18.3125 48.734375 21.84375 45.5625 
Q 25.390625 42.390625 31.78125 42.390625 
Q 38.140625 42.390625 41.71875 45.5625 
Q 45.3125 48.734375 45.3125 54.390625 
Q 45.3125 60.0625 41.71875 63.234375 
Q 38.140625 66.40625 31.78125 66.40625 
Q 25.390625 66.40625 21.84375 63.234375 
Q 18.3125 60.0625 18.3125 54.390625 
z
" id="DejaVuSans-56"/>
       </defs>
       <use xlink:href="#DejaVuSans-48"/>
       <use x="63.623047" xlink:href="#DejaVuSans-46"/>
       <use x="95.410156" xlink:href="#DejaVuSans-56"/>
      </g>
     </g>
    </g>
    <g id="xtick_6">
     <g id="line2d_6">
      <g>
       <use style="stroke:#000000;stroke-width:0.8;" x="879.914715" xlink:href="#mbdd1aad27d" y="256.32"/>
      </g>
     </g>
     <g id="text_6">
      <!-- 1.0 -->
      <g transform="translate(871.963153 270.918437)scale(0.1 -0.1)">
       <defs>
        <path d="M 12.40625 8.296875 
L 28.515625 8.296875 
L 28.515625 63.921875 
L 10.984375 60.40625 
L 10.984375 69.390625 
L 28.421875 72.90625 
L 38.28125 72.90625 
L 38.28125 8.296875 
L 54.390625 8.296875 
L 54.390625 0 
L 12.40625 0 
z
" id="DejaVuSans-49"/>
       </defs>
       <use xlink:href="#DejaVuSans-49"/>
       <use x="63.623047" xlink:href="#DejaVuSans-46"/>
       <use x="95.410156" xlink:href="#DejaVuSans-48"/>
      </g>
     </g>
    </g>
    <g id="xtick_7">
     <g id="line2d_7">
      <g>
       <use style="stroke:#000000;stroke-width:0.8;" x="1018.981295" xlink:href="#mbdd1aad27d" y="256.32"/>
      </g>
     </g>
     <g id="text_7">
      <!-- 1.2 -->
      <g transform="translate(1011.029732 270.918437)scale(0.1 -0.1)">
       <use xlink:href="#DejaVuSans-49"/>
       <use x="63.623047" xlink:href="#DejaVuSans-46"/>
       <use x="95.410156" xlink:href="#DejaVuSans-50"/>
      </g>
     </g>
    </g>
    <g id="text_8">
     <!-- Time [s] -->
     <g transform="translate(570.071094 284.596563)scale(0.1 -0.1)">
      <defs>
       <path d="M -0.296875 72.90625 
L 61.375 72.90625 
L 61.375 64.59375 
L 35.5 64.59375 
L 35.5 0 
L 25.59375 0 
L 25.59375 64.59375 
L -0.296875 64.59375 
z
" id="DejaVuSans-84"/>
       <path d="M 9.421875 54.6875 
L 18.40625 54.6875 
L 18.40625 0 
L 9.421875 0 
z
M 9.421875 75.984375 
L 18.40625 75.984375 
L 18.40625 64.59375 
L 9.421875 64.59375 
z
" id="DejaVuSans-105"/>
       <path d="M 52 44.1875 
Q 55.375 50.25 60.0625 53.125 
Q 64.75 56 71.09375 56 
Q 79.640625 56 84.28125 50.015625 
Q 88.921875 44.046875 88.921875 33.015625 
L 88.921875 0 
L 79.890625 0 
L 79.890625 32.71875 
Q 79.890625 40.578125 77.09375 44.375 
Q 74.3125 48.1875 68.609375 48.1875 
Q 61.625 48.1875 57.5625 43.546875 
Q 53.515625 38.921875 53.515625 30.90625 
L 53.515625 0 
L 44.484375 0 
L 44.484375 32.71875 
Q 44.484375 40.625 41.703125 44.40625 
Q 38.921875 48.1875 33.109375 48.1875 
Q 26.21875 48.1875 22.15625 43.53125 
Q 18.109375 38.875 18.109375 30.90625 
L 18.109375 0 
L 9.078125 0 
L 9.078125 54.6875 
L 18.109375 54.6875 
L 18.109375 46.1875 
Q 21.1875 51.21875 25.484375 53.609375 
Q 29.78125 56 35.6875 56 
Q 41.65625 56 45.828125 52.96875 
Q 50 49.953125 52 44.1875 
z
" id="DejaVuSans-109"/>
       <path d="M 56.203125 29.59375 
L 56.203125 25.203125 
L 14.890625 25.203125 
Q 15.484375 15.921875 20.484375 11.0625 
Q 25.484375 6.203125 34.421875 6.203125 
Q 39.59375 6.203125 44.453125 7.46875 
Q 49.3125 8.734375 54.109375 11.28125 
L 54.109375 2.78125 
Q 49.265625 0.734375 44.1875 -0.34375 
Q 39.109375 -1.421875 33.890625 -1.421875 
Q 20.796875 -1.421875 13.15625 6.1875 
Q 5.515625 13.8125 5.515625 26.8125 
Q 5.515625 40.234375 12.765625 48.109375 
Q 20.015625 56 32.328125 56 
Q 43.359375 56 49.78125 48.890625 
Q 56.203125 41.796875 56.203125 29.59375 
z
M 47.21875 32.234375 
Q 47.125 39.59375 43.09375 43.984375 
Q 39.0625 48.390625 32.421875 48.390625 
Q 24.90625 48.390625 20.390625 44.140625 
Q 15.875 39.890625 15.1875 32.171875 
z
" id="DejaVuSans-101"/>
       <path id="DejaVuSans-32"/>
       <path d="M 8.59375 75.984375 
L 29.296875 75.984375 
L 29.296875 69 
L 17.578125 69 
L 17.578125 -6.203125 
L 29.296875 -6.203125 
L 29.296875 -13.1875 
L 8.59375 -13.1875 
z
" id="DejaVuSans-91"/>
       <path d="M 44.28125 53.078125 
L 44.28125 44.578125 
Q 40.484375 46.53125 36.375 47.5 
Q 32.28125 48.484375 27.875 48.484375 
Q 21.1875 48.484375 17.84375 46.4375 
Q 14.5 44.390625 14.5 40.28125 
Q 14.5 37.15625 16.890625 35.375 
Q 19.28125 33.59375 26.515625 31.984375 
L 29.59375 31.296875 
Q 39.15625 29.25 43.1875 25.515625 
Q 47.21875 21.78125 47.21875 15.09375 
Q 47.21875 7.46875 41.1875 3.015625 
Q 35.15625 -1.421875 24.609375 -1.421875 
Q 20.21875 -1.421875 15.453125 -0.5625 
Q 10.6875 0.296875 5.421875 2 
L 5.421875 11.28125 
Q 10.40625 8.6875 15.234375 7.390625 
Q 20.0625 6.109375 24.8125 6.109375 
Q 31.15625 6.109375 34.5625 8.28125 
Q 37.984375 10.453125 37.984375 14.40625 
Q 37.984375 18.0625 35.515625 20.015625 
Q 33.0625 21.96875 24.703125 23.78125 
L 21.578125 24.515625 
Q 13.234375 26.265625 9.515625 29.90625 
Q 5.8125 33.546875 5.8125 39.890625 
Q 5.8125 47.609375 11.28125 51.796875 
Q 16.75 56 26.8125 56 
Q 31.78125 56 36.171875 55.265625 
Q 40.578125 54.546875 44.28125 53.078125 
z
" id="DejaVuSans-115"/>
       <path d="M 30.421875 75.984375 
L 30.421875 -13.1875 
L 9.71875 -13.1875 
L 9.71875 -6.203125 
L 21.390625 -6.203125 
L 21.390625 69 
L 9.71875 69 
L 9.71875 75.984375 
z
" id="DejaVuSans-93"/>
      </defs>
      <use xlink:href="#DejaVuSans-84"/>
      <use x="57.958984" xlink:href="#DejaVuSans-105"/>
      <use x="85.742188" xlink:href="#DejaVuSans-109"/>
      <use x="183.154297" xlink:href="#DejaVuSans-101"/>
      <use x="244.677734" xlink:href="#DejaVuSans-32"/>
      <use x="276.464844" xlink:href="#DejaVuSans-91"/>
      <use x="315.478516" xlink:href="#DejaVuSans-115"/>
      <use x="367.578125" xlink:href="#DejaVuSans-93"/>
     </g>
    </g>
    <g id="text_9">
     <!-- 1e−8 -->
     <g transform="translate(1009.542187 283.596563)scale(0.1 -0.1)">
      <defs>
       <path d="M 10.59375 35.5 
L 73.1875 35.5 
L 73.1875 27.203125 
L 10.59375 27.203125 
z
" id="DejaVuSans-8722"/>
      </defs>
      <use xlink:href="#DejaVuSans-49"/>
      <use x="63.623047" xlink:href="#DejaVuSans-101"/>
      <use x="125.146484" xlink:href="#DejaVuSans-8722"/>
      <use x="208.935547" xlink:href="#DejaVuSans-56"/>
     </g>
    </g>
   </g>
   <g id="matplotlib.axis_2">
    <g id="ytick_1">
     <g id="line2d_8">
      <defs>
       <path d="M 0 0 
L -3.5 0 
" id="m2605fb721d" style="stroke:#000000;stroke-width:0.8;"/>
      </defs>
      <g>
       <use style="stroke:#000000;stroke-width:0.8;" x="144" xlink:href="#m2605fb721d" y="253.604389"/>
      </g>
     </g>
     <g id="text_10">
      <!-- −0.75 -->
      <g transform="translate(106.354687 257.403608)scale(0.1 -0.1)">
       <defs>
        <path d="M 8.203125 72.90625 
L 55.078125 72.90625 
L 55.078125 68.703125 
L 28.609375 0 
L 18.3125 0 
L 43.21875 64.59375 
L 8.203125 64.59375 
z
" id="DejaVuSans-55"/>
        <path d="M 10.796875 72.90625 
L 49.515625 72.90625 
L 49.515625 64.59375 
L 19.828125 64.59375 
L 19.828125 46.734375 
Q 21.96875 47.46875 24.109375 47.828125 
Q 26.265625 48.1875 28.421875 48.1875 
Q 40.625 48.1875 47.75 41.5 
Q 54.890625 34.8125 54.890625 23.390625 
Q 54.890625 11.625 47.5625 5.09375 
Q 40.234375 -1.421875 26.90625 -1.421875 
Q 22.3125 -1.421875 17.546875 -0.640625 
Q 12.796875 0.140625 7.71875 1.703125 
L 7.71875 11.625 
Q 12.109375 9.234375 16.796875 8.0625 
Q 21.484375 6.890625 26.703125 6.890625 
Q 35.15625 6.890625 40.078125 11.328125 
Q 45.015625 15.765625 45.015625 23.390625 
Q 45.015625 31 40.078125 35.4375 
Q 35.15625 39.890625 26.703125 39.890625 
Q 22.75 39.890625 18.8125 39.015625 
Q 14.890625 38.140625 10.796875 36.28125 
z
" id="DejaVuSans-53"/>
       </defs>
       <use xlink:href="#DejaVuSans-8722"/>
       <use x="83.789062" xlink:href="#DejaVuSans-48"/>
       <use x="147.412109" xlink:href="#DejaVuSans-46"/>
       <use x="179.199219" xlink:href="#DejaVuSans-55"/>
       <use x="242.822266" xlink:href="#DejaVuSans-53"/>
      </g>
     </g>
    </g>
    <g id="ytick_2">
     <g id="line2d_9">
      <g>
       <use style="stroke:#000000;stroke-width:0.8;" x="144" xlink:href="#m2605fb721d" y="226.843986"/>
      </g>
     </g>
     <g id="text_11">
      <!-- −0.50 -->
      <g transform="translate(106.354687 230.643205)scale(0.1 -0.1)">
       <use xlink:href="#DejaVuSans-8722"/>
       <use x="83.789062" xlink:href="#DejaVuSans-48"/>
       <use x="147.412109" xlink:href="#DejaVuSans-46"/>
       <use x="179.199219" xlink:href="#DejaVuSans-53"/>
       <use x="242.822266" xlink:href="#DejaVuSans-48"/>
      </g>
     </g>
    </g>
    <g id="ytick_3">
     <g id="line2d_10">
      <g>
       <use style="stroke:#000000;stroke-width:0.8;" x="144" xlink:href="#m2605fb721d" y="200.083583"/>
      </g>
     </g>
     <g id="text_12">
      <!-- −0.25 -->
      <g transform="translate(106.354687 203.882802)scale(0.1 -0.1)">
       <use xlink:href="#DejaVuSans-8722"/>
       <use x="83.789062" xlink:href="#DejaVuSans-48"/>
       <use x="147.412109" xlink:href="#DejaVuSans-46"/>
       <use x="179.199219" xlink:href="#DejaVuSans-50"/>
       <use x="242.822266" xlink:href="#DejaVuSans-53"/>
      </g>
     </g>
    </g>
    <g id="ytick_4">
     <g id="line2d_11">
      <g>
       <use style="stroke:#000000;stroke-width:0.8;" x="144" xlink:href="#m2605fb721d" y="173.32318"/>
      </g>
     </g>
     <g id="text_13">
      <!-- 0.00 -->
      <g transform="translate(114.734375 177.122398)scale(0.1 -0.1)">
       <use xlink:href="#DejaVuSans-48"/>
       <use x="63.623047" xlink:href="#DejaVuSans-46"/>
       <use x="95.410156" xlink:href="#DejaVuSans-48"/>
       <use x="159.033203" xlink:href="#DejaVuSans-48"/>
      </g>
     </g>
    </g>
    <g id="ytick_5">
     <g id="line2d_12">
      <g>
       <use style="stroke:#000000;stroke-width:0.8;" x="144" xlink:href="#m2605fb721d" y="146.562776"/>
      </g>
     </g>
     <g id="text_14">
      <!-- 0.25 -->
      <g transform="translate(114.734375 150.361995)scale(0.1 -0.1)">
       <use xlink:href="#DejaVuSans-48"/>
       <use x="63.623047" xlink:href="#DejaVuSans-46"/>
       <use x="95.410156" xlink:href="#DejaVuSans-50"/>
       <use x="159.033203" xlink:href="#DejaVuSans-53"/>
      </g>
     </g>
    </g>
    <g id="ytick_6">
     <g id="line2d_13">
      <g>
       <use style="stroke:#000000;stroke-width:0.8;" x="144" xlink:href="#m2605fb721d" y="119.802373"/>
      </g>
     </g>
     <g id="text_15">
      <!-- 0.50 -->
      <g transform="translate(114.734375 123.601592)scale(0.1 -0.1)">
       <use xlink:href="#DejaVuSans-48"/>
       <use x="63.623047" xlink:href="#DejaVuSans-46"/>
       <use x="95.410156" xlink:href="#DejaVuSans-53"/>
       <use x="159.033203" xlink:href="#DejaVuSans-48"/>
      </g>
     </g>
    </g>
    <g id="ytick_7">
     <g id="line2d_14">
      <g>
       <use style="stroke:#000000;stroke-width:0.8;" x="144" xlink:href="#m2605fb721d" y="93.04197"/>
      </g>
     </g>
     <g id="text_16">
      <!-- 0.75 -->
      <g transform="translate(114.734375 96.841188)scale(0.1 -0.1)">
       <use xlink:href="#DejaVuSans-48"/>
       <use x="63.623047" xlink:href="#DejaVuSans-46"/>
       <use x="95.410156" xlink:href="#DejaVuSans-55"/>
       <use x="159.033203" xlink:href="#DejaVuSans-53"/>
      </g>
     </g>
    </g>
    <g id="ytick_8">
     <g id="line2d_15">
      <g>
       <use style="stroke:#000000;stroke-width:0.8;" x="144" xlink:href="#m2605fb721d" y="66.281566"/>
      </g>
     </g>
     <g id="text_17">
      <!-- 1.00 -->
      <g transform="translate(114.734375 70.080785)scale(0.1 -0.1)">
       <use xlink:href="#DejaVuSans-49"/>
       <use x="63.623047" xlink:href="#DejaVuSans-46"/>
       <use x="95.410156" xlink:href="#DejaVuSans-48"/>
       <use x="159.033203" xlink:href="#DejaVuSans-48"/>
      </g>
     </g>
    </g>
    <g id="ytick_9">
     <g id="line2d_16">
      <g>
       <use style="stroke:#000000;stroke-width:0.8;" x="144" xlink:href="#m2605fb721d" y="39.521163"/>
      </g>
     </g>
     <g id="text_18">
      <!-- 1.25 -->
      <g transform="translate(114.734375 43.320382)scale(0.1 -0.1)">
       <use xlink:href="#DejaVuSans-49"/>
       <use x="63.623047" xlink:href="#DejaVuSans-46"/>
       <use x="95.410156" xlink:href="#DejaVuSans-50"/>
       <use x="159.033203" xlink:href="#DejaVuSans-53"/>
      </g>
     </g>
    </g>
    <g id="text_19">
     <!-- Voltage [V] -->
     <g transform="translate(100.275 173.107188)rotate(-90)scale(0.1 -0.1)">
      <defs>
       <path d="M 28.609375 0 
L 0.78125 72.90625 
L 11.078125 72.90625 
L 34.1875 11.53125 
L 57.328125 72.90625 
L 67.578125 72.90625 
L 39.796875 0 
z
" id="DejaVuSans-86"/>
       <path d="M 30.609375 48.390625 
Q 23.390625 48.390625 19.1875 42.75 
Q 14.984375 37.109375 14.984375 27.296875 
Q 14.984375 17.484375 19.15625 11.84375 
Q 23.34375 6.203125 30.609375 6.203125 
Q 37.796875 6.203125 41.984375 11.859375 
Q 46.1875 17.53125 46.1875 27.296875 
Q 46.1875 37.015625 41.984375 42.703125 
Q 37.796875 48.390625 30.609375 48.390625 
z
M 30.609375 56 
Q 42.328125 56 49.015625 48.375 
Q 55.71875 40.765625 55.71875 27.296875 
Q 55.71875 13.875 49.015625 6.21875 
Q 42.328125 -1.421875 30.609375 -1.421875 
Q 18.84375 -1.421875 12.171875 6.21875 
Q 5.515625 13.875 5.515625 27.296875 
Q 5.515625 40.765625 12.171875 48.375 
Q 18.84375 56 30.609375 56 
z
" id="DejaVuSans-111"/>
       <path d="M 9.421875 75.984375 
L 18.40625 75.984375 
L 18.40625 0 
L 9.421875 0 
z
" id="DejaVuSans-108"/>
       <path d="M 18.3125 70.21875 
L 18.3125 54.6875 
L 36.8125 54.6875 
L 36.8125 47.703125 
L 18.3125 47.703125 
L 18.3125 18.015625 
Q 18.3125 11.328125 20.140625 9.421875 
Q 21.96875 7.515625 27.59375 7.515625 
L 36.8125 7.515625 
L 36.8125 0 
L 27.59375 0 
Q 17.1875 0 13.234375 3.875 
Q 9.28125 7.765625 9.28125 18.015625 
L 9.28125 47.703125 
L 2.6875 47.703125 
L 2.6875 54.6875 
L 9.28125 54.6875 
L 9.28125 70.21875 
z
" id="DejaVuSans-116"/>
       <path d="M 34.28125 27.484375 
Q 23.390625 27.484375 19.1875 25 
Q 14.984375 22.515625 14.984375 16.5 
Q 14.984375 11.71875 18.140625 8.90625 
Q 21.296875 6.109375 26.703125 6.109375 
Q 34.1875 6.109375 38.703125 11.40625 
Q 43.21875 16.703125 43.21875 25.484375 
L 43.21875 27.484375 
z
M 52.203125 31.203125 
L 52.203125 0 
L 43.21875 0 
L 43.21875 8.296875 
Q 40.140625 3.328125 35.546875 0.953125 
Q 30.953125 -1.421875 24.3125 -1.421875 
Q 15.921875 -1.421875 10.953125 3.296875 
Q 6 8.015625 6 15.921875 
Q 6 25.140625 12.171875 29.828125 
Q 18.359375 34.515625 30.609375 34.515625 
L 43.21875 34.515625 
L 43.21875 35.40625 
Q 43.21875 41.609375 39.140625 45 
Q 35.0625 48.390625 27.6875 48.390625 
Q 23 48.390625 18.546875 47.265625 
Q 14.109375 46.140625 10.015625 43.890625 
L 10.015625 52.203125 
Q 14.9375 54.109375 19.578125 55.046875 
Q 24.21875 56 28.609375 56 
Q 40.484375 56 46.34375 49.84375 
Q 52.203125 43.703125 52.203125 31.203125 
z
" id="DejaVuSans-97"/>
       <path d="M 45.40625 27.984375 
Q 45.40625 37.75 41.375 43.109375 
Q 37.359375 48.484375 30.078125 48.484375 
Q 22.859375 48.484375 18.828125 43.109375 
Q 14.796875 37.75 14.796875 27.984375 
Q 14.796875 18.265625 18.828125 12.890625 
Q 22.859375 7.515625 30.078125 7.515625 
Q 37.359375 7.515625 41.375 12.890625 
Q 45.40625 18.265625 45.40625 27.984375 
z
M 54.390625 6.78125 
Q 54.390625 -7.171875 48.1875 -13.984375 
Q 42 -20.796875 29.203125 -20.796875 
Q 24.46875 -20.796875 20.265625 -20.09375 
Q 16.0625 -19.390625 12.109375 -17.921875 
L 12.109375 -9.1875 
Q 16.0625 -11.328125 19.921875 -12.34375 
Q 23.78125 -13.375 27.78125 -13.375 
Q 36.625 -13.375 41.015625 -8.765625 
Q 45.40625 -4.15625 45.40625 5.171875 
L 45.40625 9.625 
Q 42.625 4.78125 38.28125 2.390625 
Q 33.9375 0 27.875 0 
Q 17.828125 0 11.671875 7.65625 
Q 5.515625 15.328125 5.515625 27.984375 
Q 5.515625 40.671875 11.671875 48.328125 
Q 17.828125 56 27.875 56 
Q 33.9375 56 38.28125 53.609375 
Q 42.625 51.21875 45.40625 46.390625 
L 45.40625 54.6875 
L 54.390625 54.6875 
z
" id="DejaVuSans-103"/>
      </defs>
      <use xlink:href="#DejaVuSans-86"/>
      <use x="60.658203" xlink:href="#DejaVuSans-111"/>
      <use x="121.839844" xlink:href="#DejaVuSans-108"/>
      <use x="149.623047" xlink:href="#DejaVuSans-116"/>
      <use x="188.832031" xlink:href="#DejaVuSans-97"/>
      <use x="250.111328" xlink:href="#DejaVuSans-103"/>
      <use x="313.587891" xlink:href="#DejaVuSans-101"/>
      <use x="375.111328" xlink:href="#DejaVuSans-32"/>
      <use x="406.898438" xlink:href="#DejaVuSans-91"/>
      <use x="445.912109" xlink:href="#DejaVuSans-86"/>
      <use x="514.320312" xlink:href="#DejaVuSans-93"/>
     </g>
    </g>
   </g>
   <g id="line2d_17">
    <path clip-path="url(#pf03985db55)" d="M 184.581818 173.32317 
L 283.65132 173.434187 
L 288.95671 173.434252 
L 290.180496 173.189516 
L 291.126148 172.777081 
L 291.960548 172.167936 
L 292.760181 171.301613 
L 293.580673 170.069929 
L 294.44984 168.342499 
L 295.388539 165.958031 
L 296.431538 162.671965 
L 297.627511 158.128633 
L 299.059897 151.758287 
L 300.91727 142.402069 
L 304.011501 125.48153 
L 308.621558 100.495737 
L 311.124757 88.135193 
L 313.106456 79.419019 
L 314.837834 72.771189 
L 316.423193 67.534253 
L 317.925113 63.31555 
L 319.385312 59.866348 
L 320.796837 57.086157 
L 322.229223 54.754469 
L 323.619889 52.897083 
L 325.100948 51.291245 
L 326.602867 49.989191 
L 328.195179 48.903039 
L 329.891792 48.012988 
L 331.929117 47.224627 
L 334.084649 46.644461 
L 336.073301 46.329438 
L 337.443107 46.334576 
L 338.444386 46.568783 
L 339.278786 46.995344 
L 340.092325 47.680517 
L 340.880624 48.652241 
L 341.70807 50.043889 
L 342.591143 51.981984 
L 343.557656 54.654171 
L 344.677142 58.460143 
L 345.893974 63.42013 
L 347.319407 70.219456 
L 348.988206 79.325829 
L 351.108971 92.217674 
L 354.815095 116.401725 
L 357.930187 136.103751 
L 359.703286 145.953988 
L 361.107858 152.571161 
L 362.345551 157.385764 
L 363.49285 160.995764 
L 364.591476 163.745268 
L 365.662289 165.846368 
L 366.733101 167.47112 
L 367.824774 168.732105 
L 368.96512 169.715356 
L 370.195859 170.484292 
L 371.544805 171.063714 
L 372.942424 171.425251 
L 374.180117 171.525725 
L 375.216163 171.393403 
L 376.113142 171.056097 
L 376.933635 170.508125 
L 377.740221 169.693237 
L 378.560714 168.535888 
L 379.42988 166.90604 
L 380.361626 164.663346 
L 381.390719 161.576337 
L 382.551925 157.355161 
L 383.928684 151.461878 
L 385.673969 142.936806 
L 388.316234 128.77504 
L 394.018729 98.062542 
L 396.424581 86.410463 
L 398.350653 78.134091 
L 400.054219 71.760609 
L 401.625671 66.714229 
L 403.113683 62.65885 
L 404.511303 59.449207 
L 405.950642 56.691173 
L 407.355214 54.468882 
L 408.7876 52.610533 
L 410.247799 51.072131 
L 411.707998 49.83109 
L 413.390704 48.699874 
L 415.247242 47.741745 
L 417.284568 46.95349 
L 419.83644 46.244661 
L 422.659491 45.706563 
L 426.246366 45.266408 
L 429.159811 45.108414 
L 430.675636 45.242323 
L 431.732542 45.54964 
L 432.719915 46.079174 
L 433.623848 46.824184 
L 434.569501 47.909907 
L 435.563827 49.410095 
L 436.662453 51.487345 
L 437.927959 54.370939 
L 439.506364 58.553055 
L 441.794009 65.329752 
L 445.959054 77.733338 
L 447.565273 81.766645 
L 448.851638 84.424959 
L 449.943311 86.196509 
L 450.895917 87.341961 
L 451.751177 88.039219 
L 452.536903 88.402315 
L 453.280909 88.505332 
L 454.024915 88.380468 
L 454.796735 88.01688 
L 455.617227 87.374384 
L 456.507254 86.381048 
L 457.466813 84.962565 
L 458.523719 82.985357 
L 459.740552 80.210217 
L 461.339817 75.955067 
L 466.054174 63.0746 
L 467.702113 59.404892 
L 469.197079 56.595585 
L 470.698998 54.248269 
L 472.14529 52.391311 
L 473.652911 50.819084 
L 475.140924 49.573441 
L 476.844489 48.452608 
L 478.499382 47.613188 
L 480.411547 46.880595 
L 482.414106 46.319483 
L 485.223251 45.784275 
L 489.193601 45.346261 
L 492.607686 45.142239 
L 499.317648 44.94357 
L 510.262188 44.717605 
L 511.527694 44.964978 
L 512.466394 45.383725 
L 513.3147 46.022228 
L 514.100426 46.897294 
L 514.941779 48.193889 
L 515.817898 49.983089 
L 516.770157 52.461103 
L 517.847923 55.937386 
L 519.043895 60.599262 
L 520.385888 66.760074 
L 521.964293 75.101967 
L 523.890365 86.552069 
L 526.57435 103.981451 
L 531.71286 137.525702 
L 533.416426 147.043511 
L 534.793185 153.53338 
L 536.016971 158.276757 
L 537.157317 161.840783 
L 538.24899 164.547585 
L 539.312849 166.610681 
L 540.376708 168.201385 
L 541.461428 169.431878 
L 542.601774 170.39391 
L 543.84642 171.153071 
L 545.264899 171.752912 
L 546.940651 172.213377 
L 548.845863 172.505899 
L 550.389502 172.534164 
L 551.522895 172.340704 
L 552.454641 171.957808 
L 553.28904 171.371569 
L 554.095626 170.525235 
L 554.916119 169.330543 
L 555.785285 167.654119 
L 556.723985 165.335694 
L 557.760031 162.154094 
L 558.942097 157.765045 
L 560.339716 151.671926 
L 562.133675 142.780386 
L 564.956726 127.499618 
L 570.136956 99.484965 
L 572.598435 87.427241 
L 574.559274 78.885706 
L 576.276746 72.361958 
L 577.862105 67.186978 
L 579.357071 63.041952 
L 580.803363 59.669392 
L 582.228795 56.89969 
L 583.682041 54.572177 
L 585.10052 52.713614 
L 586.637206 51.085404 
L 588.097405 49.844363 
L 589.780111 48.713362 
L 591.441956 47.844719 
L 593.388888 47.06749 
L 595.412307 46.468378 
L 598.20831 45.893778 
L 601.949201 45.430074 
L 606.155965 45.152943 
L 612.462635 44.972792 
L 633.81158 44.754535 
L 634.903252 45.034984 
L 635.828045 45.509927 
L 636.641585 46.180864 
L 637.462077 47.158047 
L 638.310384 48.534923 
L 639.228223 50.479013 
L 640.236456 53.168541 
L 641.376802 56.88267 
L 642.684027 61.937604 
L 644.220713 68.797248 
L 646.202412 78.725689 
L 649.484383 96.505697 
L 652.995814 115.148578 
L 654.935793 124.278821 
L 656.486385 130.560098 
L 657.814471 135.059282 
L 658.989584 138.294711 
L 660.039537 140.569773 
L 660.985189 142.11706 
L 661.833495 143.104326 
L 662.612268 143.685016 
L 663.335415 143.9549 
L 664.030747 143.979209 
L 664.733034 143.776943 
L 665.463133 143.327936 
L 666.241906 142.576793 
L 667.076306 141.447108 
L 667.973285 139.836431 
L 668.939798 137.619664 
L 670.003657 134.597922 
L 671.22049 130.43731 
L 672.680689 124.601412 
L 674.592854 115.968731 
L 678.486718 97.06059 
L 681.254143 84.228795 
L 683.201075 76.217479 
L 684.890734 70.170238 
L 686.44828 65.393121 
L 687.894572 61.629003 
L 689.334955 58.478875 
L 690.718667 55.956868 
L 692.123239 53.836694 
L 693.541719 52.080141 
L 695.071451 50.549446 
L 696.608137 49.325104 
L 698.249122 48.298147 
L 700.196054 47.374913 
L 702.323773 46.642963 
L 705.014711 46.012166 
L 708.053316 45.563769 
L 712.46868 45.199614 
L 720.645795 44.807306 
L 724.685679 44.731628 
L 726.041578 44.926229 
L 727.028951 45.29852 
L 727.88421 45.870336 
L 728.67689 46.673684 
L 729.476523 47.805756 
L 730.345689 49.449915 
L 731.270482 51.703248 
L 732.292621 54.806598 
L 733.446874 59.064607 
L 734.761053 64.822375 
L 736.297738 72.644088 
L 738.105604 83.075207 
L 740.476689 98.160871 
L 747.416111 143.15637 
L 748.911077 150.92272 
L 750.183536 156.413345 
L 751.351696 160.50896 
L 752.450322 163.58649 
L 753.521134 165.948924 
L 754.57804 167.75924 
L 755.6419 169.154029 
L 756.748105 170.244011 
L 757.930171 171.097284 
L 759.237397 171.764448 
L 760.753222 172.283397 
L 762.623668 172.679221 
L 765.119913 172.966078 
L 768.91643 173.156762 
L 776.432979 173.268932 
L 791.828414 173.29548 
L 792.878367 172.953597 
L 793.768393 172.431563 
L 794.602793 171.679292 
L 795.437192 170.616447 
L 796.313311 169.122554 
L 797.252011 167.062514 
L 798.288057 164.227513 
L 799.463169 160.329655 
L 800.846882 154.921313 
L 802.571308 147.220119 
L 805.060599 134.971989 
L 811.262969 104.113294 
L 813.376781 94.882379 
L 815.0873 88.358781 
L 816.568359 83.549551 
L 817.896445 79.962908 
L 819.106324 77.30742 
L 820.22581 75.362838 
L 821.261856 73.990521 
L 822.200555 73.097816 
L 823.041908 72.58818 
L 823.799821 72.378228 
L 824.502107 72.410544 
L 825.183533 72.666802 
L 825.878866 73.172991 
L 826.615919 73.995734 
L 827.422505 75.249074 
L 828.305578 77.055808 
L 829.285997 79.596622 
L 830.37767 83.074008 
L 831.615363 87.796952 
L 833.040795 94.158863 
L 834.744361 102.836149 
L 836.976379 115.454931 
L 842.420836 146.740647 
L 843.881035 153.534546 
L 845.139588 158.382236 
L 846.29384 161.985974 
L 847.392466 164.720685 
L 848.463279 166.814491 
L 849.534091 168.434481 
L 850.625764 169.690605 
L 851.76611 170.6683 
L 853.003803 171.436712 
L 854.401422 172.039065 
L 856.063267 172.505615 
L 858.163173 172.853158 
L 861.076618 173.093759 
L 865.902228 173.241297 
L 877.263967 173.311993 
L 943.292918 173.32317 
L 996.218182 173.32317 
L 996.218182 173.32317 
" style="fill:none;stroke:#ff0000;stroke-linecap:square;stroke-width:1.5;"/>
   </g>
   <g id="line2d_18">
    <path clip-path="url(#pf03985db55)" d="M 184.581818 44.873244 
L 297.460631 44.762134 
L 303.531722 44.686242 
L 304.804181 44.915311 
L 305.728974 45.301196 
L 306.55642 45.885429 
L 307.335193 46.702692 
L 308.127872 47.853068 
L 308.990085 49.513819 
L 309.921831 51.817247 
L 310.971784 55.053543 
L 312.126036 59.37203 
L 313.447169 65.22635 
L 314.956041 72.964998 
L 316.784767 83.569954 
L 319.190618 98.936291 
L 325.886674 142.458501 
L 327.4025 150.433358 
L 328.688866 156.064571 
L 329.857025 160.226274 
L 330.962604 163.37772 
L 332.033417 165.783792 
L 333.090323 167.630073 
L 334.154182 169.054251 
L 335.252808 170.161833 
L 336.427921 171.032495 
L 337.728193 171.716287 
L 339.237066 172.252179 
L 341.103131 172.668813 
L 343.627189 172.989742 
L 347.583633 173.244699 
L 351.533124 173.311989 
L 352.92379 173.121784 
L 353.938976 172.763667 
L 354.808142 172.221669 
L 355.628635 171.441039 
L 356.449128 170.342007 
L 357.311341 168.798008 
L 358.236133 166.664448 
L 359.251319 163.737986 
L 360.398619 159.718801 
L 361.740611 154.164508 
L 363.416363 146.217064 
L 365.815262 133.650336 
L 372.852031 96.258806 
L 375.146629 85.47796 
L 376.982308 77.874376 
L 378.574621 72.184847 
L 380.03482 67.76268 
L 381.404625 64.30044 
L 382.704898 61.593465 
L 383.963451 59.463658 
L 385.222003 57.764693 
L 386.459696 56.468205 
L 387.613948 55.56927 
L 388.663901 55.021324 
L 389.567834 54.79172 
L 390.360513 54.817302 
L 391.083659 55.063391 
L 391.799852 55.550323 
L 392.529952 56.324877 
L 393.30949 57.486064 
L 394.143889 59.129046 
L 395.103448 61.539623 
L 396.153401 64.81135 
L 397.34242 69.286824 
L 398.684413 75.24597 
L 400.255865 83.289066 
L 402.174984 94.34168 
L 404.872876 111.317784 
L 409.455119 140.215412 
L 411.089152 149.008377 
L 412.424191 155.038813 
L 413.627117 159.486231 
L 414.746603 162.811856 
L 415.824369 165.347057 
L 416.888228 167.299754 
L 417.952087 168.801085 
L 419.04376 169.966098 
L 420.198013 170.87695 
L 421.463519 171.592032 
L 422.916764 172.152387 
L 424.66796 172.581132 
L 426.948652 172.898119 
L 430.279297 173.117211 
L 437.079652 173.291405 
L 448.608272 173.392797 
L 455.902314 173.197486 
L 462.49407 173.158469 
L 526.150197 173.373782 
L 527.255777 173.076845 
L 528.159709 172.604136 
L 528.980202 171.918894 
L 529.786788 170.944771 
L 530.621188 169.572828 
L 531.511214 167.662193 
L 532.48468 165.020623 
L 533.576353 161.381467 
L 534.841859 156.343286 
L 536.385498 149.221433 
L 538.464543 138.48517 
L 547.677704 89.606747 
L 549.715029 80.530229 
L 551.460315 73.730635 
L 553.03872 68.446387 
L 554.49892 64.307291 
L 555.854819 61.088978 
L 557.210718 58.429636 
L 558.517944 56.341254 
L 559.769543 54.725354 
L 561.083722 53.377165 
L 562.474388 52.283949 
L 563.760754 51.545897 
L 564.908053 51.121263 
L 565.881519 50.981252 
L 566.722872 51.078553 
L 567.487738 51.392292 
L 568.217838 51.933923 
L 568.97575 52.784582 
L 569.78929 54.058485 
L 570.651503 55.839978 
L 571.631922 58.416791 
L 572.695781 61.869846 
L 573.884801 66.50478 
L 575.254606 72.776595 
L 576.860825 81.228611 
L 578.835571 92.884115 
L 581.672529 111.104621 
L 586.011406 138.902086 
L 587.687159 148.140056 
L 589.043058 154.426738 
L 590.252937 159.024732 
L 591.379376 162.468603 
L 592.457142 165.080706 
L 593.521002 167.095557 
L 594.584861 168.646424 
L 595.66958 169.844285 
L 596.817645 170.784056 
L 598.069244 171.520043 
L 599.494676 172.095497 
L 601.205195 172.538102 
L 603.4094 172.86658 
L 606.566212 173.094093 
L 611.982855 173.231908 
L 626.522266 173.310105 
L 645.013393 173.452861 
L 649.491337 173.426244 
L 650.944582 173.186863 
L 652.071022 172.780596 
L 653.065348 172.186072 
L 654.024907 171.346541 
L 654.998373 170.188767 
L 656.034419 168.598072 
L 657.181718 166.410305 
L 658.495898 163.399521 
L 660.08821 159.15969 
L 662.334135 152.479491 
L 666.798172 139.121864 
L 668.585178 134.534874 
L 670.038424 131.389553 
L 671.28307 129.197651 
L 672.395602 127.665746 
L 673.396882 126.646999 
L 674.300814 126.030439 
L 675.121307 125.730969 
L 675.87922 125.686825 
L 676.60932 125.868721 
L 677.346372 126.289341 
L 678.111239 126.990613 
L 678.938685 128.063877 
L 679.842618 129.614974 
L 680.857804 131.819956 
L 682.019009 134.905088 
L 683.402722 139.255591 
L 685.342701 146.175617 
L 688.298909 156.666145 
L 689.745201 160.949297 
L 691.010707 164.028809 
L 692.185819 166.326525 
L 693.326165 168.08459 
L 694.466511 169.443684 
L 695.634671 170.49663 
L 696.879316 171.321461 
L 698.256076 171.965812 
L 699.862295 172.465749 
L 701.83704 172.838331 
L 704.493212 173.098707 
L 708.602629 173.254525 
L 717.44031 173.316794 
L 736.186485 173.455541 
L 740.441922 173.439064 
L 741.679615 173.200002 
L 742.632221 172.792984 
L 743.466621 172.193175 
L 744.266253 171.338083 
L 745.086746 170.119761 
L 745.948959 168.423368 
L 746.887658 166.06048 
L 747.930658 162.798001 
L 749.119677 158.307714 
L 750.545109 151.998392 
L 752.380788 142.784175 
L 755.398533 126.310503 
L 760.148283 100.546486 
L 762.658434 88.149997 
L 764.640133 79.43454 
L 766.371512 72.787909 
L 767.963824 67.531106 
L 769.465743 63.316835 
L 770.918989 59.886151 
L 772.330515 57.106173 
L 773.700321 54.866221 
L 775.16052 52.905325 
L 776.662439 51.274653 
L 778.192171 49.944875 
L 779.847064 48.810448 
L 781.647976 47.858634 
L 783.594908 47.081191 
L 785.965993 46.395161 
L 788.956689 45.8181 
L 792.224754 45.427291 
L 797.342404 45.066026 
L 804.170573 44.756782 
L 806.771118 44.827323 
L 807.939278 45.081975 
L 808.940557 45.537009 
L 809.816676 46.191461 
L 810.658029 47.103991 
L 811.506335 48.351668 
L 812.458941 50.180474 
L 813.453267 52.584843 
L 814.60752 55.991763 
L 815.928652 60.635121 
L 817.465338 66.886287 
L 819.426177 75.858248 
L 822.603848 91.61397 
L 826.094419 108.590834 
L 827.992678 116.747416 
L 829.508504 122.332227 
L 830.801823 126.291921 
L 831.935216 129.083031 
L 832.943448 131.005027 
L 833.840428 132.263986 
L 834.653967 133.042157 
L 835.397974 133.459555 
L 836.10026 133.605624 
L 836.788639 133.524176 
L 837.504832 133.209945 
L 838.262745 132.624363 
L 839.076285 131.700616 
L 839.945451 130.361707 
L 840.88415 128.48774 
L 841.913243 125.910596 
L 843.074449 122.366009 
L 844.430348 117.468909 
L 846.140867 110.396048 
L 848.817899 98.242158 
L 852.39191 82.206008 
L 854.331888 74.53957 
L 856.007641 68.791906 
L 857.55128 64.26426 
L 859.032339 60.593375 
L 860.416051 57.714598 
L 861.862344 55.213035 
L 863.259963 53.224095 
L 864.754929 51.492804 
L 866.284661 50.07461 
L 867.800487 48.958059 
L 869.406706 48.02776 
L 871.270198 47.205038 
L 873.25885 46.558614 
L 875.643842 46.012595 
L 878.6894 45.562699 
L 882.97279 45.212566 
L 890.684031 44.967654 
L 903.27651 44.884911 
L 996.218182 44.873244 
L 996.218182 44.873244 
" style="fill:none;stroke:#008000;stroke-linecap:square;stroke-width:1.5;"/>
   </g>
   <g id="line2d_19">
    <path clip-path="url(#pf03985db55)" d="M 184.581818 44.873244 
L 290.994035 44.982978 
L 295.861365 45.221985 
L 298.851297 45.581577 
L 301.04243 46.061778 
L 302.780762 46.662109 
L 304.240961 47.390638 
L 305.562094 48.295616 
L 306.74416 49.36818 
L 307.856692 50.668799 
L 308.969225 52.323124 
L 310.012224 54.267856 
L 311.055224 56.670727 
L 312.167756 59.829283 
L 313.280289 63.696973 
L 314.462355 68.676937 
L 315.713954 74.996545 
L 317.10462 83.276803 
L 318.703885 94.223951 
L 321.485217 115.173541 
L 323.779816 131.700993 
L 325.309548 141.214162 
L 326.700214 148.497122 
L 327.951813 153.907052 
L 329.133879 158.080712 
L 330.315945 161.444404 
L 331.428477 163.972909 
L 332.54101 165.982003 
L 333.653543 167.561543 
L 334.835609 168.857617 
L 336.087208 169.887756 
L 337.40834 170.676297 
L 338.799006 171.249898 
L 340.366078 171.654076 
L 342.10441 171.869524 
L 343.981809 171.878857 
L 345.928741 171.668049 
L 347.80614 171.24499 
L 349.544472 170.63026 
L 351.143738 169.832087 
L 352.603937 168.860857 
L 353.994603 167.669411 
L 355.315735 166.243294 
L 356.636868 164.4712 
L 357.888467 162.413559 
L 359.140066 159.925683 
L 360.391665 156.945616 
L 361.712798 153.201349 
L 363.03393 148.786595 
L 364.494129 143.08727 
L 366.023862 136.200279 
L 367.831727 126.976958 
L 370.265392 113.269533 
L 374.506923 89.284102 
L 376.384322 80.038118 
L 377.983588 73.231803 
L 379.443787 67.948435 
L 380.834452 63.735425 
L 382.155585 60.43217 
L 383.407184 57.880723 
L 384.58925 55.940076 
L 385.771316 54.411937 
L 386.883849 53.316585 
L 387.996381 52.527007 
L 389.039381 52.046828 
L 390.08238 51.807311 
L 391.125379 51.803504 
L 392.168379 52.036318 
L 393.191283 52.50102 
L 394.234282 53.228237 
L 395.277282 54.22932 
L 396.389814 55.625293 
L 397.502347 57.393097 
L 398.684413 59.721135 
L 399.866479 62.558966 
L 401.118078 66.16919 
L 402.43921 70.701583 
L 403.829876 76.299955 
L 405.359609 83.416533 
L 407.167474 92.967865 
L 409.670673 107.553006 
L 413.63407 130.619271 
L 415.511469 140.20733 
L 417.180268 147.625417 
L 418.71 153.470072 
L 420.239733 158.455243 
L 421.769465 162.689665 
L 423.368731 166.464215 
L 425.140787 170.070887 
L 427.435385 174.199056 
L 432.580849 183.284904 
L 434.597314 187.403521 
L 436.544246 191.888022 
L 438.560711 197.104309 
L 440.85531 203.684025 
L 444.818708 215.898043 
L 447.530506 223.874885 
L 449.338371 228.52042 
L 450.79857 231.691275 
L 452.05017 233.91648 
L 453.162702 235.475844 
L 454.205702 236.562722 
L 455.109634 237.205725 
L 455.944034 237.55315 
L 456.778433 237.667833 
L 457.612833 237.55591 
L 458.447232 237.225847 
L 459.351165 236.634299 
L 460.394164 235.669282 
L 461.57623 234.242339 
L 462.897363 232.278977 
L 464.496629 229.468519 
L 466.443561 225.559787 
L 469.224892 219.412327 
L 475.65547 205.035126 
L 478.297735 199.765097 
L 480.661867 195.542202 
L 482.886932 192.019551 
L 485.042464 189.017473 
L 487.197996 186.391405 
L 489.423061 184.028958 
L 491.856726 181.776469 
L 494.846658 179.330638 
L 499.922588 175.21892 
L 501.730454 173.430301 
L 503.260186 171.605314 
L 504.650852 169.585148 
L 505.902451 167.374015 
L 507.15405 164.6895 
L 508.336116 161.623372 
L 509.518182 157.948023 
L 510.769781 153.298225 
L 512.090914 147.461458 
L 513.48158 140.250286 
L 515.080845 130.686559 
L 517.138683 116.87602 
L 521.51928 87.082335 
L 523.188079 77.513789 
L 524.648278 70.426488 
L 525.969411 65.080154 
L 527.22101 60.898194 
L 528.472609 57.487966 
L 529.654675 54.882784 
L 530.836741 52.784338 
L 532.018807 51.107923 
L 533.270406 49.708554 
L 534.591539 48.566737 
L 535.982204 47.655566 
L 537.511937 46.915624 
L 539.250269 46.320809 
L 541.336268 45.850183 
L 543.908999 45.512033 
L 547.107531 45.326468 
L 550.931862 45.329565 
L 554.756193 45.5508 
L 557.885191 45.944748 
L 560.457922 46.486225 
L 562.613454 47.162829 
L 564.490853 47.983498 
L 566.159652 48.953727 
L 567.689385 50.098335 
L 569.149584 51.474778 
L 570.540249 53.099724 
L 571.861382 54.982058 
L 573.182514 57.250635 
L 574.503647 59.962987 
L 575.824779 63.175307 
L 577.215445 67.151411 
L 578.675644 72.027798 
L 580.205377 77.92547 
L 581.943709 85.564387 
L 584.029708 95.832232 
L 587.645439 115.0456 
L 590.42677 129.261495 
L 592.373702 138.107817 
L 594.042501 144.718865 
L 595.572234 149.931667 
L 597.012338 154.108236 
L 598.403004 157.509628 
L 599.793669 160.347287 
L 601.184335 162.686054 
L 602.575001 164.592504 
L 603.965667 166.130416 
L 605.425866 167.412252 
L 606.955598 168.452685 
L 608.554864 169.271168 
L 610.293196 169.910806 
L 612.240128 170.383868 
L 614.39566 170.67544 
L 616.829325 170.7796 
L 619.610657 170.672005 
L 622.670122 170.327156 
L 625.868653 169.742288 
L 629.067184 168.932957 
L 632.156687 167.92657 
L 635.216152 166.693713 
L 638.206084 165.244628 
L 641.196015 163.547879 
L 644.533613 161.386555 
L 653.086208 155.67104 
L 654.685473 154.963553 
L 656.006606 154.606405 
L 657.188672 154.517475 
L 658.231671 154.662084 
L 659.205137 155.019525 
L 660.178603 155.622257 
L 661.152069 156.498425 
L 662.125535 157.672604 
L 663.168535 159.282438 
L 664.281067 161.413665 
L 665.532666 164.316477 
L 666.923332 168.119286 
L 668.661665 173.550874 
L 674.432928 192.180136 
L 675.823593 195.651436 
L 677.075193 198.190869 
L 678.187725 199.957458 
L 679.230725 201.197285 
L 680.204191 202.006936 
L 681.108123 202.478684 
L 682.012056 202.703827 
L 682.915989 202.70733 
L 683.889455 202.493084 
L 685.001988 202.011996 
L 686.253587 201.224897 
L 687.783319 199.994222 
L 689.849501 198.021243 
L 693.604299 194.055389 
L 697.776296 189.763635 
L 700.766227 187.012798 
L 703.547559 184.757995 
L 706.259357 182.841845 
L 709.110222 181.099927 
L 712.308753 179.412434 
L 720.791815 175.113115 
L 722.460614 173.895894 
L 723.85128 172.610562 
L 725.102879 171.149807 
L 726.284945 169.41277 
L 727.397477 167.366815 
L 728.51001 164.819684 
L 729.553009 161.877292 
L 730.665542 158.037319 
L 731.778075 153.367159 
L 732.960141 147.403359 
L 734.21174 139.924628 
L 735.671939 129.790382 
L 737.688404 114.020652 
L 741.026002 87.845816 
L 742.555735 77.672743 
L 743.876867 70.296054 
L 745.128466 64.549781 
L 746.310532 60.160127 
L 747.423065 56.842627 
L 748.535597 54.1984 
L 749.64813 52.113798 
L 750.760663 50.484244 
L 751.942729 49.149697 
L 753.194328 48.08334 
L 754.51546 47.250945 
L 755.975659 46.588769 
L 757.686804 46.056115 
L 759.842336 45.631798 
L 762.623668 45.326808 
L 766.587065 45.13427 
L 772.705995 45.079 
L 779.79839 45.226927 
L 785.013387 45.543121 
L 788.817623 45.984004 
L 791.877088 46.55561 
L 794.380286 47.239809 
L 796.605351 48.076771 
L 798.552283 49.043048 
L 800.360149 50.189779 
L 802.028948 51.511959 
L 803.628214 53.065873 
L 805.157946 54.862629 
L 806.687678 57.011588 
L 808.217411 59.561883 
L 809.747143 62.560585 
L 811.276875 66.048165 
L 812.876141 70.24719 
L 814.614473 75.461984 
L 816.491872 81.817545 
L 818.716937 90.163404 
L 822.958468 107.197295 
L 825.5312 116.976593 
L 827.339065 123.000446 
L 828.799264 127.133884 
L 830.050864 130.054941 
L 831.163396 132.115633 
L 832.136862 133.476128 
L 832.971262 134.298749 
L 833.736128 134.766262 
L 834.431461 134.949133 
L 835.126794 134.8989 
L 835.822127 134.614412 
L 836.586993 134.031106 
L 837.421392 133.07419 
L 838.325325 131.666425 
L 839.298791 129.731576 
L 840.411324 127.014409 
L 841.662923 123.362653 
L 843.123122 118.406313 
L 844.930988 111.453209 
L 847.781853 99.456068 
L 851.467117 84.123167 
L 853.553116 76.396763 
L 855.360981 70.522723 
L 857.02978 65.834787 
L 858.629046 61.996712 
L 860.158778 58.888898 
L 861.68851 56.281037 
L 863.218243 54.115187 
L 864.747975 52.331742 
L 866.347241 50.814034 
L 868.01604 49.544705 
L 869.754372 48.500663 
L 871.701304 47.599123 
L 873.856836 46.855376 
L 876.290501 46.25359 
L 879.210899 45.765557 
L 882.896303 45.386697 
L 887.833166 45.117612 
L 895.412295 44.951223 
L 910.918219 44.880753 
L 996.096499 44.873244 
L 996.096499 44.873244 
" style="fill:none;stroke:#008000;stroke-dasharray:5.55,2.4;stroke-dashoffset:0;stroke-width:1.5;"/>
   </g>
   <g id="line2d_20">
    <path clip-path="url(#pf03985db55)" d="M 184.581818 173.32318 
L 290.854968 173.434162 
L 295.166032 173.674742 
L 298.155964 174.05471 
L 300.486163 174.565527 
L 302.572162 175.257681 
L 306.257427 176.571495 
L 307.300426 176.642241 
L 308.204359 176.484753 
L 309.108291 176.105524 
L 310.151291 175.416344 
L 311.541957 174.204885 
L 314.114688 171.916008 
L 315.157688 171.301678 
L 316.06162 171.03068 
L 316.89602 171.02698 
L 317.730419 171.2631 
L 318.634352 171.763318 
L 319.816418 172.698059 
L 322.458683 174.894249 
L 323.432149 175.366712 
L 324.266549 175.534505 
L 325.100948 175.483555 
L 326.074414 175.19332 
L 327.534613 174.482478 
L 330.107345 173.223768 
L 331.637077 172.748215 
L 333.236343 172.488193 
L 335.252808 172.397459 
L 343.286476 172.266589 
L 345.650608 171.892328 
L 347.736607 171.336492 
L 349.614005 170.603341 
L 351.560938 169.593322 
L 354.550869 168.020869 
L 355.593868 167.744034 
L 356.497801 167.733294 
L 357.332201 167.945263 
L 358.1666 168.380746 
L 359.140066 169.16057 
L 360.252599 170.355982 
L 361.990931 172.611931 
L 364.146463 175.346219 
L 365.328529 176.49828 
L 366.301995 177.162683 
L 367.205928 177.523395 
L 368.10986 177.636353 
L 369.013793 177.519234 
L 370.056793 177.14214 
L 371.377925 176.397207 
L 374.64599 174.15807 
L 376.662455 172.980247 
L 378.539854 172.137225 
L 380.625853 171.452038 
L 382.920451 170.936775 
L 385.354116 170.620474 
L 387.996381 170.512019 
L 390.012847 170.362046 
L 391.055846 170.070034 
L 391.959779 169.598719 
L 392.843617 168.889962 
L 393.747549 167.882826 
L 394.721015 166.471289 
L 395.833548 164.460803 
L 397.15468 161.593825 
L 398.962546 157.07309 
L 402.995477 146.788124 
L 404.386143 143.917508 
L 405.568209 141.959751 
L 406.611208 140.653602 
L 407.515141 139.867596 
L 408.280007 139.469765 
L 408.97534 139.333749 
L 409.670673 139.425085 
L 410.366006 139.754472 
L 411.061338 140.327894 
L 411.895738 141.334804 
L 412.799671 142.792823 
L 413.912203 145.033227 
L 415.441936 148.681332 
L 421.421799 163.537218 
L 423.421715 167.604224 
L 425.62752 171.568371 
L 433.484781 185.177392 
L 435.431713 189.323671 
L 437.378646 194.002607 
L 439.464644 199.613934 
L 442.037376 207.227764 
L 447.808639 224.556925 
L 449.546971 228.952575 
L 451.00717 232.07337 
L 452.25877 234.255648 
L 453.371302 235.77518 
L 454.344768 236.763418 
L 455.248701 237.389535 
L 456.083101 237.718008 
L 456.9175 237.810374 
L 457.751899 237.673079 
L 458.586299 237.315258 
L 459.490232 236.691966 
L 460.533231 235.689611 
L 461.715297 234.221107 
L 463.036429 232.21374 
L 464.635695 229.354802 
L 466.582627 225.395711 
L 469.433492 219.036671 
L 475.44687 205.51944 
L 478.089135 200.192153 
L 480.453267 195.916796 
L 482.678332 192.346574 
L 484.833864 189.301884 
L 486.989396 186.637899 
L 489.214461 184.242321 
L 491.578593 182.022967 
L 494.429458 179.660892 
L 500.131188 175.028749 
L 501.939053 173.20221 
L 503.399253 171.421685 
L 504.720385 169.474021 
L 505.971984 167.239279 
L 507.223583 164.525398 
L 508.405649 161.425882 
L 509.587715 157.711585 
L 510.839315 153.014797 
L 512.160447 147.1231 
L 513.551113 139.850849 
L 515.150379 130.21891 
L 517.208216 116.338872 
L 521.449747 87.378474 
L 523.118546 77.713106 
L 524.509212 70.870686 
L 525.760811 65.753454 
L 526.873344 62.093352 
L 527.84681 59.628969 
L 528.681209 58.109427 
L 529.376542 57.289274 
L 529.932808 56.937273 
L 530.419541 56.855292 
L 530.906274 56.985541 
L 531.462541 57.393442 
L 532.08834 58.177898 
L 532.783673 59.441468 
L 533.618073 61.472294 
L 534.591539 64.486351 
L 535.773605 68.944858 
L 537.233804 75.394223 
L 539.250269 85.416089 
L 548.56773 133.121073 
L 550.514662 141.347811 
L 552.183461 147.494368 
L 553.713193 152.343969 
L 555.173392 156.280187 
L 556.633592 159.584915 
L 558.093791 162.33212 
L 559.55399 164.611988 
L 561.153255 166.686884 
L 562.891588 168.576055 
L 564.768986 170.291568 
L 566.159652 171.288804 
L 567.202652 171.780003 
L 568.037051 171.946274 
L 568.801917 171.880085 
L 569.566783 171.579067 
L 570.33165 171.030869 
L 571.166049 170.15075 
L 572.139515 168.768686 
L 573.252048 166.765505 
L 574.57318 163.903466 
L 576.450579 159.239751 
L 580.48351 149.07114 
L 582.013242 145.864539 
L 583.334375 143.583123 
L 584.446907 142.074632 
L 585.420373 141.11227 
L 586.254773 140.591981 
L 586.950106 140.398541 
L 587.645439 140.440366 
L 588.340772 140.725888 
L 589.036105 141.253644 
L 589.870504 142.188752 
L 590.84397 143.645171 
L 592.095569 145.965013 
L 594.042501 150.13413 
L 597.290471 157.066986 
L 599.028803 160.243319 
L 600.628069 162.717053 
L 602.157801 164.679873 
L 603.687534 166.277253 
L 605.217266 167.551237 
L 606.816532 168.587265 
L 608.485331 169.399744 
L 610.293196 170.02835 
L 612.309661 170.483897 
L 614.534727 170.75172 
L 617.037925 170.825663 
L 619.88879 170.681664 
L 623.017788 170.295261 
L 626.285853 169.663068 
L 629.484384 168.819239 
L 632.573887 167.778393 
L 635.563819 166.53628 
L 638.414683 165.110904 
L 641.335082 163.399145 
L 644.603146 161.217066 
L 650.235343 157.387782 
L 651.417409 156.908706 
L 652.321341 156.75752 
L 653.155741 156.839591 
L 653.920607 157.141403 
L 654.685473 157.690668 
L 655.450339 158.50981 
L 656.284739 159.728841 
L 657.188672 161.444919 
L 658.231671 163.940813 
L 659.344204 167.20308 
L 660.595803 171.582335 
L 662.056002 177.56947 
L 663.724801 185.427145 
L 665.741266 196.055317 
L 671.999262 229.945805 
L 673.389928 235.853842 
L 674.571994 239.975573 
L 675.54546 242.655116 
L 676.37986 244.387521 
L 677.144726 245.488212 
L 677.770525 246.028327 
L 678.326792 246.230555 
L 678.813525 246.191694 
L 679.369791 245.901781 
L 679.926057 245.353797 
L 680.62139 244.316158 
L 681.386257 242.743226 
L 682.290189 240.34575 
L 683.402722 236.694111 
L 684.793388 231.284323 
L 687.435653 219.844687 
L 689.501834 211.410113 
L 691.031567 206.047462 
L 692.491766 201.727659 
L 693.882432 198.289019 
L 695.273097 195.412212 
L 696.733297 192.880757 
L 698.332562 190.555786 
L 700.070894 188.43061 
L 701.948293 186.487403 
L 704.034292 184.650428 
L 706.328891 182.928169 
L 708.901622 181.281934 
L 711.82202 179.682518 
L 716.272151 177.539433 
L 719.609749 175.835614 
L 721.556681 174.59342 
L 723.086413 173.356627 
L 724.407546 172.004168 
L 725.589612 170.48239 
L 726.702144 168.695076 
L 727.814677 166.468939 
L 728.857676 163.889225 
L 729.970209 160.503206 
L 731.082742 156.349958 
L 732.195274 151.328406 
L 733.37734 144.967342 
L 734.698473 136.60288 
L 736.297738 124.927143 
L 739.218137 101.463879 
L 741.165069 86.848158 
L 742.486201 78.549301 
L 743.529201 73.291617 
L 744.433133 69.799291 
L 745.198 67.662302 
L 745.823799 66.478496 
L 746.380065 65.848023 
L 746.866798 65.614216 
L 747.283998 65.642483 
L 747.770731 65.931733 
L 748.326998 66.58301 
L 748.952797 67.696157 
L 749.717663 69.551401 
L 750.621596 72.353711 
L 751.734129 76.544196 
L 753.194328 82.963578 
L 755.280327 93.231608 
L 762.901801 131.607361 
L 764.848733 139.934939 
L 766.587065 146.429504 
L 768.186331 151.561276 
L 769.716063 155.723212 
L 771.176262 159.058103 
L 772.636461 161.832782 
L 774.096661 164.120002 
L 775.55686 165.993885 
L 777.086592 167.589843 
L 778.685858 168.933769 
L 780.42419 170.099123 
L 782.371122 171.132087 
L 784.735254 172.121851 
L 787.91369 173.189964 
L 794.449819 175.338384 
L 796.813951 176.395866 
L 798.830417 177.539539 
L 800.638282 178.816682 
L 802.376614 180.326738 
L 804.045413 182.086725 
L 805.783746 184.266958 
L 810.998742 191.135877 
L 812.041742 191.985358 
L 813.015208 192.499238 
L 813.91914 192.736282 
L 814.892606 192.751284 
L 815.866073 192.54509 
L 816.978605 192.080237 
L 818.299738 191.275785 
L 819.899003 190.033092 
L 821.985002 188.110665 
L 824.4882 185.486833 
L 831.719663 177.665242 
L 833.875195 175.840301 
L 840.411324 170.849341 
L 841.871523 169.995215 
L 843.123122 169.52593 
L 844.305188 169.316241 
L 845.556787 169.314701 
L 847.016986 169.54727 
L 848.685785 170.054828 
L 850.841317 170.971446 
L 855.221915 172.888753 
L 857.307913 173.515729 
L 859.393912 173.908129 
L 861.758044 174.119073 
L 864.817508 174.153741 
L 870.032505 173.95517 
L 880.949371 173.536362 
L 892.14423 173.376744 
L 915.924616 173.325314 
L 996.096499 173.32318 
L 996.096499 173.32318 
" style="fill:none;stroke:#008000;stroke-dasharray:9.6,2.4,1.5,2.4;stroke-dashoffset:0;stroke-width:1.5;"/>
   </g>
   <g id="patch_3">
    <path d="M 144 256.32 
L 144 34.56 
" style="fill:none;stroke:#000000;stroke-linecap:square;stroke-linejoin:miter;stroke-width:0.8;"/>
   </g>
   <g id="patch_4">
    <path d="M 1036.8 256.32 
L 1036.8 34.56 
" style="fill:none;stroke:#000000;stroke-linecap:square;stroke-linejoin:miter;stroke-width:0.8;"/>
   </g>
   <g id="patch_5">
    <path d="M 144 256.32 
L 1036.8 256.32 
" style="fill:none;stroke:#000000;stroke-linecap:square;stroke-linejoin:miter;stroke-width:0.8;"/>
   </g>
   <g id="patch_6">
    <path d="M 144 34.56 
L 1036.8 34.56 
" style="fill:none;stroke:#000000;stroke-linecap:square;stroke-linejoin:miter;stroke-width:0.8;"/>
   </g>
   <g id="text_20">
    <!-- In  RMSE: 0.0 -->
    <g transform="translate(184.581818 146.005375)scale(0.1 -0.1)">
     <defs>
      <path d="M 9.8125 72.90625 
L 50.296875 72.90625 
L 50.296875 64.59375 
L 35.015625 64.59375 
L 35.015625 8.296875 
L 50.296875 8.296875 
L 50.296875 0 
L 9.8125 0 
L 9.8125 8.296875 
L 25.09375 8.296875 
L 25.09375 64.59375 
L 9.8125 64.59375 
z
" id="DejaVuSansMono-73"/>
      <path d="M 51.3125 33.890625 
L 51.3125 0 
L 42.28125 0 
L 42.28125 33.890625 
Q 42.28125 41.265625 39.6875 44.71875 
Q 37.109375 48.1875 31.59375 48.1875 
Q 25.296875 48.1875 21.890625 43.71875 
Q 18.5 39.265625 18.5 30.90625 
L 18.5 0 
L 9.515625 0 
L 9.515625 54.6875 
L 18.5 54.6875 
L 18.5 46.484375 
Q 20.90625 51.171875 25 53.578125 
Q 29.109375 56 34.71875 56 
Q 43.0625 56 47.1875 50.5 
Q 51.3125 45.015625 51.3125 33.890625 
z
" id="DejaVuSansMono-110"/>
      <path id="DejaVuSansMono-32"/>
      <path d="M 37.109375 34.421875 
Q 40.921875 33.453125 43.609375 30.734375 
Q 46.296875 28.03125 50.296875 19.921875 
L 60.203125 0 
L 49.609375 0 
L 40.921875 18.40625 
Q 37.15625 26.265625 34.15625 28.53125 
Q 31.15625 30.8125 26.3125 30.8125 
L 16.890625 30.8125 
L 16.890625 0 
L 6.984375 0 
L 6.984375 72.90625 
L 27.296875 72.90625 
Q 39.3125 72.90625 45.703125 67.484375 
Q 52.09375 62.0625 52.09375 51.8125 
Q 52.09375 44.578125 48.15625 40.015625 
Q 44.234375 35.453125 37.109375 34.421875 
z
M 16.890625 64.796875 
L 16.890625 38.921875 
L 27.6875 38.921875 
Q 34.765625 38.921875 38.234375 42.09375 
Q 41.703125 45.265625 41.703125 51.8125 
Q 41.703125 58.109375 38.015625 61.453125 
Q 34.328125 64.796875 27.296875 64.796875 
z
" id="DejaVuSansMono-82"/>
      <path d="M 4.203125 72.90625 
L 17.390625 72.90625 
L 29.984375 35.796875 
L 42.671875 72.90625 
L 55.90625 72.90625 
L 55.90625 0 
L 46.78125 0 
L 46.78125 64.40625 
L 33.796875 25.984375 
L 26.3125 25.984375 
L 13.28125 64.40625 
L 13.28125 0 
L 4.203125 0 
z
" id="DejaVuSansMono-77"/>
      <path d="M 49.421875 70.40625 
L 49.421875 60.40625 
Q 44.921875 63.28125 40.40625 64.75 
Q 35.890625 66.21875 31.296875 66.21875 
Q 24.3125 66.21875 20.265625 62.96875 
Q 16.21875 59.71875 16.21875 54.203125 
Q 16.21875 49.359375 18.875 46.8125 
Q 21.53125 44.28125 28.8125 42.578125 
L 33.984375 41.40625 
Q 44.234375 39.015625 48.921875 33.890625 
Q 53.609375 28.765625 53.609375 19.921875 
Q 53.609375 9.515625 47.15625 4.046875 
Q 40.71875 -1.421875 28.421875 -1.421875 
Q 23.296875 -1.421875 18.109375 -0.3125 
Q 12.9375 0.78125 7.71875 2.984375 
L 7.71875 13.484375 
Q 13.328125 9.90625 18.328125 8.25 
Q 23.34375 6.59375 28.421875 6.59375 
Q 35.890625 6.59375 40.03125 9.9375 
Q 44.1875 13.28125 44.1875 19.28125 
Q 44.1875 24.75 41.328125 27.625 
Q 38.484375 30.515625 31.390625 32.078125 
L 26.125 33.296875 
Q 15.96875 35.59375 11.375 40.234375 
Q 6.78125 44.875 6.78125 52.6875 
Q 6.78125 62.453125 13.34375 68.328125 
Q 19.921875 74.21875 30.8125 74.21875 
Q 35.015625 74.21875 39.640625 73.265625 
Q 44.28125 72.3125 49.421875 70.40625 
z
" id="DejaVuSansMono-83"/>
      <path d="M 9.625 72.90625 
L 52.875 72.90625 
L 52.875 64.59375 
L 19.484375 64.59375 
L 19.484375 43.015625 
L 51.421875 43.015625 
L 51.421875 34.71875 
L 19.484375 34.71875 
L 19.484375 8.296875 
L 53.8125 8.296875 
L 53.8125 0 
L 9.625 0 
z
" id="DejaVuSansMono-69"/>
      <path d="M 23.875 51.90625 
L 36.1875 51.90625 
L 36.1875 37.109375 
L 23.875 37.109375 
z
M 23.875 14.890625 
L 36.1875 14.890625 
L 36.1875 0 
L 23.875 0 
z
" id="DejaVuSansMono-58"/>
      <path d="M 23.578125 36.625 
Q 23.578125 39.3125 25.453125 41.265625 
Q 27.34375 43.21875 29.984375 43.21875 
Q 32.71875 43.21875 34.671875 41.265625 
Q 36.625 39.3125 36.625 36.625 
Q 36.625 33.890625 34.6875 31.984375 
Q 32.765625 30.078125 29.984375 30.078125 
Q 27.25 30.078125 25.40625 31.9375 
Q 23.578125 33.796875 23.578125 36.625 
z
M 30.078125 66.40625 
Q 23.1875 66.40625 19.796875 58.984375 
Q 16.40625 51.5625 16.40625 36.375 
Q 16.40625 21.234375 19.796875 13.8125 
Q 23.1875 6.390625 30.078125 6.390625 
Q 37.015625 6.390625 40.40625 13.8125 
Q 43.796875 21.234375 43.796875 36.375 
Q 43.796875 51.5625 40.40625 58.984375 
Q 37.015625 66.40625 30.078125 66.40625 
z
M 30.078125 74.21875 
Q 41.75 74.21875 47.734375 64.640625 
Q 53.71875 55.078125 53.71875 36.375 
Q 53.71875 17.71875 47.734375 8.140625 
Q 41.75 -1.421875 30.078125 -1.421875 
Q 18.40625 -1.421875 12.453125 8.140625 
Q 6.5 17.71875 6.5 36.375 
Q 6.5 55.078125 12.453125 64.640625 
Q 18.40625 74.21875 30.078125 74.21875 
z
" id="DejaVuSansMono-48"/>
      <path d="M 23.875 14.890625 
L 36.1875 14.890625 
L 36.1875 0 
L 23.875 0 
z
" id="DejaVuSansMono-46"/>
     </defs>
     <use xlink:href="#DejaVuSansMono-73"/>
     <use x="60.205078" xlink:href="#DejaVuSansMono-110"/>
     <use x="120.410156" xlink:href="#DejaVuSansMono-32"/>
     <use x="180.615234" xlink:href="#DejaVuSansMono-32"/>
     <use x="240.820312" xlink:href="#DejaVuSansMono-82"/>
     <use x="301.025391" xlink:href="#DejaVuSansMono-77"/>
     <use x="361.230469" xlink:href="#DejaVuSansMono-83"/>
     <use x="421.435547" xlink:href="#DejaVuSansMono-69"/>
     <use x="481.640625" xlink:href="#DejaVuSansMono-58"/>
     <use x="541.845703" xlink:href="#DejaVuSansMono-32"/>
     <use x="602.050781" xlink:href="#DejaVuSansMono-48"/>
     <use x="662.255859" xlink:href="#DejaVuSansMono-46"/>
     <use x="722.460938" xlink:href="#DejaVuSansMono-48"/>
    </g>
    <!-- Out RMSE: 0.23211 -->
    <g transform="translate(184.581818 157.266938)scale(0.1 -0.1)">
     <defs>
      <path d="M 44.1875 36.375 
Q 44.1875 52.4375 40.890625 59.328125 
Q 37.59375 66.21875 30.078125 66.21875 
Q 22.609375 66.21875 19.3125 59.328125 
Q 16.015625 52.4375 16.015625 36.375 
Q 16.015625 20.359375 19.3125 13.46875 
Q 22.609375 6.59375 30.078125 6.59375 
Q 37.59375 6.59375 40.890625 13.453125 
Q 44.1875 20.3125 44.1875 36.375 
z
M 54.5 36.375 
Q 54.5 17.328125 48.46875 7.953125 
Q 42.4375 -1.421875 30.078125 -1.421875 
Q 17.71875 -1.421875 11.71875 7.90625 
Q 5.71875 17.234375 5.71875 36.375 
Q 5.71875 55.46875 11.75 64.84375 
Q 17.78125 74.21875 30.078125 74.21875 
Q 42.4375 74.21875 48.46875 64.84375 
Q 54.5 55.46875 54.5 36.375 
z
" id="DejaVuSansMono-79"/>
      <path d="M 9.515625 20.703125 
L 9.515625 54.59375 
L 18.5 54.59375 
L 18.5 20.703125 
Q 18.5 13.328125 21.109375 9.859375 
Q 23.734375 6.390625 29.203125 6.390625 
Q 35.546875 6.390625 38.90625 10.859375 
Q 42.28125 15.328125 42.28125 23.6875 
L 42.28125 54.59375 
L 51.3125 54.59375 
L 51.3125 0 
L 42.28125 0 
L 42.28125 8.203125 
Q 39.890625 3.46875 35.765625 1.015625 
Q 31.640625 -1.421875 26.125 -1.421875 
Q 17.71875 -1.421875 13.609375 4.078125 
Q 9.515625 9.578125 9.515625 20.703125 
z
" id="DejaVuSansMono-117"/>
      <path d="M 29.984375 70.21875 
L 29.984375 54.6875 
L 50.390625 54.6875 
L 50.390625 47.703125 
L 29.984375 47.703125 
L 29.984375 18.015625 
Q 29.984375 11.96875 32.28125 9.5625 
Q 34.578125 7.171875 40.28125 7.171875 
L 50.390625 7.171875 
L 50.390625 0 
L 39.40625 0 
Q 29.296875 0 25.140625 4.046875 
Q 21 8.109375 21 18.015625 
L 21 47.703125 
L 6.390625 47.703125 
L 6.390625 54.6875 
L 21 54.6875 
L 21 70.21875 
z
" id="DejaVuSansMono-116"/>
      <path d="M 18.21875 8.296875 
L 51.703125 8.296875 
L 51.703125 0 
L 7.421875 0 
L 7.421875 8.296875 
Q 16.546875 17.921875 23.375 25.296875 
Q 30.21875 32.671875 32.8125 35.6875 
Q 37.703125 41.65625 39.40625 45.34375 
Q 41.109375 49.03125 41.109375 52.875 
Q 41.109375 58.984375 37.515625 62.453125 
Q 33.9375 65.921875 27.6875 65.921875 
Q 23.25 65.921875 18.359375 64.3125 
Q 13.484375 62.703125 8.015625 59.421875 
L 8.015625 69.390625 
Q 13.03125 71.78125 17.890625 73 
Q 22.75 74.21875 27.484375 74.21875 
Q 38.1875 74.21875 44.703125 68.53125 
Q 51.21875 62.84375 51.21875 53.609375 
Q 51.21875 48.921875 49.046875 44.234375 
Q 46.875 39.546875 42 33.890625 
Q 39.265625 30.71875 34.0625 25.09375 
Q 28.859375 19.484375 18.21875 8.296875 
z
" id="DejaVuSansMono-50"/>
      <path d="M 37.890625 39.015625 
Q 45.0625 37.109375 48.875 32.25 
Q 52.6875 27.390625 52.6875 20.125 
Q 52.6875 10.0625 45.921875 4.3125 
Q 39.15625 -1.421875 27.203125 -1.421875 
Q 22.171875 -1.421875 16.9375 -0.484375 
Q 11.71875 0.4375 6.6875 2.203125 
L 6.6875 12.015625 
Q 11.671875 9.421875 16.5 8.15625 
Q 21.34375 6.890625 26.125 6.890625 
Q 34.234375 6.890625 38.578125 10.546875 
Q 42.921875 14.203125 42.921875 21.09375 
Q 42.921875 27.4375 38.578125 31.171875 
Q 34.234375 34.90625 26.8125 34.90625 
L 19.28125 34.90625 
L 19.28125 43.015625 
L 26.8125 43.015625 
Q 33.59375 43.015625 37.40625 45.984375 
Q 41.21875 48.96875 41.21875 54.296875 
Q 41.21875 59.90625 37.671875 62.90625 
Q 34.125 65.921875 27.59375 65.921875 
Q 23.25 65.921875 18.609375 64.9375 
Q 13.96875 63.96875 8.890625 62.015625 
L 8.890625 71.09375 
Q 14.796875 72.65625 19.40625 73.4375 
Q 24.03125 74.21875 27.59375 74.21875 
Q 38.234375 74.21875 44.609375 68.875 
Q 50.984375 63.53125 50.984375 54.6875 
Q 50.984375 48.6875 47.625 44.671875 
Q 44.28125 40.671875 37.890625 39.015625 
z
" id="DejaVuSansMono-51"/>
      <path d="M 13.1875 8.296875 
L 28.515625 8.296875 
L 28.515625 64.015625 
L 12.015625 60.296875 
L 12.015625 69.28125 
L 28.421875 72.90625 
L 38.28125 72.90625 
L 38.28125 8.296875 
L 53.421875 8.296875 
L 53.421875 0 
L 13.1875 0 
z
" id="DejaVuSansMono-49"/>
     </defs>
     <use xlink:href="#DejaVuSansMono-79"/>
     <use x="60.205078" xlink:href="#DejaVuSansMono-117"/>
     <use x="120.410156" xlink:href="#DejaVuSansMono-116"/>
     <use x="180.615234" xlink:href="#DejaVuSansMono-32"/>
     <use x="240.820312" xlink:href="#DejaVuSansMono-82"/>
     <use x="301.025391" xlink:href="#DejaVuSansMono-77"/>
     <use x="361.230469" xlink:href="#DejaVuSansMono-83"/>
     <use x="421.435547" xlink:href="#DejaVuSansMono-69"/>
     <use x="481.640625" xlink:href="#DejaVuSansMono-58"/>
     <use x="541.845703" xlink:href="#DejaVuSansMono-32"/>
     <use x="602.050781" xlink:href="#DejaVuSansMono-48"/>
     <use x="662.255859" xlink:href="#DejaVuSansMono-46"/>
     <use x="722.460938" xlink:href="#DejaVuSansMono-50"/>
     <use x="782.666016" xlink:href="#DejaVuSansMono-51"/>
     <use x="842.871094" xlink:href="#DejaVuSansMono-50"/>
     <use x="903.076172" xlink:href="#DejaVuSansMono-49"/>
     <use x="963.28125" xlink:href="#DejaVuSansMono-49"/>
    </g>
   </g>
   <g id="text_21">
    <!-- ..\WaveformData\t4_traces\inv_t4_invSim_660_200Traces fitting using transfer functions -->
    <g transform="translate(325.554375 28.56)scale(0.12 -0.12)">
     <defs>
      <path d="M 8.296875 72.90625 
L 33.6875 -9.28125 
L 25.390625 -9.28125 
L 0 72.90625 
z
" id="DejaVuSans-92"/>
      <path d="M 3.328125 72.90625 
L 13.28125 72.90625 
L 28.609375 11.28125 
L 43.890625 72.90625 
L 54.984375 72.90625 
L 70.3125 11.28125 
L 85.59375 72.90625 
L 95.609375 72.90625 
L 77.296875 0 
L 64.890625 0 
L 49.515625 63.28125 
L 33.984375 0 
L 21.578125 0 
z
" id="DejaVuSans-87"/>
      <path d="M 2.984375 54.6875 
L 12.5 54.6875 
L 29.59375 8.796875 
L 46.6875 54.6875 
L 56.203125 54.6875 
L 35.6875 0 
L 23.484375 0 
z
" id="DejaVuSans-118"/>
      <path d="M 37.109375 75.984375 
L 37.109375 68.5 
L 28.515625 68.5 
Q 23.6875 68.5 21.796875 66.546875 
Q 19.921875 64.59375 19.921875 59.515625 
L 19.921875 54.6875 
L 34.71875 54.6875 
L 34.71875 47.703125 
L 19.921875 47.703125 
L 19.921875 0 
L 10.890625 0 
L 10.890625 47.703125 
L 2.296875 47.703125 
L 2.296875 54.6875 
L 10.890625 54.6875 
L 10.890625 58.5 
Q 10.890625 67.625 15.140625 71.796875 
Q 19.390625 75.984375 28.609375 75.984375 
z
" id="DejaVuSans-102"/>
      <path d="M 41.109375 46.296875 
Q 39.59375 47.171875 37.8125 47.578125 
Q 36.03125 48 33.890625 48 
Q 26.265625 48 22.1875 43.046875 
Q 18.109375 38.09375 18.109375 28.8125 
L 18.109375 0 
L 9.078125 0 
L 9.078125 54.6875 
L 18.109375 54.6875 
L 18.109375 46.1875 
Q 20.953125 51.171875 25.484375 53.578125 
Q 30.03125 56 36.53125 56 
Q 37.453125 56 38.578125 55.875 
Q 39.703125 55.765625 41.0625 55.515625 
z
" id="DejaVuSans-114"/>
      <path d="M 19.671875 64.796875 
L 19.671875 8.109375 
L 31.59375 8.109375 
Q 46.6875 8.109375 53.6875 14.9375 
Q 60.6875 21.78125 60.6875 36.53125 
Q 60.6875 51.171875 53.6875 57.984375 
Q 46.6875 64.796875 31.59375 64.796875 
z
M 9.8125 72.90625 
L 30.078125 72.90625 
Q 51.265625 72.90625 61.171875 64.09375 
Q 71.09375 55.28125 71.09375 36.53125 
Q 71.09375 17.671875 61.125 8.828125 
Q 51.171875 0 30.078125 0 
L 9.8125 0 
z
" id="DejaVuSans-68"/>
      <path d="M 50.984375 -16.609375 
L 50.984375 -23.578125 
L -0.984375 -23.578125 
L -0.984375 -16.609375 
z
" id="DejaVuSans-95"/>
      <path d="M 48.78125 52.59375 
L 48.78125 44.1875 
Q 44.96875 46.296875 41.140625 47.34375 
Q 37.3125 48.390625 33.40625 48.390625 
Q 24.65625 48.390625 19.8125 42.84375 
Q 14.984375 37.3125 14.984375 27.296875 
Q 14.984375 17.28125 19.8125 11.734375 
Q 24.65625 6.203125 33.40625 6.203125 
Q 37.3125 6.203125 41.140625 7.25 
Q 44.96875 8.296875 48.78125 10.40625 
L 48.78125 2.09375 
Q 45.015625 0.34375 40.984375 -0.53125 
Q 36.96875 -1.421875 32.421875 -1.421875 
Q 20.0625 -1.421875 12.78125 6.34375 
Q 5.515625 14.109375 5.515625 27.296875 
Q 5.515625 40.671875 12.859375 48.328125 
Q 20.21875 56 33.015625 56 
Q 37.15625 56 41.109375 55.140625 
Q 45.0625 54.296875 48.78125 52.59375 
z
" id="DejaVuSans-99"/>
      <path d="M 54.890625 33.015625 
L 54.890625 0 
L 45.90625 0 
L 45.90625 32.71875 
Q 45.90625 40.484375 42.875 44.328125 
Q 39.84375 48.1875 33.796875 48.1875 
Q 26.515625 48.1875 22.3125 43.546875 
Q 18.109375 38.921875 18.109375 30.90625 
L 18.109375 0 
L 9.078125 0 
L 9.078125 54.6875 
L 18.109375 54.6875 
L 18.109375 46.1875 
Q 21.34375 51.125 25.703125 53.5625 
Q 30.078125 56 35.796875 56 
Q 45.21875 56 50.046875 50.171875 
Q 54.890625 44.34375 54.890625 33.015625 
z
" id="DejaVuSans-110"/>
      <path d="M 53.515625 70.515625 
L 53.515625 60.890625 
Q 47.90625 63.578125 42.921875 64.890625 
Q 37.9375 66.21875 33.296875 66.21875 
Q 25.25 66.21875 20.875 63.09375 
Q 16.5 59.96875 16.5 54.203125 
Q 16.5 49.359375 19.40625 46.890625 
Q 22.3125 44.4375 30.421875 42.921875 
L 36.375 41.703125 
Q 47.40625 39.59375 52.65625 34.296875 
Q 57.90625 29 57.90625 20.125 
Q 57.90625 9.515625 50.796875 4.046875 
Q 43.703125 -1.421875 29.984375 -1.421875 
Q 24.8125 -1.421875 18.96875 -0.25 
Q 13.140625 0.921875 6.890625 3.21875 
L 6.890625 13.375 
Q 12.890625 10.015625 18.65625 8.296875 
Q 24.421875 6.59375 29.984375 6.59375 
Q 38.421875 6.59375 43.015625 9.90625 
Q 47.609375 13.234375 47.609375 19.390625 
Q 47.609375 24.75 44.3125 27.78125 
Q 41.015625 30.8125 33.5 32.328125 
L 27.484375 33.5 
Q 16.453125 35.6875 11.515625 40.375 
Q 6.59375 45.0625 6.59375 53.421875 
Q 6.59375 63.09375 13.40625 68.65625 
Q 20.21875 74.21875 32.171875 74.21875 
Q 37.3125 74.21875 42.625 73.28125 
Q 47.953125 72.359375 53.515625 70.515625 
z
" id="DejaVuSans-83"/>
      <path d="M 8.5 21.578125 
L 8.5 54.6875 
L 17.484375 54.6875 
L 17.484375 21.921875 
Q 17.484375 14.15625 20.5 10.265625 
Q 23.53125 6.390625 29.59375 6.390625 
Q 36.859375 6.390625 41.078125 11.03125 
Q 45.3125 15.671875 45.3125 23.6875 
L 45.3125 54.6875 
L 54.296875 54.6875 
L 54.296875 0 
L 45.3125 0 
L 45.3125 8.40625 
Q 42.046875 3.421875 37.71875 1 
Q 33.40625 -1.421875 27.6875 -1.421875 
Q 18.265625 -1.421875 13.375 4.4375 
Q 8.5 10.296875 8.5 21.578125 
z
M 31.109375 56 
z
" id="DejaVuSans-117"/>
     </defs>
     <use xlink:href="#DejaVuSans-46"/>
     <use x="31.787109" xlink:href="#DejaVuSans-46"/>
     <use x="63.574219" xlink:href="#DejaVuSans-92"/>
     <use x="97.265625" xlink:href="#DejaVuSans-87"/>
     <use x="189.767578" xlink:href="#DejaVuSans-97"/>
     <use x="251.046875" xlink:href="#DejaVuSans-118"/>
     <use x="310.226562" xlink:href="#DejaVuSans-101"/>
     <use x="371.75" xlink:href="#DejaVuSans-102"/>
     <use x="406.955078" xlink:href="#DejaVuSans-111"/>
     <use x="468.136719" xlink:href="#DejaVuSans-114"/>
     <use x="507.5" xlink:href="#DejaVuSans-109"/>
     <use x="604.912109" xlink:href="#DejaVuSans-68"/>
     <use x="681.914062" xlink:href="#DejaVuSans-97"/>
     <use x="743.193359" xlink:href="#DejaVuSans-116"/>
     <use x="782.402344" xlink:href="#DejaVuSans-97"/>
     <use x="843.681641" xlink:href="#DejaVuSans-92"/>
     <use x="877.373047" xlink:href="#DejaVuSans-116"/>
     <use x="916.582031" xlink:href="#DejaVuSans-52"/>
     <use x="980.205078" xlink:href="#DejaVuSans-95"/>
     <use x="1030.205078" xlink:href="#DejaVuSans-116"/>
     <use x="1069.414062" xlink:href="#DejaVuSans-114"/>
     <use x="1110.527344" xlink:href="#DejaVuSans-97"/>
     <use x="1171.806641" xlink:href="#DejaVuSans-99"/>
     <use x="1226.787109" xlink:href="#DejaVuSans-101"/>
     <use x="1288.310547" xlink:href="#DejaVuSans-115"/>
     <use x="1340.410156" xlink:href="#DejaVuSans-92"/>
     <use x="1374.101562" xlink:href="#DejaVuSans-105"/>
     <use x="1401.884766" xlink:href="#DejaVuSans-110"/>
     <use x="1465.263672" xlink:href="#DejaVuSans-118"/>
     <use x="1524.443359" xlink:href="#DejaVuSans-95"/>
     <use x="1574.443359" xlink:href="#DejaVuSans-116"/>
     <use x="1613.652344" xlink:href="#DejaVuSans-52"/>
     <use x="1677.275391" xlink:href="#DejaVuSans-95"/>
     <use x="1727.275391" xlink:href="#DejaVuSans-105"/>
     <use x="1755.058594" xlink:href="#DejaVuSans-110"/>
     <use x="1818.4375" xlink:href="#DejaVuSans-118"/>
     <use x="1877.617188" xlink:href="#DejaVuSans-83"/>
     <use x="1941.09375" xlink:href="#DejaVuSans-105"/>
     <use x="1968.876953" xlink:href="#DejaVuSans-109"/>
     <use x="2066.289062" xlink:href="#DejaVuSans-95"/>
     <use x="2116.289062" xlink:href="#DejaVuSans-54"/>
     <use x="2179.912109" xlink:href="#DejaVuSans-54"/>
     <use x="2243.535156" xlink:href="#DejaVuSans-48"/>
     <use x="2307.158203" xlink:href="#DejaVuSans-95"/>
     <use x="2357.158203" xlink:href="#DejaVuSans-50"/>
     <use x="2420.78125" xlink:href="#DejaVuSans-48"/>
     <use x="2484.404297" xlink:href="#DejaVuSans-48"/>
     <use x="2548.027344" xlink:href="#DejaVuSans-84"/>
     <use x="2594.361328" xlink:href="#DejaVuSans-114"/>
     <use x="2635.474609" xlink:href="#DejaVuSans-97"/>
     <use x="2696.753906" xlink:href="#DejaVuSans-99"/>
     <use x="2751.734375" xlink:href="#DejaVuSans-101"/>
     <use x="2813.257812" xlink:href="#DejaVuSans-115"/>
     <use x="2865.357422" xlink:href="#DejaVuSans-32"/>
     <use x="2897.144531" xlink:href="#DejaVuSans-102"/>
     <use x="2932.349609" xlink:href="#DejaVuSans-105"/>
     <use x="2960.132812" xlink:href="#DejaVuSans-116"/>
     <use x="2999.341797" xlink:href="#DejaVuSans-116"/>
     <use x="3038.550781" xlink:href="#DejaVuSans-105"/>
     <use x="3066.333984" xlink:href="#DejaVuSans-110"/>
     <use x="3129.712891" xlink:href="#DejaVuSans-103"/>
     <use x="3193.189453" xlink:href="#DejaVuSans-32"/>
     <use x="3224.976562" xlink:href="#DejaVuSans-117"/>
     <use x="3288.355469" xlink:href="#DejaVuSans-115"/>
     <use x="3340.455078" xlink:href="#DejaVuSans-105"/>
     <use x="3368.238281" xlink:href="#DejaVuSans-110"/>
     <use x="3431.617188" xlink:href="#DejaVuSans-103"/>
     <use x="3495.09375" xlink:href="#DejaVuSans-32"/>
     <use x="3526.880859" xlink:href="#DejaVuSans-116"/>
     <use x="3566.089844" xlink:href="#DejaVuSans-114"/>
     <use x="3607.203125" xlink:href="#DejaVuSans-97"/>
     <use x="3668.482422" xlink:href="#DejaVuSans-110"/>
     <use x="3731.861328" xlink:href="#DejaVuSans-115"/>
     <use x="3783.960938" xlink:href="#DejaVuSans-102"/>
     <use x="3819.166016" xlink:href="#DejaVuSans-101"/>
     <use x="3880.689453" xlink:href="#DejaVuSans-114"/>
     <use x="3921.802734" xlink:href="#DejaVuSans-32"/>
     <use x="3953.589844" xlink:href="#DejaVuSans-102"/>
     <use x="3988.794922" xlink:href="#DejaVuSans-117"/>
     <use x="4052.173828" xlink:href="#DejaVuSans-110"/>
     <use x="4115.552734" xlink:href="#DejaVuSans-99"/>
     <use x="4170.533203" xlink:href="#DejaVuSans-116"/>
     <use x="4209.742188" xlink:href="#DejaVuSans-105"/>
     <use x="4237.525391" xlink:href="#DejaVuSans-111"/>
     <use x="4298.707031" xlink:href="#DejaVuSans-110"/>
     <use x="4362.085938" xlink:href="#DejaVuSans-115"/>
    </g>
   </g>
   <g id="legend_1">
    <g id="patch_7">
     <path d="M 151 176.29625 
L 368.865625 176.29625 
Q 370.865625 176.29625 370.865625 174.29625 
L 370.865625 116.58375 
Q 370.865625 114.58375 368.865625 114.58375 
L 151 114.58375 
Q 149 114.58375 149 116.58375 
L 149 174.29625 
Q 149 176.29625 151 176.29625 
z
" style="fill:#ffffff;opacity:0.8;stroke:#cccccc;stroke-linejoin:miter;"/>
    </g>
    <g id="line2d_21">
     <path d="M 153 122.682187 
L 173 122.682187 
" style="fill:none;stroke:#ff0000;stroke-linecap:square;stroke-width:1.5;"/>
    </g>
    <g id="line2d_22"/>
    <g id="text_22">
     <!-- Input -->
     <g transform="translate(181 126.182187)scale(0.1 -0.1)">
      <defs>
       <path d="M 9.8125 72.90625 
L 19.671875 72.90625 
L 19.671875 0 
L 9.8125 0 
z
" id="DejaVuSans-73"/>
       <path d="M 18.109375 8.203125 
L 18.109375 -20.796875 
L 9.078125 -20.796875 
L 9.078125 54.6875 
L 18.109375 54.6875 
L 18.109375 46.390625 
Q 20.953125 51.265625 25.265625 53.625 
Q 29.59375 56 35.59375 56 
Q 45.5625 56 51.78125 48.09375 
Q 58.015625 40.1875 58.015625 27.296875 
Q 58.015625 14.40625 51.78125 6.484375 
Q 45.5625 -1.421875 35.59375 -1.421875 
Q 29.59375 -1.421875 25.265625 0.953125 
Q 20.953125 3.328125 18.109375 8.203125 
z
M 48.6875 27.296875 
Q 48.6875 37.203125 44.609375 42.84375 
Q 40.53125 48.484375 33.40625 48.484375 
Q 26.265625 48.484375 22.1875 42.84375 
Q 18.109375 37.203125 18.109375 27.296875 
Q 18.109375 17.390625 22.1875 11.75 
Q 26.265625 6.109375 33.40625 6.109375 
Q 40.53125 6.109375 44.609375 11.75 
Q 48.6875 17.390625 48.6875 27.296875 
z
" id="DejaVuSans-112"/>
      </defs>
      <use xlink:href="#DejaVuSans-73"/>
      <use x="29.492188" xlink:href="#DejaVuSans-110"/>
      <use x="92.871094" xlink:href="#DejaVuSans-112"/>
      <use x="156.347656" xlink:href="#DejaVuSans-117"/>
      <use x="219.726562" xlink:href="#DejaVuSans-116"/>
     </g>
    </g>
    <g id="line2d_23">
     <path d="M 153 137.360312 
L 173 137.360312 
" style="fill:none;stroke:#008000;stroke-linecap:square;stroke-width:1.5;"/>
    </g>
    <g id="line2d_24"/>
    <g id="text_23">
     <!-- Output -->
     <g transform="translate(181 140.860312)scale(0.1 -0.1)">
      <defs>
       <path d="M 39.40625 66.21875 
Q 28.65625 66.21875 22.328125 58.203125 
Q 16.015625 50.203125 16.015625 36.375 
Q 16.015625 22.609375 22.328125 14.59375 
Q 28.65625 6.59375 39.40625 6.59375 
Q 50.140625 6.59375 56.421875 14.59375 
Q 62.703125 22.609375 62.703125 36.375 
Q 62.703125 50.203125 56.421875 58.203125 
Q 50.140625 66.21875 39.40625 66.21875 
z
M 39.40625 74.21875 
Q 54.734375 74.21875 63.90625 63.9375 
Q 73.09375 53.65625 73.09375 36.375 
Q 73.09375 19.140625 63.90625 8.859375 
Q 54.734375 -1.421875 39.40625 -1.421875 
Q 24.03125 -1.421875 14.8125 8.828125 
Q 5.609375 19.09375 5.609375 36.375 
Q 5.609375 53.65625 14.8125 63.9375 
Q 24.03125 74.21875 39.40625 74.21875 
z
" id="DejaVuSans-79"/>
      </defs>
      <use xlink:href="#DejaVuSans-79"/>
      <use x="78.710938" xlink:href="#DejaVuSans-117"/>
      <use x="142.089844" xlink:href="#DejaVuSans-116"/>
      <use x="181.298828" xlink:href="#DejaVuSans-112"/>
      <use x="244.775391" xlink:href="#DejaVuSans-117"/>
      <use x="308.154297" xlink:href="#DejaVuSans-116"/>
     </g>
    </g>
    <g id="line2d_25">
     <path d="M 153 152.038437 
L 173 152.038437 
" style="fill:none;stroke:#008000;stroke-dasharray:5.55,2.4;stroke-dashoffset:0;stroke-width:1.5;"/>
    </g>
    <g id="line2d_26"/>
    <g id="text_24">
     <!-- Output fitting from transfer functions -->
     <g transform="translate(181 155.538437)scale(0.1 -0.1)">
      <use xlink:href="#DejaVuSans-79"/>
      <use x="78.710938" xlink:href="#DejaVuSans-117"/>
      <use x="142.089844" xlink:href="#DejaVuSans-116"/>
      <use x="181.298828" xlink:href="#DejaVuSans-112"/>
      <use x="244.775391" xlink:href="#DejaVuSans-117"/>
      <use x="308.154297" xlink:href="#DejaVuSans-116"/>
      <use x="347.363281" xlink:href="#DejaVuSans-32"/>
      <use x="379.150391" xlink:href="#DejaVuSans-102"/>
      <use x="414.355469" xlink:href="#DejaVuSans-105"/>
      <use x="442.138672" xlink:href="#DejaVuSans-116"/>
      <use x="481.347656" xlink:href="#DejaVuSans-116"/>
      <use x="520.556641" xlink:href="#DejaVuSans-105"/>
      <use x="548.339844" xlink:href="#DejaVuSans-110"/>
      <use x="611.71875" xlink:href="#DejaVuSans-103"/>
      <use x="675.195312" xlink:href="#DejaVuSans-32"/>
      <use x="706.982422" xlink:href="#DejaVuSans-102"/>
      <use x="742.1875" xlink:href="#DejaVuSans-114"/>
      <use x="781.050781" xlink:href="#DejaVuSans-111"/>
      <use x="842.232422" xlink:href="#DejaVuSans-109"/>
      <use x="939.644531" xlink:href="#DejaVuSans-32"/>
      <use x="971.431641" xlink:href="#DejaVuSans-116"/>
      <use x="1010.640625" xlink:href="#DejaVuSans-114"/>
      <use x="1051.753906" xlink:href="#DejaVuSans-97"/>
      <use x="1113.033203" xlink:href="#DejaVuSans-110"/>
      <use x="1176.412109" xlink:href="#DejaVuSans-115"/>
      <use x="1228.511719" xlink:href="#DejaVuSans-102"/>
      <use x="1263.716797" xlink:href="#DejaVuSans-101"/>
      <use x="1325.240234" xlink:href="#DejaVuSans-114"/>
      <use x="1366.353516" xlink:href="#DejaVuSans-32"/>
      <use x="1398.140625" xlink:href="#DejaVuSans-102"/>
      <use x="1433.345703" xlink:href="#DejaVuSans-117"/>
      <use x="1496.724609" xlink:href="#DejaVuSans-110"/>
      <use x="1560.103516" xlink:href="#DejaVuSans-99"/>
      <use x="1615.083984" xlink:href="#DejaVuSans-116"/>
      <use x="1654.292969" xlink:href="#DejaVuSans-105"/>
      <use x="1682.076172" xlink:href="#DejaVuSans-111"/>
      <use x="1743.257812" xlink:href="#DejaVuSans-110"/>
      <use x="1806.636719" xlink:href="#DejaVuSans-115"/>
     </g>
    </g>
    <g id="line2d_27">
     <path d="M 153 166.716563 
L 173 166.716563 
" style="fill:none;stroke:#008000;stroke-dasharray:9.6,2.4,1.5,2.4;stroke-dashoffset:0;stroke-width:1.5;"/>
    </g>
    <g id="line2d_28"/>
    <g id="text_25">
     <!-- fitting error -->
     <g transform="translate(181 170.216563)scale(0.1 -0.1)">
      <use xlink:href="#DejaVuSans-102"/>
      <use x="35.205078" xlink:href="#DejaVuSans-105"/>
      <use x="62.988281" xlink:href="#DejaVuSans-116"/>
      <use x="102.197266" xlink:href="#DejaVuSans-116"/>
      <use x="141.40625" xlink:href="#DejaVuSans-105"/>
      <use x="169.189453" xlink:href="#DejaVuSans-110"/>
      <use x="232.568359" xlink:href="#DejaVuSans-103"/>
      <use x="296.044922" xlink:href="#DejaVuSans-32"/>
      <use x="327.832031" xlink:href="#DejaVuSans-101"/>
      <use x="389.355469" xlink:href="#DejaVuSans-114"/>
      <use x="428.71875" xlink:href="#DejaVuSans-114"/>
      <use x="467.582031" xlink:href="#DejaVuSans-111"/>
      <use x="528.763672" xlink:href="#DejaVuSans-114"/>
     </g>
    </g>
   </g>
  </g>
 </g>
 <defs>
  <clipPath id="pf03985db55">
   <rect height="221.76" width="892.8" x="144" y="34.56"/>
  </clipPath>
 </defs>
</svg>
