<?xml version="1.0" encoding="utf-8" standalone="no"?>
<!DOCTYPE svg PUBLIC "-//W3C//DTD SVG 1.1//EN"
  "http://www.w3.org/Graphics/SVG/1.1/DTD/svg11.dtd">
<!-- Created with matplotlib (http://matplotlib.org/) -->
<svg height="432pt" version="1.1" viewBox="0 0 864 432" width="864pt" xmlns="http://www.w3.org/2000/svg" xmlns:xlink="http://www.w3.org/1999/xlink">
 <defs>
  <style type="text/css">
*{stroke-linecap:butt;stroke-linejoin:round;}
  </style>
 </defs>
 <g id="figure_1">
  <g id="patch_1">
   <path d="M 0 432 
L 864 432 
L 864 0 
L 0 0 
z
" style="fill:#ffffff;"/>
  </g>
  <g id="axes_1">
   <g id="patch_2">
    <path d="M 108 384.48 
L 777.6 384.48 
L 777.6 51.84 
L 108 51.84 
z
" style="fill:#ffffff;"/>
   </g>
   <g id="matplotlib.axis_1">
    <g id="xtick_1">
     <g id="line2d_1">
      <defs>
       <path d="M 0 0 
L 0 3.5 
" id="mf69546c23b" style="stroke:#000000;stroke-width:0.8;"/>
      </defs>
      <g>
       <use style="stroke:#000000;stroke-width:0.8;" x="138.436364" xlink:href="#mf69546c23b" y="384.48"/>
      </g>
     </g>
     <g id="text_1">
      <!-- 0.0 -->
      <defs>
       <path d="M 31.78125 66.40625 
Q 24.171875 66.40625 20.328125 58.90625 
Q 16.5 51.421875 16.5 36.375 
Q 16.5 21.390625 20.328125 13.890625 
Q 24.171875 6.390625 31.78125 6.390625 
Q 39.453125 6.390625 43.28125 13.890625 
Q 47.125 21.390625 47.125 36.375 
Q 47.125 51.421875 43.28125 58.90625 
Q 39.453125 66.40625 31.78125 66.40625 
z
M 31.78125 74.21875 
Q 44.046875 74.21875 50.515625 64.515625 
Q 56.984375 54.828125 56.984375 36.375 
Q 56.984375 17.96875 50.515625 8.265625 
Q 44.046875 -1.421875 31.78125 -1.421875 
Q 19.53125 -1.421875 13.0625 8.265625 
Q 6.59375 17.96875 6.59375 36.375 
Q 6.59375 54.828125 13.0625 64.515625 
Q 19.53125 74.21875 31.78125 74.21875 
z
" id="DejaVuSans-30"/>
       <path d="M 10.6875 12.40625 
L 21 12.40625 
L 21 0 
L 10.6875 0 
z
" id="DejaVuSans-2e"/>
      </defs>
      <g transform="translate(130.484801 399.078438)scale(0.1 -0.1)">
       <use xlink:href="#DejaVuSans-30"/>
       <use x="63.623047" xlink:href="#DejaVuSans-2e"/>
       <use x="95.410156" xlink:href="#DejaVuSans-30"/>
      </g>
     </g>
    </g>
    <g id="xtick_2">
     <g id="line2d_2">
      <g>
       <use style="stroke:#000000;stroke-width:0.8;" x="275.950138" xlink:href="#mf69546c23b" y="384.48"/>
      </g>
     </g>
     <g id="text_2">
      <!-- 0.2 -->
      <defs>
       <path d="M 19.1875 8.296875 
L 53.609375 8.296875 
L 53.609375 0 
L 7.328125 0 
L 7.328125 8.296875 
Q 12.9375 14.109375 22.625 23.890625 
Q 32.328125 33.6875 34.8125 36.53125 
Q 39.546875 41.84375 41.421875 45.53125 
Q 43.3125 49.21875 43.3125 52.78125 
Q 43.3125 58.59375 39.234375 62.25 
Q 35.15625 65.921875 28.609375 65.921875 
Q 23.96875 65.921875 18.8125 64.3125 
Q 13.671875 62.703125 7.8125 59.421875 
L 7.8125 69.390625 
Q 13.765625 71.78125 18.9375 73 
Q 24.125 74.21875 28.421875 74.21875 
Q 39.75 74.21875 46.484375 68.546875 
Q 53.21875 62.890625 53.21875 53.421875 
Q 53.21875 48.921875 51.53125 44.890625 
Q 49.859375 40.875 45.40625 35.40625 
Q 44.1875 33.984375 37.640625 27.21875 
Q 31.109375 20.453125 19.1875 8.296875 
z
" id="DejaVuSans-32"/>
      </defs>
      <g transform="translate(267.998575 399.078438)scale(0.1 -0.1)">
       <use xlink:href="#DejaVuSans-30"/>
       <use x="63.623047" xlink:href="#DejaVuSans-2e"/>
       <use x="95.410156" xlink:href="#DejaVuSans-32"/>
      </g>
     </g>
    </g>
    <g id="xtick_3">
     <g id="line2d_3">
      <g>
       <use style="stroke:#000000;stroke-width:0.8;" x="413.463912" xlink:href="#mf69546c23b" y="384.48"/>
      </g>
     </g>
     <g id="text_3">
      <!-- 0.4 -->
      <defs>
       <path d="M 37.796875 64.3125 
L 12.890625 25.390625 
L 37.796875 25.390625 
z
M 35.203125 72.90625 
L 47.609375 72.90625 
L 47.609375 25.390625 
L 58.015625 25.390625 
L 58.015625 17.1875 
L 47.609375 17.1875 
L 47.609375 0 
L 37.796875 0 
L 37.796875 17.1875 
L 4.890625 17.1875 
L 4.890625 26.703125 
z
" id="DejaVuSans-34"/>
      </defs>
      <g transform="translate(405.512349 399.078438)scale(0.1 -0.1)">
       <use xlink:href="#DejaVuSans-30"/>
       <use x="63.623047" xlink:href="#DejaVuSans-2e"/>
       <use x="95.410156" xlink:href="#DejaVuSans-34"/>
      </g>
     </g>
    </g>
    <g id="xtick_4">
     <g id="line2d_4">
      <g>
       <use style="stroke:#000000;stroke-width:0.8;" x="550.977686" xlink:href="#mf69546c23b" y="384.48"/>
      </g>
     </g>
     <g id="text_4">
      <!-- 0.6 -->
      <defs>
       <path d="M 33.015625 40.375 
Q 26.375 40.375 22.484375 35.828125 
Q 18.609375 31.296875 18.609375 23.390625 
Q 18.609375 15.53125 22.484375 10.953125 
Q 26.375 6.390625 33.015625 6.390625 
Q 39.65625 6.390625 43.53125 10.953125 
Q 47.40625 15.53125 47.40625 23.390625 
Q 47.40625 31.296875 43.53125 35.828125 
Q 39.65625 40.375 33.015625 40.375 
z
M 52.59375 71.296875 
L 52.59375 62.3125 
Q 48.875 64.0625 45.09375 64.984375 
Q 41.3125 65.921875 37.59375 65.921875 
Q 27.828125 65.921875 22.671875 59.328125 
Q 17.53125 52.734375 16.796875 39.40625 
Q 19.671875 43.65625 24.015625 45.921875 
Q 28.375 48.1875 33.59375 48.1875 
Q 44.578125 48.1875 50.953125 41.515625 
Q 57.328125 34.859375 57.328125 23.390625 
Q 57.328125 12.15625 50.6875 5.359375 
Q 44.046875 -1.421875 33.015625 -1.421875 
Q 20.359375 -1.421875 13.671875 8.265625 
Q 6.984375 17.96875 6.984375 36.375 
Q 6.984375 53.65625 15.1875 63.9375 
Q 23.390625 74.21875 37.203125 74.21875 
Q 40.921875 74.21875 44.703125 73.484375 
Q 48.484375 72.75 52.59375 71.296875 
z
" id="DejaVuSans-36"/>
      </defs>
      <g transform="translate(543.026123 399.078438)scale(0.1 -0.1)">
       <use xlink:href="#DejaVuSans-30"/>
       <use x="63.623047" xlink:href="#DejaVuSans-2e"/>
       <use x="95.410156" xlink:href="#DejaVuSans-36"/>
      </g>
     </g>
    </g>
    <g id="xtick_5">
     <g id="line2d_5">
      <g>
       <use style="stroke:#000000;stroke-width:0.8;" x="688.49146" xlink:href="#mf69546c23b" y="384.48"/>
      </g>
     </g>
     <g id="text_5">
      <!-- 0.8 -->
      <defs>
       <path d="M 31.78125 34.625 
Q 24.75 34.625 20.71875 30.859375 
Q 16.703125 27.09375 16.703125 20.515625 
Q 16.703125 13.921875 20.71875 10.15625 
Q 24.75 6.390625 31.78125 6.390625 
Q 38.8125 6.390625 42.859375 10.171875 
Q 46.921875 13.96875 46.921875 20.515625 
Q 46.921875 27.09375 42.890625 30.859375 
Q 38.875 34.625 31.78125 34.625 
z
M 21.921875 38.8125 
Q 15.578125 40.375 12.03125 44.71875 
Q 8.5 49.078125 8.5 55.328125 
Q 8.5 64.0625 14.71875 69.140625 
Q 20.953125 74.21875 31.78125 74.21875 
Q 42.671875 74.21875 48.875 69.140625 
Q 55.078125 64.0625 55.078125 55.328125 
Q 55.078125 49.078125 51.53125 44.71875 
Q 48 40.375 41.703125 38.8125 
Q 48.828125 37.15625 52.796875 32.3125 
Q 56.78125 27.484375 56.78125 20.515625 
Q 56.78125 9.90625 50.3125 4.234375 
Q 43.84375 -1.421875 31.78125 -1.421875 
Q 19.734375 -1.421875 13.25 4.234375 
Q 6.78125 9.90625 6.78125 20.515625 
Q 6.78125 27.484375 10.78125 32.3125 
Q 14.796875 37.15625 21.921875 38.8125 
z
M 18.3125 54.390625 
Q 18.3125 48.734375 21.84375 45.5625 
Q 25.390625 42.390625 31.78125 42.390625 
Q 38.140625 42.390625 41.71875 45.5625 
Q 45.3125 48.734375 45.3125 54.390625 
Q 45.3125 60.0625 41.71875 63.234375 
Q 38.140625 66.40625 31.78125 66.40625 
Q 25.390625 66.40625 21.84375 63.234375 
Q 18.3125 60.0625 18.3125 54.390625 
z
" id="DejaVuSans-38"/>
      </defs>
      <g transform="translate(680.539897 399.078438)scale(0.1 -0.1)">
       <use xlink:href="#DejaVuSans-30"/>
       <use x="63.623047" xlink:href="#DejaVuSans-2e"/>
       <use x="95.410156" xlink:href="#DejaVuSans-38"/>
      </g>
     </g>
    </g>
    <g id="text_6">
     <!-- Time [s] -->
     <defs>
      <path d="M -0.296875 72.90625 
L 61.375 72.90625 
L 61.375 64.59375 
L 35.5 64.59375 
L 35.5 0 
L 25.59375 0 
L 25.59375 64.59375 
L -0.296875 64.59375 
z
" id="DejaVuSans-54"/>
      <path d="M 9.421875 54.6875 
L 18.40625 54.6875 
L 18.40625 0 
L 9.421875 0 
z
M 9.421875 75.984375 
L 18.40625 75.984375 
L 18.40625 64.59375 
L 9.421875 64.59375 
z
" id="DejaVuSans-69"/>
      <path d="M 52 44.1875 
Q 55.375 50.25 60.0625 53.125 
Q 64.75 56 71.09375 56 
Q 79.640625 56 84.28125 50.015625 
Q 88.921875 44.046875 88.921875 33.015625 
L 88.921875 0 
L 79.890625 0 
L 79.890625 32.71875 
Q 79.890625 40.578125 77.09375 44.375 
Q 74.3125 48.1875 68.609375 48.1875 
Q 61.625 48.1875 57.5625 43.546875 
Q 53.515625 38.921875 53.515625 30.90625 
L 53.515625 0 
L 44.484375 0 
L 44.484375 32.71875 
Q 44.484375 40.625 41.703125 44.40625 
Q 38.921875 48.1875 33.109375 48.1875 
Q 26.21875 48.1875 22.15625 43.53125 
Q 18.109375 38.875 18.109375 30.90625 
L 18.109375 0 
L 9.078125 0 
L 9.078125 54.6875 
L 18.109375 54.6875 
L 18.109375 46.1875 
Q 21.1875 51.21875 25.484375 53.609375 
Q 29.78125 56 35.6875 56 
Q 41.65625 56 45.828125 52.96875 
Q 50 49.953125 52 44.1875 
z
" id="DejaVuSans-6d"/>
      <path d="M 56.203125 29.59375 
L 56.203125 25.203125 
L 14.890625 25.203125 
Q 15.484375 15.921875 20.484375 11.0625 
Q 25.484375 6.203125 34.421875 6.203125 
Q 39.59375 6.203125 44.453125 7.46875 
Q 49.3125 8.734375 54.109375 11.28125 
L 54.109375 2.78125 
Q 49.265625 0.734375 44.1875 -0.34375 
Q 39.109375 -1.421875 33.890625 -1.421875 
Q 20.796875 -1.421875 13.15625 6.1875 
Q 5.515625 13.8125 5.515625 26.8125 
Q 5.515625 40.234375 12.765625 48.109375 
Q 20.015625 56 32.328125 56 
Q 43.359375 56 49.78125 48.890625 
Q 56.203125 41.796875 56.203125 29.59375 
z
M 47.21875 32.234375 
Q 47.125 39.59375 43.09375 43.984375 
Q 39.0625 48.390625 32.421875 48.390625 
Q 24.90625 48.390625 20.390625 44.140625 
Q 15.875 39.890625 15.1875 32.171875 
z
" id="DejaVuSans-65"/>
      <path id="DejaVuSans-20"/>
      <path d="M 8.59375 75.984375 
L 29.296875 75.984375 
L 29.296875 69 
L 17.578125 69 
L 17.578125 -6.203125 
L 29.296875 -6.203125 
L 29.296875 -13.1875 
L 8.59375 -13.1875 
z
" id="DejaVuSans-5b"/>
      <path d="M 44.28125 53.078125 
L 44.28125 44.578125 
Q 40.484375 46.53125 36.375 47.5 
Q 32.28125 48.484375 27.875 48.484375 
Q 21.1875 48.484375 17.84375 46.4375 
Q 14.5 44.390625 14.5 40.28125 
Q 14.5 37.15625 16.890625 35.375 
Q 19.28125 33.59375 26.515625 31.984375 
L 29.59375 31.296875 
Q 39.15625 29.25 43.1875 25.515625 
Q 47.21875 21.78125 47.21875 15.09375 
Q 47.21875 7.46875 41.1875 3.015625 
Q 35.15625 -1.421875 24.609375 -1.421875 
Q 20.21875 -1.421875 15.453125 -0.5625 
Q 10.6875 0.296875 5.421875 2 
L 5.421875 11.28125 
Q 10.40625 8.6875 15.234375 7.390625 
Q 20.0625 6.109375 24.8125 6.109375 
Q 31.15625 6.109375 34.5625 8.28125 
Q 37.984375 10.453125 37.984375 14.40625 
Q 37.984375 18.0625 35.515625 20.015625 
Q 33.0625 21.96875 24.703125 23.78125 
L 21.578125 24.515625 
Q 13.234375 26.265625 9.515625 29.90625 
Q 5.8125 33.546875 5.8125 39.890625 
Q 5.8125 47.609375 11.28125 51.796875 
Q 16.75 56 26.8125 56 
Q 31.78125 56 36.171875 55.265625 
Q 40.578125 54.546875 44.28125 53.078125 
z
" id="DejaVuSans-73"/>
      <path d="M 30.421875 75.984375 
L 30.421875 -13.1875 
L 9.71875 -13.1875 
L 9.71875 -6.203125 
L 21.390625 -6.203125 
L 21.390625 69 
L 9.71875 69 
L 9.71875 75.984375 
z
" id="DejaVuSans-5d"/>
     </defs>
     <g transform="translate(422.317187 412.756563)scale(0.1 -0.1)">
      <use xlink:href="#DejaVuSans-54"/>
      <use x="61.037109" xlink:href="#DejaVuSans-69"/>
      <use x="88.820312" xlink:href="#DejaVuSans-6d"/>
      <use x="186.232422" xlink:href="#DejaVuSans-65"/>
      <use x="247.755859" xlink:href="#DejaVuSans-20"/>
      <use x="279.542969" xlink:href="#DejaVuSans-5b"/>
      <use x="318.556641" xlink:href="#DejaVuSans-73"/>
      <use x="370.65625" xlink:href="#DejaVuSans-5d"/>
     </g>
    </g>
    <g id="text_7">
     <!-- 1e−8 -->
     <defs>
      <path d="M 12.40625 8.296875 
L 28.515625 8.296875 
L 28.515625 63.921875 
L 10.984375 60.40625 
L 10.984375 69.390625 
L 28.421875 72.90625 
L 38.28125 72.90625 
L 38.28125 8.296875 
L 54.390625 8.296875 
L 54.390625 0 
L 12.40625 0 
z
" id="DejaVuSans-31"/>
      <path d="M 10.59375 35.5 
L 73.1875 35.5 
L 73.1875 27.203125 
L 10.59375 27.203125 
z
" id="DejaVuSans-2212"/>
     </defs>
     <g transform="translate(750.342188 411.756563)scale(0.1 -0.1)">
      <use xlink:href="#DejaVuSans-31"/>
      <use x="63.623047" xlink:href="#DejaVuSans-65"/>
      <use x="125.146484" xlink:href="#DejaVuSans-2212"/>
      <use x="208.935547" xlink:href="#DejaVuSans-38"/>
     </g>
    </g>
   </g>
   <g id="matplotlib.axis_2">
    <g id="ytick_1">
     <g id="line2d_6">
      <defs>
       <path d="M 0 0 
L -3.5 0 
" id="m7055f01d64" style="stroke:#000000;stroke-width:0.8;"/>
      </defs>
      <g>
       <use style="stroke:#000000;stroke-width:0.8;" x="108" xlink:href="#m7055f01d64" y="367.544089"/>
      </g>
     </g>
     <g id="text_8">
      <!-- 0.0 -->
      <g transform="translate(85.096875 371.343308)scale(0.1 -0.1)">
       <use xlink:href="#DejaVuSans-30"/>
       <use x="63.623047" xlink:href="#DejaVuSans-2e"/>
       <use x="95.410156" xlink:href="#DejaVuSans-30"/>
      </g>
     </g>
    </g>
    <g id="ytick_2">
     <g id="line2d_7">
      <g>
       <use style="stroke:#000000;stroke-width:0.8;" x="108" xlink:href="#m7055f01d64" y="317.84388"/>
      </g>
     </g>
     <g id="text_9">
      <!-- 0.2 -->
      <g transform="translate(85.096875 321.643099)scale(0.1 -0.1)">
       <use xlink:href="#DejaVuSans-30"/>
       <use x="63.623047" xlink:href="#DejaVuSans-2e"/>
       <use x="95.410156" xlink:href="#DejaVuSans-32"/>
      </g>
     </g>
    </g>
    <g id="ytick_3">
     <g id="line2d_8">
      <g>
       <use style="stroke:#000000;stroke-width:0.8;" x="108" xlink:href="#m7055f01d64" y="268.143671"/>
      </g>
     </g>
     <g id="text_10">
      <!-- 0.4 -->
      <g transform="translate(85.096875 271.94289)scale(0.1 -0.1)">
       <use xlink:href="#DejaVuSans-30"/>
       <use x="63.623047" xlink:href="#DejaVuSans-2e"/>
       <use x="95.410156" xlink:href="#DejaVuSans-34"/>
      </g>
     </g>
    </g>
    <g id="ytick_4">
     <g id="line2d_9">
      <g>
       <use style="stroke:#000000;stroke-width:0.8;" x="108" xlink:href="#m7055f01d64" y="218.443462"/>
      </g>
     </g>
     <g id="text_11">
      <!-- 0.6 -->
      <g transform="translate(85.096875 222.242681)scale(0.1 -0.1)">
       <use xlink:href="#DejaVuSans-30"/>
       <use x="63.623047" xlink:href="#DejaVuSans-2e"/>
       <use x="95.410156" xlink:href="#DejaVuSans-36"/>
      </g>
     </g>
    </g>
    <g id="ytick_5">
     <g id="line2d_10">
      <g>
       <use style="stroke:#000000;stroke-width:0.8;" x="108" xlink:href="#m7055f01d64" y="168.743254"/>
      </g>
     </g>
     <g id="text_12">
      <!-- 0.8 -->
      <g transform="translate(85.096875 172.542472)scale(0.1 -0.1)">
       <use xlink:href="#DejaVuSans-30"/>
       <use x="63.623047" xlink:href="#DejaVuSans-2e"/>
       <use x="95.410156" xlink:href="#DejaVuSans-38"/>
      </g>
     </g>
    </g>
    <g id="ytick_6">
     <g id="line2d_11">
      <g>
       <use style="stroke:#000000;stroke-width:0.8;" x="108" xlink:href="#m7055f01d64" y="119.043045"/>
      </g>
     </g>
     <g id="text_13">
      <!-- 1.0 -->
      <g transform="translate(85.096875 122.842264)scale(0.1 -0.1)">
       <use xlink:href="#DejaVuSans-31"/>
       <use x="63.623047" xlink:href="#DejaVuSans-2e"/>
       <use x="95.410156" xlink:href="#DejaVuSans-30"/>
      </g>
     </g>
    </g>
    <g id="ytick_7">
     <g id="line2d_12">
      <g>
       <use style="stroke:#000000;stroke-width:0.8;" x="108" xlink:href="#m7055f01d64" y="69.342836"/>
      </g>
     </g>
     <g id="text_14">
      <!-- 1.2 -->
      <g transform="translate(85.096875 73.142055)scale(0.1 -0.1)">
       <use xlink:href="#DejaVuSans-31"/>
       <use x="63.623047" xlink:href="#DejaVuSans-2e"/>
       <use x="95.410156" xlink:href="#DejaVuSans-32"/>
      </g>
     </g>
    </g>
    <g id="text_15">
     <!-- Voltage [V] -->
     <defs>
      <path d="M 28.609375 0 
L 0.78125 72.90625 
L 11.078125 72.90625 
L 34.1875 11.53125 
L 57.328125 72.90625 
L 67.578125 72.90625 
L 39.796875 0 
z
" id="DejaVuSans-56"/>
      <path d="M 30.609375 48.390625 
Q 23.390625 48.390625 19.1875 42.75 
Q 14.984375 37.109375 14.984375 27.296875 
Q 14.984375 17.484375 19.15625 11.84375 
Q 23.34375 6.203125 30.609375 6.203125 
Q 37.796875 6.203125 41.984375 11.859375 
Q 46.1875 17.53125 46.1875 27.296875 
Q 46.1875 37.015625 41.984375 42.703125 
Q 37.796875 48.390625 30.609375 48.390625 
z
M 30.609375 56 
Q 42.328125 56 49.015625 48.375 
Q 55.71875 40.765625 55.71875 27.296875 
Q 55.71875 13.875 49.015625 6.21875 
Q 42.328125 -1.421875 30.609375 -1.421875 
Q 18.84375 -1.421875 12.171875 6.21875 
Q 5.515625 13.875 5.515625 27.296875 
Q 5.515625 40.765625 12.171875 48.375 
Q 18.84375 56 30.609375 56 
z
" id="DejaVuSans-6f"/>
      <path d="M 9.421875 75.984375 
L 18.40625 75.984375 
L 18.40625 0 
L 9.421875 0 
z
" id="DejaVuSans-6c"/>
      <path d="M 18.3125 70.21875 
L 18.3125 54.6875 
L 36.8125 54.6875 
L 36.8125 47.703125 
L 18.3125 47.703125 
L 18.3125 18.015625 
Q 18.3125 11.328125 20.140625 9.421875 
Q 21.96875 7.515625 27.59375 7.515625 
L 36.8125 7.515625 
L 36.8125 0 
L 27.59375 0 
Q 17.1875 0 13.234375 3.875 
Q 9.28125 7.765625 9.28125 18.015625 
L 9.28125 47.703125 
L 2.6875 47.703125 
L 2.6875 54.6875 
L 9.28125 54.6875 
L 9.28125 70.21875 
z
" id="DejaVuSans-74"/>
      <path d="M 34.28125 27.484375 
Q 23.390625 27.484375 19.1875 25 
Q 14.984375 22.515625 14.984375 16.5 
Q 14.984375 11.71875 18.140625 8.90625 
Q 21.296875 6.109375 26.703125 6.109375 
Q 34.1875 6.109375 38.703125 11.40625 
Q 43.21875 16.703125 43.21875 25.484375 
L 43.21875 27.484375 
z
M 52.203125 31.203125 
L 52.203125 0 
L 43.21875 0 
L 43.21875 8.296875 
Q 40.140625 3.328125 35.546875 0.953125 
Q 30.953125 -1.421875 24.3125 -1.421875 
Q 15.921875 -1.421875 10.953125 3.296875 
Q 6 8.015625 6 15.921875 
Q 6 25.140625 12.171875 29.828125 
Q 18.359375 34.515625 30.609375 34.515625 
L 43.21875 34.515625 
L 43.21875 35.40625 
Q 43.21875 41.609375 39.140625 45 
Q 35.0625 48.390625 27.6875 48.390625 
Q 23 48.390625 18.546875 47.265625 
Q 14.109375 46.140625 10.015625 43.890625 
L 10.015625 52.203125 
Q 14.9375 54.109375 19.578125 55.046875 
Q 24.21875 56 28.609375 56 
Q 40.484375 56 46.34375 49.84375 
Q 52.203125 43.703125 52.203125 31.203125 
z
" id="DejaVuSans-61"/>
      <path d="M 45.40625 27.984375 
Q 45.40625 37.75 41.375 43.109375 
Q 37.359375 48.484375 30.078125 48.484375 
Q 22.859375 48.484375 18.828125 43.109375 
Q 14.796875 37.75 14.796875 27.984375 
Q 14.796875 18.265625 18.828125 12.890625 
Q 22.859375 7.515625 30.078125 7.515625 
Q 37.359375 7.515625 41.375 12.890625 
Q 45.40625 18.265625 45.40625 27.984375 
z
M 54.390625 6.78125 
Q 54.390625 -7.171875 48.1875 -13.984375 
Q 42 -20.796875 29.203125 -20.796875 
Q 24.46875 -20.796875 20.265625 -20.09375 
Q 16.0625 -19.390625 12.109375 -17.921875 
L 12.109375 -9.1875 
Q 16.0625 -11.328125 19.921875 -12.34375 
Q 23.78125 -13.375 27.78125 -13.375 
Q 36.625 -13.375 41.015625 -8.765625 
Q 45.40625 -4.15625 45.40625 5.171875 
L 45.40625 9.625 
Q 42.625 4.78125 38.28125 2.390625 
Q 33.9375 0 27.875 0 
Q 17.828125 0 11.671875 7.65625 
Q 5.515625 15.328125 5.515625 27.984375 
Q 5.515625 40.671875 11.671875 48.328125 
Q 17.828125 56 27.875 56 
Q 33.9375 56 38.28125 53.609375 
Q 42.625 51.21875 45.40625 46.390625 
L 45.40625 54.6875 
L 54.390625 54.6875 
z
" id="DejaVuSans-67"/>
     </defs>
     <g transform="translate(79.017187 246.209219)rotate(-90)scale(0.1 -0.1)">
      <use xlink:href="#DejaVuSans-56"/>
      <use x="68.298828" xlink:href="#DejaVuSans-6f"/>
      <use x="129.480469" xlink:href="#DejaVuSans-6c"/>
      <use x="157.263672" xlink:href="#DejaVuSans-74"/>
      <use x="196.472656" xlink:href="#DejaVuSans-61"/>
      <use x="257.751953" xlink:href="#DejaVuSans-67"/>
      <use x="321.228516" xlink:href="#DejaVuSans-65"/>
      <use x="382.751953" xlink:href="#DejaVuSans-20"/>
      <use x="414.539062" xlink:href="#DejaVuSans-5b"/>
      <use x="453.552734" xlink:href="#DejaVuSans-56"/>
      <use x="521.960938" xlink:href="#DejaVuSans-5d"/>
     </g>
    </g>
   </g>
   <g id="line2d_13">
    <path clip-path="url(#pd8039e52db)" d="M 138.436364 367.544068 
L 232.961819 367.655033 
L 241.46017 367.844881 
L 242.333383 367.55071 
L 243.062206 367.070415 
L 243.729148 366.358535 
L 244.389214 365.314336 
L 245.069907 363.795105 
L 245.784979 361.624906 
L 246.561931 358.513042 
L 247.407641 354.158371 
L 248.349611 348.07352 
L 249.408467 339.703101 
L 250.64004 328.103942 
L 252.152691 311.611946 
L 254.201647 286.614903 
L 263.22255 173.581643 
L 265.237127 152.363183 
L 266.969801 136.380764 
L 268.544333 123.846744 
L 270.015731 113.848876 
L 271.459625 105.569815 
L 272.85539 98.888865 
L 274.203025 93.53814 
L 275.543784 89.153091 
L 276.877668 85.591822 
L 278.177173 82.776802 
L 279.414797 80.603164 
L 280.63867 78.863905 
L 281.96664 77.361716 
L 283.21114 76.258868 
L 284.606905 75.338669 
L 285.796399 74.860305 
L 286.60773 74.768856 
L 287.288423 74.903295 
L 287.907235 75.243493 
L 288.498545 75.806348 
L 289.165486 76.771029 
L 289.853055 78.184255 
L 290.59563 80.238116 
L 291.448215 83.314807 
L 292.362682 87.477448 
L 293.421538 93.360462 
L 294.69354 101.765761 
L 296.247446 113.623982 
L 298.310152 131.148425 
L 303.686941 177.488776 
L 305.247722 188.632084 
L 306.519725 196.198767 
L 307.599208 201.358121 
L 308.534301 204.806471 
L 309.345633 207.001679 
L 310.040077 208.289933 
L 310.638262 208.969236 
L 311.153939 209.242612 
L 311.621486 209.246712 
L 312.089032 209.024229 
L 312.611585 208.512491 
L 313.203925 207.601089 
L 313.884619 206.120097 
L 314.654696 203.879835 
L 315.514157 200.657249 
L 316.476753 196.131125 
L 317.563112 189.885176 
L 318.835114 181.183713 
L 320.457777 168.415033 
L 326.006458 123.389974 
L 327.601617 112.949799 
L 329.073015 104.743052 
L 330.441277 98.296935 
L 331.816415 92.871163 
L 333.16405 88.459524 
L 334.408549 85.075934 
L 335.673676 82.219166 
L 337.069441 79.644695 
L 338.355195 77.721297 
L 339.771586 76.012604 
L 341.119221 74.714186 
L 342.838144 73.42869 
L 344.385174 72.554215 
L 345.884074 71.920289 
L 347.211082 71.557974 
L 348.179247 71.494606 
L 348.9562 71.660854 
L 349.575012 72.001052 
L 350.235078 72.638954 
L 350.874517 73.598665 
L 351.534583 75.017606 
L 352.215277 77.011081 
L 352.978478 79.963025 
L 353.831063 84.223575 
L 354.759281 90.050179 
L 355.838765 98.361545 
L 357.021383 109.255086 
L 358.403396 124.100016 
L 360.08794 144.720533 
L 362.315663 174.947654 
L 369.940802 280.750924 
L 371.542838 298.764368 
L 372.897348 311.617985 
L 374.121221 321.204062 
L 375.248834 328.363004 
L 376.30769 333.725259 
L 377.297789 337.655377 
L 378.219131 340.454692 
L 379.053634 342.321978 
L 379.787545 343.453759 
L 380.413232 344.041208 
L 380.956412 344.26511 
L 381.451461 344.23271 
L 381.946511 343.969163 
L 382.482815 343.414812 
L 383.081 342.453634 
L 383.747941 340.934026 
L 384.490516 338.652115 
L 385.301847 335.401672 
L 386.195687 330.854401 
L 387.185786 324.605121 
L 388.306523 316.033003 
L 389.612904 304.229303 
L 391.228691 287.471859 
L 393.497668 261.381088 
L 400.827152 175.553226 
L 402.821102 155.462786 
L 404.47938 140.912379 
L 405.950778 129.88681 
L 407.325916 121.207812 
L 408.639172 114.287977 
L 409.911174 108.718323 
L 411.190053 104.085518 
L 412.455179 100.306315 
L 413.727182 97.176195 
L 414.992308 94.613156 
L 416.291814 92.449706 
L 417.625697 90.625956 
L 419.207106 88.857374 
L 421.063542 87.136256 
L 427.643576 81.28182 
L 431.84304 77.189753 
L 434.263282 75.152293 
L 436.33974 73.714963 
L 438.374944 72.594721 
L 440.083347 71.853939 
L 442.833622 70.977476 
L 445.583898 70.396232 
L 448.258541 70.025717 
L 452.377078 69.690489 
L 463.563824 69.397258 
L 503.587895 69.286178 
L 509.604123 68.957659 
L 513.062663 68.818996 
L 514.128395 69.006863 
L 514.919099 69.38036 
L 515.599792 69.9539 
L 516.239231 70.784142 
L 516.899297 72.014719 
L 517.607493 73.843687 
L 518.322565 76.305835 
L 519.12702 79.890463 
L 520.027735 84.978025 
L 521.038462 92.037194 
L 522.17295 101.58187 
L 523.479331 114.492245 
L 525.101994 132.916759 
L 527.157825 159.012052 
L 530.884448 209.781437 
L 534.006011 250.960868 
L 535.896825 273.096993 
L 537.416352 288.410572 
L 538.736484 299.566579 
L 539.912227 307.707075 
L 540.980365 313.627712 
L 541.942962 317.785532 
L 542.802423 320.580722 
L 543.558749 322.345377 
L 544.218815 323.369003 
L 544.789497 323.877262 
L 545.291422 324.04331 
L 545.758969 323.966673 
L 546.247143 323.652244 
L 546.790322 323.022915 
L 547.409134 321.945614 
L 548.110455 320.251582 
L 548.894283 317.743262 
L 549.76062 314.185647 
L 550.716341 309.277652 
L 551.788948 302.547796 
L 553.019696 293.33201 
L 554.484218 280.581546 
L 556.368157 262.076966 
L 559.475968 228.988381 
L 563.367608 188.139133 
L 565.464693 168.446146 
L 567.149237 154.63324 
L 568.606883 144.434981 
L 569.913263 136.790095 
L 571.109633 131.046416 
L 572.202868 126.83057 
L 573.199843 123.827038 
L 574.073055 121.856946 
L 574.81563 120.687028 
L 575.434441 120.091496 
L 575.956994 119.877387 
L 576.417665 119.923062 
L 576.878336 120.202004 
L 577.373386 120.776712 
L 577.937192 121.797281 
L 578.576631 123.450708 
L 579.298579 125.978684 
L 580.10991 129.682021 
L 581.017501 134.91995 
L 582.041978 142.208113 
L 583.197094 152.106283 
L 584.524102 165.50106 
L 586.078008 183.562489 
L 588.0032 208.69591 
L 590.918492 250.064201 
L 594.129439 294.849731 
L 595.731475 314.13279 
L 597.037855 327.311372 
L 598.213598 337.018569 
L 599.306833 344.279908 
L 600.351937 349.792889 
L 601.362664 353.982905 
L 602.352763 357.181265 
L 603.335986 359.636162 
L 604.326085 361.52972 
L 605.336812 362.994559 
L 606.388792 364.133969 
L 607.516405 365.028478 
L 608.760905 365.730709 
L 610.204799 366.285415 
L 611.971851 366.717687 
L 614.295834 367.044324 
L 617.658046 367.273985 
L 623.770533 367.432393 
L 637.31564 367.527989 
L 689.653382 367.544065 
L 747.163636 367.544068 
L 747.163636 367.544068 
" style="fill:none;stroke:#ff0000;stroke-linecap:square;stroke-width:1.5;"/>
   </g>
   <g id="line2d_14">
    <path clip-path="url(#pd8039e52db)" d="M 138.436364 69.342836 
L 247.380138 69.231756 
L 254.868588 68.801601 
L 256.071834 68.911687 
L 256.938171 69.21287 
L 257.701372 69.750875 
L 258.382065 70.542847 
L 259.014629 71.623081 
L 259.667819 73.163788 
L 260.369139 75.37992 
L 261.152968 78.62932 
L 262.012429 83.198757 
L 262.981901 89.65059 
L 264.061384 98.430877 
L 265.278381 110.244865 
L 266.694773 126.312421 
L 268.351814 147.794317 
L 270.428272 177.795973 
L 273.680473 228.48862 
L 277.235204 282.987757 
L 278.94725 305.899305 
L 280.308637 321.286862 
L 281.512845 332.486655 
L 282.626706 340.853586 
L 283.685562 347.188429 
L 284.703164 351.985568 
L 285.700139 355.656127 
L 286.683363 358.460171 
L 287.666586 360.615457 
L 288.663561 362.28025 
L 289.688039 363.569705 
L 290.774397 364.585058 
L 291.963892 365.392081 
L 293.318402 366.037779 
L 294.934189 366.55476 
L 296.99002 366.968586 
L 299.73342 367.282476 
L 302.545577 367.39431 
L 304.429515 367.26002 
L 305.976545 366.928178 
L 307.46857 366.376657 
L 309.139362 365.509968 
L 314.69595 362.408671 
L 315.961077 362.087036 
L 317.129944 362.017388 
L 318.298811 362.17259 
L 319.598316 362.577336 
L 321.351616 363.378687 
L 325.745182 365.466882 
L 327.876645 366.178188 
L 330.138747 366.69414 
L 332.81339 367.066996 
L 336.354369 367.321259 
L 341.923677 367.473139 
L 358.692175 367.820428 
L 362.748832 367.907721 
L 363.828315 367.695885 
L 364.660273 367.309315 
L 365.389096 366.724285 
L 366.083541 365.874868 
L 366.784861 364.649464 
L 367.513684 362.903538 
L 368.290637 360.433324 
L 369.136347 356.961605 
L 370.064565 352.163107 
L 371.102794 345.563031 
L 372.285412 336.538713 
L 373.681177 324.080834 
L 375.434477 306.294794 
L 378.012861 277.608157 
L 383.204762 219.579783 
L 385.294971 198.917294 
L 386.979515 184.356997 
L 388.430285 173.663251 
L 389.709163 165.805922 
L 390.864279 160.018755 
L 391.91626 155.824107 
L 392.865105 152.90074 
L 393.703939 150.986189 
L 394.425886 149.847433 
L 395.037822 149.263754 
L 395.553499 149.05628 
L 396.021046 149.103843 
L 396.481717 149.380127 
L 396.990518 149.962116 
L 397.5612 150.976373 
L 398.207515 152.606639 
L 398.936338 155.081064 
L 399.76142 158.715789 
L 400.682763 163.827157 
L 401.727867 170.945197 
L 402.917361 180.665712 
L 404.293737 193.849016 
L 405.950778 211.994686 
L 408.150998 238.74652 
L 413.644673 306.625599 
L 415.150449 321.86833 
L 416.443079 332.797182 
L 417.618821 340.932907 
L 418.732683 347.145858 
L 419.798415 351.880539 
L 420.836644 355.520778 
L 421.861121 358.331489 
L 422.878723 360.499022 
L 423.910077 362.189485 
L 424.968933 363.509344 
L 426.082794 364.548317 
L 427.28604 365.368558 
L 428.64055 366.019823 
L 430.227253 366.530309 
L 432.207452 366.923885 
L 434.868343 367.21189 
L 438.911248 367.404686 
L 446.580872 367.511447 
L 471.16146 367.543569 
L 520.605293 367.658633 
L 529.199904 367.84863 
L 530.196879 367.572501 
L 531.015086 367.115092 
L 531.75766 366.438057 
L 532.479608 365.465818 
L 533.215306 364.081478 
L 533.985384 362.133175 
L 534.817342 359.388876 
L 535.724933 355.590791 
L 536.735659 350.358477 
L 537.883899 343.179352 
L 539.224658 333.306361 
L 540.87558 319.385108 
L 543.187461 297.842404 
L 548.131082 251.44045 
L 550.070026 235.553331 
L 551.65831 224.287412 
L 553.026572 216.095873 
L 554.243569 210.091442 
L 555.336803 205.753608 
L 556.320027 202.703108 
L 557.200115 200.651906 
L 557.963317 199.396777 
L 558.616507 198.718344 
L 559.173438 198.438159 
L 559.668487 198.428244 
L 560.156661 198.647074 
L 560.679214 199.142088 
L 561.263647 200.026652 
L 561.923713 201.459783 
L 562.666288 203.6369 
L 563.505122 206.82502 
L 564.453967 211.356784 
L 565.526574 217.621421 
L 566.764198 226.243438 
L 568.221844 238.055637 
L 570.064529 254.935717 
L 573.92179 293.020614 
L 576.025751 312.311526 
L 577.552154 324.359478 
L 578.872286 333.091929 
L 580.075531 339.631184 
L 581.21002 344.620973 
L 582.296379 348.436956 
L 583.341483 351.330703 
L 584.345334 353.485113 
L 585.287303 355.008899 
L 586.146764 356.000463 
L 586.90309 356.552473 
L 587.556281 356.769996 
L 588.14759 356.73866 
L 588.711396 356.484103 
L 589.288954 355.969425 
L 589.900891 355.110613 
L 590.560957 353.780168 
L 591.276028 351.812263 
L 592.052981 348.988936 
L 592.898691 345.03351 
L 593.826909 339.57055 
L 594.858262 332.103889 
L 596.040881 321.821338 
L 597.450397 307.489016 
L 599.258703 286.650936 
L 602.201498 249.749549 
L 606.876966 191.454037 
L 609.242203 164.74179 
L 611.133017 145.801563 
L 612.796934 131.287238 
L 614.330212 119.794288 
L 615.774107 110.588542 
L 617.156121 103.152397 
L 618.517507 97.015912 
L 619.817012 92.128145 
L 621.116517 88.059686 
L 622.491655 84.513576 
L 623.846166 81.660287 
L 625.118168 79.461798 
L 626.527684 77.475033 
L 627.930325 75.87891 
L 629.477355 74.470158 
L 631.182525 73.25623 
L 633.011459 72.262723 
L 634.929776 71.483424 
L 637.652549 70.714562 
L 639.577741 70.34181 
L 642.073616 70.0036 
L 646.05464 69.683531 
L 657.048866 69.397258 
L 747.163636 69.342836 
L 747.163636 69.342836 
" style="fill:none;stroke:#008000;stroke-linecap:square;stroke-width:1.5;"/>
   </g>
   <g id="line2d_15">
    <path clip-path="url(#pd8039e52db)" d="M 138.436364 367.544089 
L 218.522873 367.433513 
L 224.518473 367.197457 
L 228.203843 366.844924 
L 230.899113 366.376952 
L 233.044327 365.790476 
L 234.859509 365.071137 
L 236.454669 364.201741 
L 237.884812 363.169111 
L 239.204945 361.940166 
L 240.470071 360.447465 
L 241.680192 358.660213 
L 242.835308 356.551621 
L 243.990424 353.966045 
L 245.14554 350.807754 
L 246.300655 346.967956 
L 247.455771 342.326151 
L 248.610887 336.753371 
L 249.826096 329.741316 
L 251.03883 321.426419 
L 252.303957 311.220187 
L 253.679094 298.256972 
L 255.164243 282.076214 
L 256.869414 260.974811 
L 259.179645 229.336291 
L 263.470075 170.220375 
L 265.285257 148.598147 
L 266.825411 132.784158 
L 268.255554 120.317061 
L 269.575687 110.656019 
L 270.840813 102.941494 
L 272.050935 96.836091 
L 273.261056 91.829941 
L 274.416171 87.945717 
L 275.571287 84.817843 
L 276.671397 82.448271 
L 277.771508 80.596075 
L 278.816612 79.258594 
L 279.806711 78.331352 
L 280.796811 77.706665 
L 281.746618 77.373813 
L 282.681712 77.290915 
L 283.5618 77.431574 
L 284.496894 77.815648 
L 285.431987 78.449488 
L 286.422087 79.408369 
L 287.412186 80.686261 
L 288.45729 82.414701 
L 289.502395 84.575509 
L 290.602505 87.372358 
L 291.757621 90.955477 
L 292.912737 95.278357 
L 294.122858 100.683898 
L 295.387985 107.374296 
L 296.763122 115.911301 
L 298.248271 126.601675 
L 299.953442 140.555117 
L 302.538701 163.840943 
L 305.12396 186.567048 
L 306.554103 197.288928 
L 307.709219 204.342958 
L 308.644312 208.768286 
L 309.41439 211.454201 
L 310.074456 213.029468 
L 310.624511 213.816899 
L 311.064555 214.100518 
L 311.449593 214.096864 
L 311.834632 213.860298 
L 312.274676 213.309028 
L 312.791384 212.288253 
L 313.45145 210.419757 
L 314.221527 207.487035 
L 315.156621 202.936988 
L 316.256731 196.390754 
L 317.631869 186.793533 
L 319.667073 170.822622 
L 324.012508 136.389141 
L 325.882695 123.5229 
L 327.532861 113.641722 
L 329.073015 105.716216 
L 330.558164 99.21986 
L 331.988307 93.949671 
L 333.363445 89.705884 
L 334.738582 86.179984 
L 336.058715 83.390946 
L 337.378847 81.115797 
L 338.643974 79.363077 
L 339.9091 77.986575 
L 341.119221 76.993906 
L 342.274337 76.326899 
L 343.374447 75.942556 
L 344.419552 75.809189 
L 345.409651 75.903056 
L 346.344745 76.20545 
L 347.279839 76.738425 
L 348.227377 77.544577 
L 349.162471 78.641776 
L 350.097565 80.086928 
L 351.032658 81.938567 
L 352.022757 84.419855 
L 353.012857 87.532087 
L 354.002956 91.386375 
L 355.04806 96.396348 
L 356.093165 102.525614 
L 357.193275 110.357694 
L 358.348391 120.281536 
L 359.558512 132.694088 
L 360.878644 148.643026 
L 362.363793 169.387626 
L 364.343992 200.503404 
L 368.469405 266.232402 
L 370.009559 286.831518 
L 371.329691 301.706781 
L 372.539812 312.952301 
L 373.639923 321.232005 
L 374.685027 327.483567 
L 375.620121 331.84475 
L 376.500209 334.972963 
L 377.325292 337.114353 
L 378.040363 338.39612 
L 378.70043 339.136331 
L 379.271868 339.451778 
L 379.766918 339.491307 
L 380.261967 339.321256 
L 380.812022 338.893718 
L 381.417083 338.140991 
L 382.132154 336.878842 
L 382.957237 334.930273 
L 383.892331 332.091552 
L 384.88243 328.3574 
L 385.98254 323.323654 
L 387.192661 316.697629 
L 388.512794 308.153505 
L 389.942937 297.350173 
L 391.483091 283.972957 
L 393.243267 266.670492 
L 395.443488 242.653993 
L 402.979243 158.195097 
L 404.809413 141.308761 
L 406.459579 128.074736 
L 407.999733 117.458273 
L 409.484882 108.742214 
L 410.915025 101.651155 
L 412.290163 95.91522 
L 413.6653 91.114089 
L 415.040438 87.123548 
L 416.36057 83.946038 
L 417.735708 81.212846 
L 419.110846 78.973808 
L 420.485984 77.145591 
L 421.916127 75.603433 
L 423.401276 74.318185 
L 424.996435 73.226161 
L 426.756612 72.294328 
L 428.695694 71.522493 
L 430.901071 70.885593 
L 433.541335 70.36203 
L 436.78666 69.954634 
L 441.087197 69.653673 
L 447.357825 69.458534 
L 458.798971 69.361807 
L 490.654725 69.377252 
L 498.355496 69.550711 
L 502.260887 69.845106 
L 504.956157 70.258707 
L 507.046366 70.796403 
L 508.751537 71.456275 
L 510.236686 72.265174 
L 511.556818 73.234308 
L 512.78076 74.409835 
L 513.935875 75.832865 
L 515.035985 77.544302 
L 516.136096 79.686965 
L 517.1812 82.211427 
L 518.226305 85.312462 
L 519.27141 89.102498 
L 520.37152 93.973648 
L 521.47163 99.902374 
L 522.626746 107.438572 
L 523.781861 116.484098 
L 524.991983 127.721735 
L 526.312115 142.114027 
L 527.797264 160.860282 
L 529.612446 186.769908 
L 535.112996 267.479246 
L 536.54314 284.222704 
L 537.808266 296.570351 
L 538.963382 305.729829 
L 540.008487 312.298376 
L 540.966614 316.943294 
L 541.791697 319.942224 
L 542.561774 321.951175 
L 543.22184 323.097413 
L 543.771895 323.66548 
L 544.266945 323.887759 
L 544.706989 323.863253 
L 545.202038 323.593658 
L 545.752093 323.002861 
L 546.357154 322.01036 
L 547.072226 320.390359 
L 547.897308 317.940657 
L 548.832402 314.440138 
L 549.877507 309.651688 
L 551.087628 302.999334 
L 552.40776 294.453019 
L 553.892909 283.340326 
L 555.59808 268.836519 
L 557.688289 249.007894 
L 560.933614 215.709594 
L 564.453967 180.212829 
L 566.48917 161.867028 
L 568.194341 148.42586 
L 569.67949 138.425848 
L 570.999622 131.013483 
L 572.154738 125.750156 
L 573.144837 122.198906 
L 574.024925 119.82393 
L 574.739997 118.46084 
L 575.345058 117.720797 
L 575.840107 117.40742 
L 576.280151 117.356709 
L 576.720195 117.526829 
L 577.215245 117.99022 
L 577.7653 118.854154 
L 578.370361 120.244601 
L 579.085432 122.506802 
L 579.855509 125.725533 
L 580.735597 130.441096 
L 581.670691 136.708427 
L 582.715796 145.280725 
L 583.870912 156.670356 
L 585.191044 172.010288 
L 586.786204 193.340888 
L 589.206446 229.18468 
L 592.176743 272.441243 
L 593.881914 294.007932 
L 595.312058 309.452364 
L 596.63219 321.452165 
L 597.897316 331.001473 
L 599.107438 338.510025 
L 600.262553 344.373025 
L 601.417669 349.141749 
L 602.572785 352.98769 
L 603.7279 356.068069 
L 604.883016 358.521488 
L 606.038132 360.466701 
L 607.248253 362.067755 
L 608.51338 363.363829 
L 609.833512 364.396163 
L 611.263655 365.233237 
L 612.858815 365.910571 
L 614.729002 366.459295 
L 617.039234 366.892446 
L 620.009531 367.208071 
L 624.244956 367.415623 
L 631.615694 367.521777 
L 655.928129 367.544245 
L 687.28127 367.544093 
L 687.28127 367.544093 
" style="fill:none;stroke:#ff0000;stroke-dasharray:5.55,2.4;stroke-dashoffset:0;stroke-width:1.5;"/>
   </g>
   <g id="line2d_16">
    <path clip-path="url(#pd8039e52db)" d="M 138.436364 68.982251 
L 170.21786 68.603704 
L 196.730515 68.068464 
L 227.928815 67.192825 
L 240.030027 66.960342 
L 244.595484 67.08182 
L 247.510776 67.37222 
L 249.655991 67.80138 
L 251.368863 68.362941 
L 252.799006 69.05443 
L 254.064133 69.902175 
L 255.219249 70.935002 
L 256.319359 72.217391 
L 257.364463 73.77981 
L 258.409568 75.764296 
L 259.399667 78.127658 
L 260.389767 81.068395 
L 261.379866 84.709283 
L 262.369965 89.189887 
L 263.41507 95.000195 
L 264.460174 102.106996 
L 265.560284 111.192043 
L 266.7154 122.699975 
L 267.925521 137.058292 
L 269.300659 156.2112 
L 270.950824 182.633787 
L 273.921122 234.812506 
L 276.066337 270.420553 
L 277.606491 292.426206 
L 278.926623 308.314243 
L 280.19175 320.916626 
L 281.36158 330.434703 
L 282.516695 338.046656 
L 283.616806 343.877769 
L 284.716916 348.548089 
L 285.817026 352.261602 
L 286.917136 355.19883 
L 288.017246 357.513993 
L 289.117356 359.335492 
L 290.272472 360.831238 
L 291.482593 362.043986 
L 292.802726 363.054142 
L 294.287874 363.903925 
L 295.993045 364.616175 
L 298.083255 365.235798 
L 300.778525 365.788842 
L 304.738921 366.351863 
L 312.219671 367.14821 
L 328.082916 368.600661 
L 336.663775 369.183519 
L 342.329343 369.358379 
L 346.39975 369.271863 
L 349.492504 368.994405 
L 352.022757 368.549597 
L 354.112967 367.964084 
L 355.928149 367.233096 
L 357.578314 366.329614 
L 359.063463 365.265575 
L 360.4386 364.013681 
L 361.758733 362.514174 
L 363.023859 360.744376 
L 364.288986 358.582408 
L 365.554113 355.952092 
L 366.764234 352.917758 
L 367.974355 349.290333 
L 369.239482 344.763503 
L 370.504609 339.376253 
L 371.824741 332.716856 
L 373.144873 324.881474 
L 374.520011 315.366658 
L 376.00516 303.471032 
L 377.600319 288.83933 
L 379.436885 269.851965 
L 381.912132 241.701297 
L 386.147557 193.361437 
L 387.907733 176.008433 
L 389.337876 164.027677 
L 390.547997 155.657753 
L 391.593102 149.864473 
L 392.528196 145.875718 
L 393.298273 143.469553 
L 393.958339 142.054107 
L 394.508394 141.338028 
L 394.948438 141.071754 
L 395.333477 141.063933 
L 395.718515 141.267338 
L 396.158559 141.759457 
L 396.708615 142.76521 
L 397.313675 144.373373 
L 398.028747 146.950233 
L 398.853829 150.826503 
L 399.788923 156.367333 
L 400.834028 163.950662 
L 402.044149 174.442707 
L 403.474292 188.922559 
L 405.249458 209.310286 
L 412.290163 292.897139 
L 413.885323 307.892087 
L 415.370471 319.830685 
L 416.745609 329.174575 
L 418.065741 336.702576 
L 419.385873 342.959505 
L 420.651 347.908961 
L 421.916127 351.976606 
L 423.181254 355.29605 
L 424.44638 357.988922 
L 425.711507 360.162567 
L 426.976634 361.909558 
L 428.296766 363.362304 
L 429.690949 364.566637 
L 431.176098 365.555006 
L 432.826263 366.377984 
L 434.641445 367.032 
L 436.78666 367.560479 
L 439.371919 367.95808 
L 442.682357 368.230043 
L 447.357825 368.371611 
L 455.278619 368.356381 
L 499.675628 367.78749 
L 508.256488 367.513681 
L 513.000782 367.153588 
L 516.356118 366.688744 
L 518.996382 366.108162 
L 521.196603 365.402236 
L 523.06679 364.576972 
L 524.771961 363.581467 
L 526.312115 362.423673 
L 527.742258 361.070763 
L 529.117396 359.457616 
L 530.437528 357.558126 
L 531.702655 355.350308 
L 532.967782 352.692317 
L 534.232908 349.505625 
L 535.498035 345.704262 
L 536.763162 341.197116 
L 538.083294 335.641727 
L 539.403426 329.118307 
L 540.778564 321.204698 
L 542.231741 311.538736 
L 543.826901 299.387797 
L 545.642082 283.7737 
L 548.062325 260.840407 
L 551.91271 224.31304 
L 553.50787 211.397632 
L 554.772997 202.890124 
L 555.818102 197.290109 
L 556.69819 193.70202 
L 557.413261 191.600151 
L 558.018322 190.414598 
L 558.513372 189.857911 
L 558.953416 189.678888 
L 559.338454 189.76711 
L 559.723493 190.083776 
L 560.218542 190.824919 
L 560.768597 192.08418 
L 561.428664 194.188029 
L 562.198741 197.430749 
L 563.133834 202.442367 
L 564.233945 209.70308 
L 565.554077 220.062104 
L 567.259248 235.397897 
L 574.244947 300.50311 
L 575.840107 312.263869 
L 577.325256 321.606503 
L 578.700394 328.862529 
L 579.96552 334.389142 
L 581.175642 338.693743 
L 582.275752 341.816501 
L 583.265851 344.013091 
L 584.200945 345.573152 
L 585.026027 346.544807 
L 585.796104 347.113579 
L 586.45617 347.341747 
L 587.116237 347.328812 
L 587.776303 347.071188 
L 588.436369 346.563342 
L 589.15144 345.722066 
L 589.921518 344.46384 
L 590.7466 342.689752 
L 591.681694 340.112972 
L 592.671793 336.680887 
L 593.716898 332.209203 
L 594.817008 326.482623 
L 595.972124 319.257595 
L 597.182245 310.273032 
L 598.502377 298.757769 
L 599.93252 284.274945 
L 601.582686 265.173618 
L 603.672895 238.133023 
L 609.448473 161.723312 
L 611.153644 142.870736 
L 612.693799 128.215923 
L 614.123942 116.680237 
L 615.49908 107.384442 
L 616.819212 99.97178 
L 618.084338 94.097736 
L 619.349465 89.266371 
L 620.559586 85.477988 
L 621.769708 82.37646 
L 622.979829 79.849206 
L 624.244956 77.714433 
L 625.510082 76.003752 
L 626.830215 74.583911 
L 628.205352 73.421683 
L 629.690501 72.451583 
L 631.340666 71.640246 
L 633.210854 70.97283 
L 635.411074 70.431277 
L 638.106344 70.007065 
L 641.626697 69.692498 
L 646.687203 69.483848 
L 655.543091 69.3747 
L 683.980939 69.345846 
L 687.28127 69.345544 
L 687.28127 69.345544 
" style="fill:none;stroke:#008000;stroke-dasharray:5.55,2.4;stroke-dashoffset:0;stroke-width:1.5;"/>
   </g>
   <g id="patch_3">
    <path d="M 108 384.48 
L 108 51.84 
" style="fill:none;stroke:#000000;stroke-linecap:square;stroke-linejoin:miter;stroke-width:0.8;"/>
   </g>
   <g id="patch_4">
    <path d="M 777.6 384.48 
L 777.6 51.84 
" style="fill:none;stroke:#000000;stroke-linecap:square;stroke-linejoin:miter;stroke-width:0.8;"/>
   </g>
   <g id="patch_5">
    <path d="M 108 384.48 
L 777.6 384.48 
" style="fill:none;stroke:#000000;stroke-linecap:square;stroke-linejoin:miter;stroke-width:0.8;"/>
   </g>
   <g id="patch_6">
    <path d="M 108 51.84 
L 777.6 51.84 
" style="fill:none;stroke:#000000;stroke-linecap:square;stroke-linejoin:miter;stroke-width:0.8;"/>
   </g>
   <g id="text_16">
    <!-- In  RMSE: 0.01259 -->
    <defs>
     <path d="M 9.8125 72.90625 
L 50.296875 72.90625 
L 50.296875 64.59375 
L 35.015625 64.59375 
L 35.015625 8.296875 
L 50.296875 8.296875 
L 50.296875 0 
L 9.8125 0 
L 9.8125 8.296875 
L 25.09375 8.296875 
L 25.09375 64.59375 
L 9.8125 64.59375 
z
" id="DejaVuSansMono-49"/>
     <path d="M 51.3125 33.890625 
L 51.3125 0 
L 42.28125 0 
L 42.28125 33.890625 
Q 42.28125 41.265625 39.6875 44.71875 
Q 37.109375 48.1875 31.59375 48.1875 
Q 25.296875 48.1875 21.890625 43.71875 
Q 18.5 39.265625 18.5 30.90625 
L 18.5 0 
L 9.515625 0 
L 9.515625 54.6875 
L 18.5 54.6875 
L 18.5 46.484375 
Q 20.90625 51.171875 25 53.578125 
Q 29.109375 56 34.71875 56 
Q 43.0625 56 47.1875 50.5 
Q 51.3125 45.015625 51.3125 33.890625 
z
" id="DejaVuSansMono-6e"/>
     <path id="DejaVuSansMono-20"/>
     <path d="M 37.109375 34.421875 
Q 40.921875 33.453125 43.609375 30.734375 
Q 46.296875 28.03125 50.296875 19.921875 
L 60.203125 0 
L 49.609375 0 
L 40.921875 18.40625 
Q 37.15625 26.265625 34.15625 28.53125 
Q 31.15625 30.8125 26.3125 30.8125 
L 16.890625 30.8125 
L 16.890625 0 
L 6.984375 0 
L 6.984375 72.90625 
L 27.296875 72.90625 
Q 39.3125 72.90625 45.703125 67.484375 
Q 52.09375 62.0625 52.09375 51.8125 
Q 52.09375 44.578125 48.15625 40.015625 
Q 44.234375 35.453125 37.109375 34.421875 
z
M 16.890625 64.796875 
L 16.890625 38.921875 
L 27.6875 38.921875 
Q 34.765625 38.921875 38.234375 42.09375 
Q 41.703125 45.265625 41.703125 51.8125 
Q 41.703125 58.109375 38.015625 61.453125 
Q 34.328125 64.796875 27.296875 64.796875 
z
" id="DejaVuSansMono-52"/>
     <path d="M 4.203125 72.90625 
L 17.390625 72.90625 
L 29.984375 35.796875 
L 42.671875 72.90625 
L 55.90625 72.90625 
L 55.90625 0 
L 46.78125 0 
L 46.78125 64.40625 
L 33.796875 25.984375 
L 26.3125 25.984375 
L 13.28125 64.40625 
L 13.28125 0 
L 4.203125 0 
z
" id="DejaVuSansMono-4d"/>
     <path d="M 49.421875 70.40625 
L 49.421875 60.40625 
Q 44.921875 63.28125 40.40625 64.75 
Q 35.890625 66.21875 31.296875 66.21875 
Q 24.3125 66.21875 20.265625 62.96875 
Q 16.21875 59.71875 16.21875 54.203125 
Q 16.21875 49.359375 18.875 46.8125 
Q 21.53125 44.28125 28.8125 42.578125 
L 33.984375 41.40625 
Q 44.234375 39.015625 48.921875 33.890625 
Q 53.609375 28.765625 53.609375 19.921875 
Q 53.609375 9.515625 47.15625 4.046875 
Q 40.71875 -1.421875 28.421875 -1.421875 
Q 23.296875 -1.421875 18.109375 -0.3125 
Q 12.9375 0.78125 7.71875 2.984375 
L 7.71875 13.484375 
Q 13.328125 9.90625 18.328125 8.25 
Q 23.34375 6.59375 28.421875 6.59375 
Q 35.890625 6.59375 40.03125 9.9375 
Q 44.1875 13.28125 44.1875 19.28125 
Q 44.1875 24.75 41.328125 27.625 
Q 38.484375 30.515625 31.390625 32.078125 
L 26.125 33.296875 
Q 15.96875 35.59375 11.375 40.234375 
Q 6.78125 44.875 6.78125 52.6875 
Q 6.78125 62.453125 13.34375 68.328125 
Q 19.921875 74.21875 30.8125 74.21875 
Q 35.015625 74.21875 39.640625 73.265625 
Q 44.28125 72.3125 49.421875 70.40625 
z
" id="DejaVuSansMono-53"/>
     <path d="M 9.625 72.90625 
L 52.875 72.90625 
L 52.875 64.59375 
L 19.484375 64.59375 
L 19.484375 43.015625 
L 51.421875 43.015625 
L 51.421875 34.71875 
L 19.484375 34.71875 
L 19.484375 8.296875 
L 53.8125 8.296875 
L 53.8125 0 
L 9.625 0 
z
" id="DejaVuSansMono-45"/>
     <path d="M 23.875 51.90625 
L 36.1875 51.90625 
L 36.1875 37.109375 
L 23.875 37.109375 
z
M 23.875 14.890625 
L 36.1875 14.890625 
L 36.1875 0 
L 23.875 0 
z
" id="DejaVuSansMono-3a"/>
     <path d="M 23.578125 36.625 
Q 23.578125 39.3125 25.453125 41.265625 
Q 27.34375 43.21875 29.984375 43.21875 
Q 32.71875 43.21875 34.671875 41.265625 
Q 36.625 39.3125 36.625 36.625 
Q 36.625 33.890625 34.6875 31.984375 
Q 32.765625 30.078125 29.984375 30.078125 
Q 27.25 30.078125 25.40625 31.9375 
Q 23.578125 33.796875 23.578125 36.625 
z
M 30.078125 66.40625 
Q 23.1875 66.40625 19.796875 58.984375 
Q 16.40625 51.5625 16.40625 36.375 
Q 16.40625 21.234375 19.796875 13.8125 
Q 23.1875 6.390625 30.078125 6.390625 
Q 37.015625 6.390625 40.40625 13.8125 
Q 43.796875 21.234375 43.796875 36.375 
Q 43.796875 51.5625 40.40625 58.984375 
Q 37.015625 66.40625 30.078125 66.40625 
z
M 30.078125 74.21875 
Q 41.75 74.21875 47.734375 64.640625 
Q 53.71875 55.078125 53.71875 36.375 
Q 53.71875 17.71875 47.734375 8.140625 
Q 41.75 -1.421875 30.078125 -1.421875 
Q 18.40625 -1.421875 12.453125 8.140625 
Q 6.5 17.71875 6.5 36.375 
Q 6.5 55.078125 12.453125 64.640625 
Q 18.40625 74.21875 30.078125 74.21875 
z
" id="DejaVuSansMono-30"/>
     <path d="M 23.875 14.890625 
L 36.1875 14.890625 
L 36.1875 0 
L 23.875 0 
z
" id="DejaVuSansMono-2e"/>
     <path d="M 13.1875 8.296875 
L 28.515625 8.296875 
L 28.515625 64.015625 
L 12.015625 60.296875 
L 12.015625 69.28125 
L 28.421875 72.90625 
L 38.28125 72.90625 
L 38.28125 8.296875 
L 53.421875 8.296875 
L 53.421875 0 
L 13.1875 0 
z
" id="DejaVuSansMono-31"/>
     <path d="M 18.21875 8.296875 
L 51.703125 8.296875 
L 51.703125 0 
L 7.421875 0 
L 7.421875 8.296875 
Q 16.546875 17.921875 23.375 25.296875 
Q 30.21875 32.671875 32.8125 35.6875 
Q 37.703125 41.65625 39.40625 45.34375 
Q 41.109375 49.03125 41.109375 52.875 
Q 41.109375 58.984375 37.515625 62.453125 
Q 33.9375 65.921875 27.6875 65.921875 
Q 23.25 65.921875 18.359375 64.3125 
Q 13.484375 62.703125 8.015625 59.421875 
L 8.015625 69.390625 
Q 13.03125 71.78125 17.890625 73 
Q 22.75 74.21875 27.484375 74.21875 
Q 38.1875 74.21875 44.703125 68.53125 
Q 51.21875 62.84375 51.21875 53.609375 
Q 51.21875 48.921875 49.046875 44.234375 
Q 46.875 39.546875 42 33.890625 
Q 39.265625 30.71875 34.0625 25.09375 
Q 28.859375 19.484375 18.21875 8.296875 
z
" id="DejaVuSansMono-32"/>
     <path d="M 10.109375 72.90625 
L 47.015625 72.90625 
L 47.015625 64.59375 
L 19.09375 64.59375 
L 19.09375 46.6875 
Q 21.1875 47.46875 23.3125 47.828125 
Q 25.4375 48.1875 27.59375 48.1875 
Q 38.921875 48.1875 45.5625 41.5 
Q 52.203125 34.8125 52.203125 23.390625 
Q 52.203125 11.859375 45.234375 5.21875 
Q 38.28125 -1.421875 26.21875 -1.421875 
Q 20.40625 -1.421875 15.59375 -0.640625 
Q 10.796875 0.140625 6.984375 1.703125 
L 6.984375 11.71875 
Q 11.46875 9.28125 16.015625 8.078125 
Q 20.5625 6.890625 25.296875 6.890625 
Q 33.453125 6.890625 37.859375 11.1875 
Q 42.28125 15.484375 42.28125 23.390625 
Q 42.28125 31.203125 37.71875 35.546875 
Q 33.15625 39.890625 25 39.890625 
Q 21.046875 39.890625 17.28125 38.984375 
Q 13.53125 38.09375 10.109375 36.28125 
z
" id="DejaVuSansMono-35"/>
     <path d="M 29.109375 32.328125 
Q 35.40625 32.328125 38.984375 36.859375 
Q 42.578125 41.40625 42.578125 49.421875 
Q 42.578125 57.421875 38.984375 61.953125 
Q 35.40625 66.5 29.109375 66.5 
Q 22.5625 66.5 19.234375 62.171875 
Q 15.921875 57.859375 15.921875 49.421875 
Q 15.921875 40.921875 19.21875 36.625 
Q 22.515625 32.328125 29.109375 32.328125 
z
M 11.53125 1.515625 
L 11.53125 10.59375 
Q 14.59375 8.796875 18.0625 7.84375 
Q 21.53125 6.890625 25.296875 6.890625 
Q 34.671875 6.890625 39.46875 13.9375 
Q 44.28125 21 44.28125 34.71875 
Q 42 29.828125 37.84375 27.21875 
Q 33.6875 24.609375 28.328125 24.609375 
Q 17.78125 24.609375 11.984375 31.09375 
Q 6.203125 37.59375 6.203125 49.515625 
Q 6.203125 61.28125 12.125 67.75 
Q 18.0625 74.21875 28.90625 74.21875 
Q 41.609375 74.21875 47.515625 65.078125 
Q 53.421875 55.953125 53.421875 36.375 
Q 53.421875 17.96875 46.3125 8.265625 
Q 39.203125 -1.421875 25.6875 -1.421875 
Q 22.125 -1.421875 18.5 -0.65625 
Q 14.890625 0.09375 11.53125 1.515625 
z
" id="DejaVuSansMono-39"/>
    </defs>
    <g transform="translate(138.436364 281.732213)scale(0.1 -0.1)">
     <use xlink:href="#DejaVuSansMono-49"/>
     <use x="60.205078" xlink:href="#DejaVuSansMono-6e"/>
     <use x="120.410156" xlink:href="#DejaVuSansMono-20"/>
     <use x="180.615234" xlink:href="#DejaVuSansMono-20"/>
     <use x="240.820312" xlink:href="#DejaVuSansMono-52"/>
     <use x="301.025391" xlink:href="#DejaVuSansMono-4d"/>
     <use x="361.230469" xlink:href="#DejaVuSansMono-53"/>
     <use x="421.435547" xlink:href="#DejaVuSansMono-45"/>
     <use x="481.640625" xlink:href="#DejaVuSansMono-3a"/>
     <use x="541.845703" xlink:href="#DejaVuSansMono-20"/>
     <use x="602.050781" xlink:href="#DejaVuSansMono-30"/>
     <use x="662.255859" xlink:href="#DejaVuSansMono-2e"/>
     <use x="722.460938" xlink:href="#DejaVuSansMono-30"/>
     <use x="782.666016" xlink:href="#DejaVuSansMono-31"/>
     <use x="842.871094" xlink:href="#DejaVuSansMono-32"/>
     <use x="903.076172" xlink:href="#DejaVuSansMono-35"/>
     <use x="963.28125" xlink:href="#DejaVuSansMono-39"/>
    </g>
    <!-- Out RMSE: 0.01315 -->
    <defs>
     <path d="M 44.1875 36.375 
Q 44.1875 52.4375 40.890625 59.328125 
Q 37.59375 66.21875 30.078125 66.21875 
Q 22.609375 66.21875 19.3125 59.328125 
Q 16.015625 52.4375 16.015625 36.375 
Q 16.015625 20.359375 19.3125 13.46875 
Q 22.609375 6.59375 30.078125 6.59375 
Q 37.59375 6.59375 40.890625 13.453125 
Q 44.1875 20.3125 44.1875 36.375 
z
M 54.5 36.375 
Q 54.5 17.328125 48.46875 7.953125 
Q 42.4375 -1.421875 30.078125 -1.421875 
Q 17.71875 -1.421875 11.71875 7.90625 
Q 5.71875 17.234375 5.71875 36.375 
Q 5.71875 55.46875 11.75 64.84375 
Q 17.78125 74.21875 30.078125 74.21875 
Q 42.4375 74.21875 48.46875 64.84375 
Q 54.5 55.46875 54.5 36.375 
z
" id="DejaVuSansMono-4f"/>
     <path d="M 9.515625 20.703125 
L 9.515625 54.59375 
L 18.5 54.59375 
L 18.5 20.703125 
Q 18.5 13.328125 21.109375 9.859375 
Q 23.734375 6.390625 29.203125 6.390625 
Q 35.546875 6.390625 38.90625 10.859375 
Q 42.28125 15.328125 42.28125 23.6875 
L 42.28125 54.59375 
L 51.3125 54.59375 
L 51.3125 0 
L 42.28125 0 
L 42.28125 8.203125 
Q 39.890625 3.46875 35.765625 1.015625 
Q 31.640625 -1.421875 26.125 -1.421875 
Q 17.71875 -1.421875 13.609375 4.078125 
Q 9.515625 9.578125 9.515625 20.703125 
z
" id="DejaVuSansMono-75"/>
     <path d="M 29.984375 70.21875 
L 29.984375 54.6875 
L 50.390625 54.6875 
L 50.390625 47.703125 
L 29.984375 47.703125 
L 29.984375 18.015625 
Q 29.984375 11.96875 32.28125 9.5625 
Q 34.578125 7.171875 40.28125 7.171875 
L 50.390625 7.171875 
L 50.390625 0 
L 39.40625 0 
Q 29.296875 0 25.140625 4.046875 
Q 21 8.109375 21 18.015625 
L 21 47.703125 
L 6.390625 47.703125 
L 6.390625 54.6875 
L 21 54.6875 
L 21 70.21875 
z
" id="DejaVuSansMono-74"/>
     <path d="M 37.890625 39.015625 
Q 45.0625 37.109375 48.875 32.25 
Q 52.6875 27.390625 52.6875 20.125 
Q 52.6875 10.0625 45.921875 4.3125 
Q 39.15625 -1.421875 27.203125 -1.421875 
Q 22.171875 -1.421875 16.9375 -0.484375 
Q 11.71875 0.4375 6.6875 2.203125 
L 6.6875 12.015625 
Q 11.671875 9.421875 16.5 8.15625 
Q 21.34375 6.890625 26.125 6.890625 
Q 34.234375 6.890625 38.578125 10.546875 
Q 42.921875 14.203125 42.921875 21.09375 
Q 42.921875 27.4375 38.578125 31.171875 
Q 34.234375 34.90625 26.8125 34.90625 
L 19.28125 34.90625 
L 19.28125 43.015625 
L 26.8125 43.015625 
Q 33.59375 43.015625 37.40625 45.984375 
Q 41.21875 48.96875 41.21875 54.296875 
Q 41.21875 59.90625 37.671875 62.90625 
Q 34.125 65.921875 27.59375 65.921875 
Q 23.25 65.921875 18.609375 64.9375 
Q 13.96875 63.96875 8.890625 62.015625 
L 8.890625 71.09375 
Q 14.796875 72.65625 19.40625 73.4375 
Q 24.03125 74.21875 27.59375 74.21875 
Q 38.234375 74.21875 44.609375 68.875 
Q 50.984375 63.53125 50.984375 54.6875 
Q 50.984375 48.6875 47.625 44.671875 
Q 44.28125 40.671875 37.890625 39.015625 
z
" id="DejaVuSansMono-33"/>
    </defs>
    <g transform="translate(138.436364 292.993776)scale(0.1 -0.1)">
     <use xlink:href="#DejaVuSansMono-4f"/>
     <use x="60.205078" xlink:href="#DejaVuSansMono-75"/>
     <use x="120.410156" xlink:href="#DejaVuSansMono-74"/>
     <use x="180.615234" xlink:href="#DejaVuSansMono-20"/>
     <use x="240.820312" xlink:href="#DejaVuSansMono-52"/>
     <use x="301.025391" xlink:href="#DejaVuSansMono-4d"/>
     <use x="361.230469" xlink:href="#DejaVuSansMono-53"/>
     <use x="421.435547" xlink:href="#DejaVuSansMono-45"/>
     <use x="481.640625" xlink:href="#DejaVuSansMono-3a"/>
     <use x="541.845703" xlink:href="#DejaVuSansMono-20"/>
     <use x="602.050781" xlink:href="#DejaVuSansMono-30"/>
     <use x="662.255859" xlink:href="#DejaVuSansMono-2e"/>
     <use x="722.460938" xlink:href="#DejaVuSansMono-30"/>
     <use x="782.666016" xlink:href="#DejaVuSansMono-31"/>
     <use x="842.871094" xlink:href="#DejaVuSansMono-33"/>
     <use x="903.076172" xlink:href="#DejaVuSansMono-31"/>
     <use x="963.28125" xlink:href="#DejaVuSansMono-35"/>
    </g>
   </g>
   <g id="text_17">
    <!-- inv_t4_invSim_620_200Traces -->
    <defs>
     <path d="M 54.890625 33.015625 
L 54.890625 0 
L 45.90625 0 
L 45.90625 32.71875 
Q 45.90625 40.484375 42.875 44.328125 
Q 39.84375 48.1875 33.796875 48.1875 
Q 26.515625 48.1875 22.3125 43.546875 
Q 18.109375 38.921875 18.109375 30.90625 
L 18.109375 0 
L 9.078125 0 
L 9.078125 54.6875 
L 18.109375 54.6875 
L 18.109375 46.1875 
Q 21.34375 51.125 25.703125 53.5625 
Q 30.078125 56 35.796875 56 
Q 45.21875 56 50.046875 50.171875 
Q 54.890625 44.34375 54.890625 33.015625 
z
" id="DejaVuSans-6e"/>
     <path d="M 2.984375 54.6875 
L 12.5 54.6875 
L 29.59375 8.796875 
L 46.6875 54.6875 
L 56.203125 54.6875 
L 35.6875 0 
L 23.484375 0 
z
" id="DejaVuSans-76"/>
     <path d="M 50.984375 -16.609375 
L 50.984375 -23.578125 
L -0.984375 -23.578125 
L -0.984375 -16.609375 
z
" id="DejaVuSans-5f"/>
     <path d="M 53.515625 70.515625 
L 53.515625 60.890625 
Q 47.90625 63.578125 42.921875 64.890625 
Q 37.9375 66.21875 33.296875 66.21875 
Q 25.25 66.21875 20.875 63.09375 
Q 16.5 59.96875 16.5 54.203125 
Q 16.5 49.359375 19.40625 46.890625 
Q 22.3125 44.4375 30.421875 42.921875 
L 36.375 41.703125 
Q 47.40625 39.59375 52.65625 34.296875 
Q 57.90625 29 57.90625 20.125 
Q 57.90625 9.515625 50.796875 4.046875 
Q 43.703125 -1.421875 29.984375 -1.421875 
Q 24.8125 -1.421875 18.96875 -0.25 
Q 13.140625 0.921875 6.890625 3.21875 
L 6.890625 13.375 
Q 12.890625 10.015625 18.65625 8.296875 
Q 24.421875 6.59375 29.984375 6.59375 
Q 38.421875 6.59375 43.015625 9.90625 
Q 47.609375 13.234375 47.609375 19.390625 
Q 47.609375 24.75 44.3125 27.78125 
Q 41.015625 30.8125 33.5 32.328125 
L 27.484375 33.5 
Q 16.453125 35.6875 11.515625 40.375 
Q 6.59375 45.0625 6.59375 53.421875 
Q 6.59375 63.09375 13.40625 68.65625 
Q 20.21875 74.21875 32.171875 74.21875 
Q 37.3125 74.21875 42.625 73.28125 
Q 47.953125 72.359375 53.515625 70.515625 
z
" id="DejaVuSans-53"/>
     <path d="M 41.109375 46.296875 
Q 39.59375 47.171875 37.8125 47.578125 
Q 36.03125 48 33.890625 48 
Q 26.265625 48 22.1875 43.046875 
Q 18.109375 38.09375 18.109375 28.8125 
L 18.109375 0 
L 9.078125 0 
L 9.078125 54.6875 
L 18.109375 54.6875 
L 18.109375 46.1875 
Q 20.953125 51.171875 25.484375 53.578125 
Q 30.03125 56 36.53125 56 
Q 37.453125 56 38.578125 55.875 
Q 39.703125 55.765625 41.0625 55.515625 
z
" id="DejaVuSans-72"/>
     <path d="M 48.78125 52.59375 
L 48.78125 44.1875 
Q 44.96875 46.296875 41.140625 47.34375 
Q 37.3125 48.390625 33.40625 48.390625 
Q 24.65625 48.390625 19.8125 42.84375 
Q 14.984375 37.3125 14.984375 27.296875 
Q 14.984375 17.28125 19.8125 11.734375 
Q 24.65625 6.203125 33.40625 6.203125 
Q 37.3125 6.203125 41.140625 7.25 
Q 44.96875 8.296875 48.78125 10.40625 
L 48.78125 2.09375 
Q 45.015625 0.34375 40.984375 -0.53125 
Q 36.96875 -1.421875 32.421875 -1.421875 
Q 20.0625 -1.421875 12.78125 6.34375 
Q 5.515625 14.109375 5.515625 27.296875 
Q 5.515625 40.671875 12.859375 48.328125 
Q 20.21875 56 33.015625 56 
Q 37.15625 56 41.109375 55.140625 
Q 45.0625 54.296875 48.78125 52.59375 
z
" id="DejaVuSans-63"/>
    </defs>
    <g transform="translate(352.452188 45.84)scale(0.12 -0.12)">
     <use xlink:href="#DejaVuSans-69"/>
     <use x="27.783203" xlink:href="#DejaVuSans-6e"/>
     <use x="91.162109" xlink:href="#DejaVuSans-76"/>
     <use x="150.341797" xlink:href="#DejaVuSans-5f"/>
     <use x="200.341797" xlink:href="#DejaVuSans-74"/>
     <use x="239.550781" xlink:href="#DejaVuSans-34"/>
     <use x="303.173828" xlink:href="#DejaVuSans-5f"/>
     <use x="353.173828" xlink:href="#DejaVuSans-69"/>
     <use x="380.957031" xlink:href="#DejaVuSans-6e"/>
     <use x="444.335938" xlink:href="#DejaVuSans-76"/>
     <use x="503.515625" xlink:href="#DejaVuSans-53"/>
     <use x="566.992188" xlink:href="#DejaVuSans-69"/>
     <use x="594.775391" xlink:href="#DejaVuSans-6d"/>
     <use x="692.1875" xlink:href="#DejaVuSans-5f"/>
     <use x="742.1875" xlink:href="#DejaVuSans-36"/>
     <use x="805.810547" xlink:href="#DejaVuSans-32"/>
     <use x="869.433594" xlink:href="#DejaVuSans-30"/>
     <use x="933.056641" xlink:href="#DejaVuSans-5f"/>
     <use x="983.056641" xlink:href="#DejaVuSans-32"/>
     <use x="1046.679688" xlink:href="#DejaVuSans-30"/>
     <use x="1110.302734" xlink:href="#DejaVuSans-30"/>
     <use x="1173.925781" xlink:href="#DejaVuSans-54"/>
     <use x="1234.791016" xlink:href="#DejaVuSans-72"/>
     <use x="1275.904297" xlink:href="#DejaVuSans-61"/>
     <use x="1337.183594" xlink:href="#DejaVuSans-63"/>
     <use x="1392.164062" xlink:href="#DejaVuSans-65"/>
     <use x="1453.6875" xlink:href="#DejaVuSans-73"/>
    </g>
   </g>
   <g id="legend_1">
    <g id="patch_7">
     <path d="M 115 249.01625 
L 214.946875 249.01625 
Q 216.946875 249.01625 216.946875 247.01625 
L 216.946875 189.30375 
Q 216.946875 187.30375 214.946875 187.30375 
L 115 187.30375 
Q 113 187.30375 113 189.30375 
L 113 247.01625 
Q 113 249.01625 115 249.01625 
z
" style="fill:#ffffff;opacity:0.8;stroke:#cccccc;stroke-linejoin:miter;"/>
    </g>
    <g id="line2d_17">
     <path d="M 117 195.402188 
L 137 195.402188 
" style="fill:none;stroke:#ff0000;stroke-linecap:square;stroke-width:1.5;"/>
    </g>
    <g id="line2d_18"/>
    <g id="text_18">
     <!-- Input -->
     <defs>
      <path d="M 9.8125 72.90625 
L 19.671875 72.90625 
L 19.671875 0 
L 9.8125 0 
z
" id="DejaVuSans-49"/>
      <path d="M 18.109375 8.203125 
L 18.109375 -20.796875 
L 9.078125 -20.796875 
L 9.078125 54.6875 
L 18.109375 54.6875 
L 18.109375 46.390625 
Q 20.953125 51.265625 25.265625 53.625 
Q 29.59375 56 35.59375 56 
Q 45.5625 56 51.78125 48.09375 
Q 58.015625 40.1875 58.015625 27.296875 
Q 58.015625 14.40625 51.78125 6.484375 
Q 45.5625 -1.421875 35.59375 -1.421875 
Q 29.59375 -1.421875 25.265625 0.953125 
Q 20.953125 3.328125 18.109375 8.203125 
z
M 48.6875 27.296875 
Q 48.6875 37.203125 44.609375 42.84375 
Q 40.53125 48.484375 33.40625 48.484375 
Q 26.265625 48.484375 22.1875 42.84375 
Q 18.109375 37.203125 18.109375 27.296875 
Q 18.109375 17.390625 22.1875 11.75 
Q 26.265625 6.109375 33.40625 6.109375 
Q 40.53125 6.109375 44.609375 11.75 
Q 48.6875 17.390625 48.6875 27.296875 
z
" id="DejaVuSans-70"/>
      <path d="M 8.5 21.578125 
L 8.5 54.6875 
L 17.484375 54.6875 
L 17.484375 21.921875 
Q 17.484375 14.15625 20.5 10.265625 
Q 23.53125 6.390625 29.59375 6.390625 
Q 36.859375 6.390625 41.078125 11.03125 
Q 45.3125 15.671875 45.3125 23.6875 
L 45.3125 54.6875 
L 54.296875 54.6875 
L 54.296875 0 
L 45.3125 0 
L 45.3125 8.40625 
Q 42.046875 3.421875 37.71875 1 
Q 33.40625 -1.421875 27.6875 -1.421875 
Q 18.265625 -1.421875 13.375 4.4375 
Q 8.5 10.296875 8.5 21.578125 
z
M 31.109375 56 
z
" id="DejaVuSans-75"/>
     </defs>
     <g transform="translate(145 198.902188)scale(0.1 -0.1)">
      <use xlink:href="#DejaVuSans-49"/>
      <use x="29.492188" xlink:href="#DejaVuSans-6e"/>
      <use x="92.871094" xlink:href="#DejaVuSans-70"/>
      <use x="156.347656" xlink:href="#DejaVuSans-75"/>
      <use x="219.726562" xlink:href="#DejaVuSans-74"/>
     </g>
    </g>
    <g id="line2d_19">
     <path d="M 117 210.080313 
L 137 210.080313 
" style="fill:none;stroke:#008000;stroke-linecap:square;stroke-width:1.5;"/>
    </g>
    <g id="line2d_20"/>
    <g id="text_19">
     <!-- Output -->
     <defs>
      <path d="M 39.40625 66.21875 
Q 28.65625 66.21875 22.328125 58.203125 
Q 16.015625 50.203125 16.015625 36.375 
Q 16.015625 22.609375 22.328125 14.59375 
Q 28.65625 6.59375 39.40625 6.59375 
Q 50.140625 6.59375 56.421875 14.59375 
Q 62.703125 22.609375 62.703125 36.375 
Q 62.703125 50.203125 56.421875 58.203125 
Q 50.140625 66.21875 39.40625 66.21875 
z
M 39.40625 74.21875 
Q 54.734375 74.21875 63.90625 63.9375 
Q 73.09375 53.65625 73.09375 36.375 
Q 73.09375 19.140625 63.90625 8.859375 
Q 54.734375 -1.421875 39.40625 -1.421875 
Q 24.03125 -1.421875 14.8125 8.828125 
Q 5.609375 19.09375 5.609375 36.375 
Q 5.609375 53.65625 14.8125 63.9375 
Q 24.03125 74.21875 39.40625 74.21875 
z
" id="DejaVuSans-4f"/>
     </defs>
     <g transform="translate(145 213.580313)scale(0.1 -0.1)">
      <use xlink:href="#DejaVuSans-4f"/>
      <use x="78.710938" xlink:href="#DejaVuSans-75"/>
      <use x="142.089844" xlink:href="#DejaVuSans-74"/>
      <use x="181.298828" xlink:href="#DejaVuSans-70"/>
      <use x="244.775391" xlink:href="#DejaVuSans-75"/>
      <use x="308.154297" xlink:href="#DejaVuSans-74"/>
     </g>
    </g>
    <g id="line2d_21">
     <path d="M 117 224.758438 
L 137 224.758438 
" style="fill:none;stroke:#ff0000;stroke-dasharray:5.55,2.4;stroke-dashoffset:0;stroke-width:1.5;"/>
    </g>
    <g id="line2d_22"/>
    <g id="text_20">
     <!-- Input-fitting -->
     <defs>
      <path d="M 4.890625 31.390625 
L 31.203125 31.390625 
L 31.203125 23.390625 
L 4.890625 23.390625 
z
" id="DejaVuSans-2d"/>
      <path d="M 37.109375 75.984375 
L 37.109375 68.5 
L 28.515625 68.5 
Q 23.6875 68.5 21.796875 66.546875 
Q 19.921875 64.59375 19.921875 59.515625 
L 19.921875 54.6875 
L 34.71875 54.6875 
L 34.71875 47.703125 
L 19.921875 47.703125 
L 19.921875 0 
L 10.890625 0 
L 10.890625 47.703125 
L 2.296875 47.703125 
L 2.296875 54.6875 
L 10.890625 54.6875 
L 10.890625 58.5 
Q 10.890625 67.625 15.140625 71.796875 
Q 19.390625 75.984375 28.609375 75.984375 
z
" id="DejaVuSans-66"/>
     </defs>
     <g transform="translate(145 228.258438)scale(0.1 -0.1)">
      <use xlink:href="#DejaVuSans-49"/>
      <use x="29.492188" xlink:href="#DejaVuSans-6e"/>
      <use x="92.871094" xlink:href="#DejaVuSans-70"/>
      <use x="156.347656" xlink:href="#DejaVuSans-75"/>
      <use x="219.726562" xlink:href="#DejaVuSans-74"/>
      <use x="258.935547" xlink:href="#DejaVuSans-2d"/>
      <use x="295.019531" xlink:href="#DejaVuSans-66"/>
      <use x="330.224609" xlink:href="#DejaVuSans-69"/>
      <use x="358.007812" xlink:href="#DejaVuSans-74"/>
      <use x="397.216797" xlink:href="#DejaVuSans-74"/>
      <use x="436.425781" xlink:href="#DejaVuSans-69"/>
      <use x="464.208984" xlink:href="#DejaVuSans-6e"/>
      <use x="527.587891" xlink:href="#DejaVuSans-67"/>
     </g>
    </g>
    <g id="line2d_23">
     <path d="M 117 239.436563 
L 137 239.436563 
" style="fill:none;stroke:#008000;stroke-dasharray:5.55,2.4;stroke-dashoffset:0;stroke-width:1.5;"/>
    </g>
    <g id="line2d_24"/>
    <g id="text_21">
     <!-- Output-fitting -->
     <g transform="translate(145 242.936563)scale(0.1 -0.1)">
      <use xlink:href="#DejaVuSans-4f"/>
      <use x="78.710938" xlink:href="#DejaVuSans-75"/>
      <use x="142.089844" xlink:href="#DejaVuSans-74"/>
      <use x="181.298828" xlink:href="#DejaVuSans-70"/>
      <use x="244.775391" xlink:href="#DejaVuSans-75"/>
      <use x="308.154297" xlink:href="#DejaVuSans-74"/>
      <use x="347.363281" xlink:href="#DejaVuSans-2d"/>
      <use x="383.447266" xlink:href="#DejaVuSans-66"/>
      <use x="418.652344" xlink:href="#DejaVuSans-69"/>
      <use x="446.435547" xlink:href="#DejaVuSans-74"/>
      <use x="485.644531" xlink:href="#DejaVuSans-74"/>
      <use x="524.853516" xlink:href="#DejaVuSans-69"/>
      <use x="552.636719" xlink:href="#DejaVuSans-6e"/>
      <use x="616.015625" xlink:href="#DejaVuSans-67"/>
     </g>
    </g>
   </g>
  </g>
 </g>
 <defs>
  <clipPath id="pd8039e52db">
   <rect height="332.64" width="669.6" x="108" y="51.84"/>
  </clipPath>
 </defs>
</svg>
