<?xml version="1.0" encoding="utf-8" standalone="no"?>
<!DOCTYPE svg PUBLIC "-//W3C//DTD SVG 1.1//EN"
  "http://www.w3.org/Graphics/SVG/1.1/DTD/svg11.dtd">
<!-- Created with matplotlib (https://matplotlib.org/) -->
<svg height="288pt" version="1.1" viewBox="0 0 1152 288" width="1152pt" xmlns="http://www.w3.org/2000/svg" xmlns:xlink="http://www.w3.org/1999/xlink">
 <metadata>
  <rdf:RDF xmlns:cc="http://creativecommons.org/ns#" xmlns:dc="http://purl.org/dc/elements/1.1/" xmlns:rdf="http://www.w3.org/1999/02/22-rdf-syntax-ns#">
   <cc:Work>
    <dc:type rdf:resource="http://purl.org/dc/dcmitype/StillImage"/>
    <dc:date>2020-10-12T20:12:14.944314</dc:date>
    <dc:format>image/svg+xml</dc:format>
    <dc:creator>
     <cc:Agent>
      <dc:title>Matplotlib v3.3.0, https://matplotlib.org/</dc:title>
     </cc:Agent>
    </dc:creator>
   </cc:Work>
  </rdf:RDF>
 </metadata>
 <defs>
  <style type="text/css">*{stroke-linecap:butt;stroke-linejoin:round;}</style>
 </defs>
 <g id="figure_1">
  <g id="patch_1">
   <path d="M 0 288 
L 1152 288 
L 1152 0 
L 0 0 
z
" style="fill:#ffffff;"/>
  </g>
  <g id="axes_1">
   <g id="patch_2">
    <path d="M 144 256.32 
L 1036.8 256.32 
L 1036.8 34.56 
L 144 34.56 
z
" style="fill:#ffffff;"/>
   </g>
   <g id="matplotlib.axis_1">
    <g id="xtick_1">
     <g id="line2d_1">
      <defs>
       <path d="M 0 0 
L 0 3.5 
" id="m27d0b300e1" style="stroke:#000000;stroke-width:0.8;"/>
      </defs>
      <g>
       <use style="stroke:#000000;stroke-width:0.8;" x="184.581818" xlink:href="#m27d0b300e1" y="256.32"/>
      </g>
     </g>
     <g id="text_1">
      <!-- 0.0 -->
      <g transform="translate(176.630256 270.918437)scale(0.1 -0.1)">
       <defs>
        <path d="M 31.78125 66.40625 
Q 24.171875 66.40625 20.328125 58.90625 
Q 16.5 51.421875 16.5 36.375 
Q 16.5 21.390625 20.328125 13.890625 
Q 24.171875 6.390625 31.78125 6.390625 
Q 39.453125 6.390625 43.28125 13.890625 
Q 47.125 21.390625 47.125 36.375 
Q 47.125 51.421875 43.28125 58.90625 
Q 39.453125 66.40625 31.78125 66.40625 
z
M 31.78125 74.21875 
Q 44.046875 74.21875 50.515625 64.515625 
Q 56.984375 54.828125 56.984375 36.375 
Q 56.984375 17.96875 50.515625 8.265625 
Q 44.046875 -1.421875 31.78125 -1.421875 
Q 19.53125 -1.421875 13.0625 8.265625 
Q 6.59375 17.96875 6.59375 36.375 
Q 6.59375 54.828125 13.0625 64.515625 
Q 19.53125 74.21875 31.78125 74.21875 
z
" id="DejaVuSans-48"/>
        <path d="M 10.6875 12.40625 
L 21 12.40625 
L 21 0 
L 10.6875 0 
z
" id="DejaVuSans-46"/>
       </defs>
       <use xlink:href="#DejaVuSans-48"/>
       <use x="63.623047" xlink:href="#DejaVuSans-46"/>
       <use x="95.410156" xlink:href="#DejaVuSans-48"/>
      </g>
     </g>
    </g>
    <g id="xtick_2">
     <g id="line2d_2">
      <g>
       <use style="stroke:#000000;stroke-width:0.8;" x="321.495109" xlink:href="#m27d0b300e1" y="256.32"/>
      </g>
     </g>
     <g id="text_2">
      <!-- 0.2 -->
      <g transform="translate(313.543546 270.918437)scale(0.1 -0.1)">
       <defs>
        <path d="M 19.1875 8.296875 
L 53.609375 8.296875 
L 53.609375 0 
L 7.328125 0 
L 7.328125 8.296875 
Q 12.9375 14.109375 22.625 23.890625 
Q 32.328125 33.6875 34.8125 36.53125 
Q 39.546875 41.84375 41.421875 45.53125 
Q 43.3125 49.21875 43.3125 52.78125 
Q 43.3125 58.59375 39.234375 62.25 
Q 35.15625 65.921875 28.609375 65.921875 
Q 23.96875 65.921875 18.8125 64.3125 
Q 13.671875 62.703125 7.8125 59.421875 
L 7.8125 69.390625 
Q 13.765625 71.78125 18.9375 73 
Q 24.125 74.21875 28.421875 74.21875 
Q 39.75 74.21875 46.484375 68.546875 
Q 53.21875 62.890625 53.21875 53.421875 
Q 53.21875 48.921875 51.53125 44.890625 
Q 49.859375 40.875 45.40625 35.40625 
Q 44.1875 33.984375 37.640625 27.21875 
Q 31.109375 20.453125 19.1875 8.296875 
z
" id="DejaVuSans-50"/>
       </defs>
       <use xlink:href="#DejaVuSans-48"/>
       <use x="63.623047" xlink:href="#DejaVuSans-46"/>
       <use x="95.410156" xlink:href="#DejaVuSans-50"/>
      </g>
     </g>
    </g>
    <g id="xtick_3">
     <g id="line2d_3">
      <g>
       <use style="stroke:#000000;stroke-width:0.8;" x="458.4084" xlink:href="#m27d0b300e1" y="256.32"/>
      </g>
     </g>
     <g id="text_3">
      <!-- 0.4 -->
      <g transform="translate(450.456837 270.918437)scale(0.1 -0.1)">
       <defs>
        <path d="M 37.796875 64.3125 
L 12.890625 25.390625 
L 37.796875 25.390625 
z
M 35.203125 72.90625 
L 47.609375 72.90625 
L 47.609375 25.390625 
L 58.015625 25.390625 
L 58.015625 17.1875 
L 47.609375 17.1875 
L 47.609375 0 
L 37.796875 0 
L 37.796875 17.1875 
L 4.890625 17.1875 
L 4.890625 26.703125 
z
" id="DejaVuSans-52"/>
       </defs>
       <use xlink:href="#DejaVuSans-48"/>
       <use x="63.623047" xlink:href="#DejaVuSans-46"/>
       <use x="95.410156" xlink:href="#DejaVuSans-52"/>
      </g>
     </g>
    </g>
    <g id="xtick_4">
     <g id="line2d_4">
      <g>
       <use style="stroke:#000000;stroke-width:0.8;" x="595.321691" xlink:href="#m27d0b300e1" y="256.32"/>
      </g>
     </g>
     <g id="text_4">
      <!-- 0.6 -->
      <g transform="translate(587.370128 270.918437)scale(0.1 -0.1)">
       <defs>
        <path d="M 33.015625 40.375 
Q 26.375 40.375 22.484375 35.828125 
Q 18.609375 31.296875 18.609375 23.390625 
Q 18.609375 15.53125 22.484375 10.953125 
Q 26.375 6.390625 33.015625 6.390625 
Q 39.65625 6.390625 43.53125 10.953125 
Q 47.40625 15.53125 47.40625 23.390625 
Q 47.40625 31.296875 43.53125 35.828125 
Q 39.65625 40.375 33.015625 40.375 
z
M 52.59375 71.296875 
L 52.59375 62.3125 
Q 48.875 64.0625 45.09375 64.984375 
Q 41.3125 65.921875 37.59375 65.921875 
Q 27.828125 65.921875 22.671875 59.328125 
Q 17.53125 52.734375 16.796875 39.40625 
Q 19.671875 43.65625 24.015625 45.921875 
Q 28.375 48.1875 33.59375 48.1875 
Q 44.578125 48.1875 50.953125 41.515625 
Q 57.328125 34.859375 57.328125 23.390625 
Q 57.328125 12.15625 50.6875 5.359375 
Q 44.046875 -1.421875 33.015625 -1.421875 
Q 20.359375 -1.421875 13.671875 8.265625 
Q 6.984375 17.96875 6.984375 36.375 
Q 6.984375 53.65625 15.1875 63.9375 
Q 23.390625 74.21875 37.203125 74.21875 
Q 40.921875 74.21875 44.703125 73.484375 
Q 48.484375 72.75 52.59375 71.296875 
z
" id="DejaVuSans-54"/>
       </defs>
       <use xlink:href="#DejaVuSans-48"/>
       <use x="63.623047" xlink:href="#DejaVuSans-46"/>
       <use x="95.410156" xlink:href="#DejaVuSans-54"/>
      </g>
     </g>
    </g>
    <g id="xtick_5">
     <g id="line2d_5">
      <g>
       <use style="stroke:#000000;stroke-width:0.8;" x="732.234981" xlink:href="#m27d0b300e1" y="256.32"/>
      </g>
     </g>
     <g id="text_5">
      <!-- 0.8 -->
      <g transform="translate(724.283419 270.918437)scale(0.1 -0.1)">
       <defs>
        <path d="M 31.78125 34.625 
Q 24.75 34.625 20.71875 30.859375 
Q 16.703125 27.09375 16.703125 20.515625 
Q 16.703125 13.921875 20.71875 10.15625 
Q 24.75 6.390625 31.78125 6.390625 
Q 38.8125 6.390625 42.859375 10.171875 
Q 46.921875 13.96875 46.921875 20.515625 
Q 46.921875 27.09375 42.890625 30.859375 
Q 38.875 34.625 31.78125 34.625 
z
M 21.921875 38.8125 
Q 15.578125 40.375 12.03125 44.71875 
Q 8.5 49.078125 8.5 55.328125 
Q 8.5 64.0625 14.71875 69.140625 
Q 20.953125 74.21875 31.78125 74.21875 
Q 42.671875 74.21875 48.875 69.140625 
Q 55.078125 64.0625 55.078125 55.328125 
Q 55.078125 49.078125 51.53125 44.71875 
Q 48 40.375 41.703125 38.8125 
Q 48.828125 37.15625 52.796875 32.3125 
Q 56.78125 27.484375 56.78125 20.515625 
Q 56.78125 9.90625 50.3125 4.234375 
Q 43.84375 -1.421875 31.78125 -1.421875 
Q 19.734375 -1.421875 13.25 4.234375 
Q 6.78125 9.90625 6.78125 20.515625 
Q 6.78125 27.484375 10.78125 32.3125 
Q 14.796875 37.15625 21.921875 38.8125 
z
M 18.3125 54.390625 
Q 18.3125 48.734375 21.84375 45.5625 
Q 25.390625 42.390625 31.78125 42.390625 
Q 38.140625 42.390625 41.71875 45.5625 
Q 45.3125 48.734375 45.3125 54.390625 
Q 45.3125 60.0625 41.71875 63.234375 
Q 38.140625 66.40625 31.78125 66.40625 
Q 25.390625 66.40625 21.84375 63.234375 
Q 18.3125 60.0625 18.3125 54.390625 
z
" id="DejaVuSans-56"/>
       </defs>
       <use xlink:href="#DejaVuSans-48"/>
       <use x="63.623047" xlink:href="#DejaVuSans-46"/>
       <use x="95.410156" xlink:href="#DejaVuSans-56"/>
      </g>
     </g>
    </g>
    <g id="xtick_6">
     <g id="line2d_6">
      <g>
       <use style="stroke:#000000;stroke-width:0.8;" x="869.148272" xlink:href="#m27d0b300e1" y="256.32"/>
      </g>
     </g>
     <g id="text_6">
      <!-- 1.0 -->
      <g transform="translate(861.19671 270.918437)scale(0.1 -0.1)">
       <defs>
        <path d="M 12.40625 8.296875 
L 28.515625 8.296875 
L 28.515625 63.921875 
L 10.984375 60.40625 
L 10.984375 69.390625 
L 28.421875 72.90625 
L 38.28125 72.90625 
L 38.28125 8.296875 
L 54.390625 8.296875 
L 54.390625 0 
L 12.40625 0 
z
" id="DejaVuSans-49"/>
       </defs>
       <use xlink:href="#DejaVuSans-49"/>
       <use x="63.623047" xlink:href="#DejaVuSans-46"/>
       <use x="95.410156" xlink:href="#DejaVuSans-48"/>
      </g>
     </g>
    </g>
    <g id="xtick_7">
     <g id="line2d_7">
      <g>
       <use style="stroke:#000000;stroke-width:0.8;" x="1006.061563" xlink:href="#m27d0b300e1" y="256.32"/>
      </g>
     </g>
     <g id="text_7">
      <!-- 1.2 -->
      <g transform="translate(998.11 270.918437)scale(0.1 -0.1)">
       <use xlink:href="#DejaVuSans-49"/>
       <use x="63.623047" xlink:href="#DejaVuSans-46"/>
       <use x="95.410156" xlink:href="#DejaVuSans-50"/>
      </g>
     </g>
    </g>
    <g id="text_8">
     <!-- Time [s] -->
     <g transform="translate(570.071094 284.596563)scale(0.1 -0.1)">
      <defs>
       <path d="M -0.296875 72.90625 
L 61.375 72.90625 
L 61.375 64.59375 
L 35.5 64.59375 
L 35.5 0 
L 25.59375 0 
L 25.59375 64.59375 
L -0.296875 64.59375 
z
" id="DejaVuSans-84"/>
       <path d="M 9.421875 54.6875 
L 18.40625 54.6875 
L 18.40625 0 
L 9.421875 0 
z
M 9.421875 75.984375 
L 18.40625 75.984375 
L 18.40625 64.59375 
L 9.421875 64.59375 
z
" id="DejaVuSans-105"/>
       <path d="M 52 44.1875 
Q 55.375 50.25 60.0625 53.125 
Q 64.75 56 71.09375 56 
Q 79.640625 56 84.28125 50.015625 
Q 88.921875 44.046875 88.921875 33.015625 
L 88.921875 0 
L 79.890625 0 
L 79.890625 32.71875 
Q 79.890625 40.578125 77.09375 44.375 
Q 74.3125 48.1875 68.609375 48.1875 
Q 61.625 48.1875 57.5625 43.546875 
Q 53.515625 38.921875 53.515625 30.90625 
L 53.515625 0 
L 44.484375 0 
L 44.484375 32.71875 
Q 44.484375 40.625 41.703125 44.40625 
Q 38.921875 48.1875 33.109375 48.1875 
Q 26.21875 48.1875 22.15625 43.53125 
Q 18.109375 38.875 18.109375 30.90625 
L 18.109375 0 
L 9.078125 0 
L 9.078125 54.6875 
L 18.109375 54.6875 
L 18.109375 46.1875 
Q 21.1875 51.21875 25.484375 53.609375 
Q 29.78125 56 35.6875 56 
Q 41.65625 56 45.828125 52.96875 
Q 50 49.953125 52 44.1875 
z
" id="DejaVuSans-109"/>
       <path d="M 56.203125 29.59375 
L 56.203125 25.203125 
L 14.890625 25.203125 
Q 15.484375 15.921875 20.484375 11.0625 
Q 25.484375 6.203125 34.421875 6.203125 
Q 39.59375 6.203125 44.453125 7.46875 
Q 49.3125 8.734375 54.109375 11.28125 
L 54.109375 2.78125 
Q 49.265625 0.734375 44.1875 -0.34375 
Q 39.109375 -1.421875 33.890625 -1.421875 
Q 20.796875 -1.421875 13.15625 6.1875 
Q 5.515625 13.8125 5.515625 26.8125 
Q 5.515625 40.234375 12.765625 48.109375 
Q 20.015625 56 32.328125 56 
Q 43.359375 56 49.78125 48.890625 
Q 56.203125 41.796875 56.203125 29.59375 
z
M 47.21875 32.234375 
Q 47.125 39.59375 43.09375 43.984375 
Q 39.0625 48.390625 32.421875 48.390625 
Q 24.90625 48.390625 20.390625 44.140625 
Q 15.875 39.890625 15.1875 32.171875 
z
" id="DejaVuSans-101"/>
       <path id="DejaVuSans-32"/>
       <path d="M 8.59375 75.984375 
L 29.296875 75.984375 
L 29.296875 69 
L 17.578125 69 
L 17.578125 -6.203125 
L 29.296875 -6.203125 
L 29.296875 -13.1875 
L 8.59375 -13.1875 
z
" id="DejaVuSans-91"/>
       <path d="M 44.28125 53.078125 
L 44.28125 44.578125 
Q 40.484375 46.53125 36.375 47.5 
Q 32.28125 48.484375 27.875 48.484375 
Q 21.1875 48.484375 17.84375 46.4375 
Q 14.5 44.390625 14.5 40.28125 
Q 14.5 37.15625 16.890625 35.375 
Q 19.28125 33.59375 26.515625 31.984375 
L 29.59375 31.296875 
Q 39.15625 29.25 43.1875 25.515625 
Q 47.21875 21.78125 47.21875 15.09375 
Q 47.21875 7.46875 41.1875 3.015625 
Q 35.15625 -1.421875 24.609375 -1.421875 
Q 20.21875 -1.421875 15.453125 -0.5625 
Q 10.6875 0.296875 5.421875 2 
L 5.421875 11.28125 
Q 10.40625 8.6875 15.234375 7.390625 
Q 20.0625 6.109375 24.8125 6.109375 
Q 31.15625 6.109375 34.5625 8.28125 
Q 37.984375 10.453125 37.984375 14.40625 
Q 37.984375 18.0625 35.515625 20.015625 
Q 33.0625 21.96875 24.703125 23.78125 
L 21.578125 24.515625 
Q 13.234375 26.265625 9.515625 29.90625 
Q 5.8125 33.546875 5.8125 39.890625 
Q 5.8125 47.609375 11.28125 51.796875 
Q 16.75 56 26.8125 56 
Q 31.78125 56 36.171875 55.265625 
Q 40.578125 54.546875 44.28125 53.078125 
z
" id="DejaVuSans-115"/>
       <path d="M 30.421875 75.984375 
L 30.421875 -13.1875 
L 9.71875 -13.1875 
L 9.71875 -6.203125 
L 21.390625 -6.203125 
L 21.390625 69 
L 9.71875 69 
L 9.71875 75.984375 
z
" id="DejaVuSans-93"/>
      </defs>
      <use xlink:href="#DejaVuSans-84"/>
      <use x="57.958984" xlink:href="#DejaVuSans-105"/>
      <use x="85.742188" xlink:href="#DejaVuSans-109"/>
      <use x="183.154297" xlink:href="#DejaVuSans-101"/>
      <use x="244.677734" xlink:href="#DejaVuSans-32"/>
      <use x="276.464844" xlink:href="#DejaVuSans-91"/>
      <use x="315.478516" xlink:href="#DejaVuSans-115"/>
      <use x="367.578125" xlink:href="#DejaVuSans-93"/>
     </g>
    </g>
    <g id="text_9">
     <!-- 1e−8 -->
     <g transform="translate(1009.542187 283.596563)scale(0.1 -0.1)">
      <defs>
       <path d="M 10.59375 35.5 
L 73.1875 35.5 
L 73.1875 27.203125 
L 10.59375 27.203125 
z
" id="DejaVuSans-8722"/>
      </defs>
      <use xlink:href="#DejaVuSans-49"/>
      <use x="63.623047" xlink:href="#DejaVuSans-101"/>
      <use x="125.146484" xlink:href="#DejaVuSans-8722"/>
      <use x="208.935547" xlink:href="#DejaVuSans-56"/>
     </g>
    </g>
   </g>
   <g id="matplotlib.axis_2">
    <g id="ytick_1">
     <g id="line2d_8">
      <defs>
       <path d="M 0 0 
L -3.5 0 
" id="m69c1088efd" style="stroke:#000000;stroke-width:0.8;"/>
      </defs>
      <g>
       <use style="stroke:#000000;stroke-width:0.8;" x="144" xlink:href="#m69c1088efd" y="235.492618"/>
      </g>
     </g>
     <g id="text_10">
      <!-- 0.0 -->
      <g transform="translate(121.096875 239.291837)scale(0.1 -0.1)">
       <use xlink:href="#DejaVuSans-48"/>
       <use x="63.623047" xlink:href="#DejaVuSans-46"/>
       <use x="95.410156" xlink:href="#DejaVuSans-48"/>
      </g>
     </g>
    </g>
    <g id="ytick_2">
     <g id="line2d_9">
      <g>
       <use style="stroke:#000000;stroke-width:0.8;" x="144" xlink:href="#m69c1088efd" y="195.74312"/>
      </g>
     </g>
     <g id="text_11">
      <!-- 0.5 -->
      <g transform="translate(121.096875 199.542339)scale(0.1 -0.1)">
       <defs>
        <path d="M 10.796875 72.90625 
L 49.515625 72.90625 
L 49.515625 64.59375 
L 19.828125 64.59375 
L 19.828125 46.734375 
Q 21.96875 47.46875 24.109375 47.828125 
Q 26.265625 48.1875 28.421875 48.1875 
Q 40.625 48.1875 47.75 41.5 
Q 54.890625 34.8125 54.890625 23.390625 
Q 54.890625 11.625 47.5625 5.09375 
Q 40.234375 -1.421875 26.90625 -1.421875 
Q 22.3125 -1.421875 17.546875 -0.640625 
Q 12.796875 0.140625 7.71875 1.703125 
L 7.71875 11.625 
Q 12.109375 9.234375 16.796875 8.0625 
Q 21.484375 6.890625 26.703125 6.890625 
Q 35.15625 6.890625 40.078125 11.328125 
Q 45.015625 15.765625 45.015625 23.390625 
Q 45.015625 31 40.078125 35.4375 
Q 35.15625 39.890625 26.703125 39.890625 
Q 22.75 39.890625 18.8125 39.015625 
Q 14.890625 38.140625 10.796875 36.28125 
z
" id="DejaVuSans-53"/>
       </defs>
       <use xlink:href="#DejaVuSans-48"/>
       <use x="63.623047" xlink:href="#DejaVuSans-46"/>
       <use x="95.410156" xlink:href="#DejaVuSans-53"/>
      </g>
     </g>
    </g>
    <g id="ytick_3">
     <g id="line2d_10">
      <g>
       <use style="stroke:#000000;stroke-width:0.8;" x="144" xlink:href="#m69c1088efd" y="155.993622"/>
      </g>
     </g>
     <g id="text_12">
      <!-- 1.0 -->
      <g transform="translate(121.096875 159.792841)scale(0.1 -0.1)">
       <use xlink:href="#DejaVuSans-49"/>
       <use x="63.623047" xlink:href="#DejaVuSans-46"/>
       <use x="95.410156" xlink:href="#DejaVuSans-48"/>
      </g>
     </g>
    </g>
    <g id="ytick_4">
     <g id="line2d_11">
      <g>
       <use style="stroke:#000000;stroke-width:0.8;" x="144" xlink:href="#m69c1088efd" y="116.244125"/>
      </g>
     </g>
     <g id="text_13">
      <!-- 1.5 -->
      <g transform="translate(121.096875 120.043343)scale(0.1 -0.1)">
       <use xlink:href="#DejaVuSans-49"/>
       <use x="63.623047" xlink:href="#DejaVuSans-46"/>
       <use x="95.410156" xlink:href="#DejaVuSans-53"/>
      </g>
     </g>
    </g>
    <g id="ytick_5">
     <g id="line2d_12">
      <g>
       <use style="stroke:#000000;stroke-width:0.8;" x="144" xlink:href="#m69c1088efd" y="76.494627"/>
      </g>
     </g>
     <g id="text_14">
      <!-- 2.0 -->
      <g transform="translate(121.096875 80.293845)scale(0.1 -0.1)">
       <use xlink:href="#DejaVuSans-50"/>
       <use x="63.623047" xlink:href="#DejaVuSans-46"/>
       <use x="95.410156" xlink:href="#DejaVuSans-48"/>
      </g>
     </g>
    </g>
    <g id="ytick_6">
     <g id="line2d_13">
      <g>
       <use style="stroke:#000000;stroke-width:0.8;" x="144" xlink:href="#m69c1088efd" y="36.745129"/>
      </g>
     </g>
     <g id="text_15">
      <!-- 2.5 -->
      <g transform="translate(121.096875 40.544348)scale(0.1 -0.1)">
       <use xlink:href="#DejaVuSans-50"/>
       <use x="63.623047" xlink:href="#DejaVuSans-46"/>
       <use x="95.410156" xlink:href="#DejaVuSans-53"/>
      </g>
     </g>
    </g>
    <g id="text_16">
     <!-- Voltage [V] -->
     <g transform="translate(115.017187 173.107188)rotate(-90)scale(0.1 -0.1)">
      <defs>
       <path d="M 28.609375 0 
L 0.78125 72.90625 
L 11.078125 72.90625 
L 34.1875 11.53125 
L 57.328125 72.90625 
L 67.578125 72.90625 
L 39.796875 0 
z
" id="DejaVuSans-86"/>
       <path d="M 30.609375 48.390625 
Q 23.390625 48.390625 19.1875 42.75 
Q 14.984375 37.109375 14.984375 27.296875 
Q 14.984375 17.484375 19.15625 11.84375 
Q 23.34375 6.203125 30.609375 6.203125 
Q 37.796875 6.203125 41.984375 11.859375 
Q 46.1875 17.53125 46.1875 27.296875 
Q 46.1875 37.015625 41.984375 42.703125 
Q 37.796875 48.390625 30.609375 48.390625 
z
M 30.609375 56 
Q 42.328125 56 49.015625 48.375 
Q 55.71875 40.765625 55.71875 27.296875 
Q 55.71875 13.875 49.015625 6.21875 
Q 42.328125 -1.421875 30.609375 -1.421875 
Q 18.84375 -1.421875 12.171875 6.21875 
Q 5.515625 13.875 5.515625 27.296875 
Q 5.515625 40.765625 12.171875 48.375 
Q 18.84375 56 30.609375 56 
z
" id="DejaVuSans-111"/>
       <path d="M 9.421875 75.984375 
L 18.40625 75.984375 
L 18.40625 0 
L 9.421875 0 
z
" id="DejaVuSans-108"/>
       <path d="M 18.3125 70.21875 
L 18.3125 54.6875 
L 36.8125 54.6875 
L 36.8125 47.703125 
L 18.3125 47.703125 
L 18.3125 18.015625 
Q 18.3125 11.328125 20.140625 9.421875 
Q 21.96875 7.515625 27.59375 7.515625 
L 36.8125 7.515625 
L 36.8125 0 
L 27.59375 0 
Q 17.1875 0 13.234375 3.875 
Q 9.28125 7.765625 9.28125 18.015625 
L 9.28125 47.703125 
L 2.6875 47.703125 
L 2.6875 54.6875 
L 9.28125 54.6875 
L 9.28125 70.21875 
z
" id="DejaVuSans-116"/>
       <path d="M 34.28125 27.484375 
Q 23.390625 27.484375 19.1875 25 
Q 14.984375 22.515625 14.984375 16.5 
Q 14.984375 11.71875 18.140625 8.90625 
Q 21.296875 6.109375 26.703125 6.109375 
Q 34.1875 6.109375 38.703125 11.40625 
Q 43.21875 16.703125 43.21875 25.484375 
L 43.21875 27.484375 
z
M 52.203125 31.203125 
L 52.203125 0 
L 43.21875 0 
L 43.21875 8.296875 
Q 40.140625 3.328125 35.546875 0.953125 
Q 30.953125 -1.421875 24.3125 -1.421875 
Q 15.921875 -1.421875 10.953125 3.296875 
Q 6 8.015625 6 15.921875 
Q 6 25.140625 12.171875 29.828125 
Q 18.359375 34.515625 30.609375 34.515625 
L 43.21875 34.515625 
L 43.21875 35.40625 
Q 43.21875 41.609375 39.140625 45 
Q 35.0625 48.390625 27.6875 48.390625 
Q 23 48.390625 18.546875 47.265625 
Q 14.109375 46.140625 10.015625 43.890625 
L 10.015625 52.203125 
Q 14.9375 54.109375 19.578125 55.046875 
Q 24.21875 56 28.609375 56 
Q 40.484375 56 46.34375 49.84375 
Q 52.203125 43.703125 52.203125 31.203125 
z
" id="DejaVuSans-97"/>
       <path d="M 45.40625 27.984375 
Q 45.40625 37.75 41.375 43.109375 
Q 37.359375 48.484375 30.078125 48.484375 
Q 22.859375 48.484375 18.828125 43.109375 
Q 14.796875 37.75 14.796875 27.984375 
Q 14.796875 18.265625 18.828125 12.890625 
Q 22.859375 7.515625 30.078125 7.515625 
Q 37.359375 7.515625 41.375 12.890625 
Q 45.40625 18.265625 45.40625 27.984375 
z
M 54.390625 6.78125 
Q 54.390625 -7.171875 48.1875 -13.984375 
Q 42 -20.796875 29.203125 -20.796875 
Q 24.46875 -20.796875 20.265625 -20.09375 
Q 16.0625 -19.390625 12.109375 -17.921875 
L 12.109375 -9.1875 
Q 16.0625 -11.328125 19.921875 -12.34375 
Q 23.78125 -13.375 27.78125 -13.375 
Q 36.625 -13.375 41.015625 -8.765625 
Q 45.40625 -4.15625 45.40625 5.171875 
L 45.40625 9.625 
Q 42.625 4.78125 38.28125 2.390625 
Q 33.9375 0 27.875 0 
Q 17.828125 0 11.671875 7.65625 
Q 5.515625 15.328125 5.515625 27.984375 
Q 5.515625 40.671875 11.671875 48.328125 
Q 17.828125 56 27.875 56 
Q 33.9375 56 38.28125 53.609375 
Q 42.625 51.21875 45.40625 46.390625 
L 45.40625 54.6875 
L 54.390625 54.6875 
z
" id="DejaVuSans-103"/>
      </defs>
      <use xlink:href="#DejaVuSans-86"/>
      <use x="60.658203" xlink:href="#DejaVuSans-111"/>
      <use x="121.839844" xlink:href="#DejaVuSans-108"/>
      <use x="149.623047" xlink:href="#DejaVuSans-116"/>
      <use x="188.832031" xlink:href="#DejaVuSans-97"/>
      <use x="250.111328" xlink:href="#DejaVuSans-103"/>
      <use x="313.587891" xlink:href="#DejaVuSans-101"/>
      <use x="375.111328" xlink:href="#DejaVuSans-32"/>
      <use x="406.898438" xlink:href="#DejaVuSans-91"/>
      <use x="445.912109" xlink:href="#DejaVuSans-86"/>
      <use x="514.320312" xlink:href="#DejaVuSans-93"/>
     </g>
    </g>
   </g>
   <g id="line2d_14">
    <path clip-path="url(#p8c96d5b636)" d="M 184.581818 235.492611 
L 283.856139 235.603695 
L 287.559644 235.554863 
L 288.867166 235.307958 
L 289.866633 234.896925 
L 290.756569 234.287529 
L 291.619123 233.417501 
L 292.502214 232.197544 
L 293.44007 230.506867 
L 294.473765 228.160781 
L 295.644374 224.92015 
L 297.027198 220.398001 
L 298.786534 213.830104 
L 301.531645 202.60316 
L 306.858394 180.792849 
L 309.322833 171.674434 
L 311.273847 165.268707 
L 312.992109 160.36218 
L 314.580303 156.478678 
L 316.086349 153.364352 
L 317.544476 150.84169 
L 319.029985 148.718908 
L 320.501803 147.002286 
L 322.035232 145.559618 
L 323.548124 144.422067 
L 325.204775 143.439857 
L 327.039413 142.605594 
L 329.134186 141.897814 
L 331.509632 141.323832 
L 334.110984 140.893504 
L 337.520125 140.569545 
L 339.190467 140.602378 
L 340.313156 140.83062 
L 341.244167 141.238688 
L 342.093029 141.848605 
L 342.935046 142.728579 
L 343.831828 144.00732 
L 344.790221 145.788575 
L 345.844453 148.247876 
L 347.008216 151.551934 
L 348.315738 155.949977 
L 349.849167 161.92106 
L 351.704342 170.091012 
L 354.196164 182.157314 
L 360.18612 211.554763 
L 361.746932 217.880729 
L 363.054454 222.294243 
L 364.238754 225.542118 
L 365.361443 227.995597 
L 366.449903 229.85914 
L 367.538364 231.29445 
L 368.654207 232.405152 
L 369.838439 233.271991 
L 371.139115 233.947144 
L 372.638316 234.470409 
L 374.472954 234.867005 
L 376.91001 235.152888 
L 380.599824 235.340261 
L 387.808308 235.443556 
L 404.525421 235.448281 
L 405.64811 235.125982 
L 406.57912 234.629452 
L 407.44852 233.907853 
L 408.311074 232.893821 
L 409.214701 231.475436 
L 410.193631 229.505169 
L 411.282092 226.789044 
L 412.541694 223.013104 
L 414.075123 217.667019 
L 416.14936 209.558655 
L 425.103489 173.605814 
L 427.150342 166.690514 
L 428.909678 161.500446 
L 430.497872 157.481677 
L 431.983382 154.307051 
L 433.441508 151.721505 
L 434.865406 149.664548 
L 436.200311 148.109469 
L 437.562598 146.845116 
L 438.965959 145.831981 
L 440.46516 145.022682 
L 441.957515 144.468494 
L 443.265037 144.219185 
L 444.305578 144.244704 
L 445.209205 144.4929 
L 446.044377 144.961706 
L 446.865856 145.688883 
L 447.735256 146.779053 
L 448.645729 148.294383 
L 449.631505 150.372566 
L 450.733657 153.225149 
L 451.980252 157.089468 
L 453.417842 162.303823 
L 455.122412 169.369941 
L 457.292488 179.383793 
L 461.461498 199.962863 
L 463.9054 211.377623 
L 465.486748 217.756432 
L 466.801116 222.180662 
L 467.992262 225.444017 
L 469.121796 227.913097 
L 470.217103 229.7906 
L 471.312409 231.237629 
L 472.435098 232.357702 
L 473.619398 233.227658 
L 474.92692 233.910102 
L 476.439812 234.442566 
L 478.294987 234.850751 
L 480.786809 235.157362 
L 484.244759 235.349699 
L 486.202619 235.273789 
L 487.434839 235.010371 
L 488.42746 234.573705 
L 489.331088 233.929354 
L 490.214179 233.018555 
L 491.131498 231.739067 
L 492.110428 229.973424 
L 493.185197 227.554335 
L 494.410571 224.218842 
L 495.868698 219.566521 
L 497.751255 212.761454 
L 500.879724 200.47979 
L 505.452628 182.688415 
L 507.800691 174.433033 
L 509.621638 168.803288 
L 511.182449 164.667591 
L 512.592656 161.53289 
L 513.907024 159.130915 
L 515.152935 157.300252 
L 516.337235 155.940438 
L 517.446232 154.988437 
L 518.466236 154.390048 
L 519.410938 154.093517 
L 520.232418 154.06283 
L 521.019669 154.256649 
L 521.786384 154.676801 
L 522.587326 155.378777 
L 523.44988 156.451624 
L 524.374045 157.976494 
L 525.387203 160.095985 
L 526.523583 163.01615 
L 527.803723 166.950055 
L 529.282386 172.247582 
L 531.069105 179.524872 
L 533.458242 190.27029 
L 538.613027 213.717732 
L 540.132764 219.425855 
L 541.418723 223.433749 
L 542.596177 226.406209 
L 543.718866 228.657105 
L 544.814172 230.370826 
L 545.916324 231.692456 
L 547.052704 232.714608 
L 548.271233 233.513603 
L 549.63352 234.138174 
L 551.235406 234.620806 
L 553.241185 234.981873 
L 555.993142 235.235358 
L 560.394905 235.392174 
L 575.284225 235.571738 
L 576.72866 235.368354 
L 577.782893 235.000583 
L 578.693366 234.445403 
L 579.55592 233.651299 
L 580.432165 232.529211 
L 581.356329 230.967096 
L 582.362642 228.806513 
L 583.492177 225.82523 
L 584.806544 221.694542 
L 586.442658 215.771938 
L 588.790721 206.347937 
L 595.759608 177.945299 
L 598.039214 169.758707 
L 599.915679 163.815719 
L 601.586021 159.23579 
L 603.146833 155.583169 
L 604.687107 152.552985 
L 606.152079 150.158873 
L 607.65128 148.145402 
L 609.136789 146.524815 
L 610.690755 145.163474 
L 612.320023 144.035781 
L 614.147816 143.061203 
L 616.057756 142.295866 
L 618.220986 141.659556 
L 620.99348 141.097737 
L 624.327319 140.668204 
L 628.722235 140.320395 
L 634.817136 140.077764 
L 636.336873 140.205758 
L 637.43218 140.508013 
L 638.36319 140.994865 
L 639.218898 141.692469 
L 640.081452 142.68716 
L 641.012462 144.125376 
L 642.025621 146.13686 
L 643.141464 148.879098 
L 644.401066 152.589793 
L 645.907113 157.768088 
L 647.755442 164.979545 
L 650.41156 176.339315 
L 655.545808 198.397027 
L 657.448903 205.510915 
L 658.982332 210.422197 
L 660.317236 213.985508 
L 661.522073 216.596653 
L 662.631071 218.491806 
L 663.651075 219.814931 
L 664.595777 220.691312 
L 665.472022 221.211458 
L 666.300347 221.450679 
L 667.108136 221.453747 
L 667.915924 221.232947 
L 668.744249 220.7714 
L 669.599957 220.03322 
L 670.49674 218.954657 
L 671.441441 217.4575 
L 672.468291 215.394167 
L 673.611517 212.573559 
L 674.946421 208.653463 
L 676.603072 203.052814 
L 679.026438 193.98717 
L 684.701493 172.555545 
L 686.768884 165.727305 
L 688.52822 160.655889 
L 690.136951 156.677584 
L 691.649843 153.510153 
L 693.114815 150.941859 
L 694.532758 148.877508 
L 695.984039 147.139899 
L 697.565387 145.612803 
L 699.13989 144.405133 
L 700.906071 143.349069 
L 702.733864 142.518463 
L 704.992933 141.771252 
L 707.649051 141.17652 
L 710.873359 140.727271 
L 714.932838 140.414681 
L 725.310865 140.043818 
L 730.410886 140.036107 
L 731.670488 140.29424 
L 732.663109 140.733631 
L 733.532509 141.365092 
L 734.415599 142.302226 
L 735.312381 143.60275 
L 736.270774 145.407457 
L 737.325007 147.892754 
L 738.495615 151.246419 
L 739.83052 155.778419 
L 741.37764 161.857548 
L 743.253352 170.181069 
L 745.799939 182.587205 
L 751.570835 211.024815 
L 753.152183 217.513348 
L 754.466551 222.014947 
L 755.657696 225.334578 
L 756.780385 227.831059 
L 757.868846 229.730238 
L 758.957307 231.194923 
L 760.07315 232.329654 
L 761.250604 233.211928 
L 762.544435 233.901641 
L 764.03679 234.439135 
L 765.864582 234.851343 
L 768.308484 235.160451 
L 772.094137 235.392045 
L 776.742343 235.472496 
L 778.262081 235.291128 
L 779.343696 234.944268 
L 780.26786 234.413613 
L 781.13726 233.65033 
L 782.013505 232.5718 
L 782.930824 231.073857 
L 783.923445 229.007229 
L 785.032443 226.15857 
L 786.319428 222.205291 
L 787.900776 216.582955 
L 790.098235 207.870239 
L 798.033181 175.725997 
L 800.189566 168.193586 
L 802.003667 162.631797 
L 803.646626 158.286652 
L 805.186901 154.820615 
L 806.651873 152.045941 
L 808.103154 149.756608 
L 809.513361 147.919625 
L 811.033098 146.307226 
L 812.54599 145.019104 
L 814.113647 143.957474 
L 815.961977 142.991005 
L 817.912991 142.228928 
L 820.391122 141.539433 
L 823.321066 141.00671 
L 826.196245 140.718049 
L 827.798131 140.754698 
L 828.907128 140.994229 
L 829.80391 141.402377 
L 830.67331 142.046398 
L 831.501635 142.935674 
L 832.391572 144.228805 
L 833.349965 146.035578 
L 834.404197 148.522386 
L 835.602188 151.962069 
L 836.943939 156.53218 
L 838.50475 162.681491 
L 840.394153 171.08064 
L 842.981815 183.689117 
L 848.472038 210.686499 
L 850.080769 217.322089 
L 851.408828 221.897113 
L 852.599973 225.238838 
L 853.722662 227.755506 
L 854.817969 229.682753 
L 855.906429 231.159669 
L 857.015427 232.298389 
L 858.186036 233.185927 
L 859.473021 233.881302 
L 860.951684 234.42162 
L 862.745248 234.8313 
L 865.100157 235.128096 
L 868.605137 235.325288 
L 875.177249 235.435866 
L 896.583642 235.489922 
L 996.218182 235.492612 
L 996.218182 235.492612 
" style="fill:none;stroke:#ff0000;stroke-linecap:square;stroke-width:1.5;"/>
   </g>
   <g id="line2d_15">
    <path clip-path="url(#p8c96d5b636)" d="M 184.581818 140.093823 
L 297.027198 139.982763 
L 301.983459 139.978232 
L 303.271265 140.208381 
L 304.284424 140.617086 
L 305.160669 141.210943 
L 306.002686 142.048863 
L 306.885776 143.253908 
L 307.823632 144.928634 
L 308.850482 147.238557 
L 310.007399 150.423525 
L 311.321767 154.743024 
L 312.820967 160.477644 
L 314.621377 168.295655 
L 316.976286 179.592661 
L 323.856179 213.233106 
L 325.334842 219.003461 
L 326.60129 223.095306 
L 327.765053 226.137852 
L 328.874051 228.440653 
L 329.962511 230.20498 
L 331.050972 231.558314 
L 332.180507 232.613106 
L 333.385344 233.434431 
L 334.720248 234.073365 
L 336.28106 234.568065 
L 338.218383 234.939534 
L 340.888192 235.208791 
L 345.447405 235.413082 
L 353.258308 235.538218 
L 354.791737 235.354826 
L 355.873352 235.007773 
L 356.790671 234.481227 
L 357.653224 233.725311 
L 358.522624 232.658069 
L 359.439943 231.163558 
L 360.432564 229.099541 
L 361.541562 226.252545 
L 362.828547 222.299839 
L 364.409895 216.676748 
L 366.607354 207.961305 
L 374.561947 175.727849 
L 376.718332 168.195311 
L 378.532433 162.634118 
L 380.175392 158.290086 
L 381.722513 154.811313 
L 383.228559 151.969542 
L 384.67984 149.695553 
L 386.158503 147.791791 
L 387.630321 146.251577 
L 389.16375 144.961308 
L 390.861475 143.83759 
L 392.641347 142.932573 
L 394.647127 142.168429 
L 396.954116 141.534584 
L 399.986746 140.979045 
L 403.026221 140.632429 
L 407.297915 140.346948 
L 417.23782 139.996199 
L 418.935545 140.126736 
L 420.071925 140.436066 
L 421.002936 140.921646 
L 421.865489 141.62561 
L 422.741734 142.644549 
L 423.652208 144.066309 
L 424.637984 146.043449 
L 425.699062 148.679238 
L 426.910744 152.306062 
L 428.320951 157.285473 
L 429.943374 163.879931 
L 431.962845 173.080827 
L 434.988628 188.037807 
L 439.034416 207.868053 
L 440.793752 215.378967 
L 442.190267 220.416945 
L 443.429333 224.08972 
L 444.579404 226.83125 
L 445.688402 228.918737 
L 446.776863 230.508697 
L 447.879015 231.735675 
L 449.035932 232.694568 
L 450.288689 233.44403 
L 451.712587 234.032529 
L 453.410996 234.486004 
L 455.464696 234.798163 
L 457.313025 234.871043 
L 458.620547 234.710467 
L 459.654242 234.362994 
L 460.564716 233.820137 
L 461.434115 233.035745 
L 462.317206 231.92707 
L 463.24137 230.395699 
L 464.247683 228.276781 
L 465.370372 225.367491 
L 466.677894 221.325253 
L 468.293471 215.557021 
L 470.566232 206.532573 
L 478.007469 176.435207 
L 480.204927 168.694207 
L 482.039565 163.01018 
L 483.694984 158.58017 
L 485.196307 155.150854 
L 486.668124 152.314091 
L 488.078331 150.048926 
L 489.543304 148.117259 
L 490.980893 146.586347 
L 492.452711 145.337577 
L 494.068288 144.274198 
L 495.635945 143.491531 
L 497.49112 142.815233 
L 499.407906 142.352151 
L 500.9961 142.188145 
L 502.153018 142.284895 
L 503.077182 142.568627 
L 503.953427 143.065575 
L 504.829672 143.833138 
L 505.705918 144.908441 
L 506.657465 146.448973 
L 507.677469 148.537014 
L 508.820695 151.397785 
L 510.114525 155.248876 
L 511.668491 160.619105 
L 513.571586 168.052642 
L 516.357772 179.939046 
L 521.149737 200.394074 
L 523.059677 207.529975 
L 524.593106 212.444635 
L 525.934856 216.032337 
L 527.153385 218.682405 
L 528.276074 220.61768 
L 529.330306 222.010487 
L 530.309236 222.950833 
L 531.219709 223.528934 
L 532.075417 223.816307 
L 532.903743 223.861224 
L 533.718377 223.682367 
L 534.546702 223.269512 
L 535.40241 222.586266 
L 536.285501 221.587369 
L 537.223357 220.174625 
L 538.222824 218.250073 
L 539.331822 215.610158 
L 540.611961 211.955112 
L 542.171746 206.782375 
L 544.307593 198.857263 
L 551.783059 170.493969 
L 553.727227 164.278904 
L 555.424952 159.564829 
L 556.999455 155.826198 
L 558.49181 152.833935 
L 559.99101 150.329557 
L 561.469674 148.297961 
L 562.927801 146.662666 
L 564.440692 145.291627 
L 566.015195 144.154314 
L 567.76084 143.170673 
L 569.7187 142.338716 
L 571.936695 141.657648 
L 574.483282 141.121586 
L 577.447455 140.71797 
L 581.089349 140.406731 
L 587.305212 140.084919 
L 589.886028 140.075777 
L 591.234623 140.264508 
L 592.261473 140.627739 
L 593.137718 141.16706 
L 594.007118 141.972782 
L 594.876517 143.095467 
L 595.793836 144.655476 
L 596.827531 146.889477 
L 597.977603 149.95782 
L 599.244804 154.00893 
L 600.709776 159.477435 
L 602.441729 166.847255 
L 604.659725 177.324372 
L 609.396924 201.15193 
L 611.662839 211.775198 
L 613.20996 218.020647 
L 614.510636 222.390365 
L 615.694936 225.620481 
L 616.810779 228.044938 
L 617.89924 229.897865 
L 618.9877 231.32423 
L 620.103544 232.427521 
L 621.287844 233.288331 
L 622.595366 233.961438 
L 624.101412 234.481598 
L 625.949741 234.875735 
L 628.407335 235.158745 
L 632.151913 235.343937 
L 640.341587 235.468767 
L 651.493175 235.507748 
L 652.882845 235.239186 
L 653.978151 234.804442 
L 654.963927 234.173025 
L 655.929165 233.283654 
L 656.928632 232.04805 
L 658.003402 230.348528 
L 659.194547 228.027212 
L 660.56368 224.845572 
L 662.234022 220.365716 
L 664.582085 213.368604 
L 669.558884 198.421465 
L 671.461978 193.482892 
L 673.009098 190.05395 
L 674.350849 187.595133 
L 675.555686 185.830597 
L 676.657838 184.59182 
L 677.677842 183.764315 
L 678.622543 183.27422 
L 679.491943 183.067284 
L 680.306577 183.09925 
L 681.093828 183.3529 
L 681.894771 183.850866 
L 682.729942 184.641427 
L 683.626724 185.80852 
L 684.6125 187.473913 
L 685.707806 189.782341 
L 686.946871 192.936663 
L 688.398152 197.271186 
L 690.239636 203.524951 
L 695.278935 221.059186 
L 696.641222 224.746071 
L 697.859751 227.430259 
L 699.016668 229.459943 
L 700.146203 231.006973 
L 701.289429 232.203982 
L 702.480574 233.133241 
L 703.774405 233.859773 
L 705.239377 234.423113 
L 706.991867 234.851342 
L 709.244091 235.161414 
L 712.475244 235.36387 
L 718.218757 235.467536 
L 745.532958 235.54558 
L 746.813098 235.290792 
L 747.805719 234.869798 
L 748.68881 234.25177 
L 749.551364 233.36728 
L 750.434454 232.130847 
L 751.379156 230.407719 
L 752.412851 228.03814 
L 753.590306 224.752367 
L 754.986821 220.155211 
L 756.77354 213.451021 
L 759.600799 201.857046 
L 764.680282 181.063082 
L 767.158413 171.869214 
L 769.123118 165.396207 
L 770.848226 160.452069 
L 772.443266 156.537777 
L 773.956158 153.399411 
L 775.434821 150.837159 
L 776.858719 148.794273 
L 778.316846 147.078923 
L 779.822892 145.648339 
L 781.383704 144.470799 
L 782.978744 143.530247 
L 784.703851 142.753144 
L 786.812316 142.063649 
L 789.201453 141.539831 
L 791.413424 141.292191 
L 792.803094 141.37018 
L 793.782024 141.641271 
L 794.644577 142.100139 
L 795.479748 142.794722 
L 796.335457 143.805631 
L 797.232239 145.221509 
L 798.211169 147.199205 
L 799.299629 149.923954 
L 800.518158 153.601736 
L 801.900982 158.508454 
L 803.537096 165.175637 
L 805.570258 174.458576 
L 808.589196 189.411812 
L 812.573373 208.977207 
L 814.277943 216.227062 
L 815.640231 221.098633 
L 816.851913 224.64506 
L 817.988293 227.311679 
L 819.0836 229.336343 
L 820.17206 230.894155 
L 821.274212 232.092697 
L 822.43113 233.026636 
L 823.690732 233.756931 
L 825.121476 234.324919 
L 826.839738 234.759689 
L 829.071424 235.082318 
L 832.418954 235.319578 
L 839.038712 235.525315 
L 842.338322 235.484236 
L 843.659535 235.245838 
L 844.672694 234.840558 
L 845.56263 234.244207 
L 846.425184 233.391006 
L 847.308275 232.191927 
L 848.246131 230.526228 
L 849.27298 228.225977 
L 850.429898 225.06111 
L 851.799031 220.628675 
L 853.530984 214.212009 
L 856.166565 203.481807 
L 861.84162 180.264229 
L 864.264986 171.343352 
L 866.202309 165.020423 
L 867.913725 160.166708 
L 869.495347 156.328584 
L 871.001393 153.2393 
L 872.486903 150.696286 
L 873.986103 148.583919 
L 875.478458 146.872941 
L 877.046115 145.429557 
L 878.69592 144.23119 
L 880.427874 143.255975 
L 882.385734 142.423859 
L 884.658494 141.723235 
L 887.300921 141.162369 
L 890.326704 140.747703 
L 894.509405 140.422075 
L 899.691574 140.232231 
L 909.227584 140.121807 
L 996.218182 140.093823 
L 996.218182 140.093823 
" style="fill:none;stroke:#008000;stroke-linecap:square;stroke-width:1.5;"/>
   </g>
   <g id="line2d_16">
    <path clip-path="url(#p8c96d5b636)" d="M 184.581818 140.093823 
L 290.585428 140.204523 
L 295.377393 140.444312 
L 298.321028 140.803675 
L 300.511641 141.291216 
L 302.223057 141.891084 
L 303.695697 142.636505 
L 304.996373 143.538933 
L 306.228592 144.673125 
L 307.392355 146.06309 
L 308.487662 147.722359 
L 309.582968 149.792823 
L 310.678274 152.346772 
L 311.842037 155.666497 
L 313.0058 159.673809 
L 314.306477 165.00082 
L 315.744066 171.878248 
L 317.592396 181.899321 
L 321.905164 205.730044 
L 323.41121 212.614133 
L 324.780343 217.851245 
L 326.012563 221.724691 
L 327.176326 224.704672 
L 328.340089 227.10254 
L 329.503852 229.003922 
L 330.667615 230.493586 
L 331.899834 231.708015 
L 333.200511 232.670529 
L 334.569644 233.411275 
L 336.144147 234.005502 
L 337.924019 234.4376 
L 340.046175 234.7207 
L 342.579071 234.82708 
L 345.317337 234.719379 
L 347.91869 234.399315 
L 350.177759 233.9016 
L 352.094545 233.258408 
L 353.805961 232.450437 
L 355.312007 231.499388 
L 356.749597 230.324107 
L 358.11873 228.903486 
L 359.419406 227.224163 
L 360.720082 225.164833 
L 362.020758 222.666862 
L 363.321435 219.676174 
L 364.690568 215.950018 
L 366.135003 211.352559 
L 367.709506 205.588548 
L 369.612532 197.738799 
L 373.103821 182.128455 
L 375.636717 171.351432 
L 377.41659 164.709335 
L 378.991092 159.65989 
L 380.428682 155.758856 
L 381.797815 152.649143 
L 383.166948 150.079513 
L 384.536081 147.985803 
L 385.905214 146.299344 
L 387.274346 144.953472 
L 388.711936 143.840438 
L 390.286439 142.903184 
L 391.997855 142.143332 
L 393.983098 141.513325 
L 396.310624 141.018043 
L 399.185803 140.645854 
L 402.882462 140.406311 
L 407.366372 140.345177 
L 411.336857 140.500377 
L 414.212036 140.820701 
L 416.402649 141.278539 
L 418.182522 141.872918 
L 419.688568 142.606998 
L 420.989244 143.476864 
L 422.221464 144.566911 
L 423.385227 145.898962 
L 424.480533 147.485147 
L 425.57584 149.460454 
L 426.671146 151.893641 
L 427.834909 155.054607 
L 428.998672 158.872485 
L 430.299348 163.958834 
L 431.736938 170.555926 
L 433.51681 179.877023 
L 438.651059 207.535985 
L 440.088648 213.746739 
L 441.389325 218.455657 
L 442.621544 222.126321 
L 443.785307 224.941356 
L 444.94907 227.197512 
L 446.112833 228.975153 
L 447.276596 230.352447 
L 448.440359 231.399739 
L 449.672579 232.215287 
L 450.973255 232.810628 
L 452.384146 233.205955 
L 453.890193 233.38934 
L 455.471541 233.350549 
L 457.046044 233.088864 
L 458.620547 232.595553 
L 460.058136 231.918367 
L 461.427269 231.038158 
L 462.796402 229.885204 
L 464.097079 228.489279 
L 465.397755 226.747113 
L 466.629974 224.725538 
L 467.930651 222.144779 
L 469.231327 219.053746 
L 470.60046 215.20656 
L 472.038049 210.495113 
L 473.681009 204.310706 
L 475.666252 195.915126 
L 482.101176 167.923988 
L 483.792945 161.949479 
L 485.298992 157.402785 
L 486.736581 153.734408 
L 488.174171 150.669482 
L 489.61176 148.12943 
L 491.117806 145.931578 
L 492.692309 144.023542 
L 494.609095 142.063855 
L 501.180933 135.666457 
L 502.823893 133.542265 
L 504.398396 131.141172 
L 506.109812 128.118162 
L 511.312517 118.536543 
L 512.202453 117.523667 
L 512.955476 116.987296 
L 513.571586 116.799964 
L 514.187696 116.856701 
L 514.803806 117.164903 
L 515.488372 117.79894 
L 516.241395 118.828917 
L 517.199788 120.572064 
L 518.500465 123.482927 
L 522.197123 132.073263 
L 523.4978 134.395211 
L 524.661563 136.040354 
L 525.825326 137.305008 
L 526.989089 138.243329 
L 528.221308 138.950577 
L 529.590441 139.475095 
L 531.233401 139.85109 
L 533.2871 140.079775 
L 536.299192 140.171986 
L 542.705708 140.089532 
L 554.555553 139.739204 
L 560.032084 139.363548 
L 564.00257 138.880103 
L 567.220032 138.269565 
L 569.889841 137.542714 
L 572.217367 136.685232 
L 574.339523 135.666686 
L 576.256309 134.503677 
L 578.104639 133.116706 
L 579.816055 131.557903 
L 581.527471 129.694486 
L 583.238887 127.488245 
L 584.950303 124.906538 
L 586.730176 121.800794 
L 588.578506 118.121 
L 590.700662 113.378527 
L 593.781211 105.86205 
L 596.587933 99.206376 
L 598.025523 96.341965 
L 599.094884 94.665992 
L 599.922525 93.731792 
L 600.607091 93.251889 
L 601.223201 93.08146 
L 601.770854 93.161274 
L 602.318507 93.47755 
L 602.86616 94.045813 
L 603.48227 95.001045 
L 604.166837 96.465618 
L 604.988317 98.780385 
L 605.94671 102.199513 
L 607.178929 107.523248 
L 609.711825 119.851357 
L 611.286328 126.861337 
L 612.518547 131.38309 
L 613.613854 134.571873 
L 614.572247 136.735295 
L 615.53064 138.370643 
L 616.420576 139.481032 
L 617.310513 140.263506 
L 618.268906 140.80923 
L 619.295755 141.127329 
L 620.459518 141.240443 
L 621.828651 141.140137 
L 623.608524 140.776057 
L 626.278333 139.982236 
L 631.275668 138.228572 
L 636.172578 136.304905 
L 639.663866 134.702031 
L 642.607502 133.112341 
L 645.277311 131.422422 
L 647.810207 129.554529 
L 650.20619 127.513453 
L 652.602172 125.174629 
L 654.998155 122.512997 
L 657.394138 119.511709 
L 659.858577 116.064489 
L 662.459929 112.040324 
L 665.335108 107.172928 
L 668.757941 100.915062 
L 674.166016 90.479345 
L 679.437177 80.476436 
L 682.723096 74.708459 
L 685.598276 70.103735 
L 688.199628 66.347336 
L 690.664067 63.166906 
L 693.06005 60.427715 
L 695.436385 58.042745 
L 697.832368 55.952245 
L 700.228351 54.151429 
L 702.69279 52.571135 
L 705.294142 51.167116 
L 708.032408 49.942547 
L 710.976044 48.871193 
L 714.193506 47.939766 
L 717.753252 47.142854 
L 721.860651 46.458713 
L 726.659461 45.894489 
L 732.478276 45.444694 
L 739.940051 45.10431 
L 750.331769 44.870765 
L 767.309017 44.739072 
L 810.211619 44.696358 
L 996.153833 44.695028 
L 996.153833 44.695028 
" style="fill:none;stroke:#008000;stroke-dasharray:5.55,2.4;stroke-dashoffset:0;stroke-width:1.5;"/>
   </g>
   <g id="line2d_17">
    <path clip-path="url(#p8c96d5b636)" d="M 184.581818 235.492618 
L 290.243144 235.602749 
L 294.62437 235.846324 
L 297.704919 236.23162 
L 300.100901 236.750308 
L 304.996373 237.95202 
L 306.091679 237.86941 
L 307.118529 237.565985 
L 308.282292 236.975627 
L 309.925251 235.850528 
L 312.184321 234.318503 
L 313.348084 233.80907 
L 314.306477 233.62708 
L 315.196413 233.674462 
L 316.154806 233.952579 
L 317.318569 234.548629 
L 321.083685 236.706388 
L 322.042078 236.892868 
L 323.000471 236.863689 
L 324.164234 236.594644 
L 326.49176 235.746211 
L 328.408546 235.179215 
L 330.119962 234.907085 
L 332.173661 234.820218 
L 335.66495 234.942773 
L 340.593828 235.067426 
L 344.016661 234.925173 
L 346.960296 234.582041 
L 349.424736 234.073048 
L 351.546892 233.404444 
L 353.805961 232.442135 
L 356.2704 231.430537 
L 357.434163 231.202769 
L 358.392556 231.232529 
L 359.350949 231.488341 
L 360.377799 232.013985 
L 361.541562 232.881871 
L 363.321435 234.542239 
L 365.450436 236.465435 
L 366.682656 237.274279 
L 367.709506 237.692461 
L 368.667899 237.854136 
L 369.680989 237.792794 
L 370.776295 237.494323 
L 372.145428 236.87669 
L 377.485046 234.215115 
L 379.128006 233.770267 
L 380.839422 233.533267 
L 382.824665 233.485978 
L 385.56293 233.666831 
L 393.435445 234.555511 
L 399.459629 235.055197 
L 412.979817 236.042542 
L 415.581169 236.554165 
L 417.977152 237.262224 
L 420.510048 237.985786 
L 421.742267 238.092541 
L 422.769117 237.963788 
L 423.864423 237.588745 
L 425.096643 236.91762 
L 429.614782 234.187584 
L 430.641631 233.977705 
L 431.600024 234.015748 
L 432.626874 234.299046 
L 433.859094 234.899513 
L 437.213469 236.691252 
L 438.240319 236.909089 
L 439.267169 236.89339 
L 440.430932 236.637969 
L 442.347718 235.941142 
L 444.606787 235.190766 
L 446.38666 234.839032 
L 448.577272 234.647301 
L 454.232476 234.255841 
L 456.703761 233.781755 
L 459.442027 233.274949 
L 460.60579 233.299326 
L 461.564183 233.535438 
L 462.522576 234.012149 
L 463.480969 234.748817 
L 464.576275 235.899968 
L 465.876951 237.620397 
L 470.737373 244.451585 
L 471.764223 245.366922 
L 472.722616 245.933387 
L 473.612552 246.199207 
L 474.502489 246.219831 
L 475.392425 246.013711 
L 476.419275 245.532055 
L 477.651494 244.683417 
L 479.294454 243.255276 
L 484.477512 238.560722 
L 486.325841 237.281552 
L 488.311084 236.184243 
L 490.707067 235.130107 
L 496.388968 232.733546 
L 498.168841 231.675036 
L 499.60643 230.576043 
L 500.83865 229.36669 
L 501.933956 227.982995 
L 502.960806 226.320452 
L 503.987656 224.206221 
L 505.014505 221.559014 
L 506.109812 218.096556 
L 507.342031 213.42596 
L 508.848078 206.771334 
L 511.586343 193.360972 
L 513.503129 184.529026 
L 514.872262 179.201826 
L 516.104482 175.277118 
L 517.268245 172.27813 
L 518.568921 169.539138 
L 520.485707 166.097446 
L 526.099152 156.62195 
L 527.605198 154.603295 
L 528.837418 153.29906 
L 529.932724 152.436722 
L 530.959574 151.903213 
L 531.917967 151.661153 
L 532.807903 151.668261 
L 533.69784 151.907783 
L 534.587776 152.39265 
L 535.477713 153.143312 
L 536.367649 154.186462 
L 537.326042 155.667329 
L 538.352892 157.68854 
L 539.516655 160.519866 
L 540.817331 164.30387 
L 542.431881 169.728523 
L 544.759407 178.430514 
L 551.064264 202.388418 
L 553.117963 209.158363 
L 554.829379 214.079768 
L 556.403882 217.962947 
L 557.909928 221.093078 
L 559.347518 223.571683 
L 560.716651 225.507063 
L 562.085784 227.070207 
L 563.454917 228.30406 
L 564.82405 229.249443 
L 566.261639 229.970831 
L 567.699229 230.447498 
L 569.205275 230.711726 
L 570.711321 230.755394 
L 572.285824 230.57823 
L 573.860327 230.17879 
L 575.43483 229.555066 
L 577.077789 228.656054 
L 578.720749 227.488306 
L 580.363708 226.030932 
L 582.006668 224.258753 
L 583.649627 222.145224 
L 585.292587 219.666826 
L 587.004003 216.681186 
L 588.783876 213.127113 
L 590.495292 209.219635 
L 592.001338 205.24044 
L 593.438927 200.790493 
L 594.876517 195.56969 
L 596.45102 188.981419 
L 598.847002 177.839147 
L 601.360114 166.431144 
L 602.729247 161.222877 
L 603.824554 157.899521 
L 604.71449 155.841647 
L 605.53597 154.464821 
L 606.288993 153.613996 
L 607.042016 153.098062 
L 607.863496 152.820824 
L 609.027259 152.69762 
L 610.533305 152.503201 
L 611.491698 152.149403 
L 612.518547 151.516688 
L 613.750767 150.466653 
L 615.804466 148.359574 
L 618.542732 145.623202 
L 620.527975 143.964817 
L 622.581674 142.547722 
L 624.9092 141.225667 
L 627.784379 139.863019 
L 632.644801 137.851732 
L 637.815537 135.637186 
L 640.964543 134.04625 
L 643.771265 132.380427 
L 646.372618 130.578213 
L 648.905514 128.549646 
L 653.902849 124.42121 
L 655.066612 123.832772 
L 656.025005 123.582174 
L 656.914941 123.564999 
L 657.804877 123.763806 
L 658.763271 124.215213 
L 659.79012 124.951918 
L 661.02234 126.13125 
L 662.596843 127.984996 
L 665.608935 131.985611 
L 667.799548 134.702676 
L 669.305594 136.244194 
L 670.60627 137.265346 
L 671.701577 137.851154 
L 672.65997 138.127531 
L 673.549906 138.16826 
L 674.439842 137.989852 
L 675.329779 137.587507 
L 676.288172 136.905041 
L 677.315021 135.893548 
L 678.410328 134.500746 
L 679.574091 132.659241 
L 680.80631 130.273803 
L 682.03853 127.394998 
L 683.339206 123.778516 
L 684.776796 119.075338 
L 686.351299 113.115391 
L 688.199628 105.197581 
L 690.800981 92.951997 
L 694.204166 77.048072 
L 695.847125 70.472205 
L 697.216258 65.868489 
L 698.516934 62.259807 
L 699.749154 59.474339 
L 700.981374 57.219502 
L 702.28205 55.311628 
L 703.582726 53.787134 
L 705.020316 52.442944 
L 706.594819 51.275798 
L 708.374691 50.233251 
L 710.428391 49.287347 
L 712.89283 48.403399 
L 715.836466 47.593787 
L 719.327755 46.872955 
L 723.50361 46.247448 
L 728.507791 45.73066 
L 735.421912 45.262535 
L 744.444498 44.85518 
L 746.087457 44.970605 
L 747.182764 45.252322 
L 748.141157 45.731873 
L 749.031093 46.446315 
L 749.921029 47.47701 
L 750.810966 48.861924 
L 751.769359 50.771715 
L 752.864665 53.482629 
L 754.096885 57.152446 
L 755.602931 62.371995 
L 757.65663 70.37312 
L 766.829821 107.203784 
L 768.815064 113.872032 
L 770.594936 119.08928 
L 772.169439 123.052434 
L 773.675485 126.273051 
L 775.181532 128.968139 
L 776.619121 131.097181 
L 778.056711 132.846501 
L 779.562757 134.330696 
L 781.13726 135.56352 
L 782.780219 136.565486 
L 784.560092 137.388682 
L 786.545335 138.058995 
L 788.804404 138.584769 
L 790.975301 138.878392 
L 792.412891 138.874426 
L 793.508197 138.650945 
L 794.398133 138.247999 
L 795.219613 137.642937 
L 796.041093 136.770301 
L 796.931029 135.487527 
L 797.889422 133.691985 
L 798.916272 131.288757 
L 800.080035 127.984714 
L 801.380711 123.613513 
L 802.955214 117.481045 
L 804.803544 109.337721 
L 807.336439 97.08053 
L 813.018341 69.214634 
L 814.592844 62.755205 
L 815.900366 58.265357 
L 817.064129 54.998342 
L 818.159435 52.526851 
L 819.254741 50.579065 
L 820.350048 49.076851 
L 821.445354 47.938383 
L 822.609117 47.042149 
L 823.909793 46.328473 
L 825.415839 45.772502 
L 827.195712 45.362206 
L 829.591695 45.054936 
L 833.35681 44.826987 
L 840.750128 44.640053 
L 842.735371 44.750093 
L 843.96759 45.039659 
L 844.925983 45.490859 
L 845.81592 46.163704 
L 846.705856 47.140422 
L 847.595793 48.462508 
L 848.554186 50.299404 
L 849.649492 52.927473 
L 850.881712 56.513755 
L 852.387758 61.654703 
L 854.373 69.319203 
L 858.343486 85.807332 
L 861.971688 100.424893 
L 864.367671 109.199584 
L 866.284457 115.41653 
L 867.995873 120.235678 
L 869.57065 124.026419 
L 871.076696 127.08891 
L 872.514285 129.533821 
L 873.951875 131.56017 
L 875.389464 133.222493 
L 876.895511 134.633361 
L 878.470013 135.809309 
L 880.18143 136.808134 
L 882.098216 137.656626 
L 884.220372 138.347472 
L 886.753268 138.92694 
L 889.76536 139.377142 
L 893.598932 139.71215 
L 898.93855 139.936814 
L 907.570933 140.056857 
L 932.968349 140.093267 
L 996.153833 140.093823 
L 996.153833 140.093823 
" style="fill:none;stroke:#008000;stroke-dasharray:9.6,2.4,1.5,2.4;stroke-dashoffset:0;stroke-width:1.5;"/>
   </g>
   <g id="patch_3">
    <path d="M 144 256.32 
L 144 34.56 
" style="fill:none;stroke:#000000;stroke-linecap:square;stroke-linejoin:miter;stroke-width:0.8;"/>
   </g>
   <g id="patch_4">
    <path d="M 1036.8 256.32 
L 1036.8 34.56 
" style="fill:none;stroke:#000000;stroke-linecap:square;stroke-linejoin:miter;stroke-width:0.8;"/>
   </g>
   <g id="patch_5">
    <path d="M 144 256.32 
L 1036.8 256.32 
" style="fill:none;stroke:#000000;stroke-linecap:square;stroke-linejoin:miter;stroke-width:0.8;"/>
   </g>
   <g id="patch_6">
    <path d="M 144 34.56 
L 1036.8 34.56 
" style="fill:none;stroke:#000000;stroke-linecap:square;stroke-linejoin:miter;stroke-width:0.8;"/>
   </g>
   <g id="text_17">
    <!-- In  RMSE: 0.0 -->
    <g transform="translate(184.581818 212.306206)scale(0.1 -0.1)">
     <defs>
      <path d="M 9.8125 72.90625 
L 50.296875 72.90625 
L 50.296875 64.59375 
L 35.015625 64.59375 
L 35.015625 8.296875 
L 50.296875 8.296875 
L 50.296875 0 
L 9.8125 0 
L 9.8125 8.296875 
L 25.09375 8.296875 
L 25.09375 64.59375 
L 9.8125 64.59375 
z
" id="DejaVuSansMono-73"/>
      <path d="M 51.3125 33.890625 
L 51.3125 0 
L 42.28125 0 
L 42.28125 33.890625 
Q 42.28125 41.265625 39.6875 44.71875 
Q 37.109375 48.1875 31.59375 48.1875 
Q 25.296875 48.1875 21.890625 43.71875 
Q 18.5 39.265625 18.5 30.90625 
L 18.5 0 
L 9.515625 0 
L 9.515625 54.6875 
L 18.5 54.6875 
L 18.5 46.484375 
Q 20.90625 51.171875 25 53.578125 
Q 29.109375 56 34.71875 56 
Q 43.0625 56 47.1875 50.5 
Q 51.3125 45.015625 51.3125 33.890625 
z
" id="DejaVuSansMono-110"/>
      <path id="DejaVuSansMono-32"/>
      <path d="M 37.109375 34.421875 
Q 40.921875 33.453125 43.609375 30.734375 
Q 46.296875 28.03125 50.296875 19.921875 
L 60.203125 0 
L 49.609375 0 
L 40.921875 18.40625 
Q 37.15625 26.265625 34.15625 28.53125 
Q 31.15625 30.8125 26.3125 30.8125 
L 16.890625 30.8125 
L 16.890625 0 
L 6.984375 0 
L 6.984375 72.90625 
L 27.296875 72.90625 
Q 39.3125 72.90625 45.703125 67.484375 
Q 52.09375 62.0625 52.09375 51.8125 
Q 52.09375 44.578125 48.15625 40.015625 
Q 44.234375 35.453125 37.109375 34.421875 
z
M 16.890625 64.796875 
L 16.890625 38.921875 
L 27.6875 38.921875 
Q 34.765625 38.921875 38.234375 42.09375 
Q 41.703125 45.265625 41.703125 51.8125 
Q 41.703125 58.109375 38.015625 61.453125 
Q 34.328125 64.796875 27.296875 64.796875 
z
" id="DejaVuSansMono-82"/>
      <path d="M 4.203125 72.90625 
L 17.390625 72.90625 
L 29.984375 35.796875 
L 42.671875 72.90625 
L 55.90625 72.90625 
L 55.90625 0 
L 46.78125 0 
L 46.78125 64.40625 
L 33.796875 25.984375 
L 26.3125 25.984375 
L 13.28125 64.40625 
L 13.28125 0 
L 4.203125 0 
z
" id="DejaVuSansMono-77"/>
      <path d="M 49.421875 70.40625 
L 49.421875 60.40625 
Q 44.921875 63.28125 40.40625 64.75 
Q 35.890625 66.21875 31.296875 66.21875 
Q 24.3125 66.21875 20.265625 62.96875 
Q 16.21875 59.71875 16.21875 54.203125 
Q 16.21875 49.359375 18.875 46.8125 
Q 21.53125 44.28125 28.8125 42.578125 
L 33.984375 41.40625 
Q 44.234375 39.015625 48.921875 33.890625 
Q 53.609375 28.765625 53.609375 19.921875 
Q 53.609375 9.515625 47.15625 4.046875 
Q 40.71875 -1.421875 28.421875 -1.421875 
Q 23.296875 -1.421875 18.109375 -0.3125 
Q 12.9375 0.78125 7.71875 2.984375 
L 7.71875 13.484375 
Q 13.328125 9.90625 18.328125 8.25 
Q 23.34375 6.59375 28.421875 6.59375 
Q 35.890625 6.59375 40.03125 9.9375 
Q 44.1875 13.28125 44.1875 19.28125 
Q 44.1875 24.75 41.328125 27.625 
Q 38.484375 30.515625 31.390625 32.078125 
L 26.125 33.296875 
Q 15.96875 35.59375 11.375 40.234375 
Q 6.78125 44.875 6.78125 52.6875 
Q 6.78125 62.453125 13.34375 68.328125 
Q 19.921875 74.21875 30.8125 74.21875 
Q 35.015625 74.21875 39.640625 73.265625 
Q 44.28125 72.3125 49.421875 70.40625 
z
" id="DejaVuSansMono-83"/>
      <path d="M 9.625 72.90625 
L 52.875 72.90625 
L 52.875 64.59375 
L 19.484375 64.59375 
L 19.484375 43.015625 
L 51.421875 43.015625 
L 51.421875 34.71875 
L 19.484375 34.71875 
L 19.484375 8.296875 
L 53.8125 8.296875 
L 53.8125 0 
L 9.625 0 
z
" id="DejaVuSansMono-69"/>
      <path d="M 23.875 51.90625 
L 36.1875 51.90625 
L 36.1875 37.109375 
L 23.875 37.109375 
z
M 23.875 14.890625 
L 36.1875 14.890625 
L 36.1875 0 
L 23.875 0 
z
" id="DejaVuSansMono-58"/>
      <path d="M 23.578125 36.625 
Q 23.578125 39.3125 25.453125 41.265625 
Q 27.34375 43.21875 29.984375 43.21875 
Q 32.71875 43.21875 34.671875 41.265625 
Q 36.625 39.3125 36.625 36.625 
Q 36.625 33.890625 34.6875 31.984375 
Q 32.765625 30.078125 29.984375 30.078125 
Q 27.25 30.078125 25.40625 31.9375 
Q 23.578125 33.796875 23.578125 36.625 
z
M 30.078125 66.40625 
Q 23.1875 66.40625 19.796875 58.984375 
Q 16.40625 51.5625 16.40625 36.375 
Q 16.40625 21.234375 19.796875 13.8125 
Q 23.1875 6.390625 30.078125 6.390625 
Q 37.015625 6.390625 40.40625 13.8125 
Q 43.796875 21.234375 43.796875 36.375 
Q 43.796875 51.5625 40.40625 58.984375 
Q 37.015625 66.40625 30.078125 66.40625 
z
M 30.078125 74.21875 
Q 41.75 74.21875 47.734375 64.640625 
Q 53.71875 55.078125 53.71875 36.375 
Q 53.71875 17.71875 47.734375 8.140625 
Q 41.75 -1.421875 30.078125 -1.421875 
Q 18.40625 -1.421875 12.453125 8.140625 
Q 6.5 17.71875 6.5 36.375 
Q 6.5 55.078125 12.453125 64.640625 
Q 18.40625 74.21875 30.078125 74.21875 
z
" id="DejaVuSansMono-48"/>
      <path d="M 23.875 14.890625 
L 36.1875 14.890625 
L 36.1875 0 
L 23.875 0 
z
" id="DejaVuSansMono-46"/>
     </defs>
     <use xlink:href="#DejaVuSansMono-73"/>
     <use x="60.205078" xlink:href="#DejaVuSansMono-110"/>
     <use x="120.410156" xlink:href="#DejaVuSansMono-32"/>
     <use x="180.615234" xlink:href="#DejaVuSansMono-32"/>
     <use x="240.820312" xlink:href="#DejaVuSansMono-82"/>
     <use x="301.025391" xlink:href="#DejaVuSansMono-77"/>
     <use x="361.230469" xlink:href="#DejaVuSansMono-83"/>
     <use x="421.435547" xlink:href="#DejaVuSansMono-69"/>
     <use x="481.640625" xlink:href="#DejaVuSansMono-58"/>
     <use x="541.845703" xlink:href="#DejaVuSansMono-32"/>
     <use x="602.050781" xlink:href="#DejaVuSansMono-48"/>
     <use x="662.255859" xlink:href="#DejaVuSansMono-46"/>
     <use x="722.460938" xlink:href="#DejaVuSansMono-48"/>
    </g>
    <!-- Out RMSE: 0.7597 -->
    <g transform="translate(184.581818 223.567769)scale(0.1 -0.1)">
     <defs>
      <path d="M 44.1875 36.375 
Q 44.1875 52.4375 40.890625 59.328125 
Q 37.59375 66.21875 30.078125 66.21875 
Q 22.609375 66.21875 19.3125 59.328125 
Q 16.015625 52.4375 16.015625 36.375 
Q 16.015625 20.359375 19.3125 13.46875 
Q 22.609375 6.59375 30.078125 6.59375 
Q 37.59375 6.59375 40.890625 13.453125 
Q 44.1875 20.3125 44.1875 36.375 
z
M 54.5 36.375 
Q 54.5 17.328125 48.46875 7.953125 
Q 42.4375 -1.421875 30.078125 -1.421875 
Q 17.71875 -1.421875 11.71875 7.90625 
Q 5.71875 17.234375 5.71875 36.375 
Q 5.71875 55.46875 11.75 64.84375 
Q 17.78125 74.21875 30.078125 74.21875 
Q 42.4375 74.21875 48.46875 64.84375 
Q 54.5 55.46875 54.5 36.375 
z
" id="DejaVuSansMono-79"/>
      <path d="M 9.515625 20.703125 
L 9.515625 54.59375 
L 18.5 54.59375 
L 18.5 20.703125 
Q 18.5 13.328125 21.109375 9.859375 
Q 23.734375 6.390625 29.203125 6.390625 
Q 35.546875 6.390625 38.90625 10.859375 
Q 42.28125 15.328125 42.28125 23.6875 
L 42.28125 54.59375 
L 51.3125 54.59375 
L 51.3125 0 
L 42.28125 0 
L 42.28125 8.203125 
Q 39.890625 3.46875 35.765625 1.015625 
Q 31.640625 -1.421875 26.125 -1.421875 
Q 17.71875 -1.421875 13.609375 4.078125 
Q 9.515625 9.578125 9.515625 20.703125 
z
" id="DejaVuSansMono-117"/>
      <path d="M 29.984375 70.21875 
L 29.984375 54.6875 
L 50.390625 54.6875 
L 50.390625 47.703125 
L 29.984375 47.703125 
L 29.984375 18.015625 
Q 29.984375 11.96875 32.28125 9.5625 
Q 34.578125 7.171875 40.28125 7.171875 
L 50.390625 7.171875 
L 50.390625 0 
L 39.40625 0 
Q 29.296875 0 25.140625 4.046875 
Q 21 8.109375 21 18.015625 
L 21 47.703125 
L 6.390625 47.703125 
L 6.390625 54.6875 
L 21 54.6875 
L 21 70.21875 
z
" id="DejaVuSansMono-116"/>
      <path d="M 6.78125 72.90625 
L 52.6875 72.90625 
L 52.6875 68.703125 
L 26.609375 0 
L 16.3125 0 
L 41.703125 64.59375 
L 6.78125 64.59375 
z
" id="DejaVuSansMono-55"/>
      <path d="M 10.109375 72.90625 
L 47.015625 72.90625 
L 47.015625 64.59375 
L 19.09375 64.59375 
L 19.09375 46.6875 
Q 21.1875 47.46875 23.3125 47.828125 
Q 25.4375 48.1875 27.59375 48.1875 
Q 38.921875 48.1875 45.5625 41.5 
Q 52.203125 34.8125 52.203125 23.390625 
Q 52.203125 11.859375 45.234375 5.21875 
Q 38.28125 -1.421875 26.21875 -1.421875 
Q 20.40625 -1.421875 15.59375 -0.640625 
Q 10.796875 0.140625 6.984375 1.703125 
L 6.984375 11.71875 
Q 11.46875 9.28125 16.015625 8.078125 
Q 20.5625 6.890625 25.296875 6.890625 
Q 33.453125 6.890625 37.859375 11.1875 
Q 42.28125 15.484375 42.28125 23.390625 
Q 42.28125 31.203125 37.71875 35.546875 
Q 33.15625 39.890625 25 39.890625 
Q 21.046875 39.890625 17.28125 38.984375 
Q 13.53125 38.09375 10.109375 36.28125 
z
" id="DejaVuSansMono-53"/>
      <path d="M 29.109375 32.328125 
Q 35.40625 32.328125 38.984375 36.859375 
Q 42.578125 41.40625 42.578125 49.421875 
Q 42.578125 57.421875 38.984375 61.953125 
Q 35.40625 66.5 29.109375 66.5 
Q 22.5625 66.5 19.234375 62.171875 
Q 15.921875 57.859375 15.921875 49.421875 
Q 15.921875 40.921875 19.21875 36.625 
Q 22.515625 32.328125 29.109375 32.328125 
z
M 11.53125 1.515625 
L 11.53125 10.59375 
Q 14.59375 8.796875 18.0625 7.84375 
Q 21.53125 6.890625 25.296875 6.890625 
Q 34.671875 6.890625 39.46875 13.9375 
Q 44.28125 21 44.28125 34.71875 
Q 42 29.828125 37.84375 27.21875 
Q 33.6875 24.609375 28.328125 24.609375 
Q 17.78125 24.609375 11.984375 31.09375 
Q 6.203125 37.59375 6.203125 49.515625 
Q 6.203125 61.28125 12.125 67.75 
Q 18.0625 74.21875 28.90625 74.21875 
Q 41.609375 74.21875 47.515625 65.078125 
Q 53.421875 55.953125 53.421875 36.375 
Q 53.421875 17.96875 46.3125 8.265625 
Q 39.203125 -1.421875 25.6875 -1.421875 
Q 22.125 -1.421875 18.5 -0.65625 
Q 14.890625 0.09375 11.53125 1.515625 
z
" id="DejaVuSansMono-57"/>
     </defs>
     <use xlink:href="#DejaVuSansMono-79"/>
     <use x="60.205078" xlink:href="#DejaVuSansMono-117"/>
     <use x="120.410156" xlink:href="#DejaVuSansMono-116"/>
     <use x="180.615234" xlink:href="#DejaVuSansMono-32"/>
     <use x="240.820312" xlink:href="#DejaVuSansMono-82"/>
     <use x="301.025391" xlink:href="#DejaVuSansMono-77"/>
     <use x="361.230469" xlink:href="#DejaVuSansMono-83"/>
     <use x="421.435547" xlink:href="#DejaVuSansMono-69"/>
     <use x="481.640625" xlink:href="#DejaVuSansMono-58"/>
     <use x="541.845703" xlink:href="#DejaVuSansMono-32"/>
     <use x="602.050781" xlink:href="#DejaVuSansMono-48"/>
     <use x="662.255859" xlink:href="#DejaVuSansMono-46"/>
     <use x="722.460938" xlink:href="#DejaVuSansMono-55"/>
     <use x="782.666016" xlink:href="#DejaVuSansMono-53"/>
     <use x="842.871094" xlink:href="#DejaVuSansMono-57"/>
     <use x="903.076172" xlink:href="#DejaVuSansMono-55"/>
    </g>
   </g>
   <g id="text_18">
    <!-- ..\WaveformData\t4_traces\inv_t4_invSim_720_200Traces fitting using transfer functions -->
    <g transform="translate(325.554375 28.56)scale(0.12 -0.12)">
     <defs>
      <path d="M 8.296875 72.90625 
L 33.6875 -9.28125 
L 25.390625 -9.28125 
L 0 72.90625 
z
" id="DejaVuSans-92"/>
      <path d="M 3.328125 72.90625 
L 13.28125 72.90625 
L 28.609375 11.28125 
L 43.890625 72.90625 
L 54.984375 72.90625 
L 70.3125 11.28125 
L 85.59375 72.90625 
L 95.609375 72.90625 
L 77.296875 0 
L 64.890625 0 
L 49.515625 63.28125 
L 33.984375 0 
L 21.578125 0 
z
" id="DejaVuSans-87"/>
      <path d="M 2.984375 54.6875 
L 12.5 54.6875 
L 29.59375 8.796875 
L 46.6875 54.6875 
L 56.203125 54.6875 
L 35.6875 0 
L 23.484375 0 
z
" id="DejaVuSans-118"/>
      <path d="M 37.109375 75.984375 
L 37.109375 68.5 
L 28.515625 68.5 
Q 23.6875 68.5 21.796875 66.546875 
Q 19.921875 64.59375 19.921875 59.515625 
L 19.921875 54.6875 
L 34.71875 54.6875 
L 34.71875 47.703125 
L 19.921875 47.703125 
L 19.921875 0 
L 10.890625 0 
L 10.890625 47.703125 
L 2.296875 47.703125 
L 2.296875 54.6875 
L 10.890625 54.6875 
L 10.890625 58.5 
Q 10.890625 67.625 15.140625 71.796875 
Q 19.390625 75.984375 28.609375 75.984375 
z
" id="DejaVuSans-102"/>
      <path d="M 41.109375 46.296875 
Q 39.59375 47.171875 37.8125 47.578125 
Q 36.03125 48 33.890625 48 
Q 26.265625 48 22.1875 43.046875 
Q 18.109375 38.09375 18.109375 28.8125 
L 18.109375 0 
L 9.078125 0 
L 9.078125 54.6875 
L 18.109375 54.6875 
L 18.109375 46.1875 
Q 20.953125 51.171875 25.484375 53.578125 
Q 30.03125 56 36.53125 56 
Q 37.453125 56 38.578125 55.875 
Q 39.703125 55.765625 41.0625 55.515625 
z
" id="DejaVuSans-114"/>
      <path d="M 19.671875 64.796875 
L 19.671875 8.109375 
L 31.59375 8.109375 
Q 46.6875 8.109375 53.6875 14.9375 
Q 60.6875 21.78125 60.6875 36.53125 
Q 60.6875 51.171875 53.6875 57.984375 
Q 46.6875 64.796875 31.59375 64.796875 
z
M 9.8125 72.90625 
L 30.078125 72.90625 
Q 51.265625 72.90625 61.171875 64.09375 
Q 71.09375 55.28125 71.09375 36.53125 
Q 71.09375 17.671875 61.125 8.828125 
Q 51.171875 0 30.078125 0 
L 9.8125 0 
z
" id="DejaVuSans-68"/>
      <path d="M 50.984375 -16.609375 
L 50.984375 -23.578125 
L -0.984375 -23.578125 
L -0.984375 -16.609375 
z
" id="DejaVuSans-95"/>
      <path d="M 48.78125 52.59375 
L 48.78125 44.1875 
Q 44.96875 46.296875 41.140625 47.34375 
Q 37.3125 48.390625 33.40625 48.390625 
Q 24.65625 48.390625 19.8125 42.84375 
Q 14.984375 37.3125 14.984375 27.296875 
Q 14.984375 17.28125 19.8125 11.734375 
Q 24.65625 6.203125 33.40625 6.203125 
Q 37.3125 6.203125 41.140625 7.25 
Q 44.96875 8.296875 48.78125 10.40625 
L 48.78125 2.09375 
Q 45.015625 0.34375 40.984375 -0.53125 
Q 36.96875 -1.421875 32.421875 -1.421875 
Q 20.0625 -1.421875 12.78125 6.34375 
Q 5.515625 14.109375 5.515625 27.296875 
Q 5.515625 40.671875 12.859375 48.328125 
Q 20.21875 56 33.015625 56 
Q 37.15625 56 41.109375 55.140625 
Q 45.0625 54.296875 48.78125 52.59375 
z
" id="DejaVuSans-99"/>
      <path d="M 54.890625 33.015625 
L 54.890625 0 
L 45.90625 0 
L 45.90625 32.71875 
Q 45.90625 40.484375 42.875 44.328125 
Q 39.84375 48.1875 33.796875 48.1875 
Q 26.515625 48.1875 22.3125 43.546875 
Q 18.109375 38.921875 18.109375 30.90625 
L 18.109375 0 
L 9.078125 0 
L 9.078125 54.6875 
L 18.109375 54.6875 
L 18.109375 46.1875 
Q 21.34375 51.125 25.703125 53.5625 
Q 30.078125 56 35.796875 56 
Q 45.21875 56 50.046875 50.171875 
Q 54.890625 44.34375 54.890625 33.015625 
z
" id="DejaVuSans-110"/>
      <path d="M 53.515625 70.515625 
L 53.515625 60.890625 
Q 47.90625 63.578125 42.921875 64.890625 
Q 37.9375 66.21875 33.296875 66.21875 
Q 25.25 66.21875 20.875 63.09375 
Q 16.5 59.96875 16.5 54.203125 
Q 16.5 49.359375 19.40625 46.890625 
Q 22.3125 44.4375 30.421875 42.921875 
L 36.375 41.703125 
Q 47.40625 39.59375 52.65625 34.296875 
Q 57.90625 29 57.90625 20.125 
Q 57.90625 9.515625 50.796875 4.046875 
Q 43.703125 -1.421875 29.984375 -1.421875 
Q 24.8125 -1.421875 18.96875 -0.25 
Q 13.140625 0.921875 6.890625 3.21875 
L 6.890625 13.375 
Q 12.890625 10.015625 18.65625 8.296875 
Q 24.421875 6.59375 29.984375 6.59375 
Q 38.421875 6.59375 43.015625 9.90625 
Q 47.609375 13.234375 47.609375 19.390625 
Q 47.609375 24.75 44.3125 27.78125 
Q 41.015625 30.8125 33.5 32.328125 
L 27.484375 33.5 
Q 16.453125 35.6875 11.515625 40.375 
Q 6.59375 45.0625 6.59375 53.421875 
Q 6.59375 63.09375 13.40625 68.65625 
Q 20.21875 74.21875 32.171875 74.21875 
Q 37.3125 74.21875 42.625 73.28125 
Q 47.953125 72.359375 53.515625 70.515625 
z
" id="DejaVuSans-83"/>
      <path d="M 8.203125 72.90625 
L 55.078125 72.90625 
L 55.078125 68.703125 
L 28.609375 0 
L 18.3125 0 
L 43.21875 64.59375 
L 8.203125 64.59375 
z
" id="DejaVuSans-55"/>
      <path d="M 8.5 21.578125 
L 8.5 54.6875 
L 17.484375 54.6875 
L 17.484375 21.921875 
Q 17.484375 14.15625 20.5 10.265625 
Q 23.53125 6.390625 29.59375 6.390625 
Q 36.859375 6.390625 41.078125 11.03125 
Q 45.3125 15.671875 45.3125 23.6875 
L 45.3125 54.6875 
L 54.296875 54.6875 
L 54.296875 0 
L 45.3125 0 
L 45.3125 8.40625 
Q 42.046875 3.421875 37.71875 1 
Q 33.40625 -1.421875 27.6875 -1.421875 
Q 18.265625 -1.421875 13.375 4.4375 
Q 8.5 10.296875 8.5 21.578125 
z
M 31.109375 56 
z
" id="DejaVuSans-117"/>
     </defs>
     <use xlink:href="#DejaVuSans-46"/>
     <use x="31.787109" xlink:href="#DejaVuSans-46"/>
     <use x="63.574219" xlink:href="#DejaVuSans-92"/>
     <use x="97.265625" xlink:href="#DejaVuSans-87"/>
     <use x="189.767578" xlink:href="#DejaVuSans-97"/>
     <use x="251.046875" xlink:href="#DejaVuSans-118"/>
     <use x="310.226562" xlink:href="#DejaVuSans-101"/>
     <use x="371.75" xlink:href="#DejaVuSans-102"/>
     <use x="406.955078" xlink:href="#DejaVuSans-111"/>
     <use x="468.136719" xlink:href="#DejaVuSans-114"/>
     <use x="507.5" xlink:href="#DejaVuSans-109"/>
     <use x="604.912109" xlink:href="#DejaVuSans-68"/>
     <use x="681.914062" xlink:href="#DejaVuSans-97"/>
     <use x="743.193359" xlink:href="#DejaVuSans-116"/>
     <use x="782.402344" xlink:href="#DejaVuSans-97"/>
     <use x="843.681641" xlink:href="#DejaVuSans-92"/>
     <use x="877.373047" xlink:href="#DejaVuSans-116"/>
     <use x="916.582031" xlink:href="#DejaVuSans-52"/>
     <use x="980.205078" xlink:href="#DejaVuSans-95"/>
     <use x="1030.205078" xlink:href="#DejaVuSans-116"/>
     <use x="1069.414062" xlink:href="#DejaVuSans-114"/>
     <use x="1110.527344" xlink:href="#DejaVuSans-97"/>
     <use x="1171.806641" xlink:href="#DejaVuSans-99"/>
     <use x="1226.787109" xlink:href="#DejaVuSans-101"/>
     <use x="1288.310547" xlink:href="#DejaVuSans-115"/>
     <use x="1340.410156" xlink:href="#DejaVuSans-92"/>
     <use x="1374.101562" xlink:href="#DejaVuSans-105"/>
     <use x="1401.884766" xlink:href="#DejaVuSans-110"/>
     <use x="1465.263672" xlink:href="#DejaVuSans-118"/>
     <use x="1524.443359" xlink:href="#DejaVuSans-95"/>
     <use x="1574.443359" xlink:href="#DejaVuSans-116"/>
     <use x="1613.652344" xlink:href="#DejaVuSans-52"/>
     <use x="1677.275391" xlink:href="#DejaVuSans-95"/>
     <use x="1727.275391" xlink:href="#DejaVuSans-105"/>
     <use x="1755.058594" xlink:href="#DejaVuSans-110"/>
     <use x="1818.4375" xlink:href="#DejaVuSans-118"/>
     <use x="1877.617188" xlink:href="#DejaVuSans-83"/>
     <use x="1941.09375" xlink:href="#DejaVuSans-105"/>
     <use x="1968.876953" xlink:href="#DejaVuSans-109"/>
     <use x="2066.289062" xlink:href="#DejaVuSans-95"/>
     <use x="2116.289062" xlink:href="#DejaVuSans-55"/>
     <use x="2179.912109" xlink:href="#DejaVuSans-50"/>
     <use x="2243.535156" xlink:href="#DejaVuSans-48"/>
     <use x="2307.158203" xlink:href="#DejaVuSans-95"/>
     <use x="2357.158203" xlink:href="#DejaVuSans-50"/>
     <use x="2420.78125" xlink:href="#DejaVuSans-48"/>
     <use x="2484.404297" xlink:href="#DejaVuSans-48"/>
     <use x="2548.027344" xlink:href="#DejaVuSans-84"/>
     <use x="2594.361328" xlink:href="#DejaVuSans-114"/>
     <use x="2635.474609" xlink:href="#DejaVuSans-97"/>
     <use x="2696.753906" xlink:href="#DejaVuSans-99"/>
     <use x="2751.734375" xlink:href="#DejaVuSans-101"/>
     <use x="2813.257812" xlink:href="#DejaVuSans-115"/>
     <use x="2865.357422" xlink:href="#DejaVuSans-32"/>
     <use x="2897.144531" xlink:href="#DejaVuSans-102"/>
     <use x="2932.349609" xlink:href="#DejaVuSans-105"/>
     <use x="2960.132812" xlink:href="#DejaVuSans-116"/>
     <use x="2999.341797" xlink:href="#DejaVuSans-116"/>
     <use x="3038.550781" xlink:href="#DejaVuSans-105"/>
     <use x="3066.333984" xlink:href="#DejaVuSans-110"/>
     <use x="3129.712891" xlink:href="#DejaVuSans-103"/>
     <use x="3193.189453" xlink:href="#DejaVuSans-32"/>
     <use x="3224.976562" xlink:href="#DejaVuSans-117"/>
     <use x="3288.355469" xlink:href="#DejaVuSans-115"/>
     <use x="3340.455078" xlink:href="#DejaVuSans-105"/>
     <use x="3368.238281" xlink:href="#DejaVuSans-110"/>
     <use x="3431.617188" xlink:href="#DejaVuSans-103"/>
     <use x="3495.09375" xlink:href="#DejaVuSans-32"/>
     <use x="3526.880859" xlink:href="#DejaVuSans-116"/>
     <use x="3566.089844" xlink:href="#DejaVuSans-114"/>
     <use x="3607.203125" xlink:href="#DejaVuSans-97"/>
     <use x="3668.482422" xlink:href="#DejaVuSans-110"/>
     <use x="3731.861328" xlink:href="#DejaVuSans-115"/>
     <use x="3783.960938" xlink:href="#DejaVuSans-102"/>
     <use x="3819.166016" xlink:href="#DejaVuSans-101"/>
     <use x="3880.689453" xlink:href="#DejaVuSans-114"/>
     <use x="3921.802734" xlink:href="#DejaVuSans-32"/>
     <use x="3953.589844" xlink:href="#DejaVuSans-102"/>
     <use x="3988.794922" xlink:href="#DejaVuSans-117"/>
     <use x="4052.173828" xlink:href="#DejaVuSans-110"/>
     <use x="4115.552734" xlink:href="#DejaVuSans-99"/>
     <use x="4170.533203" xlink:href="#DejaVuSans-116"/>
     <use x="4209.742188" xlink:href="#DejaVuSans-105"/>
     <use x="4237.525391" xlink:href="#DejaVuSans-111"/>
     <use x="4298.707031" xlink:href="#DejaVuSans-110"/>
     <use x="4362.085938" xlink:href="#DejaVuSans-115"/>
    </g>
   </g>
   <g id="legend_1">
    <g id="patch_7">
     <path d="M 151 176.29625 
L 368.865625 176.29625 
Q 370.865625 176.29625 370.865625 174.29625 
L 370.865625 116.58375 
Q 370.865625 114.58375 368.865625 114.58375 
L 151 114.58375 
Q 149 114.58375 149 116.58375 
L 149 174.29625 
Q 149 176.29625 151 176.29625 
z
" style="fill:#ffffff;opacity:0.8;stroke:#cccccc;stroke-linejoin:miter;"/>
    </g>
    <g id="line2d_18">
     <path d="M 153 122.682187 
L 173 122.682187 
" style="fill:none;stroke:#ff0000;stroke-linecap:square;stroke-width:1.5;"/>
    </g>
    <g id="line2d_19"/>
    <g id="text_19">
     <!-- Input -->
     <g transform="translate(181 126.182187)scale(0.1 -0.1)">
      <defs>
       <path d="M 9.8125 72.90625 
L 19.671875 72.90625 
L 19.671875 0 
L 9.8125 0 
z
" id="DejaVuSans-73"/>
       <path d="M 18.109375 8.203125 
L 18.109375 -20.796875 
L 9.078125 -20.796875 
L 9.078125 54.6875 
L 18.109375 54.6875 
L 18.109375 46.390625 
Q 20.953125 51.265625 25.265625 53.625 
Q 29.59375 56 35.59375 56 
Q 45.5625 56 51.78125 48.09375 
Q 58.015625 40.1875 58.015625 27.296875 
Q 58.015625 14.40625 51.78125 6.484375 
Q 45.5625 -1.421875 35.59375 -1.421875 
Q 29.59375 -1.421875 25.265625 0.953125 
Q 20.953125 3.328125 18.109375 8.203125 
z
M 48.6875 27.296875 
Q 48.6875 37.203125 44.609375 42.84375 
Q 40.53125 48.484375 33.40625 48.484375 
Q 26.265625 48.484375 22.1875 42.84375 
Q 18.109375 37.203125 18.109375 27.296875 
Q 18.109375 17.390625 22.1875 11.75 
Q 26.265625 6.109375 33.40625 6.109375 
Q 40.53125 6.109375 44.609375 11.75 
Q 48.6875 17.390625 48.6875 27.296875 
z
" id="DejaVuSans-112"/>
      </defs>
      <use xlink:href="#DejaVuSans-73"/>
      <use x="29.492188" xlink:href="#DejaVuSans-110"/>
      <use x="92.871094" xlink:href="#DejaVuSans-112"/>
      <use x="156.347656" xlink:href="#DejaVuSans-117"/>
      <use x="219.726562" xlink:href="#DejaVuSans-116"/>
     </g>
    </g>
    <g id="line2d_20">
     <path d="M 153 137.360312 
L 173 137.360312 
" style="fill:none;stroke:#008000;stroke-linecap:square;stroke-width:1.5;"/>
    </g>
    <g id="line2d_21"/>
    <g id="text_20">
     <!-- Output -->
     <g transform="translate(181 140.860312)scale(0.1 -0.1)">
      <defs>
       <path d="M 39.40625 66.21875 
Q 28.65625 66.21875 22.328125 58.203125 
Q 16.015625 50.203125 16.015625 36.375 
Q 16.015625 22.609375 22.328125 14.59375 
Q 28.65625 6.59375 39.40625 6.59375 
Q 50.140625 6.59375 56.421875 14.59375 
Q 62.703125 22.609375 62.703125 36.375 
Q 62.703125 50.203125 56.421875 58.203125 
Q 50.140625 66.21875 39.40625 66.21875 
z
M 39.40625 74.21875 
Q 54.734375 74.21875 63.90625 63.9375 
Q 73.09375 53.65625 73.09375 36.375 
Q 73.09375 19.140625 63.90625 8.859375 
Q 54.734375 -1.421875 39.40625 -1.421875 
Q 24.03125 -1.421875 14.8125 8.828125 
Q 5.609375 19.09375 5.609375 36.375 
Q 5.609375 53.65625 14.8125 63.9375 
Q 24.03125 74.21875 39.40625 74.21875 
z
" id="DejaVuSans-79"/>
      </defs>
      <use xlink:href="#DejaVuSans-79"/>
      <use x="78.710938" xlink:href="#DejaVuSans-117"/>
      <use x="142.089844" xlink:href="#DejaVuSans-116"/>
      <use x="181.298828" xlink:href="#DejaVuSans-112"/>
      <use x="244.775391" xlink:href="#DejaVuSans-117"/>
      <use x="308.154297" xlink:href="#DejaVuSans-116"/>
     </g>
    </g>
    <g id="line2d_22">
     <path d="M 153 152.038437 
L 173 152.038437 
" style="fill:none;stroke:#008000;stroke-dasharray:5.55,2.4;stroke-dashoffset:0;stroke-width:1.5;"/>
    </g>
    <g id="line2d_23"/>
    <g id="text_21">
     <!-- Output fitting from transfer functions -->
     <g transform="translate(181 155.538437)scale(0.1 -0.1)">
      <use xlink:href="#DejaVuSans-79"/>
      <use x="78.710938" xlink:href="#DejaVuSans-117"/>
      <use x="142.089844" xlink:href="#DejaVuSans-116"/>
      <use x="181.298828" xlink:href="#DejaVuSans-112"/>
      <use x="244.775391" xlink:href="#DejaVuSans-117"/>
      <use x="308.154297" xlink:href="#DejaVuSans-116"/>
      <use x="347.363281" xlink:href="#DejaVuSans-32"/>
      <use x="379.150391" xlink:href="#DejaVuSans-102"/>
      <use x="414.355469" xlink:href="#DejaVuSans-105"/>
      <use x="442.138672" xlink:href="#DejaVuSans-116"/>
      <use x="481.347656" xlink:href="#DejaVuSans-116"/>
      <use x="520.556641" xlink:href="#DejaVuSans-105"/>
      <use x="548.339844" xlink:href="#DejaVuSans-110"/>
      <use x="611.71875" xlink:href="#DejaVuSans-103"/>
      <use x="675.195312" xlink:href="#DejaVuSans-32"/>
      <use x="706.982422" xlink:href="#DejaVuSans-102"/>
      <use x="742.1875" xlink:href="#DejaVuSans-114"/>
      <use x="781.050781" xlink:href="#DejaVuSans-111"/>
      <use x="842.232422" xlink:href="#DejaVuSans-109"/>
      <use x="939.644531" xlink:href="#DejaVuSans-32"/>
      <use x="971.431641" xlink:href="#DejaVuSans-116"/>
      <use x="1010.640625" xlink:href="#DejaVuSans-114"/>
      <use x="1051.753906" xlink:href="#DejaVuSans-97"/>
      <use x="1113.033203" xlink:href="#DejaVuSans-110"/>
      <use x="1176.412109" xlink:href="#DejaVuSans-115"/>
      <use x="1228.511719" xlink:href="#DejaVuSans-102"/>
      <use x="1263.716797" xlink:href="#DejaVuSans-101"/>
      <use x="1325.240234" xlink:href="#DejaVuSans-114"/>
      <use x="1366.353516" xlink:href="#DejaVuSans-32"/>
      <use x="1398.140625" xlink:href="#DejaVuSans-102"/>
      <use x="1433.345703" xlink:href="#DejaVuSans-117"/>
      <use x="1496.724609" xlink:href="#DejaVuSans-110"/>
      <use x="1560.103516" xlink:href="#DejaVuSans-99"/>
      <use x="1615.083984" xlink:href="#DejaVuSans-116"/>
      <use x="1654.292969" xlink:href="#DejaVuSans-105"/>
      <use x="1682.076172" xlink:href="#DejaVuSans-111"/>
      <use x="1743.257812" xlink:href="#DejaVuSans-110"/>
      <use x="1806.636719" xlink:href="#DejaVuSans-115"/>
     </g>
    </g>
    <g id="line2d_24">
     <path d="M 153 166.716563 
L 173 166.716563 
" style="fill:none;stroke:#008000;stroke-dasharray:9.6,2.4,1.5,2.4;stroke-dashoffset:0;stroke-width:1.5;"/>
    </g>
    <g id="line2d_25"/>
    <g id="text_22">
     <!-- fitting error -->
     <g transform="translate(181 170.216563)scale(0.1 -0.1)">
      <use xlink:href="#DejaVuSans-102"/>
      <use x="35.205078" xlink:href="#DejaVuSans-105"/>
      <use x="62.988281" xlink:href="#DejaVuSans-116"/>
      <use x="102.197266" xlink:href="#DejaVuSans-116"/>
      <use x="141.40625" xlink:href="#DejaVuSans-105"/>
      <use x="169.189453" xlink:href="#DejaVuSans-110"/>
      <use x="232.568359" xlink:href="#DejaVuSans-103"/>
      <use x="296.044922" xlink:href="#DejaVuSans-32"/>
      <use x="327.832031" xlink:href="#DejaVuSans-101"/>
      <use x="389.355469" xlink:href="#DejaVuSans-114"/>
      <use x="428.71875" xlink:href="#DejaVuSans-114"/>
      <use x="467.582031" xlink:href="#DejaVuSans-111"/>
      <use x="528.763672" xlink:href="#DejaVuSans-114"/>
     </g>
    </g>
   </g>
  </g>
 </g>
 <defs>
  <clipPath id="p8c96d5b636">
   <rect height="221.76" width="892.8" x="144" y="34.56"/>
  </clipPath>
 </defs>
</svg>
