<?xml version="1.0" encoding="utf-8" standalone="no"?>
<!DOCTYPE svg PUBLIC "-//W3C//DTD SVG 1.1//EN"
  "http://www.w3.org/Graphics/SVG/1.1/DTD/svg11.dtd">
<!-- Created with matplotlib (https://matplotlib.org/) -->
<svg height="288pt" version="1.1" viewBox="0 0 1152 288" width="1152pt" xmlns="http://www.w3.org/2000/svg" xmlns:xlink="http://www.w3.org/1999/xlink">
 <defs>
  <style type="text/css">
*{stroke-linecap:butt;stroke-linejoin:round;}
  </style>
 </defs>
 <g id="figure_1">
  <g id="patch_1">
   <path d="M 0 288 
L 1152 288 
L 1152 0 
L 0 0 
z
" style="fill:#ffffff;"/>
  </g>
  <g id="axes_1">
   <g id="patch_2">
    <path d="M 144 256.32 
L 1036.8 256.32 
L 1036.8 34.56 
L 144 34.56 
z
" style="fill:#ffffff;"/>
   </g>
   <g id="matplotlib.axis_1">
    <g id="xtick_1">
     <g id="line2d_1">
      <defs>
       <path d="M 0 0 
L 0 3.5 
" id="mb89890939c" style="stroke:#000000;stroke-width:0.8;"/>
      </defs>
      <g>
       <use style="stroke:#000000;stroke-width:0.8;" x="184.581818" xlink:href="#mb89890939c" y="256.32"/>
      </g>
     </g>
     <g id="text_1">
      <!-- 0.0 -->
      <defs>
       <path d="M 31.78125 66.40625 
Q 24.171875 66.40625 20.328125 58.90625 
Q 16.5 51.421875 16.5 36.375 
Q 16.5 21.390625 20.328125 13.890625 
Q 24.171875 6.390625 31.78125 6.390625 
Q 39.453125 6.390625 43.28125 13.890625 
Q 47.125 21.390625 47.125 36.375 
Q 47.125 51.421875 43.28125 58.90625 
Q 39.453125 66.40625 31.78125 66.40625 
z
M 31.78125 74.21875 
Q 44.046875 74.21875 50.515625 64.515625 
Q 56.984375 54.828125 56.984375 36.375 
Q 56.984375 17.96875 50.515625 8.265625 
Q 44.046875 -1.421875 31.78125 -1.421875 
Q 19.53125 -1.421875 13.0625 8.265625 
Q 6.59375 17.96875 6.59375 36.375 
Q 6.59375 54.828125 13.0625 64.515625 
Q 19.53125 74.21875 31.78125 74.21875 
z
" id="DejaVuSans-48"/>
       <path d="M 10.6875 12.40625 
L 21 12.40625 
L 21 0 
L 10.6875 0 
z
" id="DejaVuSans-46"/>
      </defs>
      <g transform="translate(176.630256 270.918437)scale(0.1 -0.1)">
       <use xlink:href="#DejaVuSans-48"/>
       <use x="63.623047" xlink:href="#DejaVuSans-46"/>
       <use x="95.410156" xlink:href="#DejaVuSans-48"/>
      </g>
     </g>
    </g>
    <g id="xtick_2">
     <g id="line2d_2">
      <g>
       <use style="stroke:#000000;stroke-width:0.8;" x="303.982775" xlink:href="#mb89890939c" y="256.32"/>
      </g>
     </g>
     <g id="text_2">
      <!-- 0.2 -->
      <defs>
       <path d="M 19.1875 8.296875 
L 53.609375 8.296875 
L 53.609375 0 
L 7.328125 0 
L 7.328125 8.296875 
Q 12.9375 14.109375 22.625 23.890625 
Q 32.328125 33.6875 34.8125 36.53125 
Q 39.546875 41.84375 41.421875 45.53125 
Q 43.3125 49.21875 43.3125 52.78125 
Q 43.3125 58.59375 39.234375 62.25 
Q 35.15625 65.921875 28.609375 65.921875 
Q 23.96875 65.921875 18.8125 64.3125 
Q 13.671875 62.703125 7.8125 59.421875 
L 7.8125 69.390625 
Q 13.765625 71.78125 18.9375 73 
Q 24.125 74.21875 28.421875 74.21875 
Q 39.75 74.21875 46.484375 68.546875 
Q 53.21875 62.890625 53.21875 53.421875 
Q 53.21875 48.921875 51.53125 44.890625 
Q 49.859375 40.875 45.40625 35.40625 
Q 44.1875 33.984375 37.640625 27.21875 
Q 31.109375 20.453125 19.1875 8.296875 
z
" id="DejaVuSans-50"/>
      </defs>
      <g transform="translate(296.031213 270.918437)scale(0.1 -0.1)">
       <use xlink:href="#DejaVuSans-48"/>
       <use x="63.623047" xlink:href="#DejaVuSans-46"/>
       <use x="95.410156" xlink:href="#DejaVuSans-50"/>
      </g>
     </g>
    </g>
    <g id="xtick_3">
     <g id="line2d_3">
      <g>
       <use style="stroke:#000000;stroke-width:0.8;" x="423.383732" xlink:href="#mb89890939c" y="256.32"/>
      </g>
     </g>
     <g id="text_3">
      <!-- 0.4 -->
      <defs>
       <path d="M 37.796875 64.3125 
L 12.890625 25.390625 
L 37.796875 25.390625 
z
M 35.203125 72.90625 
L 47.609375 72.90625 
L 47.609375 25.390625 
L 58.015625 25.390625 
L 58.015625 17.1875 
L 47.609375 17.1875 
L 47.609375 0 
L 37.796875 0 
L 37.796875 17.1875 
L 4.890625 17.1875 
L 4.890625 26.703125 
z
" id="DejaVuSans-52"/>
      </defs>
      <g transform="translate(415.43217 270.918437)scale(0.1 -0.1)">
       <use xlink:href="#DejaVuSans-48"/>
       <use x="63.623047" xlink:href="#DejaVuSans-46"/>
       <use x="95.410156" xlink:href="#DejaVuSans-52"/>
      </g>
     </g>
    </g>
    <g id="xtick_4">
     <g id="line2d_4">
      <g>
       <use style="stroke:#000000;stroke-width:0.8;" x="542.784689" xlink:href="#mb89890939c" y="256.32"/>
      </g>
     </g>
     <g id="text_4">
      <!-- 0.6 -->
      <defs>
       <path d="M 33.015625 40.375 
Q 26.375 40.375 22.484375 35.828125 
Q 18.609375 31.296875 18.609375 23.390625 
Q 18.609375 15.53125 22.484375 10.953125 
Q 26.375 6.390625 33.015625 6.390625 
Q 39.65625 6.390625 43.53125 10.953125 
Q 47.40625 15.53125 47.40625 23.390625 
Q 47.40625 31.296875 43.53125 35.828125 
Q 39.65625 40.375 33.015625 40.375 
z
M 52.59375 71.296875 
L 52.59375 62.3125 
Q 48.875 64.0625 45.09375 64.984375 
Q 41.3125 65.921875 37.59375 65.921875 
Q 27.828125 65.921875 22.671875 59.328125 
Q 17.53125 52.734375 16.796875 39.40625 
Q 19.671875 43.65625 24.015625 45.921875 
Q 28.375 48.1875 33.59375 48.1875 
Q 44.578125 48.1875 50.953125 41.515625 
Q 57.328125 34.859375 57.328125 23.390625 
Q 57.328125 12.15625 50.6875 5.359375 
Q 44.046875 -1.421875 33.015625 -1.421875 
Q 20.359375 -1.421875 13.671875 8.265625 
Q 6.984375 17.96875 6.984375 36.375 
Q 6.984375 53.65625 15.1875 63.9375 
Q 23.390625 74.21875 37.203125 74.21875 
Q 40.921875 74.21875 44.703125 73.484375 
Q 48.484375 72.75 52.59375 71.296875 
z
" id="DejaVuSans-54"/>
      </defs>
      <g transform="translate(534.833127 270.918437)scale(0.1 -0.1)">
       <use xlink:href="#DejaVuSans-48"/>
       <use x="63.623047" xlink:href="#DejaVuSans-46"/>
       <use x="95.410156" xlink:href="#DejaVuSans-54"/>
      </g>
     </g>
    </g>
    <g id="xtick_5">
     <g id="line2d_5">
      <g>
       <use style="stroke:#000000;stroke-width:0.8;" x="662.185646" xlink:href="#mb89890939c" y="256.32"/>
      </g>
     </g>
     <g id="text_5">
      <!-- 0.8 -->
      <defs>
       <path d="M 31.78125 34.625 
Q 24.75 34.625 20.71875 30.859375 
Q 16.703125 27.09375 16.703125 20.515625 
Q 16.703125 13.921875 20.71875 10.15625 
Q 24.75 6.390625 31.78125 6.390625 
Q 38.8125 6.390625 42.859375 10.171875 
Q 46.921875 13.96875 46.921875 20.515625 
Q 46.921875 27.09375 42.890625 30.859375 
Q 38.875 34.625 31.78125 34.625 
z
M 21.921875 38.8125 
Q 15.578125 40.375 12.03125 44.71875 
Q 8.5 49.078125 8.5 55.328125 
Q 8.5 64.0625 14.71875 69.140625 
Q 20.953125 74.21875 31.78125 74.21875 
Q 42.671875 74.21875 48.875 69.140625 
Q 55.078125 64.0625 55.078125 55.328125 
Q 55.078125 49.078125 51.53125 44.71875 
Q 48 40.375 41.703125 38.8125 
Q 48.828125 37.15625 52.796875 32.3125 
Q 56.78125 27.484375 56.78125 20.515625 
Q 56.78125 9.90625 50.3125 4.234375 
Q 43.84375 -1.421875 31.78125 -1.421875 
Q 19.734375 -1.421875 13.25 4.234375 
Q 6.78125 9.90625 6.78125 20.515625 
Q 6.78125 27.484375 10.78125 32.3125 
Q 14.796875 37.15625 21.921875 38.8125 
z
M 18.3125 54.390625 
Q 18.3125 48.734375 21.84375 45.5625 
Q 25.390625 42.390625 31.78125 42.390625 
Q 38.140625 42.390625 41.71875 45.5625 
Q 45.3125 48.734375 45.3125 54.390625 
Q 45.3125 60.0625 41.71875 63.234375 
Q 38.140625 66.40625 31.78125 66.40625 
Q 25.390625 66.40625 21.84375 63.234375 
Q 18.3125 60.0625 18.3125 54.390625 
z
" id="DejaVuSans-56"/>
      </defs>
      <g transform="translate(654.234084 270.918437)scale(0.1 -0.1)">
       <use xlink:href="#DejaVuSans-48"/>
       <use x="63.623047" xlink:href="#DejaVuSans-46"/>
       <use x="95.410156" xlink:href="#DejaVuSans-56"/>
      </g>
     </g>
    </g>
    <g id="xtick_6">
     <g id="line2d_6">
      <g>
       <use style="stroke:#000000;stroke-width:0.8;" x="781.586603" xlink:href="#mb89890939c" y="256.32"/>
      </g>
     </g>
     <g id="text_6">
      <!-- 1.0 -->
      <defs>
       <path d="M 12.40625 8.296875 
L 28.515625 8.296875 
L 28.515625 63.921875 
L 10.984375 60.40625 
L 10.984375 69.390625 
L 28.421875 72.90625 
L 38.28125 72.90625 
L 38.28125 8.296875 
L 54.390625 8.296875 
L 54.390625 0 
L 12.40625 0 
z
" id="DejaVuSans-49"/>
      </defs>
      <g transform="translate(773.635041 270.918437)scale(0.1 -0.1)">
       <use xlink:href="#DejaVuSans-49"/>
       <use x="63.623047" xlink:href="#DejaVuSans-46"/>
       <use x="95.410156" xlink:href="#DejaVuSans-48"/>
      </g>
     </g>
    </g>
    <g id="xtick_7">
     <g id="line2d_7">
      <g>
       <use style="stroke:#000000;stroke-width:0.8;" x="900.987561" xlink:href="#mb89890939c" y="256.32"/>
      </g>
     </g>
     <g id="text_7">
      <!-- 1.2 -->
      <g transform="translate(893.035998 270.918437)scale(0.1 -0.1)">
       <use xlink:href="#DejaVuSans-49"/>
       <use x="63.623047" xlink:href="#DejaVuSans-46"/>
       <use x="95.410156" xlink:href="#DejaVuSans-50"/>
      </g>
     </g>
    </g>
    <g id="xtick_8">
     <g id="line2d_8">
      <g>
       <use style="stroke:#000000;stroke-width:0.8;" x="1020.388518" xlink:href="#mb89890939c" y="256.32"/>
      </g>
     </g>
     <g id="text_8">
      <!-- 1.4 -->
      <g transform="translate(1012.436955 270.918437)scale(0.1 -0.1)">
       <use xlink:href="#DejaVuSans-49"/>
       <use x="63.623047" xlink:href="#DejaVuSans-46"/>
       <use x="95.410156" xlink:href="#DejaVuSans-52"/>
      </g>
     </g>
    </g>
    <g id="text_9">
     <!-- Time [s] -->
     <defs>
      <path d="M -0.296875 72.90625 
L 61.375 72.90625 
L 61.375 64.59375 
L 35.5 64.59375 
L 35.5 0 
L 25.59375 0 
L 25.59375 64.59375 
L -0.296875 64.59375 
z
" id="DejaVuSans-84"/>
      <path d="M 9.421875 54.6875 
L 18.40625 54.6875 
L 18.40625 0 
L 9.421875 0 
z
M 9.421875 75.984375 
L 18.40625 75.984375 
L 18.40625 64.59375 
L 9.421875 64.59375 
z
" id="DejaVuSans-105"/>
      <path d="M 52 44.1875 
Q 55.375 50.25 60.0625 53.125 
Q 64.75 56 71.09375 56 
Q 79.640625 56 84.28125 50.015625 
Q 88.921875 44.046875 88.921875 33.015625 
L 88.921875 0 
L 79.890625 0 
L 79.890625 32.71875 
Q 79.890625 40.578125 77.09375 44.375 
Q 74.3125 48.1875 68.609375 48.1875 
Q 61.625 48.1875 57.5625 43.546875 
Q 53.515625 38.921875 53.515625 30.90625 
L 53.515625 0 
L 44.484375 0 
L 44.484375 32.71875 
Q 44.484375 40.625 41.703125 44.40625 
Q 38.921875 48.1875 33.109375 48.1875 
Q 26.21875 48.1875 22.15625 43.53125 
Q 18.109375 38.875 18.109375 30.90625 
L 18.109375 0 
L 9.078125 0 
L 9.078125 54.6875 
L 18.109375 54.6875 
L 18.109375 46.1875 
Q 21.1875 51.21875 25.484375 53.609375 
Q 29.78125 56 35.6875 56 
Q 41.65625 56 45.828125 52.96875 
Q 50 49.953125 52 44.1875 
z
" id="DejaVuSans-109"/>
      <path d="M 56.203125 29.59375 
L 56.203125 25.203125 
L 14.890625 25.203125 
Q 15.484375 15.921875 20.484375 11.0625 
Q 25.484375 6.203125 34.421875 6.203125 
Q 39.59375 6.203125 44.453125 7.46875 
Q 49.3125 8.734375 54.109375 11.28125 
L 54.109375 2.78125 
Q 49.265625 0.734375 44.1875 -0.34375 
Q 39.109375 -1.421875 33.890625 -1.421875 
Q 20.796875 -1.421875 13.15625 6.1875 
Q 5.515625 13.8125 5.515625 26.8125 
Q 5.515625 40.234375 12.765625 48.109375 
Q 20.015625 56 32.328125 56 
Q 43.359375 56 49.78125 48.890625 
Q 56.203125 41.796875 56.203125 29.59375 
z
M 47.21875 32.234375 
Q 47.125 39.59375 43.09375 43.984375 
Q 39.0625 48.390625 32.421875 48.390625 
Q 24.90625 48.390625 20.390625 44.140625 
Q 15.875 39.890625 15.1875 32.171875 
z
" id="DejaVuSans-101"/>
      <path id="DejaVuSans-32"/>
      <path d="M 8.59375 75.984375 
L 29.296875 75.984375 
L 29.296875 69 
L 17.578125 69 
L 17.578125 -6.203125 
L 29.296875 -6.203125 
L 29.296875 -13.1875 
L 8.59375 -13.1875 
z
" id="DejaVuSans-91"/>
      <path d="M 44.28125 53.078125 
L 44.28125 44.578125 
Q 40.484375 46.53125 36.375 47.5 
Q 32.28125 48.484375 27.875 48.484375 
Q 21.1875 48.484375 17.84375 46.4375 
Q 14.5 44.390625 14.5 40.28125 
Q 14.5 37.15625 16.890625 35.375 
Q 19.28125 33.59375 26.515625 31.984375 
L 29.59375 31.296875 
Q 39.15625 29.25 43.1875 25.515625 
Q 47.21875 21.78125 47.21875 15.09375 
Q 47.21875 7.46875 41.1875 3.015625 
Q 35.15625 -1.421875 24.609375 -1.421875 
Q 20.21875 -1.421875 15.453125 -0.5625 
Q 10.6875 0.296875 5.421875 2 
L 5.421875 11.28125 
Q 10.40625 8.6875 15.234375 7.390625 
Q 20.0625 6.109375 24.8125 6.109375 
Q 31.15625 6.109375 34.5625 8.28125 
Q 37.984375 10.453125 37.984375 14.40625 
Q 37.984375 18.0625 35.515625 20.015625 
Q 33.0625 21.96875 24.703125 23.78125 
L 21.578125 24.515625 
Q 13.234375 26.265625 9.515625 29.90625 
Q 5.8125 33.546875 5.8125 39.890625 
Q 5.8125 47.609375 11.28125 51.796875 
Q 16.75 56 26.8125 56 
Q 31.78125 56 36.171875 55.265625 
Q 40.578125 54.546875 44.28125 53.078125 
z
" id="DejaVuSans-115"/>
      <path d="M 30.421875 75.984375 
L 30.421875 -13.1875 
L 9.71875 -13.1875 
L 9.71875 -6.203125 
L 21.390625 -6.203125 
L 21.390625 69 
L 9.71875 69 
L 9.71875 75.984375 
z
" id="DejaVuSans-93"/>
     </defs>
     <g transform="translate(569.917187 284.596563)scale(0.1 -0.1)">
      <use xlink:href="#DejaVuSans-84"/>
      <use x="61.037109" xlink:href="#DejaVuSans-105"/>
      <use x="88.820312" xlink:href="#DejaVuSans-109"/>
      <use x="186.232422" xlink:href="#DejaVuSans-101"/>
      <use x="247.755859" xlink:href="#DejaVuSans-32"/>
      <use x="279.542969" xlink:href="#DejaVuSans-91"/>
      <use x="318.556641" xlink:href="#DejaVuSans-115"/>
      <use x="370.65625" xlink:href="#DejaVuSans-93"/>
     </g>
    </g>
    <g id="text_10">
     <!-- 1e−8 -->
     <defs>
      <path d="M 10.59375 35.5 
L 73.1875 35.5 
L 73.1875 27.203125 
L 10.59375 27.203125 
z
" id="DejaVuSans-8722"/>
     </defs>
     <g transform="translate(1009.542187 283.596563)scale(0.1 -0.1)">
      <use xlink:href="#DejaVuSans-49"/>
      <use x="63.623047" xlink:href="#DejaVuSans-101"/>
      <use x="125.146484" xlink:href="#DejaVuSans-8722"/>
      <use x="208.935547" xlink:href="#DejaVuSans-56"/>
     </g>
    </g>
   </g>
   <g id="matplotlib.axis_2">
    <g id="ytick_1">
     <g id="line2d_9">
      <defs>
       <path d="M 0 0 
L -3.5 0 
" id="mf8b9576b89" style="stroke:#000000;stroke-width:0.8;"/>
      </defs>
      <g>
       <use style="stroke:#000000;stroke-width:0.8;" x="144" xlink:href="#mf8b9576b89" y="229.482385"/>
      </g>
     </g>
     <g id="text_11">
      <!-- 0.0 -->
      <g transform="translate(121.096875 233.281603)scale(0.1 -0.1)">
       <use xlink:href="#DejaVuSans-48"/>
       <use x="63.623047" xlink:href="#DejaVuSans-46"/>
       <use x="95.410156" xlink:href="#DejaVuSans-48"/>
      </g>
     </g>
    </g>
    <g id="ytick_2">
     <g id="line2d_10">
      <g>
       <use style="stroke:#000000;stroke-width:0.8;" x="144" xlink:href="#mf8b9576b89" y="198.73116"/>
      </g>
     </g>
     <g id="text_12">
      <!-- 0.2 -->
      <g transform="translate(121.096875 202.530378)scale(0.1 -0.1)">
       <use xlink:href="#DejaVuSans-48"/>
       <use x="63.623047" xlink:href="#DejaVuSans-46"/>
       <use x="95.410156" xlink:href="#DejaVuSans-50"/>
      </g>
     </g>
    </g>
    <g id="ytick_3">
     <g id="line2d_11">
      <g>
       <use style="stroke:#000000;stroke-width:0.8;" x="144" xlink:href="#mf8b9576b89" y="167.979935"/>
      </g>
     </g>
     <g id="text_13">
      <!-- 0.4 -->
      <g transform="translate(121.096875 171.779153)scale(0.1 -0.1)">
       <use xlink:href="#DejaVuSans-48"/>
       <use x="63.623047" xlink:href="#DejaVuSans-46"/>
       <use x="95.410156" xlink:href="#DejaVuSans-52"/>
      </g>
     </g>
    </g>
    <g id="ytick_4">
     <g id="line2d_12">
      <g>
       <use style="stroke:#000000;stroke-width:0.8;" x="144" xlink:href="#mf8b9576b89" y="137.22871"/>
      </g>
     </g>
     <g id="text_14">
      <!-- 0.6 -->
      <g transform="translate(121.096875 141.027928)scale(0.1 -0.1)">
       <use xlink:href="#DejaVuSans-48"/>
       <use x="63.623047" xlink:href="#DejaVuSans-46"/>
       <use x="95.410156" xlink:href="#DejaVuSans-54"/>
      </g>
     </g>
    </g>
    <g id="ytick_5">
     <g id="line2d_13">
      <g>
       <use style="stroke:#000000;stroke-width:0.8;" x="144" xlink:href="#mf8b9576b89" y="106.477485"/>
      </g>
     </g>
     <g id="text_15">
      <!-- 0.8 -->
      <g transform="translate(121.096875 110.276703)scale(0.1 -0.1)">
       <use xlink:href="#DejaVuSans-48"/>
       <use x="63.623047" xlink:href="#DejaVuSans-46"/>
       <use x="95.410156" xlink:href="#DejaVuSans-56"/>
      </g>
     </g>
    </g>
    <g id="ytick_6">
     <g id="line2d_14">
      <g>
       <use style="stroke:#000000;stroke-width:0.8;" x="144" xlink:href="#mf8b9576b89" y="75.72626"/>
      </g>
     </g>
     <g id="text_16">
      <!-- 1.0 -->
      <g transform="translate(121.096875 79.525478)scale(0.1 -0.1)">
       <use xlink:href="#DejaVuSans-49"/>
       <use x="63.623047" xlink:href="#DejaVuSans-46"/>
       <use x="95.410156" xlink:href="#DejaVuSans-48"/>
      </g>
     </g>
    </g>
    <g id="ytick_7">
     <g id="line2d_15">
      <g>
       <use style="stroke:#000000;stroke-width:0.8;" x="144" xlink:href="#mf8b9576b89" y="44.975035"/>
      </g>
     </g>
     <g id="text_17">
      <!-- 1.2 -->
      <g transform="translate(121.096875 48.774253)scale(0.1 -0.1)">
       <use xlink:href="#DejaVuSans-49"/>
       <use x="63.623047" xlink:href="#DejaVuSans-46"/>
       <use x="95.410156" xlink:href="#DejaVuSans-50"/>
      </g>
     </g>
    </g>
    <g id="text_18">
     <!-- Voltage [V] -->
     <defs>
      <path d="M 28.609375 0 
L 0.78125 72.90625 
L 11.078125 72.90625 
L 34.1875 11.53125 
L 57.328125 72.90625 
L 67.578125 72.90625 
L 39.796875 0 
z
" id="DejaVuSans-86"/>
      <path d="M 30.609375 48.390625 
Q 23.390625 48.390625 19.1875 42.75 
Q 14.984375 37.109375 14.984375 27.296875 
Q 14.984375 17.484375 19.15625 11.84375 
Q 23.34375 6.203125 30.609375 6.203125 
Q 37.796875 6.203125 41.984375 11.859375 
Q 46.1875 17.53125 46.1875 27.296875 
Q 46.1875 37.015625 41.984375 42.703125 
Q 37.796875 48.390625 30.609375 48.390625 
z
M 30.609375 56 
Q 42.328125 56 49.015625 48.375 
Q 55.71875 40.765625 55.71875 27.296875 
Q 55.71875 13.875 49.015625 6.21875 
Q 42.328125 -1.421875 30.609375 -1.421875 
Q 18.84375 -1.421875 12.171875 6.21875 
Q 5.515625 13.875 5.515625 27.296875 
Q 5.515625 40.765625 12.171875 48.375 
Q 18.84375 56 30.609375 56 
z
" id="DejaVuSans-111"/>
      <path d="M 9.421875 75.984375 
L 18.40625 75.984375 
L 18.40625 0 
L 9.421875 0 
z
" id="DejaVuSans-108"/>
      <path d="M 18.3125 70.21875 
L 18.3125 54.6875 
L 36.8125 54.6875 
L 36.8125 47.703125 
L 18.3125 47.703125 
L 18.3125 18.015625 
Q 18.3125 11.328125 20.140625 9.421875 
Q 21.96875 7.515625 27.59375 7.515625 
L 36.8125 7.515625 
L 36.8125 0 
L 27.59375 0 
Q 17.1875 0 13.234375 3.875 
Q 9.28125 7.765625 9.28125 18.015625 
L 9.28125 47.703125 
L 2.6875 47.703125 
L 2.6875 54.6875 
L 9.28125 54.6875 
L 9.28125 70.21875 
z
" id="DejaVuSans-116"/>
      <path d="M 34.28125 27.484375 
Q 23.390625 27.484375 19.1875 25 
Q 14.984375 22.515625 14.984375 16.5 
Q 14.984375 11.71875 18.140625 8.90625 
Q 21.296875 6.109375 26.703125 6.109375 
Q 34.1875 6.109375 38.703125 11.40625 
Q 43.21875 16.703125 43.21875 25.484375 
L 43.21875 27.484375 
z
M 52.203125 31.203125 
L 52.203125 0 
L 43.21875 0 
L 43.21875 8.296875 
Q 40.140625 3.328125 35.546875 0.953125 
Q 30.953125 -1.421875 24.3125 -1.421875 
Q 15.921875 -1.421875 10.953125 3.296875 
Q 6 8.015625 6 15.921875 
Q 6 25.140625 12.171875 29.828125 
Q 18.359375 34.515625 30.609375 34.515625 
L 43.21875 34.515625 
L 43.21875 35.40625 
Q 43.21875 41.609375 39.140625 45 
Q 35.0625 48.390625 27.6875 48.390625 
Q 23 48.390625 18.546875 47.265625 
Q 14.109375 46.140625 10.015625 43.890625 
L 10.015625 52.203125 
Q 14.9375 54.109375 19.578125 55.046875 
Q 24.21875 56 28.609375 56 
Q 40.484375 56 46.34375 49.84375 
Q 52.203125 43.703125 52.203125 31.203125 
z
" id="DejaVuSans-97"/>
      <path d="M 45.40625 27.984375 
Q 45.40625 37.75 41.375 43.109375 
Q 37.359375 48.484375 30.078125 48.484375 
Q 22.859375 48.484375 18.828125 43.109375 
Q 14.796875 37.75 14.796875 27.984375 
Q 14.796875 18.265625 18.828125 12.890625 
Q 22.859375 7.515625 30.078125 7.515625 
Q 37.359375 7.515625 41.375 12.890625 
Q 45.40625 18.265625 45.40625 27.984375 
z
M 54.390625 6.78125 
Q 54.390625 -7.171875 48.1875 -13.984375 
Q 42 -20.796875 29.203125 -20.796875 
Q 24.46875 -20.796875 20.265625 -20.09375 
Q 16.0625 -19.390625 12.109375 -17.921875 
L 12.109375 -9.1875 
Q 16.0625 -11.328125 19.921875 -12.34375 
Q 23.78125 -13.375 27.78125 -13.375 
Q 36.625 -13.375 41.015625 -8.765625 
Q 45.40625 -4.15625 45.40625 5.171875 
L 45.40625 9.625 
Q 42.625 4.78125 38.28125 2.390625 
Q 33.9375 0 27.875 0 
Q 17.828125 0 11.671875 7.65625 
Q 5.515625 15.328125 5.515625 27.984375 
Q 5.515625 40.671875 11.671875 48.328125 
Q 17.828125 56 27.875 56 
Q 33.9375 56 38.28125 53.609375 
Q 42.625 51.21875 45.40625 46.390625 
L 45.40625 54.6875 
L 54.390625 54.6875 
z
" id="DejaVuSans-103"/>
     </defs>
     <g transform="translate(115.017187 173.489219)rotate(-90)scale(0.1 -0.1)">
      <use xlink:href="#DejaVuSans-86"/>
      <use x="68.298828" xlink:href="#DejaVuSans-111"/>
      <use x="129.480469" xlink:href="#DejaVuSans-108"/>
      <use x="157.263672" xlink:href="#DejaVuSans-116"/>
      <use x="196.472656" xlink:href="#DejaVuSans-97"/>
      <use x="257.751953" xlink:href="#DejaVuSans-103"/>
      <use x="321.228516" xlink:href="#DejaVuSans-101"/>
      <use x="382.751953" xlink:href="#DejaVuSans-32"/>
      <use x="414.539062" xlink:href="#DejaVuSans-91"/>
      <use x="453.552734" xlink:href="#DejaVuSans-86"/>
      <use x="521.960938" xlink:href="#DejaVuSans-93"/>
     </g>
    </g>
   </g>
   <g id="line2d_16">
    <path clip-path="url(#p8fde8c4bd5)" d="M 184.581818 229.482371 
L 268.167145 229.593354 
L 274.071522 229.663065 
L 275.00285 229.406016 
L 275.743135 228.971936 
L 276.411781 228.315869 
L 277.068486 227.346258 
L 277.749072 225.922797 
L 278.477417 223.855845 
L 279.277404 220.877678 
L 280.166941 216.661433 
L 281.187819 210.678672 
L 282.399739 202.166579 
L 283.940011 189.651261 
L 286.28624 168.528198 
L 291.516002 121.140929 
L 293.695905 103.539897 
L 295.439159 91.191466 
L 296.973461 81.849705 
L 298.388363 74.553408 
L 299.731624 68.756033 
L 301.039064 64.083231 
L 302.334564 60.286685 
L 303.612155 57.240161 
L 304.877805 54.796053 
L 306.077784 52.916846 
L 307.349405 51.308249 
L 308.680725 49.967342 
L 310.250848 48.739907 
L 311.922461 47.753869 
L 313.964218 46.877767 
L 316.071645 46.235835 
L 318.716376 45.669244 
L 321.922291 45.204131 
L 324.495382 45.050068 
L 325.47447 45.210896 
L 326.238636 45.562691 
L 326.907281 46.1239 
L 327.552047 46.965561 
L 328.214722 48.212062 
L 328.901277 49.97995 
L 329.677384 52.625017 
L 330.5311 56.365288 
L 331.492278 61.617598 
L 332.590767 68.914402 
L 333.856417 78.88298 
L 335.366839 92.640617 
L 337.277255 112.221706 
L 340.374456 146.631143 
L 343.38336 179.242786 
L 344.917662 193.541752 
L 346.147492 203.035024 
L 347.245981 209.862626 
L 348.266859 214.869419 
L 349.239977 218.579739 
L 350.189214 221.35796 
L 351.126512 223.439209 
L 352.069779 225.009474 
L 353.036927 226.199239 
L 354.063775 227.113661 
L 355.192114 227.818834 
L 356.493585 228.364729 
L 358.111468 228.791859 
L 360.338296 229.133239 
L 363.902414 229.429764 
L 367.579964 229.548199 
L 368.678453 229.366381 
L 369.478439 229.011687 
L 370.170964 228.457505 
L 370.82767 227.637768 
L 371.496315 226.42952 
L 372.206751 224.657105 
L 372.976887 222.100159 
L 373.824634 218.471509 
L 374.785811 213.319279 
L 375.90221 206.047752 
L 377.269351 195.584279 
L 379.143946 179.359917 
L 387.143811 108.131593 
L 388.982526 94.547839 
L 390.570558 84.409545 
L 392.01531 76.56729 
L 393.370511 70.387386 
L 394.689891 65.388774 
L 395.973452 61.387117 
L 397.245072 58.147476 
L 398.492812 55.562989 
L 399.698761 53.532024 
L 400.970382 51.800884 
L 402.325582 50.333897 
L 403.615113 49.22716 
L 405.280756 48.121192 
L 406.755358 47.376244 
L 408.731444 46.632064 
L 411.250804 45.969375 
L 414.737312 45.364191 
L 418.25964 45.022084 
L 419.405889 45.103575 
L 420.199906 45.358964 
L 420.868551 45.790403 
L 421.543167 46.508137 
L 422.193902 47.544761 
L 422.892397 49.111843 
L 423.620743 51.314707 
L 424.43864 54.532669 
L 425.358027 59.108605 
L 426.408756 65.550525 
L 427.626645 74.525578 
L 429.023636 86.570064 
L 430.74301 103.441201 
L 433.125059 129.226241 
L 437.960798 182.010612 
L 439.42346 195.271324 
L 440.623439 204.239042 
L 441.704018 210.722308 
L 442.712956 215.490734 
L 443.680104 219.039492 
L 444.623372 221.693565 
L 445.560669 223.692206 
L 446.503937 225.197853 
L 447.477054 226.343309 
L 448.509873 227.220734 
L 449.649973 227.897488 
L 450.969353 228.418136 
L 452.599176 228.813709 
L 454.790184 229.10271 
L 458.127441 229.297092 
L 464.784044 229.417758 
L 474.765964 229.628417 
L 478.998728 229.673686 
L 479.971846 229.440799 
L 480.730042 229.032443 
L 481.404657 228.410814 
L 482.061363 227.490019 
L 482.735978 226.14103 
L 483.4571 224.174529 
L 484.245146 221.343275 
L 485.122743 217.312145 
L 486.119741 211.628562 
L 487.301811 203.520586 
L 488.788353 191.666143 
L 490.96145 172.340551 
L 496.955378 118.287047 
L 499.050865 101.673205 
L 500.758299 89.828479 
L 502.268721 80.847968 
L 503.647802 73.931003 
L 504.925392 68.591668 
L 506.167162 64.322322 
L 507.367142 60.972283 
L 508.537271 58.347205 
L 509.65964 56.339919 
L 510.782009 54.756384 
L 511.940198 53.500504 
L 513.044657 52.627016 
L 513.975985 52.158367 
L 514.69836 52.015066 
L 515.349096 52.107935 
L 515.92819 52.416831 
L 516.507285 52.98619 
L 517.11623 53.914416 
L 517.772935 55.344501 
L 518.507251 57.519228 
L 519.325148 60.690756 
L 520.226625 65.109399 
L 521.259443 71.330987 
L 522.435542 79.824767 
L 523.826564 91.576533 
L 525.522057 107.902988 
L 527.872644 132.900321 
L 532.583012 183.403811 
L 534.027763 196.229132 
L 535.221773 204.947812 
L 536.296382 211.238113 
L 537.30532 215.884577 
L 538.272467 219.337491 
L 539.215735 221.917014 
L 540.153033 223.857953 
L 541.10227 225.327296 
L 542.081358 226.442498 
L 543.126116 227.299175 
L 544.290276 227.963801 
L 545.657417 228.481367 
L 547.388731 228.888006 
L 549.83645 229.217074 
L 553.860262 229.507813 
L 556.06321 229.507037 
L 557.066178 229.287545 
L 557.830344 228.895441 
L 558.51093 228.291627 
L 559.167635 227.40037 
L 559.84225 226.090543 
L 560.564626 224.170847 
L 561.346702 221.425682 
L 562.218329 217.505537 
L 563.203387 211.99218 
L 564.361577 204.170698 
L 565.806328 192.788839 
L 567.865995 174.607454 
L 574.474838 115.134339 
L 576.486744 99.468712 
L 578.152387 88.167575 
L 579.644899 79.504386 
L 581.03592 72.692036 
L 582.343361 67.342861 
L 583.603041 63.066903 
L 584.886601 59.488075 
L 586.170161 56.580393 
L 587.417901 54.292656 
L 588.680567 52.423904 
L 590.035767 50.825916 
L 591.498429 49.478551 
L 593.056612 48.375813 
L 594.662554 47.513394 
L 596.495359 46.785667 
L 598.602786 46.197088 
L 601.026625 45.748889 
L 603.808668 45.431383 
L 606.841452 45.230424 
L 619.462133 44.691508 
L 620.465101 44.854182 
L 621.229267 45.184912 
L 621.897913 45.709681 
L 622.530738 46.483228 
L 623.187443 47.643472 
L 623.891909 49.368001 
L 624.650105 51.846088 
L 625.485912 55.369717 
L 626.447089 60.456278 
L 627.509758 67.322104 
L 628.757498 76.915732 
L 630.22613 90.034205 
L 632.052964 108.476268 
L 634.793216 138.684288 
L 638.470766 178.889808 
L 640.017008 193.346589 
L 641.252808 202.917324 
L 642.351297 209.768666 
L 643.372175 214.795618 
L 644.345293 218.522576 
L 645.29453 221.314313 
L 646.231828 223.406336 
L 647.175095 224.985107 
L 648.142243 226.181507 
L 649.163121 227.096495 
L 650.28549 227.803282 
L 651.575021 228.34746 
L 653.145143 228.760565 
L 655.226302 229.065029 
L 658.324757 229.273515 
L 664.103763 229.401961 
L 685.184002 229.541946 
L 685.989958 229.194069 
L 686.682484 228.650214 
L 687.339189 227.841801 
L 688.007835 226.645406 
L 688.7123 224.901608 
L 689.476466 222.382819 
L 690.324213 218.775113 
L 691.279421 213.678054 
L 692.38985 206.473088 
L 693.751021 196.084386 
L 695.607706 180.041995 
L 703.774731 107.388766 
L 705.601566 93.980048 
L 707.177658 83.993234 
L 708.61644 76.245463 
L 709.977611 70.094326 
L 711.267141 65.24901 
L 712.509687 61.38804 
L 713.721607 58.286625 
L 714.963377 55.687993 
L 716.229027 53.544017 
L 717.506617 51.804574 
L 718.861818 50.338202 
L 720.3006 49.119685 
L 721.805052 48.133954 
L 723.554276 47.27046 
L 725.213949 46.664353 
L 727.470627 46.083155 
L 729.452683 45.737357 
L 732.222785 45.421542 
L 736.180927 45.125408 
L 744.162881 44.824354 
L 745.004658 45.110186 
L 745.679273 45.562229 
L 746.318068 46.250595 
L 746.974773 47.296137 
L 747.679239 48.877826 
L 748.431465 51.166179 
L 749.249362 54.410279 
L 750.162779 58.982525 
L 751.189627 65.28914 
L 752.377667 74.023411 
L 753.804508 86.30485 
L 755.523882 103.177709 
L 757.899961 128.90463 
L 762.77152 182.102742 
L 764.234182 195.351077 
L 765.434161 204.304988 
L 766.51474 210.775277 
L 767.523678 215.532482 
L 768.490826 219.071886 
L 769.434093 221.718381 
L 770.371391 223.710967 
L 771.314659 225.21185 
L 772.287776 226.35356 
L 773.320595 227.228045 
L 774.465053 227.904627 
L 775.790403 228.424589 
L 777.426197 228.81855 
L 779.629144 229.106191 
L 782.990162 229.299208 
L 789.754226 229.419413 
L 799.503314 229.626444 
L 803.795778 229.672778 
L 804.768896 229.438094 
L 805.527092 229.027371 
L 806.201708 228.402759 
L 806.858413 227.478223 
L 807.533028 226.124629 
L 808.255404 224.148592 
L 809.043451 221.30987 
L 809.921048 217.270361 
L 810.918046 211.576484 
L 812.100115 203.453794 
L 813.586657 191.576318 
L 815.759754 172.211457 
L 821.747712 118.107275 
L 823.837229 101.524723 
L 825.538693 89.715791 
L 827.055085 80.690215 
L 828.458046 73.631486 
L 829.807277 67.963882 
L 831.096807 63.484197 
L 832.362457 59.871851 
L 833.610197 56.963092 
L 834.899728 54.529133 
L 836.129558 52.656229 
L 837.442968 51.051169 
L 838.833989 49.709032 
L 840.314561 48.59553 
L 842.075725 47.593194 
L 843.830919 46.857471 
L 845.789095 46.269507 
L 847.908462 45.891421 
L 849.024861 45.916176 
L 849.866638 46.180175 
L 850.523343 46.625145 
L 851.156168 47.325966 
L 851.783023 48.348751 
L 852.469579 49.91322 
L 853.215835 52.205263 
L 854.057611 55.580671 
L 854.994909 60.338962 
L 856.051607 66.930487 
L 857.281437 76.121244 
L 858.708279 88.569063 
L 860.469443 106.014417 
L 862.970893 133.24638 
L 867.311118 180.602759 
L 868.8096 194.377155 
L 870.027489 203.629015 
L 871.114038 210.267389 
L 872.128946 215.158955 
L 873.102064 218.80228 
L 874.051302 221.527123 
L 874.988599 223.566558 
L 875.931867 225.10423 
L 876.904984 226.2748 
L 877.931833 227.167538 
L 879.066142 227.858171 
L 880.373582 228.388974 
L 881.979525 228.792184 
L 884.122772 229.087464 
L 887.358538 229.287902 
L 893.627089 229.412099 
L 910.319342 229.477995 
L 996.218182 229.482372 
L 996.218182 229.482372 
" style="fill:none;stroke:#ff0000;stroke-linecap:square;stroke-width:1.5;"/>
   </g>
   <g id="line2d_17">
    <path clip-path="url(#p8fde8c4bd5)" d="M 184.581818 44.975035 
L 280.363953 44.864176 
L 286.351911 44.666292 
L 287.360849 44.855259 
L 288.089194 45.196136 
L 288.73993 45.728747 
L 289.360815 46.507061 
L 290.01155 47.675761 
L 290.716015 49.421662 
L 291.474212 51.924504 
L 292.327928 55.561759 
L 293.270599 60.591429 
L 294.388431 67.882391 
L 295.636171 77.579006 
L 297.122713 90.969242 
L 298.985368 109.899942 
L 301.850991 141.612404 
L 305.259888 178.801306 
L 306.80613 193.272341 
L 308.04193 202.857036 
L 309.140419 209.720848 
L 310.161297 214.758297 
L 311.134415 218.493833 
L 312.083653 221.292452 
L 313.02095 223.389895 
L 313.964218 224.972908 
L 314.931365 226.172604 
L 315.952244 227.09015 
L 317.068643 227.7958 
L 318.352203 228.340529 
L 319.922325 228.756333 
L 321.993932 229.061655 
L 325.098357 229.273664 
L 337.133973 229.686752 
L 338.381713 229.542677 
L 339.222236 229.226487 
L 339.926702 228.723247 
L 340.589377 227.966344 
L 341.252053 226.853977 
L 341.950548 225.219355 
L 342.702774 222.859932 
L 343.532611 219.482349 
L 344.463938 214.705672 
L 345.544517 207.926283 
L 346.851958 198.21234 
L 348.583271 183.538594 
L 351.830977 153.680707 
L 355.377186 121.860016 
L 357.580134 104.005009 
L 359.335328 91.514492 
L 360.8756 82.088288 
L 362.296471 74.721771 
L 363.639732 68.8918 
L 364.899412 64.346461 
L 366.177002 60.545149 
L 367.442653 57.472025 
L 368.750093 54.906911 
L 370.015743 52.912695 
L 371.275423 51.319627 
L 372.594804 49.992404 
L 374.123136 48.800948 
L 375.729079 47.858423 
L 377.305172 47.171133 
L 378.929025 46.662816 
L 380.331986 46.415729 
L 381.299134 46.452016 
L 382.04539 46.699256 
L 382.672245 47.129465 
L 383.28716 47.813526 
L 383.937895 48.886744 
L 384.61848 50.460592 
L 385.358766 52.758785 
L 386.170693 56.02518 
L 387.11396 60.812377 
L 388.170599 67.404517 
L 389.400429 76.594643 
L 390.83324 89.094478 
L 392.594404 106.537357 
L 395.101825 133.818014 
L 399.394289 180.596701 
L 400.898741 194.416947 
L 402.116631 203.659228 
L 403.20318 210.29033 
L 404.218088 215.176314 
L 405.191205 218.815343 
L 406.140443 221.536895 
L 407.077741 223.573826 
L 408.021008 225.10959 
L 408.994126 226.278696 
L 410.020974 227.170305 
L 411.155283 227.860047 
L 412.462724 228.390139 
L 414.068667 228.792764 
L 416.217884 229.088149 
L 419.4835 229.290731 
L 431.9012 229.665175 
L 432.957898 229.46757 
L 433.745944 229.096799 
L 434.4325 228.522967 
L 435.089205 227.672673 
L 435.75785 226.424744 
L 436.468286 224.601856 
L 437.244392 221.959888 
L 438.104079 218.193655 
L 439.077197 212.86676 
L 440.211506 205.34541 
L 441.620437 194.401818 
L 443.578613 177.274569 
L 450.903683 111.657482 
L 452.826038 97.051189 
L 454.449891 86.343366 
L 455.918523 78.082541 
L 457.291634 71.579457 
L 458.593104 66.439697 
L 459.882635 62.23293 
L 461.166195 58.808781 
L 462.425875 56.077918 
L 463.655705 53.914569 
L 464.969116 52.056273 
L 466.276556 50.584212 
L 467.649667 49.362158 
L 469.058598 48.37858 
L 470.951103 47.386238 
L 472.867489 46.66789 
L 475.136107 46.082847 
L 477.828599 45.641106 
L 481.267346 45.310223 
L 490.280865 44.725027 
L 491.916658 44.793602 
L 492.752465 45.033923 
L 493.48081 45.472128 
L 494.143486 46.141736 
L 494.782281 47.105787 
L 495.444956 48.507274 
L 496.191212 50.647867 
L 497.021049 53.788643 
L 497.940436 58.231273 
L 498.961314 64.328626 
L 500.143384 72.826112 
L 501.516495 84.414434 
L 503.182138 100.480212 
L 505.444786 124.663698 
L 510.805889 182.752331 
L 512.256611 195.626255 
L 513.45659 204.395474 
L 514.543139 210.768327 
L 515.558047 215.454724 
L 516.531165 218.940064 
L 517.480403 221.543289 
L 518.4177 223.48964 
L 519.366938 224.964753 
L 520.351996 226.092882 
L 521.402724 226.961651 
L 522.572854 227.638839 
L 523.922084 228.158421 
L 525.414596 228.496385 
L 526.620546 228.558565 
L 527.514441 228.38972 
L 528.248757 228.026656 
L 528.917402 227.443731 
L 529.574108 226.563598 
L 530.248723 225.269364 
L 530.971099 223.374881 
L 531.759145 220.644104 
L 532.630772 216.770182 
L 533.61583 211.316498 
L 534.774019 203.566528 
L 536.206831 192.363965 
L 538.230677 174.604579 
L 545.066382 113.367527 
L 547.036498 98.216906 
L 548.684231 87.19765 
L 550.164803 78.739065 
L 551.543884 72.096693 
L 552.887145 66.710462 
L 554.170705 62.466485 
L 555.376655 59.182562 
L 556.678125 56.291793 
L 557.949745 54.01651 
L 559.143755 52.289675 
L 560.385525 50.841138 
L 561.806396 49.535903 
L 563.310848 48.476677 
L 564.82127 47.673301 
L 566.474974 47.028601 
L 567.985396 46.639752 
L 569.107765 46.550112 
L 569.937601 46.702946 
L 570.588337 47.035982 
L 571.221162 47.609492 
L 571.848017 48.485441 
L 572.510692 49.811434 
L 573.227098 51.772747 
L 574.009174 54.593864 
L 574.880801 58.601979 
L 575.877799 64.290494 
L 577.012108 72.120832 
L 578.313578 82.708771 
L 579.895641 97.501402 
L 581.943368 118.897397 
L 588.614896 190.304002 
L 589.904426 200.799087 
L 591.026795 208.207226 
L 592.065584 213.647856 
L 593.050642 217.67408 
L 594.005849 220.680718 
L 594.943147 222.926746 
L 595.880444 224.61775 
L 596.841622 225.904945 
L 597.84459 226.883623 
L 598.937109 227.639514 
L 600.172909 228.220767 
L 601.659451 228.666229 
L 603.575836 228.996719 
L 606.333998 229.228884 
L 611.062276 229.374026 
L 633.276824 229.63518 
L 634.172331 229.357872 
L 634.900677 228.899129 
L 635.569322 228.205356 
L 636.226028 227.188828 
L 636.912583 225.692874 
L 637.652869 223.512486 
L 638.464796 220.3856 
L 639.372243 215.951057 
L 640.411031 209.700521 
L 641.658771 200.74392 
L 643.264714 187.475273 
L 645.855715 163.926324 
L 650.381011 122.921748 
L 652.613809 104.723804 
L 654.380943 92.061772 
L 655.924798 82.538609 
L 657.345669 75.105392 
L 658.68296 69.23975 
L 659.97846 64.521436 
L 661.25008 60.70936 
L 662.50976 57.623167 
L 663.73362 55.181059 
L 664.97539 53.170082 
L 666.312681 51.436174 
L 667.614151 50.096805 
L 669.136513 48.872906 
L 670.748426 47.886561 
L 672.348399 47.147301 
L 674.097623 46.546268 
L 676.539373 45.969529 
L 679.578127 45.534553 
L 683.542239 45.237804 
L 696.592763 44.676594 
L 697.709162 44.816051 
L 698.538999 45.144166 
L 699.273315 45.707529 
L 699.90614 46.48123 
L 700.592696 47.70436 
L 701.297161 49.451644 
L 702.049387 51.933883 
L 702.909074 55.595585 
L 703.846372 60.595734 
L 704.93889 67.702035 
L 706.18663 77.362901 
L 707.667202 90.660869 
L 709.517917 109.426973 
L 712.336078 140.573413 
L 715.942465 179.85758 
L 717.458857 193.910613 
L 718.682717 203.29478 
L 719.775235 210.036448 
L 720.790144 214.97961 
L 721.763261 218.664711 
L 722.712499 221.42275 
L 723.649796 223.488153 
L 724.593064 225.046041 
L 725.560212 226.226157 
L 726.58706 227.132873 
L 727.715399 227.831373 
L 729.010899 228.36769 
L 730.598932 228.776101 
L 732.712329 229.076214 
L 735.876454 229.280347 
L 741.894263 229.406274 
L 753.219443 229.645932 
L 756.944753 229.675559 
L 757.923841 229.445768 
L 758.682037 229.042538 
L 759.356653 228.427447 
L 760.013358 227.514941 
L 760.687973 226.176254 
L 761.410349 224.218328 
L 762.198395 221.40096 
L 763.075992 217.385817 
L 764.07299 211.718324 
L 765.24909 203.666685 
L 766.723692 191.920901 
L 768.866939 172.861292 
L 774.996387 117.51353 
L 777.073964 101.087871 
L 778.769457 89.376913 
L 780.279879 80.43601 
L 781.682721 73.420225 
L 783.025982 67.814123 
L 784.315512 63.36396 
L 785.593103 59.746078 
L 786.846813 56.851619 
L 788.148283 54.422887 
L 789.396023 52.549369 
L 790.727344 50.95092 
L 792.154185 49.605708 
L 793.485506 48.619977 
L 794.966078 47.761557 
L 796.631721 47.02814 
L 798.488406 46.429721 
L 801.162987 45.855288 
L 804.691286 45.422465 
L 815.21051 44.721029 
L 816.697052 44.792987 
L 817.538829 45.035461 
L 818.207474 45.429076 
L 818.882089 46.08992 
L 819.562675 47.107325 
L 820.24923 48.57139 
L 820.989516 50.71798 
L 821.789503 53.756969 
L 822.68501 58.07029 
L 823.705888 64.141043 
L 824.881987 72.567186 
L 826.243158 84.019773 
L 827.896862 99.933685 
L 830.105779 123.527102 
L 835.819115 185.564977 
L 837.204166 197.619195 
L 838.374296 205.94798 
L 839.436964 211.985414 
L 840.433962 216.429205 
L 841.39514 219.74433 
L 842.338407 222.230477 
L 843.275705 224.096412 
L 844.224943 225.506067 
L 845.21 226.579614 
L 846.266699 227.404732 
L 847.442798 228.039592 
L 848.833819 228.530881 
L 850.600954 228.907807 
L 853.180014 229.210557 
L 857.950083 229.511665 
L 861.454501 229.577901 
L 862.487319 229.370894 
L 863.263425 228.992068 
L 863.949981 228.403646 
L 864.606686 227.536026 
L 865.281301 226.254619 
L 865.997707 224.38629 
L 866.779783 221.684506 
L 867.64544 217.842445 
L 868.624528 212.423573 
L 869.770777 204.75371 
L 871.197619 193.592415 
L 873.203555 175.966397 
L 880.170601 113.408165 
L 882.134746 98.292462 
L 883.78248 87.265103 
L 885.263051 78.801628 
L 886.642133 72.155735 
L 887.949573 66.896814 
L 889.227163 62.644381 
L 890.480873 59.217157 
L 891.782344 56.325773 
L 892.982323 54.163808 
L 894.259914 52.301206 
L 895.525564 50.822073 
L 896.982255 49.480704 
L 898.349396 48.497434 
L 899.889669 47.637168 
L 902.009036 46.777056 
L 904.092582 46.196627 
L 906.522392 45.747352 
L 910.665605 45.325752 
L 914.444645 45.144935 
L 924.372835 45.000251 
L 996.218182 44.975035 
L 996.218182 44.975035 
" style="fill:none;stroke:#008000;stroke-linecap:square;stroke-width:1.5;"/>
   </g>
   <g id="line2d_18">
    <path clip-path="url(#p8fde8c4bd5)" d="M 184.581818 44.975035 
L 274.573006 45.084971 
L 278.75204 45.32289 
L 281.31916 45.680054 
L 283.229575 46.166265 
L 284.722087 46.767425 
L 286.035498 47.539478 
L 287.169807 48.464157 
L 288.244416 49.638104 
L 289.259324 51.095233 
L 290.214531 52.862086 
L 291.169739 55.110033 
L 292.124947 57.951609 
L 293.080154 61.514314 
L 294.066048 66.093463 
L 295.080956 71.922117 
L 296.155565 79.483998 
L 297.289874 89.131545 
L 298.543584 101.765077 
L 300.095796 119.81293 
L 304.991236 178.713927 
L 306.304646 190.920259 
L 307.498656 200.012928 
L 308.632965 206.962526 
L 309.707574 212.195125 
L 310.722482 216.105771 
L 311.73739 219.18338 
L 312.752298 221.581956 
L 313.767206 223.436702 
L 314.841815 224.934153 
L 315.916423 226.059686 
L 317.050732 226.940198 
L 318.304442 227.63842 
L 319.737254 228.179516 
L 321.408867 228.567942 
L 323.438684 228.800139 
L 325.767002 228.839361 
L 328.214722 228.66145 
L 330.42364 228.285387 
L 332.334055 227.737163 
L 333.945968 227.048479 
L 335.378779 226.197675 
L 336.69219 225.155603 
L 337.886199 223.927427 
L 339.055075 222.397946 
L 340.189384 220.529942 
L 341.263993 218.334858 
L 342.338601 215.642969 
L 343.47291 212.163273 
L 344.60722 207.918628 
L 345.741529 202.799315 
L 346.941508 196.324869 
L 348.195218 188.315446 
L 349.568329 178.065447 
L 351.180242 164.228455 
L 353.329459 143.622709 
L 357.209991 106.233491 
L 358.881604 92.450651 
L 360.314415 82.382305 
L 361.627826 74.636139 
L 362.881536 68.50794 
L 364.075546 63.715952 
L 365.269555 59.818223 
L 366.403864 56.826204 
L 367.538173 54.418754 
L 368.672482 52.499724 
L 369.866492 50.915762 
L 371.060502 49.699489 
L 372.254511 48.786296 
L 373.508221 48.100366 
L 374.821632 47.640366 
L 376.135042 47.421445 
L 377.388752 47.434593 
L 378.582762 47.664337 
L 379.717071 48.109207 
L 380.79168 48.776471 
L 381.806588 49.677481 
L 382.761795 50.823313 
L 383.717003 52.326554 
L 384.672211 54.270337 
L 385.627418 56.754314 
L 386.582626 59.89399 
L 387.572341 63.975627 
L 388.582532 69.163897 
L 389.59744 75.565349 
L 390.672049 83.770935 
L 391.866059 94.672194 
L 393.23917 109.371656 
L 395.149585 132.533332 
L 398.194309 169.462766 
L 399.627121 184.119643 
L 400.880831 194.798369 
L 402.01514 202.69484 
L 403.089749 208.739261 
L 404.164357 213.555657 
L 405.179265 217.148272 
L 406.194174 219.973346 
L 407.209082 222.175179 
L 408.22399 223.878912 
L 409.298598 225.25601 
L 410.432907 226.34191 
L 411.626917 227.176582 
L 412.940328 227.824843 
L 414.43284 228.314846 
L 416.223854 228.66248 
L 418.373071 228.844256 
L 420.820791 228.82519 
L 423.26851 228.587596 
L 425.417728 228.161384 
L 427.208742 227.590495 
L 428.760954 226.87362 
L 430.134065 226.006363 
L 431.387775 224.963649 
L 432.581785 223.685775 
L 433.716094 222.149215 
L 434.850403 220.224423 
L 435.925012 217.965748 
L 436.99962 215.199992 
L 438.13393 211.630878 
L 439.268239 207.285617 
L 440.402548 202.05635 
L 441.596557 195.495075 
L 442.909968 186.944736 
L 444.342779 176.022116 
L 446.014393 161.401967 
L 448.402412 138.25377 
L 451.602178 107.555458 
L 453.273792 93.622811 
L 454.706603 83.395038 
L 456.020014 75.494253 
L 457.273724 69.221094 
L 458.467733 64.298775 
L 459.661743 60.280376 
L 460.855753 57.036663 
L 462.049762 54.442041 
L 463.243772 52.381731 
L 464.437781 50.755209 
L 465.691491 49.420996 
L 467.004902 48.346568 
L 468.437713 47.465062 
L 470.049626 46.744535 
L 471.900341 46.171868 
L 474.109259 45.731606 
L 476.855481 45.421412 
L 480.258408 45.266963 
L 483.761572 45.322843 
L 486.448094 45.572114 
L 488.47791 45.975182 
L 490.089823 46.520258 
L 491.403234 47.192194 
L 492.597243 48.058787 
L 493.671852 49.124055 
L 494.68676 50.459634 
L 495.641968 52.094244 
L 496.597175 54.192884 
L 497.552383 56.870192 
L 498.507591 60.258452 
L 499.462798 64.503452 
L 500.418006 69.755352 
L 501.432914 76.593497 
L 502.507523 85.378392 
L 503.701532 97.04636 
L 505.134344 113.433105 
L 507.402962 142.491619 
L 509.61785 169.890046 
L 511.050661 184.9031 
L 512.244671 195.239776 
L 513.37898 203.200575 
L 514.453588 209.20026 
L 515.468497 213.660239 
L 516.483405 217.126694 
L 517.438612 219.633001 
L 518.39382 221.534381 
L 519.349028 222.93724 
L 520.244535 223.87668 
L 521.140042 224.509659 
L 522.035549 224.87812 
L 522.931056 225.011647 
L 523.826564 224.928748 
L 524.781771 224.611232 
L 525.736979 224.056088 
L 526.72747 223.216691 
L 527.741303 222.053598 
L 528.756211 220.542572 
L 529.771119 218.633828 
L 530.845728 216.110519 
L 531.920337 212.98739 
L 532.994945 209.171846 
L 534.129254 204.288658 
L 535.323264 198.088649 
L 536.576974 190.313095 
L 537.890384 180.737852 
L 539.382896 168.18124 
L 541.293312 150.071239 
L 546.248451 102.027793 
L 547.800664 89.573342 
L 549.173775 80.215795 
L 550.487185 72.747028 
L 551.740895 66.887994 
L 552.934905 62.341446 
L 554.128915 58.669822 
L 555.263224 55.870875 
L 556.397533 53.634519 
L 557.531842 51.865768 
L 558.666151 50.48359 
L 559.860161 49.373296 
L 561.05417 48.55685 
L 562.30788 47.967412 
L 563.56159 47.620129 
L 564.8153 47.500652 
L 566.00931 47.602877 
L 567.143619 47.91503 
L 568.218228 48.43613 
L 569.233136 49.171056 
L 570.248044 50.195648 
L 571.203251 51.48662 
L 572.158459 53.168742 
L 573.113667 55.331087 
L 574.068874 58.078918 
L 575.024082 61.532045 
L 575.97929 65.820173 
L 576.994198 71.43715 
L 578.068806 78.726648 
L 579.203116 88.03516 
L 580.456826 100.252138 
L 582.009038 117.790593 
L 587.382081 181.014578 
L 588.674596 192.492664 
L 589.868606 201.170056 
L 591.002915 207.798315 
L 592.077524 212.79354 
L 593.092432 216.534163 
L 594.10734 219.486239 
L 595.122248 221.795323 
L 596.137156 223.588885 
L 597.211765 225.045221 
L 598.346074 226.200783 
L 599.540084 227.097473 
L 600.853494 227.80548 
L 602.346006 228.35894 
L 604.196721 228.797194 
L 606.52504 229.109412 
L 609.808566 229.307468 
L 614.584604 229.355932 
L 619.360642 229.196723 
L 622.524768 228.885802 
L 624.793386 228.454456 
L 626.5844 227.900354 
L 628.076912 227.217553 
L 629.390323 226.380034 
L 630.584332 225.358275 
L 631.718641 224.08647 
L 632.79325 222.535347 
L 633.808158 220.682926 
L 634.823066 218.367409 
L 635.837975 215.491046 
L 636.852883 211.945575 
L 637.927491 207.335385 
L 639.0021 201.714768 
L 640.136409 194.561608 
L 641.330419 185.592117 
L 642.70353 173.470717 
L 644.315442 157.125613 
L 650.404891 93.050951 
L 651.778002 82.150064 
L 653.031712 73.910954 
L 654.225722 67.507849 
L 655.333763 62.695463 
L 656.468072 58.741389 
L 657.54268 55.759876 
L 658.617289 53.392287 
L 659.691898 51.524888 
L 660.826207 49.988547 
L 662.020216 48.750804 
L 663.273926 47.773605 
L 664.647037 46.98795 
L 666.19925 46.360249 
L 668.049965 45.861588 
L 670.318583 45.488834 
L 673.369277 45.225823 
L 677.846813 45.081727 
L 683.69746 45.115487 
L 687.697392 45.339206 
L 690.264513 45.693314 
L 692.174928 46.173667 
L 693.727141 46.792915 
L 695.040551 47.558829 
L 696.17486 48.471286 
L 697.249469 49.624109 
L 698.264377 51.048569 
L 699.219585 52.768705 
L 700.174792 54.948915 
L 701.13 57.69522 
L 702.085208 61.127813 
L 703.100116 65.672452 
L 704.115024 71.295885 
L 705.189632 78.580694 
L 706.323941 87.872584 
L 707.577652 100.060173 
L 709.129864 117.554522 
L 714.605174 181.723089 
L 715.918584 193.223794 
L 717.112594 201.74677 
L 718.246903 208.246689 
L 719.321512 213.140052 
L 720.33642 216.802024 
L 721.351328 219.690958 
L 722.366236 221.950249 
L 723.381144 223.705061 
L 724.455753 225.12999 
L 725.590062 226.260699 
L 726.784072 227.138083 
L 728.097482 227.830621 
L 729.649695 228.388767 
L 731.500409 228.808341 
L 733.888429 229.107974 
L 737.112254 229.274815 
L 741.350988 229.266269 
L 745.171819 229.053013 
L 747.977741 228.684353 
L 750.067258 228.198169 
L 751.798572 227.573911 
L 753.291084 226.798044 
L 754.604495 225.862117 
L 755.798504 224.737529 
L 756.932813 223.357667 
L 758.007422 221.697738 
L 759.08203 219.612649 
L 760.156639 217.008368 
L 761.231248 213.778606 
L 762.305856 209.808166 
L 763.380465 204.979534 
L 764.514774 198.831379 
L 765.708784 191.0874 
L 767.022194 181.007698 
L 768.514706 167.675085 
L 770.425121 148.36779 
L 774.817286 103.131491 
L 776.369498 89.823854 
L 777.742609 79.908539 
L 778.996319 72.40522 
L 780.190329 66.546303 
L 781.324638 62.017729 
L 782.458827 58.362149 
L 783.593137 55.441467 
L 784.727446 53.127736 
L 785.861755 51.307015 
L 787.055764 49.816126 
L 788.249774 48.669291 
L 789.563184 47.714674 
L 790.995996 46.950024 
L 792.607909 46.341302 
L 794.518324 45.859754 
L 796.906343 45.495823 
L 800.010768 45.258832 
L 803.951 45.185597 
L 807.652429 45.326755 
L 810.27925 45.635838 
L 812.249366 46.084937 
L 813.801579 46.660216 
L 815.114989 47.378842 
L 816.308999 48.294246 
L 817.353757 49.372539 
L 818.368665 50.745368 
L 819.323873 52.411704 
L 820.279081 54.534297 
L 821.234288 57.221443 
L 822.189496 60.596979 
L 823.144704 64.79623 
L 824.159612 70.315094 
L 825.23422 77.509915 
L 826.368529 86.7477 
L 827.622239 98.946444 
L 829.114751 115.859708 
L 831.860973 150.288322 
L 833.777359 172.79665 
L 835.15047 186.489977 
L 836.40418 196.819318 
L 837.538489 204.385632 
L 838.613098 210.131001 
L 839.687706 214.675969 
L 840.702614 218.043204 
L 841.717522 220.673608 
L 842.732431 222.709188 
L 843.747339 224.2712 
L 844.821947 225.519845 
L 845.956256 226.488045 
L 847.150266 227.21149 
L 848.463676 227.743583 
L 849.956188 228.097293 
L 851.568101 228.250448 
L 853.359116 228.192006 
L 855.15013 227.905764 
L 856.821743 227.409965 
L 858.314255 226.737043 
L 859.687366 225.872383 
L 860.941077 224.820089 
L 862.135086 223.522992 
L 863.269395 221.958923 
L 864.403704 219.997144 
L 865.478313 217.694118 
L 866.552921 214.874417 
L 867.687231 211.237606 
L 868.82154 206.813783 
L 870.015549 201.189737 
L 871.209559 194.470965 
L 872.522969 185.741804 
L 873.955781 174.634055 
L 875.627394 159.841407 
L 878.194515 134.81543 
L 881.060138 107.456775 
L 882.731751 93.541391 
L 884.164563 83.328825 
L 885.477973 75.441036 
L 886.731683 69.17882 
L 887.925693 64.265362 
L 889.119702 60.254282 
L 890.313712 57.016448 
L 891.507722 54.426425 
L 892.701731 52.369612 
L 893.895741 50.745647 
L 895.149451 49.413259 
L 896.462861 48.339913 
L 897.895673 47.458686 
L 899.507586 46.737309 
L 901.3583 46.161823 
L 903.567218 45.714417 
L 906.432841 45.374702 
L 910.432773 45.144155 
L 917.059526 45.015661 
L 934.372665 44.976012 
L 996.16266 44.975035 
L 996.16266 44.975035 
" style="fill:none;stroke:#008000;stroke-dasharray:5.55,2.4;stroke-dashoffset:0;stroke-width:1.5;"/>
   </g>
   <g id="line2d_19">
    <path clip-path="url(#p8fde8c4bd5)" d="M 184.581818 229.482385 
L 274.573006 229.593089 
L 278.214735 229.824821 
L 280.722155 230.206134 
L 282.692271 230.727639 
L 284.304184 231.378149 
L 285.856397 232.257382 
L 288.901121 234.116177 
L 289.677227 234.271963 
L 290.333932 234.188288 
L 290.990638 233.878456 
L 291.707043 233.280382 
L 292.602551 232.198717 
L 293.886947 230.229738 
L 295.737662 227.413486 
L 296.633169 226.453609 
L 297.349574 226.007217 
L 297.946579 225.888303 
L 298.543584 226.00902 
L 299.140589 226.361078 
L 299.856995 227.051816 
L 300.871903 228.384632 
L 302.901719 231.137103 
L 303.677825 231.80594 
L 304.33453 232.098937 
L 304.931535 232.139783 
L 305.588241 231.95951 
L 306.424047 231.468633 
L 307.97626 230.215718 
L 309.468772 229.142446 
L 310.603081 228.600935 
L 311.73739 228.307576 
L 313.0508 228.213381 
L 314.782114 228.333061 
L 322.184974 229.084091 
L 325.169997 229.054775 
L 327.856519 228.812849 
L 330.065437 228.400285 
L 331.975852 227.826099 
L 333.647465 227.095141 
L 335.139977 226.196432 
L 336.513088 225.108924 
L 338.184702 223.467698 
L 340.129684 221.596936 
L 340.96549 221.089684 
L 341.622196 220.928314 
L 342.2192 221.000772 
L 342.816205 221.299217 
L 343.47291 221.892567 
L 344.249017 222.931724 
L 345.204224 224.626555 
L 346.816137 228.040226 
L 348.37432 231.160106 
L 349.329527 232.620768 
L 350.105634 233.444809 
L 350.822039 233.886181 
L 351.478745 234.019691 
L 352.13545 233.908397 
L 352.851856 233.540056 
L 353.687662 232.849357 
L 354.941372 231.482859 
L 357.806995 228.266495 
L 359.060705 227.232311 
L 360.195015 226.570121 
L 361.329324 226.158388 
L 362.523333 225.959321 
L 363.896444 225.960909 
L 365.627758 226.199619 
L 368.135178 226.792525 
L 373.687323 228.397164 
L 376.552946 229.410251 
L 378.40366 230.291837 
L 380.015573 231.301857 
L 382.761795 233.09428 
L 383.537902 233.315404 
L 384.254307 233.28483 
L 384.911013 233.025791 
L 385.627418 232.484649 
L 386.463225 231.547391 
L 387.627325 229.855227 
L 389.955643 226.387249 
L 390.79145 225.553193 
L 391.448155 225.168538 
L 392.04516 225.053286 
L 392.642165 225.168347 
L 393.29887 225.549004 
L 394.074976 226.292494 
L 395.209285 227.745038 
L 396.880899 229.860035 
L 397.716706 230.54964 
L 398.373411 230.828138 
L 399.030116 230.867564 
L 399.746522 230.670406 
L 400.642029 230.174107 
L 403.746454 228.244565 
L 404.880763 227.904852 
L 406.074773 227.786686 
L 407.567285 227.882669 
L 410.194106 228.32917 
L 413.716434 228.867682 
L 416.582057 229.069273 
L 419.50738 229.053094 
L 422.193902 228.82315 
L 424.46252 228.409544 
L 426.372935 227.845134 
L 428.044549 227.127377 
L 429.537061 226.245947 
L 430.969872 225.131022 
L 432.820587 223.364228 
L 434.372799 221.985325 
L 435.208606 221.524746 
L 435.865311 221.40264 
L 436.462316 221.51464 
L 437.059321 221.85786 
L 437.716026 222.508273 
L 438.492132 223.627982 
L 439.44734 225.445189 
L 440.999552 228.987984 
L 442.730866 232.794298 
L 443.745774 234.501261 
L 444.521881 235.418305 
L 445.238286 235.933335 
L 445.894992 236.123214 
L 446.491997 236.072717 
L 447.148702 235.795624 
L 447.924808 235.217194 
L 448.939716 234.165251 
L 451.243976 231.329061 
L 452.855888 229.557304 
L 454.169299 228.43944 
L 455.363309 227.707156 
L 456.557318 227.228186 
L 457.870729 226.946692 
L 459.363241 226.86137 
L 461.213955 226.983441 
L 464.079578 227.417194 
L 471.900341 228.654404 
L 476.556978 229.105518 
L 485.194384 229.866395 
L 487.522703 230.352036 
L 489.373417 230.961657 
L 491.045031 231.747318 
L 493.49275 232.924831 
L 494.268857 233.04363 
L 494.925562 232.940798 
L 495.582267 232.607352 
L 496.238972 232.020485 
L 497.015079 231.004848 
L 497.970286 229.346692 
L 499.522499 226.104211 
L 501.134412 222.900506 
L 502.029919 221.596322 
L 502.686624 220.977956 
L 503.283629 220.704975 
L 503.820933 220.708336 
L 504.358238 220.946651 
L 504.955242 221.469751 
L 505.671648 222.404093 
L 506.746257 224.222995 
L 508.656672 227.492984 
L 509.498449 228.496712 
L 510.214854 229.034725 
L 510.93126 229.289198 
L 511.647666 229.307624 
L 512.602874 229.084783 
L 517.020709 227.729235 
L 519.886332 227.419312 
L 521.737047 227.083161 
L 523.169858 226.595191 
L 524.483269 225.905291 
L 525.796679 224.953772 
L 529.651718 221.927212 
L 530.368124 221.788972 
L 531.024829 221.905156 
L 531.681535 222.275129 
L 532.39794 222.97139 
L 533.233747 224.138939 
L 534.308356 226.070176 
L 537.35308 231.815462 
L 538.248587 232.919821 
L 538.964993 233.474417 
L 539.621698 233.709053 
L 540.218703 233.697958 
L 540.875408 233.455689 
L 541.651515 232.899946 
L 542.606722 231.912293 
L 544.338036 229.719682 
L 546.12905 227.590091 
L 547.32306 226.498871 
L 548.397669 225.795707 
L 549.472277 225.352933 
L 550.606586 225.136354 
L 551.860296 225.137503 
L 553.352808 225.371647 
L 555.442325 225.943916 
L 559.979561 227.481867 
L 564.457097 229.147588 
L 566.367513 230.09602 
L 567.979426 231.140808 
L 571.262952 233.404218 
L 572.039058 233.593802 
L 572.695763 233.538806 
L 573.352469 233.264883 
L 574.068874 232.722044 
L 574.964382 231.741334 
L 576.397193 229.771575 
L 577.949406 227.739652 
L 578.785212 226.972326 
L 579.501618 226.599708 
L 580.098623 226.520294 
L 580.695628 226.65859 
L 581.352333 227.050739 
L 582.128439 227.790266 
L 583.322449 229.287422 
L 584.874661 231.168163 
L 585.650767 231.783549 
L 586.307472 232.046922 
L 586.964178 232.060081 
L 587.620883 231.84332 
L 588.435795 231.327728 
L 590.047707 229.963586 
L 591.420818 228.936104 
L 592.495427 228.390494 
L 593.570036 228.086521 
L 594.764045 227.983149 
L 596.316258 228.092259 
L 599.360982 228.596304 
L 602.943011 229.098148 
L 606.465339 229.350204 
L 611.241377 229.449369 
L 617.092024 229.347679 
L 621.091956 229.076966 
L 623.659077 228.688215 
L 625.629193 228.170029 
L 627.241106 227.527205 
L 628.673917 226.718083 
L 629.927627 225.758121 
L 631.121637 224.55778 
L 632.315646 223.024822 
L 633.688757 220.867423 
L 637.211086 215.107663 
L 638.285694 213.919236 
L 639.360303 213.062825 
L 642.643829 210.728911 
L 643.599037 209.573042 
L 644.673645 207.894801 
L 646.285558 204.888308 
L 647.957172 201.915943 
L 648.852679 200.736629 
L 649.569085 200.11701 
L 650.166089 199.853986 
L 650.763094 199.833001 
L 651.360099 200.052822 
L 652.016804 200.558799 
L 652.79291 201.477174 
L 653.748118 203.000322 
L 655.03526 205.532825 
L 660.885907 217.675982 
L 662.43812 220.092904 
L 663.930632 222.015371 
L 665.423144 223.583304 
L 666.975356 224.890249 
L 668.587269 225.958854 
L 670.378283 226.874872 
L 672.354369 227.62966 
L 674.622987 228.247508 
L 677.249808 228.728396 
L 680.831837 229.136737 
L 689.130204 229.973631 
L 691.16002 230.45188 
L 692.831633 231.059511 
L 694.264445 231.809937 
L 695.577855 232.755884 
L 696.891266 233.99391 
L 700.891198 238.051788 
L 701.727005 238.44542 
L 702.622512 238.615048 
L 703.816521 238.582894 
L 705.368734 238.565386 
L 706.204541 238.785337 
L 706.980647 239.224499 
L 707.816453 239.98148 
L 708.771661 241.18032 
L 710.502975 243.823066 
L 711.637284 245.338447 
L 712.396256 245.99652 
L 712.993261 246.226988 
L 713.530565 246.183686 
L 714.06787 245.888528 
L 714.664874 245.267163 
L 715.38128 244.148364 
L 716.276787 242.300299 
L 720.217019 233.559914 
L 721.231927 232.097924 
L 722.187135 231.085063 
L 723.202043 230.335629 
L 724.276651 229.827532 
L 725.530362 229.496578 
L 727.142274 229.324718 
L 729.649695 229.313064 
L 739.142071 229.41232 
L 743.858408 229.210189 
L 746.903133 228.873713 
L 749.171751 228.404428 
L 751.022466 227.798418 
L 752.574678 227.063625 
L 753.947789 226.173095 
L 755.201499 225.101472 
L 756.51491 223.675658 
L 758.485026 221.138682 
L 759.917837 219.449703 
L 760.813344 218.721423 
L 761.52975 218.399055 
L 762.246156 218.326167 
L 762.962562 218.491948 
L 763.798368 218.935789 
L 765.171479 219.982412 
L 766.48489 220.887421 
L 767.260996 221.179277 
L 767.977402 221.211872 
L 768.634107 221.016688 
L 769.350513 220.555273 
L 770.186319 219.718768 
L 771.260928 218.288748 
L 774.220281 214.15755 
L 775.115788 213.374414 
L 775.891894 212.982131 
L 776.6083 212.86341 
L 777.324706 212.967751 
L 778.100812 213.307427 
L 778.996319 213.945636 
L 780.130628 215.038792 
L 781.861823 217.056716 
L 785.503552 221.340945 
L 787.354267 223.141989 
L 789.085581 224.533634 
L 790.876595 225.693128 
L 792.78701 226.660326 
L 794.876527 227.466067 
L 797.264546 228.138235 
L 800.010768 228.672361 
L 803.652497 229.142899 
L 809.144941 229.855843 
L 811.353859 230.38217 
L 813.085173 231.01229 
L 814.577685 231.790554 
L 816.010496 232.794924 
L 819.144771 235.113555 
L 819.920878 235.349047 
L 820.637283 235.332626 
L 821.353689 235.078824 
L 822.189496 234.514683 
L 823.323805 233.44053 
L 825.23422 231.625676 
L 826.070027 231.159501 
L 826.726732 231.035523 
L 827.323737 231.135844 
L 827.980442 231.48885 
L 828.696848 232.147114 
L 829.592355 233.291096 
L 832.398278 237.121182 
L 833.054983 237.567958 
L 833.651988 237.711063 
L 834.195262 237.612643 
L 834.792267 237.263942 
L 835.508673 236.56038 
L 836.523581 235.202636 
L 839.210102 231.459649 
L 840.284711 230.403826 
L 841.299619 229.699747 
L 842.374228 229.221031 
L 843.627938 228.921612 
L 845.239851 228.788776 
L 848.762179 228.805059 
L 851.568101 228.6885 
L 853.717319 228.380823 
L 855.627734 227.88568 
L 857.299347 227.225092 
L 858.791859 226.395621 
L 860.16497 225.38069 
L 861.776883 223.889659 
L 863.8664 221.972527 
L 864.702207 221.506359 
L 865.358912 221.37769 
L 865.955917 221.481588 
L 866.552921 221.814506 
L 867.209627 222.45103 
L 867.985733 223.550989 
L 868.940941 225.33933 
L 870.493153 228.826571 
L 872.224467 232.563981 
L 873.239375 234.230919 
L 874.015481 235.119401 
L 874.731887 235.610731 
L 875.388592 235.781956 
L 875.985597 235.71759 
L 876.642302 235.429142 
L 877.418409 234.843056 
L 878.493017 233.721777 
L 882.851152 228.813281 
L 884.104862 227.89946 
L 885.298872 227.302954 
L 886.552582 226.931643 
L 887.925693 226.763445 
L 889.597306 226.795394 
L 891.865924 227.080151 
L 903.80602 228.895913 
L 908.522358 229.209293 
L 914.910309 229.391617 
L 928.163815 229.473804 
L 995.386554 229.482385 
L 996.16266 229.482385 
L 996.16266 229.482385 
" style="fill:none;stroke:#008000;stroke-dasharray:9.6,2.4,1.5,2.4;stroke-dashoffset:0;stroke-width:1.5;"/>
   </g>
   <g id="patch_3">
    <path d="M 144 256.32 
L 144 34.56 
" style="fill:none;stroke:#000000;stroke-linecap:square;stroke-linejoin:miter;stroke-width:0.8;"/>
   </g>
   <g id="patch_4">
    <path d="M 1036.8 256.32 
L 1036.8 34.56 
" style="fill:none;stroke:#000000;stroke-linecap:square;stroke-linejoin:miter;stroke-width:0.8;"/>
   </g>
   <g id="patch_5">
    <path d="M 144 256.32 
L 1036.8 256.32 
" style="fill:none;stroke:#000000;stroke-linecap:square;stroke-linejoin:miter;stroke-width:0.8;"/>
   </g>
   <g id="patch_6">
    <path d="M 144 34.56 
L 1036.8 34.56 
" style="fill:none;stroke:#000000;stroke-linecap:square;stroke-linejoin:miter;stroke-width:0.8;"/>
   </g>
   <g id="text_19">
    <!-- In  RMSE: 0.0 -->
    <defs>
     <path d="M 9.8125 72.90625 
L 50.296875 72.90625 
L 50.296875 64.59375 
L 35.015625 64.59375 
L 35.015625 8.296875 
L 50.296875 8.296875 
L 50.296875 0 
L 9.8125 0 
L 9.8125 8.296875 
L 25.09375 8.296875 
L 25.09375 64.59375 
L 9.8125 64.59375 
z
" id="DejaVuSansMono-73"/>
     <path d="M 51.3125 33.890625 
L 51.3125 0 
L 42.28125 0 
L 42.28125 33.890625 
Q 42.28125 41.265625 39.6875 44.71875 
Q 37.109375 48.1875 31.59375 48.1875 
Q 25.296875 48.1875 21.890625 43.71875 
Q 18.5 39.265625 18.5 30.90625 
L 18.5 0 
L 9.515625 0 
L 9.515625 54.6875 
L 18.5 54.6875 
L 18.5 46.484375 
Q 20.90625 51.171875 25 53.578125 
Q 29.109375 56 34.71875 56 
Q 43.0625 56 47.1875 50.5 
Q 51.3125 45.015625 51.3125 33.890625 
z
" id="DejaVuSansMono-110"/>
     <path id="DejaVuSansMono-32"/>
     <path d="M 37.109375 34.421875 
Q 40.921875 33.453125 43.609375 30.734375 
Q 46.296875 28.03125 50.296875 19.921875 
L 60.203125 0 
L 49.609375 0 
L 40.921875 18.40625 
Q 37.15625 26.265625 34.15625 28.53125 
Q 31.15625 30.8125 26.3125 30.8125 
L 16.890625 30.8125 
L 16.890625 0 
L 6.984375 0 
L 6.984375 72.90625 
L 27.296875 72.90625 
Q 39.3125 72.90625 45.703125 67.484375 
Q 52.09375 62.0625 52.09375 51.8125 
Q 52.09375 44.578125 48.15625 40.015625 
Q 44.234375 35.453125 37.109375 34.421875 
z
M 16.890625 64.796875 
L 16.890625 38.921875 
L 27.6875 38.921875 
Q 34.765625 38.921875 38.234375 42.09375 
Q 41.703125 45.265625 41.703125 51.8125 
Q 41.703125 58.109375 38.015625 61.453125 
Q 34.328125 64.796875 27.296875 64.796875 
z
" id="DejaVuSansMono-82"/>
     <path d="M 4.203125 72.90625 
L 17.390625 72.90625 
L 29.984375 35.796875 
L 42.671875 72.90625 
L 55.90625 72.90625 
L 55.90625 0 
L 46.78125 0 
L 46.78125 64.40625 
L 33.796875 25.984375 
L 26.3125 25.984375 
L 13.28125 64.40625 
L 13.28125 0 
L 4.203125 0 
z
" id="DejaVuSansMono-77"/>
     <path d="M 49.421875 70.40625 
L 49.421875 60.40625 
Q 44.921875 63.28125 40.40625 64.75 
Q 35.890625 66.21875 31.296875 66.21875 
Q 24.3125 66.21875 20.265625 62.96875 
Q 16.21875 59.71875 16.21875 54.203125 
Q 16.21875 49.359375 18.875 46.8125 
Q 21.53125 44.28125 28.8125 42.578125 
L 33.984375 41.40625 
Q 44.234375 39.015625 48.921875 33.890625 
Q 53.609375 28.765625 53.609375 19.921875 
Q 53.609375 9.515625 47.15625 4.046875 
Q 40.71875 -1.421875 28.421875 -1.421875 
Q 23.296875 -1.421875 18.109375 -0.3125 
Q 12.9375 0.78125 7.71875 2.984375 
L 7.71875 13.484375 
Q 13.328125 9.90625 18.328125 8.25 
Q 23.34375 6.59375 28.421875 6.59375 
Q 35.890625 6.59375 40.03125 9.9375 
Q 44.1875 13.28125 44.1875 19.28125 
Q 44.1875 24.75 41.328125 27.625 
Q 38.484375 30.515625 31.390625 32.078125 
L 26.125 33.296875 
Q 15.96875 35.59375 11.375 40.234375 
Q 6.78125 44.875 6.78125 52.6875 
Q 6.78125 62.453125 13.34375 68.328125 
Q 19.921875 74.21875 30.8125 74.21875 
Q 35.015625 74.21875 39.640625 73.265625 
Q 44.28125 72.3125 49.421875 70.40625 
z
" id="DejaVuSansMono-83"/>
     <path d="M 9.625 72.90625 
L 52.875 72.90625 
L 52.875 64.59375 
L 19.484375 64.59375 
L 19.484375 43.015625 
L 51.421875 43.015625 
L 51.421875 34.71875 
L 19.484375 34.71875 
L 19.484375 8.296875 
L 53.8125 8.296875 
L 53.8125 0 
L 9.625 0 
z
" id="DejaVuSansMono-69"/>
     <path d="M 23.875 51.90625 
L 36.1875 51.90625 
L 36.1875 37.109375 
L 23.875 37.109375 
z
M 23.875 14.890625 
L 36.1875 14.890625 
L 36.1875 0 
L 23.875 0 
z
" id="DejaVuSansMono-58"/>
     <path d="M 23.578125 36.625 
Q 23.578125 39.3125 25.453125 41.265625 
Q 27.34375 43.21875 29.984375 43.21875 
Q 32.71875 43.21875 34.671875 41.265625 
Q 36.625 39.3125 36.625 36.625 
Q 36.625 33.890625 34.6875 31.984375 
Q 32.765625 30.078125 29.984375 30.078125 
Q 27.25 30.078125 25.40625 31.9375 
Q 23.578125 33.796875 23.578125 36.625 
z
M 30.078125 66.40625 
Q 23.1875 66.40625 19.796875 58.984375 
Q 16.40625 51.5625 16.40625 36.375 
Q 16.40625 21.234375 19.796875 13.8125 
Q 23.1875 6.390625 30.078125 6.390625 
Q 37.015625 6.390625 40.40625 13.8125 
Q 43.796875 21.234375 43.796875 36.375 
Q 43.796875 51.5625 40.40625 58.984375 
Q 37.015625 66.40625 30.078125 66.40625 
z
M 30.078125 74.21875 
Q 41.75 74.21875 47.734375 64.640625 
Q 53.71875 55.078125 53.71875 36.375 
Q 53.71875 17.71875 47.734375 8.140625 
Q 41.75 -1.421875 30.078125 -1.421875 
Q 18.40625 -1.421875 12.453125 8.140625 
Q 6.5 17.71875 6.5 36.375 
Q 6.5 55.078125 12.453125 64.640625 
Q 18.40625 74.21875 30.078125 74.21875 
z
" id="DejaVuSansMono-48"/>
     <path d="M 23.875 14.890625 
L 36.1875 14.890625 
L 36.1875 0 
L 23.875 0 
z
" id="DejaVuSansMono-46"/>
    </defs>
    <g transform="translate(184.581818 195.157403)scale(0.1 -0.1)">
     <use xlink:href="#DejaVuSansMono-73"/>
     <use x="60.205078" xlink:href="#DejaVuSansMono-110"/>
     <use x="120.410156" xlink:href="#DejaVuSansMono-32"/>
     <use x="180.615234" xlink:href="#DejaVuSansMono-32"/>
     <use x="240.820312" xlink:href="#DejaVuSansMono-82"/>
     <use x="301.025391" xlink:href="#DejaVuSansMono-77"/>
     <use x="361.230469" xlink:href="#DejaVuSansMono-83"/>
     <use x="421.435547" xlink:href="#DejaVuSansMono-69"/>
     <use x="481.640625" xlink:href="#DejaVuSansMono-58"/>
     <use x="541.845703" xlink:href="#DejaVuSansMono-32"/>
     <use x="602.050781" xlink:href="#DejaVuSansMono-48"/>
     <use x="662.255859" xlink:href="#DejaVuSansMono-46"/>
     <use x="722.460938" xlink:href="#DejaVuSansMono-48"/>
    </g>
    <!-- Out RMSE: 0.03001 -->
    <defs>
     <path d="M 44.1875 36.375 
Q 44.1875 52.4375 40.890625 59.328125 
Q 37.59375 66.21875 30.078125 66.21875 
Q 22.609375 66.21875 19.3125 59.328125 
Q 16.015625 52.4375 16.015625 36.375 
Q 16.015625 20.359375 19.3125 13.46875 
Q 22.609375 6.59375 30.078125 6.59375 
Q 37.59375 6.59375 40.890625 13.453125 
Q 44.1875 20.3125 44.1875 36.375 
z
M 54.5 36.375 
Q 54.5 17.328125 48.46875 7.953125 
Q 42.4375 -1.421875 30.078125 -1.421875 
Q 17.71875 -1.421875 11.71875 7.90625 
Q 5.71875 17.234375 5.71875 36.375 
Q 5.71875 55.46875 11.75 64.84375 
Q 17.78125 74.21875 30.078125 74.21875 
Q 42.4375 74.21875 48.46875 64.84375 
Q 54.5 55.46875 54.5 36.375 
z
" id="DejaVuSansMono-79"/>
     <path d="M 9.515625 20.703125 
L 9.515625 54.59375 
L 18.5 54.59375 
L 18.5 20.703125 
Q 18.5 13.328125 21.109375 9.859375 
Q 23.734375 6.390625 29.203125 6.390625 
Q 35.546875 6.390625 38.90625 10.859375 
Q 42.28125 15.328125 42.28125 23.6875 
L 42.28125 54.59375 
L 51.3125 54.59375 
L 51.3125 0 
L 42.28125 0 
L 42.28125 8.203125 
Q 39.890625 3.46875 35.765625 1.015625 
Q 31.640625 -1.421875 26.125 -1.421875 
Q 17.71875 -1.421875 13.609375 4.078125 
Q 9.515625 9.578125 9.515625 20.703125 
z
" id="DejaVuSansMono-117"/>
     <path d="M 29.984375 70.21875 
L 29.984375 54.6875 
L 50.390625 54.6875 
L 50.390625 47.703125 
L 29.984375 47.703125 
L 29.984375 18.015625 
Q 29.984375 11.96875 32.28125 9.5625 
Q 34.578125 7.171875 40.28125 7.171875 
L 50.390625 7.171875 
L 50.390625 0 
L 39.40625 0 
Q 29.296875 0 25.140625 4.046875 
Q 21 8.109375 21 18.015625 
L 21 47.703125 
L 6.390625 47.703125 
L 6.390625 54.6875 
L 21 54.6875 
L 21 70.21875 
z
" id="DejaVuSansMono-116"/>
     <path d="M 37.890625 39.015625 
Q 45.0625 37.109375 48.875 32.25 
Q 52.6875 27.390625 52.6875 20.125 
Q 52.6875 10.0625 45.921875 4.3125 
Q 39.15625 -1.421875 27.203125 -1.421875 
Q 22.171875 -1.421875 16.9375 -0.484375 
Q 11.71875 0.4375 6.6875 2.203125 
L 6.6875 12.015625 
Q 11.671875 9.421875 16.5 8.15625 
Q 21.34375 6.890625 26.125 6.890625 
Q 34.234375 6.890625 38.578125 10.546875 
Q 42.921875 14.203125 42.921875 21.09375 
Q 42.921875 27.4375 38.578125 31.171875 
Q 34.234375 34.90625 26.8125 34.90625 
L 19.28125 34.90625 
L 19.28125 43.015625 
L 26.8125 43.015625 
Q 33.59375 43.015625 37.40625 45.984375 
Q 41.21875 48.96875 41.21875 54.296875 
Q 41.21875 59.90625 37.671875 62.90625 
Q 34.125 65.921875 27.59375 65.921875 
Q 23.25 65.921875 18.609375 64.9375 
Q 13.96875 63.96875 8.890625 62.015625 
L 8.890625 71.09375 
Q 14.796875 72.65625 19.40625 73.4375 
Q 24.03125 74.21875 27.59375 74.21875 
Q 38.234375 74.21875 44.609375 68.875 
Q 50.984375 63.53125 50.984375 54.6875 
Q 50.984375 48.6875 47.625 44.671875 
Q 44.28125 40.671875 37.890625 39.015625 
z
" id="DejaVuSansMono-51"/>
     <path d="M 13.1875 8.296875 
L 28.515625 8.296875 
L 28.515625 64.015625 
L 12.015625 60.296875 
L 12.015625 69.28125 
L 28.421875 72.90625 
L 38.28125 72.90625 
L 38.28125 8.296875 
L 53.421875 8.296875 
L 53.421875 0 
L 13.1875 0 
z
" id="DejaVuSansMono-49"/>
    </defs>
    <g transform="translate(184.581818 206.418966)scale(0.1 -0.1)">
     <use xlink:href="#DejaVuSansMono-79"/>
     <use x="60.205078" xlink:href="#DejaVuSansMono-117"/>
     <use x="120.410156" xlink:href="#DejaVuSansMono-116"/>
     <use x="180.615234" xlink:href="#DejaVuSansMono-32"/>
     <use x="240.820312" xlink:href="#DejaVuSansMono-82"/>
     <use x="301.025391" xlink:href="#DejaVuSansMono-77"/>
     <use x="361.230469" xlink:href="#DejaVuSansMono-83"/>
     <use x="421.435547" xlink:href="#DejaVuSansMono-69"/>
     <use x="481.640625" xlink:href="#DejaVuSansMono-58"/>
     <use x="541.845703" xlink:href="#DejaVuSansMono-32"/>
     <use x="602.050781" xlink:href="#DejaVuSansMono-48"/>
     <use x="662.255859" xlink:href="#DejaVuSansMono-46"/>
     <use x="722.460938" xlink:href="#DejaVuSansMono-48"/>
     <use x="782.666016" xlink:href="#DejaVuSansMono-51"/>
     <use x="842.871094" xlink:href="#DejaVuSansMono-48"/>
     <use x="903.076172" xlink:href="#DejaVuSansMono-48"/>
     <use x="963.28125" xlink:href="#DejaVuSansMono-49"/>
    </g>
   </g>
   <g id="text_20">
    <!-- inv_t4_invSim_820_200Traces fitting using transfer functions -->
    <defs>
     <path d="M 54.890625 33.015625 
L 54.890625 0 
L 45.90625 0 
L 45.90625 32.71875 
Q 45.90625 40.484375 42.875 44.328125 
Q 39.84375 48.1875 33.796875 48.1875 
Q 26.515625 48.1875 22.3125 43.546875 
Q 18.109375 38.921875 18.109375 30.90625 
L 18.109375 0 
L 9.078125 0 
L 9.078125 54.6875 
L 18.109375 54.6875 
L 18.109375 46.1875 
Q 21.34375 51.125 25.703125 53.5625 
Q 30.078125 56 35.796875 56 
Q 45.21875 56 50.046875 50.171875 
Q 54.890625 44.34375 54.890625 33.015625 
z
" id="DejaVuSans-110"/>
     <path d="M 2.984375 54.6875 
L 12.5 54.6875 
L 29.59375 8.796875 
L 46.6875 54.6875 
L 56.203125 54.6875 
L 35.6875 0 
L 23.484375 0 
z
" id="DejaVuSans-118"/>
     <path d="M 50.984375 -16.609375 
L 50.984375 -23.578125 
L -0.984375 -23.578125 
L -0.984375 -16.609375 
z
" id="DejaVuSans-95"/>
     <path d="M 53.515625 70.515625 
L 53.515625 60.890625 
Q 47.90625 63.578125 42.921875 64.890625 
Q 37.9375 66.21875 33.296875 66.21875 
Q 25.25 66.21875 20.875 63.09375 
Q 16.5 59.96875 16.5 54.203125 
Q 16.5 49.359375 19.40625 46.890625 
Q 22.3125 44.4375 30.421875 42.921875 
L 36.375 41.703125 
Q 47.40625 39.59375 52.65625 34.296875 
Q 57.90625 29 57.90625 20.125 
Q 57.90625 9.515625 50.796875 4.046875 
Q 43.703125 -1.421875 29.984375 -1.421875 
Q 24.8125 -1.421875 18.96875 -0.25 
Q 13.140625 0.921875 6.890625 3.21875 
L 6.890625 13.375 
Q 12.890625 10.015625 18.65625 8.296875 
Q 24.421875 6.59375 29.984375 6.59375 
Q 38.421875 6.59375 43.015625 9.90625 
Q 47.609375 13.234375 47.609375 19.390625 
Q 47.609375 24.75 44.3125 27.78125 
Q 41.015625 30.8125 33.5 32.328125 
L 27.484375 33.5 
Q 16.453125 35.6875 11.515625 40.375 
Q 6.59375 45.0625 6.59375 53.421875 
Q 6.59375 63.09375 13.40625 68.65625 
Q 20.21875 74.21875 32.171875 74.21875 
Q 37.3125 74.21875 42.625 73.28125 
Q 47.953125 72.359375 53.515625 70.515625 
z
" id="DejaVuSans-83"/>
     <path d="M 41.109375 46.296875 
Q 39.59375 47.171875 37.8125 47.578125 
Q 36.03125 48 33.890625 48 
Q 26.265625 48 22.1875 43.046875 
Q 18.109375 38.09375 18.109375 28.8125 
L 18.109375 0 
L 9.078125 0 
L 9.078125 54.6875 
L 18.109375 54.6875 
L 18.109375 46.1875 
Q 20.953125 51.171875 25.484375 53.578125 
Q 30.03125 56 36.53125 56 
Q 37.453125 56 38.578125 55.875 
Q 39.703125 55.765625 41.0625 55.515625 
z
" id="DejaVuSans-114"/>
     <path d="M 48.78125 52.59375 
L 48.78125 44.1875 
Q 44.96875 46.296875 41.140625 47.34375 
Q 37.3125 48.390625 33.40625 48.390625 
Q 24.65625 48.390625 19.8125 42.84375 
Q 14.984375 37.3125 14.984375 27.296875 
Q 14.984375 17.28125 19.8125 11.734375 
Q 24.65625 6.203125 33.40625 6.203125 
Q 37.3125 6.203125 41.140625 7.25 
Q 44.96875 8.296875 48.78125 10.40625 
L 48.78125 2.09375 
Q 45.015625 0.34375 40.984375 -0.53125 
Q 36.96875 -1.421875 32.421875 -1.421875 
Q 20.0625 -1.421875 12.78125 6.34375 
Q 5.515625 14.109375 5.515625 27.296875 
Q 5.515625 40.671875 12.859375 48.328125 
Q 20.21875 56 33.015625 56 
Q 37.15625 56 41.109375 55.140625 
Q 45.0625 54.296875 48.78125 52.59375 
z
" id="DejaVuSans-99"/>
     <path d="M 37.109375 75.984375 
L 37.109375 68.5 
L 28.515625 68.5 
Q 23.6875 68.5 21.796875 66.546875 
Q 19.921875 64.59375 19.921875 59.515625 
L 19.921875 54.6875 
L 34.71875 54.6875 
L 34.71875 47.703125 
L 19.921875 47.703125 
L 19.921875 0 
L 10.890625 0 
L 10.890625 47.703125 
L 2.296875 47.703125 
L 2.296875 54.6875 
L 10.890625 54.6875 
L 10.890625 58.5 
Q 10.890625 67.625 15.140625 71.796875 
Q 19.390625 75.984375 28.609375 75.984375 
z
" id="DejaVuSans-102"/>
     <path d="M 8.5 21.578125 
L 8.5 54.6875 
L 17.484375 54.6875 
L 17.484375 21.921875 
Q 17.484375 14.15625 20.5 10.265625 
Q 23.53125 6.390625 29.59375 6.390625 
Q 36.859375 6.390625 41.078125 11.03125 
Q 45.3125 15.671875 45.3125 23.6875 
L 45.3125 54.6875 
L 54.296875 54.6875 
L 54.296875 0 
L 45.3125 0 
L 45.3125 8.40625 
Q 42.046875 3.421875 37.71875 1 
Q 33.40625 -1.421875 27.6875 -1.421875 
Q 18.265625 -1.421875 13.375 4.4375 
Q 8.5 10.296875 8.5 21.578125 
z
M 31.109375 56 
z
" id="DejaVuSans-117"/>
    </defs>
    <g transform="translate(407.127187 28.56)scale(0.12 -0.12)">
     <use xlink:href="#DejaVuSans-105"/>
     <use x="27.783203" xlink:href="#DejaVuSans-110"/>
     <use x="91.162109" xlink:href="#DejaVuSans-118"/>
     <use x="150.341797" xlink:href="#DejaVuSans-95"/>
     <use x="200.341797" xlink:href="#DejaVuSans-116"/>
     <use x="239.550781" xlink:href="#DejaVuSans-52"/>
     <use x="303.173828" xlink:href="#DejaVuSans-95"/>
     <use x="353.173828" xlink:href="#DejaVuSans-105"/>
     <use x="380.957031" xlink:href="#DejaVuSans-110"/>
     <use x="444.335938" xlink:href="#DejaVuSans-118"/>
     <use x="503.515625" xlink:href="#DejaVuSans-83"/>
     <use x="566.992188" xlink:href="#DejaVuSans-105"/>
     <use x="594.775391" xlink:href="#DejaVuSans-109"/>
     <use x="692.1875" xlink:href="#DejaVuSans-95"/>
     <use x="742.1875" xlink:href="#DejaVuSans-56"/>
     <use x="805.810547" xlink:href="#DejaVuSans-50"/>
     <use x="869.433594" xlink:href="#DejaVuSans-48"/>
     <use x="933.056641" xlink:href="#DejaVuSans-95"/>
     <use x="983.056641" xlink:href="#DejaVuSans-50"/>
     <use x="1046.679688" xlink:href="#DejaVuSans-48"/>
     <use x="1110.302734" xlink:href="#DejaVuSans-48"/>
     <use x="1173.925781" xlink:href="#DejaVuSans-84"/>
     <use x="1234.791016" xlink:href="#DejaVuSans-114"/>
     <use x="1275.904297" xlink:href="#DejaVuSans-97"/>
     <use x="1337.183594" xlink:href="#DejaVuSans-99"/>
     <use x="1392.164062" xlink:href="#DejaVuSans-101"/>
     <use x="1453.6875" xlink:href="#DejaVuSans-115"/>
     <use x="1505.787109" xlink:href="#DejaVuSans-32"/>
     <use x="1537.574219" xlink:href="#DejaVuSans-102"/>
     <use x="1572.779297" xlink:href="#DejaVuSans-105"/>
     <use x="1600.5625" xlink:href="#DejaVuSans-116"/>
     <use x="1639.771484" xlink:href="#DejaVuSans-116"/>
     <use x="1678.980469" xlink:href="#DejaVuSans-105"/>
     <use x="1706.763672" xlink:href="#DejaVuSans-110"/>
     <use x="1770.142578" xlink:href="#DejaVuSans-103"/>
     <use x="1833.619141" xlink:href="#DejaVuSans-32"/>
     <use x="1865.40625" xlink:href="#DejaVuSans-117"/>
     <use x="1928.785156" xlink:href="#DejaVuSans-115"/>
     <use x="1980.884766" xlink:href="#DejaVuSans-105"/>
     <use x="2008.667969" xlink:href="#DejaVuSans-110"/>
     <use x="2072.046875" xlink:href="#DejaVuSans-103"/>
     <use x="2135.523438" xlink:href="#DejaVuSans-32"/>
     <use x="2167.310547" xlink:href="#DejaVuSans-116"/>
     <use x="2206.519531" xlink:href="#DejaVuSans-114"/>
     <use x="2247.632812" xlink:href="#DejaVuSans-97"/>
     <use x="2308.912109" xlink:href="#DejaVuSans-110"/>
     <use x="2372.291016" xlink:href="#DejaVuSans-115"/>
     <use x="2424.390625" xlink:href="#DejaVuSans-102"/>
     <use x="2459.595703" xlink:href="#DejaVuSans-101"/>
     <use x="2521.119141" xlink:href="#DejaVuSans-114"/>
     <use x="2562.232422" xlink:href="#DejaVuSans-32"/>
     <use x="2594.019531" xlink:href="#DejaVuSans-102"/>
     <use x="2629.224609" xlink:href="#DejaVuSans-117"/>
     <use x="2692.603516" xlink:href="#DejaVuSans-110"/>
     <use x="2755.982422" xlink:href="#DejaVuSans-99"/>
     <use x="2810.962891" xlink:href="#DejaVuSans-116"/>
     <use x="2850.171875" xlink:href="#DejaVuSans-105"/>
     <use x="2877.955078" xlink:href="#DejaVuSans-111"/>
     <use x="2939.136719" xlink:href="#DejaVuSans-110"/>
     <use x="3002.515625" xlink:href="#DejaVuSans-115"/>
    </g>
   </g>
   <g id="legend_1">
    <g id="patch_7">
     <path d="M 151 176.29625 
L 369.0875 176.29625 
Q 371.0875 176.29625 371.0875 174.29625 
L 371.0875 116.58375 
Q 371.0875 114.58375 369.0875 114.58375 
L 151 114.58375 
Q 149 114.58375 149 116.58375 
L 149 174.29625 
Q 149 176.29625 151 176.29625 
z
" style="fill:#ffffff;opacity:0.8;stroke:#cccccc;stroke-linejoin:miter;"/>
    </g>
    <g id="line2d_20">
     <path d="M 153 122.682187 
L 173 122.682187 
" style="fill:none;stroke:#ff0000;stroke-linecap:square;stroke-width:1.5;"/>
    </g>
    <g id="line2d_21"/>
    <g id="text_21">
     <!-- Input -->
     <defs>
      <path d="M 9.8125 72.90625 
L 19.671875 72.90625 
L 19.671875 0 
L 9.8125 0 
z
" id="DejaVuSans-73"/>
      <path d="M 18.109375 8.203125 
L 18.109375 -20.796875 
L 9.078125 -20.796875 
L 9.078125 54.6875 
L 18.109375 54.6875 
L 18.109375 46.390625 
Q 20.953125 51.265625 25.265625 53.625 
Q 29.59375 56 35.59375 56 
Q 45.5625 56 51.78125 48.09375 
Q 58.015625 40.1875 58.015625 27.296875 
Q 58.015625 14.40625 51.78125 6.484375 
Q 45.5625 -1.421875 35.59375 -1.421875 
Q 29.59375 -1.421875 25.265625 0.953125 
Q 20.953125 3.328125 18.109375 8.203125 
z
M 48.6875 27.296875 
Q 48.6875 37.203125 44.609375 42.84375 
Q 40.53125 48.484375 33.40625 48.484375 
Q 26.265625 48.484375 22.1875 42.84375 
Q 18.109375 37.203125 18.109375 27.296875 
Q 18.109375 17.390625 22.1875 11.75 
Q 26.265625 6.109375 33.40625 6.109375 
Q 40.53125 6.109375 44.609375 11.75 
Q 48.6875 17.390625 48.6875 27.296875 
z
" id="DejaVuSans-112"/>
     </defs>
     <g transform="translate(181 126.182187)scale(0.1 -0.1)">
      <use xlink:href="#DejaVuSans-73"/>
      <use x="29.492188" xlink:href="#DejaVuSans-110"/>
      <use x="92.871094" xlink:href="#DejaVuSans-112"/>
      <use x="156.347656" xlink:href="#DejaVuSans-117"/>
      <use x="219.726562" xlink:href="#DejaVuSans-116"/>
     </g>
    </g>
    <g id="line2d_22">
     <path d="M 153 137.360312 
L 173 137.360312 
" style="fill:none;stroke:#008000;stroke-linecap:square;stroke-width:1.5;"/>
    </g>
    <g id="line2d_23"/>
    <g id="text_22">
     <!-- Output -->
     <defs>
      <path d="M 39.40625 66.21875 
Q 28.65625 66.21875 22.328125 58.203125 
Q 16.015625 50.203125 16.015625 36.375 
Q 16.015625 22.609375 22.328125 14.59375 
Q 28.65625 6.59375 39.40625 6.59375 
Q 50.140625 6.59375 56.421875 14.59375 
Q 62.703125 22.609375 62.703125 36.375 
Q 62.703125 50.203125 56.421875 58.203125 
Q 50.140625 66.21875 39.40625 66.21875 
z
M 39.40625 74.21875 
Q 54.734375 74.21875 63.90625 63.9375 
Q 73.09375 53.65625 73.09375 36.375 
Q 73.09375 19.140625 63.90625 8.859375 
Q 54.734375 -1.421875 39.40625 -1.421875 
Q 24.03125 -1.421875 14.8125 8.828125 
Q 5.609375 19.09375 5.609375 36.375 
Q 5.609375 53.65625 14.8125 63.9375 
Q 24.03125 74.21875 39.40625 74.21875 
z
" id="DejaVuSans-79"/>
     </defs>
     <g transform="translate(181 140.860312)scale(0.1 -0.1)">
      <use xlink:href="#DejaVuSans-79"/>
      <use x="78.710938" xlink:href="#DejaVuSans-117"/>
      <use x="142.089844" xlink:href="#DejaVuSans-116"/>
      <use x="181.298828" xlink:href="#DejaVuSans-112"/>
      <use x="244.775391" xlink:href="#DejaVuSans-117"/>
      <use x="308.154297" xlink:href="#DejaVuSans-116"/>
     </g>
    </g>
    <g id="line2d_24">
     <path d="M 153 152.038437 
L 173 152.038437 
" style="fill:none;stroke:#008000;stroke-dasharray:5.55,2.4;stroke-dashoffset:0;stroke-width:1.5;"/>
    </g>
    <g id="line2d_25"/>
    <g id="text_23">
     <!-- Output fitting from transfer functions -->
     <g transform="translate(181 155.538437)scale(0.1 -0.1)">
      <use xlink:href="#DejaVuSans-79"/>
      <use x="78.710938" xlink:href="#DejaVuSans-117"/>
      <use x="142.089844" xlink:href="#DejaVuSans-116"/>
      <use x="181.298828" xlink:href="#DejaVuSans-112"/>
      <use x="244.775391" xlink:href="#DejaVuSans-117"/>
      <use x="308.154297" xlink:href="#DejaVuSans-116"/>
      <use x="347.363281" xlink:href="#DejaVuSans-32"/>
      <use x="379.150391" xlink:href="#DejaVuSans-102"/>
      <use x="414.355469" xlink:href="#DejaVuSans-105"/>
      <use x="442.138672" xlink:href="#DejaVuSans-116"/>
      <use x="481.347656" xlink:href="#DejaVuSans-116"/>
      <use x="520.556641" xlink:href="#DejaVuSans-105"/>
      <use x="548.339844" xlink:href="#DejaVuSans-110"/>
      <use x="611.71875" xlink:href="#DejaVuSans-103"/>
      <use x="675.195312" xlink:href="#DejaVuSans-32"/>
      <use x="706.982422" xlink:href="#DejaVuSans-102"/>
      <use x="742.1875" xlink:href="#DejaVuSans-114"/>
      <use x="783.269531" xlink:href="#DejaVuSans-111"/>
      <use x="844.451172" xlink:href="#DejaVuSans-109"/>
      <use x="941.863281" xlink:href="#DejaVuSans-32"/>
      <use x="973.650391" xlink:href="#DejaVuSans-116"/>
      <use x="1012.859375" xlink:href="#DejaVuSans-114"/>
      <use x="1053.972656" xlink:href="#DejaVuSans-97"/>
      <use x="1115.251953" xlink:href="#DejaVuSans-110"/>
      <use x="1178.630859" xlink:href="#DejaVuSans-115"/>
      <use x="1230.730469" xlink:href="#DejaVuSans-102"/>
      <use x="1265.935547" xlink:href="#DejaVuSans-101"/>
      <use x="1327.458984" xlink:href="#DejaVuSans-114"/>
      <use x="1368.572266" xlink:href="#DejaVuSans-32"/>
      <use x="1400.359375" xlink:href="#DejaVuSans-102"/>
      <use x="1435.564453" xlink:href="#DejaVuSans-117"/>
      <use x="1498.943359" xlink:href="#DejaVuSans-110"/>
      <use x="1562.322266" xlink:href="#DejaVuSans-99"/>
      <use x="1617.302734" xlink:href="#DejaVuSans-116"/>
      <use x="1656.511719" xlink:href="#DejaVuSans-105"/>
      <use x="1684.294922" xlink:href="#DejaVuSans-111"/>
      <use x="1745.476562" xlink:href="#DejaVuSans-110"/>
      <use x="1808.855469" xlink:href="#DejaVuSans-115"/>
     </g>
    </g>
    <g id="line2d_26">
     <path d="M 153 166.716563 
L 173 166.716563 
" style="fill:none;stroke:#008000;stroke-dasharray:9.6,2.4,1.5,2.4;stroke-dashoffset:0;stroke-width:1.5;"/>
    </g>
    <g id="line2d_27"/>
    <g id="text_24">
     <!-- fitting error -->
     <g transform="translate(181 170.216563)scale(0.1 -0.1)">
      <use xlink:href="#DejaVuSans-102"/>
      <use x="35.205078" xlink:href="#DejaVuSans-105"/>
      <use x="62.988281" xlink:href="#DejaVuSans-116"/>
      <use x="102.197266" xlink:href="#DejaVuSans-116"/>
      <use x="141.40625" xlink:href="#DejaVuSans-105"/>
      <use x="169.189453" xlink:href="#DejaVuSans-110"/>
      <use x="232.568359" xlink:href="#DejaVuSans-103"/>
      <use x="296.044922" xlink:href="#DejaVuSans-32"/>
      <use x="327.832031" xlink:href="#DejaVuSans-101"/>
      <use x="389.355469" xlink:href="#DejaVuSans-114"/>
      <use x="430.453125" xlink:href="#DejaVuSans-114"/>
      <use x="471.535156" xlink:href="#DejaVuSans-111"/>
      <use x="532.716797" xlink:href="#DejaVuSans-114"/>
     </g>
    </g>
   </g>
  </g>
 </g>
 <defs>
  <clipPath id="p8fde8c4bd5">
   <rect height="221.76" width="892.8" x="144" y="34.56"/>
  </clipPath>
 </defs>
</svg>
