<?xml version="1.0" encoding="utf-8" standalone="no"?>
<!DOCTYPE svg PUBLIC "-//W3C//DTD SVG 1.1//EN"
  "http://www.w3.org/Graphics/SVG/1.1/DTD/svg11.dtd">
<!-- Created with matplotlib (https://matplotlib.org/) -->
<svg height="288pt" version="1.1" viewBox="0 0 1152 288" width="1152pt" xmlns="http://www.w3.org/2000/svg" xmlns:xlink="http://www.w3.org/1999/xlink">
 <metadata>
  <rdf:RDF xmlns:cc="http://creativecommons.org/ns#" xmlns:dc="http://purl.org/dc/elements/1.1/" xmlns:rdf="http://www.w3.org/1999/02/22-rdf-syntax-ns#">
   <cc:Work>
    <dc:type rdf:resource="http://purl.org/dc/dcmitype/StillImage"/>
    <dc:date>2020-08-03T14:03:08.081917</dc:date>
    <dc:format>image/svg+xml</dc:format>
    <dc:creator>
     <cc:Agent>
      <dc:title>Matplotlib v3.3.0, https://matplotlib.org/</dc:title>
     </cc:Agent>
    </dc:creator>
   </cc:Work>
  </rdf:RDF>
 </metadata>
 <defs>
  <style type="text/css">*{stroke-linecap:butt;stroke-linejoin:round;}</style>
 </defs>
 <g id="figure_1">
  <g id="patch_1">
   <path d="M 0 288 
L 1152 288 
L 1152 0 
L 0 0 
z
" style="fill:#ffffff;"/>
  </g>
  <g id="axes_1">
   <g id="patch_2">
    <path d="M 144 256.32 
L 1036.8 256.32 
L 1036.8 34.56 
L 144 34.56 
z
" style="fill:#ffffff;"/>
   </g>
   <g id="matplotlib.axis_1">
    <g id="xtick_1">
     <g id="line2d_1">
      <defs>
       <path d="M 0 0 
L 0 3.5 
" id="me57563ac90" style="stroke:#000000;stroke-width:0.8;"/>
      </defs>
      <g>
       <use style="stroke:#000000;stroke-width:0.8;" x="184.581818" xlink:href="#me57563ac90" y="256.32"/>
      </g>
     </g>
     <g id="text_1">
      <!-- 0 -->
      <g transform="translate(181.400568 270.918437)scale(0.1 -0.1)">
       <defs>
        <path d="M 31.78125 66.40625 
Q 24.171875 66.40625 20.328125 58.90625 
Q 16.5 51.421875 16.5 36.375 
Q 16.5 21.390625 20.328125 13.890625 
Q 24.171875 6.390625 31.78125 6.390625 
Q 39.453125 6.390625 43.28125 13.890625 
Q 47.125 21.390625 47.125 36.375 
Q 47.125 51.421875 43.28125 58.90625 
Q 39.453125 66.40625 31.78125 66.40625 
z
M 31.78125 74.21875 
Q 44.046875 74.21875 50.515625 64.515625 
Q 56.984375 54.828125 56.984375 36.375 
Q 56.984375 17.96875 50.515625 8.265625 
Q 44.046875 -1.421875 31.78125 -1.421875 
Q 19.53125 -1.421875 13.0625 8.265625 
Q 6.59375 17.96875 6.59375 36.375 
Q 6.59375 54.828125 13.0625 64.515625 
Q 19.53125 74.21875 31.78125 74.21875 
z
" id="DejaVuSans-48"/>
       </defs>
       <use xlink:href="#DejaVuSans-48"/>
      </g>
     </g>
    </g>
    <g id="xtick_2">
     <g id="line2d_2">
      <g>
       <use style="stroke:#000000;stroke-width:0.8;" x="363.201845" xlink:href="#me57563ac90" y="256.32"/>
      </g>
     </g>
     <g id="text_2">
      <!-- 2 -->
      <g transform="translate(360.020595 270.918437)scale(0.1 -0.1)">
       <defs>
        <path d="M 19.1875 8.296875 
L 53.609375 8.296875 
L 53.609375 0 
L 7.328125 0 
L 7.328125 8.296875 
Q 12.9375 14.109375 22.625 23.890625 
Q 32.328125 33.6875 34.8125 36.53125 
Q 39.546875 41.84375 41.421875 45.53125 
Q 43.3125 49.21875 43.3125 52.78125 
Q 43.3125 58.59375 39.234375 62.25 
Q 35.15625 65.921875 28.609375 65.921875 
Q 23.96875 65.921875 18.8125 64.3125 
Q 13.671875 62.703125 7.8125 59.421875 
L 7.8125 69.390625 
Q 13.765625 71.78125 18.9375 73 
Q 24.125 74.21875 28.421875 74.21875 
Q 39.75 74.21875 46.484375 68.546875 
Q 53.21875 62.890625 53.21875 53.421875 
Q 53.21875 48.921875 51.53125 44.890625 
Q 49.859375 40.875 45.40625 35.40625 
Q 44.1875 33.984375 37.640625 27.21875 
Q 31.109375 20.453125 19.1875 8.296875 
z
" id="DejaVuSans-50"/>
       </defs>
       <use xlink:href="#DejaVuSans-50"/>
      </g>
     </g>
    </g>
    <g id="xtick_3">
     <g id="line2d_3">
      <g>
       <use style="stroke:#000000;stroke-width:0.8;" x="541.821872" xlink:href="#me57563ac90" y="256.32"/>
      </g>
     </g>
     <g id="text_3">
      <!-- 4 -->
      <g transform="translate(538.640622 270.918437)scale(0.1 -0.1)">
       <defs>
        <path d="M 37.796875 64.3125 
L 12.890625 25.390625 
L 37.796875 25.390625 
z
M 35.203125 72.90625 
L 47.609375 72.90625 
L 47.609375 25.390625 
L 58.015625 25.390625 
L 58.015625 17.1875 
L 47.609375 17.1875 
L 47.609375 0 
L 37.796875 0 
L 37.796875 17.1875 
L 4.890625 17.1875 
L 4.890625 26.703125 
z
" id="DejaVuSans-52"/>
       </defs>
       <use xlink:href="#DejaVuSans-52"/>
      </g>
     </g>
    </g>
    <g id="xtick_4">
     <g id="line2d_4">
      <g>
       <use style="stroke:#000000;stroke-width:0.8;" x="720.441899" xlink:href="#me57563ac90" y="256.32"/>
      </g>
     </g>
     <g id="text_4">
      <!-- 6 -->
      <g transform="translate(717.260649 270.918437)scale(0.1 -0.1)">
       <defs>
        <path d="M 33.015625 40.375 
Q 26.375 40.375 22.484375 35.828125 
Q 18.609375 31.296875 18.609375 23.390625 
Q 18.609375 15.53125 22.484375 10.953125 
Q 26.375 6.390625 33.015625 6.390625 
Q 39.65625 6.390625 43.53125 10.953125 
Q 47.40625 15.53125 47.40625 23.390625 
Q 47.40625 31.296875 43.53125 35.828125 
Q 39.65625 40.375 33.015625 40.375 
z
M 52.59375 71.296875 
L 52.59375 62.3125 
Q 48.875 64.0625 45.09375 64.984375 
Q 41.3125 65.921875 37.59375 65.921875 
Q 27.828125 65.921875 22.671875 59.328125 
Q 17.53125 52.734375 16.796875 39.40625 
Q 19.671875 43.65625 24.015625 45.921875 
Q 28.375 48.1875 33.59375 48.1875 
Q 44.578125 48.1875 50.953125 41.515625 
Q 57.328125 34.859375 57.328125 23.390625 
Q 57.328125 12.15625 50.6875 5.359375 
Q 44.046875 -1.421875 33.015625 -1.421875 
Q 20.359375 -1.421875 13.671875 8.265625 
Q 6.984375 17.96875 6.984375 36.375 
Q 6.984375 53.65625 15.1875 63.9375 
Q 23.390625 74.21875 37.203125 74.21875 
Q 40.921875 74.21875 44.703125 73.484375 
Q 48.484375 72.75 52.59375 71.296875 
z
" id="DejaVuSans-54"/>
       </defs>
       <use xlink:href="#DejaVuSans-54"/>
      </g>
     </g>
    </g>
    <g id="xtick_5">
     <g id="line2d_5">
      <g>
       <use style="stroke:#000000;stroke-width:0.8;" x="899.061926" xlink:href="#me57563ac90" y="256.32"/>
      </g>
     </g>
     <g id="text_5">
      <!-- 8 -->
      <g transform="translate(895.880676 270.918437)scale(0.1 -0.1)">
       <defs>
        <path d="M 31.78125 34.625 
Q 24.75 34.625 20.71875 30.859375 
Q 16.703125 27.09375 16.703125 20.515625 
Q 16.703125 13.921875 20.71875 10.15625 
Q 24.75 6.390625 31.78125 6.390625 
Q 38.8125 6.390625 42.859375 10.171875 
Q 46.921875 13.96875 46.921875 20.515625 
Q 46.921875 27.09375 42.890625 30.859375 
Q 38.875 34.625 31.78125 34.625 
z
M 21.921875 38.8125 
Q 15.578125 40.375 12.03125 44.71875 
Q 8.5 49.078125 8.5 55.328125 
Q 8.5 64.0625 14.71875 69.140625 
Q 20.953125 74.21875 31.78125 74.21875 
Q 42.671875 74.21875 48.875 69.140625 
Q 55.078125 64.0625 55.078125 55.328125 
Q 55.078125 49.078125 51.53125 44.71875 
Q 48 40.375 41.703125 38.8125 
Q 48.828125 37.15625 52.796875 32.3125 
Q 56.78125 27.484375 56.78125 20.515625 
Q 56.78125 9.90625 50.3125 4.234375 
Q 43.84375 -1.421875 31.78125 -1.421875 
Q 19.734375 -1.421875 13.25 4.234375 
Q 6.78125 9.90625 6.78125 20.515625 
Q 6.78125 27.484375 10.78125 32.3125 
Q 14.796875 37.15625 21.921875 38.8125 
z
M 18.3125 54.390625 
Q 18.3125 48.734375 21.84375 45.5625 
Q 25.390625 42.390625 31.78125 42.390625 
Q 38.140625 42.390625 41.71875 45.5625 
Q 45.3125 48.734375 45.3125 54.390625 
Q 45.3125 60.0625 41.71875 63.234375 
Q 38.140625 66.40625 31.78125 66.40625 
Q 25.390625 66.40625 21.84375 63.234375 
Q 18.3125 60.0625 18.3125 54.390625 
z
" id="DejaVuSans-56"/>
       </defs>
       <use xlink:href="#DejaVuSans-56"/>
      </g>
     </g>
    </g>
    <g id="text_6">
     <!-- Time [s] -->
     <g transform="translate(570.071094 284.596563)scale(0.1 -0.1)">
      <defs>
       <path d="M -0.296875 72.90625 
L 61.375 72.90625 
L 61.375 64.59375 
L 35.5 64.59375 
L 35.5 0 
L 25.59375 0 
L 25.59375 64.59375 
L -0.296875 64.59375 
z
" id="DejaVuSans-84"/>
       <path d="M 9.421875 54.6875 
L 18.40625 54.6875 
L 18.40625 0 
L 9.421875 0 
z
M 9.421875 75.984375 
L 18.40625 75.984375 
L 18.40625 64.59375 
L 9.421875 64.59375 
z
" id="DejaVuSans-105"/>
       <path d="M 52 44.1875 
Q 55.375 50.25 60.0625 53.125 
Q 64.75 56 71.09375 56 
Q 79.640625 56 84.28125 50.015625 
Q 88.921875 44.046875 88.921875 33.015625 
L 88.921875 0 
L 79.890625 0 
L 79.890625 32.71875 
Q 79.890625 40.578125 77.09375 44.375 
Q 74.3125 48.1875 68.609375 48.1875 
Q 61.625 48.1875 57.5625 43.546875 
Q 53.515625 38.921875 53.515625 30.90625 
L 53.515625 0 
L 44.484375 0 
L 44.484375 32.71875 
Q 44.484375 40.625 41.703125 44.40625 
Q 38.921875 48.1875 33.109375 48.1875 
Q 26.21875 48.1875 22.15625 43.53125 
Q 18.109375 38.875 18.109375 30.90625 
L 18.109375 0 
L 9.078125 0 
L 9.078125 54.6875 
L 18.109375 54.6875 
L 18.109375 46.1875 
Q 21.1875 51.21875 25.484375 53.609375 
Q 29.78125 56 35.6875 56 
Q 41.65625 56 45.828125 52.96875 
Q 50 49.953125 52 44.1875 
z
" id="DejaVuSans-109"/>
       <path d="M 56.203125 29.59375 
L 56.203125 25.203125 
L 14.890625 25.203125 
Q 15.484375 15.921875 20.484375 11.0625 
Q 25.484375 6.203125 34.421875 6.203125 
Q 39.59375 6.203125 44.453125 7.46875 
Q 49.3125 8.734375 54.109375 11.28125 
L 54.109375 2.78125 
Q 49.265625 0.734375 44.1875 -0.34375 
Q 39.109375 -1.421875 33.890625 -1.421875 
Q 20.796875 -1.421875 13.15625 6.1875 
Q 5.515625 13.8125 5.515625 26.8125 
Q 5.515625 40.234375 12.765625 48.109375 
Q 20.015625 56 32.328125 56 
Q 43.359375 56 49.78125 48.890625 
Q 56.203125 41.796875 56.203125 29.59375 
z
M 47.21875 32.234375 
Q 47.125 39.59375 43.09375 43.984375 
Q 39.0625 48.390625 32.421875 48.390625 
Q 24.90625 48.390625 20.390625 44.140625 
Q 15.875 39.890625 15.1875 32.171875 
z
" id="DejaVuSans-101"/>
       <path id="DejaVuSans-32"/>
       <path d="M 8.59375 75.984375 
L 29.296875 75.984375 
L 29.296875 69 
L 17.578125 69 
L 17.578125 -6.203125 
L 29.296875 -6.203125 
L 29.296875 -13.1875 
L 8.59375 -13.1875 
z
" id="DejaVuSans-91"/>
       <path d="M 44.28125 53.078125 
L 44.28125 44.578125 
Q 40.484375 46.53125 36.375 47.5 
Q 32.28125 48.484375 27.875 48.484375 
Q 21.1875 48.484375 17.84375 46.4375 
Q 14.5 44.390625 14.5 40.28125 
Q 14.5 37.15625 16.890625 35.375 
Q 19.28125 33.59375 26.515625 31.984375 
L 29.59375 31.296875 
Q 39.15625 29.25 43.1875 25.515625 
Q 47.21875 21.78125 47.21875 15.09375 
Q 47.21875 7.46875 41.1875 3.015625 
Q 35.15625 -1.421875 24.609375 -1.421875 
Q 20.21875 -1.421875 15.453125 -0.5625 
Q 10.6875 0.296875 5.421875 2 
L 5.421875 11.28125 
Q 10.40625 8.6875 15.234375 7.390625 
Q 20.0625 6.109375 24.8125 6.109375 
Q 31.15625 6.109375 34.5625 8.28125 
Q 37.984375 10.453125 37.984375 14.40625 
Q 37.984375 18.0625 35.515625 20.015625 
Q 33.0625 21.96875 24.703125 23.78125 
L 21.578125 24.515625 
Q 13.234375 26.265625 9.515625 29.90625 
Q 5.8125 33.546875 5.8125 39.890625 
Q 5.8125 47.609375 11.28125 51.796875 
Q 16.75 56 26.8125 56 
Q 31.78125 56 36.171875 55.265625 
Q 40.578125 54.546875 44.28125 53.078125 
z
" id="DejaVuSans-115"/>
       <path d="M 30.421875 75.984375 
L 30.421875 -13.1875 
L 9.71875 -13.1875 
L 9.71875 -6.203125 
L 21.390625 -6.203125 
L 21.390625 69 
L 9.71875 69 
L 9.71875 75.984375 
z
" id="DejaVuSans-93"/>
      </defs>
      <use xlink:href="#DejaVuSans-84"/>
      <use x="57.958984" xlink:href="#DejaVuSans-105"/>
      <use x="85.742188" xlink:href="#DejaVuSans-109"/>
      <use x="183.154297" xlink:href="#DejaVuSans-101"/>
      <use x="244.677734" xlink:href="#DejaVuSans-32"/>
      <use x="276.464844" xlink:href="#DejaVuSans-91"/>
      <use x="315.478516" xlink:href="#DejaVuSans-115"/>
      <use x="367.578125" xlink:href="#DejaVuSans-93"/>
     </g>
    </g>
    <g id="text_7">
     <!-- 1e−9 -->
     <g transform="translate(1009.542187 283.596563)scale(0.1 -0.1)">
      <defs>
       <path d="M 12.40625 8.296875 
L 28.515625 8.296875 
L 28.515625 63.921875 
L 10.984375 60.40625 
L 10.984375 69.390625 
L 28.421875 72.90625 
L 38.28125 72.90625 
L 38.28125 8.296875 
L 54.390625 8.296875 
L 54.390625 0 
L 12.40625 0 
z
" id="DejaVuSans-49"/>
       <path d="M 10.59375 35.5 
L 73.1875 35.5 
L 73.1875 27.203125 
L 10.59375 27.203125 
z
" id="DejaVuSans-8722"/>
       <path d="M 10.984375 1.515625 
L 10.984375 10.5 
Q 14.703125 8.734375 18.5 7.8125 
Q 22.3125 6.890625 25.984375 6.890625 
Q 35.75 6.890625 40.890625 13.453125 
Q 46.046875 20.015625 46.78125 33.40625 
Q 43.953125 29.203125 39.59375 26.953125 
Q 35.25 24.703125 29.984375 24.703125 
Q 19.046875 24.703125 12.671875 31.3125 
Q 6.296875 37.9375 6.296875 49.421875 
Q 6.296875 60.640625 12.9375 67.421875 
Q 19.578125 74.21875 30.609375 74.21875 
Q 43.265625 74.21875 49.921875 64.515625 
Q 56.59375 54.828125 56.59375 36.375 
Q 56.59375 19.140625 48.40625 8.859375 
Q 40.234375 -1.421875 26.421875 -1.421875 
Q 22.703125 -1.421875 18.890625 -0.6875 
Q 15.09375 0.046875 10.984375 1.515625 
z
M 30.609375 32.421875 
Q 37.25 32.421875 41.125 36.953125 
Q 45.015625 41.5 45.015625 49.421875 
Q 45.015625 57.28125 41.125 61.84375 
Q 37.25 66.40625 30.609375 66.40625 
Q 23.96875 66.40625 20.09375 61.84375 
Q 16.21875 57.28125 16.21875 49.421875 
Q 16.21875 41.5 20.09375 36.953125 
Q 23.96875 32.421875 30.609375 32.421875 
z
" id="DejaVuSans-57"/>
      </defs>
      <use xlink:href="#DejaVuSans-49"/>
      <use x="63.623047" xlink:href="#DejaVuSans-101"/>
      <use x="125.146484" xlink:href="#DejaVuSans-8722"/>
      <use x="208.935547" xlink:href="#DejaVuSans-57"/>
     </g>
    </g>
   </g>
   <g id="matplotlib.axis_2">
    <g id="ytick_1">
     <g id="line2d_6">
      <defs>
       <path d="M 0 0 
L -3.5 0 
" id="m0e1ca2fc3c" style="stroke:#000000;stroke-width:0.8;"/>
      </defs>
      <g>
       <use style="stroke:#000000;stroke-width:0.8;" x="144" xlink:href="#m0e1ca2fc3c" y="239.381959"/>
      </g>
     </g>
     <g id="text_8">
      <!-- 0.0 -->
      <g transform="translate(121.096875 243.181178)scale(0.1 -0.1)">
       <defs>
        <path d="M 10.6875 12.40625 
L 21 12.40625 
L 21 0 
L 10.6875 0 
z
" id="DejaVuSans-46"/>
       </defs>
       <use xlink:href="#DejaVuSans-48"/>
       <use x="63.623047" xlink:href="#DejaVuSans-46"/>
       <use x="95.410156" xlink:href="#DejaVuSans-48"/>
      </g>
     </g>
    </g>
    <g id="ytick_2">
     <g id="line2d_7">
      <g>
       <use style="stroke:#000000;stroke-width:0.8;" x="144" xlink:href="#m0e1ca2fc3c" y="206.983553"/>
      </g>
     </g>
     <g id="text_9">
      <!-- 0.2 -->
      <g transform="translate(121.096875 210.782772)scale(0.1 -0.1)">
       <use xlink:href="#DejaVuSans-48"/>
       <use x="63.623047" xlink:href="#DejaVuSans-46"/>
       <use x="95.410156" xlink:href="#DejaVuSans-50"/>
      </g>
     </g>
    </g>
    <g id="ytick_3">
     <g id="line2d_8">
      <g>
       <use style="stroke:#000000;stroke-width:0.8;" x="144" xlink:href="#m0e1ca2fc3c" y="174.585147"/>
      </g>
     </g>
     <g id="text_10">
      <!-- 0.4 -->
      <g transform="translate(121.096875 178.384366)scale(0.1 -0.1)">
       <use xlink:href="#DejaVuSans-48"/>
       <use x="63.623047" xlink:href="#DejaVuSans-46"/>
       <use x="95.410156" xlink:href="#DejaVuSans-52"/>
      </g>
     </g>
    </g>
    <g id="ytick_4">
     <g id="line2d_9">
      <g>
       <use style="stroke:#000000;stroke-width:0.8;" x="144" xlink:href="#m0e1ca2fc3c" y="142.186741"/>
      </g>
     </g>
     <g id="text_11">
      <!-- 0.6 -->
      <g transform="translate(121.096875 145.98596)scale(0.1 -0.1)">
       <use xlink:href="#DejaVuSans-48"/>
       <use x="63.623047" xlink:href="#DejaVuSans-46"/>
       <use x="95.410156" xlink:href="#DejaVuSans-54"/>
      </g>
     </g>
    </g>
    <g id="ytick_5">
     <g id="line2d_10">
      <g>
       <use style="stroke:#000000;stroke-width:0.8;" x="144" xlink:href="#m0e1ca2fc3c" y="109.788335"/>
      </g>
     </g>
     <g id="text_12">
      <!-- 0.8 -->
      <g transform="translate(121.096875 113.587554)scale(0.1 -0.1)">
       <use xlink:href="#DejaVuSans-48"/>
       <use x="63.623047" xlink:href="#DejaVuSans-46"/>
       <use x="95.410156" xlink:href="#DejaVuSans-56"/>
      </g>
     </g>
    </g>
    <g id="ytick_6">
     <g id="line2d_11">
      <g>
       <use style="stroke:#000000;stroke-width:0.8;" x="144" xlink:href="#m0e1ca2fc3c" y="77.389929"/>
      </g>
     </g>
     <g id="text_13">
      <!-- 1.0 -->
      <g transform="translate(121.096875 81.189148)scale(0.1 -0.1)">
       <use xlink:href="#DejaVuSans-49"/>
       <use x="63.623047" xlink:href="#DejaVuSans-46"/>
       <use x="95.410156" xlink:href="#DejaVuSans-48"/>
      </g>
     </g>
    </g>
    <g id="ytick_7">
     <g id="line2d_12">
      <g>
       <use style="stroke:#000000;stroke-width:0.8;" x="144" xlink:href="#m0e1ca2fc3c" y="44.991523"/>
      </g>
     </g>
     <g id="text_14">
      <!-- 1.2 -->
      <g transform="translate(121.096875 48.790741)scale(0.1 -0.1)">
       <use xlink:href="#DejaVuSans-49"/>
       <use x="63.623047" xlink:href="#DejaVuSans-46"/>
       <use x="95.410156" xlink:href="#DejaVuSans-50"/>
      </g>
     </g>
    </g>
    <g id="text_15">
     <!-- Voltage [V] -->
     <g transform="translate(115.017187 173.107188)rotate(-90)scale(0.1 -0.1)">
      <defs>
       <path d="M 28.609375 0 
L 0.78125 72.90625 
L 11.078125 72.90625 
L 34.1875 11.53125 
L 57.328125 72.90625 
L 67.578125 72.90625 
L 39.796875 0 
z
" id="DejaVuSans-86"/>
       <path d="M 30.609375 48.390625 
Q 23.390625 48.390625 19.1875 42.75 
Q 14.984375 37.109375 14.984375 27.296875 
Q 14.984375 17.484375 19.15625 11.84375 
Q 23.34375 6.203125 30.609375 6.203125 
Q 37.796875 6.203125 41.984375 11.859375 
Q 46.1875 17.53125 46.1875 27.296875 
Q 46.1875 37.015625 41.984375 42.703125 
Q 37.796875 48.390625 30.609375 48.390625 
z
M 30.609375 56 
Q 42.328125 56 49.015625 48.375 
Q 55.71875 40.765625 55.71875 27.296875 
Q 55.71875 13.875 49.015625 6.21875 
Q 42.328125 -1.421875 30.609375 -1.421875 
Q 18.84375 -1.421875 12.171875 6.21875 
Q 5.515625 13.875 5.515625 27.296875 
Q 5.515625 40.765625 12.171875 48.375 
Q 18.84375 56 30.609375 56 
z
" id="DejaVuSans-111"/>
       <path d="M 9.421875 75.984375 
L 18.40625 75.984375 
L 18.40625 0 
L 9.421875 0 
z
" id="DejaVuSans-108"/>
       <path d="M 18.3125 70.21875 
L 18.3125 54.6875 
L 36.8125 54.6875 
L 36.8125 47.703125 
L 18.3125 47.703125 
L 18.3125 18.015625 
Q 18.3125 11.328125 20.140625 9.421875 
Q 21.96875 7.515625 27.59375 7.515625 
L 36.8125 7.515625 
L 36.8125 0 
L 27.59375 0 
Q 17.1875 0 13.234375 3.875 
Q 9.28125 7.765625 9.28125 18.015625 
L 9.28125 47.703125 
L 2.6875 47.703125 
L 2.6875 54.6875 
L 9.28125 54.6875 
L 9.28125 70.21875 
z
" id="DejaVuSans-116"/>
       <path d="M 34.28125 27.484375 
Q 23.390625 27.484375 19.1875 25 
Q 14.984375 22.515625 14.984375 16.5 
Q 14.984375 11.71875 18.140625 8.90625 
Q 21.296875 6.109375 26.703125 6.109375 
Q 34.1875 6.109375 38.703125 11.40625 
Q 43.21875 16.703125 43.21875 25.484375 
L 43.21875 27.484375 
z
M 52.203125 31.203125 
L 52.203125 0 
L 43.21875 0 
L 43.21875 8.296875 
Q 40.140625 3.328125 35.546875 0.953125 
Q 30.953125 -1.421875 24.3125 -1.421875 
Q 15.921875 -1.421875 10.953125 3.296875 
Q 6 8.015625 6 15.921875 
Q 6 25.140625 12.171875 29.828125 
Q 18.359375 34.515625 30.609375 34.515625 
L 43.21875 34.515625 
L 43.21875 35.40625 
Q 43.21875 41.609375 39.140625 45 
Q 35.0625 48.390625 27.6875 48.390625 
Q 23 48.390625 18.546875 47.265625 
Q 14.109375 46.140625 10.015625 43.890625 
L 10.015625 52.203125 
Q 14.9375 54.109375 19.578125 55.046875 
Q 24.21875 56 28.609375 56 
Q 40.484375 56 46.34375 49.84375 
Q 52.203125 43.703125 52.203125 31.203125 
z
" id="DejaVuSans-97"/>
       <path d="M 45.40625 27.984375 
Q 45.40625 37.75 41.375 43.109375 
Q 37.359375 48.484375 30.078125 48.484375 
Q 22.859375 48.484375 18.828125 43.109375 
Q 14.796875 37.75 14.796875 27.984375 
Q 14.796875 18.265625 18.828125 12.890625 
Q 22.859375 7.515625 30.078125 7.515625 
Q 37.359375 7.515625 41.375 12.890625 
Q 45.40625 18.265625 45.40625 27.984375 
z
M 54.390625 6.78125 
Q 54.390625 -7.171875 48.1875 -13.984375 
Q 42 -20.796875 29.203125 -20.796875 
Q 24.46875 -20.796875 20.265625 -20.09375 
Q 16.0625 -19.390625 12.109375 -17.921875 
L 12.109375 -9.1875 
Q 16.0625 -11.328125 19.921875 -12.34375 
Q 23.78125 -13.375 27.78125 -13.375 
Q 36.625 -13.375 41.015625 -8.765625 
Q 45.40625 -4.15625 45.40625 5.171875 
L 45.40625 9.625 
Q 42.625 4.78125 38.28125 2.390625 
Q 33.9375 0 27.875 0 
Q 17.828125 0 11.671875 7.65625 
Q 5.515625 15.328125 5.515625 27.984375 
Q 5.515625 40.671875 11.671875 48.328125 
Q 17.828125 56 27.875 56 
Q 33.9375 56 38.28125 53.609375 
Q 42.625 51.21875 45.40625 46.390625 
L 45.40625 54.6875 
L 54.390625 54.6875 
z
" id="DejaVuSans-103"/>
      </defs>
      <use xlink:href="#DejaVuSans-86"/>
      <use x="60.658203" xlink:href="#DejaVuSans-111"/>
      <use x="121.839844" xlink:href="#DejaVuSans-108"/>
      <use x="149.623047" xlink:href="#DejaVuSans-116"/>
      <use x="188.832031" xlink:href="#DejaVuSans-97"/>
      <use x="250.111328" xlink:href="#DejaVuSans-103"/>
      <use x="313.587891" xlink:href="#DejaVuSans-101"/>
      <use x="375.111328" xlink:href="#DejaVuSans-32"/>
      <use x="406.898438" xlink:href="#DejaVuSans-91"/>
      <use x="445.912109" xlink:href="#DejaVuSans-86"/>
      <use x="514.320312" xlink:href="#DejaVuSans-93"/>
     </g>
    </g>
   </g>
   <g id="line2d_13">
    <path clip-path="url(#p022fc7b12d)" d="M 184.581818 239.381945 
L 309.345942 239.49296 
L 318.437702 239.574255 
L 319.795214 239.317219 
L 320.858985 238.895771 
L 321.796741 238.28471 
L 322.68091 237.437003 
L 323.556148 236.280604 
L 324.46711 234.6914 
L 325.431658 232.537985 
L 326.467654 229.654169 
L 327.601891 225.805982 
L 328.861163 220.7116 
L 330.307985 213.884494 
L 332.031668 204.616979 
L 334.246556 191.406124 
L 337.890405 168.106551 
L 343.488357 132.535904 
L 346.533828 114.612717 
L 348.927336 101.795065 
L 350.990398 91.918395 
L 352.865908 83.99666 
L 354.616384 77.538654 
L 356.286482 72.200838 
L 357.920855 67.712201 
L 359.48378 64.043243 
L 361.082429 60.855726 
L 362.734665 58.08874 
L 364.342245 55.840615 
L 366.003411 53.909346 
L 367.709232 52.275008 
L 369.423985 50.929017 
L 371.308426 49.731248 
L 373.157143 48.786348 
L 375.488134 47.85133 
L 378.113849 47.063239 
L 381.078941 46.424504 
L 384.384662 45.937232 
L 389.645022 45.476365 
L 397.20958 45.175708 
L 411.936801 45.019709 
L 420.564149 44.908745 
L 428.271603 44.657819 
L 430.647249 44.681956 
L 432.08514 44.897081 
L 433.112206 45.25314 
L 434.032099 45.790629 
L 434.925199 46.574185 
L 435.764713 47.598946 
L 436.63102 48.99791 
L 437.568775 50.947322 
L 438.586909 53.611281 
L 439.676492 57.111118 
L 440.873246 61.72368 
L 442.221827 67.852 
L 443.722235 75.752351 
L 445.428056 85.973222 
L 447.428601 99.371599 
L 449.911866 117.597436 
L 453.69861 147.255131 
L 458.146249 181.701667 
L 460.20931 195.969844 
L 461.843683 205.798646 
L 463.281575 213.144288 
L 464.603363 218.782971 
L 465.852006 223.17464 
L 467.057691 226.633332 
L 468.236584 229.364576 
L 469.406545 231.533158 
L 470.585437 233.263552 
L 471.791122 234.648314 
L 473.059324 235.769804 
L 474.416836 236.674091 
L 475.917245 237.404924 
L 477.640928 237.992864 
L 479.71292 238.457468 
L 482.365428 238.813241 
L 486.080724 239.070572 
L 492.073426 239.237637 
L 506.013648 239.347399 
L 535.084057 239.564154 
L 540.799898 239.59892 
L 542.237789 239.367973 
L 543.336302 238.972386 
L 544.291919 238.390624 
L 545.176088 237.588383 
L 546.051327 236.485211 
L 546.953358 234.974352 
L 547.900044 232.936463 
L 548.918178 230.19288 
L 550.025622 226.540386 
L 551.2581 221.670722 
L 552.660268 215.176689 
L 554.312503 206.415917 
L 556.402357 194.054321 
L 559.54607 173.962757 
L 566.297907 130.618177 
L 569.218344 113.420779 
L 571.542012 101.00652 
L 573.569349 91.341104 
L 575.418067 83.573424 
L 577.159612 77.187763 
L 578.820778 71.916056 
L 580.437289 67.508091 
L 582.009146 63.846423 
L 583.607795 60.687093 
L 585.17072 58.081937 
L 586.671128 55.971181 
L 588.314433 54.035376 
L 589.993461 52.401038 
L 591.672489 51.057152 
L 593.512275 49.859059 
L 595.307407 48.913998 
L 597.200779 48.109545 
L 600.103354 47.174203 
L 602.952344 46.5136 
L 606.381848 45.942092 
L 612.669273 45.255732 
L 616.697155 45.001728 
L 618.465493 45.047896 
L 619.814074 45.305301 
L 620.841139 45.736362 
L 621.73424 46.348368 
L 622.609478 47.221181 
L 623.502578 48.445355 
L 624.41354 50.089736 
L 625.369157 52.282136 
L 626.423015 55.279151 
L 627.584046 59.285699 
L 628.887972 64.636458 
L 630.361587 71.688943 
L 632.067408 81.02307 
L 634.085814 93.380389 
L 636.729391 111.054448 
L 646.073094 174.789743 
L 648.118293 186.534359 
L 649.913424 195.591301 
L 651.556729 202.778872 
L 653.110723 208.610844 
L 654.611488 213.403686 
L 656.076173 217.356113 
L 657.496202 220.571623 
L 658.889438 223.197711 
L 660.264812 225.33094 
L 661.613393 227.025252 
L 662.935182 228.338131 
L 664.203384 229.293206 
L 665.400138 229.924213 
L 666.507582 230.264748 
L 667.534647 230.3536 
L 668.499195 230.215666 
L 669.419089 229.859387 
L 670.330051 229.26303 
L 671.241013 228.39483 
L 672.178768 227.184503 
L 673.152247 225.552051 
L 674.170381 223.395691 
L 675.251032 220.56584 
L 676.412063 216.874948 
L 677.680265 212.069034 
L 679.100294 205.776664 
L 680.752529 197.393965 
L 682.797729 185.795643 
L 685.762821 167.552554 
L 693.130897 121.803818 
L 695.783405 106.928544 
L 697.962569 95.927309 
L 699.909527 87.211036 
L 701.704658 80.164577 
L 703.401549 74.375581 
L 705.009129 69.639744 
L 706.634571 65.537944 
L 708.215358 62.147451 
L 709.840801 59.205027 
L 711.43945 56.778549 
L 712.975582 54.822333 
L 714.520645 53.171958 
L 716.190743 51.690865 
L 718.048391 50.349409 
L 719.897108 49.273782 
L 722.254893 48.200585 
L 724.514436 47.418325 
L 726.96153 46.779591 
L 729.561613 46.280493 
L 733.116151 45.81266 
L 737.215481 45.477985 
L 744.815763 45.175384 
L 760.7576 44.997354 
L 766.080477 44.88639 
L 776.243957 44.811712 
L 777.378194 45.129864 
L 778.315949 45.604663 
L 779.209049 46.301714 
L 780.093218 47.286464 
L 780.986319 48.634399 
L 781.933005 50.501844 
L 782.897553 52.905319 
L 783.960342 56.160711 
L 785.121372 60.445238 
L 786.407436 66.054536 
L 787.845328 73.339642 
L 789.497563 82.909127 
L 791.408797 95.349661 
L 793.730857 112.01012 
L 796.946018 136.840453 
L 803.02803 184.023127 
L 805.010712 197.499406 
L 806.609361 206.915014 
L 808.029391 214.002117 
L 809.342248 219.462188 
L 810.583657 223.711511 
L 811.789342 227.071644 
L 812.968234 229.719873 
L 814.138196 231.819086 
L 815.317088 233.491704 
L 816.531704 234.837146 
L 817.808837 235.922919 
L 819.184211 236.800052 
L 820.711413 237.507826 
L 822.479751 238.076516 
L 824.623191 238.523549 
L 827.400733 238.863048 
L 831.357166 239.1049 
L 837.975038 239.259063 
L 854.274116 239.359508 
L 908.36026 239.381918 
L 996.218182 239.381946 
L 996.218182 239.381946 
" style="fill:none;stroke:#ff0000;stroke-linecap:square;stroke-width:1.5;"/>
   </g>
   <g id="line2d_14">
    <path clip-path="url(#p022fc7b12d)" d="M 184.581818 239.381959 
L 290.715873 239.271942 
L 298.664465 239.036258 
L 303.576515 238.681287 
L 307.148916 238.211982 
L 310.006836 237.620717 
L 312.418207 236.897714 
L 314.472337 236.055961 
L 316.347847 235.046136 
L 318.044738 233.878197 
L 319.652318 232.49328 
L 321.126915 230.932105 
L 322.555876 229.100911 
L 323.984836 226.899513 
L 325.413796 224.265449 
L 326.842756 221.131309 
L 328.271717 217.426941 
L 329.700677 213.082952 
L 331.129637 208.035711 
L 332.647907 201.845371 
L 334.255487 194.322834 
L 335.952378 185.306422 
L 337.917198 173.589605 
L 340.30892 157.858152 
L 348.168201 104.926849 
L 350.133022 93.85675 
L 351.919222 85.047441 
L 353.526802 78.174572 
L 355.134382 72.272512 
L 356.652653 67.530444 
L 358.170923 63.521259 
L 359.599883 60.343372 
L 361.028843 57.671204 
L 362.457804 55.437023 
L 363.976074 53.472835 
L 365.494344 51.864199 
L 367.101924 50.482415 
L 368.798814 49.31716 
L 370.674325 48.309688 
L 372.728455 47.469926 
L 375.050515 46.771233 
L 377.729816 46.204565 
L 380.944976 45.756519 
L 385.117004 45.41197 
L 390.922155 45.175545 
L 400.031777 45.05153 
L 412.088628 45.101994 
L 418.429639 45.32224 
L 422.35928 45.667331 
L 425.2172 46.130978 
L 427.449951 46.704716 
L 429.325461 47.402499 
L 431.022351 48.272065 
L 432.540621 49.307158 
L 433.880272 50.481018 
L 435.219922 51.962549 
L 436.470262 53.687582 
L 437.720602 55.814885 
L 438.881632 58.220669 
L 440.042663 61.114265 
L 441.293003 64.86404 
L 442.543343 69.366702 
L 443.793683 74.715819 
L 445.133333 81.47542 
L 446.562294 89.924002 
L 448.045286 100.043797 
L 449.831487 113.893788 
L 452.153547 133.863231 
L 456.797668 174.187725 
L 458.583868 187.599935 
L 460.191448 198.052072 
L 461.620408 205.97468 
L 462.960059 212.262158 
L 464.299709 217.526932 
L 465.639359 221.876604 
L 466.852278 225.125159 
L 468.102619 227.885091 
L 469.352959 230.138135 
L 470.603299 231.967526 
L 471.942949 233.540403 
L 473.371909 234.861 
L 474.89018 235.944523 
L 476.49776 236.813878 
L 478.28396 237.526884 
L 480.33809 238.107138 
L 482.838771 238.575129 
L 486.053931 238.933644 
L 490.430122 239.178653 
L 497.306993 239.315483 
L 509.764668 239.313737 
L 519.49946 239.123732 
L 525.03668 238.807125 
L 528.966321 238.366974 
L 532.002861 237.808464 
L 534.503542 237.126739 
L 536.646982 236.315286 
L 538.522492 235.373939 
L 540.219383 234.282068 
L 541.826963 232.983685 
L 543.345233 231.467889 
L 544.774193 229.731422 
L 546.203154 227.637941 
L 547.632114 225.125367 
L 549.061074 222.126027 
L 550.490034 218.568588 
L 551.918994 214.381266 
L 553.347955 209.496566 
L 554.866225 203.479158 
L 556.473805 196.130484 
L 558.170695 187.273851 
L 560.046206 176.24618 
L 562.278956 161.710446 
L 566.029977 135.491108 
L 569.245137 113.634153 
L 571.363392 100.651492 
L 573.238902 90.47823 
L 574.935793 82.452215 
L 576.543373 75.88825 
L 578.061643 70.57688 
L 579.579913 66.062034 
L 581.008873 62.468965 
L 582.437834 59.439238 
L 583.866794 56.901539 
L 585.295754 54.788093 
L 586.814024 52.937936 
L 588.332295 51.430101 
L 589.939875 50.142736 
L 591.636765 49.066198 
L 593.512275 48.147598 
L 595.566406 47.39958 
L 597.799156 46.824637 
L 600.299836 46.40934 
L 603.068447 46.174678 
L 606.015677 46.152046 
L 608.784288 46.349331 
L 611.284968 46.745359 
L 613.428408 47.298202 
L 615.393229 48.033578 
L 617.143705 48.929047 
L 618.751285 50.00699 
L 620.269555 51.307085 
L 621.698516 52.839227 
L 623.038166 54.604714 
L 624.377816 56.750303 
L 625.717466 59.343923 
L 627.057116 62.459889 
L 628.396767 66.176574 
L 629.736417 70.572525 
L 631.076067 75.720719 
L 632.505027 82.108117 
L 634.023297 89.954555 
L 635.630878 99.448194 
L 637.506388 111.937158 
L 639.828448 129.01456 
L 646.055232 175.652748 
L 647.930742 187.611009 
L 649.627632 197.024864 
L 651.145903 204.248829 
L 652.574863 210.026881 
L 653.968456 214.758008 
L 655.308106 218.528169 
L 656.558447 221.420105 
L 657.808787 223.764407 
L 658.969817 225.49749 
L 660.130847 226.842697 
L 661.202567 227.76896 
L 662.274288 228.414796 
L 663.346008 228.797511 
L 664.417728 228.92994 
L 665.489448 228.820503 
L 666.561168 228.473318 
L 667.632888 227.888379 
L 668.793919 226.981758 
L 669.954949 225.78163 
L 671.205289 224.144356 
L 672.455629 222.126837 
L 673.795279 219.512064 
L 675.134929 216.391966 
L 676.56389 212.463381 
L 677.99285 207.871554 
L 679.51112 202.225368 
L 681.1187 195.357451 
L 682.815591 187.118656 
L 684.691101 176.900586 
L 686.923851 163.452146 
L 690.228322 141.991153 
L 694.425892 114.987911 
L 696.747953 101.537579 
L 698.712773 91.43702 
L 700.498973 83.390726 
L 702.195864 76.76347 
L 703.803444 71.364371 
L 705.321714 66.995998 
L 706.839984 63.272379 
L 708.358254 60.123503 
L 709.876525 57.478526 
L 711.394795 55.269344 
L 712.913065 53.432857 
L 714.520645 51.831459 
L 716.217536 50.459808 
L 718.003736 49.305225 
L 719.968556 48.309777 
L 722.111997 47.480516 
L 724.523367 46.790344 
L 727.381287 46.214279 
L 730.838746 45.757456 
L 735.214937 45.415772 
L 741.288018 45.18241 
L 750.308329 45.077274 
L 759.32864 45.173814 
L 764.508621 45.431113 
L 767.991712 45.815142 
L 770.581702 46.311161 
L 772.725142 46.941494 
L 774.511343 47.689573 
L 776.118923 48.601583 
L 777.547883 49.662322 
L 778.887533 50.929771 
L 780.137873 52.409432 
L 781.388214 54.239869 
L 782.638554 56.49434 
L 783.799584 59.040144 
L 784.960614 62.096771 
L 786.210954 66.049038 
L 787.461294 70.781721 
L 788.711635 76.385476 
L 790.051285 83.437975 
L 791.480245 92.207455 
L 793.087825 103.581375 
L 794.963336 118.610977 
L 797.731946 142.927524 
L 801.036417 171.574621 
L 802.911927 185.942739 
L 804.519507 196.631597 
L 806.037777 205.232619 
L 807.466738 212.026365 
L 808.806388 217.33212 
L 810.146038 221.717625 
L 811.396378 225.08568 
L 812.646718 227.853441 
L 813.897059 230.112941 
L 815.147399 231.947602 
L 816.487049 233.525015 
L 817.916009 234.849417 
L 819.434279 235.936056 
L 821.04186 236.807915 
L 822.82806 237.522998 
L 824.88219 238.105005 
L 827.382871 238.574569 
L 830.508721 238.927295 
L 834.884912 239.178725 
L 841.761783 239.32469 
L 857.480345 239.378797 
L 996.089486 239.381959 
L 996.089486 239.381959 
" style="fill:none;stroke:#ff0000;stroke-dasharray:5.55,2.4;stroke-dashoffset:0;stroke-width:1.5;"/>
   </g>
   <g id="line2d_15">
    <path clip-path="url(#p022fc7b12d)" d="M 184.581818 239.381973 
L 290.805183 239.27137 
L 298.664465 239.036474 
L 303.308585 238.689293 
L 306.702366 238.223515 
L 309.560286 237.614048 
L 311.971657 236.879247 
L 314.115097 235.993437 
L 316.079917 234.937797 
L 318.312668 233.462758 
L 321.394845 231.417345 
L 322.555876 230.907681 
L 323.538286 230.705149 
L 324.431386 230.746248 
L 325.324486 231.023796 
L 326.217586 231.545046 
L 327.199996 232.391707 
L 328.361027 233.721882 
L 329.789987 235.73106 
L 334.434107 242.566962 
L 335.595138 243.76366 
L 336.577548 244.494183 
L 337.559958 244.945158 
L 338.43341 245.108372 
L 339.32651 245.053393 
L 340.30892 244.755569 
L 341.38064 244.189086 
L 342.720291 243.216196 
L 344.953041 241.26671 
L 347.721651 238.924806 
L 349.507852 237.711606 
L 351.115432 236.882704 
L 352.723012 236.305021 
L 354.419902 235.94248 
L 356.295413 235.784869 
L 358.528163 235.840008 
L 361.386083 236.146944 
L 366.833994 237.001174 
L 373.442935 237.954507 
L 379.158776 238.550056 
L 385.117004 238.940284 
L 392.529735 239.193749 
L 406.194167 239.377363 
L 415.928959 239.592185 
L 420.12653 239.903371 
L 423.34169 240.356702 
L 425.93168 240.937598 
L 428.164431 241.664663 
L 430.397181 242.63603 
L 433.790962 244.150004 
L 435.041302 244.428575 
L 436.023712 244.432333 
L 437.006122 244.206314 
L 437.988532 243.737418 
L 439.060252 242.96505 
L 440.399903 241.692086 
L 442.811273 238.995289 
L 444.508163 237.257208 
L 445.669193 236.360423 
L 446.651604 235.869441 
L 447.544704 235.671167 
L 448.402526 235.715927 
L 449.295627 236.005121 
L 450.278037 236.582947 
L 451.439067 237.544744 
L 453.850437 239.945901 
L 455.279397 241.173112 
L 456.351118 241.8068 
L 457.244218 242.096534 
L 458.137318 242.160639 
L 459.119728 241.991546 
L 460.280758 241.537147 
L 462.066958 240.549845 
L 464.567639 239.203988 
L 466.227108 238.579957 
L 467.834688 238.221527 
L 469.620889 238.065963 
L 471.853639 238.117413 
L 475.60466 238.471787 
L 481.945671 239.044259 
L 487.393581 239.288237 
L 495.252863 239.395807 
L 509.853978 239.336141 
L 519.76739 239.121918 
L 524.94737 238.807177 
L 528.609081 238.370955 
L 531.556311 237.806256 
L 534.056992 237.110315 
L 536.200432 236.293976 
L 538.165252 235.31356 
L 540.219383 234.029309 
L 544.506263 231.24252 
L 545.577984 230.860306 
L 546.471084 230.750593 
L 547.364184 230.864399 
L 548.257284 231.218921 
L 549.150384 231.817876 
L 550.132794 232.746109 
L 551.293824 234.159762 
L 552.901405 236.516554 
L 556.473805 241.899485 
L 557.724145 243.347302 
L 558.795866 244.271907 
L 559.778276 244.830839 
L 560.671376 245.091005 
L 561.564476 245.119948 
L 562.457576 244.933347 
L 563.439986 244.508116 
L 564.690326 243.699609 
L 566.387217 242.294694 
L 570.763407 238.54324 
L 572.435112 237.451186 
L 574.042692 236.661337 
L 575.650273 236.123809 
L 577.347163 235.801409 
L 579.222673 235.682853 
L 581.455424 235.776901 
L 584.491964 236.151776 
L 590.743665 237.214537 
L 598.692256 238.443724 
L 607.176707 239.755117 
L 610.391868 240.493653 
L 612.892548 241.282947 
L 615.035989 242.182854 
L 617.143705 243.316081 
L 621.698516 245.902301 
L 622.770236 246.189965 
L 623.752646 246.224337 
L 624.645746 246.035515 
L 625.538846 245.62816 
L 626.521256 244.938129 
L 627.682287 243.838594 
L 629.200557 242.062955 
L 633.398127 236.938492 
L 634.648468 235.860134 
L 635.720188 235.233259 
L 636.702598 234.926166 
L 637.595698 234.873229 
L 638.578108 235.052517 
L 639.649828 235.49968 
L 640.900169 236.282317 
L 642.750761 237.742403 
L 645.965922 240.29172 
L 647.662812 241.336802 
L 649.181082 242.019593 
L 650.699353 242.462202 
L 652.306933 242.689864 
L 653.968456 242.693307 
L 655.754657 242.463134 
L 657.719477 241.969727 
L 659.862917 241.194995 
L 662.184977 240.119508 
L 664.864278 238.620855 
L 670.401499 235.415787 
L 671.830459 234.893034 
L 673.080799 234.663323 
L 674.241829 234.685874 
L 675.313549 234.93321 
L 676.38527 235.404008 
L 677.63561 236.214141 
L 679.15388 237.487003 
L 683.530071 241.334811 
L 684.780411 242.05693 
L 685.941441 242.474297 
L 687.013161 242.634082 
L 688.174191 242.576237 
L 689.424532 242.284192 
L 691.032112 241.656783 
L 698.176913 238.532472 
L 700.320353 238.013757 
L 702.553104 237.707811 
L 705.143094 237.580707 
L 708.536875 237.645382 
L 713.984785 238.000316 
L 726.666807 238.873419 
L 734.321836 239.15622 
L 746.021448 239.335761 
L 760.22174 239.580194 
L 764.508621 239.884078 
L 767.813092 240.33918 
L 770.403082 240.910912 
L 772.635832 241.627222 
L 774.868583 242.588379 
L 778.440983 244.169522 
L 779.602013 244.418474 
L 780.584423 244.420506 
L 781.566834 244.192786 
L 782.549244 243.722052 
L 783.620964 242.947542 
L 784.960614 241.671578 
L 787.371984 238.969302 
L 789.068875 237.227331 
L 790.229905 236.328223 
L 791.212315 235.835604 
L 792.105415 235.636193 
L 792.909205 235.671028 
L 793.802305 235.945399 
L 794.784716 236.509831 
L 795.945746 237.461682 
L 797.999876 239.514121 
L 799.607456 240.979441 
L 800.679177 241.680459 
L 801.661587 242.056042 
L 802.554687 242.159897 
L 803.447787 242.050328 
L 804.519507 241.686505 
L 806.037777 240.897643 
L 809.342248 239.10997 
L 810.949828 238.531086 
L 812.557408 238.193076 
L 814.343609 238.05482 
L 816.576359 238.119411 
L 820.506 238.500585 
L 826.57908 239.045412 
L 832.026991 239.289932 
L 840.064892 239.402722 
L 862.749636 239.389336 
L 996.089486 239.381972 
L 996.089486 239.381972 
" style="fill:none;stroke:#ff0000;stroke-dasharray:9.6,2.4,1.5,2.4;stroke-dashoffset:0;stroke-width:1.5;"/>
   </g>
   <g id="line2d_16">
    <path clip-path="url(#p022fc7b12d)" d="M 184.581818 44.991523 
L 327.664408 44.88072 
L 336.765099 44.661221 
L 338.210135 44.824509 
L 339.371165 45.16777 
L 340.371437 45.705422 
L 341.300261 46.479743 
L 342.211223 47.561526 
L 343.086462 48.954658 
L 344.033148 50.898886 
L 345.069144 53.584714 
L 346.167657 57.08925 
L 347.409066 61.859591 
L 348.757647 67.982404 
L 350.275918 75.971365 
L 351.99067 86.24349 
L 354.000145 99.699034 
L 356.491895 117.980806 
L 360.332225 148.039124 
L 364.690554 181.739703 
L 366.753615 195.995698 
L 368.387988 205.818344 
L 369.82588 213.160973 
L 371.147668 218.798344 
L 372.398008 223.194977 
L 373.603693 226.652551 
L 374.782585 229.382988 
L 375.952547 231.550895 
L 377.131439 233.28055 
L 378.337124 234.664387 
L 379.605326 235.784696 
L 380.962838 236.687536 
L 382.463247 237.416667 
L 384.18818 238.003031 
L 386.269103 238.467008 
L 388.930542 238.820789 
L 392.6637 239.076012 
L 398.709988 239.241393 
L 412.856694 239.349533 
L 445.088678 239.57243 
L 450.48345 239.600421 
L 451.930272 239.3698 
L 453.028785 238.975591 
L 453.984402 238.395496 
L 454.868571 237.59519 
L 455.74381 236.49425 
L 456.645841 234.985923 
L 457.592527 232.950827 
L 458.610661 230.210281 
L 459.718105 226.561004 
L 460.950583 221.694697 
L 462.352751 215.204114 
L 464.004986 206.446857 
L 466.093143 194.099533 
L 469.254718 173.896227 
L 476.015486 130.506889 
L 478.926992 113.370562 
L 481.249052 100.97012 
L 483.27639 91.309256 
L 485.125107 83.545723 
L 486.857721 77.194242 
L 488.518888 71.921726 
L 490.135399 67.512951 
L 491.778703 63.697876 
L 493.305904 60.690818 
L 494.86883 58.085339 
L 496.47641 55.836889 
L 498.01147 54.03975 
L 499.690499 52.405088 
L 501.557078 50.926911 
L 503.441519 49.729466 
L 505.290236 48.78489 
L 507.612297 47.853436 
L 510.246942 47.062591 
L 513.212035 46.42418 
L 516.516505 45.937232 
L 521.776865 45.476365 
L 529.332492 45.176194 
L 545.533329 44.993467 
L 550.659723 44.882664 
L 559.483553 44.673046 
L 561.100064 44.901617 
L 562.198577 45.2938 
L 563.100608 45.839875 
L 563.984777 46.634932 
L 564.81536 47.667145 
L 565.717392 49.152774 
L 566.646216 51.122597 
L 567.655419 53.802269 
L 568.789656 57.501519 
L 570.022134 62.338601 
L 571.372323 68.577562 
L 572.890593 76.685425 
L 574.667862 87.482227 
L 576.713062 101.35558 
L 579.294121 120.489447 
L 583.607795 154.435946 
L 587.287367 182.691325 
L 589.314705 196.611398 
L 590.940147 206.300352 
L 592.369107 213.526654 
L 593.681964 219.068304 
L 594.932305 223.416834 
L 596.13799 226.832943 
L 597.316882 229.528259 
L 598.486843 231.666726 
L 599.665735 233.371875 
L 600.880351 234.744304 
L 602.148554 235.845645 
L 603.514997 236.737883 
L 605.024336 237.456368 
L 606.765881 238.034537 
L 608.873598 238.491312 
L 611.579691 238.83846 
L 615.40216 239.087874 
L 622.109342 239.267303 
L 638.783521 239.484535 
L 640.176757 239.194004 
L 641.302064 238.735736 
L 642.302336 238.088972 
L 643.259828 237.199484 
L 644.215446 235.996995 
L 645.206787 234.375407 
L 646.251714 232.222669 
L 647.37702 229.376502 
L 648.609498 225.63025 
L 649.975941 220.737033 
L 651.529936 214.306532 
L 653.338017 205.829716 
L 655.317037 195.584579 
L 658.174958 179.593163 
L 669.276193 116.286807 
L 671.607184 104.83329 
L 673.580935 96.207134 
L 675.340342 89.477466 
L 676.965785 84.11101 
L 678.492986 79.815792 
L 679.930877 76.413279 
L 681.350906 73.633496 
L 682.663764 71.548172 
L 683.887311 70.007628 
L 684.976893 68.965209 
L 686.003958 68.287111 
L 686.870265 67.971226 
L 687.656193 67.913071 
L 688.388535 68.076521 
L 689.129809 68.476641 
L 689.880013 69.140971 
L 690.683803 70.161358 
L 691.576903 71.688619 
L 692.541451 73.819624 
L 693.60424 76.757674 
L 694.729546 80.542051 
L 695.988818 85.58023 
L 697.399916 92.183883 
L 698.989634 100.73277 
L 700.82942 111.896596 
L 703.062171 126.893089 
L 706.116573 149.061893 
L 711.627001 189.209091 
L 713.529304 201.272475 
L 715.083299 209.766949 
L 716.476535 216.197352 
L 717.77153 221.165777 
L 719.012939 225.07486 
L 720.209693 228.135199 
L 721.388585 230.560915 
L 722.567478 232.492955 
L 723.764232 234.037335 
L 725.005641 235.280826 
L 726.318498 236.28257 
L 727.747458 237.092239 
L 729.3562 237.745059 
L 731.249572 238.26713 
L 733.598425 238.674094 
L 736.724276 238.976198 
L 741.368397 239.181645 
L 750.219019 239.310477 
L 773.055589 239.375576 
L 786.44316 239.496281 
L 795.302714 239.5763 
L 796.669157 239.321617 
L 797.740877 238.900364 
L 798.678632 238.292378 
L 799.562801 237.448445 
L 800.438039 236.296189 
L 801.340071 234.728294 
L 802.295688 232.603388 
L 803.322753 229.754332 
L 804.448059 225.94477 
L 805.698399 220.888544 
L 807.127359 214.137575 
L 808.82425 204.990776 
L 810.994483 191.992373 
L 814.450781 169.746688 
L 820.300586 132.197049 
L 823.27461 114.567456 
L 825.632394 101.865337 
L 827.677594 92.022329 
L 829.535242 84.135763 
L 831.285718 77.645747 
L 832.955815 72.28475 
L 834.572327 67.823813 
L 836.126321 64.154532 
L 837.698177 60.996821 
L 839.24324 58.37093 
L 840.824028 56.110332 
L 842.440539 54.180359 
L 844.092774 52.544887 
L 845.923629 51.064928 
L 848.013484 49.722176 
L 850.130131 48.658536 
L 852.568294 47.718173 
L 855.336905 46.931053 
L 858.498479 46.299608 
L 861.195642 45.922977 
L 866.304174 45.478309 
L 873.913388 45.175222 
L 888.640609 45.019223 
L 996.218182 44.991523 
L 996.218182 44.991523 
" style="fill:none;stroke:#008000;stroke-linecap:square;stroke-width:1.5;"/>
   </g>
   <g id="line2d_17">
    <path clip-path="url(#p022fc7b12d)" d="M 184.581818 44.991523 
L 319.027148 45.102073 
L 325.235176 45.337691 
L 329.075507 45.69214 
L 331.933427 46.174168 
L 334.166177 46.76978 
L 336.041688 47.493503 
L 337.649268 48.340173 
L 339.14789 49.379823 
L 340.48754 50.571752 
L 341.82719 52.075355 
L 343.077531 53.825197 
L 344.327871 55.981921 
L 345.578211 58.626512 
L 346.739241 61.597602 
L 347.989581 65.442796 
L 349.239922 70.052847 
L 350.490262 75.519691 
L 351.829912 82.413228 
L 353.258872 91.006596 
L 354.777142 101.527626 
L 356.563343 115.547294 
L 358.974713 136.425036 
L 363.172284 172.87972 
L 365.047794 187.069199 
L 366.655374 197.587507 
L 368.084334 205.572262 
L 369.513295 212.30225 
L 370.852945 217.555554 
L 372.192595 221.896247 
L 373.442935 225.229207 
L 374.693275 227.96785 
L 375.943616 230.203524 
L 377.283266 232.134474 
L 378.622916 233.671697 
L 380.051876 234.962224 
L 381.570146 236.021055 
L 383.177727 236.87065 
L 385.027694 237.588518 
L 387.171135 238.169244 
L 389.761125 238.626816 
L 393.065595 238.969287 
L 397.620406 239.201233 
L 405.033137 239.328621 
L 419.054809 239.318793 
L 428.968221 239.129919 
L 434.594752 238.813645 
L 438.524392 238.379224 
L 441.560933 237.828457 
L 444.061613 237.156584 
L 446.205054 236.357214 
L 448.134596 235.399729 
L 449.831487 234.316697 
L 451.439067 233.029198 
L 452.957337 231.526475 
L 454.386297 229.805319 
L 455.815258 227.730606 
L 457.244218 225.240812 
L 458.673178 222.268795 
L 460.102138 218.743673 
L 461.531098 214.593948 
L 462.960059 209.752126 
L 464.478329 203.785607 
L 466.048488 196.676789 
L 467.745378 187.909272 
L 469.620889 176.976061 
L 471.853639 162.534692 
L 475.33673 138.275995 
L 478.81982 114.495694 
L 481.05257 100.779323 
L 482.928081 90.604868 
L 484.624971 82.572949 
L 486.232551 76.000086 
L 487.750821 70.678164 
L 489.269092 66.151337 
L 490.698052 62.546137 
L 492.127012 59.503733 
L 493.555972 56.952947 
L 494.984933 54.825998 
L 496.503203 52.960881 
L 498.065056 51.397836 
L 499.672637 50.099793 
L 501.369527 49.007782 
L 503.245037 48.065915 
L 505.299167 47.282792 
L 507.710538 46.61197 
L 510.479148 46.07899 
L 513.872929 45.657941 
L 518.338429 45.341835 
L 524.67944 45.135534 
L 534.682162 45.055111 
L 544.059713 45.174502 
L 549.150384 45.441419 
L 552.544165 45.826123 
L 555.134155 46.331396 
L 557.277595 46.973162 
L 559.063796 47.734683 
L 560.671376 48.66301 
L 562.100336 49.742659 
L 563.439986 51.032598 
L 564.690326 52.538335 
L 565.940667 54.400708 
L 567.191007 56.693951 
L 568.352037 59.2827 
L 569.602377 62.652299 
L 570.852717 66.720562 
L 572.077872 71.478531 
L 573.328212 77.209353 
L 574.667862 84.407883 
L 576.096823 93.336993 
L 577.704403 104.881169 
L 579.579913 120.071241 
L 582.527144 146.089179 
L 585.563684 172.283133 
L 587.439194 186.57134 
L 589.046775 197.176718 
L 590.475735 205.234006 
L 591.904695 212.028279 
L 593.244345 217.33282 
L 594.583996 221.715676 
L 595.834336 225.080132 
L 597.084676 227.843324 
L 598.335016 230.097348 
L 599.585356 231.925629 
L 600.925006 233.495151 
L 602.264657 234.737006 
L 603.693617 235.772589 
L 605.301197 236.657662 
L 607.087397 237.375797 
L 609.141528 237.947526 
L 611.552898 238.373215 
L 614.410819 238.643791 
L 617.858185 238.741538 
L 621.698516 238.628734 
L 625.360226 238.307617 
L 628.575387 237.808372 
L 631.254687 237.177534 
L 633.576747 236.4141 
L 635.630878 235.516557 
L 637.506388 234.463217 
L 639.292588 233.200006 
L 640.900169 231.797324 
L 642.507749 230.090987 
L 644.001102 228.183528 
L 645.519372 225.871234 
L 647.037642 223.12361 
L 648.555912 219.877399 
L 650.074182 216.067998 
L 651.592453 211.633008 
L 653.110723 206.517104 
L 654.772246 200.088945 
L 656.469137 192.60298 
L 658.344647 183.266583 
L 660.398777 171.880252 
L 662.988768 156.197764 
L 670.401499 110.485956 
L 672.455629 99.61526 
L 674.241829 91.277524 
L 675.84941 84.744449 
L 677.36768 79.446606 
L 678.79664 75.236514 
L 680.13629 71.965138 
L 681.38663 69.492336 
L 682.547661 67.691167 
L 683.619381 66.448487 
L 684.512481 65.720965 
L 685.405581 65.275655 
L 686.209371 65.119551 
L 687.013161 65.199891 
L 687.816951 65.522664 
L 688.620742 66.095317 
L 689.513842 67.035459 
L 690.406942 68.308956 
L 691.389352 70.113317 
L 692.461072 72.588903 
L 693.622102 75.900494 
L 694.783132 79.899917 
L 696.033473 85.006654 
L 697.373123 91.416658 
L 698.891393 99.839572 
L 700.588283 110.606253 
L 702.642414 125.203382 
L 706.125504 151.937634 
L 709.072735 173.814433 
L 711.037555 186.821896 
L 712.734445 196.668496 
L 714.342025 204.715234 
L 715.860296 211.182446 
L 717.289256 216.325387 
L 718.718216 220.638056 
L 720.057866 224.012678 
L 721.397516 226.823961 
L 722.737167 229.15095 
L 724.166127 231.181614 
L 725.595087 232.823873 
L 727.113357 234.220144 
L 728.695306 235.366607 
L 730.392196 236.319553 
L 732.267706 237.115126 
L 734.411146 237.776616 
L 736.911827 238.309707 
L 740.037677 238.734705 
L 744.056628 239.042551 
L 749.861779 239.243264 
L 759.32864 239.322064 
L 770.760322 239.209604 
L 777.369263 238.942497 
L 781.745454 238.556153 
L 785.049924 238.052012 
L 787.729225 237.42643 
L 789.961975 236.688385 
L 791.926795 235.815762 
L 793.712995 234.785145 
L 795.320576 233.61281 
L 796.838846 232.242554 
L 798.357116 230.562045 
L 799.786076 228.641244 
L 801.215037 226.33154 
L 802.643997 223.567917 
L 804.072957 220.280695 
L 805.501917 216.398109 
L 806.930877 211.850286 
L 808.449148 206.219746 
L 809.967418 199.711464 
L 811.574998 191.83478 
L 813.361198 181.920505 
L 815.415329 169.168086 
L 818.094629 150.969368 
L 823.81047 111.729854 
L 825.95391 98.826316 
L 827.829421 88.892941 
L 829.526311 81.087545 
L 831.133891 74.723765 
L 832.652161 69.586749 
L 834.170432 65.228204 
L 835.599392 61.764272 
L 837.028352 58.846095 
L 838.457312 56.403013 
L 839.975582 54.253333 
L 841.493853 52.492008 
L 843.101433 50.97897 
L 844.709013 49.763358 
L 846.495213 48.694208 
L 848.460034 47.78859 
L 850.603474 47.048571 
L 853.104154 46.426983 
L 856.051385 45.929736 
L 859.713095 45.544001 
L 864.625146 45.262708 
L 872.037877 45.084063 
L 886.416789 45.003004 
L 960.365481 44.991523 
L 996.089486 44.991523 
L 996.089486 44.991523 
" style="fill:none;stroke:#008000;stroke-dasharray:5.55,2.4;stroke-dashoffset:0;stroke-width:1.5;"/>
   </g>
   <g id="line2d_18">
    <path clip-path="url(#p022fc7b12d)" d="M 184.581818 239.381959 
L 319.027148 239.492995 
L 324.431386 239.72174 
L 328.182407 240.101917 
L 331.129637 240.622477 
L 333.541007 241.271914 
L 335.684448 242.078157 
L 341.20202 244.329073 
L 342.27374 244.391222 
L 343.256151 244.219969 
L 344.238561 243.81045 
L 345.310281 243.100292 
L 346.560621 241.979828 
L 348.436131 239.941896 
L 350.847502 237.375291 
L 352.097842 236.382843 
L 353.080252 235.873642 
L 353.973352 235.655031 
L 354.777142 235.670537 
L 355.670242 235.922744 
L 356.652653 236.464308 
L 357.813683 237.394704 
L 359.689193 239.253463 
L 361.475393 240.916295 
L 362.547114 241.63917 
L 363.529524 242.038839 
L 364.422624 242.164882 
L 365.315724 242.074997 
L 366.387444 241.728524 
L 367.816404 241.000837 
L 371.478115 239.023828 
L 373.085695 238.468511 
L 374.693275 238.153306 
L 376.479476 238.035268 
L 378.801536 238.122732 
L 383.267037 238.574995 
L 388.868025 239.060124 
L 394.405246 239.297099 
L 402.532457 239.398666 
L 419.054809 239.335552 
L 429.236151 239.126064 
L 434.505442 238.813067 
L 438.167152 238.383653 
L 441.203693 237.806388 
L 443.704373 237.11192 
L 445.847813 236.297534 
L 447.866666 235.289006 
L 449.920797 233.999458 
L 454.207677 231.200731 
L 455.279397 230.815824 
L 456.172498 230.704077 
L 457.065598 230.816073 
L 457.958698 231.169036 
L 458.851798 231.766699 
L 459.834208 232.69383 
L 460.995238 234.106608 
L 462.602819 236.463005 
L 466.227108 241.917231 
L 467.477448 243.354084 
L 468.549169 244.26828 
L 469.531579 244.817919 
L 470.424679 245.070621 
L 471.317779 245.093653 
L 472.210879 244.903108 
L 473.282599 244.42748 
L 474.532939 243.603442 
L 476.31914 242.117275 
L 480.24878 238.764049 
L 482.034981 237.578962 
L 483.642561 236.776152 
L 485.250141 236.223059 
L 486.947031 235.883176 
L 488.822542 235.745704 
L 491.055292 235.81854 
L 494.002522 236.153336 
L 501.190907 237.301047 
L 507.085368 238.103092 
L 512.622589 238.638158 
L 518.874289 239.004788 
L 526.912191 239.23841 
L 547.542804 239.749794 
L 551.115204 240.147755 
L 553.973125 240.685291 
L 556.295185 241.34099 
L 558.438625 242.177164 
L 563.439986 244.303184 
L 564.511706 244.430242 
L 565.494117 244.32484 
L 566.476527 243.98021 
L 567.458937 243.39567 
L 568.619967 242.431022 
L 570.138237 240.849268 
L 573.596142 237.127217 
L 574.757173 236.251867 
L 575.739583 235.784709 
L 576.632683 235.611267 
L 577.436473 235.670526 
L 578.329573 235.97164 
L 579.311983 236.562926 
L 580.473013 237.53998 
L 584.849204 241.55397 
L 585.831614 242.00771 
L 586.724714 242.182803 
L 587.617814 242.136984 
L 588.600225 241.865868 
L 589.850565 241.281319 
L 594.673306 238.773348 
L 596.280886 238.321331 
L 597.977776 238.086187 
L 599.942596 238.046222 
L 602.800517 238.234097 
L 611.374278 238.91217 
L 615.929089 238.98517 
L 620.448175 238.837153 
L 624.288506 238.495888 
L 627.592977 237.980869 
L 630.450897 237.312009 
L 632.951577 236.496261 
L 635.184328 235.529613 
L 637.417078 234.314153 
L 641.882579 231.784029 
L 643.108001 231.386107 
L 644.179722 231.265958 
L 645.162132 231.377054 
L 646.144542 231.713066 
L 647.216262 232.333926 
L 648.377292 233.283641 
L 649.716942 234.678517 
L 651.592453 236.984777 
L 655.129486 241.381551 
L 656.558447 242.792588 
L 657.808787 243.729276 
L 658.880507 244.277886 
L 659.952227 244.579734 
L 661.023947 244.637407 
L 662.095667 244.466132 
L 663.256698 244.053495 
L 664.685658 243.288966 
L 666.650478 241.9514 
L 671.473219 238.57986 
L 673.705969 237.346377 
L 675.84941 236.418332 
L 677.90354 235.773058 
L 679.77905 235.412071 
L 681.47594 235.303758 
L 683.083521 235.425281 
L 684.691101 235.783471 
L 686.566611 236.454348 
L 690.585562 237.967989 
L 692.371762 238.335669 
L 694.515202 238.528076 
L 697.819673 238.818033 
L 699.427253 239.201904 
L 701.034833 239.816211 
L 703.267584 240.941118 
L 705.411024 241.956892 
L 706.661364 242.312903 
L 707.733084 242.388216 
L 708.715495 242.235159 
L 709.697905 241.860764 
L 710.858935 241.157484 
L 712.377205 239.934099 
L 715.592366 237.251688 
L 716.932016 236.449628 
L 718.182356 235.946111 
L 719.432696 235.672156 
L 720.772346 235.598768 
L 722.379927 235.74047 
L 724.523367 236.171649 
L 733.696666 238.275707 
L 737.358377 238.749513 
L 741.734568 239.080258 
L 747.539718 239.28122 
L 756.82796 239.352611 
L 769.867222 239.238089 
L 776.744093 238.981905 
L 781.030974 238.612539 
L 784.335444 238.109639 
L 787.104054 237.465596 
L 789.426115 236.702534 
L 791.480245 235.797637 
L 793.445065 234.684938 
L 795.945746 232.977581 
L 798.267806 231.461477 
L 799.518146 230.912787 
L 800.500556 230.720412 
L 801.393657 230.772155 
L 802.286757 231.061529 
L 803.179857 231.595817 
L 804.162267 232.458014 
L 805.323297 233.807082 
L 806.752257 235.836934 
L 811.217758 242.458393 
L 812.378788 243.685371 
L 813.450508 244.49751 
L 814.343609 244.919262 
L 815.236709 245.106072 
L 816.129809 245.066664 
L 817.112219 244.784438 
L 818.183939 244.232687 
L 819.523589 243.273768 
L 821.66703 241.413883 
L 824.61426 238.908943 
L 826.40046 237.690315 
L 828.008041 236.855436 
L 829.615621 236.272189 
L 831.312511 235.905114 
L 833.188021 235.744383 
L 835.331462 235.792693 
L 838.189382 236.09636 
L 843.726603 236.975268 
L 850.246234 237.931293 
L 855.783455 238.52215 
L 861.588606 238.916622 
L 868.644097 239.172291 
L 878.736128 239.318152 
L 900.974322 239.377515 
L 972.511643 239.381959 
L 996.089486 239.381959 
L 996.089486 239.381959 
" style="fill:none;stroke:#008000;stroke-dasharray:9.6,2.4,1.5,2.4;stroke-dashoffset:0;stroke-width:1.5;"/>
   </g>
   <g id="patch_3">
    <path d="M 144 256.32 
L 144 34.56 
" style="fill:none;stroke:#000000;stroke-linecap:square;stroke-linejoin:miter;stroke-width:0.8;"/>
   </g>
   <g id="patch_4">
    <path d="M 1036.8 256.32 
L 1036.8 34.56 
" style="fill:none;stroke:#000000;stroke-linecap:square;stroke-linejoin:miter;stroke-width:0.8;"/>
   </g>
   <g id="patch_5">
    <path d="M 144 256.32 
L 1036.8 256.32 
" style="fill:none;stroke:#000000;stroke-linecap:square;stroke-linejoin:miter;stroke-width:0.8;"/>
   </g>
   <g id="patch_6">
    <path d="M 144 34.56 
L 1036.8 34.56 
" style="fill:none;stroke:#000000;stroke-linecap:square;stroke-linejoin:miter;stroke-width:0.8;"/>
   </g>
   <g id="text_16">
    <!-- In  RMSE: 0.01159 -->
    <g transform="translate(184.581818 203.821592)scale(0.1 -0.1)">
     <defs>
      <path d="M 9.8125 72.90625 
L 50.296875 72.90625 
L 50.296875 64.59375 
L 35.015625 64.59375 
L 35.015625 8.296875 
L 50.296875 8.296875 
L 50.296875 0 
L 9.8125 0 
L 9.8125 8.296875 
L 25.09375 8.296875 
L 25.09375 64.59375 
L 9.8125 64.59375 
z
" id="DejaVuSansMono-73"/>
      <path d="M 51.3125 33.890625 
L 51.3125 0 
L 42.28125 0 
L 42.28125 33.890625 
Q 42.28125 41.265625 39.6875 44.71875 
Q 37.109375 48.1875 31.59375 48.1875 
Q 25.296875 48.1875 21.890625 43.71875 
Q 18.5 39.265625 18.5 30.90625 
L 18.5 0 
L 9.515625 0 
L 9.515625 54.6875 
L 18.5 54.6875 
L 18.5 46.484375 
Q 20.90625 51.171875 25 53.578125 
Q 29.109375 56 34.71875 56 
Q 43.0625 56 47.1875 50.5 
Q 51.3125 45.015625 51.3125 33.890625 
z
" id="DejaVuSansMono-110"/>
      <path id="DejaVuSansMono-32"/>
      <path d="M 37.109375 34.421875 
Q 40.921875 33.453125 43.609375 30.734375 
Q 46.296875 28.03125 50.296875 19.921875 
L 60.203125 0 
L 49.609375 0 
L 40.921875 18.40625 
Q 37.15625 26.265625 34.15625 28.53125 
Q 31.15625 30.8125 26.3125 30.8125 
L 16.890625 30.8125 
L 16.890625 0 
L 6.984375 0 
L 6.984375 72.90625 
L 27.296875 72.90625 
Q 39.3125 72.90625 45.703125 67.484375 
Q 52.09375 62.0625 52.09375 51.8125 
Q 52.09375 44.578125 48.15625 40.015625 
Q 44.234375 35.453125 37.109375 34.421875 
z
M 16.890625 64.796875 
L 16.890625 38.921875 
L 27.6875 38.921875 
Q 34.765625 38.921875 38.234375 42.09375 
Q 41.703125 45.265625 41.703125 51.8125 
Q 41.703125 58.109375 38.015625 61.453125 
Q 34.328125 64.796875 27.296875 64.796875 
z
" id="DejaVuSansMono-82"/>
      <path d="M 4.203125 72.90625 
L 17.390625 72.90625 
L 29.984375 35.796875 
L 42.671875 72.90625 
L 55.90625 72.90625 
L 55.90625 0 
L 46.78125 0 
L 46.78125 64.40625 
L 33.796875 25.984375 
L 26.3125 25.984375 
L 13.28125 64.40625 
L 13.28125 0 
L 4.203125 0 
z
" id="DejaVuSansMono-77"/>
      <path d="M 49.421875 70.40625 
L 49.421875 60.40625 
Q 44.921875 63.28125 40.40625 64.75 
Q 35.890625 66.21875 31.296875 66.21875 
Q 24.3125 66.21875 20.265625 62.96875 
Q 16.21875 59.71875 16.21875 54.203125 
Q 16.21875 49.359375 18.875 46.8125 
Q 21.53125 44.28125 28.8125 42.578125 
L 33.984375 41.40625 
Q 44.234375 39.015625 48.921875 33.890625 
Q 53.609375 28.765625 53.609375 19.921875 
Q 53.609375 9.515625 47.15625 4.046875 
Q 40.71875 -1.421875 28.421875 -1.421875 
Q 23.296875 -1.421875 18.109375 -0.3125 
Q 12.9375 0.78125 7.71875 2.984375 
L 7.71875 13.484375 
Q 13.328125 9.90625 18.328125 8.25 
Q 23.34375 6.59375 28.421875 6.59375 
Q 35.890625 6.59375 40.03125 9.9375 
Q 44.1875 13.28125 44.1875 19.28125 
Q 44.1875 24.75 41.328125 27.625 
Q 38.484375 30.515625 31.390625 32.078125 
L 26.125 33.296875 
Q 15.96875 35.59375 11.375 40.234375 
Q 6.78125 44.875 6.78125 52.6875 
Q 6.78125 62.453125 13.34375 68.328125 
Q 19.921875 74.21875 30.8125 74.21875 
Q 35.015625 74.21875 39.640625 73.265625 
Q 44.28125 72.3125 49.421875 70.40625 
z
" id="DejaVuSansMono-83"/>
      <path d="M 9.625 72.90625 
L 52.875 72.90625 
L 52.875 64.59375 
L 19.484375 64.59375 
L 19.484375 43.015625 
L 51.421875 43.015625 
L 51.421875 34.71875 
L 19.484375 34.71875 
L 19.484375 8.296875 
L 53.8125 8.296875 
L 53.8125 0 
L 9.625 0 
z
" id="DejaVuSansMono-69"/>
      <path d="M 23.875 51.90625 
L 36.1875 51.90625 
L 36.1875 37.109375 
L 23.875 37.109375 
z
M 23.875 14.890625 
L 36.1875 14.890625 
L 36.1875 0 
L 23.875 0 
z
" id="DejaVuSansMono-58"/>
      <path d="M 23.578125 36.625 
Q 23.578125 39.3125 25.453125 41.265625 
Q 27.34375 43.21875 29.984375 43.21875 
Q 32.71875 43.21875 34.671875 41.265625 
Q 36.625 39.3125 36.625 36.625 
Q 36.625 33.890625 34.6875 31.984375 
Q 32.765625 30.078125 29.984375 30.078125 
Q 27.25 30.078125 25.40625 31.9375 
Q 23.578125 33.796875 23.578125 36.625 
z
M 30.078125 66.40625 
Q 23.1875 66.40625 19.796875 58.984375 
Q 16.40625 51.5625 16.40625 36.375 
Q 16.40625 21.234375 19.796875 13.8125 
Q 23.1875 6.390625 30.078125 6.390625 
Q 37.015625 6.390625 40.40625 13.8125 
Q 43.796875 21.234375 43.796875 36.375 
Q 43.796875 51.5625 40.40625 58.984375 
Q 37.015625 66.40625 30.078125 66.40625 
z
M 30.078125 74.21875 
Q 41.75 74.21875 47.734375 64.640625 
Q 53.71875 55.078125 53.71875 36.375 
Q 53.71875 17.71875 47.734375 8.140625 
Q 41.75 -1.421875 30.078125 -1.421875 
Q 18.40625 -1.421875 12.453125 8.140625 
Q 6.5 17.71875 6.5 36.375 
Q 6.5 55.078125 12.453125 64.640625 
Q 18.40625 74.21875 30.078125 74.21875 
z
" id="DejaVuSansMono-48"/>
      <path d="M 23.875 14.890625 
L 36.1875 14.890625 
L 36.1875 0 
L 23.875 0 
z
" id="DejaVuSansMono-46"/>
      <path d="M 13.1875 8.296875 
L 28.515625 8.296875 
L 28.515625 64.015625 
L 12.015625 60.296875 
L 12.015625 69.28125 
L 28.421875 72.90625 
L 38.28125 72.90625 
L 38.28125 8.296875 
L 53.421875 8.296875 
L 53.421875 0 
L 13.1875 0 
z
" id="DejaVuSansMono-49"/>
      <path d="M 10.109375 72.90625 
L 47.015625 72.90625 
L 47.015625 64.59375 
L 19.09375 64.59375 
L 19.09375 46.6875 
Q 21.1875 47.46875 23.3125 47.828125 
Q 25.4375 48.1875 27.59375 48.1875 
Q 38.921875 48.1875 45.5625 41.5 
Q 52.203125 34.8125 52.203125 23.390625 
Q 52.203125 11.859375 45.234375 5.21875 
Q 38.28125 -1.421875 26.21875 -1.421875 
Q 20.40625 -1.421875 15.59375 -0.640625 
Q 10.796875 0.140625 6.984375 1.703125 
L 6.984375 11.71875 
Q 11.46875 9.28125 16.015625 8.078125 
Q 20.5625 6.890625 25.296875 6.890625 
Q 33.453125 6.890625 37.859375 11.1875 
Q 42.28125 15.484375 42.28125 23.390625 
Q 42.28125 31.203125 37.71875 35.546875 
Q 33.15625 39.890625 25 39.890625 
Q 21.046875 39.890625 17.28125 38.984375 
Q 13.53125 38.09375 10.109375 36.28125 
z
" id="DejaVuSansMono-53"/>
      <path d="M 29.109375 32.328125 
Q 35.40625 32.328125 38.984375 36.859375 
Q 42.578125 41.40625 42.578125 49.421875 
Q 42.578125 57.421875 38.984375 61.953125 
Q 35.40625 66.5 29.109375 66.5 
Q 22.5625 66.5 19.234375 62.171875 
Q 15.921875 57.859375 15.921875 49.421875 
Q 15.921875 40.921875 19.21875 36.625 
Q 22.515625 32.328125 29.109375 32.328125 
z
M 11.53125 1.515625 
L 11.53125 10.59375 
Q 14.59375 8.796875 18.0625 7.84375 
Q 21.53125 6.890625 25.296875 6.890625 
Q 34.671875 6.890625 39.46875 13.9375 
Q 44.28125 21 44.28125 34.71875 
Q 42 29.828125 37.84375 27.21875 
Q 33.6875 24.609375 28.328125 24.609375 
Q 17.78125 24.609375 11.984375 31.09375 
Q 6.203125 37.59375 6.203125 49.515625 
Q 6.203125 61.28125 12.125 67.75 
Q 18.0625 74.21875 28.90625 74.21875 
Q 41.609375 74.21875 47.515625 65.078125 
Q 53.421875 55.953125 53.421875 36.375 
Q 53.421875 17.96875 46.3125 8.265625 
Q 39.203125 -1.421875 25.6875 -1.421875 
Q 22.125 -1.421875 18.5 -0.65625 
Q 14.890625 0.09375 11.53125 1.515625 
z
" id="DejaVuSansMono-57"/>
     </defs>
     <use xlink:href="#DejaVuSansMono-73"/>
     <use x="60.205078" xlink:href="#DejaVuSansMono-110"/>
     <use x="120.410156" xlink:href="#DejaVuSansMono-32"/>
     <use x="180.615234" xlink:href="#DejaVuSansMono-32"/>
     <use x="240.820312" xlink:href="#DejaVuSansMono-82"/>
     <use x="301.025391" xlink:href="#DejaVuSansMono-77"/>
     <use x="361.230469" xlink:href="#DejaVuSansMono-83"/>
     <use x="421.435547" xlink:href="#DejaVuSansMono-69"/>
     <use x="481.640625" xlink:href="#DejaVuSansMono-58"/>
     <use x="541.845703" xlink:href="#DejaVuSansMono-32"/>
     <use x="602.050781" xlink:href="#DejaVuSansMono-48"/>
     <use x="662.255859" xlink:href="#DejaVuSansMono-46"/>
     <use x="722.460938" xlink:href="#DejaVuSansMono-48"/>
     <use x="782.666016" xlink:href="#DejaVuSansMono-49"/>
     <use x="842.871094" xlink:href="#DejaVuSansMono-49"/>
     <use x="903.076172" xlink:href="#DejaVuSansMono-53"/>
     <use x="963.28125" xlink:href="#DejaVuSansMono-57"/>
    </g>
    <!-- Out RMSE: 0.01209 -->
    <g transform="translate(184.581818 215.083154)scale(0.1 -0.1)">
     <defs>
      <path d="M 44.1875 36.375 
Q 44.1875 52.4375 40.890625 59.328125 
Q 37.59375 66.21875 30.078125 66.21875 
Q 22.609375 66.21875 19.3125 59.328125 
Q 16.015625 52.4375 16.015625 36.375 
Q 16.015625 20.359375 19.3125 13.46875 
Q 22.609375 6.59375 30.078125 6.59375 
Q 37.59375 6.59375 40.890625 13.453125 
Q 44.1875 20.3125 44.1875 36.375 
z
M 54.5 36.375 
Q 54.5 17.328125 48.46875 7.953125 
Q 42.4375 -1.421875 30.078125 -1.421875 
Q 17.71875 -1.421875 11.71875 7.90625 
Q 5.71875 17.234375 5.71875 36.375 
Q 5.71875 55.46875 11.75 64.84375 
Q 17.78125 74.21875 30.078125 74.21875 
Q 42.4375 74.21875 48.46875 64.84375 
Q 54.5 55.46875 54.5 36.375 
z
" id="DejaVuSansMono-79"/>
      <path d="M 9.515625 20.703125 
L 9.515625 54.59375 
L 18.5 54.59375 
L 18.5 20.703125 
Q 18.5 13.328125 21.109375 9.859375 
Q 23.734375 6.390625 29.203125 6.390625 
Q 35.546875 6.390625 38.90625 10.859375 
Q 42.28125 15.328125 42.28125 23.6875 
L 42.28125 54.59375 
L 51.3125 54.59375 
L 51.3125 0 
L 42.28125 0 
L 42.28125 8.203125 
Q 39.890625 3.46875 35.765625 1.015625 
Q 31.640625 -1.421875 26.125 -1.421875 
Q 17.71875 -1.421875 13.609375 4.078125 
Q 9.515625 9.578125 9.515625 20.703125 
z
" id="DejaVuSansMono-117"/>
      <path d="M 29.984375 70.21875 
L 29.984375 54.6875 
L 50.390625 54.6875 
L 50.390625 47.703125 
L 29.984375 47.703125 
L 29.984375 18.015625 
Q 29.984375 11.96875 32.28125 9.5625 
Q 34.578125 7.171875 40.28125 7.171875 
L 50.390625 7.171875 
L 50.390625 0 
L 39.40625 0 
Q 29.296875 0 25.140625 4.046875 
Q 21 8.109375 21 18.015625 
L 21 47.703125 
L 6.390625 47.703125 
L 6.390625 54.6875 
L 21 54.6875 
L 21 70.21875 
z
" id="DejaVuSansMono-116"/>
      <path d="M 18.21875 8.296875 
L 51.703125 8.296875 
L 51.703125 0 
L 7.421875 0 
L 7.421875 8.296875 
Q 16.546875 17.921875 23.375 25.296875 
Q 30.21875 32.671875 32.8125 35.6875 
Q 37.703125 41.65625 39.40625 45.34375 
Q 41.109375 49.03125 41.109375 52.875 
Q 41.109375 58.984375 37.515625 62.453125 
Q 33.9375 65.921875 27.6875 65.921875 
Q 23.25 65.921875 18.359375 64.3125 
Q 13.484375 62.703125 8.015625 59.421875 
L 8.015625 69.390625 
Q 13.03125 71.78125 17.890625 73 
Q 22.75 74.21875 27.484375 74.21875 
Q 38.1875 74.21875 44.703125 68.53125 
Q 51.21875 62.84375 51.21875 53.609375 
Q 51.21875 48.921875 49.046875 44.234375 
Q 46.875 39.546875 42 33.890625 
Q 39.265625 30.71875 34.0625 25.09375 
Q 28.859375 19.484375 18.21875 8.296875 
z
" id="DejaVuSansMono-50"/>
     </defs>
     <use xlink:href="#DejaVuSansMono-79"/>
     <use x="60.205078" xlink:href="#DejaVuSansMono-117"/>
     <use x="120.410156" xlink:href="#DejaVuSansMono-116"/>
     <use x="180.615234" xlink:href="#DejaVuSansMono-32"/>
     <use x="240.820312" xlink:href="#DejaVuSansMono-82"/>
     <use x="301.025391" xlink:href="#DejaVuSansMono-77"/>
     <use x="361.230469" xlink:href="#DejaVuSansMono-83"/>
     <use x="421.435547" xlink:href="#DejaVuSansMono-69"/>
     <use x="481.640625" xlink:href="#DejaVuSansMono-58"/>
     <use x="541.845703" xlink:href="#DejaVuSansMono-32"/>
     <use x="602.050781" xlink:href="#DejaVuSansMono-48"/>
     <use x="662.255859" xlink:href="#DejaVuSansMono-46"/>
     <use x="722.460938" xlink:href="#DejaVuSansMono-48"/>
     <use x="782.666016" xlink:href="#DejaVuSansMono-49"/>
     <use x="842.871094" xlink:href="#DejaVuSansMono-50"/>
     <use x="903.076172" xlink:href="#DejaVuSansMono-48"/>
     <use x="963.28125" xlink:href="#DejaVuSansMono-57"/>
    </g>
   </g>
   <g id="text_17">
    <!-- ..\Waveformdata\t4_traces\inv_t4_invSim_520_200Traces -->
    <g transform="translate(419.290312 28.56)scale(0.12 -0.12)">
     <defs>
      <path d="M 8.296875 72.90625 
L 33.6875 -9.28125 
L 25.390625 -9.28125 
L 0 72.90625 
z
" id="DejaVuSans-92"/>
      <path d="M 3.328125 72.90625 
L 13.28125 72.90625 
L 28.609375 11.28125 
L 43.890625 72.90625 
L 54.984375 72.90625 
L 70.3125 11.28125 
L 85.59375 72.90625 
L 95.609375 72.90625 
L 77.296875 0 
L 64.890625 0 
L 49.515625 63.28125 
L 33.984375 0 
L 21.578125 0 
z
" id="DejaVuSans-87"/>
      <path d="M 2.984375 54.6875 
L 12.5 54.6875 
L 29.59375 8.796875 
L 46.6875 54.6875 
L 56.203125 54.6875 
L 35.6875 0 
L 23.484375 0 
z
" id="DejaVuSans-118"/>
      <path d="M 37.109375 75.984375 
L 37.109375 68.5 
L 28.515625 68.5 
Q 23.6875 68.5 21.796875 66.546875 
Q 19.921875 64.59375 19.921875 59.515625 
L 19.921875 54.6875 
L 34.71875 54.6875 
L 34.71875 47.703125 
L 19.921875 47.703125 
L 19.921875 0 
L 10.890625 0 
L 10.890625 47.703125 
L 2.296875 47.703125 
L 2.296875 54.6875 
L 10.890625 54.6875 
L 10.890625 58.5 
Q 10.890625 67.625 15.140625 71.796875 
Q 19.390625 75.984375 28.609375 75.984375 
z
" id="DejaVuSans-102"/>
      <path d="M 41.109375 46.296875 
Q 39.59375 47.171875 37.8125 47.578125 
Q 36.03125 48 33.890625 48 
Q 26.265625 48 22.1875 43.046875 
Q 18.109375 38.09375 18.109375 28.8125 
L 18.109375 0 
L 9.078125 0 
L 9.078125 54.6875 
L 18.109375 54.6875 
L 18.109375 46.1875 
Q 20.953125 51.171875 25.484375 53.578125 
Q 30.03125 56 36.53125 56 
Q 37.453125 56 38.578125 55.875 
Q 39.703125 55.765625 41.0625 55.515625 
z
" id="DejaVuSans-114"/>
      <path d="M 45.40625 46.390625 
L 45.40625 75.984375 
L 54.390625 75.984375 
L 54.390625 0 
L 45.40625 0 
L 45.40625 8.203125 
Q 42.578125 3.328125 38.25 0.953125 
Q 33.9375 -1.421875 27.875 -1.421875 
Q 17.96875 -1.421875 11.734375 6.484375 
Q 5.515625 14.40625 5.515625 27.296875 
Q 5.515625 40.1875 11.734375 48.09375 
Q 17.96875 56 27.875 56 
Q 33.9375 56 38.25 53.625 
Q 42.578125 51.265625 45.40625 46.390625 
z
M 14.796875 27.296875 
Q 14.796875 17.390625 18.875 11.75 
Q 22.953125 6.109375 30.078125 6.109375 
Q 37.203125 6.109375 41.296875 11.75 
Q 45.40625 17.390625 45.40625 27.296875 
Q 45.40625 37.203125 41.296875 42.84375 
Q 37.203125 48.484375 30.078125 48.484375 
Q 22.953125 48.484375 18.875 42.84375 
Q 14.796875 37.203125 14.796875 27.296875 
z
" id="DejaVuSans-100"/>
      <path d="M 50.984375 -16.609375 
L 50.984375 -23.578125 
L -0.984375 -23.578125 
L -0.984375 -16.609375 
z
" id="DejaVuSans-95"/>
      <path d="M 48.78125 52.59375 
L 48.78125 44.1875 
Q 44.96875 46.296875 41.140625 47.34375 
Q 37.3125 48.390625 33.40625 48.390625 
Q 24.65625 48.390625 19.8125 42.84375 
Q 14.984375 37.3125 14.984375 27.296875 
Q 14.984375 17.28125 19.8125 11.734375 
Q 24.65625 6.203125 33.40625 6.203125 
Q 37.3125 6.203125 41.140625 7.25 
Q 44.96875 8.296875 48.78125 10.40625 
L 48.78125 2.09375 
Q 45.015625 0.34375 40.984375 -0.53125 
Q 36.96875 -1.421875 32.421875 -1.421875 
Q 20.0625 -1.421875 12.78125 6.34375 
Q 5.515625 14.109375 5.515625 27.296875 
Q 5.515625 40.671875 12.859375 48.328125 
Q 20.21875 56 33.015625 56 
Q 37.15625 56 41.109375 55.140625 
Q 45.0625 54.296875 48.78125 52.59375 
z
" id="DejaVuSans-99"/>
      <path d="M 54.890625 33.015625 
L 54.890625 0 
L 45.90625 0 
L 45.90625 32.71875 
Q 45.90625 40.484375 42.875 44.328125 
Q 39.84375 48.1875 33.796875 48.1875 
Q 26.515625 48.1875 22.3125 43.546875 
Q 18.109375 38.921875 18.109375 30.90625 
L 18.109375 0 
L 9.078125 0 
L 9.078125 54.6875 
L 18.109375 54.6875 
L 18.109375 46.1875 
Q 21.34375 51.125 25.703125 53.5625 
Q 30.078125 56 35.796875 56 
Q 45.21875 56 50.046875 50.171875 
Q 54.890625 44.34375 54.890625 33.015625 
z
" id="DejaVuSans-110"/>
      <path d="M 53.515625 70.515625 
L 53.515625 60.890625 
Q 47.90625 63.578125 42.921875 64.890625 
Q 37.9375 66.21875 33.296875 66.21875 
Q 25.25 66.21875 20.875 63.09375 
Q 16.5 59.96875 16.5 54.203125 
Q 16.5 49.359375 19.40625 46.890625 
Q 22.3125 44.4375 30.421875 42.921875 
L 36.375 41.703125 
Q 47.40625 39.59375 52.65625 34.296875 
Q 57.90625 29 57.90625 20.125 
Q 57.90625 9.515625 50.796875 4.046875 
Q 43.703125 -1.421875 29.984375 -1.421875 
Q 24.8125 -1.421875 18.96875 -0.25 
Q 13.140625 0.921875 6.890625 3.21875 
L 6.890625 13.375 
Q 12.890625 10.015625 18.65625 8.296875 
Q 24.421875 6.59375 29.984375 6.59375 
Q 38.421875 6.59375 43.015625 9.90625 
Q 47.609375 13.234375 47.609375 19.390625 
Q 47.609375 24.75 44.3125 27.78125 
Q 41.015625 30.8125 33.5 32.328125 
L 27.484375 33.5 
Q 16.453125 35.6875 11.515625 40.375 
Q 6.59375 45.0625 6.59375 53.421875 
Q 6.59375 63.09375 13.40625 68.65625 
Q 20.21875 74.21875 32.171875 74.21875 
Q 37.3125 74.21875 42.625 73.28125 
Q 47.953125 72.359375 53.515625 70.515625 
z
" id="DejaVuSans-83"/>
      <path d="M 10.796875 72.90625 
L 49.515625 72.90625 
L 49.515625 64.59375 
L 19.828125 64.59375 
L 19.828125 46.734375 
Q 21.96875 47.46875 24.109375 47.828125 
Q 26.265625 48.1875 28.421875 48.1875 
Q 40.625 48.1875 47.75 41.5 
Q 54.890625 34.8125 54.890625 23.390625 
Q 54.890625 11.625 47.5625 5.09375 
Q 40.234375 -1.421875 26.90625 -1.421875 
Q 22.3125 -1.421875 17.546875 -0.640625 
Q 12.796875 0.140625 7.71875 1.703125 
L 7.71875 11.625 
Q 12.109375 9.234375 16.796875 8.0625 
Q 21.484375 6.890625 26.703125 6.890625 
Q 35.15625 6.890625 40.078125 11.328125 
Q 45.015625 15.765625 45.015625 23.390625 
Q 45.015625 31 40.078125 35.4375 
Q 35.15625 39.890625 26.703125 39.890625 
Q 22.75 39.890625 18.8125 39.015625 
Q 14.890625 38.140625 10.796875 36.28125 
z
" id="DejaVuSans-53"/>
     </defs>
     <use xlink:href="#DejaVuSans-46"/>
     <use x="31.787109" xlink:href="#DejaVuSans-46"/>
     <use x="63.574219" xlink:href="#DejaVuSans-92"/>
     <use x="97.265625" xlink:href="#DejaVuSans-87"/>
     <use x="189.767578" xlink:href="#DejaVuSans-97"/>
     <use x="251.046875" xlink:href="#DejaVuSans-118"/>
     <use x="310.226562" xlink:href="#DejaVuSans-101"/>
     <use x="371.75" xlink:href="#DejaVuSans-102"/>
     <use x="406.955078" xlink:href="#DejaVuSans-111"/>
     <use x="468.136719" xlink:href="#DejaVuSans-114"/>
     <use x="507.5" xlink:href="#DejaVuSans-109"/>
     <use x="604.912109" xlink:href="#DejaVuSans-100"/>
     <use x="668.388672" xlink:href="#DejaVuSans-97"/>
     <use x="729.667969" xlink:href="#DejaVuSans-116"/>
     <use x="768.876953" xlink:href="#DejaVuSans-97"/>
     <use x="830.15625" xlink:href="#DejaVuSans-92"/>
     <use x="863.847656" xlink:href="#DejaVuSans-116"/>
     <use x="903.056641" xlink:href="#DejaVuSans-52"/>
     <use x="966.679688" xlink:href="#DejaVuSans-95"/>
     <use x="1016.679688" xlink:href="#DejaVuSans-116"/>
     <use x="1055.888672" xlink:href="#DejaVuSans-114"/>
     <use x="1097.001953" xlink:href="#DejaVuSans-97"/>
     <use x="1158.28125" xlink:href="#DejaVuSans-99"/>
     <use x="1213.261719" xlink:href="#DejaVuSans-101"/>
     <use x="1274.785156" xlink:href="#DejaVuSans-115"/>
     <use x="1326.884766" xlink:href="#DejaVuSans-92"/>
     <use x="1360.576172" xlink:href="#DejaVuSans-105"/>
     <use x="1388.359375" xlink:href="#DejaVuSans-110"/>
     <use x="1451.738281" xlink:href="#DejaVuSans-118"/>
     <use x="1510.917969" xlink:href="#DejaVuSans-95"/>
     <use x="1560.917969" xlink:href="#DejaVuSans-116"/>
     <use x="1600.126953" xlink:href="#DejaVuSans-52"/>
     <use x="1663.75" xlink:href="#DejaVuSans-95"/>
     <use x="1713.75" xlink:href="#DejaVuSans-105"/>
     <use x="1741.533203" xlink:href="#DejaVuSans-110"/>
     <use x="1804.912109" xlink:href="#DejaVuSans-118"/>
     <use x="1864.091797" xlink:href="#DejaVuSans-83"/>
     <use x="1927.568359" xlink:href="#DejaVuSans-105"/>
     <use x="1955.351562" xlink:href="#DejaVuSans-109"/>
     <use x="2052.763672" xlink:href="#DejaVuSans-95"/>
     <use x="2102.763672" xlink:href="#DejaVuSans-53"/>
     <use x="2166.386719" xlink:href="#DejaVuSans-50"/>
     <use x="2230.009766" xlink:href="#DejaVuSans-48"/>
     <use x="2293.632812" xlink:href="#DejaVuSans-95"/>
     <use x="2343.632812" xlink:href="#DejaVuSans-50"/>
     <use x="2407.255859" xlink:href="#DejaVuSans-48"/>
     <use x="2470.878906" xlink:href="#DejaVuSans-48"/>
     <use x="2534.501953" xlink:href="#DejaVuSans-84"/>
     <use x="2580.835938" xlink:href="#DejaVuSans-114"/>
     <use x="2621.949219" xlink:href="#DejaVuSans-97"/>
     <use x="2683.228516" xlink:href="#DejaVuSans-99"/>
     <use x="2738.208984" xlink:href="#DejaVuSans-101"/>
     <use x="2799.732422" xlink:href="#DejaVuSans-115"/>
    </g>
   </g>
   <g id="legend_1">
    <g id="patch_7">
     <path d="M 151 190.974375 
L 277.9 190.974375 
Q 279.9 190.974375 279.9 188.974375 
L 279.9 101.905625 
Q 279.9 99.905625 277.9 99.905625 
L 151 99.905625 
Q 149 99.905625 149 101.905625 
L 149 188.974375 
Q 149 190.974375 151 190.974375 
z
" style="fill:#ffffff;opacity:0.8;stroke:#cccccc;stroke-linejoin:miter;"/>
    </g>
    <g id="line2d_19">
     <path d="M 153 108.004063 
L 173 108.004063 
" style="fill:none;stroke:#ff0000;stroke-linecap:square;stroke-width:1.5;"/>
    </g>
    <g id="line2d_20"/>
    <g id="text_18">
     <!-- Input -->
     <g transform="translate(181 111.504063)scale(0.1 -0.1)">
      <defs>
       <path d="M 9.8125 72.90625 
L 19.671875 72.90625 
L 19.671875 0 
L 9.8125 0 
z
" id="DejaVuSans-73"/>
       <path d="M 18.109375 8.203125 
L 18.109375 -20.796875 
L 9.078125 -20.796875 
L 9.078125 54.6875 
L 18.109375 54.6875 
L 18.109375 46.390625 
Q 20.953125 51.265625 25.265625 53.625 
Q 29.59375 56 35.59375 56 
Q 45.5625 56 51.78125 48.09375 
Q 58.015625 40.1875 58.015625 27.296875 
Q 58.015625 14.40625 51.78125 6.484375 
Q 45.5625 -1.421875 35.59375 -1.421875 
Q 29.59375 -1.421875 25.265625 0.953125 
Q 20.953125 3.328125 18.109375 8.203125 
z
M 48.6875 27.296875 
Q 48.6875 37.203125 44.609375 42.84375 
Q 40.53125 48.484375 33.40625 48.484375 
Q 26.265625 48.484375 22.1875 42.84375 
Q 18.109375 37.203125 18.109375 27.296875 
Q 18.109375 17.390625 22.1875 11.75 
Q 26.265625 6.109375 33.40625 6.109375 
Q 40.53125 6.109375 44.609375 11.75 
Q 48.6875 17.390625 48.6875 27.296875 
z
" id="DejaVuSans-112"/>
       <path d="M 8.5 21.578125 
L 8.5 54.6875 
L 17.484375 54.6875 
L 17.484375 21.921875 
Q 17.484375 14.15625 20.5 10.265625 
Q 23.53125 6.390625 29.59375 6.390625 
Q 36.859375 6.390625 41.078125 11.03125 
Q 45.3125 15.671875 45.3125 23.6875 
L 45.3125 54.6875 
L 54.296875 54.6875 
L 54.296875 0 
L 45.3125 0 
L 45.3125 8.40625 
Q 42.046875 3.421875 37.71875 1 
Q 33.40625 -1.421875 27.6875 -1.421875 
Q 18.265625 -1.421875 13.375 4.4375 
Q 8.5 10.296875 8.5 21.578125 
z
M 31.109375 56 
z
" id="DejaVuSans-117"/>
      </defs>
      <use xlink:href="#DejaVuSans-73"/>
      <use x="29.492188" xlink:href="#DejaVuSans-110"/>
      <use x="92.871094" xlink:href="#DejaVuSans-112"/>
      <use x="156.347656" xlink:href="#DejaVuSans-117"/>
      <use x="219.726562" xlink:href="#DejaVuSans-116"/>
     </g>
    </g>
    <g id="line2d_21">
     <path d="M 153 122.682188 
L 173 122.682188 
" style="fill:none;stroke:#ff0000;stroke-dasharray:5.55,2.4;stroke-dashoffset:0;stroke-width:1.5;"/>
    </g>
    <g id="line2d_22"/>
    <g id="text_19">
     <!-- Input fitting -->
     <g transform="translate(181 126.182188)scale(0.1 -0.1)">
      <use xlink:href="#DejaVuSans-73"/>
      <use x="29.492188" xlink:href="#DejaVuSans-110"/>
      <use x="92.871094" xlink:href="#DejaVuSans-112"/>
      <use x="156.347656" xlink:href="#DejaVuSans-117"/>
      <use x="219.726562" xlink:href="#DejaVuSans-116"/>
      <use x="258.935547" xlink:href="#DejaVuSans-32"/>
      <use x="290.722656" xlink:href="#DejaVuSans-102"/>
      <use x="325.927734" xlink:href="#DejaVuSans-105"/>
      <use x="353.710938" xlink:href="#DejaVuSans-116"/>
      <use x="392.919922" xlink:href="#DejaVuSans-116"/>
      <use x="432.128906" xlink:href="#DejaVuSans-105"/>
      <use x="459.912109" xlink:href="#DejaVuSans-110"/>
      <use x="523.291016" xlink:href="#DejaVuSans-103"/>
     </g>
    </g>
    <g id="line2d_23">
     <path d="M 153 137.360313 
L 173 137.360313 
" style="fill:none;stroke:#ff0000;stroke-dasharray:9.6,2.4,1.5,2.4;stroke-dashoffset:0;stroke-width:1.5;"/>
    </g>
    <g id="line2d_24"/>
    <g id="text_20">
     <!-- Input fitting error -->
     <g transform="translate(181 140.860313)scale(0.1 -0.1)">
      <use xlink:href="#DejaVuSans-73"/>
      <use x="29.492188" xlink:href="#DejaVuSans-110"/>
      <use x="92.871094" xlink:href="#DejaVuSans-112"/>
      <use x="156.347656" xlink:href="#DejaVuSans-117"/>
      <use x="219.726562" xlink:href="#DejaVuSans-116"/>
      <use x="258.935547" xlink:href="#DejaVuSans-32"/>
      <use x="290.722656" xlink:href="#DejaVuSans-102"/>
      <use x="325.927734" xlink:href="#DejaVuSans-105"/>
      <use x="353.710938" xlink:href="#DejaVuSans-116"/>
      <use x="392.919922" xlink:href="#DejaVuSans-116"/>
      <use x="432.128906" xlink:href="#DejaVuSans-105"/>
      <use x="459.912109" xlink:href="#DejaVuSans-110"/>
      <use x="523.291016" xlink:href="#DejaVuSans-103"/>
      <use x="586.767578" xlink:href="#DejaVuSans-32"/>
      <use x="618.554688" xlink:href="#DejaVuSans-101"/>
      <use x="680.078125" xlink:href="#DejaVuSans-114"/>
      <use x="719.441406" xlink:href="#DejaVuSans-114"/>
      <use x="758.304688" xlink:href="#DejaVuSans-111"/>
      <use x="819.486328" xlink:href="#DejaVuSans-114"/>
     </g>
    </g>
    <g id="line2d_25">
     <path d="M 153 152.038438 
L 173 152.038438 
" style="fill:none;stroke:#008000;stroke-linecap:square;stroke-width:1.5;"/>
    </g>
    <g id="line2d_26"/>
    <g id="text_21">
     <!-- Output -->
     <g transform="translate(181 155.538438)scale(0.1 -0.1)">
      <defs>
       <path d="M 39.40625 66.21875 
Q 28.65625 66.21875 22.328125 58.203125 
Q 16.015625 50.203125 16.015625 36.375 
Q 16.015625 22.609375 22.328125 14.59375 
Q 28.65625 6.59375 39.40625 6.59375 
Q 50.140625 6.59375 56.421875 14.59375 
Q 62.703125 22.609375 62.703125 36.375 
Q 62.703125 50.203125 56.421875 58.203125 
Q 50.140625 66.21875 39.40625 66.21875 
z
M 39.40625 74.21875 
Q 54.734375 74.21875 63.90625 63.9375 
Q 73.09375 53.65625 73.09375 36.375 
Q 73.09375 19.140625 63.90625 8.859375 
Q 54.734375 -1.421875 39.40625 -1.421875 
Q 24.03125 -1.421875 14.8125 8.828125 
Q 5.609375 19.09375 5.609375 36.375 
Q 5.609375 53.65625 14.8125 63.9375 
Q 24.03125 74.21875 39.40625 74.21875 
z
" id="DejaVuSans-79"/>
      </defs>
      <use xlink:href="#DejaVuSans-79"/>
      <use x="78.710938" xlink:href="#DejaVuSans-117"/>
      <use x="142.089844" xlink:href="#DejaVuSans-116"/>
      <use x="181.298828" xlink:href="#DejaVuSans-112"/>
      <use x="244.775391" xlink:href="#DejaVuSans-117"/>
      <use x="308.154297" xlink:href="#DejaVuSans-116"/>
     </g>
    </g>
    <g id="line2d_27">
     <path d="M 153 166.716563 
L 173 166.716563 
" style="fill:none;stroke:#008000;stroke-dasharray:5.55,2.4;stroke-dashoffset:0;stroke-width:1.5;"/>
    </g>
    <g id="line2d_28"/>
    <g id="text_22">
     <!-- Output fitting -->
     <g transform="translate(181 170.216563)scale(0.1 -0.1)">
      <use xlink:href="#DejaVuSans-79"/>
      <use x="78.710938" xlink:href="#DejaVuSans-117"/>
      <use x="142.089844" xlink:href="#DejaVuSans-116"/>
      <use x="181.298828" xlink:href="#DejaVuSans-112"/>
      <use x="244.775391" xlink:href="#DejaVuSans-117"/>
      <use x="308.154297" xlink:href="#DejaVuSans-116"/>
      <use x="347.363281" xlink:href="#DejaVuSans-32"/>
      <use x="379.150391" xlink:href="#DejaVuSans-102"/>
      <use x="414.355469" xlink:href="#DejaVuSans-105"/>
      <use x="442.138672" xlink:href="#DejaVuSans-116"/>
      <use x="481.347656" xlink:href="#DejaVuSans-116"/>
      <use x="520.556641" xlink:href="#DejaVuSans-105"/>
      <use x="548.339844" xlink:href="#DejaVuSans-110"/>
      <use x="611.71875" xlink:href="#DejaVuSans-103"/>
     </g>
    </g>
    <g id="line2d_29">
     <path d="M 153 181.394688 
L 173 181.394688 
" style="fill:none;stroke:#008000;stroke-dasharray:9.6,2.4,1.5,2.4;stroke-dashoffset:0;stroke-width:1.5;"/>
    </g>
    <g id="line2d_30"/>
    <g id="text_23">
     <!-- Output fitting error -->
     <g transform="translate(181 184.894688)scale(0.1 -0.1)">
      <use xlink:href="#DejaVuSans-79"/>
      <use x="78.710938" xlink:href="#DejaVuSans-117"/>
      <use x="142.089844" xlink:href="#DejaVuSans-116"/>
      <use x="181.298828" xlink:href="#DejaVuSans-112"/>
      <use x="244.775391" xlink:href="#DejaVuSans-117"/>
      <use x="308.154297" xlink:href="#DejaVuSans-116"/>
      <use x="347.363281" xlink:href="#DejaVuSans-32"/>
      <use x="379.150391" xlink:href="#DejaVuSans-102"/>
      <use x="414.355469" xlink:href="#DejaVuSans-105"/>
      <use x="442.138672" xlink:href="#DejaVuSans-116"/>
      <use x="481.347656" xlink:href="#DejaVuSans-116"/>
      <use x="520.556641" xlink:href="#DejaVuSans-105"/>
      <use x="548.339844" xlink:href="#DejaVuSans-110"/>
      <use x="611.71875" xlink:href="#DejaVuSans-103"/>
      <use x="675.195312" xlink:href="#DejaVuSans-32"/>
      <use x="706.982422" xlink:href="#DejaVuSans-101"/>
      <use x="768.505859" xlink:href="#DejaVuSans-114"/>
      <use x="807.869141" xlink:href="#DejaVuSans-114"/>
      <use x="846.732422" xlink:href="#DejaVuSans-111"/>
      <use x="907.914062" xlink:href="#DejaVuSans-114"/>
     </g>
    </g>
   </g>
  </g>
 </g>
 <defs>
  <clipPath id="p022fc7b12d">
   <rect height="221.76" width="892.8" x="144" y="34.56"/>
  </clipPath>
 </defs>
</svg>
