<?xml version="1.0" encoding="utf-8" standalone="no"?>
<!DOCTYPE svg PUBLIC "-//W3C//DTD SVG 1.1//EN"
  "http://www.w3.org/Graphics/SVG/1.1/DTD/svg11.dtd">
<!-- Created with matplotlib (https://matplotlib.org/) -->
<svg height="288pt" version="1.1" viewBox="0 0 1152 288" width="1152pt" xmlns="http://www.w3.org/2000/svg" xmlns:xlink="http://www.w3.org/1999/xlink">
 <metadata>
  <rdf:RDF xmlns:cc="http://creativecommons.org/ns#" xmlns:dc="http://purl.org/dc/elements/1.1/" xmlns:rdf="http://www.w3.org/1999/02/22-rdf-syntax-ns#">
   <cc:Work>
    <dc:type rdf:resource="http://purl.org/dc/dcmitype/StillImage"/>
    <dc:date>2020-10-10T21:34:30.267471</dc:date>
    <dc:format>image/svg+xml</dc:format>
    <dc:creator>
     <cc:Agent>
      <dc:title>Matplotlib v3.3.0, https://matplotlib.org/</dc:title>
     </cc:Agent>
    </dc:creator>
   </cc:Work>
  </rdf:RDF>
 </metadata>
 <defs>
  <style type="text/css">*{stroke-linecap:butt;stroke-linejoin:round;}</style>
 </defs>
 <g id="figure_1">
  <g id="patch_1">
   <path d="M 0 288 
L 1152 288 
L 1152 0 
L 0 0 
z
" style="fill:#ffffff;"/>
  </g>
  <g id="axes_1">
   <g id="patch_2">
    <path d="M 144 256.32 
L 1036.8 256.32 
L 1036.8 34.56 
L 144 34.56 
z
" style="fill:#ffffff;"/>
   </g>
   <g id="matplotlib.axis_1">
    <g id="xtick_1">
     <g id="line2d_1">
      <defs>
       <path d="M 0 0 
L 0 3.5 
" id="mf6489aef46" style="stroke:#000000;stroke-width:0.8;"/>
      </defs>
      <g>
       <use style="stroke:#000000;stroke-width:0.8;" x="184.581818" xlink:href="#mf6489aef46" y="256.32"/>
      </g>
     </g>
     <g id="text_1">
      <!-- 0.0 -->
      <g transform="translate(176.630256 270.918437)scale(0.1 -0.1)">
       <defs>
        <path d="M 31.78125 66.40625 
Q 24.171875 66.40625 20.328125 58.90625 
Q 16.5 51.421875 16.5 36.375 
Q 16.5 21.390625 20.328125 13.890625 
Q 24.171875 6.390625 31.78125 6.390625 
Q 39.453125 6.390625 43.28125 13.890625 
Q 47.125 21.390625 47.125 36.375 
Q 47.125 51.421875 43.28125 58.90625 
Q 39.453125 66.40625 31.78125 66.40625 
z
M 31.78125 74.21875 
Q 44.046875 74.21875 50.515625 64.515625 
Q 56.984375 54.828125 56.984375 36.375 
Q 56.984375 17.96875 50.515625 8.265625 
Q 44.046875 -1.421875 31.78125 -1.421875 
Q 19.53125 -1.421875 13.0625 8.265625 
Q 6.59375 17.96875 6.59375 36.375 
Q 6.59375 54.828125 13.0625 64.515625 
Q 19.53125 74.21875 31.78125 74.21875 
z
" id="DejaVuSans-48"/>
        <path d="M 10.6875 12.40625 
L 21 12.40625 
L 21 0 
L 10.6875 0 
z
" id="DejaVuSans-46"/>
       </defs>
       <use xlink:href="#DejaVuSans-48"/>
       <use x="63.623047" xlink:href="#DejaVuSans-46"/>
       <use x="95.410156" xlink:href="#DejaVuSans-48"/>
      </g>
     </g>
    </g>
    <g id="xtick_2">
     <g id="line2d_2">
      <g>
       <use style="stroke:#000000;stroke-width:0.8;" x="351.388484" xlink:href="#mf6489aef46" y="256.32"/>
      </g>
     </g>
     <g id="text_2">
      <!-- 0.2 -->
      <g transform="translate(343.436921 270.918437)scale(0.1 -0.1)">
       <defs>
        <path d="M 19.1875 8.296875 
L 53.609375 8.296875 
L 53.609375 0 
L 7.328125 0 
L 7.328125 8.296875 
Q 12.9375 14.109375 22.625 23.890625 
Q 32.328125 33.6875 34.8125 36.53125 
Q 39.546875 41.84375 41.421875 45.53125 
Q 43.3125 49.21875 43.3125 52.78125 
Q 43.3125 58.59375 39.234375 62.25 
Q 35.15625 65.921875 28.609375 65.921875 
Q 23.96875 65.921875 18.8125 64.3125 
Q 13.671875 62.703125 7.8125 59.421875 
L 7.8125 69.390625 
Q 13.765625 71.78125 18.9375 73 
Q 24.125 74.21875 28.421875 74.21875 
Q 39.75 74.21875 46.484375 68.546875 
Q 53.21875 62.890625 53.21875 53.421875 
Q 53.21875 48.921875 51.53125 44.890625 
Q 49.859375 40.875 45.40625 35.40625 
Q 44.1875 33.984375 37.640625 27.21875 
Q 31.109375 20.453125 19.1875 8.296875 
z
" id="DejaVuSans-50"/>
       </defs>
       <use xlink:href="#DejaVuSans-48"/>
       <use x="63.623047" xlink:href="#DejaVuSans-46"/>
       <use x="95.410156" xlink:href="#DejaVuSans-50"/>
      </g>
     </g>
    </g>
    <g id="xtick_3">
     <g id="line2d_3">
      <g>
       <use style="stroke:#000000;stroke-width:0.8;" x="518.195149" xlink:href="#mf6489aef46" y="256.32"/>
      </g>
     </g>
     <g id="text_3">
      <!-- 0.4 -->
      <g transform="translate(510.243587 270.918437)scale(0.1 -0.1)">
       <defs>
        <path d="M 37.796875 64.3125 
L 12.890625 25.390625 
L 37.796875 25.390625 
z
M 35.203125 72.90625 
L 47.609375 72.90625 
L 47.609375 25.390625 
L 58.015625 25.390625 
L 58.015625 17.1875 
L 47.609375 17.1875 
L 47.609375 0 
L 37.796875 0 
L 37.796875 17.1875 
L 4.890625 17.1875 
L 4.890625 26.703125 
z
" id="DejaVuSans-52"/>
       </defs>
       <use xlink:href="#DejaVuSans-48"/>
       <use x="63.623047" xlink:href="#DejaVuSans-46"/>
       <use x="95.410156" xlink:href="#DejaVuSans-52"/>
      </g>
     </g>
    </g>
    <g id="xtick_4">
     <g id="line2d_4">
      <g>
       <use style="stroke:#000000;stroke-width:0.8;" x="685.001815" xlink:href="#mf6489aef46" y="256.32"/>
      </g>
     </g>
     <g id="text_4">
      <!-- 0.6 -->
      <g transform="translate(677.050252 270.918437)scale(0.1 -0.1)">
       <defs>
        <path d="M 33.015625 40.375 
Q 26.375 40.375 22.484375 35.828125 
Q 18.609375 31.296875 18.609375 23.390625 
Q 18.609375 15.53125 22.484375 10.953125 
Q 26.375 6.390625 33.015625 6.390625 
Q 39.65625 6.390625 43.53125 10.953125 
Q 47.40625 15.53125 47.40625 23.390625 
Q 47.40625 31.296875 43.53125 35.828125 
Q 39.65625 40.375 33.015625 40.375 
z
M 52.59375 71.296875 
L 52.59375 62.3125 
Q 48.875 64.0625 45.09375 64.984375 
Q 41.3125 65.921875 37.59375 65.921875 
Q 27.828125 65.921875 22.671875 59.328125 
Q 17.53125 52.734375 16.796875 39.40625 
Q 19.671875 43.65625 24.015625 45.921875 
Q 28.375 48.1875 33.59375 48.1875 
Q 44.578125 48.1875 50.953125 41.515625 
Q 57.328125 34.859375 57.328125 23.390625 
Q 57.328125 12.15625 50.6875 5.359375 
Q 44.046875 -1.421875 33.015625 -1.421875 
Q 20.359375 -1.421875 13.671875 8.265625 
Q 6.984375 17.96875 6.984375 36.375 
Q 6.984375 53.65625 15.1875 63.9375 
Q 23.390625 74.21875 37.203125 74.21875 
Q 40.921875 74.21875 44.703125 73.484375 
Q 48.484375 72.75 52.59375 71.296875 
z
" id="DejaVuSans-54"/>
       </defs>
       <use xlink:href="#DejaVuSans-48"/>
       <use x="63.623047" xlink:href="#DejaVuSans-46"/>
       <use x="95.410156" xlink:href="#DejaVuSans-54"/>
      </g>
     </g>
    </g>
    <g id="xtick_5">
     <g id="line2d_5">
      <g>
       <use style="stroke:#000000;stroke-width:0.8;" x="851.80848" xlink:href="#mf6489aef46" y="256.32"/>
      </g>
     </g>
     <g id="text_5">
      <!-- 0.8 -->
      <g transform="translate(843.856918 270.918437)scale(0.1 -0.1)">
       <defs>
        <path d="M 31.78125 34.625 
Q 24.75 34.625 20.71875 30.859375 
Q 16.703125 27.09375 16.703125 20.515625 
Q 16.703125 13.921875 20.71875 10.15625 
Q 24.75 6.390625 31.78125 6.390625 
Q 38.8125 6.390625 42.859375 10.171875 
Q 46.921875 13.96875 46.921875 20.515625 
Q 46.921875 27.09375 42.890625 30.859375 
Q 38.875 34.625 31.78125 34.625 
z
M 21.921875 38.8125 
Q 15.578125 40.375 12.03125 44.71875 
Q 8.5 49.078125 8.5 55.328125 
Q 8.5 64.0625 14.71875 69.140625 
Q 20.953125 74.21875 31.78125 74.21875 
Q 42.671875 74.21875 48.875 69.140625 
Q 55.078125 64.0625 55.078125 55.328125 
Q 55.078125 49.078125 51.53125 44.71875 
Q 48 40.375 41.703125 38.8125 
Q 48.828125 37.15625 52.796875 32.3125 
Q 56.78125 27.484375 56.78125 20.515625 
Q 56.78125 9.90625 50.3125 4.234375 
Q 43.84375 -1.421875 31.78125 -1.421875 
Q 19.734375 -1.421875 13.25 4.234375 
Q 6.78125 9.90625 6.78125 20.515625 
Q 6.78125 27.484375 10.78125 32.3125 
Q 14.796875 37.15625 21.921875 38.8125 
z
M 18.3125 54.390625 
Q 18.3125 48.734375 21.84375 45.5625 
Q 25.390625 42.390625 31.78125 42.390625 
Q 38.140625 42.390625 41.71875 45.5625 
Q 45.3125 48.734375 45.3125 54.390625 
Q 45.3125 60.0625 41.71875 63.234375 
Q 38.140625 66.40625 31.78125 66.40625 
Q 25.390625 66.40625 21.84375 63.234375 
Q 18.3125 60.0625 18.3125 54.390625 
z
" id="DejaVuSans-56"/>
       </defs>
       <use xlink:href="#DejaVuSans-48"/>
       <use x="63.623047" xlink:href="#DejaVuSans-46"/>
       <use x="95.410156" xlink:href="#DejaVuSans-56"/>
      </g>
     </g>
    </g>
    <g id="xtick_6">
     <g id="line2d_6">
      <g>
       <use style="stroke:#000000;stroke-width:0.8;" x="1018.615146" xlink:href="#mf6489aef46" y="256.32"/>
      </g>
     </g>
     <g id="text_6">
      <!-- 1.0 -->
      <g transform="translate(1010.663583 270.918437)scale(0.1 -0.1)">
       <defs>
        <path d="M 12.40625 8.296875 
L 28.515625 8.296875 
L 28.515625 63.921875 
L 10.984375 60.40625 
L 10.984375 69.390625 
L 28.421875 72.90625 
L 38.28125 72.90625 
L 38.28125 8.296875 
L 54.390625 8.296875 
L 54.390625 0 
L 12.40625 0 
z
" id="DejaVuSans-49"/>
       </defs>
       <use xlink:href="#DejaVuSans-49"/>
       <use x="63.623047" xlink:href="#DejaVuSans-46"/>
       <use x="95.410156" xlink:href="#DejaVuSans-48"/>
      </g>
     </g>
    </g>
    <g id="text_7">
     <!-- Time [s] -->
     <g transform="translate(570.071094 284.596563)scale(0.1 -0.1)">
      <defs>
       <path d="M -0.296875 72.90625 
L 61.375 72.90625 
L 61.375 64.59375 
L 35.5 64.59375 
L 35.5 0 
L 25.59375 0 
L 25.59375 64.59375 
L -0.296875 64.59375 
z
" id="DejaVuSans-84"/>
       <path d="M 9.421875 54.6875 
L 18.40625 54.6875 
L 18.40625 0 
L 9.421875 0 
z
M 9.421875 75.984375 
L 18.40625 75.984375 
L 18.40625 64.59375 
L 9.421875 64.59375 
z
" id="DejaVuSans-105"/>
       <path d="M 52 44.1875 
Q 55.375 50.25 60.0625 53.125 
Q 64.75 56 71.09375 56 
Q 79.640625 56 84.28125 50.015625 
Q 88.921875 44.046875 88.921875 33.015625 
L 88.921875 0 
L 79.890625 0 
L 79.890625 32.71875 
Q 79.890625 40.578125 77.09375 44.375 
Q 74.3125 48.1875 68.609375 48.1875 
Q 61.625 48.1875 57.5625 43.546875 
Q 53.515625 38.921875 53.515625 30.90625 
L 53.515625 0 
L 44.484375 0 
L 44.484375 32.71875 
Q 44.484375 40.625 41.703125 44.40625 
Q 38.921875 48.1875 33.109375 48.1875 
Q 26.21875 48.1875 22.15625 43.53125 
Q 18.109375 38.875 18.109375 30.90625 
L 18.109375 0 
L 9.078125 0 
L 9.078125 54.6875 
L 18.109375 54.6875 
L 18.109375 46.1875 
Q 21.1875 51.21875 25.484375 53.609375 
Q 29.78125 56 35.6875 56 
Q 41.65625 56 45.828125 52.96875 
Q 50 49.953125 52 44.1875 
z
" id="DejaVuSans-109"/>
       <path d="M 56.203125 29.59375 
L 56.203125 25.203125 
L 14.890625 25.203125 
Q 15.484375 15.921875 20.484375 11.0625 
Q 25.484375 6.203125 34.421875 6.203125 
Q 39.59375 6.203125 44.453125 7.46875 
Q 49.3125 8.734375 54.109375 11.28125 
L 54.109375 2.78125 
Q 49.265625 0.734375 44.1875 -0.34375 
Q 39.109375 -1.421875 33.890625 -1.421875 
Q 20.796875 -1.421875 13.15625 6.1875 
Q 5.515625 13.8125 5.515625 26.8125 
Q 5.515625 40.234375 12.765625 48.109375 
Q 20.015625 56 32.328125 56 
Q 43.359375 56 49.78125 48.890625 
Q 56.203125 41.796875 56.203125 29.59375 
z
M 47.21875 32.234375 
Q 47.125 39.59375 43.09375 43.984375 
Q 39.0625 48.390625 32.421875 48.390625 
Q 24.90625 48.390625 20.390625 44.140625 
Q 15.875 39.890625 15.1875 32.171875 
z
" id="DejaVuSans-101"/>
       <path id="DejaVuSans-32"/>
       <path d="M 8.59375 75.984375 
L 29.296875 75.984375 
L 29.296875 69 
L 17.578125 69 
L 17.578125 -6.203125 
L 29.296875 -6.203125 
L 29.296875 -13.1875 
L 8.59375 -13.1875 
z
" id="DejaVuSans-91"/>
       <path d="M 44.28125 53.078125 
L 44.28125 44.578125 
Q 40.484375 46.53125 36.375 47.5 
Q 32.28125 48.484375 27.875 48.484375 
Q 21.1875 48.484375 17.84375 46.4375 
Q 14.5 44.390625 14.5 40.28125 
Q 14.5 37.15625 16.890625 35.375 
Q 19.28125 33.59375 26.515625 31.984375 
L 29.59375 31.296875 
Q 39.15625 29.25 43.1875 25.515625 
Q 47.21875 21.78125 47.21875 15.09375 
Q 47.21875 7.46875 41.1875 3.015625 
Q 35.15625 -1.421875 24.609375 -1.421875 
Q 20.21875 -1.421875 15.453125 -0.5625 
Q 10.6875 0.296875 5.421875 2 
L 5.421875 11.28125 
Q 10.40625 8.6875 15.234375 7.390625 
Q 20.0625 6.109375 24.8125 6.109375 
Q 31.15625 6.109375 34.5625 8.28125 
Q 37.984375 10.453125 37.984375 14.40625 
Q 37.984375 18.0625 35.515625 20.015625 
Q 33.0625 21.96875 24.703125 23.78125 
L 21.578125 24.515625 
Q 13.234375 26.265625 9.515625 29.90625 
Q 5.8125 33.546875 5.8125 39.890625 
Q 5.8125 47.609375 11.28125 51.796875 
Q 16.75 56 26.8125 56 
Q 31.78125 56 36.171875 55.265625 
Q 40.578125 54.546875 44.28125 53.078125 
z
" id="DejaVuSans-115"/>
       <path d="M 30.421875 75.984375 
L 30.421875 -13.1875 
L 9.71875 -13.1875 
L 9.71875 -6.203125 
L 21.390625 -6.203125 
L 21.390625 69 
L 9.71875 69 
L 9.71875 75.984375 
z
" id="DejaVuSans-93"/>
      </defs>
      <use xlink:href="#DejaVuSans-84"/>
      <use x="57.958984" xlink:href="#DejaVuSans-105"/>
      <use x="85.742188" xlink:href="#DejaVuSans-109"/>
      <use x="183.154297" xlink:href="#DejaVuSans-101"/>
      <use x="244.677734" xlink:href="#DejaVuSans-32"/>
      <use x="276.464844" xlink:href="#DejaVuSans-91"/>
      <use x="315.478516" xlink:href="#DejaVuSans-115"/>
      <use x="367.578125" xlink:href="#DejaVuSans-93"/>
     </g>
    </g>
    <g id="text_8">
     <!-- 1e−8 -->
     <g transform="translate(1009.542187 283.596563)scale(0.1 -0.1)">
      <defs>
       <path d="M 10.59375 35.5 
L 73.1875 35.5 
L 73.1875 27.203125 
L 10.59375 27.203125 
z
" id="DejaVuSans-8722"/>
      </defs>
      <use xlink:href="#DejaVuSans-49"/>
      <use x="63.623047" xlink:href="#DejaVuSans-101"/>
      <use x="125.146484" xlink:href="#DejaVuSans-8722"/>
      <use x="208.935547" xlink:href="#DejaVuSans-56"/>
     </g>
    </g>
   </g>
   <g id="matplotlib.axis_2">
    <g id="ytick_1">
     <g id="line2d_7">
      <defs>
       <path d="M 0 0 
L -3.5 0 
" id="m2ee20908c4" style="stroke:#000000;stroke-width:0.8;"/>
      </defs>
      <g>
       <use style="stroke:#000000;stroke-width:0.8;" x="144" xlink:href="#m2ee20908c4" y="229.237267"/>
      </g>
     </g>
     <g id="text_9">
      <!-- −0.50 -->
      <g transform="translate(106.354687 233.036486)scale(0.1 -0.1)">
       <defs>
        <path d="M 10.796875 72.90625 
L 49.515625 72.90625 
L 49.515625 64.59375 
L 19.828125 64.59375 
L 19.828125 46.734375 
Q 21.96875 47.46875 24.109375 47.828125 
Q 26.265625 48.1875 28.421875 48.1875 
Q 40.625 48.1875 47.75 41.5 
Q 54.890625 34.8125 54.890625 23.390625 
Q 54.890625 11.625 47.5625 5.09375 
Q 40.234375 -1.421875 26.90625 -1.421875 
Q 22.3125 -1.421875 17.546875 -0.640625 
Q 12.796875 0.140625 7.71875 1.703125 
L 7.71875 11.625 
Q 12.109375 9.234375 16.796875 8.0625 
Q 21.484375 6.890625 26.703125 6.890625 
Q 35.15625 6.890625 40.078125 11.328125 
Q 45.015625 15.765625 45.015625 23.390625 
Q 45.015625 31 40.078125 35.4375 
Q 35.15625 39.890625 26.703125 39.890625 
Q 22.75 39.890625 18.8125 39.015625 
Q 14.890625 38.140625 10.796875 36.28125 
z
" id="DejaVuSans-53"/>
       </defs>
       <use xlink:href="#DejaVuSans-8722"/>
       <use x="83.789062" xlink:href="#DejaVuSans-48"/>
       <use x="147.412109" xlink:href="#DejaVuSans-46"/>
       <use x="179.199219" xlink:href="#DejaVuSans-53"/>
       <use x="242.822266" xlink:href="#DejaVuSans-48"/>
      </g>
     </g>
    </g>
    <g id="ytick_2">
     <g id="line2d_8">
      <g>
       <use style="stroke:#000000;stroke-width:0.8;" x="144" xlink:href="#m2ee20908c4" y="202.12533"/>
      </g>
     </g>
     <g id="text_10">
      <!-- −0.25 -->
      <g transform="translate(106.354687 205.924548)scale(0.1 -0.1)">
       <use xlink:href="#DejaVuSans-8722"/>
       <use x="83.789062" xlink:href="#DejaVuSans-48"/>
       <use x="147.412109" xlink:href="#DejaVuSans-46"/>
       <use x="179.199219" xlink:href="#DejaVuSans-50"/>
       <use x="242.822266" xlink:href="#DejaVuSans-53"/>
      </g>
     </g>
    </g>
    <g id="ytick_3">
     <g id="line2d_9">
      <g>
       <use style="stroke:#000000;stroke-width:0.8;" x="144" xlink:href="#m2ee20908c4" y="175.013392"/>
      </g>
     </g>
     <g id="text_11">
      <!-- 0.00 -->
      <g transform="translate(114.734375 178.812611)scale(0.1 -0.1)">
       <use xlink:href="#DejaVuSans-48"/>
       <use x="63.623047" xlink:href="#DejaVuSans-46"/>
       <use x="95.410156" xlink:href="#DejaVuSans-48"/>
       <use x="159.033203" xlink:href="#DejaVuSans-48"/>
      </g>
     </g>
    </g>
    <g id="ytick_4">
     <g id="line2d_10">
      <g>
       <use style="stroke:#000000;stroke-width:0.8;" x="144" xlink:href="#m2ee20908c4" y="147.901454"/>
      </g>
     </g>
     <g id="text_12">
      <!-- 0.25 -->
      <g transform="translate(114.734375 151.700673)scale(0.1 -0.1)">
       <use xlink:href="#DejaVuSans-48"/>
       <use x="63.623047" xlink:href="#DejaVuSans-46"/>
       <use x="95.410156" xlink:href="#DejaVuSans-50"/>
       <use x="159.033203" xlink:href="#DejaVuSans-53"/>
      </g>
     </g>
    </g>
    <g id="ytick_5">
     <g id="line2d_11">
      <g>
       <use style="stroke:#000000;stroke-width:0.8;" x="144" xlink:href="#m2ee20908c4" y="120.789516"/>
      </g>
     </g>
     <g id="text_13">
      <!-- 0.50 -->
      <g transform="translate(114.734375 124.588735)scale(0.1 -0.1)">
       <use xlink:href="#DejaVuSans-48"/>
       <use x="63.623047" xlink:href="#DejaVuSans-46"/>
       <use x="95.410156" xlink:href="#DejaVuSans-53"/>
       <use x="159.033203" xlink:href="#DejaVuSans-48"/>
      </g>
     </g>
    </g>
    <g id="ytick_6">
     <g id="line2d_12">
      <g>
       <use style="stroke:#000000;stroke-width:0.8;" x="144" xlink:href="#m2ee20908c4" y="93.677579"/>
      </g>
     </g>
     <g id="text_14">
      <!-- 0.75 -->
      <g transform="translate(114.734375 97.476797)scale(0.1 -0.1)">
       <defs>
        <path d="M 8.203125 72.90625 
L 55.078125 72.90625 
L 55.078125 68.703125 
L 28.609375 0 
L 18.3125 0 
L 43.21875 64.59375 
L 8.203125 64.59375 
z
" id="DejaVuSans-55"/>
       </defs>
       <use xlink:href="#DejaVuSans-48"/>
       <use x="63.623047" xlink:href="#DejaVuSans-46"/>
       <use x="95.410156" xlink:href="#DejaVuSans-55"/>
       <use x="159.033203" xlink:href="#DejaVuSans-53"/>
      </g>
     </g>
    </g>
    <g id="ytick_7">
     <g id="line2d_13">
      <g>
       <use style="stroke:#000000;stroke-width:0.8;" x="144" xlink:href="#m2ee20908c4" y="66.565641"/>
      </g>
     </g>
     <g id="text_15">
      <!-- 1.00 -->
      <g transform="translate(114.734375 70.36486)scale(0.1 -0.1)">
       <use xlink:href="#DejaVuSans-49"/>
       <use x="63.623047" xlink:href="#DejaVuSans-46"/>
       <use x="95.410156" xlink:href="#DejaVuSans-48"/>
       <use x="159.033203" xlink:href="#DejaVuSans-48"/>
      </g>
     </g>
    </g>
    <g id="ytick_8">
     <g id="line2d_14">
      <g>
       <use style="stroke:#000000;stroke-width:0.8;" x="144" xlink:href="#m2ee20908c4" y="39.453703"/>
      </g>
     </g>
     <g id="text_16">
      <!-- 1.25 -->
      <g transform="translate(114.734375 43.252922)scale(0.1 -0.1)">
       <use xlink:href="#DejaVuSans-49"/>
       <use x="63.623047" xlink:href="#DejaVuSans-46"/>
       <use x="95.410156" xlink:href="#DejaVuSans-50"/>
       <use x="159.033203" xlink:href="#DejaVuSans-53"/>
      </g>
     </g>
    </g>
    <g id="text_17">
     <!-- Voltage [V] -->
     <g transform="translate(100.275 173.107188)rotate(-90)scale(0.1 -0.1)">
      <defs>
       <path d="M 28.609375 0 
L 0.78125 72.90625 
L 11.078125 72.90625 
L 34.1875 11.53125 
L 57.328125 72.90625 
L 67.578125 72.90625 
L 39.796875 0 
z
" id="DejaVuSans-86"/>
       <path d="M 30.609375 48.390625 
Q 23.390625 48.390625 19.1875 42.75 
Q 14.984375 37.109375 14.984375 27.296875 
Q 14.984375 17.484375 19.15625 11.84375 
Q 23.34375 6.203125 30.609375 6.203125 
Q 37.796875 6.203125 41.984375 11.859375 
Q 46.1875 17.53125 46.1875 27.296875 
Q 46.1875 37.015625 41.984375 42.703125 
Q 37.796875 48.390625 30.609375 48.390625 
z
M 30.609375 56 
Q 42.328125 56 49.015625 48.375 
Q 55.71875 40.765625 55.71875 27.296875 
Q 55.71875 13.875 49.015625 6.21875 
Q 42.328125 -1.421875 30.609375 -1.421875 
Q 18.84375 -1.421875 12.171875 6.21875 
Q 5.515625 13.875 5.515625 27.296875 
Q 5.515625 40.765625 12.171875 48.375 
Q 18.84375 56 30.609375 56 
z
" id="DejaVuSans-111"/>
       <path d="M 9.421875 75.984375 
L 18.40625 75.984375 
L 18.40625 0 
L 9.421875 0 
z
" id="DejaVuSans-108"/>
       <path d="M 18.3125 70.21875 
L 18.3125 54.6875 
L 36.8125 54.6875 
L 36.8125 47.703125 
L 18.3125 47.703125 
L 18.3125 18.015625 
Q 18.3125 11.328125 20.140625 9.421875 
Q 21.96875 7.515625 27.59375 7.515625 
L 36.8125 7.515625 
L 36.8125 0 
L 27.59375 0 
Q 17.1875 0 13.234375 3.875 
Q 9.28125 7.765625 9.28125 18.015625 
L 9.28125 47.703125 
L 2.6875 47.703125 
L 2.6875 54.6875 
L 9.28125 54.6875 
L 9.28125 70.21875 
z
" id="DejaVuSans-116"/>
       <path d="M 34.28125 27.484375 
Q 23.390625 27.484375 19.1875 25 
Q 14.984375 22.515625 14.984375 16.5 
Q 14.984375 11.71875 18.140625 8.90625 
Q 21.296875 6.109375 26.703125 6.109375 
Q 34.1875 6.109375 38.703125 11.40625 
Q 43.21875 16.703125 43.21875 25.484375 
L 43.21875 27.484375 
z
M 52.203125 31.203125 
L 52.203125 0 
L 43.21875 0 
L 43.21875 8.296875 
Q 40.140625 3.328125 35.546875 0.953125 
Q 30.953125 -1.421875 24.3125 -1.421875 
Q 15.921875 -1.421875 10.953125 3.296875 
Q 6 8.015625 6 15.921875 
Q 6 25.140625 12.171875 29.828125 
Q 18.359375 34.515625 30.609375 34.515625 
L 43.21875 34.515625 
L 43.21875 35.40625 
Q 43.21875 41.609375 39.140625 45 
Q 35.0625 48.390625 27.6875 48.390625 
Q 23 48.390625 18.546875 47.265625 
Q 14.109375 46.140625 10.015625 43.890625 
L 10.015625 52.203125 
Q 14.9375 54.109375 19.578125 55.046875 
Q 24.21875 56 28.609375 56 
Q 40.484375 56 46.34375 49.84375 
Q 52.203125 43.703125 52.203125 31.203125 
z
" id="DejaVuSans-97"/>
       <path d="M 45.40625 27.984375 
Q 45.40625 37.75 41.375 43.109375 
Q 37.359375 48.484375 30.078125 48.484375 
Q 22.859375 48.484375 18.828125 43.109375 
Q 14.796875 37.75 14.796875 27.984375 
Q 14.796875 18.265625 18.828125 12.890625 
Q 22.859375 7.515625 30.078125 7.515625 
Q 37.359375 7.515625 41.375 12.890625 
Q 45.40625 18.265625 45.40625 27.984375 
z
M 54.390625 6.78125 
Q 54.390625 -7.171875 48.1875 -13.984375 
Q 42 -20.796875 29.203125 -20.796875 
Q 24.46875 -20.796875 20.265625 -20.09375 
Q 16.0625 -19.390625 12.109375 -17.921875 
L 12.109375 -9.1875 
Q 16.0625 -11.328125 19.921875 -12.34375 
Q 23.78125 -13.375 27.78125 -13.375 
Q 36.625 -13.375 41.015625 -8.765625 
Q 45.40625 -4.15625 45.40625 5.171875 
L 45.40625 9.625 
Q 42.625 4.78125 38.28125 2.390625 
Q 33.9375 0 27.875 0 
Q 17.828125 0 11.671875 7.65625 
Q 5.515625 15.328125 5.515625 27.984375 
Q 5.515625 40.671875 11.671875 48.328125 
Q 17.828125 56 27.875 56 
Q 33.9375 56 38.28125 53.609375 
Q 42.625 51.21875 45.40625 46.390625 
L 45.40625 54.6875 
L 54.390625 54.6875 
z
" id="DejaVuSans-103"/>
      </defs>
      <use xlink:href="#DejaVuSans-86"/>
      <use x="60.658203" xlink:href="#DejaVuSans-111"/>
      <use x="121.839844" xlink:href="#DejaVuSans-108"/>
      <use x="149.623047" xlink:href="#DejaVuSans-116"/>
      <use x="188.832031" xlink:href="#DejaVuSans-97"/>
      <use x="250.111328" xlink:href="#DejaVuSans-103"/>
      <use x="313.587891" xlink:href="#DejaVuSans-101"/>
      <use x="375.111328" xlink:href="#DejaVuSans-32"/>
      <use x="406.898438" xlink:href="#DejaVuSans-91"/>
      <use x="445.912109" xlink:href="#DejaVuSans-86"/>
      <use x="514.320312" xlink:href="#DejaVuSans-93"/>
     </g>
    </g>
   </g>
   <g id="line2d_15">
    <path clip-path="url(#p5457f0ce5d)" d="M 184.581818 175.013382 
L 303.329649 175.124386 
L 309.768386 175.126688 
L 311.227944 174.882362 
L 312.353889 174.472228 
L 313.329708 173.880537 
L 314.255485 173.054179 
L 315.18218 171.919241 
L 316.149658 170.36745 
L 317.175519 168.285096 
L 318.301464 165.471731 
L 319.560855 161.693872 
L 321.012073 156.600677 
L 322.780223 149.533549 
L 325.165558 139.00182 
L 335.45753 92.480554 
L 337.801163 83.371388 
L 339.802843 76.448972 
L 341.621036 70.937658 
L 343.305783 66.51749 
L 344.890447 62.956391 
L 346.433408 60.019192 
L 347.934668 57.625642 
L 349.402567 55.683885 
L 350.837104 54.122454 
L 352.321684 52.810345 
L 353.864645 51.726952 
L 355.449309 50.868805 
L 357.050653 50.240676 
L 358.502204 49.903295 
L 359.65317 49.850155 
L 360.679031 50.026491 
L 361.596468 50.415927 
L 362.463863 51.028115 
L 363.347938 51.932244 
L 364.273715 53.211493 
L 365.266214 54.980168 
L 366.333777 57.348016 
L 367.526445 60.554057 
L 368.844217 64.749575 
L 370.370498 70.384965 
L 372.16367 77.904797 
L 374.40722 88.337666 
L 377.843437 105.519639 
L 382.614108 129.213369 
L 384.807615 138.981074 
L 386.542405 145.740936 
L 388.052005 150.766329 
L 389.42816 154.604501 
L 390.720912 157.573811 
L 391.946941 159.854565 
L 393.131268 161.603654 
L 394.265553 162.895863 
L 395.341456 163.797997 
L 396.350637 164.366879 
L 397.309775 164.658372 
L 398.218871 164.705205 
L 399.102947 164.528444 
L 399.987022 164.121312 
L 400.879438 163.461548 
L 401.805215 162.492643 
L 402.773694 161.143857 
L 403.791215 159.331478 
L 404.892139 156.895069 
L 406.101487 153.651755 
L 407.469302 149.316003 
L 409.087326 143.407791 
L 411.147389 134.985674 
L 414.416799 120.546572 
L 419.838016 96.688012 
L 422.44854 86.216861 
L 424.575325 78.566328 
L 426.468581 72.561218 
L 428.211711 67.748969 
L 429.863097 63.823973 
L 431.431079 60.645044 
L 432.999062 57.962156 
L 434.533683 55.771294 
L 436.135027 53.890702 
L 437.719691 52.383061 
L 439.273328 51.195667 
L 440.883012 50.220179 
L 442.701205 49.376672 
L 444.477696 48.780101 
L 446.170783 48.432418 
L 447.538598 48.366265 
L 448.772967 48.540323 
L 449.823849 48.913492 
L 450.858051 49.519498 
L 451.867231 50.361812 
L 452.968155 51.574475 
L 454.152482 53.213554 
L 455.503616 55.469159 
L 457.138322 58.653185 
L 459.323489 63.455251 
L 465.962394 78.456568 
L 467.572079 81.369496 
L 468.914872 83.362202 
L 470.090859 84.726898 
L 471.150082 85.626667 
L 472.11756 86.166151 
L 473.034997 86.427651 
L 473.927413 86.451846 
L 474.828169 86.251456 
L 475.762286 85.810649 
L 476.746445 85.093603 
L 477.797327 84.04269 
L 478.923272 82.588915 
L 480.152554 80.622779 
L 481.578751 77.899006 
L 483.522049 73.659588 
L 488.084211 63.565109 
L 489.952446 60.047931 
L 491.703916 57.217445 
L 493.388663 54.917268 
L 495.040049 53.033205 
L 496.699775 51.466461 
L 498.526308 50.066942 
L 500.452925 48.897225 
L 502.487966 47.937354 
L 504.623092 47.169218 
L 507.133532 46.501723 
L 510.32788 45.909272 
L 513.922563 45.460407 
L 520.252876 44.9956 
L 522.738296 45.009807 
L 524.072749 45.223991 
L 525.115291 45.595425 
L 526.074429 46.165643 
L 526.983525 46.963927 
L 527.917643 48.094495 
L 528.902886 49.667855 
L 529.937088 51.766102 
L 531.079713 54.624893 
L 532.339103 58.419913 
L 533.698578 63.234668 
L 535.291581 69.739213 
L 537.126455 78.219697 
L 539.386685 89.787026 
L 542.681117 107.947166 
L 547.718678 135.638226 
L 549.753719 145.545817 
L 551.363404 152.329365 
L 552.77292 157.344976 
L 554.065672 161.157196 
L 555.300041 164.127266 
L 556.492709 166.436783 
L 557.677036 168.258929 
L 558.878044 169.705853 
L 560.120754 170.858625 
L 561.438526 171.780218 
L 562.889744 172.522534 
L 564.53279 173.108983 
L 566.376004 173.528895 
L 568.144154 173.711968 
L 569.562011 173.644453 
L 570.722652 173.37134 
L 571.731832 172.907636 
L 572.67429 172.227664 
L 573.608407 171.270198 
L 574.559205 169.966071 
L 575.560045 168.201979 
L 576.635948 165.836783 
L 577.820275 162.671864 
L 579.154729 158.442673 
L 580.722711 152.696265 
L 582.69103 144.579027 
L 585.585126 131.590088 
L 592.582665 99.929581 
L 595.309954 88.732621 
L 597.486781 80.693401 
L 599.371697 74.550985 
L 601.081465 69.711732 
L 602.674468 65.84891 
L 604.167388 62.781031 
L 605.618606 60.279684 
L 607.103185 58.167989 
L 608.504361 56.544852 
L 609.947239 55.204004 
L 611.323394 54.202272 
L 612.71623 53.4465 
L 613.933918 53.013359 
L 615.077295 52.844831 
L 616.036433 52.93018 
L 616.928849 53.239798 
L 617.796243 53.791147 
L 618.663638 54.62088 
L 619.539373 55.76392 
L 620.531873 57.447679 
L 621.599435 59.727034 
L 622.775422 62.795021 
L 624.059834 66.78772 
L 625.527732 72.109284 
L 627.22082 79.12273 
L 629.280882 88.657055 
L 632.108255 102.893273 
L 638.805543 136.969498 
L 640.765521 145.599022 
L 642.358525 151.657021 
L 643.768041 156.182448 
L 645.085814 159.689887 
L 646.336864 162.409573 
L 647.562893 164.557343 
L 648.772241 166.239716 
L 649.98993 167.560905 
L 651.215959 168.570547 
L 652.450328 169.303997 
L 653.642996 169.759427 
L 654.753595 169.951594 
L 655.779456 169.907623 
L 656.738594 169.645576 
L 657.664371 169.160163 
L 658.590148 168.416137 
L 659.532606 167.363175 
L 660.516765 165.916145 
L 661.559307 163.970418 
L 662.685252 161.377464 
L 663.927961 157.93363 
L 665.345818 153.318701 
L 667.038905 147.007487 
L 669.232413 137.907907 
L 673.018924 121.074832 
L 677.847977 99.883577 
L 680.591947 88.821028 
L 682.735413 81.06529 
L 684.570286 75.227797 
L 686.230012 70.659544 
L 687.789655 66.999161 
L 689.265894 64.083163 
L 690.725452 61.691457 
L 692.118288 59.825396 
L 693.461081 58.373932 
L 694.812632 57.226988 
L 696.139496 56.395845 
L 697.323823 55.919651 
L 698.324663 55.748303 
L 699.225419 55.81207 
L 700.059453 56.086877 
L 700.901826 56.603197 
L 701.760881 57.400288 
L 702.694998 58.596575 
L 703.670817 60.224592 
L 704.75506 62.48909 
L 705.964409 65.567054 
L 707.315543 69.653723 
L 708.858504 75.068031 
L 710.685037 82.33017 
L 713.028671 92.623423 
L 717.282241 112.53302 
L 720.718458 128.126679 
L 722.836903 136.751822 
L 724.563352 142.890767 
L 726.072952 147.47045 
L 727.440767 150.939119 
L 728.708497 153.571894 
L 729.892825 155.538074 
L 730.993749 156.952959 
L 732.01961 157.923512 
L 732.970408 158.528911 
L 733.871164 158.844776 
L 734.738558 158.914432 
L 735.597613 158.757584 
L 736.465007 158.368701 
L 737.357423 157.718784 
L 738.2832 156.76182 
L 739.250679 155.432793 
L 740.27654 153.632462 
L 741.377464 151.234834 
L 742.595152 148.024152 
L 743.971307 143.736117 
L 745.597672 137.900543 
L 747.683923 129.523356 
L 751.061758 114.894004 
L 755.974215 93.783988 
L 758.467974 84.047581 
L 760.528036 76.862451 
L 762.37125 71.209677 
L 764.097699 66.611764 
L 765.740745 62.850872 
L 767.36711 59.683438 
L 768.976794 57.042302 
L 770.578138 54.845692 
L 772.187822 53.012926 
L 773.88925 51.423298 
L 775.715783 50.047422 
L 777.500615 48.974114 
L 779.535656 48.015002 
L 781.63742 47.259989 
L 784.072797 46.616243 
L 786.90017 46.104478 
L 789.343888 45.866869 
L 790.878509 45.916972 
L 792.104538 46.188092 
L 793.088698 46.636306 
L 794.006134 47.299573 
L 794.90689 48.229621 
L 795.857688 49.552575 
L 796.841848 51.320924 
L 797.926091 53.754708 
L 799.110418 56.992199 
L 800.428191 61.279789 
L 801.879409 66.778752 
L 803.564156 74.070084 
L 805.557496 83.73908 
L 808.092957 97.218278 
L 813.188901 125.881453 
L 815.92453 140.472588 
L 817.734382 148.978763 
L 819.227302 154.977746 
L 820.570096 159.490072 
L 821.821146 162.947799 
L 823.030494 165.658118 
L 824.214821 167.781165 
L 825.390808 169.446376 
L 826.591816 170.770489 
L 827.851207 171.830688 
L 829.202341 172.677249 
L 830.703601 173.353219 
L 832.44673 173.888965 
L 834.581856 174.303492 
L 837.392548 174.6093 
L 841.546034 174.817571 
L 849.110716 174.94014 
L 871.23762 175.007679 
L 996.218182 175.013384 
L 996.218182 175.013384 
" style="fill:none;stroke:#ff0000;stroke-linecap:square;stroke-width:1.5;"/>
   </g>
   <g id="line2d_16">
    <path clip-path="url(#p5457f0ce5d)" d="M 184.581818 44.876091 
L 319.911149 44.76504 
L 327.242301 44.685006 
L 328.785263 44.916325 
L 329.894527 45.304026 
L 330.887027 45.89127 
L 331.804464 46.695952 
L 332.70522 47.777936 
L 333.664358 49.286661 
L 334.7069 51.370376 
L 335.816164 54.104561 
L 337.050533 57.76272 
L 338.435029 62.59949 
L 339.986331 68.860959 
L 341.787843 77.097176 
L 343.97301 88.184331 
L 346.98387 104.714436 
L 353.005591 137.971186 
L 354.923868 147.176589 
L 356.47517 153.58365 
L 357.851658 158.364591 
L 359.13607 162.048626 
L 360.362099 164.908734 
L 361.554766 167.141766 
L 362.739094 168.898193 
L 363.940102 170.288555 
L 365.182811 171.392405 
L 366.517264 172.281235 
L 367.993503 172.995321 
L 369.694931 173.567007 
L 371.754994 174.016381 
L 374.207052 174.319956 
L 376.300475 174.373009 
L 377.801735 174.198942 
L 379.011084 173.83932 
L 380.070306 173.293495 
L 381.071146 172.523387 
L 382.063646 171.47095 
L 383.089507 170.046754 
L 384.17375 168.146052 
L 385.349737 165.615659 
L 386.650829 162.263732 
L 388.135408 157.793418 
L 389.903559 151.722676 
L 392.18047 143.053319 
L 396.292254 126.336087 
L 400.120467 111.158456 
L 402.531908 102.479784 
L 404.42508 96.425233 
L 406.109827 91.742491 
L 407.611087 88.203527 
L 408.970562 85.544464 
L 410.229952 83.549058 
L 411.405939 82.085913 
L 412.498523 81.066504 
L 413.507703 80.416664 
L 414.43348 80.075411 
L 415.292534 79.989748 
L 416.118227 80.13163 
L 416.92724 80.498607 
L 417.761273 81.127788 
L 418.637008 82.076196 
L 419.579466 83.437584 
L 420.605327 85.327633 
L 421.731272 87.889831 
L 422.973981 91.293149 
L 424.375157 95.810236 
L 425.976501 101.76186 
L 427.869757 109.698912 
L 430.330155 121.044813 
L 436.118347 148.112385 
L 437.769733 154.530768 
L 439.189924 159.192524 
L 440.491016 162.73125 
L 441.733726 165.488289 
L 442.943074 167.645876 
L 444.144082 169.345908 
L 445.361771 170.693532 
L 446.637842 171.776894 
L 448.005657 172.645364 
L 449.523597 173.342053 
L 451.275067 173.895972 
L 453.410193 174.329942 
L 456.204204 174.658721 
L 460.265947 174.89417 
L 466.738045 175.027037 
L 474.269366 174.962286 
L 485.55709 174.881921 
L 533.00633 175.096605 
L 541.163176 175.115426 
L 542.606054 174.85918 
L 543.723658 174.438533 
L 544.707818 173.828657 
L 545.641935 172.981253 
L 546.576052 171.824678 
L 547.551871 170.249881 
L 548.594413 168.127963 
L 549.737039 165.272421 
L 551.01311 161.452944 
L 552.489349 156.291916 
L 554.28252 149.16204 
L 556.701217 138.555102 
L 566.876424 92.921156 
L 569.228398 83.816338 
L 571.214731 76.983924 
L 572.974542 71.696185 
L 574.600907 67.486644 
L 576.143868 64.09108 
L 577.628448 61.34681 
L 579.046304 59.166576 
L 580.497522 57.336087 
L 581.856997 55.947413 
L 583.324895 54.760778 
L 584.767773 53.882893 
L 586.102226 53.330461 
L 587.228171 53.09437 
L 588.254032 53.112264 
L 589.138108 53.349005 
L 590.005502 53.818367 
L 590.856216 54.537918 
L 591.765313 55.617732 
L 592.69943 57.080584 
L 593.741972 59.147923 
L 594.851236 61.852068 
L 596.118967 65.565319 
L 597.511802 70.370487 
L 599.096466 76.674533 
L 600.948019 84.999026 
L 603.258292 96.480498 
L 606.827954 115.513945 
L 610.939739 137.152005 
L 612.949759 146.562818 
L 614.551103 153.048558 
L 615.95303 157.84197 
L 617.245781 161.505877 
L 618.480151 164.360879 
L 619.681159 166.596189 
L 620.873826 168.358928 
L 622.083175 169.758259 
L 623.342565 170.879372 
L 624.685359 171.778103 
L 626.161598 172.497266 
L 627.821324 173.055954 
L 629.622836 173.428723 
L 631.265882 173.550523 
L 632.617016 173.434209 
L 633.759641 173.115207 
L 634.777162 172.60112 
L 635.744641 171.860498 
L 636.712119 170.831651 
L 637.704619 169.441537 
L 638.755501 167.572313 
L 639.889786 165.079744 
L 641.132496 161.789306 
L 642.542012 157.39908 
L 644.201739 151.465145 
L 646.303502 143.06989 
L 649.531211 129.1397 
L 655.529246 103.231728 
L 658.164791 92.870912 
L 660.241534 85.570339 
L 662.026365 80.080226 
L 663.636049 75.824129 
L 665.128969 72.484307 
L 666.538485 69.85844 
L 667.881279 67.812725 
L 669.15735 66.259818 
L 670.383379 65.114393 
L 671.442601 64.401458 
L 672.443441 63.979921 
L 673.360878 63.831239 
L 674.211592 63.918757 
L 675.053966 64.240196 
L 675.854638 64.779398 
L 676.747053 65.666175 
L 677.67283 66.918693 
L 678.67367 68.664354 
L 679.766254 71.037842 
L 680.967262 74.20136 
L 682.301715 78.367001 
L 683.819656 83.868306 
L 685.587807 91.157502 
L 687.756293 101.097942 
L 690.91728 116.75179 
L 695.530652 139.498738 
L 697.507311 148.099415 
L 699.091974 154.050951 
L 700.49315 158.487733 
L 701.794242 161.897645 
L 703.036952 164.552936 
L 704.25464 166.645674 
L 705.472329 168.305995 
L 706.715039 169.629992 
L 708.00779 170.686462 
L 709.392286 171.532037 
L 710.901886 172.1925 
L 712.51157 172.654837 
L 714.062872 172.875761 
L 715.439027 172.85359 
L 716.640035 172.616892 
L 717.732619 172.175668 
L 718.76682 171.515084 
L 719.792681 170.588541 
L 720.843563 169.328913 
L 721.944487 167.650301 
L 723.128814 165.42389 
L 724.429906 162.48502 
L 725.897805 158.596213 
L 727.632594 153.334003 
L 729.834442 145.888978 
L 733.645975 132.057021 
L 737.28236 119.189034 
L 739.567611 111.893547 
L 741.419165 106.691471 
L 743.012169 102.850024 
L 744.430026 99.986494 
L 745.722777 97.855235 
L 746.916613 96.296483 
L 748.025877 95.197778 
L 749.051738 94.481849 
L 749.994196 94.084984 
L 750.869931 93.951138 
L 751.703964 94.047158 
L 752.529657 94.371004 
L 753.36369 94.943034 
L 754.239425 95.821569 
L 755.181883 97.095982 
L 756.207744 98.877084 
L 757.325349 101.282304 
L 758.568058 104.507984 
L 759.960894 108.767823 
L 761.570578 114.442221 
L 763.513876 122.157704 
L 766.341249 134.410825 
L 769.719084 148.850838 
L 771.437192 155.218142 
L 772.88841 159.7776 
L 774.206183 163.215643 
L 775.457233 165.882604 
L 776.674922 167.972205 
L 777.88427 169.618573 
L 779.118639 170.929808 
L 780.403051 171.973203 
L 781.787546 172.810788 
L 783.330508 173.480308 
L 785.123679 174.009095 
L 787.317187 174.414564 
L 790.211283 174.709831 
L 794.706722 174.919543 
L 806.608378 175.177008 
L 808.826906 175.062358 
L 810.17804 174.774881 
L 811.253943 174.321362 
L 812.213082 173.674666 
L 813.138859 172.774757 
L 814.072976 171.545863 
L 815.048795 169.882409 
L 816.099677 167.632838 
L 817.250643 164.619367 
L 818.543395 160.583106 
L 820.052995 155.103437 
L 821.92123 147.430205 
L 824.548435 135.60606 
L 832.913789 97.365507 
L 835.474271 86.940186 
L 837.592716 79.207721 
L 839.477631 73.138648 
L 841.220761 68.247199 
L 842.888828 64.210264 
L 844.498512 60.881894 
L 846.099856 58.078628 
L 847.69286 55.73876 
L 849.285863 53.789411 
L 850.978951 52.083528 
L 852.788803 50.608639 
L 854.590315 49.434041 
L 856.683739 48.364204 
L 858.7021 47.56733 
L 861.045733 46.861878 
L 863.814724 46.256305 
L 867.167538 45.758855 
L 871.412767 45.373649 
L 877.392786 45.096023 
L 883.414507 44.972284 
L 898.410426 44.888345 
L 996.218182 44.876091 
L 996.218182 44.876091 
" style="fill:none;stroke:#008000;stroke-linecap:square;stroke-width:1.5;"/>
   </g>
   <g id="line2d_17">
    <path clip-path="url(#p5457f0ce5d)" d="M 184.581818 44.876091 
L 305.714984 44.986575 
L 312.554057 45.225994 
L 316.766843 45.586636 
L 319.852766 46.067879 
L 322.271463 46.660536 
L 324.356546 47.398656 
L 326.191419 48.290348 
L 327.776083 49.301685 
L 329.277343 50.522501 
L 330.695199 51.965838 
L 332.029653 53.636055 
L 333.364106 55.665174 
L 334.698559 58.112948 
L 336.033013 61.040701 
L 337.367466 64.507066 
L 338.785323 68.835836 
L 340.286583 74.186468 
L 341.871246 80.696143 
L 343.622716 88.84639 
L 345.874606 100.475347 
L 352.129856 133.52327 
L 353.964729 141.686644 
L 355.632796 148.100704 
L 357.134056 153.01904 
L 358.602288 157.070567 
L 360.020145 160.322379 
L 361.354598 162.847745 
L 362.689052 164.913153 
L 364.023505 166.575559 
L 365.357958 167.887703 
L 366.692411 168.896112 
L 368.026865 169.640101 
L 369.444721 170.17628 
L 370.862578 170.478656 
L 372.363838 170.565889 
L 373.865098 170.42627 
L 375.366358 170.062872 
L 376.867618 169.469347 
L 378.368878 168.630481 
L 379.870138 167.522755 
L 381.287995 166.201719 
L 382.705851 164.581427 
L 384.123708 162.625977 
L 385.541565 160.296918 
L 387.042825 157.380725 
L 388.544085 153.960299 
L 390.128748 149.766699 
L 391.796815 144.684946 
L 393.548285 138.62588 
L 395.549965 130.88292 
L 398.135468 119.922011 
L 403.949681 94.953753 
L 405.867958 87.855209 
L 407.452621 82.777625 
L 408.870478 78.93929 
L 410.121528 76.156387 
L 411.205771 74.228192 
L 412.206611 72.861614 
L 413.124048 71.966596 
L 413.958081 71.455824 
L 414.708711 71.246733 
L 415.459341 71.278253 
L 416.209971 71.55317 
L 416.960601 72.073909 
L 417.794634 72.943148 
L 418.712071 74.254491 
L 419.712911 76.10939 
L 420.797154 78.613814 
L 421.964801 81.872024 
L 423.299254 86.271137 
L 424.800514 91.996887 
L 426.635388 99.904188 
L 429.387698 112.880886 
L 433.140848 130.407824 
L 435.142528 138.682816 
L 436.893998 144.992276 
L 438.495342 149.929326 
L 439.948895 153.725309 
L 441.366751 156.833616 
L 442.784608 159.406042 
L 444.119061 161.392568 
L 445.536918 163.104885 
L 446.954775 164.473972 
L 448.539438 165.682886 
L 450.374311 166.783079 
L 456.220885 170.040659 
L 457.471935 171.132409 
L 458.639582 172.442947 
L 459.723825 173.985936 
L 460.808068 175.914135 
L 461.892312 178.296157 
L 463.059958 181.439506 
L 464.227605 185.237861 
L 465.478655 190.059329 
L 466.896512 196.415587 
L 468.731385 205.747157 
L 473.151762 228.740938 
L 474.569618 234.704402 
L 475.737265 238.715367 
L 476.738105 241.449223 
L 477.655542 243.377805 
L 478.489575 244.664483 
L 479.2935 245.504807 
L 480.04413 245.957593 
L 480.711356 246.110482 
L 481.378583 246.046766 
L 482.129213 245.738545 
L 482.963246 245.13213 
L 483.880683 244.183115 
L 484.964926 242.73684 
L 486.29938 240.563364 
L 487.967446 237.384837 
L 490.219336 232.559219 
L 494.472906 222.774548 
L 498.559669 213.612306 
L 501.395383 207.781201 
L 503.980886 202.962425 
L 506.399583 198.920662 
L 508.734876 195.449841 
L 510.986766 192.491552 
L 513.238656 189.891592 
L 515.490546 187.620155 
L 517.825839 185.575184 
L 520.244536 183.747667 
L 522.830039 182.068506 
L 525.749156 180.440904 
L 529.470029 178.641126 
L 536.809522 175.164032 
L 539.228219 173.722103 
L 541.229899 172.268639 
L 542.981369 170.722535 
L 544.566032 169.035197 
L 546.067292 167.121657 
L 547.568552 164.837833 
L 548.986409 162.280707 
L 550.404265 159.276687 
L 551.905525 155.549154 
L 553.406785 151.207077 
L 554.991449 145.920246 
L 556.659515 139.57172 
L 558.577792 131.35064 
L 560.913085 120.298752 
L 567.918965 86.427053 
L 569.837242 78.624351 
L 571.565025 72.509943 
L 573.149689 67.700481 
L 574.650949 63.837259 
L 576.068805 60.776121 
L 577.486662 58.245103 
L 578.821115 56.30862 
L 580.155569 54.769254 
L 581.406619 53.660429 
L 582.574265 52.900368 
L 583.741912 52.39539 
L 584.909559 52.141358 
L 585.993802 52.132027 
L 587.078045 52.347999 
L 588.162289 52.801643 
L 589.246532 53.510767 
L 590.330775 54.498579 
L 591.415019 55.793408 
L 592.499262 57.42806 
L 593.666909 59.609988 
L 594.834555 62.27498 
L 596.085605 65.717691 
L 597.336655 69.813429 
L 598.671109 74.933627 
L 600.172369 81.617081 
L 601.840435 90.093561 
L 604.008922 102.361542 
L 609.346735 133.099028 
L 611.098205 141.634511 
L 612.682868 148.27232 
L 614.100725 153.298721 
L 615.485971 157.404891 
L 616.820424 160.665973 
L 618.071474 163.167747 
L 619.322524 165.195722 
L 620.573574 166.810746 
L 621.824624 168.068592 
L 623.075674 169.017968 
L 624.326724 169.699606 
L 625.661178 170.168122 
L 626.995631 170.398538 
L 628.330084 170.410764 
L 629.747941 170.196767 
L 631.165798 169.751593 
L 632.583654 169.068409 
L 634.001511 168.131412 
L 635.419368 166.916577 
L 636.837224 165.39254 
L 638.255081 163.521784 
L 639.672938 161.262341 
L 641.090794 158.570242 
L 642.508651 155.402917 
L 644.009911 151.490668 
L 645.594574 146.706233 
L 647.262641 140.93629 
L 649.097514 133.766086 
L 651.266001 124.358703 
L 654.745254 108.087868 
L 658.164791 92.461495 
L 660.249874 83.942758 
L 662.001344 77.66498 
L 663.586007 72.773157 
L 665.003864 69.064341 
L 666.338317 66.158083 
L 667.589367 63.946227 
L 668.757014 62.325285 
L 669.841257 61.200379 
L 670.842097 60.486091 
L 671.759534 60.105757 
L 672.593567 59.990245 
L 673.427601 60.097704 
L 674.261634 60.433113 
L 675.095667 61.002763 
L 676.013104 61.908831 
L 677.013944 63.243867 
L 678.014784 64.955377 
L 679.099027 67.251423 
L 680.266674 70.255466 
L 681.517724 74.097947 
L 682.935581 79.227888 
L 684.520244 85.881706 
L 686.355117 94.620363 
L 689.024024 108.581876 
L 692.777174 128.090115 
L 694.695451 136.856449 
L 696.331324 143.326727 
L 697.832584 148.365848 
L 699.167037 152.117282 
L 700.50149 155.210649 
L 701.75254 157.552281 
L 702.920187 159.289838 
L 704.087834 160.633354 
L 705.172077 161.560174 
L 706.25632 162.206242 
L 707.340564 162.596203 
L 708.424807 162.751608 
L 709.50905 162.690788 
L 710.676697 162.400815 
L 711.927747 161.848428 
L 713.2622 160.99892 
L 714.680057 159.814827 
L 716.181317 158.254682 
L 717.76598 156.272155 
L 719.434047 153.815977 
L 721.185517 150.831181 
L 723.02039 147.262285 
L 725.02207 142.865722 
L 727.198897 137.522141 
L 729.617594 130.977895 
L 732.620114 122.17996 
L 740.79364 97.84443 
L 742.878724 92.516805 
L 744.630194 88.620745 
L 746.09092 85.872908 
L 747.34197 83.942865 
L 748.509616 82.53927 
L 749.510456 81.673438 
L 750.427893 81.176765 
L 751.261926 80.989284 
L 752.012556 81.048364 
L 752.763186 81.33423 
L 753.513816 81.856844 
L 754.34785 82.726153 
L 755.265286 84.045276 
L 756.266126 85.929136 
L 757.35037 88.499811 
L 758.518016 91.877364 
L 759.852469 96.473451 
L 761.353729 102.479849 
L 763.272006 111.148833 
L 770.194483 143.472801 
L 771.862549 149.765438 
L 773.447213 154.889265 
L 774.865069 158.768716 
L 776.282926 162.021281 
L 777.617379 164.562875 
L 778.951833 166.659614 
L 780.286286 168.371324 
L 781.704143 169.832429 
L 783.121999 170.986792 
L 784.623259 171.935923 
L 786.291326 172.726658 
L 788.126199 173.345842 
L 790.211283 173.806828 
L 792.546576 174.09289 
L 795.215483 174.191846 
L 798.051196 174.072743 
L 800.803506 173.734986 
L 803.222203 173.222709 
L 805.390689 172.541393 
L 807.308966 171.709588 
L 809.060436 170.707942 
L 810.645099 169.551177 
L 812.146359 168.185431 
L 813.564216 166.605551 
L 814.982072 164.692376 
L 816.399929 162.39096 
L 817.817786 159.644238 
L 819.235642 156.396501 
L 820.653499 152.598372 
L 822.154759 147.936557 
L 823.739422 142.282345 
L 825.490892 135.185004 
L 827.575976 125.728702 
L 830.495092 111.310574 
L 834.581856 91.222805 
L 836.666939 82.073889 
L 838.501812 74.990461 
L 840.169879 69.418483 
L 841.754542 64.891672 
L 843.255802 61.256193 
L 844.757062 58.201165 
L 846.258322 55.661926 
L 847.759582 53.57057 
L 849.260842 51.861008 
L 850.845506 50.403226 
L 852.513572 49.184691 
L 854.265042 48.185593 
L 856.183319 47.349919 
L 858.351806 46.652869 
L 860.853905 46.086606 
L 863.939829 45.628764 
L 867.859785 45.286928 
L 873.281002 45.053614 
L 882.205159 44.920617 
L 904.640655 44.877467 
L 996.134111 44.876091 
L 996.134111 44.876091 
" style="fill:none;stroke:#008000;stroke-dasharray:5.55,2.4;stroke-dashoffset:0;stroke-width:1.5;"/>
   </g>
   <g id="line2d_18">
    <path clip-path="url(#p5457f0ce5d)" d="M 184.581818 175.013392 
L 305.798387 175.124466 
L 312.38725 175.359787 
L 316.349826 175.718613 
L 319.352346 176.207929 
L 321.854446 176.836544 
L 323.939529 177.577889 
L 325.941209 178.525568 
L 328.526713 180.03273 
L 330.778603 181.260233 
L 332.113056 181.733117 
L 333.280703 181.902948 
L 334.364946 181.836687 
L 335.532593 181.541019 
L 336.950449 180.933512 
L 339.035533 179.762171 
L 341.871246 178.20915 
L 343.622716 177.518564 
L 345.374186 177.071072 
L 350.294983 175.995565 
L 351.796243 175.310355 
L 353.547713 174.248165 
L 356.883846 172.174322 
L 358.352078 171.557023 
L 359.769935 171.202945 
L 361.271195 171.061429 
L 363.106068 171.125534 
L 370.612368 171.660862 
L 372.530645 171.438625 
L 374.448921 170.987377 
L 376.700811 170.211177 
L 379.870138 169.119982 
L 381.204591 168.901319 
L 382.372238 168.925106 
L 383.539885 169.18013 
L 384.707531 169.67005 
L 386.041985 170.489627 
L 387.710051 171.79941 
L 391.796815 175.135166 
L 393.131268 175.894516 
L 394.298915 176.325741 
L 395.466561 176.5162 
L 396.550805 176.473785 
L 397.718451 176.202491 
L 398.969501 175.679073 
L 400.470761 174.791375 
L 402.427654 173.342459 
L 409.454301 167.856225 
L 411.038964 167.006719 
L 412.456821 166.497234 
L 413.791274 166.262415 
L 415.125728 166.259472 
L 416.626988 166.49021 
L 418.461861 167.010914 
L 420.963961 167.968781 
L 425.134128 169.847985 
L 427.636228 170.861401 
L 429.220891 171.270826 
L 430.555344 171.381219 
L 431.722991 171.261116 
L 432.974041 170.89707 
L 434.391898 170.229557 
L 439.531878 167.524845 
L 440.949735 167.174 
L 442.450995 167.033154 
L 444.202465 167.098843 
L 446.704565 167.441989 
L 450.791328 168.252276 
L 453.210025 168.92499 
L 454.878091 169.610984 
L 456.220885 170.393906 
L 457.471935 171.391951 
L 458.556178 172.53393 
L 459.640422 173.998768 
L 460.724665 175.853198 
L 461.808908 178.164136 
L 462.893152 180.992771 
L 464.060798 184.671848 
L 465.311848 189.371558 
L 466.729705 195.609331 
L 468.481175 204.404226 
L 473.485375 230.279842 
L 474.819828 235.696566 
L 475.987475 239.539464 
L 476.988315 242.122342 
L 477.905752 243.913087 
L 478.739785 245.078596 
L 479.460306 245.749685 
L 480.127533 246.110987 
L 480.79476 246.239438 
L 481.461986 246.152779 
L 482.212616 245.820613 
L 483.04665 245.189883 
L 484.04749 244.115188 
L 485.215136 242.491676 
L 486.632993 240.092059 
L 488.384463 236.649149 
L 490.80316 231.349484 
L 500.311139 209.989015 
L 502.980046 204.797889 
L 505.398743 200.559854 
L 507.734036 196.902459 
L 509.985926 193.772883 
L 512.237816 191.013948 
L 514.489706 188.598258 
L 516.824999 186.420713 
L 519.243696 184.474964 
L 521.745796 182.744372 
L 524.581509 181.061142 
L 528.027151 179.292653 
L 537.726959 174.482291 
L 540.312462 172.810193 
L 543.982209 170.403421 
L 545.316662 169.824766 
L 546.400905 169.595021 
L 547.401745 169.607702 
L 548.402585 169.844825 
L 549.486829 170.343169 
L 550.737879 171.182024 
L 552.489349 172.65746 
L 555.241659 174.973029 
L 556.576112 175.799204 
L 557.743759 176.264268 
L 558.828002 176.456381 
L 559.912245 176.418911 
L 561.079892 176.146544 
L 562.414345 175.600588 
L 564.416025 174.512568 
L 567.501949 172.858518 
L 569.253419 172.179278 
L 570.981202 171.747084 
L 572.816075 171.521659 
L 574.984562 171.491752 
L 577.653469 171.688953 
L 580.489182 172.110734 
L 582.991282 172.700664 
L 585.159769 173.439618 
L 590.831195 175.556676 
L 592.249052 175.702519 
L 593.750312 175.630908 
L 596.419219 175.218993 
L 598.254092 175.043604 
L 599.588545 175.123533 
L 600.839595 175.41104 
L 602.174048 175.948616 
L 603.842115 176.876786 
L 606.844635 178.584312 
L 608.012282 178.98207 
L 609.096525 179.116053 
L 610.097365 179.017191 
L 611.181608 178.679102 
L 612.432658 178.04801 
L 614.632588 176.629556 
L 616.903828 175.256148 
L 618.655298 174.464181 
L 620.490171 173.891192 
L 622.908868 173.393745 
L 627.412648 172.499438 
L 629.664538 171.794522 
L 635.502771 169.778059 
L 636.670418 169.720026 
L 637.754661 169.875627 
L 638.838904 170.248469 
L 640.006551 170.887712 
L 641.341004 171.878215 
L 643.342684 173.687122 
L 646.011591 176.066487 
L 647.429447 177.030102 
L 648.597094 177.575547 
L 649.681337 177.856534 
L 650.765581 177.917887 
L 651.933227 177.754555 
L 653.267681 177.320764 
L 654.912061 176.52492 
L 657.914581 174.753515 
L 661.167311 172.933554 
L 663.502604 171.8734 
L 665.587687 171.162075 
L 667.422561 170.762998 
L 669.090627 170.62182 
L 670.675291 170.705147 
L 672.426761 171.024235 
L 675.512684 171.87079 
L 678.765414 172.663505 
L 682.852177 173.644317 
L 684.853857 174.380556 
L 687.522764 175.637919 
L 689.774654 176.615018 
L 691.109107 176.95594 
L 692.193351 177.021509 
L 693.277594 176.861693 
L 694.361837 176.466911 
L 695.580694 175.765528 
L 697.081954 174.621168 
L 702.419767 170.304904 
L 704.75506 168.875617 
L 710.00947 165.776138 
L 712.094553 164.212738 
L 714.429847 162.165666 
L 718.51661 158.528265 
L 720.01787 157.534598 
L 721.26892 156.967385 
L 722.436567 156.681635 
L 723.604213 156.638107 
L 724.77186 156.825707 
L 726.03125 157.25637 
L 727.53251 158.014089 
L 729.617594 159.340951 
L 734.371584 162.443266 
L 736.28986 163.396245 
L 738.04133 164.026887 
L 739.709397 164.389286 
L 741.29406 164.501685 
L 742.878724 164.383026 
L 744.54679 164.030602 
L 746.84155 163.295035 
L 750.09428 162.278557 
L 752.09596 161.910475 
L 754.014236 161.786832 
L 755.84911 161.892984 
L 757.517176 162.214406 
L 759.101839 162.745193 
L 760.853309 163.579863 
L 763.438813 165.10835 
L 765.857509 166.452072 
L 767.525576 167.121693 
L 769.360449 167.606216 
L 773.530616 168.612727 
L 775.782506 169.467804 
L 784.206243 172.944285 
L 786.708343 173.579193 
L 789.293846 174.007948 
L 792.129559 174.248579 
L 795.048676 174.275349 
L 797.967793 174.086696 
L 800.720103 173.693953 
L 803.222203 173.11355 
L 805.390689 172.388637 
L 807.642579 171.394261 
L 811.479132 169.649007 
L 812.646779 169.386071 
L 813.647619 169.368332 
L 814.648459 169.575256 
L 815.649299 170.018655 
L 816.733542 170.756819 
L 817.984592 171.894202 
L 819.736062 173.819675 
L 822.655179 177.028094 
L 823.989632 178.150407 
L 825.157279 178.840948 
L 826.158119 179.190201 
L 827.158959 179.312083 
L 828.159799 179.219193 
L 829.327446 178.873415 
L 830.661899 178.23648 
L 832.746982 176.95543 
L 836.083116 174.913922 
L 838.001392 174.013985 
L 839.836266 173.404014 
L 841.671139 173.029116 
L 843.756222 172.839745 
L 846.258322 172.848505 
L 849.761262 173.103599 
L 865.524492 174.503004 
L 872.697179 174.789975 
L 883.205999 174.952615 
L 906.892545 175.010459 
L 996.134111 175.013392 
L 996.134111 175.013392 
" style="fill:none;stroke:#008000;stroke-dasharray:9.6,2.4,1.5,2.4;stroke-dashoffset:0;stroke-width:1.5;"/>
   </g>
   <g id="patch_3">
    <path d="M 144 256.32 
L 144 34.56 
" style="fill:none;stroke:#000000;stroke-linecap:square;stroke-linejoin:miter;stroke-width:0.8;"/>
   </g>
   <g id="patch_4">
    <path d="M 1036.8 256.32 
L 1036.8 34.56 
" style="fill:none;stroke:#000000;stroke-linecap:square;stroke-linejoin:miter;stroke-width:0.8;"/>
   </g>
   <g id="patch_5">
    <path d="M 144 256.32 
L 1036.8 256.32 
" style="fill:none;stroke:#000000;stroke-linecap:square;stroke-linejoin:miter;stroke-width:0.8;"/>
   </g>
   <g id="patch_6">
    <path d="M 144 34.56 
L 1036.8 34.56 
" style="fill:none;stroke:#000000;stroke-linecap:square;stroke-linejoin:miter;stroke-width:0.8;"/>
   </g>
   <g id="text_18">
    <!-- In  RMSE: 0.0 -->
    <g transform="translate(184.581818 147.484667)scale(0.1 -0.1)">
     <defs>
      <path d="M 9.8125 72.90625 
L 50.296875 72.90625 
L 50.296875 64.59375 
L 35.015625 64.59375 
L 35.015625 8.296875 
L 50.296875 8.296875 
L 50.296875 0 
L 9.8125 0 
L 9.8125 8.296875 
L 25.09375 8.296875 
L 25.09375 64.59375 
L 9.8125 64.59375 
z
" id="DejaVuSansMono-73"/>
      <path d="M 51.3125 33.890625 
L 51.3125 0 
L 42.28125 0 
L 42.28125 33.890625 
Q 42.28125 41.265625 39.6875 44.71875 
Q 37.109375 48.1875 31.59375 48.1875 
Q 25.296875 48.1875 21.890625 43.71875 
Q 18.5 39.265625 18.5 30.90625 
L 18.5 0 
L 9.515625 0 
L 9.515625 54.6875 
L 18.5 54.6875 
L 18.5 46.484375 
Q 20.90625 51.171875 25 53.578125 
Q 29.109375 56 34.71875 56 
Q 43.0625 56 47.1875 50.5 
Q 51.3125 45.015625 51.3125 33.890625 
z
" id="DejaVuSansMono-110"/>
      <path id="DejaVuSansMono-32"/>
      <path d="M 37.109375 34.421875 
Q 40.921875 33.453125 43.609375 30.734375 
Q 46.296875 28.03125 50.296875 19.921875 
L 60.203125 0 
L 49.609375 0 
L 40.921875 18.40625 
Q 37.15625 26.265625 34.15625 28.53125 
Q 31.15625 30.8125 26.3125 30.8125 
L 16.890625 30.8125 
L 16.890625 0 
L 6.984375 0 
L 6.984375 72.90625 
L 27.296875 72.90625 
Q 39.3125 72.90625 45.703125 67.484375 
Q 52.09375 62.0625 52.09375 51.8125 
Q 52.09375 44.578125 48.15625 40.015625 
Q 44.234375 35.453125 37.109375 34.421875 
z
M 16.890625 64.796875 
L 16.890625 38.921875 
L 27.6875 38.921875 
Q 34.765625 38.921875 38.234375 42.09375 
Q 41.703125 45.265625 41.703125 51.8125 
Q 41.703125 58.109375 38.015625 61.453125 
Q 34.328125 64.796875 27.296875 64.796875 
z
" id="DejaVuSansMono-82"/>
      <path d="M 4.203125 72.90625 
L 17.390625 72.90625 
L 29.984375 35.796875 
L 42.671875 72.90625 
L 55.90625 72.90625 
L 55.90625 0 
L 46.78125 0 
L 46.78125 64.40625 
L 33.796875 25.984375 
L 26.3125 25.984375 
L 13.28125 64.40625 
L 13.28125 0 
L 4.203125 0 
z
" id="DejaVuSansMono-77"/>
      <path d="M 49.421875 70.40625 
L 49.421875 60.40625 
Q 44.921875 63.28125 40.40625 64.75 
Q 35.890625 66.21875 31.296875 66.21875 
Q 24.3125 66.21875 20.265625 62.96875 
Q 16.21875 59.71875 16.21875 54.203125 
Q 16.21875 49.359375 18.875 46.8125 
Q 21.53125 44.28125 28.8125 42.578125 
L 33.984375 41.40625 
Q 44.234375 39.015625 48.921875 33.890625 
Q 53.609375 28.765625 53.609375 19.921875 
Q 53.609375 9.515625 47.15625 4.046875 
Q 40.71875 -1.421875 28.421875 -1.421875 
Q 23.296875 -1.421875 18.109375 -0.3125 
Q 12.9375 0.78125 7.71875 2.984375 
L 7.71875 13.484375 
Q 13.328125 9.90625 18.328125 8.25 
Q 23.34375 6.59375 28.421875 6.59375 
Q 35.890625 6.59375 40.03125 9.9375 
Q 44.1875 13.28125 44.1875 19.28125 
Q 44.1875 24.75 41.328125 27.625 
Q 38.484375 30.515625 31.390625 32.078125 
L 26.125 33.296875 
Q 15.96875 35.59375 11.375 40.234375 
Q 6.78125 44.875 6.78125 52.6875 
Q 6.78125 62.453125 13.34375 68.328125 
Q 19.921875 74.21875 30.8125 74.21875 
Q 35.015625 74.21875 39.640625 73.265625 
Q 44.28125 72.3125 49.421875 70.40625 
z
" id="DejaVuSansMono-83"/>
      <path d="M 9.625 72.90625 
L 52.875 72.90625 
L 52.875 64.59375 
L 19.484375 64.59375 
L 19.484375 43.015625 
L 51.421875 43.015625 
L 51.421875 34.71875 
L 19.484375 34.71875 
L 19.484375 8.296875 
L 53.8125 8.296875 
L 53.8125 0 
L 9.625 0 
z
" id="DejaVuSansMono-69"/>
      <path d="M 23.875 51.90625 
L 36.1875 51.90625 
L 36.1875 37.109375 
L 23.875 37.109375 
z
M 23.875 14.890625 
L 36.1875 14.890625 
L 36.1875 0 
L 23.875 0 
z
" id="DejaVuSansMono-58"/>
      <path d="M 23.578125 36.625 
Q 23.578125 39.3125 25.453125 41.265625 
Q 27.34375 43.21875 29.984375 43.21875 
Q 32.71875 43.21875 34.671875 41.265625 
Q 36.625 39.3125 36.625 36.625 
Q 36.625 33.890625 34.6875 31.984375 
Q 32.765625 30.078125 29.984375 30.078125 
Q 27.25 30.078125 25.40625 31.9375 
Q 23.578125 33.796875 23.578125 36.625 
z
M 30.078125 66.40625 
Q 23.1875 66.40625 19.796875 58.984375 
Q 16.40625 51.5625 16.40625 36.375 
Q 16.40625 21.234375 19.796875 13.8125 
Q 23.1875 6.390625 30.078125 6.390625 
Q 37.015625 6.390625 40.40625 13.8125 
Q 43.796875 21.234375 43.796875 36.375 
Q 43.796875 51.5625 40.40625 58.984375 
Q 37.015625 66.40625 30.078125 66.40625 
z
M 30.078125 74.21875 
Q 41.75 74.21875 47.734375 64.640625 
Q 53.71875 55.078125 53.71875 36.375 
Q 53.71875 17.71875 47.734375 8.140625 
Q 41.75 -1.421875 30.078125 -1.421875 
Q 18.40625 -1.421875 12.453125 8.140625 
Q 6.5 17.71875 6.5 36.375 
Q 6.5 55.078125 12.453125 64.640625 
Q 18.40625 74.21875 30.078125 74.21875 
z
" id="DejaVuSansMono-48"/>
      <path d="M 23.875 14.890625 
L 36.1875 14.890625 
L 36.1875 0 
L 23.875 0 
z
" id="DejaVuSansMono-46"/>
     </defs>
     <use xlink:href="#DejaVuSansMono-73"/>
     <use x="60.205078" xlink:href="#DejaVuSansMono-110"/>
     <use x="120.410156" xlink:href="#DejaVuSansMono-32"/>
     <use x="180.615234" xlink:href="#DejaVuSansMono-32"/>
     <use x="240.820312" xlink:href="#DejaVuSansMono-82"/>
     <use x="301.025391" xlink:href="#DejaVuSansMono-77"/>
     <use x="361.230469" xlink:href="#DejaVuSansMono-83"/>
     <use x="421.435547" xlink:href="#DejaVuSansMono-69"/>
     <use x="481.640625" xlink:href="#DejaVuSansMono-58"/>
     <use x="541.845703" xlink:href="#DejaVuSansMono-32"/>
     <use x="602.050781" xlink:href="#DejaVuSansMono-48"/>
     <use x="662.255859" xlink:href="#DejaVuSansMono-46"/>
     <use x="722.460938" xlink:href="#DejaVuSansMono-48"/>
    </g>
    <!-- Out RMSE: 0.09816 -->
    <g transform="translate(184.581818 158.746229)scale(0.1 -0.1)">
     <defs>
      <path d="M 44.1875 36.375 
Q 44.1875 52.4375 40.890625 59.328125 
Q 37.59375 66.21875 30.078125 66.21875 
Q 22.609375 66.21875 19.3125 59.328125 
Q 16.015625 52.4375 16.015625 36.375 
Q 16.015625 20.359375 19.3125 13.46875 
Q 22.609375 6.59375 30.078125 6.59375 
Q 37.59375 6.59375 40.890625 13.453125 
Q 44.1875 20.3125 44.1875 36.375 
z
M 54.5 36.375 
Q 54.5 17.328125 48.46875 7.953125 
Q 42.4375 -1.421875 30.078125 -1.421875 
Q 17.71875 -1.421875 11.71875 7.90625 
Q 5.71875 17.234375 5.71875 36.375 
Q 5.71875 55.46875 11.75 64.84375 
Q 17.78125 74.21875 30.078125 74.21875 
Q 42.4375 74.21875 48.46875 64.84375 
Q 54.5 55.46875 54.5 36.375 
z
" id="DejaVuSansMono-79"/>
      <path d="M 9.515625 20.703125 
L 9.515625 54.59375 
L 18.5 54.59375 
L 18.5 20.703125 
Q 18.5 13.328125 21.109375 9.859375 
Q 23.734375 6.390625 29.203125 6.390625 
Q 35.546875 6.390625 38.90625 10.859375 
Q 42.28125 15.328125 42.28125 23.6875 
L 42.28125 54.59375 
L 51.3125 54.59375 
L 51.3125 0 
L 42.28125 0 
L 42.28125 8.203125 
Q 39.890625 3.46875 35.765625 1.015625 
Q 31.640625 -1.421875 26.125 -1.421875 
Q 17.71875 -1.421875 13.609375 4.078125 
Q 9.515625 9.578125 9.515625 20.703125 
z
" id="DejaVuSansMono-117"/>
      <path d="M 29.984375 70.21875 
L 29.984375 54.6875 
L 50.390625 54.6875 
L 50.390625 47.703125 
L 29.984375 47.703125 
L 29.984375 18.015625 
Q 29.984375 11.96875 32.28125 9.5625 
Q 34.578125 7.171875 40.28125 7.171875 
L 50.390625 7.171875 
L 50.390625 0 
L 39.40625 0 
Q 29.296875 0 25.140625 4.046875 
Q 21 8.109375 21 18.015625 
L 21 47.703125 
L 6.390625 47.703125 
L 6.390625 54.6875 
L 21 54.6875 
L 21 70.21875 
z
" id="DejaVuSansMono-116"/>
      <path d="M 29.109375 32.328125 
Q 35.40625 32.328125 38.984375 36.859375 
Q 42.578125 41.40625 42.578125 49.421875 
Q 42.578125 57.421875 38.984375 61.953125 
Q 35.40625 66.5 29.109375 66.5 
Q 22.5625 66.5 19.234375 62.171875 
Q 15.921875 57.859375 15.921875 49.421875 
Q 15.921875 40.921875 19.21875 36.625 
Q 22.515625 32.328125 29.109375 32.328125 
z
M 11.53125 1.515625 
L 11.53125 10.59375 
Q 14.59375 8.796875 18.0625 7.84375 
Q 21.53125 6.890625 25.296875 6.890625 
Q 34.671875 6.890625 39.46875 13.9375 
Q 44.28125 21 44.28125 34.71875 
Q 42 29.828125 37.84375 27.21875 
Q 33.6875 24.609375 28.328125 24.609375 
Q 17.78125 24.609375 11.984375 31.09375 
Q 6.203125 37.59375 6.203125 49.515625 
Q 6.203125 61.28125 12.125 67.75 
Q 18.0625 74.21875 28.90625 74.21875 
Q 41.609375 74.21875 47.515625 65.078125 
Q 53.421875 55.953125 53.421875 36.375 
Q 53.421875 17.96875 46.3125 8.265625 
Q 39.203125 -1.421875 25.6875 -1.421875 
Q 22.125 -1.421875 18.5 -0.65625 
Q 14.890625 0.09375 11.53125 1.515625 
z
" id="DejaVuSansMono-57"/>
      <path d="M 30.078125 34.625 
Q 23.484375 34.625 19.890625 30.9375 
Q 16.3125 27.25 16.3125 20.515625 
Q 16.3125 13.765625 19.9375 10.03125 
Q 23.578125 6.296875 30.078125 6.296875 
Q 36.71875 6.296875 40.296875 9.984375 
Q 43.890625 13.671875 43.890625 20.515625 
Q 43.890625 27.203125 40.25 30.90625 
Q 36.625 34.625 30.078125 34.625 
z
M 21.484375 38.71875 
Q 15.1875 40.328125 11.640625 44.71875 
Q 8.109375 49.125 8.109375 55.328125 
Q 8.109375 64.015625 14.015625 69.109375 
Q 19.921875 74.21875 30.078125 74.21875 
Q 40.28125 74.21875 46.1875 69.109375 
Q 52.09375 64.015625 52.09375 55.328125 
Q 52.09375 49.125 48.546875 44.71875 
Q 45.015625 40.328125 38.71875 38.71875 
Q 46.046875 37.109375 49.921875 32.21875 
Q 53.8125 27.34375 53.8125 19.578125 
Q 53.8125 9.71875 47.515625 4.140625 
Q 41.21875 -1.421875 30.078125 -1.421875 
Q 18.953125 -1.421875 12.671875 4.125 
Q 6.390625 9.671875 6.390625 19.484375 
Q 6.390625 27.296875 10.265625 32.203125 
Q 14.15625 37.109375 21.484375 38.71875 
z
M 17.921875 54.390625 
Q 17.921875 48.53125 21.046875 45.453125 
Q 24.171875 42.390625 30.078125 42.390625 
Q 36.03125 42.390625 39.15625 45.453125 
Q 42.28125 48.53125 42.28125 54.390625 
Q 42.28125 60.359375 39.171875 63.484375 
Q 36.078125 66.609375 30.078125 66.609375 
Q 24.171875 66.609375 21.046875 63.453125 
Q 17.921875 60.296875 17.921875 54.390625 
z
" id="DejaVuSansMono-56"/>
      <path d="M 13.1875 8.296875 
L 28.515625 8.296875 
L 28.515625 64.015625 
L 12.015625 60.296875 
L 12.015625 69.28125 
L 28.421875 72.90625 
L 38.28125 72.90625 
L 38.28125 8.296875 
L 53.421875 8.296875 
L 53.421875 0 
L 13.1875 0 
z
" id="DejaVuSansMono-49"/>
      <path d="M 48.390625 71.296875 
L 48.390625 62.203125 
Q 45.3125 64.015625 41.84375 64.96875 
Q 38.375 65.921875 34.625 65.921875 
Q 25.25 65.921875 20.40625 58.859375 
Q 15.578125 51.8125 15.578125 38.09375 
Q 17.921875 42.96875 22.0625 45.578125 
Q 26.21875 48.1875 31.59375 48.1875 
Q 42.140625 48.1875 47.921875 41.71875 
Q 53.71875 35.25 53.71875 23.390625 
Q 53.71875 11.578125 47.75 5.078125 
Q 41.796875 -1.421875 31 -1.421875 
Q 18.3125 -1.421875 12.40625 7.6875 
Q 6.5 16.796875 6.5 36.375 
Q 6.5 54.828125 13.59375 64.515625 
Q 20.703125 74.21875 34.1875 74.21875 
Q 37.796875 74.21875 41.40625 73.453125 
Q 45.015625 72.703125 48.390625 71.296875 
z
M 30.8125 40.484375 
Q 24.515625 40.484375 20.890625 35.9375 
Q 17.28125 31.390625 17.28125 23.390625 
Q 17.28125 15.375 20.890625 10.828125 
Q 24.515625 6.296875 30.8125 6.296875 
Q 37.359375 6.296875 40.671875 10.609375 
Q 44 14.9375 44 23.390625 
Q 44 31.890625 40.671875 36.1875 
Q 37.359375 40.484375 30.8125 40.484375 
z
" id="DejaVuSansMono-54"/>
     </defs>
     <use xlink:href="#DejaVuSansMono-79"/>
     <use x="60.205078" xlink:href="#DejaVuSansMono-117"/>
     <use x="120.410156" xlink:href="#DejaVuSansMono-116"/>
     <use x="180.615234" xlink:href="#DejaVuSansMono-32"/>
     <use x="240.820312" xlink:href="#DejaVuSansMono-82"/>
     <use x="301.025391" xlink:href="#DejaVuSansMono-77"/>
     <use x="361.230469" xlink:href="#DejaVuSansMono-83"/>
     <use x="421.435547" xlink:href="#DejaVuSansMono-69"/>
     <use x="481.640625" xlink:href="#DejaVuSansMono-58"/>
     <use x="541.845703" xlink:href="#DejaVuSansMono-32"/>
     <use x="602.050781" xlink:href="#DejaVuSansMono-48"/>
     <use x="662.255859" xlink:href="#DejaVuSansMono-46"/>
     <use x="722.460938" xlink:href="#DejaVuSansMono-48"/>
     <use x="782.666016" xlink:href="#DejaVuSansMono-57"/>
     <use x="842.871094" xlink:href="#DejaVuSansMono-56"/>
     <use x="903.076172" xlink:href="#DejaVuSansMono-49"/>
     <use x="963.28125" xlink:href="#DejaVuSansMono-54"/>
    </g>
   </g>
   <g id="text_19">
    <!-- ..\WaveformData\t4_traces\inv_t4_invSim_Traces fitting using transfer functions -->
    <g transform="translate(351.459375 28.56)scale(0.12 -0.12)">
     <defs>
      <path d="M 8.296875 72.90625 
L 33.6875 -9.28125 
L 25.390625 -9.28125 
L 0 72.90625 
z
" id="DejaVuSans-92"/>
      <path d="M 3.328125 72.90625 
L 13.28125 72.90625 
L 28.609375 11.28125 
L 43.890625 72.90625 
L 54.984375 72.90625 
L 70.3125 11.28125 
L 85.59375 72.90625 
L 95.609375 72.90625 
L 77.296875 0 
L 64.890625 0 
L 49.515625 63.28125 
L 33.984375 0 
L 21.578125 0 
z
" id="DejaVuSans-87"/>
      <path d="M 2.984375 54.6875 
L 12.5 54.6875 
L 29.59375 8.796875 
L 46.6875 54.6875 
L 56.203125 54.6875 
L 35.6875 0 
L 23.484375 0 
z
" id="DejaVuSans-118"/>
      <path d="M 37.109375 75.984375 
L 37.109375 68.5 
L 28.515625 68.5 
Q 23.6875 68.5 21.796875 66.546875 
Q 19.921875 64.59375 19.921875 59.515625 
L 19.921875 54.6875 
L 34.71875 54.6875 
L 34.71875 47.703125 
L 19.921875 47.703125 
L 19.921875 0 
L 10.890625 0 
L 10.890625 47.703125 
L 2.296875 47.703125 
L 2.296875 54.6875 
L 10.890625 54.6875 
L 10.890625 58.5 
Q 10.890625 67.625 15.140625 71.796875 
Q 19.390625 75.984375 28.609375 75.984375 
z
" id="DejaVuSans-102"/>
      <path d="M 41.109375 46.296875 
Q 39.59375 47.171875 37.8125 47.578125 
Q 36.03125 48 33.890625 48 
Q 26.265625 48 22.1875 43.046875 
Q 18.109375 38.09375 18.109375 28.8125 
L 18.109375 0 
L 9.078125 0 
L 9.078125 54.6875 
L 18.109375 54.6875 
L 18.109375 46.1875 
Q 20.953125 51.171875 25.484375 53.578125 
Q 30.03125 56 36.53125 56 
Q 37.453125 56 38.578125 55.875 
Q 39.703125 55.765625 41.0625 55.515625 
z
" id="DejaVuSans-114"/>
      <path d="M 19.671875 64.796875 
L 19.671875 8.109375 
L 31.59375 8.109375 
Q 46.6875 8.109375 53.6875 14.9375 
Q 60.6875 21.78125 60.6875 36.53125 
Q 60.6875 51.171875 53.6875 57.984375 
Q 46.6875 64.796875 31.59375 64.796875 
z
M 9.8125 72.90625 
L 30.078125 72.90625 
Q 51.265625 72.90625 61.171875 64.09375 
Q 71.09375 55.28125 71.09375 36.53125 
Q 71.09375 17.671875 61.125 8.828125 
Q 51.171875 0 30.078125 0 
L 9.8125 0 
z
" id="DejaVuSans-68"/>
      <path d="M 50.984375 -16.609375 
L 50.984375 -23.578125 
L -0.984375 -23.578125 
L -0.984375 -16.609375 
z
" id="DejaVuSans-95"/>
      <path d="M 48.78125 52.59375 
L 48.78125 44.1875 
Q 44.96875 46.296875 41.140625 47.34375 
Q 37.3125 48.390625 33.40625 48.390625 
Q 24.65625 48.390625 19.8125 42.84375 
Q 14.984375 37.3125 14.984375 27.296875 
Q 14.984375 17.28125 19.8125 11.734375 
Q 24.65625 6.203125 33.40625 6.203125 
Q 37.3125 6.203125 41.140625 7.25 
Q 44.96875 8.296875 48.78125 10.40625 
L 48.78125 2.09375 
Q 45.015625 0.34375 40.984375 -0.53125 
Q 36.96875 -1.421875 32.421875 -1.421875 
Q 20.0625 -1.421875 12.78125 6.34375 
Q 5.515625 14.109375 5.515625 27.296875 
Q 5.515625 40.671875 12.859375 48.328125 
Q 20.21875 56 33.015625 56 
Q 37.15625 56 41.109375 55.140625 
Q 45.0625 54.296875 48.78125 52.59375 
z
" id="DejaVuSans-99"/>
      <path d="M 54.890625 33.015625 
L 54.890625 0 
L 45.90625 0 
L 45.90625 32.71875 
Q 45.90625 40.484375 42.875 44.328125 
Q 39.84375 48.1875 33.796875 48.1875 
Q 26.515625 48.1875 22.3125 43.546875 
Q 18.109375 38.921875 18.109375 30.90625 
L 18.109375 0 
L 9.078125 0 
L 9.078125 54.6875 
L 18.109375 54.6875 
L 18.109375 46.1875 
Q 21.34375 51.125 25.703125 53.5625 
Q 30.078125 56 35.796875 56 
Q 45.21875 56 50.046875 50.171875 
Q 54.890625 44.34375 54.890625 33.015625 
z
" id="DejaVuSans-110"/>
      <path d="M 53.515625 70.515625 
L 53.515625 60.890625 
Q 47.90625 63.578125 42.921875 64.890625 
Q 37.9375 66.21875 33.296875 66.21875 
Q 25.25 66.21875 20.875 63.09375 
Q 16.5 59.96875 16.5 54.203125 
Q 16.5 49.359375 19.40625 46.890625 
Q 22.3125 44.4375 30.421875 42.921875 
L 36.375 41.703125 
Q 47.40625 39.59375 52.65625 34.296875 
Q 57.90625 29 57.90625 20.125 
Q 57.90625 9.515625 50.796875 4.046875 
Q 43.703125 -1.421875 29.984375 -1.421875 
Q 24.8125 -1.421875 18.96875 -0.25 
Q 13.140625 0.921875 6.890625 3.21875 
L 6.890625 13.375 
Q 12.890625 10.015625 18.65625 8.296875 
Q 24.421875 6.59375 29.984375 6.59375 
Q 38.421875 6.59375 43.015625 9.90625 
Q 47.609375 13.234375 47.609375 19.390625 
Q 47.609375 24.75 44.3125 27.78125 
Q 41.015625 30.8125 33.5 32.328125 
L 27.484375 33.5 
Q 16.453125 35.6875 11.515625 40.375 
Q 6.59375 45.0625 6.59375 53.421875 
Q 6.59375 63.09375 13.40625 68.65625 
Q 20.21875 74.21875 32.171875 74.21875 
Q 37.3125 74.21875 42.625 73.28125 
Q 47.953125 72.359375 53.515625 70.515625 
z
" id="DejaVuSans-83"/>
      <path d="M 8.5 21.578125 
L 8.5 54.6875 
L 17.484375 54.6875 
L 17.484375 21.921875 
Q 17.484375 14.15625 20.5 10.265625 
Q 23.53125 6.390625 29.59375 6.390625 
Q 36.859375 6.390625 41.078125 11.03125 
Q 45.3125 15.671875 45.3125 23.6875 
L 45.3125 54.6875 
L 54.296875 54.6875 
L 54.296875 0 
L 45.3125 0 
L 45.3125 8.40625 
Q 42.046875 3.421875 37.71875 1 
Q 33.40625 -1.421875 27.6875 -1.421875 
Q 18.265625 -1.421875 13.375 4.4375 
Q 8.5 10.296875 8.5 21.578125 
z
M 31.109375 56 
z
" id="DejaVuSans-117"/>
     </defs>
     <use xlink:href="#DejaVuSans-46"/>
     <use x="31.787109" xlink:href="#DejaVuSans-46"/>
     <use x="63.574219" xlink:href="#DejaVuSans-92"/>
     <use x="97.265625" xlink:href="#DejaVuSans-87"/>
     <use x="189.767578" xlink:href="#DejaVuSans-97"/>
     <use x="251.046875" xlink:href="#DejaVuSans-118"/>
     <use x="310.226562" xlink:href="#DejaVuSans-101"/>
     <use x="371.75" xlink:href="#DejaVuSans-102"/>
     <use x="406.955078" xlink:href="#DejaVuSans-111"/>
     <use x="468.136719" xlink:href="#DejaVuSans-114"/>
     <use x="507.5" xlink:href="#DejaVuSans-109"/>
     <use x="604.912109" xlink:href="#DejaVuSans-68"/>
     <use x="681.914062" xlink:href="#DejaVuSans-97"/>
     <use x="743.193359" xlink:href="#DejaVuSans-116"/>
     <use x="782.402344" xlink:href="#DejaVuSans-97"/>
     <use x="843.681641" xlink:href="#DejaVuSans-92"/>
     <use x="877.373047" xlink:href="#DejaVuSans-116"/>
     <use x="916.582031" xlink:href="#DejaVuSans-52"/>
     <use x="980.205078" xlink:href="#DejaVuSans-95"/>
     <use x="1030.205078" xlink:href="#DejaVuSans-116"/>
     <use x="1069.414062" xlink:href="#DejaVuSans-114"/>
     <use x="1110.527344" xlink:href="#DejaVuSans-97"/>
     <use x="1171.806641" xlink:href="#DejaVuSans-99"/>
     <use x="1226.787109" xlink:href="#DejaVuSans-101"/>
     <use x="1288.310547" xlink:href="#DejaVuSans-115"/>
     <use x="1340.410156" xlink:href="#DejaVuSans-92"/>
     <use x="1374.101562" xlink:href="#DejaVuSans-105"/>
     <use x="1401.884766" xlink:href="#DejaVuSans-110"/>
     <use x="1465.263672" xlink:href="#DejaVuSans-118"/>
     <use x="1524.443359" xlink:href="#DejaVuSans-95"/>
     <use x="1574.443359" xlink:href="#DejaVuSans-116"/>
     <use x="1613.652344" xlink:href="#DejaVuSans-52"/>
     <use x="1677.275391" xlink:href="#DejaVuSans-95"/>
     <use x="1727.275391" xlink:href="#DejaVuSans-105"/>
     <use x="1755.058594" xlink:href="#DejaVuSans-110"/>
     <use x="1818.4375" xlink:href="#DejaVuSans-118"/>
     <use x="1877.617188" xlink:href="#DejaVuSans-83"/>
     <use x="1941.09375" xlink:href="#DejaVuSans-105"/>
     <use x="1968.876953" xlink:href="#DejaVuSans-109"/>
     <use x="2066.289062" xlink:href="#DejaVuSans-95"/>
     <use x="2116.289062" xlink:href="#DejaVuSans-84"/>
     <use x="2162.623047" xlink:href="#DejaVuSans-114"/>
     <use x="2203.736328" xlink:href="#DejaVuSans-97"/>
     <use x="2265.015625" xlink:href="#DejaVuSans-99"/>
     <use x="2319.996094" xlink:href="#DejaVuSans-101"/>
     <use x="2381.519531" xlink:href="#DejaVuSans-115"/>
     <use x="2433.619141" xlink:href="#DejaVuSans-32"/>
     <use x="2465.40625" xlink:href="#DejaVuSans-102"/>
     <use x="2500.611328" xlink:href="#DejaVuSans-105"/>
     <use x="2528.394531" xlink:href="#DejaVuSans-116"/>
     <use x="2567.603516" xlink:href="#DejaVuSans-116"/>
     <use x="2606.8125" xlink:href="#DejaVuSans-105"/>
     <use x="2634.595703" xlink:href="#DejaVuSans-110"/>
     <use x="2697.974609" xlink:href="#DejaVuSans-103"/>
     <use x="2761.451172" xlink:href="#DejaVuSans-32"/>
     <use x="2793.238281" xlink:href="#DejaVuSans-117"/>
     <use x="2856.617188" xlink:href="#DejaVuSans-115"/>
     <use x="2908.716797" xlink:href="#DejaVuSans-105"/>
     <use x="2936.5" xlink:href="#DejaVuSans-110"/>
     <use x="2999.878906" xlink:href="#DejaVuSans-103"/>
     <use x="3063.355469" xlink:href="#DejaVuSans-32"/>
     <use x="3095.142578" xlink:href="#DejaVuSans-116"/>
     <use x="3134.351562" xlink:href="#DejaVuSans-114"/>
     <use x="3175.464844" xlink:href="#DejaVuSans-97"/>
     <use x="3236.744141" xlink:href="#DejaVuSans-110"/>
     <use x="3300.123047" xlink:href="#DejaVuSans-115"/>
     <use x="3352.222656" xlink:href="#DejaVuSans-102"/>
     <use x="3387.427734" xlink:href="#DejaVuSans-101"/>
     <use x="3448.951172" xlink:href="#DejaVuSans-114"/>
     <use x="3490.064453" xlink:href="#DejaVuSans-32"/>
     <use x="3521.851562" xlink:href="#DejaVuSans-102"/>
     <use x="3557.056641" xlink:href="#DejaVuSans-117"/>
     <use x="3620.435547" xlink:href="#DejaVuSans-110"/>
     <use x="3683.814453" xlink:href="#DejaVuSans-99"/>
     <use x="3738.794922" xlink:href="#DejaVuSans-116"/>
     <use x="3778.003906" xlink:href="#DejaVuSans-105"/>
     <use x="3805.787109" xlink:href="#DejaVuSans-111"/>
     <use x="3866.96875" xlink:href="#DejaVuSans-110"/>
     <use x="3930.347656" xlink:href="#DejaVuSans-115"/>
    </g>
   </g>
   <g id="legend_1">
    <g id="patch_7">
     <path d="M 151 176.29625 
L 368.865625 176.29625 
Q 370.865625 176.29625 370.865625 174.29625 
L 370.865625 116.58375 
Q 370.865625 114.58375 368.865625 114.58375 
L 151 114.58375 
Q 149 114.58375 149 116.58375 
L 149 174.29625 
Q 149 176.29625 151 176.29625 
z
" style="fill:#ffffff;opacity:0.8;stroke:#cccccc;stroke-linejoin:miter;"/>
    </g>
    <g id="line2d_19">
     <path d="M 153 122.682187 
L 173 122.682187 
" style="fill:none;stroke:#ff0000;stroke-linecap:square;stroke-width:1.5;"/>
    </g>
    <g id="line2d_20"/>
    <g id="text_20">
     <!-- Input -->
     <g transform="translate(181 126.182187)scale(0.1 -0.1)">
      <defs>
       <path d="M 9.8125 72.90625 
L 19.671875 72.90625 
L 19.671875 0 
L 9.8125 0 
z
" id="DejaVuSans-73"/>
       <path d="M 18.109375 8.203125 
L 18.109375 -20.796875 
L 9.078125 -20.796875 
L 9.078125 54.6875 
L 18.109375 54.6875 
L 18.109375 46.390625 
Q 20.953125 51.265625 25.265625 53.625 
Q 29.59375 56 35.59375 56 
Q 45.5625 56 51.78125 48.09375 
Q 58.015625 40.1875 58.015625 27.296875 
Q 58.015625 14.40625 51.78125 6.484375 
Q 45.5625 -1.421875 35.59375 -1.421875 
Q 29.59375 -1.421875 25.265625 0.953125 
Q 20.953125 3.328125 18.109375 8.203125 
z
M 48.6875 27.296875 
Q 48.6875 37.203125 44.609375 42.84375 
Q 40.53125 48.484375 33.40625 48.484375 
Q 26.265625 48.484375 22.1875 42.84375 
Q 18.109375 37.203125 18.109375 27.296875 
Q 18.109375 17.390625 22.1875 11.75 
Q 26.265625 6.109375 33.40625 6.109375 
Q 40.53125 6.109375 44.609375 11.75 
Q 48.6875 17.390625 48.6875 27.296875 
z
" id="DejaVuSans-112"/>
      </defs>
      <use xlink:href="#DejaVuSans-73"/>
      <use x="29.492188" xlink:href="#DejaVuSans-110"/>
      <use x="92.871094" xlink:href="#DejaVuSans-112"/>
      <use x="156.347656" xlink:href="#DejaVuSans-117"/>
      <use x="219.726562" xlink:href="#DejaVuSans-116"/>
     </g>
    </g>
    <g id="line2d_21">
     <path d="M 153 137.360312 
L 173 137.360312 
" style="fill:none;stroke:#008000;stroke-linecap:square;stroke-width:1.5;"/>
    </g>
    <g id="line2d_22"/>
    <g id="text_21">
     <!-- Output -->
     <g transform="translate(181 140.860312)scale(0.1 -0.1)">
      <defs>
       <path d="M 39.40625 66.21875 
Q 28.65625 66.21875 22.328125 58.203125 
Q 16.015625 50.203125 16.015625 36.375 
Q 16.015625 22.609375 22.328125 14.59375 
Q 28.65625 6.59375 39.40625 6.59375 
Q 50.140625 6.59375 56.421875 14.59375 
Q 62.703125 22.609375 62.703125 36.375 
Q 62.703125 50.203125 56.421875 58.203125 
Q 50.140625 66.21875 39.40625 66.21875 
z
M 39.40625 74.21875 
Q 54.734375 74.21875 63.90625 63.9375 
Q 73.09375 53.65625 73.09375 36.375 
Q 73.09375 19.140625 63.90625 8.859375 
Q 54.734375 -1.421875 39.40625 -1.421875 
Q 24.03125 -1.421875 14.8125 8.828125 
Q 5.609375 19.09375 5.609375 36.375 
Q 5.609375 53.65625 14.8125 63.9375 
Q 24.03125 74.21875 39.40625 74.21875 
z
" id="DejaVuSans-79"/>
      </defs>
      <use xlink:href="#DejaVuSans-79"/>
      <use x="78.710938" xlink:href="#DejaVuSans-117"/>
      <use x="142.089844" xlink:href="#DejaVuSans-116"/>
      <use x="181.298828" xlink:href="#DejaVuSans-112"/>
      <use x="244.775391" xlink:href="#DejaVuSans-117"/>
      <use x="308.154297" xlink:href="#DejaVuSans-116"/>
     </g>
    </g>
    <g id="line2d_23">
     <path d="M 153 152.038437 
L 173 152.038437 
" style="fill:none;stroke:#008000;stroke-dasharray:5.55,2.4;stroke-dashoffset:0;stroke-width:1.5;"/>
    </g>
    <g id="line2d_24"/>
    <g id="text_22">
     <!-- Output fitting from transfer functions -->
     <g transform="translate(181 155.538437)scale(0.1 -0.1)">
      <use xlink:href="#DejaVuSans-79"/>
      <use x="78.710938" xlink:href="#DejaVuSans-117"/>
      <use x="142.089844" xlink:href="#DejaVuSans-116"/>
      <use x="181.298828" xlink:href="#DejaVuSans-112"/>
      <use x="244.775391" xlink:href="#DejaVuSans-117"/>
      <use x="308.154297" xlink:href="#DejaVuSans-116"/>
      <use x="347.363281" xlink:href="#DejaVuSans-32"/>
      <use x="379.150391" xlink:href="#DejaVuSans-102"/>
      <use x="414.355469" xlink:href="#DejaVuSans-105"/>
      <use x="442.138672" xlink:href="#DejaVuSans-116"/>
      <use x="481.347656" xlink:href="#DejaVuSans-116"/>
      <use x="520.556641" xlink:href="#DejaVuSans-105"/>
      <use x="548.339844" xlink:href="#DejaVuSans-110"/>
      <use x="611.71875" xlink:href="#DejaVuSans-103"/>
      <use x="675.195312" xlink:href="#DejaVuSans-32"/>
      <use x="706.982422" xlink:href="#DejaVuSans-102"/>
      <use x="742.1875" xlink:href="#DejaVuSans-114"/>
      <use x="781.050781" xlink:href="#DejaVuSans-111"/>
      <use x="842.232422" xlink:href="#DejaVuSans-109"/>
      <use x="939.644531" xlink:href="#DejaVuSans-32"/>
      <use x="971.431641" xlink:href="#DejaVuSans-116"/>
      <use x="1010.640625" xlink:href="#DejaVuSans-114"/>
      <use x="1051.753906" xlink:href="#DejaVuSans-97"/>
      <use x="1113.033203" xlink:href="#DejaVuSans-110"/>
      <use x="1176.412109" xlink:href="#DejaVuSans-115"/>
      <use x="1228.511719" xlink:href="#DejaVuSans-102"/>
      <use x="1263.716797" xlink:href="#DejaVuSans-101"/>
      <use x="1325.240234" xlink:href="#DejaVuSans-114"/>
      <use x="1366.353516" xlink:href="#DejaVuSans-32"/>
      <use x="1398.140625" xlink:href="#DejaVuSans-102"/>
      <use x="1433.345703" xlink:href="#DejaVuSans-117"/>
      <use x="1496.724609" xlink:href="#DejaVuSans-110"/>
      <use x="1560.103516" xlink:href="#DejaVuSans-99"/>
      <use x="1615.083984" xlink:href="#DejaVuSans-116"/>
      <use x="1654.292969" xlink:href="#DejaVuSans-105"/>
      <use x="1682.076172" xlink:href="#DejaVuSans-111"/>
      <use x="1743.257812" xlink:href="#DejaVuSans-110"/>
      <use x="1806.636719" xlink:href="#DejaVuSans-115"/>
     </g>
    </g>
    <g id="line2d_25">
     <path d="M 153 166.716563 
L 173 166.716563 
" style="fill:none;stroke:#008000;stroke-dasharray:9.6,2.4,1.5,2.4;stroke-dashoffset:0;stroke-width:1.5;"/>
    </g>
    <g id="line2d_26"/>
    <g id="text_23">
     <!-- fitting error -->
     <g transform="translate(181 170.216563)scale(0.1 -0.1)">
      <use xlink:href="#DejaVuSans-102"/>
      <use x="35.205078" xlink:href="#DejaVuSans-105"/>
      <use x="62.988281" xlink:href="#DejaVuSans-116"/>
      <use x="102.197266" xlink:href="#DejaVuSans-116"/>
      <use x="141.40625" xlink:href="#DejaVuSans-105"/>
      <use x="169.189453" xlink:href="#DejaVuSans-110"/>
      <use x="232.568359" xlink:href="#DejaVuSans-103"/>
      <use x="296.044922" xlink:href="#DejaVuSans-32"/>
      <use x="327.832031" xlink:href="#DejaVuSans-101"/>
      <use x="389.355469" xlink:href="#DejaVuSans-114"/>
      <use x="428.71875" xlink:href="#DejaVuSans-114"/>
      <use x="467.582031" xlink:href="#DejaVuSans-111"/>
      <use x="528.763672" xlink:href="#DejaVuSans-114"/>
     </g>
    </g>
   </g>
  </g>
 </g>
 <defs>
  <clipPath id="p5457f0ce5d">
   <rect height="221.76" width="892.8" x="144" y="34.56"/>
  </clipPath>
 </defs>
</svg>
