<?xml version="1.0" encoding="utf-8" standalone="no"?>
<!DOCTYPE svg PUBLIC "-//W3C//DTD SVG 1.1//EN"
  "http://www.w3.org/Graphics/SVG/1.1/DTD/svg11.dtd">
<!-- Created with matplotlib (https://matplotlib.org/) -->
<svg height="288pt" version="1.1" viewBox="0 0 1152 288" width="1152pt" xmlns="http://www.w3.org/2000/svg" xmlns:xlink="http://www.w3.org/1999/xlink">
 <metadata>
  <rdf:RDF xmlns:cc="http://creativecommons.org/ns#" xmlns:dc="http://purl.org/dc/elements/1.1/" xmlns:rdf="http://www.w3.org/1999/02/22-rdf-syntax-ns#">
   <cc:Work>
    <dc:type rdf:resource="http://purl.org/dc/dcmitype/StillImage"/>
    <dc:date>2020-08-12T14:47:14.970861</dc:date>
    <dc:format>image/svg+xml</dc:format>
    <dc:creator>
     <cc:Agent>
      <dc:title>Matplotlib v3.3.0, https://matplotlib.org/</dc:title>
     </cc:Agent>
    </dc:creator>
   </cc:Work>
  </rdf:RDF>
 </metadata>
 <defs>
  <style type="text/css">*{stroke-linecap:butt;stroke-linejoin:round;}</style>
 </defs>
 <g id="figure_1">
  <g id="patch_1">
   <path d="M 0 288 
L 1152 288 
L 1152 0 
L 0 0 
z
" style="fill:#ffffff;"/>
  </g>
  <g id="axes_1">
   <g id="patch_2">
    <path d="M 144 256.32 
L 1036.8 256.32 
L 1036.8 34.56 
L 144 34.56 
z
" style="fill:#ffffff;"/>
   </g>
   <g id="matplotlib.axis_1">
    <g id="xtick_1">
     <g id="line2d_1">
      <defs>
       <path d="M 0 0 
L 0 3.5 
" id="ma87dfca43f" style="stroke:#000000;stroke-width:0.8;"/>
      </defs>
      <g>
       <use style="stroke:#000000;stroke-width:0.8;" x="184.581818" xlink:href="#ma87dfca43f" y="256.32"/>
      </g>
     </g>
     <g id="text_1">
      <!-- 0 -->
      <g transform="translate(181.400568 270.918437)scale(0.1 -0.1)">
       <defs>
        <path d="M 31.78125 66.40625 
Q 24.171875 66.40625 20.328125 58.90625 
Q 16.5 51.421875 16.5 36.375 
Q 16.5 21.390625 20.328125 13.890625 
Q 24.171875 6.390625 31.78125 6.390625 
Q 39.453125 6.390625 43.28125 13.890625 
Q 47.125 21.390625 47.125 36.375 
Q 47.125 51.421875 43.28125 58.90625 
Q 39.453125 66.40625 31.78125 66.40625 
z
M 31.78125 74.21875 
Q 44.046875 74.21875 50.515625 64.515625 
Q 56.984375 54.828125 56.984375 36.375 
Q 56.984375 17.96875 50.515625 8.265625 
Q 44.046875 -1.421875 31.78125 -1.421875 
Q 19.53125 -1.421875 13.0625 8.265625 
Q 6.59375 17.96875 6.59375 36.375 
Q 6.59375 54.828125 13.0625 64.515625 
Q 19.53125 74.21875 31.78125 74.21875 
z
" id="DejaVuSans-48"/>
       </defs>
       <use xlink:href="#DejaVuSans-48"/>
      </g>
     </g>
    </g>
    <g id="xtick_2">
     <g id="line2d_2">
      <g>
       <use style="stroke:#000000;stroke-width:0.8;" x="363.201845" xlink:href="#ma87dfca43f" y="256.32"/>
      </g>
     </g>
     <g id="text_2">
      <!-- 2 -->
      <g transform="translate(360.020595 270.918437)scale(0.1 -0.1)">
       <defs>
        <path d="M 19.1875 8.296875 
L 53.609375 8.296875 
L 53.609375 0 
L 7.328125 0 
L 7.328125 8.296875 
Q 12.9375 14.109375 22.625 23.890625 
Q 32.328125 33.6875 34.8125 36.53125 
Q 39.546875 41.84375 41.421875 45.53125 
Q 43.3125 49.21875 43.3125 52.78125 
Q 43.3125 58.59375 39.234375 62.25 
Q 35.15625 65.921875 28.609375 65.921875 
Q 23.96875 65.921875 18.8125 64.3125 
Q 13.671875 62.703125 7.8125 59.421875 
L 7.8125 69.390625 
Q 13.765625 71.78125 18.9375 73 
Q 24.125 74.21875 28.421875 74.21875 
Q 39.75 74.21875 46.484375 68.546875 
Q 53.21875 62.890625 53.21875 53.421875 
Q 53.21875 48.921875 51.53125 44.890625 
Q 49.859375 40.875 45.40625 35.40625 
Q 44.1875 33.984375 37.640625 27.21875 
Q 31.109375 20.453125 19.1875 8.296875 
z
" id="DejaVuSans-50"/>
       </defs>
       <use xlink:href="#DejaVuSans-50"/>
      </g>
     </g>
    </g>
    <g id="xtick_3">
     <g id="line2d_3">
      <g>
       <use style="stroke:#000000;stroke-width:0.8;" x="541.821872" xlink:href="#ma87dfca43f" y="256.32"/>
      </g>
     </g>
     <g id="text_3">
      <!-- 4 -->
      <g transform="translate(538.640622 270.918437)scale(0.1 -0.1)">
       <defs>
        <path d="M 37.796875 64.3125 
L 12.890625 25.390625 
L 37.796875 25.390625 
z
M 35.203125 72.90625 
L 47.609375 72.90625 
L 47.609375 25.390625 
L 58.015625 25.390625 
L 58.015625 17.1875 
L 47.609375 17.1875 
L 47.609375 0 
L 37.796875 0 
L 37.796875 17.1875 
L 4.890625 17.1875 
L 4.890625 26.703125 
z
" id="DejaVuSans-52"/>
       </defs>
       <use xlink:href="#DejaVuSans-52"/>
      </g>
     </g>
    </g>
    <g id="xtick_4">
     <g id="line2d_4">
      <g>
       <use style="stroke:#000000;stroke-width:0.8;" x="720.441899" xlink:href="#ma87dfca43f" y="256.32"/>
      </g>
     </g>
     <g id="text_4">
      <!-- 6 -->
      <g transform="translate(717.260649 270.918437)scale(0.1 -0.1)">
       <defs>
        <path d="M 33.015625 40.375 
Q 26.375 40.375 22.484375 35.828125 
Q 18.609375 31.296875 18.609375 23.390625 
Q 18.609375 15.53125 22.484375 10.953125 
Q 26.375 6.390625 33.015625 6.390625 
Q 39.65625 6.390625 43.53125 10.953125 
Q 47.40625 15.53125 47.40625 23.390625 
Q 47.40625 31.296875 43.53125 35.828125 
Q 39.65625 40.375 33.015625 40.375 
z
M 52.59375 71.296875 
L 52.59375 62.3125 
Q 48.875 64.0625 45.09375 64.984375 
Q 41.3125 65.921875 37.59375 65.921875 
Q 27.828125 65.921875 22.671875 59.328125 
Q 17.53125 52.734375 16.796875 39.40625 
Q 19.671875 43.65625 24.015625 45.921875 
Q 28.375 48.1875 33.59375 48.1875 
Q 44.578125 48.1875 50.953125 41.515625 
Q 57.328125 34.859375 57.328125 23.390625 
Q 57.328125 12.15625 50.6875 5.359375 
Q 44.046875 -1.421875 33.015625 -1.421875 
Q 20.359375 -1.421875 13.671875 8.265625 
Q 6.984375 17.96875 6.984375 36.375 
Q 6.984375 53.65625 15.1875 63.9375 
Q 23.390625 74.21875 37.203125 74.21875 
Q 40.921875 74.21875 44.703125 73.484375 
Q 48.484375 72.75 52.59375 71.296875 
z
" id="DejaVuSans-54"/>
       </defs>
       <use xlink:href="#DejaVuSans-54"/>
      </g>
     </g>
    </g>
    <g id="xtick_5">
     <g id="line2d_5">
      <g>
       <use style="stroke:#000000;stroke-width:0.8;" x="899.061926" xlink:href="#ma87dfca43f" y="256.32"/>
      </g>
     </g>
     <g id="text_5">
      <!-- 8 -->
      <g transform="translate(895.880676 270.918437)scale(0.1 -0.1)">
       <defs>
        <path d="M 31.78125 34.625 
Q 24.75 34.625 20.71875 30.859375 
Q 16.703125 27.09375 16.703125 20.515625 
Q 16.703125 13.921875 20.71875 10.15625 
Q 24.75 6.390625 31.78125 6.390625 
Q 38.8125 6.390625 42.859375 10.171875 
Q 46.921875 13.96875 46.921875 20.515625 
Q 46.921875 27.09375 42.890625 30.859375 
Q 38.875 34.625 31.78125 34.625 
z
M 21.921875 38.8125 
Q 15.578125 40.375 12.03125 44.71875 
Q 8.5 49.078125 8.5 55.328125 
Q 8.5 64.0625 14.71875 69.140625 
Q 20.953125 74.21875 31.78125 74.21875 
Q 42.671875 74.21875 48.875 69.140625 
Q 55.078125 64.0625 55.078125 55.328125 
Q 55.078125 49.078125 51.53125 44.71875 
Q 48 40.375 41.703125 38.8125 
Q 48.828125 37.15625 52.796875 32.3125 
Q 56.78125 27.484375 56.78125 20.515625 
Q 56.78125 9.90625 50.3125 4.234375 
Q 43.84375 -1.421875 31.78125 -1.421875 
Q 19.734375 -1.421875 13.25 4.234375 
Q 6.78125 9.90625 6.78125 20.515625 
Q 6.78125 27.484375 10.78125 32.3125 
Q 14.796875 37.15625 21.921875 38.8125 
z
M 18.3125 54.390625 
Q 18.3125 48.734375 21.84375 45.5625 
Q 25.390625 42.390625 31.78125 42.390625 
Q 38.140625 42.390625 41.71875 45.5625 
Q 45.3125 48.734375 45.3125 54.390625 
Q 45.3125 60.0625 41.71875 63.234375 
Q 38.140625 66.40625 31.78125 66.40625 
Q 25.390625 66.40625 21.84375 63.234375 
Q 18.3125 60.0625 18.3125 54.390625 
z
" id="DejaVuSans-56"/>
       </defs>
       <use xlink:href="#DejaVuSans-56"/>
      </g>
     </g>
    </g>
    <g id="text_6">
     <!-- Time [s] -->
     <g transform="translate(570.071094 284.596563)scale(0.1 -0.1)">
      <defs>
       <path d="M -0.296875 72.90625 
L 61.375 72.90625 
L 61.375 64.59375 
L 35.5 64.59375 
L 35.5 0 
L 25.59375 0 
L 25.59375 64.59375 
L -0.296875 64.59375 
z
" id="DejaVuSans-84"/>
       <path d="M 9.421875 54.6875 
L 18.40625 54.6875 
L 18.40625 0 
L 9.421875 0 
z
M 9.421875 75.984375 
L 18.40625 75.984375 
L 18.40625 64.59375 
L 9.421875 64.59375 
z
" id="DejaVuSans-105"/>
       <path d="M 52 44.1875 
Q 55.375 50.25 60.0625 53.125 
Q 64.75 56 71.09375 56 
Q 79.640625 56 84.28125 50.015625 
Q 88.921875 44.046875 88.921875 33.015625 
L 88.921875 0 
L 79.890625 0 
L 79.890625 32.71875 
Q 79.890625 40.578125 77.09375 44.375 
Q 74.3125 48.1875 68.609375 48.1875 
Q 61.625 48.1875 57.5625 43.546875 
Q 53.515625 38.921875 53.515625 30.90625 
L 53.515625 0 
L 44.484375 0 
L 44.484375 32.71875 
Q 44.484375 40.625 41.703125 44.40625 
Q 38.921875 48.1875 33.109375 48.1875 
Q 26.21875 48.1875 22.15625 43.53125 
Q 18.109375 38.875 18.109375 30.90625 
L 18.109375 0 
L 9.078125 0 
L 9.078125 54.6875 
L 18.109375 54.6875 
L 18.109375 46.1875 
Q 21.1875 51.21875 25.484375 53.609375 
Q 29.78125 56 35.6875 56 
Q 41.65625 56 45.828125 52.96875 
Q 50 49.953125 52 44.1875 
z
" id="DejaVuSans-109"/>
       <path d="M 56.203125 29.59375 
L 56.203125 25.203125 
L 14.890625 25.203125 
Q 15.484375 15.921875 20.484375 11.0625 
Q 25.484375 6.203125 34.421875 6.203125 
Q 39.59375 6.203125 44.453125 7.46875 
Q 49.3125 8.734375 54.109375 11.28125 
L 54.109375 2.78125 
Q 49.265625 0.734375 44.1875 -0.34375 
Q 39.109375 -1.421875 33.890625 -1.421875 
Q 20.796875 -1.421875 13.15625 6.1875 
Q 5.515625 13.8125 5.515625 26.8125 
Q 5.515625 40.234375 12.765625 48.109375 
Q 20.015625 56 32.328125 56 
Q 43.359375 56 49.78125 48.890625 
Q 56.203125 41.796875 56.203125 29.59375 
z
M 47.21875 32.234375 
Q 47.125 39.59375 43.09375 43.984375 
Q 39.0625 48.390625 32.421875 48.390625 
Q 24.90625 48.390625 20.390625 44.140625 
Q 15.875 39.890625 15.1875 32.171875 
z
" id="DejaVuSans-101"/>
       <path id="DejaVuSans-32"/>
       <path d="M 8.59375 75.984375 
L 29.296875 75.984375 
L 29.296875 69 
L 17.578125 69 
L 17.578125 -6.203125 
L 29.296875 -6.203125 
L 29.296875 -13.1875 
L 8.59375 -13.1875 
z
" id="DejaVuSans-91"/>
       <path d="M 44.28125 53.078125 
L 44.28125 44.578125 
Q 40.484375 46.53125 36.375 47.5 
Q 32.28125 48.484375 27.875 48.484375 
Q 21.1875 48.484375 17.84375 46.4375 
Q 14.5 44.390625 14.5 40.28125 
Q 14.5 37.15625 16.890625 35.375 
Q 19.28125 33.59375 26.515625 31.984375 
L 29.59375 31.296875 
Q 39.15625 29.25 43.1875 25.515625 
Q 47.21875 21.78125 47.21875 15.09375 
Q 47.21875 7.46875 41.1875 3.015625 
Q 35.15625 -1.421875 24.609375 -1.421875 
Q 20.21875 -1.421875 15.453125 -0.5625 
Q 10.6875 0.296875 5.421875 2 
L 5.421875 11.28125 
Q 10.40625 8.6875 15.234375 7.390625 
Q 20.0625 6.109375 24.8125 6.109375 
Q 31.15625 6.109375 34.5625 8.28125 
Q 37.984375 10.453125 37.984375 14.40625 
Q 37.984375 18.0625 35.515625 20.015625 
Q 33.0625 21.96875 24.703125 23.78125 
L 21.578125 24.515625 
Q 13.234375 26.265625 9.515625 29.90625 
Q 5.8125 33.546875 5.8125 39.890625 
Q 5.8125 47.609375 11.28125 51.796875 
Q 16.75 56 26.8125 56 
Q 31.78125 56 36.171875 55.265625 
Q 40.578125 54.546875 44.28125 53.078125 
z
" id="DejaVuSans-115"/>
       <path d="M 30.421875 75.984375 
L 30.421875 -13.1875 
L 9.71875 -13.1875 
L 9.71875 -6.203125 
L 21.390625 -6.203125 
L 21.390625 69 
L 9.71875 69 
L 9.71875 75.984375 
z
" id="DejaVuSans-93"/>
      </defs>
      <use xlink:href="#DejaVuSans-84"/>
      <use x="57.958984" xlink:href="#DejaVuSans-105"/>
      <use x="85.742188" xlink:href="#DejaVuSans-109"/>
      <use x="183.154297" xlink:href="#DejaVuSans-101"/>
      <use x="244.677734" xlink:href="#DejaVuSans-32"/>
      <use x="276.464844" xlink:href="#DejaVuSans-91"/>
      <use x="315.478516" xlink:href="#DejaVuSans-115"/>
      <use x="367.578125" xlink:href="#DejaVuSans-93"/>
     </g>
    </g>
    <g id="text_7">
     <!-- 1e−9 -->
     <g transform="translate(1009.542187 283.596563)scale(0.1 -0.1)">
      <defs>
       <path d="M 12.40625 8.296875 
L 28.515625 8.296875 
L 28.515625 63.921875 
L 10.984375 60.40625 
L 10.984375 69.390625 
L 28.421875 72.90625 
L 38.28125 72.90625 
L 38.28125 8.296875 
L 54.390625 8.296875 
L 54.390625 0 
L 12.40625 0 
z
" id="DejaVuSans-49"/>
       <path d="M 10.59375 35.5 
L 73.1875 35.5 
L 73.1875 27.203125 
L 10.59375 27.203125 
z
" id="DejaVuSans-8722"/>
       <path d="M 10.984375 1.515625 
L 10.984375 10.5 
Q 14.703125 8.734375 18.5 7.8125 
Q 22.3125 6.890625 25.984375 6.890625 
Q 35.75 6.890625 40.890625 13.453125 
Q 46.046875 20.015625 46.78125 33.40625 
Q 43.953125 29.203125 39.59375 26.953125 
Q 35.25 24.703125 29.984375 24.703125 
Q 19.046875 24.703125 12.671875 31.3125 
Q 6.296875 37.9375 6.296875 49.421875 
Q 6.296875 60.640625 12.9375 67.421875 
Q 19.578125 74.21875 30.609375 74.21875 
Q 43.265625 74.21875 49.921875 64.515625 
Q 56.59375 54.828125 56.59375 36.375 
Q 56.59375 19.140625 48.40625 8.859375 
Q 40.234375 -1.421875 26.421875 -1.421875 
Q 22.703125 -1.421875 18.890625 -0.6875 
Q 15.09375 0.046875 10.984375 1.515625 
z
M 30.609375 32.421875 
Q 37.25 32.421875 41.125 36.953125 
Q 45.015625 41.5 45.015625 49.421875 
Q 45.015625 57.28125 41.125 61.84375 
Q 37.25 66.40625 30.609375 66.40625 
Q 23.96875 66.40625 20.09375 61.84375 
Q 16.21875 57.28125 16.21875 49.421875 
Q 16.21875 41.5 20.09375 36.953125 
Q 23.96875 32.421875 30.609375 32.421875 
z
" id="DejaVuSans-57"/>
      </defs>
      <use xlink:href="#DejaVuSans-49"/>
      <use x="63.623047" xlink:href="#DejaVuSans-101"/>
      <use x="125.146484" xlink:href="#DejaVuSans-8722"/>
      <use x="208.935547" xlink:href="#DejaVuSans-57"/>
     </g>
    </g>
   </g>
   <g id="matplotlib.axis_2">
    <g id="ytick_1">
     <g id="line2d_6">
      <defs>
       <path d="M 0 0 
L -3.5 0 
" id="mb990dfe5d2" style="stroke:#000000;stroke-width:0.8;"/>
      </defs>
      <g>
       <use style="stroke:#000000;stroke-width:0.8;" x="144" xlink:href="#mb990dfe5d2" y="234.171893"/>
      </g>
     </g>
     <g id="text_8">
      <!-- −0.2 -->
      <g transform="translate(112.717187 237.971111)scale(0.1 -0.1)">
       <defs>
        <path d="M 10.6875 12.40625 
L 21 12.40625 
L 21 0 
L 10.6875 0 
z
" id="DejaVuSans-46"/>
       </defs>
       <use xlink:href="#DejaVuSans-8722"/>
       <use x="83.789062" xlink:href="#DejaVuSans-48"/>
       <use x="147.412109" xlink:href="#DejaVuSans-46"/>
       <use x="179.199219" xlink:href="#DejaVuSans-50"/>
      </g>
     </g>
    </g>
    <g id="ytick_2">
     <g id="line2d_7">
      <g>
       <use style="stroke:#000000;stroke-width:0.8;" x="144" xlink:href="#mb990dfe5d2" y="207.137811"/>
      </g>
     </g>
     <g id="text_9">
      <!-- 0.0 -->
      <g transform="translate(121.096875 210.93703)scale(0.1 -0.1)">
       <use xlink:href="#DejaVuSans-48"/>
       <use x="63.623047" xlink:href="#DejaVuSans-46"/>
       <use x="95.410156" xlink:href="#DejaVuSans-48"/>
      </g>
     </g>
    </g>
    <g id="ytick_3">
     <g id="line2d_8">
      <g>
       <use style="stroke:#000000;stroke-width:0.8;" x="144" xlink:href="#mb990dfe5d2" y="180.103729"/>
      </g>
     </g>
     <g id="text_10">
      <!-- 0.2 -->
      <g transform="translate(121.096875 183.902948)scale(0.1 -0.1)">
       <use xlink:href="#DejaVuSans-48"/>
       <use x="63.623047" xlink:href="#DejaVuSans-46"/>
       <use x="95.410156" xlink:href="#DejaVuSans-50"/>
      </g>
     </g>
    </g>
    <g id="ytick_4">
     <g id="line2d_9">
      <g>
       <use style="stroke:#000000;stroke-width:0.8;" x="144" xlink:href="#mb990dfe5d2" y="153.069647"/>
      </g>
     </g>
     <g id="text_11">
      <!-- 0.4 -->
      <g transform="translate(121.096875 156.868866)scale(0.1 -0.1)">
       <use xlink:href="#DejaVuSans-48"/>
       <use x="63.623047" xlink:href="#DejaVuSans-46"/>
       <use x="95.410156" xlink:href="#DejaVuSans-52"/>
      </g>
     </g>
    </g>
    <g id="ytick_5">
     <g id="line2d_10">
      <g>
       <use style="stroke:#000000;stroke-width:0.8;" x="144" xlink:href="#mb990dfe5d2" y="126.035565"/>
      </g>
     </g>
     <g id="text_12">
      <!-- 0.6 -->
      <g transform="translate(121.096875 129.834784)scale(0.1 -0.1)">
       <use xlink:href="#DejaVuSans-48"/>
       <use x="63.623047" xlink:href="#DejaVuSans-46"/>
       <use x="95.410156" xlink:href="#DejaVuSans-54"/>
      </g>
     </g>
    </g>
    <g id="ytick_6">
     <g id="line2d_11">
      <g>
       <use style="stroke:#000000;stroke-width:0.8;" x="144" xlink:href="#mb990dfe5d2" y="99.001483"/>
      </g>
     </g>
     <g id="text_13">
      <!-- 0.8 -->
      <g transform="translate(121.096875 102.800702)scale(0.1 -0.1)">
       <use xlink:href="#DejaVuSans-48"/>
       <use x="63.623047" xlink:href="#DejaVuSans-46"/>
       <use x="95.410156" xlink:href="#DejaVuSans-56"/>
      </g>
     </g>
    </g>
    <g id="ytick_7">
     <g id="line2d_12">
      <g>
       <use style="stroke:#000000;stroke-width:0.8;" x="144" xlink:href="#mb990dfe5d2" y="71.967402"/>
      </g>
     </g>
     <g id="text_14">
      <!-- 1.0 -->
      <g transform="translate(121.096875 75.76662)scale(0.1 -0.1)">
       <use xlink:href="#DejaVuSans-49"/>
       <use x="63.623047" xlink:href="#DejaVuSans-46"/>
       <use x="95.410156" xlink:href="#DejaVuSans-48"/>
      </g>
     </g>
    </g>
    <g id="ytick_8">
     <g id="line2d_13">
      <g>
       <use style="stroke:#000000;stroke-width:0.8;" x="144" xlink:href="#mb990dfe5d2" y="44.93332"/>
      </g>
     </g>
     <g id="text_15">
      <!-- 1.2 -->
      <g transform="translate(121.096875 48.732539)scale(0.1 -0.1)">
       <use xlink:href="#DejaVuSans-49"/>
       <use x="63.623047" xlink:href="#DejaVuSans-46"/>
       <use x="95.410156" xlink:href="#DejaVuSans-50"/>
      </g>
     </g>
    </g>
    <g id="text_16">
     <!-- Voltage [V] -->
     <g transform="translate(106.6375 173.107188)rotate(-90)scale(0.1 -0.1)">
      <defs>
       <path d="M 28.609375 0 
L 0.78125 72.90625 
L 11.078125 72.90625 
L 34.1875 11.53125 
L 57.328125 72.90625 
L 67.578125 72.90625 
L 39.796875 0 
z
" id="DejaVuSans-86"/>
       <path d="M 30.609375 48.390625 
Q 23.390625 48.390625 19.1875 42.75 
Q 14.984375 37.109375 14.984375 27.296875 
Q 14.984375 17.484375 19.15625 11.84375 
Q 23.34375 6.203125 30.609375 6.203125 
Q 37.796875 6.203125 41.984375 11.859375 
Q 46.1875 17.53125 46.1875 27.296875 
Q 46.1875 37.015625 41.984375 42.703125 
Q 37.796875 48.390625 30.609375 48.390625 
z
M 30.609375 56 
Q 42.328125 56 49.015625 48.375 
Q 55.71875 40.765625 55.71875 27.296875 
Q 55.71875 13.875 49.015625 6.21875 
Q 42.328125 -1.421875 30.609375 -1.421875 
Q 18.84375 -1.421875 12.171875 6.21875 
Q 5.515625 13.875 5.515625 27.296875 
Q 5.515625 40.765625 12.171875 48.375 
Q 18.84375 56 30.609375 56 
z
" id="DejaVuSans-111"/>
       <path d="M 9.421875 75.984375 
L 18.40625 75.984375 
L 18.40625 0 
L 9.421875 0 
z
" id="DejaVuSans-108"/>
       <path d="M 18.3125 70.21875 
L 18.3125 54.6875 
L 36.8125 54.6875 
L 36.8125 47.703125 
L 18.3125 47.703125 
L 18.3125 18.015625 
Q 18.3125 11.328125 20.140625 9.421875 
Q 21.96875 7.515625 27.59375 7.515625 
L 36.8125 7.515625 
L 36.8125 0 
L 27.59375 0 
Q 17.1875 0 13.234375 3.875 
Q 9.28125 7.765625 9.28125 18.015625 
L 9.28125 47.703125 
L 2.6875 47.703125 
L 2.6875 54.6875 
L 9.28125 54.6875 
L 9.28125 70.21875 
z
" id="DejaVuSans-116"/>
       <path d="M 34.28125 27.484375 
Q 23.390625 27.484375 19.1875 25 
Q 14.984375 22.515625 14.984375 16.5 
Q 14.984375 11.71875 18.140625 8.90625 
Q 21.296875 6.109375 26.703125 6.109375 
Q 34.1875 6.109375 38.703125 11.40625 
Q 43.21875 16.703125 43.21875 25.484375 
L 43.21875 27.484375 
z
M 52.203125 31.203125 
L 52.203125 0 
L 43.21875 0 
L 43.21875 8.296875 
Q 40.140625 3.328125 35.546875 0.953125 
Q 30.953125 -1.421875 24.3125 -1.421875 
Q 15.921875 -1.421875 10.953125 3.296875 
Q 6 8.015625 6 15.921875 
Q 6 25.140625 12.171875 29.828125 
Q 18.359375 34.515625 30.609375 34.515625 
L 43.21875 34.515625 
L 43.21875 35.40625 
Q 43.21875 41.609375 39.140625 45 
Q 35.0625 48.390625 27.6875 48.390625 
Q 23 48.390625 18.546875 47.265625 
Q 14.109375 46.140625 10.015625 43.890625 
L 10.015625 52.203125 
Q 14.9375 54.109375 19.578125 55.046875 
Q 24.21875 56 28.609375 56 
Q 40.484375 56 46.34375 49.84375 
Q 52.203125 43.703125 52.203125 31.203125 
z
" id="DejaVuSans-97"/>
       <path d="M 45.40625 27.984375 
Q 45.40625 37.75 41.375 43.109375 
Q 37.359375 48.484375 30.078125 48.484375 
Q 22.859375 48.484375 18.828125 43.109375 
Q 14.796875 37.75 14.796875 27.984375 
Q 14.796875 18.265625 18.828125 12.890625 
Q 22.859375 7.515625 30.078125 7.515625 
Q 37.359375 7.515625 41.375 12.890625 
Q 45.40625 18.265625 45.40625 27.984375 
z
M 54.390625 6.78125 
Q 54.390625 -7.171875 48.1875 -13.984375 
Q 42 -20.796875 29.203125 -20.796875 
Q 24.46875 -20.796875 20.265625 -20.09375 
Q 16.0625 -19.390625 12.109375 -17.921875 
L 12.109375 -9.1875 
Q 16.0625 -11.328125 19.921875 -12.34375 
Q 23.78125 -13.375 27.78125 -13.375 
Q 36.625 -13.375 41.015625 -8.765625 
Q 45.40625 -4.15625 45.40625 5.171875 
L 45.40625 9.625 
Q 42.625 4.78125 38.28125 2.390625 
Q 33.9375 0 27.875 0 
Q 17.828125 0 11.671875 7.65625 
Q 5.515625 15.328125 5.515625 27.984375 
Q 5.515625 40.671875 11.671875 48.328125 
Q 17.828125 56 27.875 56 
Q 33.9375 56 38.28125 53.609375 
Q 42.625 51.21875 45.40625 46.390625 
L 45.40625 54.6875 
L 54.390625 54.6875 
z
" id="DejaVuSans-103"/>
      </defs>
      <use xlink:href="#DejaVuSans-86"/>
      <use x="60.658203" xlink:href="#DejaVuSans-111"/>
      <use x="121.839844" xlink:href="#DejaVuSans-108"/>
      <use x="149.623047" xlink:href="#DejaVuSans-116"/>
      <use x="188.832031" xlink:href="#DejaVuSans-97"/>
      <use x="250.111328" xlink:href="#DejaVuSans-103"/>
      <use x="313.587891" xlink:href="#DejaVuSans-101"/>
      <use x="375.111328" xlink:href="#DejaVuSans-32"/>
      <use x="406.898438" xlink:href="#DejaVuSans-91"/>
      <use x="445.912109" xlink:href="#DejaVuSans-86"/>
      <use x="514.320312" xlink:href="#DejaVuSans-93"/>
     </g>
    </g>
   </g>
   <g id="line2d_14">
    <path clip-path="url(#pbb1d64f19d)" d="M 184.581818 207.137799 
L 310.355145 207.248878 
L 318.500219 207.292495 
L 319.955972 207.043138 
L 321.08226 206.630083 
L 322.064671 206.033512 
L 322.993495 205.202759 
L 323.913388 204.071031 
L 324.860074 202.54221 
L 325.869277 200.471733 
L 326.958859 197.703811 
L 328.155614 194.026796 
L 329.504195 189.127408 
L 331.06712 182.568886 
L 332.978354 173.537705 
L 335.621931 159.875356 
L 345.292419 108.971139 
L 347.918133 96.705317 
L 350.106229 87.501983 
L 352.062118 80.207376 
L 353.875111 74.28183 
L 355.589863 69.41579 
L 357.242099 65.376898 
L 358.876472 61.963034 
L 360.475121 59.128781 
L 362.038046 56.784926 
L 363.654558 54.747367 
L 365.315724 53.004886 
L 367.039407 51.514362 
L 368.968503 50.164415 
L 370.977979 49.047907 
L 373.30897 48.042239 
L 376.086512 47.151331 
L 378.872984 46.506974 
L 382.088144 45.987108 
L 385.804691 45.592681 
L 392.065323 45.230289 
L 403.157627 45.005501 
L 419.028016 44.894391 
L 430.379319 44.661357 
L 432.049416 44.847081 
L 433.290826 45.223395 
L 434.300029 45.771376 
L 435.237784 46.542794 
L 436.166608 47.612397 
L 437.095432 49.032768 
L 438.104635 51.012339 
L 439.203148 53.708583 
L 440.390972 57.264376 
L 441.677036 61.846652 
L 443.132789 67.903233 
L 444.767162 75.704444 
L 446.660535 85.88406 
L 448.947317 99.469349 
L 452.055306 119.399982 
L 458.673178 162.18362 
L 460.611205 173.044049 
L 462.191992 180.696438 
L 463.603091 186.47012 
L 464.907017 190.908062 
L 466.15566 194.398209 
L 467.370276 197.153319 
L 468.567031 199.332427 
L 469.763785 201.06298 
L 470.987332 202.450328 
L 472.264465 203.567202 
L 473.630908 204.468828 
L 475.149179 205.201191 
L 476.881793 205.785601 
L 478.962716 206.246089 
L 481.624155 206.596647 
L 485.357313 206.847833 
L 491.439325 207.008574 
L 505.915407 207.108674 
L 536.120053 207.31228 
L 540.951725 207.307466 
L 542.461064 207.074903 
L 543.613163 206.677321 
L 544.604504 206.100889 
L 545.533329 205.299026 
L 546.453222 204.200352 
L 547.399908 202.707886 
L 548.40018 200.695865 
L 549.4719 198.019062 
L 550.650792 194.447556 
L 551.97258 189.69753 
L 553.499782 183.337627 
L 555.35743 174.594332 
L 557.875972 161.573393 
L 568.477071 105.552734 
L 570.942027 94.241471 
L 573.04242 85.610705 
L 574.944724 78.705484 
L 576.721993 73.067351 
L 578.418883 68.40485 
L 580.008601 64.641976 
L 581.59832 61.418297 
L 583.232693 58.609051 
L 584.840273 56.285336 
L 586.51037 54.269945 
L 588.126882 52.649117 
L 589.922013 51.168731 
L 591.77073 49.935571 
L 593.637309 48.934364 
L 596.039749 47.928966 
L 598.495774 47.154305 
L 601.344764 46.492646 
L 605.792402 45.797599 
L 611.008107 45.278004 
L 616.974016 44.937375 
L 619.06387 45.047539 
L 620.242762 45.319907 
L 621.28769 45.783812 
L 622.252238 46.466423 
L 623.136407 47.359764 
L 624.083093 48.649019 
L 625.047641 50.355275 
L 626.119361 52.744547 
L 627.27146 55.900776 
L 628.521801 59.998467 
L 629.915037 65.33851 
L 631.54941 72.533441 
L 633.460644 82.008481 
L 635.880946 95.211981 
L 639.792724 117.992696 
L 644.277963 143.763016 
L 646.66254 156.184582 
L 648.62736 165.287795 
L 650.377836 172.382728 
L 652.003279 178.072375 
L 653.548699 182.697406 
L 655.049107 186.506089 
L 656.513792 189.637203 
L 657.960614 192.218553 
L 659.380643 194.310473 
L 660.791741 196.002908 
L 662.184977 197.334743 
L 663.551421 198.340383 
L 664.864278 199.037658 
L 666.105687 199.450518 
L 667.257786 199.603364 
L 668.329506 199.523387 
L 669.33871 199.225779 
L 670.312189 198.706165 
L 671.285668 197.928067 
L 672.268078 196.848745 
L 673.277281 195.398077 
L 674.331139 193.4773 
L 675.438584 190.978134 
L 676.626407 187.726597 
L 677.930333 183.478907 
L 679.395017 177.913982 
L 681.1187 170.441735 
L 683.297865 159.930465 
L 686.655921 142.488345 
L 692.603968 111.621236 
L 695.38151 98.416669 
L 697.632122 88.759676 
L 699.614804 81.204042 
L 701.436728 75.109519 
L 703.160412 70.096373 
L 704.83944 65.89014 
L 706.44702 62.445052 
L 708.090324 59.455893 
L 709.706836 56.979842 
L 711.385864 54.830903 
L 713.038099 53.075715 
L 714.877885 51.474351 
L 716.628362 50.237542 
L 718.593182 49.119142 
L 720.861656 48.10996 
L 723.505233 47.228243 
L 726.130947 46.588752 
L 729.097201 46.073753 
L 733.500184 45.585787 
L 737.724548 45.313689 
L 745.423071 45.075249 
L 775.806338 44.725968 
L 777.145988 44.978061 
L 778.244501 45.407768 
L 779.21798 46.033607 
L 780.137873 46.897211 
L 781.057767 48.077113 
L 781.995522 49.648199 
L 782.986863 51.744422 
L 784.112169 54.684783 
L 785.308923 58.464418 
L 786.639642 63.431796 
L 788.13112 69.895915 
L 789.819079 78.239228 
L 791.79283 89.166038 
L 794.230994 103.991245 
L 797.812325 127.302207 
L 802.751169 159.270076 
L 804.81423 171.143256 
L 806.448603 179.312414 
L 807.886495 185.411871 
L 809.208283 190.090416 
L 810.467554 193.759936 
L 811.68217 196.640015 
L 812.878924 198.924715 
L 814.075679 200.743425 
L 815.290295 202.194707 
L 816.558497 203.367165 
L 817.907078 204.311381 
L 819.389624 205.074939 
L 821.068653 205.685509 
L 823.069197 206.169385 
L 825.587739 206.539705 
L 829.052968 206.80901 
L 834.500879 206.985887 
L 846.263007 207.093723 
L 880.111503 207.136948 
L 996.218182 207.1378 
L 996.218182 207.1378 
" style="fill:none;stroke:#ff0000;stroke-linecap:square;stroke-width:1.5;"/>
   </g>
   <g id="line2d_15">
    <path clip-path="url(#pbb1d64f19d)" d="M 184.581818 44.93332 
L 328.450337 44.822345 
L 337.068753 44.672576 
L 338.647754 44.878305 
L 339.835577 45.260973 
L 340.835849 45.820849 
L 341.773604 46.607811 
L 342.657774 47.632267 
L 343.595529 49.063587 
L 344.577939 50.979087 
L 345.649659 53.578549 
L 346.81962 57.030125 
L 348.105684 61.548196 
L 349.525714 67.374041 
L 351.151156 75.029971 
L 353.017735 84.951101 
L 355.250485 98.085988 
L 358.224509 117.017185 
L 365.503275 163.898392 
L 367.378785 174.216098 
L 368.932779 181.576749 
L 370.326016 187.141687 
L 371.621011 191.437119 
L 372.86242 194.81391 
L 374.068105 197.473213 
L 375.264859 199.590251 
L 376.470545 201.280148 
L 377.703023 202.630394 
L 378.989087 203.713592 
L 380.373392 204.589642 
L 381.909524 205.29656 
L 383.686794 205.863834 
L 385.786829 206.299865 
L 388.546509 206.63672 
L 392.476149 206.875228 
L 399.067228 207.02502 
L 415.687822 207.117845 
L 444.829679 207.291203 
L 450.679932 207.305261 
L 452.18034 207.070015 
L 453.323508 206.672152 
L 454.314849 206.092689 
L 455.243673 205.287186 
L 456.163567 204.184218 
L 457.110253 202.686755 
L 458.110525 200.668988 
L 459.182245 197.985744 
L 460.361137 194.407187 
L 461.682925 189.649828 
L 463.210127 183.282829 
L 465.076706 174.48925 
L 467.593551 161.470164 
L 478.132133 105.767317 
L 480.597089 94.436198 
L 482.704806 85.755824 
L 484.607109 78.833207 
L 486.384378 73.178596 
L 488.081269 68.500821 
L 489.706711 64.646302 
L 491.30536 61.405321 
L 492.930802 58.612295 
L 494.538383 56.288175 
L 496.20848 54.272649 
L 497.823919 52.652767 
L 499.619051 51.172245 
L 501.467768 49.93895 
L 503.575484 48.823795 
L 505.736786 47.932346 
L 508.192812 47.157954 
L 511.006077 46.506568 
L 514.221238 45.986838 
L 517.936534 45.592681 
L 524.197166 45.230289 
L 535.280539 45.005906 
L 560.34986 44.737593 
L 561.707372 45.01307 
L 562.76123 45.446291 
L 563.716847 46.077943 
L 564.627809 46.949251 
L 565.538772 48.133209 
L 566.476527 49.719839 
L 567.494661 51.897029 
L 568.584243 54.767913 
L 569.816721 58.687044 
L 571.158515 63.737011 
L 572.747697 70.704234 
L 574.489242 79.435161 
L 576.507649 90.752466 
L 579.026191 106.220746 
L 582.964763 132.000581 
L 587.162333 159.073511 
L 589.234326 171.017939 
L 590.868699 179.204927 
L 592.30659 185.321537 
L 593.637309 190.04435 
L 594.896581 193.722303 
L 596.111197 196.609588 
L 597.307951 198.900387 
L 598.504705 200.724202 
L 599.719321 202.179718 
L 600.987523 203.355702 
L 602.336105 204.302822 
L 603.80972 205.064852 
L 605.488748 205.678546 
L 607.480361 206.163147 
L 609.989973 206.535001 
L 613.437339 206.805546 
L 618.88525 206.985826 
L 638.336971 207.263746 
L 639.971344 207.030356 
L 641.221685 206.63302 
L 642.311267 206.053078 
L 643.322345 205.259488 
L 644.322618 204.182869 
L 645.349683 202.737418 
L 646.430334 200.817648 
L 647.591364 198.284494 
L 648.859566 194.96318 
L 650.270664 190.61877 
L 651.869314 184.94971 
L 653.754112 177.405538 
L 656.085104 167.099403 
L 659.362781 151.496507 
L 667.748991 111.176471 
L 670.419361 99.609169 
L 672.562801 91.269155 
L 674.438311 84.834273 
L 676.135202 79.777832 
L 677.715989 75.740413 
L 679.207466 72.517464 
L 680.636426 69.941603 
L 681.993938 67.933376 
L 683.280003 66.405139 
L 684.521412 65.268897 
L 685.646718 64.538977 
L 686.620197 64.162662 
L 687.531159 64.054391 
L 688.326018 64.177125 
L 689.147671 64.540464 
L 689.969323 65.165356 
L 690.83563 66.127634 
L 691.710868 67.431894 
L 692.675416 69.268724 
L 693.764998 71.855616 
L 694.952821 75.292067 
L 696.247817 79.751325 
L 697.694639 85.563477 
L 699.337943 93.127518 
L 701.249177 103.023222 
L 703.598031 116.429559 
L 707.036466 137.497394 
L 711.376933 163.856354 
L 713.341753 174.408689 
L 714.931471 181.784113 
L 716.34257 187.317355 
L 717.655427 191.598026 
L 718.905767 194.943738 
L 720.120383 197.580972 
L 721.326068 199.680961 
L 722.531754 201.345939 
L 723.773163 202.686587 
L 725.068158 203.761099 
L 726.461394 204.629058 
L 728.015388 205.331909 
L 729.811681 205.894021 
L 731.990845 206.334168 
L 734.813042 206.665338 
L 738.849854 206.897348 
L 745.735656 207.040189 
L 763.240419 207.123452 
L 788.550877 207.273745 
L 795.293783 207.300754 
L 796.776329 207.061092 
L 797.919497 206.655645 
L 798.910838 206.067062 
L 799.839662 205.250833 
L 800.759556 204.135475 
L 801.706242 202.623929 
L 802.706514 200.590371 
L 803.787165 197.86504 
L 804.966057 194.263006 
L 806.296776 189.446559 
L 807.84184 182.971045 
L 809.726281 174.053055 
L 812.289478 160.750746 
L 822.435096 107.011493 
L 824.953638 95.326105 
L 827.079216 86.47781 
L 828.990451 79.437243 
L 830.776651 73.677713 
L 832.473541 68.931745 
L 834.081122 65.055868 
L 835.652978 61.805425 
L 837.260558 58.978607 
L 838.921724 56.523371 
L 840.556098 54.507845 
L 842.252988 52.772663 
L 844.021326 51.289843 
L 845.84325 50.05006 
L 847.674106 49.044528 
L 849.996166 48.04305 
L 852.773707 47.152007 
L 856.167488 46.393295 
L 859.57913 45.886271 
L 863.696322 45.499549 
L 868.697683 45.232452 
L 879.906089 45.004284 
L 996.218182 44.93332 
L 996.218182 44.93332 
" style="fill:none;stroke:#008000;stroke-linecap:square;stroke-width:1.5;"/>
   </g>
   <g id="line2d_16">
    <path clip-path="url(#pbb1d64f19d)" d="M 184.581818 44.93332 
L 319.563008 45.043216 
L 326.038966 45.280015 
L 330.057917 45.63969 
L 333.005147 46.122103 
L 335.327208 46.722361 
L 337.292028 47.457987 
L 338.96927 48.31598 
L 340.48754 49.334747 
L 341.9165 50.562452 
L 343.256151 52.008878 
L 344.506491 53.673782 
L 345.756831 55.703246 
L 347.007171 58.163311 
L 348.257511 61.12522 
L 349.507852 64.662419 
L 350.847502 69.171041 
L 352.187152 74.496212 
L 353.616112 81.132315 
L 355.134382 89.275114 
L 356.831273 99.615457 
L 358.974713 114.142848 
L 365.047794 156.272425 
L 366.833994 166.649931 
L 368.441574 174.695963 
L 369.870535 180.787292 
L 371.299495 185.921884 
L 372.639145 189.938416 
L 373.978795 193.269325 
L 375.318445 196.004656 
L 376.658096 198.232841 
L 377.997746 200.036 
L 379.337396 201.487447 
L 380.766356 202.71946 
L 382.284627 203.741814 
L 383.955974 204.600193 
L 385.831484 205.310658 
L 387.974925 205.884097 
L 390.564915 206.343102 
L 393.869386 206.693107 
L 398.424196 206.935504 
L 405.568997 207.069115 
L 418.518949 207.062677 
L 429.057531 206.869467 
L 435.219922 206.550395 
L 439.596113 206.112904 
L 442.989893 205.561416 
L 445.847813 204.875584 
L 448.313216 204.052979 
L 450.456657 203.104254 
L 452.421477 201.98852 
L 454.207677 200.719272 
L 455.904568 199.23934 
L 457.512148 197.543051 
L 459.119728 195.509915 
L 460.637998 193.231537 
L 462.156268 190.555894 
L 463.674539 187.433843 
L 465.282119 183.589103 
L 466.852278 179.252234 
L 468.549169 173.879299 
L 470.335369 167.432998 
L 472.210879 159.81019 
L 474.354319 150.129524 
L 477.03362 136.916755 
L 484.714281 98.311141 
L 486.947031 88.623205 
L 488.911852 81.07844 
L 490.698052 75.067907 
L 492.394942 70.101147 
L 494.091832 65.823522 
L 495.699413 62.358291 
L 497.306993 59.408989 
L 498.868846 56.982634 
L 500.476427 54.880699 
L 502.084007 53.125441 
L 503.780897 51.592898 
L 505.567097 50.277672 
L 507.442608 49.167721 
L 509.496738 48.209295 
L 511.818798 47.380461 
L 514.408789 46.698282 
L 517.445329 46.135107 
L 521.10704 45.689134 
L 525.840471 45.350199 
L 532.270791 45.1284 
L 541.201793 45.054208 
L 548.882454 45.189054 
L 553.705195 45.478084 
L 557.098975 45.890969 
L 559.778276 46.435942 
L 561.921716 47.088825 
L 563.797226 47.886728 
L 565.494117 48.85538 
L 567.012387 49.980754 
L 568.441347 51.321975 
L 569.780997 52.885388 
L 571.075635 54.73627 
L 572.345802 56.937874 
L 573.596142 59.541382 
L 574.846483 62.643026 
L 576.186133 66.592865 
L 577.525783 71.26311 
L 578.954743 77.104592 
L 580.473013 84.324128 
L 582.080594 93.085329 
L 583.956104 104.592116 
L 586.546094 122.026604 
L 590.832975 150.902108 
L 592.797795 162.522744 
L 594.494686 171.258685 
L 596.012956 177.969826 
L 597.441916 183.344991 
L 598.870876 187.865157 
L 600.210526 191.399839 
L 601.550177 194.334103 
L 602.889827 196.747999 
L 604.229477 198.718198 
L 605.569127 200.314889 
L 606.998087 201.676207 
L 608.516358 202.806626 
L 610.123938 203.718746 
L 611.820828 204.430409 
L 613.785648 205.004655 
L 615.929089 205.397712 
L 618.394045 205.621912 
L 621.162656 205.648452 
L 624.109886 205.457337 
L 627.057116 205.049559 
L 629.825727 204.450018 
L 632.415717 203.662561 
L 634.737778 202.727644 
L 636.881218 201.628511 
L 638.846038 200.379583 
L 640.721548 198.930194 
L 642.507749 197.275057 
L 644.269032 195.338093 
L 645.965922 193.14365 
L 647.662812 190.584404 
L 649.359702 187.617635 
L 651.056593 184.202124 
L 652.842793 180.081578 
L 654.682936 175.238509 
L 656.558447 169.657168 
L 658.612577 162.801478 
L 660.845327 154.524483 
L 663.435318 144.017555 
L 667.186338 127.733964 
L 672.098389 106.531144 
L 674.688379 96.359847 
L 676.83182 88.829006 
L 678.70733 83.040328 
L 680.31491 78.750841 
L 681.74387 75.510889 
L 683.083521 73.00823 
L 684.244551 71.296764 
L 685.226961 70.211581 
L 686.120061 69.540351 
L 686.923851 69.21578 
L 687.638331 69.1685 
L 688.352811 69.366901 
L 689.067292 69.830816 
L 689.781772 70.581803 
L 690.585562 71.798445 
L 691.389352 73.441522 
L 692.282452 75.808723 
L 693.264862 79.121515 
L 694.247272 83.223448 
L 695.318993 88.63215 
L 696.569333 96.169006 
L 697.998293 106.274054 
L 699.784493 120.631558 
L 704.785854 161.838082 
L 706.304124 172.038353 
L 707.643774 179.630425 
L 708.894115 185.522918 
L 710.144455 190.343859 
L 711.305485 193.967955 
L 712.466515 196.885909 
L 713.627545 199.20984 
L 714.788575 201.044015 
L 715.949606 202.480754 
L 717.199946 203.673798 
L 718.539596 204.634322 
L 719.968556 205.384193 
L 721.576136 205.979255 
L 723.540957 206.457737 
L 725.952327 206.804397 
L 729.231166 207.036068 
L 734.411146 207.153795 
L 747.807648 207.158164 
L 792.998515 206.973738 
L 796.660226 206.705738 
L 799.071596 206.321667 
L 800.947107 205.801321 
L 802.465377 205.148401 
L 803.715717 204.381279 
L 804.876747 203.412424 
L 805.948467 202.227591 
L 806.930877 200.826249 
L 807.913288 199.045555 
L 808.895698 196.795805 
L 809.878108 193.974026 
L 810.860518 190.466857 
L 811.842928 186.15683 
L 812.914648 180.409647 
L 814.075679 172.828478 
L 815.326019 163.030122 
L 816.754979 149.909065 
L 818.719799 129.547183 
L 821.75634 98.144497 
L 823.27461 84.871981 
L 824.52495 75.758031 
L 825.68598 68.803142 
L 826.84701 63.199294 
L 827.918731 59.08166 
L 828.990451 55.822031 
L 830.062171 53.271095 
L 831.133891 51.29266 
L 832.205611 49.768925 
L 833.366641 48.517893 
L 834.527672 47.585064 
L 835.867322 46.802594 
L 837.385592 46.188823 
L 839.171792 45.718148 
L 841.404543 45.368906 
L 844.530393 45.124058 
L 849.531754 44.984129 
L 861.499296 44.93546 
L 996.089486 44.93332 
L 996.089486 44.93332 
" style="fill:none;stroke:#008000;stroke-dasharray:5.55,2.4;stroke-dashoffset:0;stroke-width:1.5;"/>
   </g>
   <g id="line2d_17">
    <path clip-path="url(#pbb1d64f19d)" d="M 184.581818 207.137811 
L 319.473698 207.247195 
L 325.056556 207.472208 
L 328.986197 207.846662 
L 332.022737 208.346782 
L 334.612727 208.995216 
L 337.381338 209.941059 
L 339.95168 210.769514 
L 341.29133 210.959335 
L 342.36305 210.889992 
L 343.345461 210.609726 
L 344.327871 210.103265 
L 345.399591 209.296357 
L 346.649931 208.060107 
L 348.257511 206.132926 
L 352.365772 201.047068 
L 353.616112 199.918949 
L 354.687832 199.236337 
L 355.670242 198.867996 
L 356.652653 198.749764 
L 357.635063 198.86592 
L 358.706783 199.218944 
L 360.135743 199.942046 
L 363.529524 201.753415 
L 364.869174 202.171968 
L 366.298134 202.386803 
L 368.530884 202.456274 
L 371.120875 202.592103 
L 373.175005 202.927084 
L 375.764996 203.596797 
L 383.088417 205.625773 
L 386.367344 206.223927 
L 389.939745 206.644347 
L 394.405246 206.931811 
L 400.746257 207.094593 
L 411.820698 207.120233 
L 426.288921 206.955479 
L 433.344412 206.673528 
L 437.899222 206.276624 
L 441.471623 205.749333 
L 444.508163 205.080986 
L 447.098154 204.287407 
L 449.742177 203.231876 
L 452.957337 201.946772 
L 454.207677 201.68898 
L 455.190087 201.694527 
L 456.083188 201.909834 
L 456.976288 202.358802 
L 457.869388 203.062205 
L 458.851798 204.14093 
L 459.923518 205.6768 
L 461.173858 207.901884 
L 462.692129 211.108029 
L 465.103499 216.826518 
L 467.923998 223.381526 
L 469.531579 226.586013 
L 470.871229 228.807356 
L 472.121569 230.459582 
L 473.193289 231.536095 
L 474.265009 232.298865 
L 475.24742 232.730722 
L 476.22983 232.919305 
L 477.21224 232.879246 
L 478.28396 232.593721 
L 479.35568 232.077834 
L 480.60602 231.217692 
L 482.034981 229.947137 
L 483.821181 228.031635 
L 486.411171 224.88368 
L 491.055292 219.222317 
L 493.377352 216.755927 
L 495.520793 214.797292 
L 497.601895 213.199107 
L 499.583327 211.941278 
L 501.726767 210.839408 
L 503.959517 209.937866 
L 506.460198 209.174866 
L 509.228808 208.566423 
L 512.533279 208.073132 
L 516.730849 207.685394 
L 522.35738 207.407512 
L 530.395281 207.243624 
L 541.737653 207.230222 
L 548.257284 207.410167 
L 552.722785 207.748442 
L 556.384495 208.242396 
L 562.278956 209.14169 
L 563.439986 208.985088 
L 564.422396 208.623295 
L 565.315497 208.066328 
L 566.208597 207.262014 
L 567.191007 206.073011 
L 568.262727 204.412629 
L 569.513067 202.027675 
L 570.942027 198.796853 
L 572.881662 193.79759 
L 577.525783 181.544957 
L 578.954743 178.475965 
L 580.205083 176.300142 
L 581.276803 174.871712 
L 582.259214 173.938318 
L 583.152314 173.404675 
L 583.956104 173.174378 
L 584.759894 173.169706 
L 585.563684 173.376713 
L 586.456784 173.836716 
L 587.439194 174.599633 
L 588.510915 175.712748 
L 589.761255 177.346815 
L 591.190215 179.59631 
L 593.065725 182.999908 
L 598.692256 193.509057 
L 600.478456 196.249028 
L 602.175347 198.454517 
L 603.782927 200.191 
L 605.390507 201.610462 
L 607.087397 202.805078 
L 608.784288 203.733202 
L 610.659798 204.502108 
L 612.713928 205.094675 
L 614.946679 205.506355 
L 617.500945 205.747606 
L 620.358865 205.787305 
L 623.306096 205.606508 
L 626.253326 205.204995 
L 629.111247 204.589732 
L 631.701237 203.810122 
L 634.112607 202.855203 
L 636.434668 201.696152 
L 642.418439 198.521061 
L 643.554551 198.264008 
L 644.626272 198.249371 
L 645.608682 198.45703 
L 646.591092 198.887176 
L 647.662812 199.609579 
L 648.823842 200.674417 
L 650.163492 202.224424 
L 651.771073 204.439492 
L 654.325696 208.400427 
L 657.630167 213.457161 
L 659.505677 215.926451 
L 661.113257 217.691247 
L 662.631528 219.025179 
L 664.060488 219.981172 
L 665.489448 220.659204 
L 666.918408 221.079066 
L 668.347368 221.259452 
L 669.776329 221.213604 
L 671.205289 220.949466 
L 672.723559 220.438643 
L 674.331139 219.658659 
L 676.20665 218.487284 
L 678.79664 216.573335 
L 682.279731 214.020015 
L 683.976621 213.06351 
L 685.316271 212.546178 
L 686.566611 212.286955 
L 687.816951 212.258145 
L 688.977982 212.450768 
L 690.049702 212.838576 
L 691.121422 213.466023 
L 692.103832 214.29633 
L 693.086242 215.419205 
L 694.068652 216.881754 
L 695.140372 218.907784 
L 696.301403 221.632179 
L 697.641053 225.416868 
L 699.427253 231.219947 
L 702.017244 239.595072 
L 703.178274 242.610283 
L 704.071374 244.383223 
L 704.875164 245.496184 
L 705.500334 246.019841 
L 706.036194 246.222962 
L 706.572054 246.198485 
L 707.107914 245.949881 
L 707.733084 245.386498 
L 708.447565 244.403995 
L 709.251355 242.909257 
L 710.233765 240.610414 
L 711.573415 236.867274 
L 716.842706 221.458489 
L 718.271666 218.270417 
L 719.611316 215.812713 
L 720.861656 213.951908 
L 722.111997 212.459805 
L 723.451647 211.206875 
L 724.880607 210.190115 
L 726.398877 209.391007 
L 728.095767 208.752899 
L 730.124266 208.237927 
L 732.624946 207.842642 
L 736.018727 207.545994 
L 741.198707 207.340066 
L 751.290739 207.205887 
L 776.386853 207.13894 
L 786.836124 207.003433 
L 794.248856 206.69134 
L 796.392296 206.725029 
L 797.731946 206.962505 
L 798.803666 207.371515 
L 799.786076 207.984682 
L 800.768487 208.877366 
L 801.750897 210.082584 
L 802.822617 211.767447 
L 804.072957 214.199279 
L 805.591227 217.700923 
L 809.610178 227.315904 
L 810.592588 228.963436 
L 811.307068 229.790294 
L 811.932238 230.201152 
L 812.468098 230.289723 
L 812.914648 230.160724 
L 813.450508 229.746314 
L 813.986369 229.035117 
L 814.611539 227.81849 
L 815.326019 225.915438 
L 816.219119 222.798432 
L 817.290839 218.10896 
L 818.719799 210.736005 
L 821.57772 195.754187 
L 822.73875 190.887771 
L 823.72116 187.660305 
L 824.61426 185.479513 
L 825.41805 184.114271 
L 826.13253 183.341931 
L 826.7577 182.974205 
L 827.382871 182.862032 
L 828.008041 182.973275 
L 828.722521 183.332842 
L 829.615621 184.063812 
L 830.687341 185.246382 
L 832.294921 187.398173 
L 837.832142 195.104003 
L 839.796962 197.338148 
L 841.672473 199.147949 
L 843.547983 200.660914 
L 845.512803 201.962583 
L 847.566934 203.058927 
L 849.799684 204.000663 
L 852.300364 204.811349 
L 855.068975 205.47668 
L 858.373445 206.034039 
L 862.392396 206.471489 
L 867.661687 206.796654 
L 874.895798 207.002702 
L 886.86334 207.108752 
L 933.125927 207.137676 
L 996.089486 207.137811 
L 996.089486 207.137811 
" style="fill:none;stroke:#008000;stroke-dasharray:9.6,2.4,1.5,2.4;stroke-dashoffset:0;stroke-width:1.5;"/>
   </g>
   <g id="patch_3">
    <path d="M 144 256.32 
L 144 34.56 
" style="fill:none;stroke:#000000;stroke-linecap:square;stroke-linejoin:miter;stroke-width:0.8;"/>
   </g>
   <g id="patch_4">
    <path d="M 1036.8 256.32 
L 1036.8 34.56 
" style="fill:none;stroke:#000000;stroke-linecap:square;stroke-linejoin:miter;stroke-width:0.8;"/>
   </g>
   <g id="patch_5">
    <path d="M 144 256.32 
L 1036.8 256.32 
" style="fill:none;stroke:#000000;stroke-linecap:square;stroke-linejoin:miter;stroke-width:0.8;"/>
   </g>
   <g id="patch_6">
    <path d="M 144 34.56 
L 1036.8 34.56 
" style="fill:none;stroke:#000000;stroke-linecap:square;stroke-linejoin:miter;stroke-width:0.8;"/>
   </g>
   <g id="text_17">
    <!-- In  RMSE: 0.0 -->
    <g transform="translate(184.581818 175.600687)scale(0.1 -0.1)">
     <defs>
      <path d="M 9.8125 72.90625 
L 50.296875 72.90625 
L 50.296875 64.59375 
L 35.015625 64.59375 
L 35.015625 8.296875 
L 50.296875 8.296875 
L 50.296875 0 
L 9.8125 0 
L 9.8125 8.296875 
L 25.09375 8.296875 
L 25.09375 64.59375 
L 9.8125 64.59375 
z
" id="DejaVuSansMono-73"/>
      <path d="M 51.3125 33.890625 
L 51.3125 0 
L 42.28125 0 
L 42.28125 33.890625 
Q 42.28125 41.265625 39.6875 44.71875 
Q 37.109375 48.1875 31.59375 48.1875 
Q 25.296875 48.1875 21.890625 43.71875 
Q 18.5 39.265625 18.5 30.90625 
L 18.5 0 
L 9.515625 0 
L 9.515625 54.6875 
L 18.5 54.6875 
L 18.5 46.484375 
Q 20.90625 51.171875 25 53.578125 
Q 29.109375 56 34.71875 56 
Q 43.0625 56 47.1875 50.5 
Q 51.3125 45.015625 51.3125 33.890625 
z
" id="DejaVuSansMono-110"/>
      <path id="DejaVuSansMono-32"/>
      <path d="M 37.109375 34.421875 
Q 40.921875 33.453125 43.609375 30.734375 
Q 46.296875 28.03125 50.296875 19.921875 
L 60.203125 0 
L 49.609375 0 
L 40.921875 18.40625 
Q 37.15625 26.265625 34.15625 28.53125 
Q 31.15625 30.8125 26.3125 30.8125 
L 16.890625 30.8125 
L 16.890625 0 
L 6.984375 0 
L 6.984375 72.90625 
L 27.296875 72.90625 
Q 39.3125 72.90625 45.703125 67.484375 
Q 52.09375 62.0625 52.09375 51.8125 
Q 52.09375 44.578125 48.15625 40.015625 
Q 44.234375 35.453125 37.109375 34.421875 
z
M 16.890625 64.796875 
L 16.890625 38.921875 
L 27.6875 38.921875 
Q 34.765625 38.921875 38.234375 42.09375 
Q 41.703125 45.265625 41.703125 51.8125 
Q 41.703125 58.109375 38.015625 61.453125 
Q 34.328125 64.796875 27.296875 64.796875 
z
" id="DejaVuSansMono-82"/>
      <path d="M 4.203125 72.90625 
L 17.390625 72.90625 
L 29.984375 35.796875 
L 42.671875 72.90625 
L 55.90625 72.90625 
L 55.90625 0 
L 46.78125 0 
L 46.78125 64.40625 
L 33.796875 25.984375 
L 26.3125 25.984375 
L 13.28125 64.40625 
L 13.28125 0 
L 4.203125 0 
z
" id="DejaVuSansMono-77"/>
      <path d="M 49.421875 70.40625 
L 49.421875 60.40625 
Q 44.921875 63.28125 40.40625 64.75 
Q 35.890625 66.21875 31.296875 66.21875 
Q 24.3125 66.21875 20.265625 62.96875 
Q 16.21875 59.71875 16.21875 54.203125 
Q 16.21875 49.359375 18.875 46.8125 
Q 21.53125 44.28125 28.8125 42.578125 
L 33.984375 41.40625 
Q 44.234375 39.015625 48.921875 33.890625 
Q 53.609375 28.765625 53.609375 19.921875 
Q 53.609375 9.515625 47.15625 4.046875 
Q 40.71875 -1.421875 28.421875 -1.421875 
Q 23.296875 -1.421875 18.109375 -0.3125 
Q 12.9375 0.78125 7.71875 2.984375 
L 7.71875 13.484375 
Q 13.328125 9.90625 18.328125 8.25 
Q 23.34375 6.59375 28.421875 6.59375 
Q 35.890625 6.59375 40.03125 9.9375 
Q 44.1875 13.28125 44.1875 19.28125 
Q 44.1875 24.75 41.328125 27.625 
Q 38.484375 30.515625 31.390625 32.078125 
L 26.125 33.296875 
Q 15.96875 35.59375 11.375 40.234375 
Q 6.78125 44.875 6.78125 52.6875 
Q 6.78125 62.453125 13.34375 68.328125 
Q 19.921875 74.21875 30.8125 74.21875 
Q 35.015625 74.21875 39.640625 73.265625 
Q 44.28125 72.3125 49.421875 70.40625 
z
" id="DejaVuSansMono-83"/>
      <path d="M 9.625 72.90625 
L 52.875 72.90625 
L 52.875 64.59375 
L 19.484375 64.59375 
L 19.484375 43.015625 
L 51.421875 43.015625 
L 51.421875 34.71875 
L 19.484375 34.71875 
L 19.484375 8.296875 
L 53.8125 8.296875 
L 53.8125 0 
L 9.625 0 
z
" id="DejaVuSansMono-69"/>
      <path d="M 23.875 51.90625 
L 36.1875 51.90625 
L 36.1875 37.109375 
L 23.875 37.109375 
z
M 23.875 14.890625 
L 36.1875 14.890625 
L 36.1875 0 
L 23.875 0 
z
" id="DejaVuSansMono-58"/>
      <path d="M 23.578125 36.625 
Q 23.578125 39.3125 25.453125 41.265625 
Q 27.34375 43.21875 29.984375 43.21875 
Q 32.71875 43.21875 34.671875 41.265625 
Q 36.625 39.3125 36.625 36.625 
Q 36.625 33.890625 34.6875 31.984375 
Q 32.765625 30.078125 29.984375 30.078125 
Q 27.25 30.078125 25.40625 31.9375 
Q 23.578125 33.796875 23.578125 36.625 
z
M 30.078125 66.40625 
Q 23.1875 66.40625 19.796875 58.984375 
Q 16.40625 51.5625 16.40625 36.375 
Q 16.40625 21.234375 19.796875 13.8125 
Q 23.1875 6.390625 30.078125 6.390625 
Q 37.015625 6.390625 40.40625 13.8125 
Q 43.796875 21.234375 43.796875 36.375 
Q 43.796875 51.5625 40.40625 58.984375 
Q 37.015625 66.40625 30.078125 66.40625 
z
M 30.078125 74.21875 
Q 41.75 74.21875 47.734375 64.640625 
Q 53.71875 55.078125 53.71875 36.375 
Q 53.71875 17.71875 47.734375 8.140625 
Q 41.75 -1.421875 30.078125 -1.421875 
Q 18.40625 -1.421875 12.453125 8.140625 
Q 6.5 17.71875 6.5 36.375 
Q 6.5 55.078125 12.453125 64.640625 
Q 18.40625 74.21875 30.078125 74.21875 
z
" id="DejaVuSansMono-48"/>
      <path d="M 23.875 14.890625 
L 36.1875 14.890625 
L 36.1875 0 
L 23.875 0 
z
" id="DejaVuSansMono-46"/>
     </defs>
     <use xlink:href="#DejaVuSansMono-73"/>
     <use x="60.205078" xlink:href="#DejaVuSansMono-110"/>
     <use x="120.410156" xlink:href="#DejaVuSansMono-32"/>
     <use x="180.615234" xlink:href="#DejaVuSansMono-32"/>
     <use x="240.820312" xlink:href="#DejaVuSansMono-82"/>
     <use x="301.025391" xlink:href="#DejaVuSansMono-77"/>
     <use x="361.230469" xlink:href="#DejaVuSansMono-83"/>
     <use x="421.435547" xlink:href="#DejaVuSansMono-69"/>
     <use x="481.640625" xlink:href="#DejaVuSansMono-58"/>
     <use x="541.845703" xlink:href="#DejaVuSansMono-32"/>
     <use x="602.050781" xlink:href="#DejaVuSansMono-48"/>
     <use x="662.255859" xlink:href="#DejaVuSansMono-46"/>
     <use x="722.460938" xlink:href="#DejaVuSansMono-48"/>
    </g>
    <!-- Out RMSE: 0.0568 -->
    <g transform="translate(184.581818 186.862249)scale(0.1 -0.1)">
     <defs>
      <path d="M 44.1875 36.375 
Q 44.1875 52.4375 40.890625 59.328125 
Q 37.59375 66.21875 30.078125 66.21875 
Q 22.609375 66.21875 19.3125 59.328125 
Q 16.015625 52.4375 16.015625 36.375 
Q 16.015625 20.359375 19.3125 13.46875 
Q 22.609375 6.59375 30.078125 6.59375 
Q 37.59375 6.59375 40.890625 13.453125 
Q 44.1875 20.3125 44.1875 36.375 
z
M 54.5 36.375 
Q 54.5 17.328125 48.46875 7.953125 
Q 42.4375 -1.421875 30.078125 -1.421875 
Q 17.71875 -1.421875 11.71875 7.90625 
Q 5.71875 17.234375 5.71875 36.375 
Q 5.71875 55.46875 11.75 64.84375 
Q 17.78125 74.21875 30.078125 74.21875 
Q 42.4375 74.21875 48.46875 64.84375 
Q 54.5 55.46875 54.5 36.375 
z
" id="DejaVuSansMono-79"/>
      <path d="M 9.515625 20.703125 
L 9.515625 54.59375 
L 18.5 54.59375 
L 18.5 20.703125 
Q 18.5 13.328125 21.109375 9.859375 
Q 23.734375 6.390625 29.203125 6.390625 
Q 35.546875 6.390625 38.90625 10.859375 
Q 42.28125 15.328125 42.28125 23.6875 
L 42.28125 54.59375 
L 51.3125 54.59375 
L 51.3125 0 
L 42.28125 0 
L 42.28125 8.203125 
Q 39.890625 3.46875 35.765625 1.015625 
Q 31.640625 -1.421875 26.125 -1.421875 
Q 17.71875 -1.421875 13.609375 4.078125 
Q 9.515625 9.578125 9.515625 20.703125 
z
" id="DejaVuSansMono-117"/>
      <path d="M 29.984375 70.21875 
L 29.984375 54.6875 
L 50.390625 54.6875 
L 50.390625 47.703125 
L 29.984375 47.703125 
L 29.984375 18.015625 
Q 29.984375 11.96875 32.28125 9.5625 
Q 34.578125 7.171875 40.28125 7.171875 
L 50.390625 7.171875 
L 50.390625 0 
L 39.40625 0 
Q 29.296875 0 25.140625 4.046875 
Q 21 8.109375 21 18.015625 
L 21 47.703125 
L 6.390625 47.703125 
L 6.390625 54.6875 
L 21 54.6875 
L 21 70.21875 
z
" id="DejaVuSansMono-116"/>
      <path d="M 10.109375 72.90625 
L 47.015625 72.90625 
L 47.015625 64.59375 
L 19.09375 64.59375 
L 19.09375 46.6875 
Q 21.1875 47.46875 23.3125 47.828125 
Q 25.4375 48.1875 27.59375 48.1875 
Q 38.921875 48.1875 45.5625 41.5 
Q 52.203125 34.8125 52.203125 23.390625 
Q 52.203125 11.859375 45.234375 5.21875 
Q 38.28125 -1.421875 26.21875 -1.421875 
Q 20.40625 -1.421875 15.59375 -0.640625 
Q 10.796875 0.140625 6.984375 1.703125 
L 6.984375 11.71875 
Q 11.46875 9.28125 16.015625 8.078125 
Q 20.5625 6.890625 25.296875 6.890625 
Q 33.453125 6.890625 37.859375 11.1875 
Q 42.28125 15.484375 42.28125 23.390625 
Q 42.28125 31.203125 37.71875 35.546875 
Q 33.15625 39.890625 25 39.890625 
Q 21.046875 39.890625 17.28125 38.984375 
Q 13.53125 38.09375 10.109375 36.28125 
z
" id="DejaVuSansMono-53"/>
      <path d="M 48.390625 71.296875 
L 48.390625 62.203125 
Q 45.3125 64.015625 41.84375 64.96875 
Q 38.375 65.921875 34.625 65.921875 
Q 25.25 65.921875 20.40625 58.859375 
Q 15.578125 51.8125 15.578125 38.09375 
Q 17.921875 42.96875 22.0625 45.578125 
Q 26.21875 48.1875 31.59375 48.1875 
Q 42.140625 48.1875 47.921875 41.71875 
Q 53.71875 35.25 53.71875 23.390625 
Q 53.71875 11.578125 47.75 5.078125 
Q 41.796875 -1.421875 31 -1.421875 
Q 18.3125 -1.421875 12.40625 7.6875 
Q 6.5 16.796875 6.5 36.375 
Q 6.5 54.828125 13.59375 64.515625 
Q 20.703125 74.21875 34.1875 74.21875 
Q 37.796875 74.21875 41.40625 73.453125 
Q 45.015625 72.703125 48.390625 71.296875 
z
M 30.8125 40.484375 
Q 24.515625 40.484375 20.890625 35.9375 
Q 17.28125 31.390625 17.28125 23.390625 
Q 17.28125 15.375 20.890625 10.828125 
Q 24.515625 6.296875 30.8125 6.296875 
Q 37.359375 6.296875 40.671875 10.609375 
Q 44 14.9375 44 23.390625 
Q 44 31.890625 40.671875 36.1875 
Q 37.359375 40.484375 30.8125 40.484375 
z
" id="DejaVuSansMono-54"/>
      <path d="M 30.078125 34.625 
Q 23.484375 34.625 19.890625 30.9375 
Q 16.3125 27.25 16.3125 20.515625 
Q 16.3125 13.765625 19.9375 10.03125 
Q 23.578125 6.296875 30.078125 6.296875 
Q 36.71875 6.296875 40.296875 9.984375 
Q 43.890625 13.671875 43.890625 20.515625 
Q 43.890625 27.203125 40.25 30.90625 
Q 36.625 34.625 30.078125 34.625 
z
M 21.484375 38.71875 
Q 15.1875 40.328125 11.640625 44.71875 
Q 8.109375 49.125 8.109375 55.328125 
Q 8.109375 64.015625 14.015625 69.109375 
Q 19.921875 74.21875 30.078125 74.21875 
Q 40.28125 74.21875 46.1875 69.109375 
Q 52.09375 64.015625 52.09375 55.328125 
Q 52.09375 49.125 48.546875 44.71875 
Q 45.015625 40.328125 38.71875 38.71875 
Q 46.046875 37.109375 49.921875 32.21875 
Q 53.8125 27.34375 53.8125 19.578125 
Q 53.8125 9.71875 47.515625 4.140625 
Q 41.21875 -1.421875 30.078125 -1.421875 
Q 18.953125 -1.421875 12.671875 4.125 
Q 6.390625 9.671875 6.390625 19.484375 
Q 6.390625 27.296875 10.265625 32.203125 
Q 14.15625 37.109375 21.484375 38.71875 
z
M 17.921875 54.390625 
Q 17.921875 48.53125 21.046875 45.453125 
Q 24.171875 42.390625 30.078125 42.390625 
Q 36.03125 42.390625 39.15625 45.453125 
Q 42.28125 48.53125 42.28125 54.390625 
Q 42.28125 60.359375 39.171875 63.484375 
Q 36.078125 66.609375 30.078125 66.609375 
Q 24.171875 66.609375 21.046875 63.453125 
Q 17.921875 60.296875 17.921875 54.390625 
z
" id="DejaVuSansMono-56"/>
     </defs>
     <use xlink:href="#DejaVuSansMono-79"/>
     <use x="60.205078" xlink:href="#DejaVuSansMono-117"/>
     <use x="120.410156" xlink:href="#DejaVuSansMono-116"/>
     <use x="180.615234" xlink:href="#DejaVuSansMono-32"/>
     <use x="240.820312" xlink:href="#DejaVuSansMono-82"/>
     <use x="301.025391" xlink:href="#DejaVuSansMono-77"/>
     <use x="361.230469" xlink:href="#DejaVuSansMono-83"/>
     <use x="421.435547" xlink:href="#DejaVuSansMono-69"/>
     <use x="481.640625" xlink:href="#DejaVuSansMono-58"/>
     <use x="541.845703" xlink:href="#DejaVuSansMono-32"/>
     <use x="602.050781" xlink:href="#DejaVuSansMono-48"/>
     <use x="662.255859" xlink:href="#DejaVuSansMono-46"/>
     <use x="722.460938" xlink:href="#DejaVuSansMono-48"/>
     <use x="782.666016" xlink:href="#DejaVuSansMono-53"/>
     <use x="842.871094" xlink:href="#DejaVuSansMono-54"/>
     <use x="903.076172" xlink:href="#DejaVuSansMono-56"/>
    </g>
   </g>
   <g id="text_18">
    <!-- ..\WaveformData\t4_traces\inv_t4_invSim_520_200Traces fitting using transfer functions -->
    <g transform="translate(325.554375 28.56)scale(0.12 -0.12)">
     <defs>
      <path d="M 8.296875 72.90625 
L 33.6875 -9.28125 
L 25.390625 -9.28125 
L 0 72.90625 
z
" id="DejaVuSans-92"/>
      <path d="M 3.328125 72.90625 
L 13.28125 72.90625 
L 28.609375 11.28125 
L 43.890625 72.90625 
L 54.984375 72.90625 
L 70.3125 11.28125 
L 85.59375 72.90625 
L 95.609375 72.90625 
L 77.296875 0 
L 64.890625 0 
L 49.515625 63.28125 
L 33.984375 0 
L 21.578125 0 
z
" id="DejaVuSans-87"/>
      <path d="M 2.984375 54.6875 
L 12.5 54.6875 
L 29.59375 8.796875 
L 46.6875 54.6875 
L 56.203125 54.6875 
L 35.6875 0 
L 23.484375 0 
z
" id="DejaVuSans-118"/>
      <path d="M 37.109375 75.984375 
L 37.109375 68.5 
L 28.515625 68.5 
Q 23.6875 68.5 21.796875 66.546875 
Q 19.921875 64.59375 19.921875 59.515625 
L 19.921875 54.6875 
L 34.71875 54.6875 
L 34.71875 47.703125 
L 19.921875 47.703125 
L 19.921875 0 
L 10.890625 0 
L 10.890625 47.703125 
L 2.296875 47.703125 
L 2.296875 54.6875 
L 10.890625 54.6875 
L 10.890625 58.5 
Q 10.890625 67.625 15.140625 71.796875 
Q 19.390625 75.984375 28.609375 75.984375 
z
" id="DejaVuSans-102"/>
      <path d="M 41.109375 46.296875 
Q 39.59375 47.171875 37.8125 47.578125 
Q 36.03125 48 33.890625 48 
Q 26.265625 48 22.1875 43.046875 
Q 18.109375 38.09375 18.109375 28.8125 
L 18.109375 0 
L 9.078125 0 
L 9.078125 54.6875 
L 18.109375 54.6875 
L 18.109375 46.1875 
Q 20.953125 51.171875 25.484375 53.578125 
Q 30.03125 56 36.53125 56 
Q 37.453125 56 38.578125 55.875 
Q 39.703125 55.765625 41.0625 55.515625 
z
" id="DejaVuSans-114"/>
      <path d="M 19.671875 64.796875 
L 19.671875 8.109375 
L 31.59375 8.109375 
Q 46.6875 8.109375 53.6875 14.9375 
Q 60.6875 21.78125 60.6875 36.53125 
Q 60.6875 51.171875 53.6875 57.984375 
Q 46.6875 64.796875 31.59375 64.796875 
z
M 9.8125 72.90625 
L 30.078125 72.90625 
Q 51.265625 72.90625 61.171875 64.09375 
Q 71.09375 55.28125 71.09375 36.53125 
Q 71.09375 17.671875 61.125 8.828125 
Q 51.171875 0 30.078125 0 
L 9.8125 0 
z
" id="DejaVuSans-68"/>
      <path d="M 50.984375 -16.609375 
L 50.984375 -23.578125 
L -0.984375 -23.578125 
L -0.984375 -16.609375 
z
" id="DejaVuSans-95"/>
      <path d="M 48.78125 52.59375 
L 48.78125 44.1875 
Q 44.96875 46.296875 41.140625 47.34375 
Q 37.3125 48.390625 33.40625 48.390625 
Q 24.65625 48.390625 19.8125 42.84375 
Q 14.984375 37.3125 14.984375 27.296875 
Q 14.984375 17.28125 19.8125 11.734375 
Q 24.65625 6.203125 33.40625 6.203125 
Q 37.3125 6.203125 41.140625 7.25 
Q 44.96875 8.296875 48.78125 10.40625 
L 48.78125 2.09375 
Q 45.015625 0.34375 40.984375 -0.53125 
Q 36.96875 -1.421875 32.421875 -1.421875 
Q 20.0625 -1.421875 12.78125 6.34375 
Q 5.515625 14.109375 5.515625 27.296875 
Q 5.515625 40.671875 12.859375 48.328125 
Q 20.21875 56 33.015625 56 
Q 37.15625 56 41.109375 55.140625 
Q 45.0625 54.296875 48.78125 52.59375 
z
" id="DejaVuSans-99"/>
      <path d="M 54.890625 33.015625 
L 54.890625 0 
L 45.90625 0 
L 45.90625 32.71875 
Q 45.90625 40.484375 42.875 44.328125 
Q 39.84375 48.1875 33.796875 48.1875 
Q 26.515625 48.1875 22.3125 43.546875 
Q 18.109375 38.921875 18.109375 30.90625 
L 18.109375 0 
L 9.078125 0 
L 9.078125 54.6875 
L 18.109375 54.6875 
L 18.109375 46.1875 
Q 21.34375 51.125 25.703125 53.5625 
Q 30.078125 56 35.796875 56 
Q 45.21875 56 50.046875 50.171875 
Q 54.890625 44.34375 54.890625 33.015625 
z
" id="DejaVuSans-110"/>
      <path d="M 53.515625 70.515625 
L 53.515625 60.890625 
Q 47.90625 63.578125 42.921875 64.890625 
Q 37.9375 66.21875 33.296875 66.21875 
Q 25.25 66.21875 20.875 63.09375 
Q 16.5 59.96875 16.5 54.203125 
Q 16.5 49.359375 19.40625 46.890625 
Q 22.3125 44.4375 30.421875 42.921875 
L 36.375 41.703125 
Q 47.40625 39.59375 52.65625 34.296875 
Q 57.90625 29 57.90625 20.125 
Q 57.90625 9.515625 50.796875 4.046875 
Q 43.703125 -1.421875 29.984375 -1.421875 
Q 24.8125 -1.421875 18.96875 -0.25 
Q 13.140625 0.921875 6.890625 3.21875 
L 6.890625 13.375 
Q 12.890625 10.015625 18.65625 8.296875 
Q 24.421875 6.59375 29.984375 6.59375 
Q 38.421875 6.59375 43.015625 9.90625 
Q 47.609375 13.234375 47.609375 19.390625 
Q 47.609375 24.75 44.3125 27.78125 
Q 41.015625 30.8125 33.5 32.328125 
L 27.484375 33.5 
Q 16.453125 35.6875 11.515625 40.375 
Q 6.59375 45.0625 6.59375 53.421875 
Q 6.59375 63.09375 13.40625 68.65625 
Q 20.21875 74.21875 32.171875 74.21875 
Q 37.3125 74.21875 42.625 73.28125 
Q 47.953125 72.359375 53.515625 70.515625 
z
" id="DejaVuSans-83"/>
      <path d="M 10.796875 72.90625 
L 49.515625 72.90625 
L 49.515625 64.59375 
L 19.828125 64.59375 
L 19.828125 46.734375 
Q 21.96875 47.46875 24.109375 47.828125 
Q 26.265625 48.1875 28.421875 48.1875 
Q 40.625 48.1875 47.75 41.5 
Q 54.890625 34.8125 54.890625 23.390625 
Q 54.890625 11.625 47.5625 5.09375 
Q 40.234375 -1.421875 26.90625 -1.421875 
Q 22.3125 -1.421875 17.546875 -0.640625 
Q 12.796875 0.140625 7.71875 1.703125 
L 7.71875 11.625 
Q 12.109375 9.234375 16.796875 8.0625 
Q 21.484375 6.890625 26.703125 6.890625 
Q 35.15625 6.890625 40.078125 11.328125 
Q 45.015625 15.765625 45.015625 23.390625 
Q 45.015625 31 40.078125 35.4375 
Q 35.15625 39.890625 26.703125 39.890625 
Q 22.75 39.890625 18.8125 39.015625 
Q 14.890625 38.140625 10.796875 36.28125 
z
" id="DejaVuSans-53"/>
      <path d="M 8.5 21.578125 
L 8.5 54.6875 
L 17.484375 54.6875 
L 17.484375 21.921875 
Q 17.484375 14.15625 20.5 10.265625 
Q 23.53125 6.390625 29.59375 6.390625 
Q 36.859375 6.390625 41.078125 11.03125 
Q 45.3125 15.671875 45.3125 23.6875 
L 45.3125 54.6875 
L 54.296875 54.6875 
L 54.296875 0 
L 45.3125 0 
L 45.3125 8.40625 
Q 42.046875 3.421875 37.71875 1 
Q 33.40625 -1.421875 27.6875 -1.421875 
Q 18.265625 -1.421875 13.375 4.4375 
Q 8.5 10.296875 8.5 21.578125 
z
M 31.109375 56 
z
" id="DejaVuSans-117"/>
     </defs>
     <use xlink:href="#DejaVuSans-46"/>
     <use x="31.787109" xlink:href="#DejaVuSans-46"/>
     <use x="63.574219" xlink:href="#DejaVuSans-92"/>
     <use x="97.265625" xlink:href="#DejaVuSans-87"/>
     <use x="189.767578" xlink:href="#DejaVuSans-97"/>
     <use x="251.046875" xlink:href="#DejaVuSans-118"/>
     <use x="310.226562" xlink:href="#DejaVuSans-101"/>
     <use x="371.75" xlink:href="#DejaVuSans-102"/>
     <use x="406.955078" xlink:href="#DejaVuSans-111"/>
     <use x="468.136719" xlink:href="#DejaVuSans-114"/>
     <use x="507.5" xlink:href="#DejaVuSans-109"/>
     <use x="604.912109" xlink:href="#DejaVuSans-68"/>
     <use x="681.914062" xlink:href="#DejaVuSans-97"/>
     <use x="743.193359" xlink:href="#DejaVuSans-116"/>
     <use x="782.402344" xlink:href="#DejaVuSans-97"/>
     <use x="843.681641" xlink:href="#DejaVuSans-92"/>
     <use x="877.373047" xlink:href="#DejaVuSans-116"/>
     <use x="916.582031" xlink:href="#DejaVuSans-52"/>
     <use x="980.205078" xlink:href="#DejaVuSans-95"/>
     <use x="1030.205078" xlink:href="#DejaVuSans-116"/>
     <use x="1069.414062" xlink:href="#DejaVuSans-114"/>
     <use x="1110.527344" xlink:href="#DejaVuSans-97"/>
     <use x="1171.806641" xlink:href="#DejaVuSans-99"/>
     <use x="1226.787109" xlink:href="#DejaVuSans-101"/>
     <use x="1288.310547" xlink:href="#DejaVuSans-115"/>
     <use x="1340.410156" xlink:href="#DejaVuSans-92"/>
     <use x="1374.101562" xlink:href="#DejaVuSans-105"/>
     <use x="1401.884766" xlink:href="#DejaVuSans-110"/>
     <use x="1465.263672" xlink:href="#DejaVuSans-118"/>
     <use x="1524.443359" xlink:href="#DejaVuSans-95"/>
     <use x="1574.443359" xlink:href="#DejaVuSans-116"/>
     <use x="1613.652344" xlink:href="#DejaVuSans-52"/>
     <use x="1677.275391" xlink:href="#DejaVuSans-95"/>
     <use x="1727.275391" xlink:href="#DejaVuSans-105"/>
     <use x="1755.058594" xlink:href="#DejaVuSans-110"/>
     <use x="1818.4375" xlink:href="#DejaVuSans-118"/>
     <use x="1877.617188" xlink:href="#DejaVuSans-83"/>
     <use x="1941.09375" xlink:href="#DejaVuSans-105"/>
     <use x="1968.876953" xlink:href="#DejaVuSans-109"/>
     <use x="2066.289062" xlink:href="#DejaVuSans-95"/>
     <use x="2116.289062" xlink:href="#DejaVuSans-53"/>
     <use x="2179.912109" xlink:href="#DejaVuSans-50"/>
     <use x="2243.535156" xlink:href="#DejaVuSans-48"/>
     <use x="2307.158203" xlink:href="#DejaVuSans-95"/>
     <use x="2357.158203" xlink:href="#DejaVuSans-50"/>
     <use x="2420.78125" xlink:href="#DejaVuSans-48"/>
     <use x="2484.404297" xlink:href="#DejaVuSans-48"/>
     <use x="2548.027344" xlink:href="#DejaVuSans-84"/>
     <use x="2594.361328" xlink:href="#DejaVuSans-114"/>
     <use x="2635.474609" xlink:href="#DejaVuSans-97"/>
     <use x="2696.753906" xlink:href="#DejaVuSans-99"/>
     <use x="2751.734375" xlink:href="#DejaVuSans-101"/>
     <use x="2813.257812" xlink:href="#DejaVuSans-115"/>
     <use x="2865.357422" xlink:href="#DejaVuSans-32"/>
     <use x="2897.144531" xlink:href="#DejaVuSans-102"/>
     <use x="2932.349609" xlink:href="#DejaVuSans-105"/>
     <use x="2960.132812" xlink:href="#DejaVuSans-116"/>
     <use x="2999.341797" xlink:href="#DejaVuSans-116"/>
     <use x="3038.550781" xlink:href="#DejaVuSans-105"/>
     <use x="3066.333984" xlink:href="#DejaVuSans-110"/>
     <use x="3129.712891" xlink:href="#DejaVuSans-103"/>
     <use x="3193.189453" xlink:href="#DejaVuSans-32"/>
     <use x="3224.976562" xlink:href="#DejaVuSans-117"/>
     <use x="3288.355469" xlink:href="#DejaVuSans-115"/>
     <use x="3340.455078" xlink:href="#DejaVuSans-105"/>
     <use x="3368.238281" xlink:href="#DejaVuSans-110"/>
     <use x="3431.617188" xlink:href="#DejaVuSans-103"/>
     <use x="3495.09375" xlink:href="#DejaVuSans-32"/>
     <use x="3526.880859" xlink:href="#DejaVuSans-116"/>
     <use x="3566.089844" xlink:href="#DejaVuSans-114"/>
     <use x="3607.203125" xlink:href="#DejaVuSans-97"/>
     <use x="3668.482422" xlink:href="#DejaVuSans-110"/>
     <use x="3731.861328" xlink:href="#DejaVuSans-115"/>
     <use x="3783.960938" xlink:href="#DejaVuSans-102"/>
     <use x="3819.166016" xlink:href="#DejaVuSans-101"/>
     <use x="3880.689453" xlink:href="#DejaVuSans-114"/>
     <use x="3921.802734" xlink:href="#DejaVuSans-32"/>
     <use x="3953.589844" xlink:href="#DejaVuSans-102"/>
     <use x="3988.794922" xlink:href="#DejaVuSans-117"/>
     <use x="4052.173828" xlink:href="#DejaVuSans-110"/>
     <use x="4115.552734" xlink:href="#DejaVuSans-99"/>
     <use x="4170.533203" xlink:href="#DejaVuSans-116"/>
     <use x="4209.742188" xlink:href="#DejaVuSans-105"/>
     <use x="4237.525391" xlink:href="#DejaVuSans-111"/>
     <use x="4298.707031" xlink:href="#DejaVuSans-110"/>
     <use x="4362.085938" xlink:href="#DejaVuSans-115"/>
    </g>
   </g>
   <g id="legend_1">
    <g id="patch_7">
     <path d="M 151 176.29625 
L 368.865625 176.29625 
Q 370.865625 176.29625 370.865625 174.29625 
L 370.865625 116.58375 
Q 370.865625 114.58375 368.865625 114.58375 
L 151 114.58375 
Q 149 114.58375 149 116.58375 
L 149 174.29625 
Q 149 176.29625 151 176.29625 
z
" style="fill:#ffffff;opacity:0.8;stroke:#cccccc;stroke-linejoin:miter;"/>
    </g>
    <g id="line2d_18">
     <path d="M 153 122.682187 
L 173 122.682187 
" style="fill:none;stroke:#ff0000;stroke-linecap:square;stroke-width:1.5;"/>
    </g>
    <g id="line2d_19"/>
    <g id="text_19">
     <!-- Input -->
     <g transform="translate(181 126.182187)scale(0.1 -0.1)">
      <defs>
       <path d="M 9.8125 72.90625 
L 19.671875 72.90625 
L 19.671875 0 
L 9.8125 0 
z
" id="DejaVuSans-73"/>
       <path d="M 18.109375 8.203125 
L 18.109375 -20.796875 
L 9.078125 -20.796875 
L 9.078125 54.6875 
L 18.109375 54.6875 
L 18.109375 46.390625 
Q 20.953125 51.265625 25.265625 53.625 
Q 29.59375 56 35.59375 56 
Q 45.5625 56 51.78125 48.09375 
Q 58.015625 40.1875 58.015625 27.296875 
Q 58.015625 14.40625 51.78125 6.484375 
Q 45.5625 -1.421875 35.59375 -1.421875 
Q 29.59375 -1.421875 25.265625 0.953125 
Q 20.953125 3.328125 18.109375 8.203125 
z
M 48.6875 27.296875 
Q 48.6875 37.203125 44.609375 42.84375 
Q 40.53125 48.484375 33.40625 48.484375 
Q 26.265625 48.484375 22.1875 42.84375 
Q 18.109375 37.203125 18.109375 27.296875 
Q 18.109375 17.390625 22.1875 11.75 
Q 26.265625 6.109375 33.40625 6.109375 
Q 40.53125 6.109375 44.609375 11.75 
Q 48.6875 17.390625 48.6875 27.296875 
z
" id="DejaVuSans-112"/>
      </defs>
      <use xlink:href="#DejaVuSans-73"/>
      <use x="29.492188" xlink:href="#DejaVuSans-110"/>
      <use x="92.871094" xlink:href="#DejaVuSans-112"/>
      <use x="156.347656" xlink:href="#DejaVuSans-117"/>
      <use x="219.726562" xlink:href="#DejaVuSans-116"/>
     </g>
    </g>
    <g id="line2d_20">
     <path d="M 153 137.360312 
L 173 137.360312 
" style="fill:none;stroke:#008000;stroke-linecap:square;stroke-width:1.5;"/>
    </g>
    <g id="line2d_21"/>
    <g id="text_20">
     <!-- Output -->
     <g transform="translate(181 140.860312)scale(0.1 -0.1)">
      <defs>
       <path d="M 39.40625 66.21875 
Q 28.65625 66.21875 22.328125 58.203125 
Q 16.015625 50.203125 16.015625 36.375 
Q 16.015625 22.609375 22.328125 14.59375 
Q 28.65625 6.59375 39.40625 6.59375 
Q 50.140625 6.59375 56.421875 14.59375 
Q 62.703125 22.609375 62.703125 36.375 
Q 62.703125 50.203125 56.421875 58.203125 
Q 50.140625 66.21875 39.40625 66.21875 
z
M 39.40625 74.21875 
Q 54.734375 74.21875 63.90625 63.9375 
Q 73.09375 53.65625 73.09375 36.375 
Q 73.09375 19.140625 63.90625 8.859375 
Q 54.734375 -1.421875 39.40625 -1.421875 
Q 24.03125 -1.421875 14.8125 8.828125 
Q 5.609375 19.09375 5.609375 36.375 
Q 5.609375 53.65625 14.8125 63.9375 
Q 24.03125 74.21875 39.40625 74.21875 
z
" id="DejaVuSans-79"/>
      </defs>
      <use xlink:href="#DejaVuSans-79"/>
      <use x="78.710938" xlink:href="#DejaVuSans-117"/>
      <use x="142.089844" xlink:href="#DejaVuSans-116"/>
      <use x="181.298828" xlink:href="#DejaVuSans-112"/>
      <use x="244.775391" xlink:href="#DejaVuSans-117"/>
      <use x="308.154297" xlink:href="#DejaVuSans-116"/>
     </g>
    </g>
    <g id="line2d_22">
     <path d="M 153 152.038437 
L 173 152.038437 
" style="fill:none;stroke:#008000;stroke-dasharray:5.55,2.4;stroke-dashoffset:0;stroke-width:1.5;"/>
    </g>
    <g id="line2d_23"/>
    <g id="text_21">
     <!-- Output fitting from transfer functions -->
     <g transform="translate(181 155.538437)scale(0.1 -0.1)">
      <use xlink:href="#DejaVuSans-79"/>
      <use x="78.710938" xlink:href="#DejaVuSans-117"/>
      <use x="142.089844" xlink:href="#DejaVuSans-116"/>
      <use x="181.298828" xlink:href="#DejaVuSans-112"/>
      <use x="244.775391" xlink:href="#DejaVuSans-117"/>
      <use x="308.154297" xlink:href="#DejaVuSans-116"/>
      <use x="347.363281" xlink:href="#DejaVuSans-32"/>
      <use x="379.150391" xlink:href="#DejaVuSans-102"/>
      <use x="414.355469" xlink:href="#DejaVuSans-105"/>
      <use x="442.138672" xlink:href="#DejaVuSans-116"/>
      <use x="481.347656" xlink:href="#DejaVuSans-116"/>
      <use x="520.556641" xlink:href="#DejaVuSans-105"/>
      <use x="548.339844" xlink:href="#DejaVuSans-110"/>
      <use x="611.71875" xlink:href="#DejaVuSans-103"/>
      <use x="675.195312" xlink:href="#DejaVuSans-32"/>
      <use x="706.982422" xlink:href="#DejaVuSans-102"/>
      <use x="742.1875" xlink:href="#DejaVuSans-114"/>
      <use x="781.050781" xlink:href="#DejaVuSans-111"/>
      <use x="842.232422" xlink:href="#DejaVuSans-109"/>
      <use x="939.644531" xlink:href="#DejaVuSans-32"/>
      <use x="971.431641" xlink:href="#DejaVuSans-116"/>
      <use x="1010.640625" xlink:href="#DejaVuSans-114"/>
      <use x="1051.753906" xlink:href="#DejaVuSans-97"/>
      <use x="1113.033203" xlink:href="#DejaVuSans-110"/>
      <use x="1176.412109" xlink:href="#DejaVuSans-115"/>
      <use x="1228.511719" xlink:href="#DejaVuSans-102"/>
      <use x="1263.716797" xlink:href="#DejaVuSans-101"/>
      <use x="1325.240234" xlink:href="#DejaVuSans-114"/>
      <use x="1366.353516" xlink:href="#DejaVuSans-32"/>
      <use x="1398.140625" xlink:href="#DejaVuSans-102"/>
      <use x="1433.345703" xlink:href="#DejaVuSans-117"/>
      <use x="1496.724609" xlink:href="#DejaVuSans-110"/>
      <use x="1560.103516" xlink:href="#DejaVuSans-99"/>
      <use x="1615.083984" xlink:href="#DejaVuSans-116"/>
      <use x="1654.292969" xlink:href="#DejaVuSans-105"/>
      <use x="1682.076172" xlink:href="#DejaVuSans-111"/>
      <use x="1743.257812" xlink:href="#DejaVuSans-110"/>
      <use x="1806.636719" xlink:href="#DejaVuSans-115"/>
     </g>
    </g>
    <g id="line2d_24">
     <path d="M 153 166.716563 
L 173 166.716563 
" style="fill:none;stroke:#008000;stroke-dasharray:9.6,2.4,1.5,2.4;stroke-dashoffset:0;stroke-width:1.5;"/>
    </g>
    <g id="line2d_25"/>
    <g id="text_22">
     <!-- fitting error -->
     <g transform="translate(181 170.216563)scale(0.1 -0.1)">
      <use xlink:href="#DejaVuSans-102"/>
      <use x="35.205078" xlink:href="#DejaVuSans-105"/>
      <use x="62.988281" xlink:href="#DejaVuSans-116"/>
      <use x="102.197266" xlink:href="#DejaVuSans-116"/>
      <use x="141.40625" xlink:href="#DejaVuSans-105"/>
      <use x="169.189453" xlink:href="#DejaVuSans-110"/>
      <use x="232.568359" xlink:href="#DejaVuSans-103"/>
      <use x="296.044922" xlink:href="#DejaVuSans-32"/>
      <use x="327.832031" xlink:href="#DejaVuSans-101"/>
      <use x="389.355469" xlink:href="#DejaVuSans-114"/>
      <use x="428.71875" xlink:href="#DejaVuSans-114"/>
      <use x="467.582031" xlink:href="#DejaVuSans-111"/>
      <use x="528.763672" xlink:href="#DejaVuSans-114"/>
     </g>
    </g>
   </g>
  </g>
 </g>
 <defs>
  <clipPath id="pbb1d64f19d">
   <rect height="221.76" width="892.8" x="144" y="34.56"/>
  </clipPath>
 </defs>
</svg>
