<?xml version="1.0" encoding="utf-8" standalone="no"?>
<!DOCTYPE svg PUBLIC "-//W3C//DTD SVG 1.1//EN"
  "http://www.w3.org/Graphics/SVG/1.1/DTD/svg11.dtd">
<!-- Created with matplotlib (https://matplotlib.org/) -->
<svg height="288pt" version="1.1" viewBox="0 0 1152 288" width="1152pt" xmlns="http://www.w3.org/2000/svg" xmlns:xlink="http://www.w3.org/1999/xlink">
 <metadata>
  <rdf:RDF xmlns:cc="http://creativecommons.org/ns#" xmlns:dc="http://purl.org/dc/elements/1.1/" xmlns:rdf="http://www.w3.org/1999/02/22-rdf-syntax-ns#">
   <cc:Work>
    <dc:type rdf:resource="http://purl.org/dc/dcmitype/StillImage"/>
    <dc:date>2020-08-12T14:45:58.920817</dc:date>
    <dc:format>image/svg+xml</dc:format>
    <dc:creator>
     <cc:Agent>
      <dc:title>Matplotlib v3.3.0, https://matplotlib.org/</dc:title>
     </cc:Agent>
    </dc:creator>
   </cc:Work>
  </rdf:RDF>
 </metadata>
 <defs>
  <style type="text/css">*{stroke-linecap:butt;stroke-linejoin:round;}</style>
 </defs>
 <g id="figure_1">
  <g id="patch_1">
   <path d="M 0 288 
L 1152 288 
L 1152 0 
L 0 0 
z
" style="fill:#ffffff;"/>
  </g>
  <g id="axes_1">
   <g id="patch_2">
    <path d="M 144 256.32 
L 1036.8 256.32 
L 1036.8 34.56 
L 144 34.56 
z
" style="fill:#ffffff;"/>
   </g>
   <g id="matplotlib.axis_1">
    <g id="xtick_1">
     <g id="line2d_1">
      <defs>
       <path d="M 0 0 
L 0 3.5 
" id="m678163a934" style="stroke:#000000;stroke-width:0.8;"/>
      </defs>
      <g>
       <use style="stroke:#000000;stroke-width:0.8;" x="184.581818" xlink:href="#m678163a934" y="256.32"/>
      </g>
     </g>
     <g id="text_1">
      <!-- 0.0 -->
      <g transform="translate(176.630256 270.918437)scale(0.1 -0.1)">
       <defs>
        <path d="M 31.78125 66.40625 
Q 24.171875 66.40625 20.328125 58.90625 
Q 16.5 51.421875 16.5 36.375 
Q 16.5 21.390625 20.328125 13.890625 
Q 24.171875 6.390625 31.78125 6.390625 
Q 39.453125 6.390625 43.28125 13.890625 
Q 47.125 21.390625 47.125 36.375 
Q 47.125 51.421875 43.28125 58.90625 
Q 39.453125 66.40625 31.78125 66.40625 
z
M 31.78125 74.21875 
Q 44.046875 74.21875 50.515625 64.515625 
Q 56.984375 54.828125 56.984375 36.375 
Q 56.984375 17.96875 50.515625 8.265625 
Q 44.046875 -1.421875 31.78125 -1.421875 
Q 19.53125 -1.421875 13.0625 8.265625 
Q 6.59375 17.96875 6.59375 36.375 
Q 6.59375 54.828125 13.0625 64.515625 
Q 19.53125 74.21875 31.78125 74.21875 
z
" id="DejaVuSans-48"/>
        <path d="M 10.6875 12.40625 
L 21 12.40625 
L 21 0 
L 10.6875 0 
z
" id="DejaVuSans-46"/>
       </defs>
       <use xlink:href="#DejaVuSans-48"/>
       <use x="63.623047" xlink:href="#DejaVuSans-46"/>
       <use x="95.410156" xlink:href="#DejaVuSans-48"/>
      </g>
     </g>
    </g>
    <g id="xtick_2">
     <g id="line2d_2">
      <g>
       <use style="stroke:#000000;stroke-width:0.8;" x="303.982775" xlink:href="#m678163a934" y="256.32"/>
      </g>
     </g>
     <g id="text_2">
      <!-- 0.2 -->
      <g transform="translate(296.031213 270.918437)scale(0.1 -0.1)">
       <defs>
        <path d="M 19.1875 8.296875 
L 53.609375 8.296875 
L 53.609375 0 
L 7.328125 0 
L 7.328125 8.296875 
Q 12.9375 14.109375 22.625 23.890625 
Q 32.328125 33.6875 34.8125 36.53125 
Q 39.546875 41.84375 41.421875 45.53125 
Q 43.3125 49.21875 43.3125 52.78125 
Q 43.3125 58.59375 39.234375 62.25 
Q 35.15625 65.921875 28.609375 65.921875 
Q 23.96875 65.921875 18.8125 64.3125 
Q 13.671875 62.703125 7.8125 59.421875 
L 7.8125 69.390625 
Q 13.765625 71.78125 18.9375 73 
Q 24.125 74.21875 28.421875 74.21875 
Q 39.75 74.21875 46.484375 68.546875 
Q 53.21875 62.890625 53.21875 53.421875 
Q 53.21875 48.921875 51.53125 44.890625 
Q 49.859375 40.875 45.40625 35.40625 
Q 44.1875 33.984375 37.640625 27.21875 
Q 31.109375 20.453125 19.1875 8.296875 
z
" id="DejaVuSans-50"/>
       </defs>
       <use xlink:href="#DejaVuSans-48"/>
       <use x="63.623047" xlink:href="#DejaVuSans-46"/>
       <use x="95.410156" xlink:href="#DejaVuSans-50"/>
      </g>
     </g>
    </g>
    <g id="xtick_3">
     <g id="line2d_3">
      <g>
       <use style="stroke:#000000;stroke-width:0.8;" x="423.383732" xlink:href="#m678163a934" y="256.32"/>
      </g>
     </g>
     <g id="text_3">
      <!-- 0.4 -->
      <g transform="translate(415.43217 270.918437)scale(0.1 -0.1)">
       <defs>
        <path d="M 37.796875 64.3125 
L 12.890625 25.390625 
L 37.796875 25.390625 
z
M 35.203125 72.90625 
L 47.609375 72.90625 
L 47.609375 25.390625 
L 58.015625 25.390625 
L 58.015625 17.1875 
L 47.609375 17.1875 
L 47.609375 0 
L 37.796875 0 
L 37.796875 17.1875 
L 4.890625 17.1875 
L 4.890625 26.703125 
z
" id="DejaVuSans-52"/>
       </defs>
       <use xlink:href="#DejaVuSans-48"/>
       <use x="63.623047" xlink:href="#DejaVuSans-46"/>
       <use x="95.410156" xlink:href="#DejaVuSans-52"/>
      </g>
     </g>
    </g>
    <g id="xtick_4">
     <g id="line2d_4">
      <g>
       <use style="stroke:#000000;stroke-width:0.8;" x="542.784689" xlink:href="#m678163a934" y="256.32"/>
      </g>
     </g>
     <g id="text_4">
      <!-- 0.6 -->
      <g transform="translate(534.833127 270.918437)scale(0.1 -0.1)">
       <defs>
        <path d="M 33.015625 40.375 
Q 26.375 40.375 22.484375 35.828125 
Q 18.609375 31.296875 18.609375 23.390625 
Q 18.609375 15.53125 22.484375 10.953125 
Q 26.375 6.390625 33.015625 6.390625 
Q 39.65625 6.390625 43.53125 10.953125 
Q 47.40625 15.53125 47.40625 23.390625 
Q 47.40625 31.296875 43.53125 35.828125 
Q 39.65625 40.375 33.015625 40.375 
z
M 52.59375 71.296875 
L 52.59375 62.3125 
Q 48.875 64.0625 45.09375 64.984375 
Q 41.3125 65.921875 37.59375 65.921875 
Q 27.828125 65.921875 22.671875 59.328125 
Q 17.53125 52.734375 16.796875 39.40625 
Q 19.671875 43.65625 24.015625 45.921875 
Q 28.375 48.1875 33.59375 48.1875 
Q 44.578125 48.1875 50.953125 41.515625 
Q 57.328125 34.859375 57.328125 23.390625 
Q 57.328125 12.15625 50.6875 5.359375 
Q 44.046875 -1.421875 33.015625 -1.421875 
Q 20.359375 -1.421875 13.671875 8.265625 
Q 6.984375 17.96875 6.984375 36.375 
Q 6.984375 53.65625 15.1875 63.9375 
Q 23.390625 74.21875 37.203125 74.21875 
Q 40.921875 74.21875 44.703125 73.484375 
Q 48.484375 72.75 52.59375 71.296875 
z
" id="DejaVuSans-54"/>
       </defs>
       <use xlink:href="#DejaVuSans-48"/>
       <use x="63.623047" xlink:href="#DejaVuSans-46"/>
       <use x="95.410156" xlink:href="#DejaVuSans-54"/>
      </g>
     </g>
    </g>
    <g id="xtick_5">
     <g id="line2d_5">
      <g>
       <use style="stroke:#000000;stroke-width:0.8;" x="662.185646" xlink:href="#m678163a934" y="256.32"/>
      </g>
     </g>
     <g id="text_5">
      <!-- 0.8 -->
      <g transform="translate(654.234084 270.918437)scale(0.1 -0.1)">
       <defs>
        <path d="M 31.78125 34.625 
Q 24.75 34.625 20.71875 30.859375 
Q 16.703125 27.09375 16.703125 20.515625 
Q 16.703125 13.921875 20.71875 10.15625 
Q 24.75 6.390625 31.78125 6.390625 
Q 38.8125 6.390625 42.859375 10.171875 
Q 46.921875 13.96875 46.921875 20.515625 
Q 46.921875 27.09375 42.890625 30.859375 
Q 38.875 34.625 31.78125 34.625 
z
M 21.921875 38.8125 
Q 15.578125 40.375 12.03125 44.71875 
Q 8.5 49.078125 8.5 55.328125 
Q 8.5 64.0625 14.71875 69.140625 
Q 20.953125 74.21875 31.78125 74.21875 
Q 42.671875 74.21875 48.875 69.140625 
Q 55.078125 64.0625 55.078125 55.328125 
Q 55.078125 49.078125 51.53125 44.71875 
Q 48 40.375 41.703125 38.8125 
Q 48.828125 37.15625 52.796875 32.3125 
Q 56.78125 27.484375 56.78125 20.515625 
Q 56.78125 9.90625 50.3125 4.234375 
Q 43.84375 -1.421875 31.78125 -1.421875 
Q 19.734375 -1.421875 13.25 4.234375 
Q 6.78125 9.90625 6.78125 20.515625 
Q 6.78125 27.484375 10.78125 32.3125 
Q 14.796875 37.15625 21.921875 38.8125 
z
M 18.3125 54.390625 
Q 18.3125 48.734375 21.84375 45.5625 
Q 25.390625 42.390625 31.78125 42.390625 
Q 38.140625 42.390625 41.71875 45.5625 
Q 45.3125 48.734375 45.3125 54.390625 
Q 45.3125 60.0625 41.71875 63.234375 
Q 38.140625 66.40625 31.78125 66.40625 
Q 25.390625 66.40625 21.84375 63.234375 
Q 18.3125 60.0625 18.3125 54.390625 
z
" id="DejaVuSans-56"/>
       </defs>
       <use xlink:href="#DejaVuSans-48"/>
       <use x="63.623047" xlink:href="#DejaVuSans-46"/>
       <use x="95.410156" xlink:href="#DejaVuSans-56"/>
      </g>
     </g>
    </g>
    <g id="xtick_6">
     <g id="line2d_6">
      <g>
       <use style="stroke:#000000;stroke-width:0.8;" x="781.586603" xlink:href="#m678163a934" y="256.32"/>
      </g>
     </g>
     <g id="text_6">
      <!-- 1.0 -->
      <g transform="translate(773.635041 270.918437)scale(0.1 -0.1)">
       <defs>
        <path d="M 12.40625 8.296875 
L 28.515625 8.296875 
L 28.515625 63.921875 
L 10.984375 60.40625 
L 10.984375 69.390625 
L 28.421875 72.90625 
L 38.28125 72.90625 
L 38.28125 8.296875 
L 54.390625 8.296875 
L 54.390625 0 
L 12.40625 0 
z
" id="DejaVuSans-49"/>
       </defs>
       <use xlink:href="#DejaVuSans-49"/>
       <use x="63.623047" xlink:href="#DejaVuSans-46"/>
       <use x="95.410156" xlink:href="#DejaVuSans-48"/>
      </g>
     </g>
    </g>
    <g id="xtick_7">
     <g id="line2d_7">
      <g>
       <use style="stroke:#000000;stroke-width:0.8;" x="900.987561" xlink:href="#m678163a934" y="256.32"/>
      </g>
     </g>
     <g id="text_7">
      <!-- 1.2 -->
      <g transform="translate(893.035998 270.918437)scale(0.1 -0.1)">
       <use xlink:href="#DejaVuSans-49"/>
       <use x="63.623047" xlink:href="#DejaVuSans-46"/>
       <use x="95.410156" xlink:href="#DejaVuSans-50"/>
      </g>
     </g>
    </g>
    <g id="xtick_8">
     <g id="line2d_8">
      <g>
       <use style="stroke:#000000;stroke-width:0.8;" x="1020.388518" xlink:href="#m678163a934" y="256.32"/>
      </g>
     </g>
     <g id="text_8">
      <!-- 1.4 -->
      <g transform="translate(1012.436955 270.918437)scale(0.1 -0.1)">
       <use xlink:href="#DejaVuSans-49"/>
       <use x="63.623047" xlink:href="#DejaVuSans-46"/>
       <use x="95.410156" xlink:href="#DejaVuSans-52"/>
      </g>
     </g>
    </g>
    <g id="text_9">
     <!-- Time [s] -->
     <g transform="translate(570.071094 284.596563)scale(0.1 -0.1)">
      <defs>
       <path d="M -0.296875 72.90625 
L 61.375 72.90625 
L 61.375 64.59375 
L 35.5 64.59375 
L 35.5 0 
L 25.59375 0 
L 25.59375 64.59375 
L -0.296875 64.59375 
z
" id="DejaVuSans-84"/>
       <path d="M 9.421875 54.6875 
L 18.40625 54.6875 
L 18.40625 0 
L 9.421875 0 
z
M 9.421875 75.984375 
L 18.40625 75.984375 
L 18.40625 64.59375 
L 9.421875 64.59375 
z
" id="DejaVuSans-105"/>
       <path d="M 52 44.1875 
Q 55.375 50.25 60.0625 53.125 
Q 64.75 56 71.09375 56 
Q 79.640625 56 84.28125 50.015625 
Q 88.921875 44.046875 88.921875 33.015625 
L 88.921875 0 
L 79.890625 0 
L 79.890625 32.71875 
Q 79.890625 40.578125 77.09375 44.375 
Q 74.3125 48.1875 68.609375 48.1875 
Q 61.625 48.1875 57.5625 43.546875 
Q 53.515625 38.921875 53.515625 30.90625 
L 53.515625 0 
L 44.484375 0 
L 44.484375 32.71875 
Q 44.484375 40.625 41.703125 44.40625 
Q 38.921875 48.1875 33.109375 48.1875 
Q 26.21875 48.1875 22.15625 43.53125 
Q 18.109375 38.875 18.109375 30.90625 
L 18.109375 0 
L 9.078125 0 
L 9.078125 54.6875 
L 18.109375 54.6875 
L 18.109375 46.1875 
Q 21.1875 51.21875 25.484375 53.609375 
Q 29.78125 56 35.6875 56 
Q 41.65625 56 45.828125 52.96875 
Q 50 49.953125 52 44.1875 
z
" id="DejaVuSans-109"/>
       <path d="M 56.203125 29.59375 
L 56.203125 25.203125 
L 14.890625 25.203125 
Q 15.484375 15.921875 20.484375 11.0625 
Q 25.484375 6.203125 34.421875 6.203125 
Q 39.59375 6.203125 44.453125 7.46875 
Q 49.3125 8.734375 54.109375 11.28125 
L 54.109375 2.78125 
Q 49.265625 0.734375 44.1875 -0.34375 
Q 39.109375 -1.421875 33.890625 -1.421875 
Q 20.796875 -1.421875 13.15625 6.1875 
Q 5.515625 13.8125 5.515625 26.8125 
Q 5.515625 40.234375 12.765625 48.109375 
Q 20.015625 56 32.328125 56 
Q 43.359375 56 49.78125 48.890625 
Q 56.203125 41.796875 56.203125 29.59375 
z
M 47.21875 32.234375 
Q 47.125 39.59375 43.09375 43.984375 
Q 39.0625 48.390625 32.421875 48.390625 
Q 24.90625 48.390625 20.390625 44.140625 
Q 15.875 39.890625 15.1875 32.171875 
z
" id="DejaVuSans-101"/>
       <path id="DejaVuSans-32"/>
       <path d="M 8.59375 75.984375 
L 29.296875 75.984375 
L 29.296875 69 
L 17.578125 69 
L 17.578125 -6.203125 
L 29.296875 -6.203125 
L 29.296875 -13.1875 
L 8.59375 -13.1875 
z
" id="DejaVuSans-91"/>
       <path d="M 44.28125 53.078125 
L 44.28125 44.578125 
Q 40.484375 46.53125 36.375 47.5 
Q 32.28125 48.484375 27.875 48.484375 
Q 21.1875 48.484375 17.84375 46.4375 
Q 14.5 44.390625 14.5 40.28125 
Q 14.5 37.15625 16.890625 35.375 
Q 19.28125 33.59375 26.515625 31.984375 
L 29.59375 31.296875 
Q 39.15625 29.25 43.1875 25.515625 
Q 47.21875 21.78125 47.21875 15.09375 
Q 47.21875 7.46875 41.1875 3.015625 
Q 35.15625 -1.421875 24.609375 -1.421875 
Q 20.21875 -1.421875 15.453125 -0.5625 
Q 10.6875 0.296875 5.421875 2 
L 5.421875 11.28125 
Q 10.40625 8.6875 15.234375 7.390625 
Q 20.0625 6.109375 24.8125 6.109375 
Q 31.15625 6.109375 34.5625 8.28125 
Q 37.984375 10.453125 37.984375 14.40625 
Q 37.984375 18.0625 35.515625 20.015625 
Q 33.0625 21.96875 24.703125 23.78125 
L 21.578125 24.515625 
Q 13.234375 26.265625 9.515625 29.90625 
Q 5.8125 33.546875 5.8125 39.890625 
Q 5.8125 47.609375 11.28125 51.796875 
Q 16.75 56 26.8125 56 
Q 31.78125 56 36.171875 55.265625 
Q 40.578125 54.546875 44.28125 53.078125 
z
" id="DejaVuSans-115"/>
       <path d="M 30.421875 75.984375 
L 30.421875 -13.1875 
L 9.71875 -13.1875 
L 9.71875 -6.203125 
L 21.390625 -6.203125 
L 21.390625 69 
L 9.71875 69 
L 9.71875 75.984375 
z
" id="DejaVuSans-93"/>
      </defs>
      <use xlink:href="#DejaVuSans-84"/>
      <use x="57.958984" xlink:href="#DejaVuSans-105"/>
      <use x="85.742188" xlink:href="#DejaVuSans-109"/>
      <use x="183.154297" xlink:href="#DejaVuSans-101"/>
      <use x="244.677734" xlink:href="#DejaVuSans-32"/>
      <use x="276.464844" xlink:href="#DejaVuSans-91"/>
      <use x="315.478516" xlink:href="#DejaVuSans-115"/>
      <use x="367.578125" xlink:href="#DejaVuSans-93"/>
     </g>
    </g>
    <g id="text_10">
     <!-- 1e−8 -->
     <g transform="translate(1009.542187 283.596563)scale(0.1 -0.1)">
      <defs>
       <path d="M 10.59375 35.5 
L 73.1875 35.5 
L 73.1875 27.203125 
L 10.59375 27.203125 
z
" id="DejaVuSans-8722"/>
      </defs>
      <use xlink:href="#DejaVuSans-49"/>
      <use x="63.623047" xlink:href="#DejaVuSans-101"/>
      <use x="125.146484" xlink:href="#DejaVuSans-8722"/>
      <use x="208.935547" xlink:href="#DejaVuSans-56"/>
     </g>
    </g>
   </g>
   <g id="matplotlib.axis_2">
    <g id="ytick_1">
     <g id="line2d_9">
      <defs>
       <path d="M 0 0 
L -3.5 0 
" id="m5cf73c5df7" style="stroke:#000000;stroke-width:0.8;"/>
      </defs>
      <g>
       <use style="stroke:#000000;stroke-width:0.8;" x="144" xlink:href="#m5cf73c5df7" y="235.319857"/>
      </g>
     </g>
     <g id="text_11">
      <!-- 0.0 -->
      <g transform="translate(121.096875 239.119076)scale(0.1 -0.1)">
       <use xlink:href="#DejaVuSans-48"/>
       <use x="63.623047" xlink:href="#DejaVuSans-46"/>
       <use x="95.410156" xlink:href="#DejaVuSans-48"/>
      </g>
     </g>
    </g>
    <g id="ytick_2">
     <g id="line2d_10">
      <g>
       <use style="stroke:#000000;stroke-width:0.8;" x="144" xlink:href="#m5cf73c5df7" y="203.597483"/>
      </g>
     </g>
     <g id="text_12">
      <!-- 0.2 -->
      <g transform="translate(121.096875 207.396702)scale(0.1 -0.1)">
       <use xlink:href="#DejaVuSans-48"/>
       <use x="63.623047" xlink:href="#DejaVuSans-46"/>
       <use x="95.410156" xlink:href="#DejaVuSans-50"/>
      </g>
     </g>
    </g>
    <g id="ytick_3">
     <g id="line2d_11">
      <g>
       <use style="stroke:#000000;stroke-width:0.8;" x="144" xlink:href="#m5cf73c5df7" y="171.87511"/>
      </g>
     </g>
     <g id="text_13">
      <!-- 0.4 -->
      <g transform="translate(121.096875 175.674328)scale(0.1 -0.1)">
       <use xlink:href="#DejaVuSans-48"/>
       <use x="63.623047" xlink:href="#DejaVuSans-46"/>
       <use x="95.410156" xlink:href="#DejaVuSans-52"/>
      </g>
     </g>
    </g>
    <g id="ytick_4">
     <g id="line2d_12">
      <g>
       <use style="stroke:#000000;stroke-width:0.8;" x="144" xlink:href="#m5cf73c5df7" y="140.152736"/>
      </g>
     </g>
     <g id="text_14">
      <!-- 0.6 -->
      <g transform="translate(121.096875 143.951955)scale(0.1 -0.1)">
       <use xlink:href="#DejaVuSans-48"/>
       <use x="63.623047" xlink:href="#DejaVuSans-46"/>
       <use x="95.410156" xlink:href="#DejaVuSans-54"/>
      </g>
     </g>
    </g>
    <g id="ytick_5">
     <g id="line2d_13">
      <g>
       <use style="stroke:#000000;stroke-width:0.8;" x="144" xlink:href="#m5cf73c5df7" y="108.430362"/>
      </g>
     </g>
     <g id="text_15">
      <!-- 0.8 -->
      <g transform="translate(121.096875 112.229581)scale(0.1 -0.1)">
       <use xlink:href="#DejaVuSans-48"/>
       <use x="63.623047" xlink:href="#DejaVuSans-46"/>
       <use x="95.410156" xlink:href="#DejaVuSans-56"/>
      </g>
     </g>
    </g>
    <g id="ytick_6">
     <g id="line2d_14">
      <g>
       <use style="stroke:#000000;stroke-width:0.8;" x="144" xlink:href="#m5cf73c5df7" y="76.707989"/>
      </g>
     </g>
     <g id="text_16">
      <!-- 1.0 -->
      <g transform="translate(121.096875 80.507208)scale(0.1 -0.1)">
       <use xlink:href="#DejaVuSans-49"/>
       <use x="63.623047" xlink:href="#DejaVuSans-46"/>
       <use x="95.410156" xlink:href="#DejaVuSans-48"/>
      </g>
     </g>
    </g>
    <g id="ytick_7">
     <g id="line2d_15">
      <g>
       <use style="stroke:#000000;stroke-width:0.8;" x="144" xlink:href="#m5cf73c5df7" y="44.985615"/>
      </g>
     </g>
     <g id="text_17">
      <!-- 1.2 -->
      <g transform="translate(121.096875 48.784834)scale(0.1 -0.1)">
       <use xlink:href="#DejaVuSans-49"/>
       <use x="63.623047" xlink:href="#DejaVuSans-46"/>
       <use x="95.410156" xlink:href="#DejaVuSans-50"/>
      </g>
     </g>
    </g>
    <g id="text_18">
     <!-- Voltage [V] -->
     <g transform="translate(115.017187 173.107188)rotate(-90)scale(0.1 -0.1)">
      <defs>
       <path d="M 28.609375 0 
L 0.78125 72.90625 
L 11.078125 72.90625 
L 34.1875 11.53125 
L 57.328125 72.90625 
L 67.578125 72.90625 
L 39.796875 0 
z
" id="DejaVuSans-86"/>
       <path d="M 30.609375 48.390625 
Q 23.390625 48.390625 19.1875 42.75 
Q 14.984375 37.109375 14.984375 27.296875 
Q 14.984375 17.484375 19.15625 11.84375 
Q 23.34375 6.203125 30.609375 6.203125 
Q 37.796875 6.203125 41.984375 11.859375 
Q 46.1875 17.53125 46.1875 27.296875 
Q 46.1875 37.015625 41.984375 42.703125 
Q 37.796875 48.390625 30.609375 48.390625 
z
M 30.609375 56 
Q 42.328125 56 49.015625 48.375 
Q 55.71875 40.765625 55.71875 27.296875 
Q 55.71875 13.875 49.015625 6.21875 
Q 42.328125 -1.421875 30.609375 -1.421875 
Q 18.84375 -1.421875 12.171875 6.21875 
Q 5.515625 13.875 5.515625 27.296875 
Q 5.515625 40.765625 12.171875 48.375 
Q 18.84375 56 30.609375 56 
z
" id="DejaVuSans-111"/>
       <path d="M 9.421875 75.984375 
L 18.40625 75.984375 
L 18.40625 0 
L 9.421875 0 
z
" id="DejaVuSans-108"/>
       <path d="M 18.3125 70.21875 
L 18.3125 54.6875 
L 36.8125 54.6875 
L 36.8125 47.703125 
L 18.3125 47.703125 
L 18.3125 18.015625 
Q 18.3125 11.328125 20.140625 9.421875 
Q 21.96875 7.515625 27.59375 7.515625 
L 36.8125 7.515625 
L 36.8125 0 
L 27.59375 0 
Q 17.1875 0 13.234375 3.875 
Q 9.28125 7.765625 9.28125 18.015625 
L 9.28125 47.703125 
L 2.6875 47.703125 
L 2.6875 54.6875 
L 9.28125 54.6875 
L 9.28125 70.21875 
z
" id="DejaVuSans-116"/>
       <path d="M 34.28125 27.484375 
Q 23.390625 27.484375 19.1875 25 
Q 14.984375 22.515625 14.984375 16.5 
Q 14.984375 11.71875 18.140625 8.90625 
Q 21.296875 6.109375 26.703125 6.109375 
Q 34.1875 6.109375 38.703125 11.40625 
Q 43.21875 16.703125 43.21875 25.484375 
L 43.21875 27.484375 
z
M 52.203125 31.203125 
L 52.203125 0 
L 43.21875 0 
L 43.21875 8.296875 
Q 40.140625 3.328125 35.546875 0.953125 
Q 30.953125 -1.421875 24.3125 -1.421875 
Q 15.921875 -1.421875 10.953125 3.296875 
Q 6 8.015625 6 15.921875 
Q 6 25.140625 12.171875 29.828125 
Q 18.359375 34.515625 30.609375 34.515625 
L 43.21875 34.515625 
L 43.21875 35.40625 
Q 43.21875 41.609375 39.140625 45 
Q 35.0625 48.390625 27.6875 48.390625 
Q 23 48.390625 18.546875 47.265625 
Q 14.109375 46.140625 10.015625 43.890625 
L 10.015625 52.203125 
Q 14.9375 54.109375 19.578125 55.046875 
Q 24.21875 56 28.609375 56 
Q 40.484375 56 46.34375 49.84375 
Q 52.203125 43.703125 52.203125 31.203125 
z
" id="DejaVuSans-97"/>
       <path d="M 45.40625 27.984375 
Q 45.40625 37.75 41.375 43.109375 
Q 37.359375 48.484375 30.078125 48.484375 
Q 22.859375 48.484375 18.828125 43.109375 
Q 14.796875 37.75 14.796875 27.984375 
Q 14.796875 18.265625 18.828125 12.890625 
Q 22.859375 7.515625 30.078125 7.515625 
Q 37.359375 7.515625 41.375 12.890625 
Q 45.40625 18.265625 45.40625 27.984375 
z
M 54.390625 6.78125 
Q 54.390625 -7.171875 48.1875 -13.984375 
Q 42 -20.796875 29.203125 -20.796875 
Q 24.46875 -20.796875 20.265625 -20.09375 
Q 16.0625 -19.390625 12.109375 -17.921875 
L 12.109375 -9.1875 
Q 16.0625 -11.328125 19.921875 -12.34375 
Q 23.78125 -13.375 27.78125 -13.375 
Q 36.625 -13.375 41.015625 -8.765625 
Q 45.40625 -4.15625 45.40625 5.171875 
L 45.40625 9.625 
Q 42.625 4.78125 38.28125 2.390625 
Q 33.9375 0 27.875 0 
Q 17.828125 0 11.671875 7.65625 
Q 5.515625 15.328125 5.515625 27.984375 
Q 5.515625 40.671875 11.671875 48.328125 
Q 17.828125 56 27.875 56 
Q 33.9375 56 38.28125 53.609375 
Q 42.625 51.21875 45.40625 46.390625 
L 45.40625 54.6875 
L 54.390625 54.6875 
z
" id="DejaVuSans-103"/>
      </defs>
      <use xlink:href="#DejaVuSans-86"/>
      <use x="60.658203" xlink:href="#DejaVuSans-111"/>
      <use x="121.839844" xlink:href="#DejaVuSans-108"/>
      <use x="149.623047" xlink:href="#DejaVuSans-116"/>
      <use x="188.832031" xlink:href="#DejaVuSans-97"/>
      <use x="250.111328" xlink:href="#DejaVuSans-103"/>
      <use x="313.587891" xlink:href="#DejaVuSans-101"/>
      <use x="375.111328" xlink:href="#DejaVuSans-32"/>
      <use x="406.898438" xlink:href="#DejaVuSans-91"/>
      <use x="445.912109" xlink:href="#DejaVuSans-86"/>
      <use x="514.320312" xlink:href="#DejaVuSans-93"/>
     </g>
    </g>
   </g>
   <g id="line2d_16">
    <path clip-path="url(#p58406ae62f)" d="M 184.581818 235.319843 
L 268.053714 235.430769 
L 274.059582 235.50814 
L 274.978969 235.251393 
L 275.713285 234.816801 
L 276.375961 234.160756 
L 277.026696 233.191355 
L 277.701311 231.766726 
L 278.423687 229.694032 
L 279.217703 226.699987 
L 280.10127 222.44862 
L 281.110209 216.433466 
L 282.304218 207.88381 
L 283.81464 195.337945 
L 286.059378 174.604154 
L 291.713013 121.83416 
L 293.845156 104.240471 
L 295.56453 91.816991 
L 297.086892 82.37343 
L 298.495824 74.978961 
L 299.851025 69.038153 
L 301.128615 64.400342 
L 302.436055 60.50658 
L 303.737526 57.363685 
L 305.021086 54.863804 
L 306.250916 52.930167 
L 307.450895 51.401624 
L 308.806096 50.021225 
L 310.232938 48.882074 
L 311.671719 47.98671 
L 313.271692 47.220615 
L 315.098527 46.564755 
L 317.916389 45.856553 
L 320.662611 45.386427 
L 323.205852 45.092995 
L 324.961046 45.110919 
L 325.814763 45.358036 
L 326.513258 45.79517 
L 327.158023 46.468002 
L 327.826669 47.519281 
L 328.507254 49.037197 
L 329.24157 51.255067 
L 330.041557 54.412236 
L 330.960944 59.019593 
L 331.981822 65.338056 
L 333.140011 73.944018 
L 334.507152 85.847379 
L 336.166826 102.361682 
L 338.393653 126.929867 
L 343.980365 189.52363 
L 345.371386 202.087657 
L 346.541515 210.748388 
L 347.604184 217.037428 
L 348.601182 221.672581 
L 349.562359 225.134036 
L 350.505627 227.731998 
L 351.436954 229.672335 
L 352.380222 231.141849 
L 353.35931 232.263972 
L 354.398098 233.120816 
L 355.556287 233.78626 
L 356.911488 234.302785 
L 358.630862 234.70925 
L 361.066641 235.0393 
L 365.144184 235.339919 
L 367.765035 235.373036 
L 368.785913 235.165236 
L 369.55605 234.783772 
L 370.236635 234.19272 
L 370.89334 233.313042 
L 371.561986 232.024407 
L 372.272421 230.144678 
L 373.048528 227.422645 
L 373.908214 223.543815 
L 374.881332 218.058032 
L 376.015641 210.311032 
L 377.418603 199.086609 
L 379.376778 181.43866 
L 386.737847 113.470144 
L 388.648203 98.527954 
L 390.272056 87.507173 
L 391.740688 79.008733 
L 393.113799 72.321102 
L 394.433179 66.971124 
L 395.72868 62.64102 
L 397.01821 59.120946 
L 398.22416 56.435965 
L 399.448019 54.213654 
L 400.671879 52.411506 
L 401.949469 50.89819 
L 403.28676 49.638812 
L 404.653901 48.62211 
L 406.462826 47.599856 
L 408.319511 46.834712 
L 410.606039 46.162515 
L 413.597033 45.561218 
L 417.250702 45.091251 
L 419.017836 45.061273 
L 419.943194 45.270165 
L 420.641689 45.647661 
L 421.286454 46.245628 
L 421.91331 47.127827 
L 422.570015 48.442085 
L 423.27448 50.36684 
L 424.068497 53.240253 
L 424.922214 57.197936 
L 425.913242 62.914942 
L 427.041581 70.823647 
L 428.325141 81.460952 
L 429.871383 96.225338 
L 431.847469 117.374359 
L 435.542929 159.904593 
L 437.936918 186.106924 
L 439.40555 199.876005 
L 440.611499 209.196752 
L 441.692078 215.901704 
L 442.701016 220.835036 
L 443.668164 224.507587 
L 444.611431 227.254876 
L 445.542759 229.312681 
L 446.486026 230.874623 
L 447.453174 232.056879 
L 448.480022 232.964713 
L 449.608182 233.663724 
L 450.903683 234.200487 
L 452.491716 234.609364 
L 454.605112 234.910166 
L 457.763268 235.114956 
L 463.775106 235.242227 
L 475.124167 235.484235 
L 478.956938 235.52242 
L 479.930055 235.293071 
L 480.682281 234.890502 
L 481.350927 234.27682 
L 482.001662 233.36632 
L 482.670307 232.028965 
L 483.385459 230.072669 
L 484.167536 227.245244 
L 485.033193 223.233461 
L 486.018251 217.551949 
L 487.17644 209.48993 
L 488.621191 197.759599 
L 490.674888 179.082385 
L 497.307611 117.594782 
L 499.325487 101.392262 
L 500.997101 89.691132 
L 502.483643 80.796305 
L 503.850783 73.911503 
L 505.122404 68.589123 
L 506.334323 64.417631 
L 507.510423 61.123263 
L 508.698462 58.452873 
L 509.850682 56.402498 
L 511.008871 54.792746 
L 512.11333 53.617749 
L 513.128238 52.82469 
L 514.041655 52.373122 
L 514.746121 52.246867 
L 515.384916 52.356467 
L 515.958041 52.685746 
L 516.537135 53.288153 
L 517.14011 54.252514 
L 517.826665 55.824992 
L 518.555011 58.09441 
L 519.372908 61.414157 
L 520.298265 66.1603 
L 521.360934 72.871009 
L 522.543003 81.808201 
L 523.951935 94.233823 
L 525.683248 111.595748 
L 528.123386 138.532992 
L 532.451671 186.474936 
L 533.932243 200.216846 
L 535.138192 209.442346 
L 536.218771 216.080348 
L 537.233679 220.990599 
L 538.200827 224.621715 
L 539.144094 227.338068 
L 540.081392 229.384128 
L 541.02466 230.925937 
L 541.991807 232.093219 
L 543.018656 232.990143 
L 544.152965 233.68542 
L 545.472345 234.227881 
L 547.120078 234.654707 
L 549.394667 234.998415 
L 553.036396 235.29909 
L 555.878139 235.362802 
L 556.922897 235.168509 
L 557.704973 234.799336 
L 558.385559 234.228925 
L 559.042264 233.37551 
L 559.710909 232.11972 
L 560.421345 230.280284 
L 561.191481 227.629965 
L 562.045198 223.843118 
L 563.006376 218.506301 
L 564.128745 210.939373 
L 565.507826 200.017724 
L 567.400331 183.082989 
L 575.233034 111.036514 
L 577.089719 96.782716 
L 578.689691 86.157037 
L 580.146383 77.929237 
L 581.507554 71.470308 
L 582.803054 66.352696 
L 584.074675 62.204361 
L 585.328385 58.852416 
L 586.558215 56.169497 
L 587.805955 53.959875 
L 589.06265 52.164706 
L 590.388 50.653293 
L 591.790961 49.393598 
L 593.247653 48.374516 
L 594.913296 47.486449 
L 596.841622 46.737166 
L 598.602786 46.246262 
L 600.990805 45.789302 
L 605.128048 45.351691 
L 619.527804 44.697735 
L 620.560622 44.891083 
L 621.288968 45.23987 
L 621.933733 45.780419 
L 622.602378 46.652467 
L 623.247144 47.868227 
L 623.945639 49.675927 
L 624.727715 52.374708 
L 625.581432 56.179331 
L 626.5247 61.428273 
L 627.641099 69.002942 
L 628.894809 79.119571 
L 630.387321 93.059699 
L 632.267886 112.850907 
L 635.22306 146.654237 
L 638.464796 183.067429 
L 640.011038 197.990395 
L 641.246838 207.873025 
L 642.345327 214.949446 
L 643.366205 220.142543 
L 644.339323 223.993271 
L 645.28856 226.878065 
L 646.225858 229.040021 
L 647.163155 230.662803 
L 648.124333 231.895201 
L 649.139241 232.839967 
L 650.2437 233.565178 
L 651.50935 234.125966 
L 653.043652 234.553865 
L 655.053171 234.870351 
L 657.996404 235.089663 
L 663.267956 235.225943 
L 685.040721 235.420977 
L 685.864587 235.096071 
L 686.563083 234.578945 
L 687.219788 233.804688 
L 687.876494 232.670004 
L 688.569019 231.004927 
L 689.321245 228.580903 
L 690.151082 225.107367 
L 691.082409 220.190987 
L 692.157018 213.250649 
L 693.458488 203.295803 
L 695.177862 188.286806 
L 698.359898 158.123366 
L 701.977747 124.586885 
L 704.186664 106.089997 
L 705.941858 93.179387 
L 707.482131 83.431863 
L 708.903002 75.811673 
L 710.228353 69.852149 
L 711.529823 64.993234 
L 712.80819 61.069969 
L 714.06787 57.913593 
L 715.30964 55.383733 
L 716.56335 53.316704 
L 717.81109 51.659051 
L 719.11256 50.275797 
L 720.461791 49.139026 
L 722.008033 48.126447 
L 723.536366 47.361304 
L 725.572152 46.615987 
L 728.013901 46.017544 
L 731.052656 45.565183 
L 733.769028 45.316162 
L 739.882357 44.880138 
L 743.207673 44.726285 
L 744.318102 44.866498 
L 745.070328 45.159771 
L 745.774794 45.679066 
L 746.431499 46.460388 
L 747.070294 47.57083 
L 747.75685 49.224676 
L 748.503106 51.632404 
L 749.344882 55.163739 
L 750.28218 60.127497 
L 751.338878 66.988729 
L 752.544828 76.337472 
L 753.965699 89.162922 
L 755.726864 107.202722 
L 758.228314 135.359644 
L 762.604359 184.740324 
L 764.108811 199.036884 
L 765.326701 208.598706 
L 766.413249 215.459763 
L 767.428157 220.515583 
L 768.401275 224.281324 
L 769.344543 227.082343 
L 770.28184 229.194121 
L 771.219138 230.777771 
L 772.186286 231.98597 
L 773.207164 232.909578 
L 774.321772 233.618757 
L 775.605332 234.16723 
L 777.169484 234.584818 
L 779.235121 234.892603 
L 782.291666 235.1037 
L 787.951271 235.234665 
L 800.374941 235.502227 
L 803.736078 235.523699 
L 804.715166 235.294905 
L 805.467392 234.894002 
L 806.142007 234.275619 
L 806.792742 233.364569 
L 807.461388 232.026535 
L 808.177794 230.065417 
L 808.95987 227.236024 
L 809.825527 223.222174 
L 810.810585 217.537309 
L 811.968774 209.467851 
L 813.413526 197.721421 
L 815.473192 178.95475 
L 822.093975 117.456203 
L 824.105881 101.282931 
L 825.777495 89.573743 
L 827.270007 80.630778 
L 828.661028 73.597134 
L 829.974438 68.050319 
L 831.281879 63.487055 
L 832.571409 59.806784 
L 833.795269 56.957639 
L 835.043009 54.594798 
L 836.308659 52.660685 
L 837.66386 51.010646 
L 839.126522 49.618351 
L 840.499633 48.596573 
L 842.051845 47.698513 
L 843.807039 46.936224 
L 845.759245 46.328582 
L 847.890552 45.932528 
L 849.006951 45.953623 
L 849.789027 46.19059 
L 850.463643 46.63502 
L 851.072587 47.296907 
L 851.717353 48.337718 
L 852.385998 49.855475 
L 853.138224 52.167243 
L 853.956121 55.459867 
L 854.875508 60.149703 
L 855.902356 66.595531 
L 857.090396 75.539495 
L 858.481417 87.797274 
L 860.18288 104.893809 
L 862.511199 130.75078 
L 867.55589 187.376628 
L 869.000641 200.731256 
L 870.194651 209.805647 
L 871.269259 216.350972 
L 872.278197 221.184998 
L 873.245345 224.776801 
L 874.188613 227.459705 
L 875.11994 229.466984 
L 876.063208 230.989242 
L 877.036326 232.146752 
L 878.069144 233.033092 
L 879.203453 233.713721 
L 880.516863 234.238653 
L 882.140716 234.638724 
L 884.313814 234.930936 
L 887.60928 235.128627 
L 894.104692 235.252403 
L 911.208879 235.316002 
L 996.218182 235.319844 
L 996.218182 235.319844 
" style="fill:none;stroke:#ff0000;stroke-linecap:square;stroke-width:1.5;"/>
   </g>
   <g id="line2d_17">
    <path clip-path="url(#p58406ae62f)" d="M 184.581818 44.985615 
L 280.280372 44.874587 
L 287.163837 44.802577 
L 287.939943 45.122021 
L 288.632469 45.653688 
L 289.283204 46.448493 
L 289.945879 47.631103 
L 290.656315 49.398356 
L 291.420481 51.948676 
L 292.256288 55.556938 
L 293.199555 60.66646 
L 294.28097 67.831593 
L 295.52274 77.64529 
L 296.985402 91.08119 
L 298.806266 110.000208 
L 301.510698 140.716998 
L 305.289738 183.348474 
L 306.83001 198.175987 
L 308.06581 208.024737 
L 309.158329 215.036524 
L 310.179207 220.210887 
L 311.152325 224.046196 
L 312.101563 226.918535 
L 313.03886 229.070627 
L 313.976158 230.685695 
L 314.937335 231.912054 
L 315.952244 232.852073 
L 317.062672 233.576792 
L 318.328323 234.133534 
L 319.868595 234.559575 
L 321.886471 234.874084 
L 324.871495 235.09407 
L 336.441448 235.531288 
L 338.047391 235.450886 
L 338.959554 235.186145 
L 339.6879 234.743963 
L 340.350575 234.075363 
L 341.001311 233.090716 
L 341.681896 231.63306 
L 342.410242 229.514567 
L 343.210228 226.459314 
L 344.099765 222.129795 
L 345.114674 216.019647 
L 346.320623 207.315107 
L 347.848956 194.543902 
L 350.159364 173.128032 
L 355.526437 122.987902 
L 357.687594 105.040097 
L 359.424878 92.387533 
L 360.959181 82.787582 
L 362.374082 75.294123 
L 363.717343 69.343164 
L 364.988963 64.667921 
L 366.224763 60.91564 
L 367.496383 57.756726 
L 368.744123 55.241934 
L 370.015743 53.173953 
L 371.269453 51.537554 
L 372.582864 50.172541 
L 373.938065 49.063844 
L 375.490277 48.087112 
L 377.287262 47.257889 
L 379.233497 46.651992 
L 380.505117 46.461023 
L 381.466295 46.545404 
L 382.152851 46.823451 
L 382.755825 47.286915 
L 383.3588 48.016212 
L 383.997595 49.143308 
L 384.672211 50.794616 
L 385.430407 53.279588 
L 386.272184 56.863424 
L 387.209481 61.883806 
L 388.27209 68.84433 
L 389.51386 78.55642 
L 390.958611 91.709055 
L 392.761566 110.295448 
L 395.388387 139.945938 
L 399.304738 183.970137 
L 400.833071 198.578322 
L 402.0629 208.302149 
L 403.155419 215.253425 
L 404.176297 220.378313 
L 405.149415 224.174168 
L 406.092683 226.999801 
L 407.02998 229.131453 
L 407.967278 230.730786 
L 408.928455 231.944983 
L 409.943364 232.875577 
L 411.053792 233.592997 
L 412.331383 234.148331 
L 413.877625 234.569772 
L 415.913411 234.881498 
L 418.928286 235.098282 
L 430.922112 235.536874 
L 432.414624 235.441818 
L 433.304161 235.168335 
L 434.026537 234.714617 
L 434.689212 234.028032 
L 435.345917 233.00993 
L 436.026503 231.52023 
L 436.760819 229.343105 
L 437.560805 226.236988 
L 438.456312 221.817638 
L 439.48316 215.559895 
L 440.70702 206.633156 
L 442.271173 193.452954 
L 444.689042 170.927657 
L 449.685793 124.217097 
L 451.882771 105.854775 
L 453.637965 92.975238 
L 455.178237 83.257644 
L 456.593138 75.694142 
L 457.936399 69.680849 
L 459.196079 64.992758 
L 460.419939 61.221285 
L 461.619919 58.17324 
L 462.831838 55.65036 
L 464.145249 53.44169 
L 465.47657 51.659368 
L 466.915351 50.147639 
L 468.294432 49.015943 
L 469.906345 47.996069 
L 471.494378 47.236635 
L 473.667475 46.490207 
L 476.324147 45.89922 
L 479.834535 45.451934 
L 483.582471 45.165164 
L 492.059939 44.825734 
L 492.901716 45.11758 
L 493.582301 45.584692 
L 494.262887 46.34825 
L 494.913622 47.434583 
L 495.588237 49.00373 
L 496.340463 51.358164 
L 497.16433 54.723115 
L 498.083717 59.468148 
L 499.134446 66.138094 
L 500.334425 75.271758 
L 501.767237 88.034272 
L 503.498551 105.595841 
L 505.93433 132.801092 
L 510.501417 184.051457 
L 512.023779 198.425896 
L 513.253609 208.042739 
L 514.352098 214.967686 
L 515.372976 220.055168 
L 516.352064 223.85183 
L 517.301301 226.678106 
L 518.238599 228.796985 
L 519.181866 230.397276 
L 520.149014 231.612495 
L 521.175862 232.550827 
L 522.304201 233.280187 
L 523.593732 233.844867 
L 525.056393 234.241456 
L 526.345924 234.376163 
L 527.287579 234.261513 
L 528.045776 233.947832 
L 528.720391 233.424429 
L 529.371126 232.627568 
L 530.033801 231.447589 
L 530.738267 229.712486 
L 531.502433 227.201792 
L 532.34421 223.623232 
L 533.287478 218.582736 
L 534.379996 211.459049 
L 535.705347 201.24925 
L 537.472481 185.757122 
L 541.04257 151.950874 
L 544.320126 121.928248 
L 546.457403 104.291941 
L 548.182747 91.820702 
L 549.705109 82.37167 
L 551.11404 74.970554 
L 552.475211 69.000087 
L 553.752802 64.3618 
L 555.060242 60.468354 
L 556.296042 57.46948 
L 557.567662 54.965157 
L 558.773612 53.044208 
L 560.045232 51.413996 
L 561.370583 50.067381 
L 562.749664 48.97058 
L 564.116805 48.12613 
L 565.866029 47.322444 
L 567.686893 46.763337 
L 568.958513 46.606629 
L 569.77641 46.716229 
L 570.474906 47.034405 
L 571.089821 47.556238 
L 571.704735 48.369124 
L 572.355471 49.612958 
L 573.036056 51.399879 
L 573.812162 54.104212 
L 574.665879 57.936116 
L 575.633027 63.360324 
L 576.725546 70.813813 
L 577.997166 81.106344 
L 579.507588 95.254316 
L 581.418003 115.394074 
L 584.534368 151.000598 
L 587.483572 183.831716 
L 589.014889 198.485946 
L 590.244719 208.226015 
L 591.337238 215.19228 
L 592.358116 220.330169 
L 593.331234 224.136792 
L 594.274501 226.971113 
L 595.211799 229.109717 
L 596.149096 230.714499 
L 597.110274 231.932976 
L 598.125182 232.866939 
L 599.235611 233.587022 
L 600.507231 234.142382 
L 602.053474 234.566317 
L 604.08329 234.879251 
L 607.074284 235.095679 
L 612.489117 235.229762 
L 633.599207 235.403125 
L 634.411133 235.065338 
L 635.103659 234.53346 
L 635.760364 233.736339 
L 636.423039 232.560946 
L 637.121535 230.839995 
L 637.879731 228.34192 
L 638.715538 224.774006 
L 639.652835 219.74272 
L 640.739384 212.627415 
L 642.058764 202.42458 
L 643.825899 186.876921 
L 647.407927 152.84343 
L 650.703394 122.558508 
L 652.858581 104.705458 
L 654.589895 92.139766 
L 656.115839 82.627971 
L 657.53074 75.16422 
L 658.885941 69.192007 
L 660.157561 64.547376 
L 661.453062 60.658847 
L 662.682892 57.644746 
L 663.948542 55.122817 
L 665.148521 53.183945 
L 666.414172 51.53121 
L 667.739522 50.15208 
L 669.124573 49.01515 
L 670.736486 47.995593 
L 672.324519 47.236318 
L 674.491646 46.491794 
L 676.509523 46.017385 
L 678.67068 45.671294 
L 681.858685 45.359622 
L 685.792947 45.157392 
L 691.989857 44.881724 
L 697.147978 44.718513 
L 698.133036 44.960872 
L 698.843472 45.362477 
L 699.494207 45.984553 
L 700.156882 46.948279 
L 700.837468 48.365476 
L 701.535963 50.34289 
L 702.324009 53.271182 
L 703.195636 57.404449 
L 704.162784 63.080533 
L 705.273213 70.941813 
L 706.592594 81.969589 
L 708.162716 97.090074 
L 710.186562 118.899174 
L 717.142444 195.809704 
L 718.414064 206.350494 
L 719.530463 213.838465 
L 720.563282 219.325848 
L 721.54237 223.382376 
L 722.491607 226.411055 
L 723.428905 228.687092 
L 724.366202 230.39913 
L 725.32141 231.694499 
L 726.324378 232.686037 
L 727.410927 233.448097 
L 728.640756 234.035489 
L 730.115358 234.485476 
L 732.013833 234.820488 
L 734.730205 235.056408 
L 739.345052 235.204826 
L 757.505938 235.415183 
L 758.335774 235.088728 
L 759.03427 234.571589 
L 759.690975 233.797415 
L 760.347681 232.662965 
L 761.040206 230.998342 
L 761.792432 228.575054 
L 762.622269 225.102581 
L 763.553596 220.187626 
L 764.628205 213.248952 
L 765.929675 203.295883 
L 767.649049 188.288646 
L 770.837055 158.069596 
L 774.447143 124.605902 
L 776.65606 106.107016 
L 778.411254 93.194202 
L 779.951527 83.444505 
L 781.372398 75.8223 
L 782.703599 69.836606 
L 783.9991 65.00053 
L 785.27669 61.078217 
L 786.54234 57.906772 
L 787.77814 55.389126 
L 789.03185 53.320986 
L 790.27959 51.66254 
L 791.581061 50.278493 
L 793.103423 49.013722 
L 794.709366 47.997813 
L 796.303368 47.235525 
L 798.470496 46.491318 
L 800.488372 46.01691 
L 803.521156 45.565659 
L 808.255404 45.174046 
L 816.852273 44.827479 
L 817.68211 45.116311 
L 818.362695 45.583741 
L 819.00149 46.29115 
L 819.658196 47.366538 
L 820.332811 48.913955 
L 821.067127 51.179726 
L 821.861143 54.364176 
L 822.780531 59.027365 
L 823.807379 65.446546 
L 824.989448 74.316915 
L 826.368529 86.43556 
L 828.052083 103.314955 
L 830.344581 128.75319 
L 835.616134 188.012202 
L 837.042975 201.124121 
L 838.231014 210.089023 
L 839.299653 216.54681 
L 840.302621 221.314695 
L 841.269769 224.877906 
L 842.213036 227.537531 
L 843.144364 229.526241 
L 844.087631 231.033711 
L 845.060749 232.179539 
L 846.093568 233.056673 
L 847.233847 233.733074 
L 848.559197 234.255769 
L 850.212901 234.65887 
L 852.535249 234.97805 
L 856.541151 235.273661 
L 861.287339 235.432171 
L 862.361948 235.245926 
L 863.149994 234.888141 
L 863.83655 234.328156 
L 864.493255 233.492134 
L 865.15593 232.270079 
L 865.860396 230.47701 
L 866.624562 227.887995 
L 867.466339 224.208831 
L 868.421546 218.974682 
L 869.531975 211.569221 
L 870.887176 200.930789 
L 872.731921 184.524787 
L 881.006407 108.703778 
L 882.815332 95.083015 
L 884.385454 84.882274 
L 885.818266 76.974917 
L 887.173467 70.698978 
L 888.457027 65.755205 
L 889.704767 61.782453 
L 890.928627 58.578335 
L 892.176367 55.911911 
L 893.459927 53.69642 
L 894.749457 51.912513 
L 896.128539 50.401417 
L 897.441949 49.265281 
L 898.940431 48.250323 
L 900.409063 47.482642 
L 902.325448 46.738435 
L 904.588096 46.133648 
L 907.268648 45.677163 
L 910.510384 45.358353 
L 914.337185 45.164529 
L 924.247464 45.012262 
L 996.218182 44.985615 
L 996.218182 44.985615 
" style="fill:none;stroke:#008000;stroke-linecap:square;stroke-width:1.5;"/>
   </g>
   <g id="line2d_18">
    <path clip-path="url(#p58406ae62f)" d="M 184.581818 44.985615 
L 273.558098 45.095117 
L 277.856532 45.332196 
L 280.483353 45.685645 
L 282.453469 46.170279 
L 284.005682 46.776592 
L 285.319092 47.523234 
L 286.513102 48.464101 
L 287.58771 49.598537 
L 288.602619 50.996896 
L 289.617527 52.801313 
L 290.572734 54.965014 
L 291.527942 57.686032 
L 292.48315 61.08275 
L 293.469043 65.433902 
L 294.483951 70.961161 
L 295.55856 78.131013 
L 296.692869 87.301502 
L 297.946579 99.387223 
L 299.439091 116.162231 
L 301.76741 145.355987 
L 304.095729 173.598155 
L 305.588241 189.008489 
L 306.841951 199.76389 
L 308.03596 208.113832 
L 309.170269 214.465733 
L 310.244878 219.242062 
L 311.259786 222.81537 
L 312.274694 225.634852 
L 313.289602 227.840562 
L 314.30451 229.553965 
L 315.379119 230.94441 
L 316.513428 232.045165 
L 317.707438 232.894187 
L 319.020848 233.555002 
L 320.51336 234.053756 
L 322.244674 234.394567 
L 324.27449 234.565312 
L 326.543108 234.53516 
L 328.811727 234.289183 
L 330.841543 233.853529 
L 332.632557 233.241872 
L 334.18477 232.475165 
L 335.557881 231.550827 
L 336.811591 230.4438 
L 338.0056 229.092542 
L 339.174476 227.419065 
L 340.308785 225.386602 
L 341.443094 222.86506 
L 342.577403 219.757263 
L 343.711712 215.957413 
L 344.846021 211.356285 
L 346.040031 205.533099 
L 347.293741 198.230204 
L 348.607152 189.205065 
L 350.039963 177.782462 
L 351.771277 162.081409 
L 354.577199 134.17949 
L 357.204021 108.874985 
L 358.875634 94.800506 
L 360.368146 84.065147 
L 361.741257 75.797765 
L 362.994967 69.541648 
L 364.248677 64.40698 
L 365.442687 60.433133 
L 366.636696 57.225204 
L 367.830706 54.662219 
L 369.024715 52.634869 
L 370.218725 51.04884 
L 371.412734 49.825919 
L 372.666444 48.864772 
L 373.920155 48.181632 
L 375.173865 47.740477 
L 376.427575 47.522828 
L 377.681285 47.528341 
L 378.875294 47.758741 
L 379.949903 48.183805 
L 380.964811 48.813404 
L 381.979719 49.715415 
L 382.934927 50.872784 
L 383.890134 52.401867 
L 384.845342 54.391196 
L 385.80055 56.947489 
L 386.755757 60.195123 
L 387.681055 64.131083 
L 388.636263 69.151483 
L 389.651171 75.704726 
L 390.72578 84.15629 
L 391.919789 95.452851 
L 393.2929 110.774683 
L 395.143615 134.25461 
L 398.24804 173.784385 
L 399.680851 189.088459 
L 400.934561 200.17864 
L 402.06887 208.331979 
L 403.143479 214.536436 
L 404.218088 219.450849 
L 405.232996 223.094785 
L 406.247904 225.943573 
L 407.262812 228.150963 
L 408.27772 229.849028 
L 409.352329 231.213244 
L 410.486638 232.281927 
L 411.680647 233.097345 
L 412.994058 233.725036 
L 414.48657 234.193554 
L 416.277584 234.518205 
L 418.426802 234.675072 
L 420.874521 234.627895 
L 423.26254 234.367598 
L 425.352057 233.928933 
L 427.143071 233.337006 
L 428.695284 232.600149 
L 430.128095 231.670169 
L 431.441506 230.540408 
L 432.635515 229.218231 
L 433.769825 227.636296 
L 434.904134 225.66398 
L 436.038443 223.217688 
L 437.172752 220.202603 
L 438.307061 216.51498 
L 439.44137 212.046859 
L 440.63538 206.385925 
L 441.88909 199.274845 
L 443.2025 190.466045 
L 444.635312 179.280411 
L 446.306925 164.392731 
L 448.754645 140.335976 
L 451.894711 109.864387 
L 453.626025 95.239119 
L 455.118537 84.469236 
L 456.491648 76.156468 
L 457.745358 69.851798 
L 458.999068 64.664685 
L 460.193077 60.638675 
L 461.387087 57.376573 
L 462.581096 54.756351 
L 463.775106 52.66641 
L 464.969116 51.008761 
L 466.222826 49.642276 
L 467.536236 48.535997 
L 468.969048 47.623084 
L 470.52126 46.895532 
L 472.312274 46.302456 
L 474.461492 45.8332 
L 477.088313 45.495106 
L 480.371839 45.303789 
L 483.875003 45.317933 
L 486.621225 45.535282 
L 488.651042 45.904661 
L 490.262955 46.417037 
L 491.576365 47.05914 
L 492.710674 47.849006 
L 493.785283 48.87465 
L 494.74049 50.087221 
L 495.695698 51.667637 
L 496.591205 53.573151 
L 497.486712 55.991306 
L 498.38222 59.039141 
L 499.337427 63.132389 
L 500.292635 68.261248 
L 501.307543 75.029728 
L 502.382152 83.851755 
L 503.516461 95.105421 
L 504.829871 110.483911 
L 506.620886 134.36306 
L 509.60591 174.211317 
L 510.979021 189.484943 
L 512.17303 200.429332 
L 513.247639 208.398533 
L 514.262547 214.417693 
L 515.277455 219.156181 
L 516.232663 222.624615 
L 517.18787 225.29561 
L 518.143078 227.312364 
L 519.038585 228.716965 
L 519.934092 229.734705 
L 520.8296 230.430094 
L 521.725107 230.852252 
L 522.620614 231.036664 
L 523.575822 230.997614 
L 524.531029 230.730067 
L 525.486237 230.237345 
L 526.501145 229.45846 
L 527.550262 228.354035 
L 528.56517 226.961347 
L 529.639778 225.088018 
L 530.714387 222.738624 
L 531.788996 219.834238 
L 532.863604 216.286762 
L 533.997913 211.742119 
L 535.132222 206.271908 
L 536.326232 199.415669 
L 537.639642 190.499238 
L 539.072454 179.141968 
L 540.744067 163.997013 
L 543.251487 138.921764 
L 546.236511 109.572184 
L 547.967825 94.776168 
L 549.400637 84.324215 
L 550.714047 76.253586 
L 551.967757 69.846709 
L 553.161767 64.820058 
L 554.355776 60.717548 
L 555.549786 57.408278 
L 556.684095 54.883788 
L 557.818404 52.86199 
L 559.012414 51.182041 
L 560.206423 49.878814 
L 561.460133 48.841523 
L 562.713843 48.084425 
L 564.027254 47.546417 
L 565.340664 47.243104 
L 566.654075 47.169939 
L 567.848085 47.32007 
L 568.982394 47.688225 
L 569.997302 48.247885 
L 570.952509 49.025112 
L 571.848017 50.032024 
L 572.743524 51.378014 
L 573.639031 53.149359 
L 574.534538 55.451993 
L 575.430045 58.412171 
L 576.325552 62.174641 
L 577.22106 66.896667 
L 578.176267 73.16858 
L 579.191175 81.409964 
L 580.265784 92.033555 
L 581.519494 106.831736 
L 583.131407 128.833234 
L 586.653735 177.810821 
L 587.967146 192.55036 
L 589.14026 203.265634 
L 590.214869 211.096453 
L 591.229777 216.931989 
L 592.244685 221.478783 
L 593.199893 224.788803 
L 594.1551 227.342837 
L 595.110308 229.297947 
L 596.125216 230.865462 
L 597.140124 232.031762 
L 598.214733 232.939248 
L 599.408743 233.65865 
L 600.781854 234.221546 
L 602.453467 234.654196 
L 604.602684 234.964617 
L 607.647409 235.158171 
L 612.423447 235.214634 
L 618.094992 235.071188 
L 621.975523 234.769821 
L 624.721745 234.345212 
L 626.870963 233.794547 
L 628.661977 233.106577 
L 630.214189 232.267588 
L 631.5873 231.269342 
L 632.84101 230.083115 
L 634.03502 228.643294 
L 635.169329 226.926897 
L 636.303638 224.794528 
L 637.437947 222.159574 
L 638.572256 218.925114 
L 639.706566 214.986933 
L 640.840875 210.239164 
L 642.034884 204.258759 
L 643.288594 196.797714 
L 644.661705 187.179995 
L 646.154217 175.070144 
L 648.004932 158.069273 
L 654.273482 98.635421 
L 655.799427 87.188375 
L 657.172538 78.477442 
L 658.485948 71.530838 
L 659.739658 66.067402 
L 660.933668 61.805514 
L 662.127677 58.337265 
L 663.321687 55.540697 
L 664.515696 53.302407 
L 665.709706 51.521577 
L 666.963416 50.049284 
L 668.276827 48.853954 
L 669.649938 47.900376 
L 671.20215 47.099556 
L 672.933464 46.461842 
L 674.96328 45.955294 
L 677.4707 45.56675 
L 680.694526 45.301479 
L 684.87356 45.189107 
L 688.813791 45.290374 
L 691.619714 45.571801 
L 693.64953 45.992201 
L 695.201742 46.527907 
L 696.515153 47.205614 
L 697.709162 48.078302 
L 698.783771 49.150433 
L 699.798679 50.494475 
L 700.753887 52.139745 
L 701.709094 54.252926 
L 702.664302 56.950464 
L 703.61951 60.367243 
L 704.574717 64.652745 
L 705.529925 69.962234 
L 706.544833 76.887884 
L 707.619442 85.806141 
L 708.813451 97.687919 
L 710.186562 113.701932 
L 712.216379 140.352043 
L 714.766365 173.284091 
L 716.199177 188.938427 
L 717.452887 200.249657 
L 718.587196 208.531512 
L 719.661804 214.804329 
L 720.676713 219.504281 
L 721.691621 223.203903 
L 722.706529 226.08336 
L 723.721437 228.30474 
L 724.736345 230.006687 
L 725.810954 231.36944 
L 726.945263 232.434874 
L 728.139272 233.248657 
L 729.512383 233.903424 
L 731.064596 234.393123 
L 732.975011 234.758977 
L 735.482431 235.003207 
L 738.945059 235.102864 
L 743.064392 235.001232 
L 746.52702 234.704968 
L 749.09414 234.271822 
L 751.123957 233.712369 
L 752.79557 233.032411 
L 754.288082 232.187912 
L 755.601493 231.195107 
L 756.855203 229.963068 
L 758.049212 228.461337 
L 759.183521 226.664439 
L 760.31783 224.424599 
L 761.392439 221.809775 
L 762.526748 218.430277 
L 763.661057 214.305832 
L 764.795366 209.325117 
L 765.989376 203.045784 
L 767.243086 195.213419 
L 768.616197 185.134688 
L 770.168409 171.955933 
L 772.138525 153.098681 
L 777.127694 104.274157 
L 778.739607 91.183545 
L 780.172419 81.319067 
L 781.485829 73.767591 
L 782.73942 67.811337 
L 783.933429 63.15903 
L 785.127439 59.373572 
L 786.321448 56.324775 
L 787.515458 53.889461 
L 788.709468 51.957006 
L 789.903477 50.431653 
L 791.157187 49.180083 
L 792.470598 48.171583 
L 793.903409 47.343448 
L 795.515322 46.665899 
L 797.425737 46.113076 
L 799.694356 45.696788 
L 802.500278 45.414768 
L 805.903205 45.301792 
L 809.127031 45.409189 
L 811.574751 45.702402 
L 813.425466 46.13832 
L 814.917978 46.710204 
L 816.171688 47.418564 
L 817.276147 48.284996 
L 818.291055 49.350203 
L 819.305963 50.752946 
L 820.26117 52.469174 
L 821.216378 54.671646 
L 822.171586 57.479881 
L 823.126793 61.031434 
L 824.082001 65.477334 
L 825.096909 71.353911 
L 826.111817 78.583096 
L 827.186426 87.842227 
L 828.380436 100.091961 
L 829.813247 117.204907 
L 832.320667 150.488433 
L 834.350483 176.016224 
L 835.723594 190.629542 
L 836.917604 201.140164 
L 838.051913 209.232113 
L 839.126522 215.343639 
L 840.14143 219.911162 
L 841.156338 223.497318 
L 842.171246 226.279906 
L 843.186154 228.41763 
L 844.201062 230.045342 
L 845.21597 231.273648 
L 846.290579 232.236718 
L 847.424888 232.964342 
L 848.678598 233.507096 
L 850.11141 233.87493 
L 851.663622 234.041781 
L 853.335236 234.002227 
L 855.066549 233.738734 
L 856.678462 233.272603 
L 858.170974 232.61076 
L 859.544085 231.753559 
L 860.797795 230.70531 
L 861.991805 229.408528 
L 863.126114 227.839979 
L 864.260423 225.86683 
L 865.335032 223.5439 
L 866.40964 220.691883 
L 867.484249 217.215996 
L 868.618558 212.760252 
L 869.752867 207.383966 
L 870.946877 200.621003 
L 872.200587 192.219246 
L 873.573698 181.477442 
L 875.185611 167.004229 
L 877.394528 144.914926 
L 880.976557 109.072027 
L 882.648171 94.648587 
L 884.080982 84.093948 
L 885.394393 75.965997 
L 886.648103 69.532152 
L 887.842112 64.4987 
L 889.036122 60.401421 
L 890.230131 57.103441 
L 891.36444 54.590344 
L 892.55845 52.482275 
L 893.75246 50.821949 
L 895.00617 49.463166 
L 896.31958 48.371444 
L 897.752392 47.477638 
L 899.304604 46.771005 
L 901.095618 46.199193 
L 903.304536 45.738476 
L 906.110459 45.395596 
L 909.99099 45.162289 
L 916.378941 45.02975 
L 932.49807 44.986946 
L 996.13878 44.985615 
L 996.13878 44.985615 
" style="fill:none;stroke:#008000;stroke-dasharray:5.55,2.4;stroke-dashoffset:0;stroke-width:1.5;"/>
   </g>
   <g id="line2d_19">
    <path clip-path="url(#p58406ae62f)" d="M 184.581818 235.319857 
L 273.617798 235.430174 
L 277.378929 235.651145 
L 279.826648 236.000558 
L 281.796764 236.493036 
L 283.468377 237.136734 
L 284.901189 237.922841 
L 286.393701 239.005606 
L 288.84142 240.827348 
L 289.677227 241.140781 
L 290.333932 241.168287 
L 290.990638 240.971999 
L 291.707043 240.499384 
L 292.54285 239.6466 
L 293.707845 238.087535 
L 295.916763 235.084466 
L 296.75257 234.328141 
L 297.468975 233.967308 
L 298.06598 233.893709 
L 298.662985 234.029031 
L 299.31969 234.401973 
L 300.155497 235.151149 
L 303.259922 238.236445 
L 303.916627 238.452562 
L 304.513632 238.432973 
L 305.170337 238.184394 
L 305.946443 237.639689 
L 307.259854 236.383229 
L 308.931467 234.856782 
L 310.006076 234.174001 
L 311.020984 233.782829 
L 312.095593 233.602705 
L 313.409003 233.620091 
L 315.319419 233.893681 
L 320.214858 234.662338 
L 322.96108 234.823069 
L 325.707302 234.760684 
L 328.155021 234.488572 
L 330.244538 234.038494 
L 332.095253 233.413098 
L 333.707166 232.633284 
L 335.139977 231.693913 
L 336.513088 230.521004 
L 338.125001 228.821324 
L 340.129684 226.725867 
L 340.96549 226.157556 
L 341.622196 225.95559 
L 342.2192 225.998629 
L 342.816205 226.276005 
L 343.47291 226.856869 
L 344.189316 227.80411 
L 345.084823 229.379163 
L 346.457934 232.32035 
L 348.42805 236.495237 
L 349.442958 238.128941 
L 350.278765 239.061211 
L 350.995171 239.533297 
L 351.651876 239.701785 
L 352.308581 239.634132 
L 353.024987 239.324683 
L 353.920494 238.666468 
L 355.233905 237.374782 
L 357.980127 234.623842 
L 359.293537 233.651947 
L 360.487547 233.029999 
L 361.741257 232.631768 
L 363.054667 232.450244 
L 364.60688 232.465856 
L 366.696397 232.735511 
L 369.800821 233.386555 
L 374.517159 234.595944 
L 377.024579 235.454675 
L 378.815594 236.304701 
L 380.546908 237.384787 
L 382.457323 238.544435 
L 383.29313 238.795965 
L 383.949835 238.786589 
L 384.60654 238.55363 
L 385.263245 238.080615 
L 386.039352 237.224999 
L 386.994559 235.813026 
L 390.546678 230.1775 
L 391.263084 229.613445 
L 391.860089 229.412001 
L 392.397393 229.453028 
L 392.994398 229.743837 
L 393.651103 230.338595 
L 394.48691 231.430784 
L 397.710736 236.060393 
L 398.427141 236.528367 
L 399.083847 236.684187 
L 399.740552 236.605681 
L 400.576358 236.251725 
L 402.128571 235.268844 
L 403.621083 234.440357 
L 404.815092 234.040383 
L 406.009102 233.876974 
L 407.441914 233.911844 
L 409.770232 234.227849 
L 413.949266 234.784853 
L 416.874589 234.931154 
L 419.859613 234.856972 
L 422.486434 234.573923 
L 424.695352 234.113728 
L 426.605767 233.488421 
L 428.21768 232.735286 
L 429.710192 231.789462 
L 431.143003 230.606406 
L 434.963834 227.219929 
L 435.620539 227.033625 
L 436.217544 227.088595 
L 436.814549 227.3832 
L 437.411554 227.929143 
L 438.127959 228.912651 
L 438.963766 230.47198 
L 440.098075 233.125831 
L 443.381602 241.169046 
L 444.336809 242.771126 
L 445.112915 243.661065 
L 445.769621 244.110464 
L 446.426326 244.287323 
L 447.083031 244.210964 
L 447.799437 243.874861 
L 448.635244 243.21545 
L 449.805194 241.969279 
L 454.28273 236.879012 
L 455.655841 235.795862 
L 456.969251 235.036049 
L 458.342362 234.49608 
L 459.834874 234.145942 
L 461.625889 233.965344 
L 463.894507 233.976692 
L 467.476536 234.245967 
L 477.625617 235.069032 
L 484.472008 235.561616 
L 487.098829 235.999545 
L 489.068945 236.54471 
L 490.800259 237.251791 
L 493.367379 238.348869 
L 494.143486 238.422542 
L 494.800191 238.277321 
L 495.456896 237.89286 
L 496.113601 237.242088 
L 496.889708 236.128344 
L 497.844915 234.311691 
L 499.277727 231.021308 
L 501.009041 227.157662 
L 501.904548 225.681857 
L 502.561253 224.976423 
L 503.098557 224.680392 
L 503.576161 224.645729 
L 504.053765 224.83039 
L 504.591069 225.29379 
L 505.247775 226.196486 
L 506.083581 227.775065 
L 507.874596 231.833284 
L 508.949204 233.947603 
L 509.785011 235.124327 
L 510.501417 235.753529 
L 511.158122 236.040594 
L 511.874528 236.093722 
L 512.710334 235.914944 
L 514.143146 235.329525 
L 516.292363 234.485539 
L 518.143078 234.024825 
L 521.963909 233.155922 
L 523.456421 232.539585 
L 524.829532 231.725302 
L 526.322044 230.559466 
L 528.803972 228.562729 
L 529.580078 228.22479 
L 530.236783 228.164881 
L 530.833788 228.329099 
L 531.430793 228.722741 
L 532.087498 229.430299 
L 532.863604 230.625727 
L 533.818812 232.557191 
L 535.251623 236.04598 
L 537.221739 240.766551 
L 538.236647 242.634966 
L 539.072454 243.722424 
L 539.78886 244.292832 
L 540.385864 244.509692 
L 540.982869 244.501177 
L 541.639574 244.253736 
L 542.35598 243.73927 
L 543.311188 242.749795 
L 544.8037 240.814865 
L 547.430521 237.410701 
L 548.803632 236.005714 
L 550.057342 235.02845 
L 551.311052 234.333851 
L 552.624463 233.867878 
L 554.057274 233.601021 
L 555.728887 233.521635 
L 557.878105 233.656077 
L 560.98253 234.091787 
L 564.385457 234.77656 
L 566.654075 235.444288 
L 568.803292 236.32454 
L 570.295804 236.853631 
L 571.131611 236.921151 
L 571.788316 236.76968 
L 572.445021 236.388236 
L 573.101727 235.749208 
L 573.877833 234.659579 
L 574.833041 232.886727 
L 576.385253 229.430429 
L 577.877765 226.309136 
L 578.713572 225.056654 
L 579.310576 224.506526 
L 579.847881 224.304369 
L 580.325485 224.378362 
L 580.803088 224.699353 
L 581.340393 225.352384 
L 581.997098 226.54041 
L 582.832905 228.559999 
L 584.504518 233.379091 
L 585.638827 236.299869 
L 586.474634 237.867007 
L 587.131339 238.667609 
L 587.728344 239.069187 
L 588.2952 239.194241 
L 588.901458 239.103134 
L 589.677565 238.746388 
L 590.990975 237.848569 
L 592.90139 236.587594 
L 594.214801 235.987336 
L 595.587912 235.602311 
L 597.259525 235.3768 
L 599.707245 235.300566 
L 616.303978 235.194446 
L 620.900915 234.901363 
L 623.766538 234.507327 
L 625.975455 233.987353 
L 627.82617 233.333948 
L 629.438083 232.535834 
L 630.870895 231.585755 
L 632.363407 230.317471 
L 635.348431 227.665676 
L 636.064836 227.354743 
L 636.661841 227.309287 
L 637.258846 227.494824 
L 637.855851 227.931814 
L 638.512556 228.711264 
L 639.288662 230.021339 
L 640.24387 232.13189 
L 641.616981 235.786571 
L 643.825899 241.657584 
L 644.840807 243.757362 
L 645.676613 245.032681 
L 646.393019 245.763885 
L 647.049724 246.137111 
L 647.646729 246.24 
L 648.303434 246.114889 
L 649.01984 245.731782 
L 649.915347 244.967658 
L 651.109357 243.624034 
L 655.799427 238.032956 
L 657.232238 236.821035 
L 658.605349 235.944846 
L 660.03816 235.293663 
L 661.590373 234.835889 
L 663.381387 234.549488 
L 665.590305 234.436315 
L 668.814131 234.522079 
L 690.485405 235.784369 
L 692.694322 236.241683 
L 694.485337 236.833368 
L 696.037549 237.576474 
L 699.500177 239.388555 
L 700.216583 239.429162 
L 700.873288 239.242611 
L 701.529993 238.812284 
L 702.246399 238.061116 
L 703.141906 236.757293 
L 704.395616 234.482693 
L 706.365732 230.928967 
L 707.201539 229.854966 
L 707.858244 229.325104 
L 708.455249 229.123975 
L 708.992553 229.185689 
L 709.529857 229.47674 
L 710.186562 230.122615 
L 710.962669 231.228023 
L 712.296676 233.609881 
L 713.632056 235.866372 
L 714.467863 236.865713 
L 715.124568 237.337909 
L 715.721573 237.520251 
L 716.378278 237.475952 
L 717.154384 237.1672 
L 718.348394 236.398097 
L 720.31851 235.14535 
L 721.512519 234.661863 
L 722.706529 234.413095 
L 724.13934 234.35192 
L 726.228857 234.515796 
L 732.676509 235.137335 
L 736.855542 235.24082 
L 741.691281 235.141009 
L 745.512112 234.857866 
L 748.198633 234.443544 
L 750.34785 233.888318 
L 752.138865 233.20046 
L 753.691077 232.370189 
L 755.123889 231.346854 
L 756.616401 229.991355 
L 759.302922 227.477534 
L 760.079028 227.081756 
L 760.735734 226.995649 
L 761.332739 227.153723 
L 761.929743 227.555168 
L 762.586449 228.282428 
L 763.362555 229.507378 
L 764.317762 231.46914 
L 765.869975 235.260394 
L 767.601289 239.329292 
L 768.616197 241.171199 
L 769.452004 242.240729 
L 770.168409 242.801002 
L 770.825115 243.023604 
L 771.422119 242.996645 
L 772.078825 242.739219 
L 772.854931 242.176651 
L 773.869839 241.134159 
L 775.754583 238.790648 
L 777.664998 236.546559 
L 779.038109 235.266635 
L 780.291819 234.39471 
L 781.54553 233.794825 
L 782.918521 233.403492 
L 784.411033 233.218404 
L 786.261748 233.227137 
L 788.888569 233.488817 
L 800.948066 234.933626 
L 809.724036 235.706175 
L 811.992654 236.185312 
L 813.783669 236.77922 
L 815.395581 237.551114 
L 818.708958 239.271528 
L 819.425364 239.324165 
L 820.082069 239.151442 
L 820.738774 238.734464 
L 821.45518 237.99289 
L 822.290987 236.785643 
L 823.484996 234.608133 
L 825.813315 230.280919 
L 826.649122 229.215841 
L 827.305827 228.705251 
L 827.843131 228.53311 
L 828.380436 228.593539 
L 828.91774 228.884677 
L 829.574445 229.531152 
L 830.350551 230.635836 
L 831.663962 232.970379 
L 833.037073 235.269753 
L 833.87288 236.250234 
L 834.529585 236.712714 
L 835.18629 236.900232 
L 835.842995 236.846036 
L 836.619102 236.549586 
L 837.992213 235.730818 
L 839.663826 234.800025 
L 840.917536 234.364887 
L 842.171246 234.165222 
L 843.723459 234.151039 
L 846.768183 234.407239 
L 849.753207 234.557228 
L 852.021825 234.448487 
L 854.051641 234.129356 
L 855.842656 233.630245 
L 857.454569 232.955447 
L 858.88738 232.119809 
L 860.260491 231.059904 
L 861.872404 229.510633 
L 863.84252 227.644039 
L 864.678326 227.148118 
L 865.335032 226.998607 
L 865.932037 227.086888 
L 866.529041 227.408072 
L 867.185747 228.036468 
L 867.961853 229.132929 
L 868.91706 230.923708 
L 870.469273 234.416468 
L 872.140886 238.016298 
L 873.096094 239.587703 
L 873.8722 240.48051 
L 874.528905 240.936977 
L 875.12591 241.110163 
L 875.722915 241.061856 
L 876.37962 240.775047 
L 877.155726 240.168841 
L 878.170635 239.058394 
L 880.558654 235.959619 
L 882.051166 234.26602 
L 883.245175 233.224337 
L 884.379484 232.519206 
L 885.513793 232.075263 
L 886.707803 231.848095 
L 888.080914 231.819617 
L 889.812228 232.020069 
L 892.498749 232.586906 
L 898.827 233.965823 
L 902.52843 234.52239 
L 906.468661 234.894249 
L 911.602903 235.142054 
L 919.304264 235.274398 
L 938.109915 235.318347 
L 996.13878 235.319857 
L 996.13878 235.319857 
" style="fill:none;stroke:#008000;stroke-dasharray:9.6,2.4,1.5,2.4;stroke-dashoffset:0;stroke-width:1.5;"/>
   </g>
   <g id="patch_3">
    <path d="M 144 256.32 
L 144 34.56 
" style="fill:none;stroke:#000000;stroke-linecap:square;stroke-linejoin:miter;stroke-width:0.8;"/>
   </g>
   <g id="patch_4">
    <path d="M 1036.8 256.32 
L 1036.8 34.56 
" style="fill:none;stroke:#000000;stroke-linecap:square;stroke-linejoin:miter;stroke-width:0.8;"/>
   </g>
   <g id="patch_5">
    <path d="M 144 256.32 
L 1036.8 256.32 
" style="fill:none;stroke:#000000;stroke-linecap:square;stroke-linejoin:miter;stroke-width:0.8;"/>
   </g>
   <g id="patch_6">
    <path d="M 144 34.56 
L 1036.8 34.56 
" style="fill:none;stroke:#000000;stroke-linecap:square;stroke-linejoin:miter;stroke-width:0.8;"/>
   </g>
   <g id="text_19">
    <!-- In  RMSE: 0.0 -->
    <g transform="translate(184.581818 200.266514)scale(0.1 -0.1)">
     <defs>
      <path d="M 9.8125 72.90625 
L 50.296875 72.90625 
L 50.296875 64.59375 
L 35.015625 64.59375 
L 35.015625 8.296875 
L 50.296875 8.296875 
L 50.296875 0 
L 9.8125 0 
L 9.8125 8.296875 
L 25.09375 8.296875 
L 25.09375 64.59375 
L 9.8125 64.59375 
z
" id="DejaVuSansMono-73"/>
      <path d="M 51.3125 33.890625 
L 51.3125 0 
L 42.28125 0 
L 42.28125 33.890625 
Q 42.28125 41.265625 39.6875 44.71875 
Q 37.109375 48.1875 31.59375 48.1875 
Q 25.296875 48.1875 21.890625 43.71875 
Q 18.5 39.265625 18.5 30.90625 
L 18.5 0 
L 9.515625 0 
L 9.515625 54.6875 
L 18.5 54.6875 
L 18.5 46.484375 
Q 20.90625 51.171875 25 53.578125 
Q 29.109375 56 34.71875 56 
Q 43.0625 56 47.1875 50.5 
Q 51.3125 45.015625 51.3125 33.890625 
z
" id="DejaVuSansMono-110"/>
      <path id="DejaVuSansMono-32"/>
      <path d="M 37.109375 34.421875 
Q 40.921875 33.453125 43.609375 30.734375 
Q 46.296875 28.03125 50.296875 19.921875 
L 60.203125 0 
L 49.609375 0 
L 40.921875 18.40625 
Q 37.15625 26.265625 34.15625 28.53125 
Q 31.15625 30.8125 26.3125 30.8125 
L 16.890625 30.8125 
L 16.890625 0 
L 6.984375 0 
L 6.984375 72.90625 
L 27.296875 72.90625 
Q 39.3125 72.90625 45.703125 67.484375 
Q 52.09375 62.0625 52.09375 51.8125 
Q 52.09375 44.578125 48.15625 40.015625 
Q 44.234375 35.453125 37.109375 34.421875 
z
M 16.890625 64.796875 
L 16.890625 38.921875 
L 27.6875 38.921875 
Q 34.765625 38.921875 38.234375 42.09375 
Q 41.703125 45.265625 41.703125 51.8125 
Q 41.703125 58.109375 38.015625 61.453125 
Q 34.328125 64.796875 27.296875 64.796875 
z
" id="DejaVuSansMono-82"/>
      <path d="M 4.203125 72.90625 
L 17.390625 72.90625 
L 29.984375 35.796875 
L 42.671875 72.90625 
L 55.90625 72.90625 
L 55.90625 0 
L 46.78125 0 
L 46.78125 64.40625 
L 33.796875 25.984375 
L 26.3125 25.984375 
L 13.28125 64.40625 
L 13.28125 0 
L 4.203125 0 
z
" id="DejaVuSansMono-77"/>
      <path d="M 49.421875 70.40625 
L 49.421875 60.40625 
Q 44.921875 63.28125 40.40625 64.75 
Q 35.890625 66.21875 31.296875 66.21875 
Q 24.3125 66.21875 20.265625 62.96875 
Q 16.21875 59.71875 16.21875 54.203125 
Q 16.21875 49.359375 18.875 46.8125 
Q 21.53125 44.28125 28.8125 42.578125 
L 33.984375 41.40625 
Q 44.234375 39.015625 48.921875 33.890625 
Q 53.609375 28.765625 53.609375 19.921875 
Q 53.609375 9.515625 47.15625 4.046875 
Q 40.71875 -1.421875 28.421875 -1.421875 
Q 23.296875 -1.421875 18.109375 -0.3125 
Q 12.9375 0.78125 7.71875 2.984375 
L 7.71875 13.484375 
Q 13.328125 9.90625 18.328125 8.25 
Q 23.34375 6.59375 28.421875 6.59375 
Q 35.890625 6.59375 40.03125 9.9375 
Q 44.1875 13.28125 44.1875 19.28125 
Q 44.1875 24.75 41.328125 27.625 
Q 38.484375 30.515625 31.390625 32.078125 
L 26.125 33.296875 
Q 15.96875 35.59375 11.375 40.234375 
Q 6.78125 44.875 6.78125 52.6875 
Q 6.78125 62.453125 13.34375 68.328125 
Q 19.921875 74.21875 30.8125 74.21875 
Q 35.015625 74.21875 39.640625 73.265625 
Q 44.28125 72.3125 49.421875 70.40625 
z
" id="DejaVuSansMono-83"/>
      <path d="M 9.625 72.90625 
L 52.875 72.90625 
L 52.875 64.59375 
L 19.484375 64.59375 
L 19.484375 43.015625 
L 51.421875 43.015625 
L 51.421875 34.71875 
L 19.484375 34.71875 
L 19.484375 8.296875 
L 53.8125 8.296875 
L 53.8125 0 
L 9.625 0 
z
" id="DejaVuSansMono-69"/>
      <path d="M 23.875 51.90625 
L 36.1875 51.90625 
L 36.1875 37.109375 
L 23.875 37.109375 
z
M 23.875 14.890625 
L 36.1875 14.890625 
L 36.1875 0 
L 23.875 0 
z
" id="DejaVuSansMono-58"/>
      <path d="M 23.578125 36.625 
Q 23.578125 39.3125 25.453125 41.265625 
Q 27.34375 43.21875 29.984375 43.21875 
Q 32.71875 43.21875 34.671875 41.265625 
Q 36.625 39.3125 36.625 36.625 
Q 36.625 33.890625 34.6875 31.984375 
Q 32.765625 30.078125 29.984375 30.078125 
Q 27.25 30.078125 25.40625 31.9375 
Q 23.578125 33.796875 23.578125 36.625 
z
M 30.078125 66.40625 
Q 23.1875 66.40625 19.796875 58.984375 
Q 16.40625 51.5625 16.40625 36.375 
Q 16.40625 21.234375 19.796875 13.8125 
Q 23.1875 6.390625 30.078125 6.390625 
Q 37.015625 6.390625 40.40625 13.8125 
Q 43.796875 21.234375 43.796875 36.375 
Q 43.796875 51.5625 40.40625 58.984375 
Q 37.015625 66.40625 30.078125 66.40625 
z
M 30.078125 74.21875 
Q 41.75 74.21875 47.734375 64.640625 
Q 53.71875 55.078125 53.71875 36.375 
Q 53.71875 17.71875 47.734375 8.140625 
Q 41.75 -1.421875 30.078125 -1.421875 
Q 18.40625 -1.421875 12.453125 8.140625 
Q 6.5 17.71875 6.5 36.375 
Q 6.5 55.078125 12.453125 64.640625 
Q 18.40625 74.21875 30.078125 74.21875 
z
" id="DejaVuSansMono-48"/>
      <path d="M 23.875 14.890625 
L 36.1875 14.890625 
L 36.1875 0 
L 23.875 0 
z
" id="DejaVuSansMono-46"/>
     </defs>
     <use xlink:href="#DejaVuSansMono-73"/>
     <use x="60.205078" xlink:href="#DejaVuSansMono-110"/>
     <use x="120.410156" xlink:href="#DejaVuSansMono-32"/>
     <use x="180.615234" xlink:href="#DejaVuSansMono-32"/>
     <use x="240.820312" xlink:href="#DejaVuSansMono-82"/>
     <use x="301.025391" xlink:href="#DejaVuSansMono-77"/>
     <use x="361.230469" xlink:href="#DejaVuSansMono-83"/>
     <use x="421.435547" xlink:href="#DejaVuSansMono-69"/>
     <use x="481.640625" xlink:href="#DejaVuSansMono-58"/>
     <use x="541.845703" xlink:href="#DejaVuSansMono-32"/>
     <use x="602.050781" xlink:href="#DejaVuSansMono-48"/>
     <use x="662.255859" xlink:href="#DejaVuSansMono-46"/>
     <use x="722.460938" xlink:href="#DejaVuSansMono-48"/>
    </g>
    <!-- Out RMSE: 0.01666 -->
    <g transform="translate(184.581818 211.528077)scale(0.1 -0.1)">
     <defs>
      <path d="M 44.1875 36.375 
Q 44.1875 52.4375 40.890625 59.328125 
Q 37.59375 66.21875 30.078125 66.21875 
Q 22.609375 66.21875 19.3125 59.328125 
Q 16.015625 52.4375 16.015625 36.375 
Q 16.015625 20.359375 19.3125 13.46875 
Q 22.609375 6.59375 30.078125 6.59375 
Q 37.59375 6.59375 40.890625 13.453125 
Q 44.1875 20.3125 44.1875 36.375 
z
M 54.5 36.375 
Q 54.5 17.328125 48.46875 7.953125 
Q 42.4375 -1.421875 30.078125 -1.421875 
Q 17.71875 -1.421875 11.71875 7.90625 
Q 5.71875 17.234375 5.71875 36.375 
Q 5.71875 55.46875 11.75 64.84375 
Q 17.78125 74.21875 30.078125 74.21875 
Q 42.4375 74.21875 48.46875 64.84375 
Q 54.5 55.46875 54.5 36.375 
z
" id="DejaVuSansMono-79"/>
      <path d="M 9.515625 20.703125 
L 9.515625 54.59375 
L 18.5 54.59375 
L 18.5 20.703125 
Q 18.5 13.328125 21.109375 9.859375 
Q 23.734375 6.390625 29.203125 6.390625 
Q 35.546875 6.390625 38.90625 10.859375 
Q 42.28125 15.328125 42.28125 23.6875 
L 42.28125 54.59375 
L 51.3125 54.59375 
L 51.3125 0 
L 42.28125 0 
L 42.28125 8.203125 
Q 39.890625 3.46875 35.765625 1.015625 
Q 31.640625 -1.421875 26.125 -1.421875 
Q 17.71875 -1.421875 13.609375 4.078125 
Q 9.515625 9.578125 9.515625 20.703125 
z
" id="DejaVuSansMono-117"/>
      <path d="M 29.984375 70.21875 
L 29.984375 54.6875 
L 50.390625 54.6875 
L 50.390625 47.703125 
L 29.984375 47.703125 
L 29.984375 18.015625 
Q 29.984375 11.96875 32.28125 9.5625 
Q 34.578125 7.171875 40.28125 7.171875 
L 50.390625 7.171875 
L 50.390625 0 
L 39.40625 0 
Q 29.296875 0 25.140625 4.046875 
Q 21 8.109375 21 18.015625 
L 21 47.703125 
L 6.390625 47.703125 
L 6.390625 54.6875 
L 21 54.6875 
L 21 70.21875 
z
" id="DejaVuSansMono-116"/>
      <path d="M 13.1875 8.296875 
L 28.515625 8.296875 
L 28.515625 64.015625 
L 12.015625 60.296875 
L 12.015625 69.28125 
L 28.421875 72.90625 
L 38.28125 72.90625 
L 38.28125 8.296875 
L 53.421875 8.296875 
L 53.421875 0 
L 13.1875 0 
z
" id="DejaVuSansMono-49"/>
      <path d="M 48.390625 71.296875 
L 48.390625 62.203125 
Q 45.3125 64.015625 41.84375 64.96875 
Q 38.375 65.921875 34.625 65.921875 
Q 25.25 65.921875 20.40625 58.859375 
Q 15.578125 51.8125 15.578125 38.09375 
Q 17.921875 42.96875 22.0625 45.578125 
Q 26.21875 48.1875 31.59375 48.1875 
Q 42.140625 48.1875 47.921875 41.71875 
Q 53.71875 35.25 53.71875 23.390625 
Q 53.71875 11.578125 47.75 5.078125 
Q 41.796875 -1.421875 31 -1.421875 
Q 18.3125 -1.421875 12.40625 7.6875 
Q 6.5 16.796875 6.5 36.375 
Q 6.5 54.828125 13.59375 64.515625 
Q 20.703125 74.21875 34.1875 74.21875 
Q 37.796875 74.21875 41.40625 73.453125 
Q 45.015625 72.703125 48.390625 71.296875 
z
M 30.8125 40.484375 
Q 24.515625 40.484375 20.890625 35.9375 
Q 17.28125 31.390625 17.28125 23.390625 
Q 17.28125 15.375 20.890625 10.828125 
Q 24.515625 6.296875 30.8125 6.296875 
Q 37.359375 6.296875 40.671875 10.609375 
Q 44 14.9375 44 23.390625 
Q 44 31.890625 40.671875 36.1875 
Q 37.359375 40.484375 30.8125 40.484375 
z
" id="DejaVuSansMono-54"/>
     </defs>
     <use xlink:href="#DejaVuSansMono-79"/>
     <use x="60.205078" xlink:href="#DejaVuSansMono-117"/>
     <use x="120.410156" xlink:href="#DejaVuSansMono-116"/>
     <use x="180.615234" xlink:href="#DejaVuSansMono-32"/>
     <use x="240.820312" xlink:href="#DejaVuSansMono-82"/>
     <use x="301.025391" xlink:href="#DejaVuSansMono-77"/>
     <use x="361.230469" xlink:href="#DejaVuSansMono-83"/>
     <use x="421.435547" xlink:href="#DejaVuSansMono-69"/>
     <use x="481.640625" xlink:href="#DejaVuSansMono-58"/>
     <use x="541.845703" xlink:href="#DejaVuSansMono-32"/>
     <use x="602.050781" xlink:href="#DejaVuSansMono-48"/>
     <use x="662.255859" xlink:href="#DejaVuSansMono-46"/>
     <use x="722.460938" xlink:href="#DejaVuSansMono-48"/>
     <use x="782.666016" xlink:href="#DejaVuSansMono-49"/>
     <use x="842.871094" xlink:href="#DejaVuSansMono-54"/>
     <use x="903.076172" xlink:href="#DejaVuSansMono-54"/>
     <use x="963.28125" xlink:href="#DejaVuSansMono-54"/>
    </g>
   </g>
   <g id="text_20">
    <!-- ..\WaveformData\t4_traces\inv_t4_invSim_820_200Traces fitting using transfer functions -->
    <g transform="translate(325.554375 28.56)scale(0.12 -0.12)">
     <defs>
      <path d="M 8.296875 72.90625 
L 33.6875 -9.28125 
L 25.390625 -9.28125 
L 0 72.90625 
z
" id="DejaVuSans-92"/>
      <path d="M 3.328125 72.90625 
L 13.28125 72.90625 
L 28.609375 11.28125 
L 43.890625 72.90625 
L 54.984375 72.90625 
L 70.3125 11.28125 
L 85.59375 72.90625 
L 95.609375 72.90625 
L 77.296875 0 
L 64.890625 0 
L 49.515625 63.28125 
L 33.984375 0 
L 21.578125 0 
z
" id="DejaVuSans-87"/>
      <path d="M 2.984375 54.6875 
L 12.5 54.6875 
L 29.59375 8.796875 
L 46.6875 54.6875 
L 56.203125 54.6875 
L 35.6875 0 
L 23.484375 0 
z
" id="DejaVuSans-118"/>
      <path d="M 37.109375 75.984375 
L 37.109375 68.5 
L 28.515625 68.5 
Q 23.6875 68.5 21.796875 66.546875 
Q 19.921875 64.59375 19.921875 59.515625 
L 19.921875 54.6875 
L 34.71875 54.6875 
L 34.71875 47.703125 
L 19.921875 47.703125 
L 19.921875 0 
L 10.890625 0 
L 10.890625 47.703125 
L 2.296875 47.703125 
L 2.296875 54.6875 
L 10.890625 54.6875 
L 10.890625 58.5 
Q 10.890625 67.625 15.140625 71.796875 
Q 19.390625 75.984375 28.609375 75.984375 
z
" id="DejaVuSans-102"/>
      <path d="M 41.109375 46.296875 
Q 39.59375 47.171875 37.8125 47.578125 
Q 36.03125 48 33.890625 48 
Q 26.265625 48 22.1875 43.046875 
Q 18.109375 38.09375 18.109375 28.8125 
L 18.109375 0 
L 9.078125 0 
L 9.078125 54.6875 
L 18.109375 54.6875 
L 18.109375 46.1875 
Q 20.953125 51.171875 25.484375 53.578125 
Q 30.03125 56 36.53125 56 
Q 37.453125 56 38.578125 55.875 
Q 39.703125 55.765625 41.0625 55.515625 
z
" id="DejaVuSans-114"/>
      <path d="M 19.671875 64.796875 
L 19.671875 8.109375 
L 31.59375 8.109375 
Q 46.6875 8.109375 53.6875 14.9375 
Q 60.6875 21.78125 60.6875 36.53125 
Q 60.6875 51.171875 53.6875 57.984375 
Q 46.6875 64.796875 31.59375 64.796875 
z
M 9.8125 72.90625 
L 30.078125 72.90625 
Q 51.265625 72.90625 61.171875 64.09375 
Q 71.09375 55.28125 71.09375 36.53125 
Q 71.09375 17.671875 61.125 8.828125 
Q 51.171875 0 30.078125 0 
L 9.8125 0 
z
" id="DejaVuSans-68"/>
      <path d="M 50.984375 -16.609375 
L 50.984375 -23.578125 
L -0.984375 -23.578125 
L -0.984375 -16.609375 
z
" id="DejaVuSans-95"/>
      <path d="M 48.78125 52.59375 
L 48.78125 44.1875 
Q 44.96875 46.296875 41.140625 47.34375 
Q 37.3125 48.390625 33.40625 48.390625 
Q 24.65625 48.390625 19.8125 42.84375 
Q 14.984375 37.3125 14.984375 27.296875 
Q 14.984375 17.28125 19.8125 11.734375 
Q 24.65625 6.203125 33.40625 6.203125 
Q 37.3125 6.203125 41.140625 7.25 
Q 44.96875 8.296875 48.78125 10.40625 
L 48.78125 2.09375 
Q 45.015625 0.34375 40.984375 -0.53125 
Q 36.96875 -1.421875 32.421875 -1.421875 
Q 20.0625 -1.421875 12.78125 6.34375 
Q 5.515625 14.109375 5.515625 27.296875 
Q 5.515625 40.671875 12.859375 48.328125 
Q 20.21875 56 33.015625 56 
Q 37.15625 56 41.109375 55.140625 
Q 45.0625 54.296875 48.78125 52.59375 
z
" id="DejaVuSans-99"/>
      <path d="M 54.890625 33.015625 
L 54.890625 0 
L 45.90625 0 
L 45.90625 32.71875 
Q 45.90625 40.484375 42.875 44.328125 
Q 39.84375 48.1875 33.796875 48.1875 
Q 26.515625 48.1875 22.3125 43.546875 
Q 18.109375 38.921875 18.109375 30.90625 
L 18.109375 0 
L 9.078125 0 
L 9.078125 54.6875 
L 18.109375 54.6875 
L 18.109375 46.1875 
Q 21.34375 51.125 25.703125 53.5625 
Q 30.078125 56 35.796875 56 
Q 45.21875 56 50.046875 50.171875 
Q 54.890625 44.34375 54.890625 33.015625 
z
" id="DejaVuSans-110"/>
      <path d="M 53.515625 70.515625 
L 53.515625 60.890625 
Q 47.90625 63.578125 42.921875 64.890625 
Q 37.9375 66.21875 33.296875 66.21875 
Q 25.25 66.21875 20.875 63.09375 
Q 16.5 59.96875 16.5 54.203125 
Q 16.5 49.359375 19.40625 46.890625 
Q 22.3125 44.4375 30.421875 42.921875 
L 36.375 41.703125 
Q 47.40625 39.59375 52.65625 34.296875 
Q 57.90625 29 57.90625 20.125 
Q 57.90625 9.515625 50.796875 4.046875 
Q 43.703125 -1.421875 29.984375 -1.421875 
Q 24.8125 -1.421875 18.96875 -0.25 
Q 13.140625 0.921875 6.890625 3.21875 
L 6.890625 13.375 
Q 12.890625 10.015625 18.65625 8.296875 
Q 24.421875 6.59375 29.984375 6.59375 
Q 38.421875 6.59375 43.015625 9.90625 
Q 47.609375 13.234375 47.609375 19.390625 
Q 47.609375 24.75 44.3125 27.78125 
Q 41.015625 30.8125 33.5 32.328125 
L 27.484375 33.5 
Q 16.453125 35.6875 11.515625 40.375 
Q 6.59375 45.0625 6.59375 53.421875 
Q 6.59375 63.09375 13.40625 68.65625 
Q 20.21875 74.21875 32.171875 74.21875 
Q 37.3125 74.21875 42.625 73.28125 
Q 47.953125 72.359375 53.515625 70.515625 
z
" id="DejaVuSans-83"/>
      <path d="M 8.5 21.578125 
L 8.5 54.6875 
L 17.484375 54.6875 
L 17.484375 21.921875 
Q 17.484375 14.15625 20.5 10.265625 
Q 23.53125 6.390625 29.59375 6.390625 
Q 36.859375 6.390625 41.078125 11.03125 
Q 45.3125 15.671875 45.3125 23.6875 
L 45.3125 54.6875 
L 54.296875 54.6875 
L 54.296875 0 
L 45.3125 0 
L 45.3125 8.40625 
Q 42.046875 3.421875 37.71875 1 
Q 33.40625 -1.421875 27.6875 -1.421875 
Q 18.265625 -1.421875 13.375 4.4375 
Q 8.5 10.296875 8.5 21.578125 
z
M 31.109375 56 
z
" id="DejaVuSans-117"/>
     </defs>
     <use xlink:href="#DejaVuSans-46"/>
     <use x="31.787109" xlink:href="#DejaVuSans-46"/>
     <use x="63.574219" xlink:href="#DejaVuSans-92"/>
     <use x="97.265625" xlink:href="#DejaVuSans-87"/>
     <use x="189.767578" xlink:href="#DejaVuSans-97"/>
     <use x="251.046875" xlink:href="#DejaVuSans-118"/>
     <use x="310.226562" xlink:href="#DejaVuSans-101"/>
     <use x="371.75" xlink:href="#DejaVuSans-102"/>
     <use x="406.955078" xlink:href="#DejaVuSans-111"/>
     <use x="468.136719" xlink:href="#DejaVuSans-114"/>
     <use x="507.5" xlink:href="#DejaVuSans-109"/>
     <use x="604.912109" xlink:href="#DejaVuSans-68"/>
     <use x="681.914062" xlink:href="#DejaVuSans-97"/>
     <use x="743.193359" xlink:href="#DejaVuSans-116"/>
     <use x="782.402344" xlink:href="#DejaVuSans-97"/>
     <use x="843.681641" xlink:href="#DejaVuSans-92"/>
     <use x="877.373047" xlink:href="#DejaVuSans-116"/>
     <use x="916.582031" xlink:href="#DejaVuSans-52"/>
     <use x="980.205078" xlink:href="#DejaVuSans-95"/>
     <use x="1030.205078" xlink:href="#DejaVuSans-116"/>
     <use x="1069.414062" xlink:href="#DejaVuSans-114"/>
     <use x="1110.527344" xlink:href="#DejaVuSans-97"/>
     <use x="1171.806641" xlink:href="#DejaVuSans-99"/>
     <use x="1226.787109" xlink:href="#DejaVuSans-101"/>
     <use x="1288.310547" xlink:href="#DejaVuSans-115"/>
     <use x="1340.410156" xlink:href="#DejaVuSans-92"/>
     <use x="1374.101562" xlink:href="#DejaVuSans-105"/>
     <use x="1401.884766" xlink:href="#DejaVuSans-110"/>
     <use x="1465.263672" xlink:href="#DejaVuSans-118"/>
     <use x="1524.443359" xlink:href="#DejaVuSans-95"/>
     <use x="1574.443359" xlink:href="#DejaVuSans-116"/>
     <use x="1613.652344" xlink:href="#DejaVuSans-52"/>
     <use x="1677.275391" xlink:href="#DejaVuSans-95"/>
     <use x="1727.275391" xlink:href="#DejaVuSans-105"/>
     <use x="1755.058594" xlink:href="#DejaVuSans-110"/>
     <use x="1818.4375" xlink:href="#DejaVuSans-118"/>
     <use x="1877.617188" xlink:href="#DejaVuSans-83"/>
     <use x="1941.09375" xlink:href="#DejaVuSans-105"/>
     <use x="1968.876953" xlink:href="#DejaVuSans-109"/>
     <use x="2066.289062" xlink:href="#DejaVuSans-95"/>
     <use x="2116.289062" xlink:href="#DejaVuSans-56"/>
     <use x="2179.912109" xlink:href="#DejaVuSans-50"/>
     <use x="2243.535156" xlink:href="#DejaVuSans-48"/>
     <use x="2307.158203" xlink:href="#DejaVuSans-95"/>
     <use x="2357.158203" xlink:href="#DejaVuSans-50"/>
     <use x="2420.78125" xlink:href="#DejaVuSans-48"/>
     <use x="2484.404297" xlink:href="#DejaVuSans-48"/>
     <use x="2548.027344" xlink:href="#DejaVuSans-84"/>
     <use x="2594.361328" xlink:href="#DejaVuSans-114"/>
     <use x="2635.474609" xlink:href="#DejaVuSans-97"/>
     <use x="2696.753906" xlink:href="#DejaVuSans-99"/>
     <use x="2751.734375" xlink:href="#DejaVuSans-101"/>
     <use x="2813.257812" xlink:href="#DejaVuSans-115"/>
     <use x="2865.357422" xlink:href="#DejaVuSans-32"/>
     <use x="2897.144531" xlink:href="#DejaVuSans-102"/>
     <use x="2932.349609" xlink:href="#DejaVuSans-105"/>
     <use x="2960.132812" xlink:href="#DejaVuSans-116"/>
     <use x="2999.341797" xlink:href="#DejaVuSans-116"/>
     <use x="3038.550781" xlink:href="#DejaVuSans-105"/>
     <use x="3066.333984" xlink:href="#DejaVuSans-110"/>
     <use x="3129.712891" xlink:href="#DejaVuSans-103"/>
     <use x="3193.189453" xlink:href="#DejaVuSans-32"/>
     <use x="3224.976562" xlink:href="#DejaVuSans-117"/>
     <use x="3288.355469" xlink:href="#DejaVuSans-115"/>
     <use x="3340.455078" xlink:href="#DejaVuSans-105"/>
     <use x="3368.238281" xlink:href="#DejaVuSans-110"/>
     <use x="3431.617188" xlink:href="#DejaVuSans-103"/>
     <use x="3495.09375" xlink:href="#DejaVuSans-32"/>
     <use x="3526.880859" xlink:href="#DejaVuSans-116"/>
     <use x="3566.089844" xlink:href="#DejaVuSans-114"/>
     <use x="3607.203125" xlink:href="#DejaVuSans-97"/>
     <use x="3668.482422" xlink:href="#DejaVuSans-110"/>
     <use x="3731.861328" xlink:href="#DejaVuSans-115"/>
     <use x="3783.960938" xlink:href="#DejaVuSans-102"/>
     <use x="3819.166016" xlink:href="#DejaVuSans-101"/>
     <use x="3880.689453" xlink:href="#DejaVuSans-114"/>
     <use x="3921.802734" xlink:href="#DejaVuSans-32"/>
     <use x="3953.589844" xlink:href="#DejaVuSans-102"/>
     <use x="3988.794922" xlink:href="#DejaVuSans-117"/>
     <use x="4052.173828" xlink:href="#DejaVuSans-110"/>
     <use x="4115.552734" xlink:href="#DejaVuSans-99"/>
     <use x="4170.533203" xlink:href="#DejaVuSans-116"/>
     <use x="4209.742188" xlink:href="#DejaVuSans-105"/>
     <use x="4237.525391" xlink:href="#DejaVuSans-111"/>
     <use x="4298.707031" xlink:href="#DejaVuSans-110"/>
     <use x="4362.085938" xlink:href="#DejaVuSans-115"/>
    </g>
   </g>
   <g id="legend_1">
    <g id="patch_7">
     <path d="M 151 176.29625 
L 368.865625 176.29625 
Q 370.865625 176.29625 370.865625 174.29625 
L 370.865625 116.58375 
Q 370.865625 114.58375 368.865625 114.58375 
L 151 114.58375 
Q 149 114.58375 149 116.58375 
L 149 174.29625 
Q 149 176.29625 151 176.29625 
z
" style="fill:#ffffff;opacity:0.8;stroke:#cccccc;stroke-linejoin:miter;"/>
    </g>
    <g id="line2d_20">
     <path d="M 153 122.682187 
L 173 122.682187 
" style="fill:none;stroke:#ff0000;stroke-linecap:square;stroke-width:1.5;"/>
    </g>
    <g id="line2d_21"/>
    <g id="text_21">
     <!-- Input -->
     <g transform="translate(181 126.182187)scale(0.1 -0.1)">
      <defs>
       <path d="M 9.8125 72.90625 
L 19.671875 72.90625 
L 19.671875 0 
L 9.8125 0 
z
" id="DejaVuSans-73"/>
       <path d="M 18.109375 8.203125 
L 18.109375 -20.796875 
L 9.078125 -20.796875 
L 9.078125 54.6875 
L 18.109375 54.6875 
L 18.109375 46.390625 
Q 20.953125 51.265625 25.265625 53.625 
Q 29.59375 56 35.59375 56 
Q 45.5625 56 51.78125 48.09375 
Q 58.015625 40.1875 58.015625 27.296875 
Q 58.015625 14.40625 51.78125 6.484375 
Q 45.5625 -1.421875 35.59375 -1.421875 
Q 29.59375 -1.421875 25.265625 0.953125 
Q 20.953125 3.328125 18.109375 8.203125 
z
M 48.6875 27.296875 
Q 48.6875 37.203125 44.609375 42.84375 
Q 40.53125 48.484375 33.40625 48.484375 
Q 26.265625 48.484375 22.1875 42.84375 
Q 18.109375 37.203125 18.109375 27.296875 
Q 18.109375 17.390625 22.1875 11.75 
Q 26.265625 6.109375 33.40625 6.109375 
Q 40.53125 6.109375 44.609375 11.75 
Q 48.6875 17.390625 48.6875 27.296875 
z
" id="DejaVuSans-112"/>
      </defs>
      <use xlink:href="#DejaVuSans-73"/>
      <use x="29.492188" xlink:href="#DejaVuSans-110"/>
      <use x="92.871094" xlink:href="#DejaVuSans-112"/>
      <use x="156.347656" xlink:href="#DejaVuSans-117"/>
      <use x="219.726562" xlink:href="#DejaVuSans-116"/>
     </g>
    </g>
    <g id="line2d_22">
     <path d="M 153 137.360312 
L 173 137.360312 
" style="fill:none;stroke:#008000;stroke-linecap:square;stroke-width:1.5;"/>
    </g>
    <g id="line2d_23"/>
    <g id="text_22">
     <!-- Output -->
     <g transform="translate(181 140.860312)scale(0.1 -0.1)">
      <defs>
       <path d="M 39.40625 66.21875 
Q 28.65625 66.21875 22.328125 58.203125 
Q 16.015625 50.203125 16.015625 36.375 
Q 16.015625 22.609375 22.328125 14.59375 
Q 28.65625 6.59375 39.40625 6.59375 
Q 50.140625 6.59375 56.421875 14.59375 
Q 62.703125 22.609375 62.703125 36.375 
Q 62.703125 50.203125 56.421875 58.203125 
Q 50.140625 66.21875 39.40625 66.21875 
z
M 39.40625 74.21875 
Q 54.734375 74.21875 63.90625 63.9375 
Q 73.09375 53.65625 73.09375 36.375 
Q 73.09375 19.140625 63.90625 8.859375 
Q 54.734375 -1.421875 39.40625 -1.421875 
Q 24.03125 -1.421875 14.8125 8.828125 
Q 5.609375 19.09375 5.609375 36.375 
Q 5.609375 53.65625 14.8125 63.9375 
Q 24.03125 74.21875 39.40625 74.21875 
z
" id="DejaVuSans-79"/>
      </defs>
      <use xlink:href="#DejaVuSans-79"/>
      <use x="78.710938" xlink:href="#DejaVuSans-117"/>
      <use x="142.089844" xlink:href="#DejaVuSans-116"/>
      <use x="181.298828" xlink:href="#DejaVuSans-112"/>
      <use x="244.775391" xlink:href="#DejaVuSans-117"/>
      <use x="308.154297" xlink:href="#DejaVuSans-116"/>
     </g>
    </g>
    <g id="line2d_24">
     <path d="M 153 152.038437 
L 173 152.038437 
" style="fill:none;stroke:#008000;stroke-dasharray:5.55,2.4;stroke-dashoffset:0;stroke-width:1.5;"/>
    </g>
    <g id="line2d_25"/>
    <g id="text_23">
     <!-- Output fitting from transfer functions -->
     <g transform="translate(181 155.538437)scale(0.1 -0.1)">
      <use xlink:href="#DejaVuSans-79"/>
      <use x="78.710938" xlink:href="#DejaVuSans-117"/>
      <use x="142.089844" xlink:href="#DejaVuSans-116"/>
      <use x="181.298828" xlink:href="#DejaVuSans-112"/>
      <use x="244.775391" xlink:href="#DejaVuSans-117"/>
      <use x="308.154297" xlink:href="#DejaVuSans-116"/>
      <use x="347.363281" xlink:href="#DejaVuSans-32"/>
      <use x="379.150391" xlink:href="#DejaVuSans-102"/>
      <use x="414.355469" xlink:href="#DejaVuSans-105"/>
      <use x="442.138672" xlink:href="#DejaVuSans-116"/>
      <use x="481.347656" xlink:href="#DejaVuSans-116"/>
      <use x="520.556641" xlink:href="#DejaVuSans-105"/>
      <use x="548.339844" xlink:href="#DejaVuSans-110"/>
      <use x="611.71875" xlink:href="#DejaVuSans-103"/>
      <use x="675.195312" xlink:href="#DejaVuSans-32"/>
      <use x="706.982422" xlink:href="#DejaVuSans-102"/>
      <use x="742.1875" xlink:href="#DejaVuSans-114"/>
      <use x="781.050781" xlink:href="#DejaVuSans-111"/>
      <use x="842.232422" xlink:href="#DejaVuSans-109"/>
      <use x="939.644531" xlink:href="#DejaVuSans-32"/>
      <use x="971.431641" xlink:href="#DejaVuSans-116"/>
      <use x="1010.640625" xlink:href="#DejaVuSans-114"/>
      <use x="1051.753906" xlink:href="#DejaVuSans-97"/>
      <use x="1113.033203" xlink:href="#DejaVuSans-110"/>
      <use x="1176.412109" xlink:href="#DejaVuSans-115"/>
      <use x="1228.511719" xlink:href="#DejaVuSans-102"/>
      <use x="1263.716797" xlink:href="#DejaVuSans-101"/>
      <use x="1325.240234" xlink:href="#DejaVuSans-114"/>
      <use x="1366.353516" xlink:href="#DejaVuSans-32"/>
      <use x="1398.140625" xlink:href="#DejaVuSans-102"/>
      <use x="1433.345703" xlink:href="#DejaVuSans-117"/>
      <use x="1496.724609" xlink:href="#DejaVuSans-110"/>
      <use x="1560.103516" xlink:href="#DejaVuSans-99"/>
      <use x="1615.083984" xlink:href="#DejaVuSans-116"/>
      <use x="1654.292969" xlink:href="#DejaVuSans-105"/>
      <use x="1682.076172" xlink:href="#DejaVuSans-111"/>
      <use x="1743.257812" xlink:href="#DejaVuSans-110"/>
      <use x="1806.636719" xlink:href="#DejaVuSans-115"/>
     </g>
    </g>
    <g id="line2d_26">
     <path d="M 153 166.716563 
L 173 166.716563 
" style="fill:none;stroke:#008000;stroke-dasharray:9.6,2.4,1.5,2.4;stroke-dashoffset:0;stroke-width:1.5;"/>
    </g>
    <g id="line2d_27"/>
    <g id="text_24">
     <!-- fitting error -->
     <g transform="translate(181 170.216563)scale(0.1 -0.1)">
      <use xlink:href="#DejaVuSans-102"/>
      <use x="35.205078" xlink:href="#DejaVuSans-105"/>
      <use x="62.988281" xlink:href="#DejaVuSans-116"/>
      <use x="102.197266" xlink:href="#DejaVuSans-116"/>
      <use x="141.40625" xlink:href="#DejaVuSans-105"/>
      <use x="169.189453" xlink:href="#DejaVuSans-110"/>
      <use x="232.568359" xlink:href="#DejaVuSans-103"/>
      <use x="296.044922" xlink:href="#DejaVuSans-32"/>
      <use x="327.832031" xlink:href="#DejaVuSans-101"/>
      <use x="389.355469" xlink:href="#DejaVuSans-114"/>
      <use x="428.71875" xlink:href="#DejaVuSans-114"/>
      <use x="467.582031" xlink:href="#DejaVuSans-111"/>
      <use x="528.763672" xlink:href="#DejaVuSans-114"/>
     </g>
    </g>
   </g>
  </g>
 </g>
 <defs>
  <clipPath id="p58406ae62f">
   <rect height="221.76" width="892.8" x="144" y="34.56"/>
  </clipPath>
 </defs>
</svg>
