<?xml version="1.0" encoding="utf-8" standalone="no"?>
<!DOCTYPE svg PUBLIC "-//W3C//DTD SVG 1.1//EN"
  "http://www.w3.org/Graphics/SVG/1.1/DTD/svg11.dtd">
<!-- Created with matplotlib (https://matplotlib.org/) -->
<svg height="288pt" version="1.1" viewBox="0 0 1152 288" width="1152pt" xmlns="http://www.w3.org/2000/svg" xmlns:xlink="http://www.w3.org/1999/xlink">
 <metadata>
  <rdf:RDF xmlns:cc="http://creativecommons.org/ns#" xmlns:dc="http://purl.org/dc/elements/1.1/" xmlns:rdf="http://www.w3.org/1999/02/22-rdf-syntax-ns#">
   <cc:Work>
    <dc:type rdf:resource="http://purl.org/dc/dcmitype/StillImage"/>
    <dc:date>2020-10-12T20:05:49.547112</dc:date>
    <dc:format>image/svg+xml</dc:format>
    <dc:creator>
     <cc:Agent>
      <dc:title>Matplotlib v3.3.0, https://matplotlib.org/</dc:title>
     </cc:Agent>
    </dc:creator>
   </cc:Work>
  </rdf:RDF>
 </metadata>
 <defs>
  <style type="text/css">*{stroke-linecap:butt;stroke-linejoin:round;}</style>
 </defs>
 <g id="figure_1">
  <g id="patch_1">
   <path d="M 0 288 
L 1152 288 
L 1152 0 
L 0 0 
z
" style="fill:#ffffff;"/>
  </g>
  <g id="axes_1">
   <g id="patch_2">
    <path d="M 144 256.32 
L 1036.8 256.32 
L 1036.8 34.56 
L 144 34.56 
z
" style="fill:#ffffff;"/>
   </g>
   <g id="matplotlib.axis_1">
    <g id="xtick_1">
     <g id="line2d_1">
      <defs>
       <path d="M 0 0 
L 0 3.5 
" id="m6ef6490eb7" style="stroke:#000000;stroke-width:0.8;"/>
      </defs>
      <g>
       <use style="stroke:#000000;stroke-width:0.8;" x="184.581818" xlink:href="#m6ef6490eb7" y="256.32"/>
      </g>
     </g>
     <g id="text_1">
      <!-- 0 -->
      <g transform="translate(181.400568 270.918437)scale(0.1 -0.1)">
       <defs>
        <path d="M 31.78125 66.40625 
Q 24.171875 66.40625 20.328125 58.90625 
Q 16.5 51.421875 16.5 36.375 
Q 16.5 21.390625 20.328125 13.890625 
Q 24.171875 6.390625 31.78125 6.390625 
Q 39.453125 6.390625 43.28125 13.890625 
Q 47.125 21.390625 47.125 36.375 
Q 47.125 51.421875 43.28125 58.90625 
Q 39.453125 66.40625 31.78125 66.40625 
z
M 31.78125 74.21875 
Q 44.046875 74.21875 50.515625 64.515625 
Q 56.984375 54.828125 56.984375 36.375 
Q 56.984375 17.96875 50.515625 8.265625 
Q 44.046875 -1.421875 31.78125 -1.421875 
Q 19.53125 -1.421875 13.0625 8.265625 
Q 6.59375 17.96875 6.59375 36.375 
Q 6.59375 54.828125 13.0625 64.515625 
Q 19.53125 74.21875 31.78125 74.21875 
z
" id="DejaVuSans-48"/>
       </defs>
       <use xlink:href="#DejaVuSans-48"/>
      </g>
     </g>
    </g>
    <g id="xtick_2">
     <g id="line2d_2">
      <g>
       <use style="stroke:#000000;stroke-width:0.8;" x="367.933517" xlink:href="#m6ef6490eb7" y="256.32"/>
      </g>
     </g>
     <g id="text_2">
      <!-- 2 -->
      <g transform="translate(364.752267 270.918437)scale(0.1 -0.1)">
       <defs>
        <path d="M 19.1875 8.296875 
L 53.609375 8.296875 
L 53.609375 0 
L 7.328125 0 
L 7.328125 8.296875 
Q 12.9375 14.109375 22.625 23.890625 
Q 32.328125 33.6875 34.8125 36.53125 
Q 39.546875 41.84375 41.421875 45.53125 
Q 43.3125 49.21875 43.3125 52.78125 
Q 43.3125 58.59375 39.234375 62.25 
Q 35.15625 65.921875 28.609375 65.921875 
Q 23.96875 65.921875 18.8125 64.3125 
Q 13.671875 62.703125 7.8125 59.421875 
L 7.8125 69.390625 
Q 13.765625 71.78125 18.9375 73 
Q 24.125 74.21875 28.421875 74.21875 
Q 39.75 74.21875 46.484375 68.546875 
Q 53.21875 62.890625 53.21875 53.421875 
Q 53.21875 48.921875 51.53125 44.890625 
Q 49.859375 40.875 45.40625 35.40625 
Q 44.1875 33.984375 37.640625 27.21875 
Q 31.109375 20.453125 19.1875 8.296875 
z
" id="DejaVuSans-50"/>
       </defs>
       <use xlink:href="#DejaVuSans-50"/>
      </g>
     </g>
    </g>
    <g id="xtick_3">
     <g id="line2d_3">
      <g>
       <use style="stroke:#000000;stroke-width:0.8;" x="551.285215" xlink:href="#m6ef6490eb7" y="256.32"/>
      </g>
     </g>
     <g id="text_3">
      <!-- 4 -->
      <g transform="translate(548.103965 270.918437)scale(0.1 -0.1)">
       <defs>
        <path d="M 37.796875 64.3125 
L 12.890625 25.390625 
L 37.796875 25.390625 
z
M 35.203125 72.90625 
L 47.609375 72.90625 
L 47.609375 25.390625 
L 58.015625 25.390625 
L 58.015625 17.1875 
L 47.609375 17.1875 
L 47.609375 0 
L 37.796875 0 
L 37.796875 17.1875 
L 4.890625 17.1875 
L 4.890625 26.703125 
z
" id="DejaVuSans-52"/>
       </defs>
       <use xlink:href="#DejaVuSans-52"/>
      </g>
     </g>
    </g>
    <g id="xtick_4">
     <g id="line2d_4">
      <g>
       <use style="stroke:#000000;stroke-width:0.8;" x="734.636914" xlink:href="#m6ef6490eb7" y="256.32"/>
      </g>
     </g>
     <g id="text_4">
      <!-- 6 -->
      <g transform="translate(731.455664 270.918437)scale(0.1 -0.1)">
       <defs>
        <path d="M 33.015625 40.375 
Q 26.375 40.375 22.484375 35.828125 
Q 18.609375 31.296875 18.609375 23.390625 
Q 18.609375 15.53125 22.484375 10.953125 
Q 26.375 6.390625 33.015625 6.390625 
Q 39.65625 6.390625 43.53125 10.953125 
Q 47.40625 15.53125 47.40625 23.390625 
Q 47.40625 31.296875 43.53125 35.828125 
Q 39.65625 40.375 33.015625 40.375 
z
M 52.59375 71.296875 
L 52.59375 62.3125 
Q 48.875 64.0625 45.09375 64.984375 
Q 41.3125 65.921875 37.59375 65.921875 
Q 27.828125 65.921875 22.671875 59.328125 
Q 17.53125 52.734375 16.796875 39.40625 
Q 19.671875 43.65625 24.015625 45.921875 
Q 28.375 48.1875 33.59375 48.1875 
Q 44.578125 48.1875 50.953125 41.515625 
Q 57.328125 34.859375 57.328125 23.390625 
Q 57.328125 12.15625 50.6875 5.359375 
Q 44.046875 -1.421875 33.015625 -1.421875 
Q 20.359375 -1.421875 13.671875 8.265625 
Q 6.984375 17.96875 6.984375 36.375 
Q 6.984375 53.65625 15.1875 63.9375 
Q 23.390625 74.21875 37.203125 74.21875 
Q 40.921875 74.21875 44.703125 73.484375 
Q 48.484375 72.75 52.59375 71.296875 
z
" id="DejaVuSans-54"/>
       </defs>
       <use xlink:href="#DejaVuSans-54"/>
      </g>
     </g>
    </g>
    <g id="xtick_5">
     <g id="line2d_5">
      <g>
       <use style="stroke:#000000;stroke-width:0.8;" x="917.988613" xlink:href="#m6ef6490eb7" y="256.32"/>
      </g>
     </g>
     <g id="text_5">
      <!-- 8 -->
      <g transform="translate(914.807363 270.918437)scale(0.1 -0.1)">
       <defs>
        <path d="M 31.78125 34.625 
Q 24.75 34.625 20.71875 30.859375 
Q 16.703125 27.09375 16.703125 20.515625 
Q 16.703125 13.921875 20.71875 10.15625 
Q 24.75 6.390625 31.78125 6.390625 
Q 38.8125 6.390625 42.859375 10.171875 
Q 46.921875 13.96875 46.921875 20.515625 
Q 46.921875 27.09375 42.890625 30.859375 
Q 38.875 34.625 31.78125 34.625 
z
M 21.921875 38.8125 
Q 15.578125 40.375 12.03125 44.71875 
Q 8.5 49.078125 8.5 55.328125 
Q 8.5 64.0625 14.71875 69.140625 
Q 20.953125 74.21875 31.78125 74.21875 
Q 42.671875 74.21875 48.875 69.140625 
Q 55.078125 64.0625 55.078125 55.328125 
Q 55.078125 49.078125 51.53125 44.71875 
Q 48 40.375 41.703125 38.8125 
Q 48.828125 37.15625 52.796875 32.3125 
Q 56.78125 27.484375 56.78125 20.515625 
Q 56.78125 9.90625 50.3125 4.234375 
Q 43.84375 -1.421875 31.78125 -1.421875 
Q 19.734375 -1.421875 13.25 4.234375 
Q 6.78125 9.90625 6.78125 20.515625 
Q 6.78125 27.484375 10.78125 32.3125 
Q 14.796875 37.15625 21.921875 38.8125 
z
M 18.3125 54.390625 
Q 18.3125 48.734375 21.84375 45.5625 
Q 25.390625 42.390625 31.78125 42.390625 
Q 38.140625 42.390625 41.71875 45.5625 
Q 45.3125 48.734375 45.3125 54.390625 
Q 45.3125 60.0625 41.71875 63.234375 
Q 38.140625 66.40625 31.78125 66.40625 
Q 25.390625 66.40625 21.84375 63.234375 
Q 18.3125 60.0625 18.3125 54.390625 
z
" id="DejaVuSans-56"/>
       </defs>
       <use xlink:href="#DejaVuSans-56"/>
      </g>
     </g>
    </g>
    <g id="text_6">
     <!-- Time [s] -->
     <g transform="translate(570.071094 284.596563)scale(0.1 -0.1)">
      <defs>
       <path d="M -0.296875 72.90625 
L 61.375 72.90625 
L 61.375 64.59375 
L 35.5 64.59375 
L 35.5 0 
L 25.59375 0 
L 25.59375 64.59375 
L -0.296875 64.59375 
z
" id="DejaVuSans-84"/>
       <path d="M 9.421875 54.6875 
L 18.40625 54.6875 
L 18.40625 0 
L 9.421875 0 
z
M 9.421875 75.984375 
L 18.40625 75.984375 
L 18.40625 64.59375 
L 9.421875 64.59375 
z
" id="DejaVuSans-105"/>
       <path d="M 52 44.1875 
Q 55.375 50.25 60.0625 53.125 
Q 64.75 56 71.09375 56 
Q 79.640625 56 84.28125 50.015625 
Q 88.921875 44.046875 88.921875 33.015625 
L 88.921875 0 
L 79.890625 0 
L 79.890625 32.71875 
Q 79.890625 40.578125 77.09375 44.375 
Q 74.3125 48.1875 68.609375 48.1875 
Q 61.625 48.1875 57.5625 43.546875 
Q 53.515625 38.921875 53.515625 30.90625 
L 53.515625 0 
L 44.484375 0 
L 44.484375 32.71875 
Q 44.484375 40.625 41.703125 44.40625 
Q 38.921875 48.1875 33.109375 48.1875 
Q 26.21875 48.1875 22.15625 43.53125 
Q 18.109375 38.875 18.109375 30.90625 
L 18.109375 0 
L 9.078125 0 
L 9.078125 54.6875 
L 18.109375 54.6875 
L 18.109375 46.1875 
Q 21.1875 51.21875 25.484375 53.609375 
Q 29.78125 56 35.6875 56 
Q 41.65625 56 45.828125 52.96875 
Q 50 49.953125 52 44.1875 
z
" id="DejaVuSans-109"/>
       <path d="M 56.203125 29.59375 
L 56.203125 25.203125 
L 14.890625 25.203125 
Q 15.484375 15.921875 20.484375 11.0625 
Q 25.484375 6.203125 34.421875 6.203125 
Q 39.59375 6.203125 44.453125 7.46875 
Q 49.3125 8.734375 54.109375 11.28125 
L 54.109375 2.78125 
Q 49.265625 0.734375 44.1875 -0.34375 
Q 39.109375 -1.421875 33.890625 -1.421875 
Q 20.796875 -1.421875 13.15625 6.1875 
Q 5.515625 13.8125 5.515625 26.8125 
Q 5.515625 40.234375 12.765625 48.109375 
Q 20.015625 56 32.328125 56 
Q 43.359375 56 49.78125 48.890625 
Q 56.203125 41.796875 56.203125 29.59375 
z
M 47.21875 32.234375 
Q 47.125 39.59375 43.09375 43.984375 
Q 39.0625 48.390625 32.421875 48.390625 
Q 24.90625 48.390625 20.390625 44.140625 
Q 15.875 39.890625 15.1875 32.171875 
z
" id="DejaVuSans-101"/>
       <path id="DejaVuSans-32"/>
       <path d="M 8.59375 75.984375 
L 29.296875 75.984375 
L 29.296875 69 
L 17.578125 69 
L 17.578125 -6.203125 
L 29.296875 -6.203125 
L 29.296875 -13.1875 
L 8.59375 -13.1875 
z
" id="DejaVuSans-91"/>
       <path d="M 44.28125 53.078125 
L 44.28125 44.578125 
Q 40.484375 46.53125 36.375 47.5 
Q 32.28125 48.484375 27.875 48.484375 
Q 21.1875 48.484375 17.84375 46.4375 
Q 14.5 44.390625 14.5 40.28125 
Q 14.5 37.15625 16.890625 35.375 
Q 19.28125 33.59375 26.515625 31.984375 
L 29.59375 31.296875 
Q 39.15625 29.25 43.1875 25.515625 
Q 47.21875 21.78125 47.21875 15.09375 
Q 47.21875 7.46875 41.1875 3.015625 
Q 35.15625 -1.421875 24.609375 -1.421875 
Q 20.21875 -1.421875 15.453125 -0.5625 
Q 10.6875 0.296875 5.421875 2 
L 5.421875 11.28125 
Q 10.40625 8.6875 15.234375 7.390625 
Q 20.0625 6.109375 24.8125 6.109375 
Q 31.15625 6.109375 34.5625 8.28125 
Q 37.984375 10.453125 37.984375 14.40625 
Q 37.984375 18.0625 35.515625 20.015625 
Q 33.0625 21.96875 24.703125 23.78125 
L 21.578125 24.515625 
Q 13.234375 26.265625 9.515625 29.90625 
Q 5.8125 33.546875 5.8125 39.890625 
Q 5.8125 47.609375 11.28125 51.796875 
Q 16.75 56 26.8125 56 
Q 31.78125 56 36.171875 55.265625 
Q 40.578125 54.546875 44.28125 53.078125 
z
" id="DejaVuSans-115"/>
       <path d="M 30.421875 75.984375 
L 30.421875 -13.1875 
L 9.71875 -13.1875 
L 9.71875 -6.203125 
L 21.390625 -6.203125 
L 21.390625 69 
L 9.71875 69 
L 9.71875 75.984375 
z
" id="DejaVuSans-93"/>
      </defs>
      <use xlink:href="#DejaVuSans-84"/>
      <use x="57.958984" xlink:href="#DejaVuSans-105"/>
      <use x="85.742188" xlink:href="#DejaVuSans-109"/>
      <use x="183.154297" xlink:href="#DejaVuSans-101"/>
      <use x="244.677734" xlink:href="#DejaVuSans-32"/>
      <use x="276.464844" xlink:href="#DejaVuSans-91"/>
      <use x="315.478516" xlink:href="#DejaVuSans-115"/>
      <use x="367.578125" xlink:href="#DejaVuSans-93"/>
     </g>
    </g>
    <g id="text_7">
     <!-- 1e−9 -->
     <g transform="translate(1009.542187 283.596563)scale(0.1 -0.1)">
      <defs>
       <path d="M 12.40625 8.296875 
L 28.515625 8.296875 
L 28.515625 63.921875 
L 10.984375 60.40625 
L 10.984375 69.390625 
L 28.421875 72.90625 
L 38.28125 72.90625 
L 38.28125 8.296875 
L 54.390625 8.296875 
L 54.390625 0 
L 12.40625 0 
z
" id="DejaVuSans-49"/>
       <path d="M 10.59375 35.5 
L 73.1875 35.5 
L 73.1875 27.203125 
L 10.59375 27.203125 
z
" id="DejaVuSans-8722"/>
       <path d="M 10.984375 1.515625 
L 10.984375 10.5 
Q 14.703125 8.734375 18.5 7.8125 
Q 22.3125 6.890625 25.984375 6.890625 
Q 35.75 6.890625 40.890625 13.453125 
Q 46.046875 20.015625 46.78125 33.40625 
Q 43.953125 29.203125 39.59375 26.953125 
Q 35.25 24.703125 29.984375 24.703125 
Q 19.046875 24.703125 12.671875 31.3125 
Q 6.296875 37.9375 6.296875 49.421875 
Q 6.296875 60.640625 12.9375 67.421875 
Q 19.578125 74.21875 30.609375 74.21875 
Q 43.265625 74.21875 49.921875 64.515625 
Q 56.59375 54.828125 56.59375 36.375 
Q 56.59375 19.140625 48.40625 8.859375 
Q 40.234375 -1.421875 26.421875 -1.421875 
Q 22.703125 -1.421875 18.890625 -0.6875 
Q 15.09375 0.046875 10.984375 1.515625 
z
M 30.609375 32.421875 
Q 37.25 32.421875 41.125 36.953125 
Q 45.015625 41.5 45.015625 49.421875 
Q 45.015625 57.28125 41.125 61.84375 
Q 37.25 66.40625 30.609375 66.40625 
Q 23.96875 66.40625 20.09375 61.84375 
Q 16.21875 57.28125 16.21875 49.421875 
Q 16.21875 41.5 20.09375 36.953125 
Q 23.96875 32.421875 30.609375 32.421875 
z
" id="DejaVuSans-57"/>
      </defs>
      <use xlink:href="#DejaVuSans-49"/>
      <use x="63.623047" xlink:href="#DejaVuSans-101"/>
      <use x="125.146484" xlink:href="#DejaVuSans-8722"/>
      <use x="208.935547" xlink:href="#DejaVuSans-57"/>
     </g>
    </g>
   </g>
   <g id="matplotlib.axis_2">
    <g id="ytick_1">
     <g id="line2d_6">
      <defs>
       <path d="M 0 0 
L -3.5 0 
" id="m1748a86271" style="stroke:#000000;stroke-width:0.8;"/>
      </defs>
      <g>
       <use style="stroke:#000000;stroke-width:0.8;" x="144" xlink:href="#m1748a86271" y="249.935238"/>
      </g>
     </g>
     <g id="text_8">
      <!-- −0.4 -->
      <g transform="translate(112.717187 253.734457)scale(0.1 -0.1)">
       <defs>
        <path d="M 10.6875 12.40625 
L 21 12.40625 
L 21 0 
L 10.6875 0 
z
" id="DejaVuSans-46"/>
       </defs>
       <use xlink:href="#DejaVuSans-8722"/>
       <use x="83.789062" xlink:href="#DejaVuSans-48"/>
       <use x="147.412109" xlink:href="#DejaVuSans-46"/>
       <use x="179.199219" xlink:href="#DejaVuSans-52"/>
      </g>
     </g>
    </g>
    <g id="ytick_2">
     <g id="line2d_7">
      <g>
       <use style="stroke:#000000;stroke-width:0.8;" x="144" xlink:href="#m1748a86271" y="224.308234"/>
      </g>
     </g>
     <g id="text_9">
      <!-- −0.2 -->
      <g transform="translate(112.717187 228.107453)scale(0.1 -0.1)">
       <use xlink:href="#DejaVuSans-8722"/>
       <use x="83.789062" xlink:href="#DejaVuSans-48"/>
       <use x="147.412109" xlink:href="#DejaVuSans-46"/>
       <use x="179.199219" xlink:href="#DejaVuSans-50"/>
      </g>
     </g>
    </g>
    <g id="ytick_3">
     <g id="line2d_8">
      <g>
       <use style="stroke:#000000;stroke-width:0.8;" x="144" xlink:href="#m1748a86271" y="198.68123"/>
      </g>
     </g>
     <g id="text_10">
      <!-- 0.0 -->
      <g transform="translate(121.096875 202.480449)scale(0.1 -0.1)">
       <use xlink:href="#DejaVuSans-48"/>
       <use x="63.623047" xlink:href="#DejaVuSans-46"/>
       <use x="95.410156" xlink:href="#DejaVuSans-48"/>
      </g>
     </g>
    </g>
    <g id="ytick_4">
     <g id="line2d_9">
      <g>
       <use style="stroke:#000000;stroke-width:0.8;" x="144" xlink:href="#m1748a86271" y="173.054226"/>
      </g>
     </g>
     <g id="text_11">
      <!-- 0.2 -->
      <g transform="translate(121.096875 176.853445)scale(0.1 -0.1)">
       <use xlink:href="#DejaVuSans-48"/>
       <use x="63.623047" xlink:href="#DejaVuSans-46"/>
       <use x="95.410156" xlink:href="#DejaVuSans-50"/>
      </g>
     </g>
    </g>
    <g id="ytick_5">
     <g id="line2d_10">
      <g>
       <use style="stroke:#000000;stroke-width:0.8;" x="144" xlink:href="#m1748a86271" y="147.427222"/>
      </g>
     </g>
     <g id="text_12">
      <!-- 0.4 -->
      <g transform="translate(121.096875 151.226441)scale(0.1 -0.1)">
       <use xlink:href="#DejaVuSans-48"/>
       <use x="63.623047" xlink:href="#DejaVuSans-46"/>
       <use x="95.410156" xlink:href="#DejaVuSans-52"/>
      </g>
     </g>
    </g>
    <g id="ytick_6">
     <g id="line2d_11">
      <g>
       <use style="stroke:#000000;stroke-width:0.8;" x="144" xlink:href="#m1748a86271" y="121.800218"/>
      </g>
     </g>
     <g id="text_13">
      <!-- 0.6 -->
      <g transform="translate(121.096875 125.599437)scale(0.1 -0.1)">
       <use xlink:href="#DejaVuSans-48"/>
       <use x="63.623047" xlink:href="#DejaVuSans-46"/>
       <use x="95.410156" xlink:href="#DejaVuSans-54"/>
      </g>
     </g>
    </g>
    <g id="ytick_7">
     <g id="line2d_12">
      <g>
       <use style="stroke:#000000;stroke-width:0.8;" x="144" xlink:href="#m1748a86271" y="96.173214"/>
      </g>
     </g>
     <g id="text_14">
      <!-- 0.8 -->
      <g transform="translate(121.096875 99.972433)scale(0.1 -0.1)">
       <use xlink:href="#DejaVuSans-48"/>
       <use x="63.623047" xlink:href="#DejaVuSans-46"/>
       <use x="95.410156" xlink:href="#DejaVuSans-56"/>
      </g>
     </g>
    </g>
    <g id="ytick_8">
     <g id="line2d_13">
      <g>
       <use style="stroke:#000000;stroke-width:0.8;" x="144" xlink:href="#m1748a86271" y="70.54621"/>
      </g>
     </g>
     <g id="text_15">
      <!-- 1.0 -->
      <g transform="translate(121.096875 74.345429)scale(0.1 -0.1)">
       <use xlink:href="#DejaVuSans-49"/>
       <use x="63.623047" xlink:href="#DejaVuSans-46"/>
       <use x="95.410156" xlink:href="#DejaVuSans-48"/>
      </g>
     </g>
    </g>
    <g id="ytick_9">
     <g id="line2d_14">
      <g>
       <use style="stroke:#000000;stroke-width:0.8;" x="144" xlink:href="#m1748a86271" y="44.919206"/>
      </g>
     </g>
     <g id="text_16">
      <!-- 1.2 -->
      <g transform="translate(121.096875 48.718425)scale(0.1 -0.1)">
       <use xlink:href="#DejaVuSans-49"/>
       <use x="63.623047" xlink:href="#DejaVuSans-46"/>
       <use x="95.410156" xlink:href="#DejaVuSans-50"/>
      </g>
     </g>
    </g>
    <g id="text_17">
     <!-- Voltage [V] -->
     <g transform="translate(106.6375 173.107188)rotate(-90)scale(0.1 -0.1)">
      <defs>
       <path d="M 28.609375 0 
L 0.78125 72.90625 
L 11.078125 72.90625 
L 34.1875 11.53125 
L 57.328125 72.90625 
L 67.578125 72.90625 
L 39.796875 0 
z
" id="DejaVuSans-86"/>
       <path d="M 30.609375 48.390625 
Q 23.390625 48.390625 19.1875 42.75 
Q 14.984375 37.109375 14.984375 27.296875 
Q 14.984375 17.484375 19.15625 11.84375 
Q 23.34375 6.203125 30.609375 6.203125 
Q 37.796875 6.203125 41.984375 11.859375 
Q 46.1875 17.53125 46.1875 27.296875 
Q 46.1875 37.015625 41.984375 42.703125 
Q 37.796875 48.390625 30.609375 48.390625 
z
M 30.609375 56 
Q 42.328125 56 49.015625 48.375 
Q 55.71875 40.765625 55.71875 27.296875 
Q 55.71875 13.875 49.015625 6.21875 
Q 42.328125 -1.421875 30.609375 -1.421875 
Q 18.84375 -1.421875 12.171875 6.21875 
Q 5.515625 13.875 5.515625 27.296875 
Q 5.515625 40.765625 12.171875 48.375 
Q 18.84375 56 30.609375 56 
z
" id="DejaVuSans-111"/>
       <path d="M 9.421875 75.984375 
L 18.40625 75.984375 
L 18.40625 0 
L 9.421875 0 
z
" id="DejaVuSans-108"/>
       <path d="M 18.3125 70.21875 
L 18.3125 54.6875 
L 36.8125 54.6875 
L 36.8125 47.703125 
L 18.3125 47.703125 
L 18.3125 18.015625 
Q 18.3125 11.328125 20.140625 9.421875 
Q 21.96875 7.515625 27.59375 7.515625 
L 36.8125 7.515625 
L 36.8125 0 
L 27.59375 0 
Q 17.1875 0 13.234375 3.875 
Q 9.28125 7.765625 9.28125 18.015625 
L 9.28125 47.703125 
L 2.6875 47.703125 
L 2.6875 54.6875 
L 9.28125 54.6875 
L 9.28125 70.21875 
z
" id="DejaVuSans-116"/>
       <path d="M 34.28125 27.484375 
Q 23.390625 27.484375 19.1875 25 
Q 14.984375 22.515625 14.984375 16.5 
Q 14.984375 11.71875 18.140625 8.90625 
Q 21.296875 6.109375 26.703125 6.109375 
Q 34.1875 6.109375 38.703125 11.40625 
Q 43.21875 16.703125 43.21875 25.484375 
L 43.21875 27.484375 
z
M 52.203125 31.203125 
L 52.203125 0 
L 43.21875 0 
L 43.21875 8.296875 
Q 40.140625 3.328125 35.546875 0.953125 
Q 30.953125 -1.421875 24.3125 -1.421875 
Q 15.921875 -1.421875 10.953125 3.296875 
Q 6 8.015625 6 15.921875 
Q 6 25.140625 12.171875 29.828125 
Q 18.359375 34.515625 30.609375 34.515625 
L 43.21875 34.515625 
L 43.21875 35.40625 
Q 43.21875 41.609375 39.140625 45 
Q 35.0625 48.390625 27.6875 48.390625 
Q 23 48.390625 18.546875 47.265625 
Q 14.109375 46.140625 10.015625 43.890625 
L 10.015625 52.203125 
Q 14.9375 54.109375 19.578125 55.046875 
Q 24.21875 56 28.609375 56 
Q 40.484375 56 46.34375 49.84375 
Q 52.203125 43.703125 52.203125 31.203125 
z
" id="DejaVuSans-97"/>
       <path d="M 45.40625 27.984375 
Q 45.40625 37.75 41.375 43.109375 
Q 37.359375 48.484375 30.078125 48.484375 
Q 22.859375 48.484375 18.828125 43.109375 
Q 14.796875 37.75 14.796875 27.984375 
Q 14.796875 18.265625 18.828125 12.890625 
Q 22.859375 7.515625 30.078125 7.515625 
Q 37.359375 7.515625 41.375 12.890625 
Q 45.40625 18.265625 45.40625 27.984375 
z
M 54.390625 6.78125 
Q 54.390625 -7.171875 48.1875 -13.984375 
Q 42 -20.796875 29.203125 -20.796875 
Q 24.46875 -20.796875 20.265625 -20.09375 
Q 16.0625 -19.390625 12.109375 -17.921875 
L 12.109375 -9.1875 
Q 16.0625 -11.328125 19.921875 -12.34375 
Q 23.78125 -13.375 27.78125 -13.375 
Q 36.625 -13.375 41.015625 -8.765625 
Q 45.40625 -4.15625 45.40625 5.171875 
L 45.40625 9.625 
Q 42.625 4.78125 38.28125 2.390625 
Q 33.9375 0 27.875 0 
Q 17.828125 0 11.671875 7.65625 
Q 5.515625 15.328125 5.515625 27.984375 
Q 5.515625 40.671875 11.671875 48.328125 
Q 17.828125 56 27.875 56 
Q 33.9375 56 38.28125 53.609375 
Q 42.625 51.21875 45.40625 46.390625 
L 45.40625 54.6875 
L 54.390625 54.6875 
z
" id="DejaVuSans-103"/>
      </defs>
      <use xlink:href="#DejaVuSans-86"/>
      <use x="60.658203" xlink:href="#DejaVuSans-111"/>
      <use x="121.839844" xlink:href="#DejaVuSans-108"/>
      <use x="149.623047" xlink:href="#DejaVuSans-116"/>
      <use x="188.832031" xlink:href="#DejaVuSans-97"/>
      <use x="250.111328" xlink:href="#DejaVuSans-103"/>
      <use x="313.587891" xlink:href="#DejaVuSans-101"/>
      <use x="375.111328" xlink:href="#DejaVuSans-32"/>
      <use x="406.898438" xlink:href="#DejaVuSans-91"/>
      <use x="445.912109" xlink:href="#DejaVuSans-86"/>
      <use x="514.320312" xlink:href="#DejaVuSans-93"/>
     </g>
    </g>
   </g>
   <g id="line2d_15">
    <path clip-path="url(#pdfacf24163)" d="M 184.581818 198.681219 
L 314.007765 198.792171 
L 322.07524 198.825425 
L 323.597059 198.577798 
L 324.77051 198.167197 
L 325.79728 197.571078 
L 326.759876 196.748135 
L 327.713305 195.629112 
L 328.694236 194.120515 
L 329.730174 192.101593 
L 330.848619 189.41045 
L 332.077075 185.844472 
L 333.453313 181.134254 
L 335.05764 174.809458 
L 337.028671 166.078453 
L 339.769779 152.828754 
L 349.129883 106.828166 
L 351.825153 95.013708 
L 354.062044 86.171469 
L 356.05141 79.183215 
L 357.894095 73.495366 
L 359.645103 68.791017 
L 361.359442 64.820753 
L 363.009607 61.553054 
L 364.595599 58.879132 
L 366.209094 56.579109 
L 367.868427 54.604035 
L 369.56443 52.940202 
L 371.324606 51.537124 
L 373.130621 50.385702 
L 375.148773 49.383687 
L 377.211479 48.610776 
L 379.365862 48.033912 
L 381.281887 47.745224 
L 382.647857 47.741252 
L 383.839643 47.951265 
L 384.958089 48.394869 
L 385.994026 49.070268 
L 387.020795 50.030256 
L 388.0659 51.331467 
L 389.184345 53.099602 
L 390.376131 55.403854 
L 391.751269 58.564048 
L 393.309759 62.712804 
L 395.253287 68.559092 
L 397.957724 77.507094 
L 404.411704 99.160234 
L 406.373567 104.807785 
L 407.977894 108.780662 
L 409.3622 111.64562 
L 410.590656 113.702418 
L 411.690766 115.134109 
L 412.699201 116.09821 
L 413.634294 116.695204 
L 414.514383 117.001036 
L 415.376136 117.066782 
L 416.237889 116.908318 
L 417.128519 116.514866 
L 418.072781 115.846078 
L 419.06288 114.865858 
L 420.12632 113.489547 
L 421.2631 111.640649 
L 422.500724 109.183493 
L 423.875862 105.933246 
L 425.461854 101.583626 
L 427.478723 95.356251 
L 434.143557 74.25891 
L 436.096253 69.099822 
L 437.920602 64.905963 
L 439.662443 61.464897 
L 441.285106 58.724858 
L 442.981109 56.296699 
L 444.622107 54.322779 
L 446.290607 52.645235 
L 447.977443 51.239338 
L 449.838462 49.973876 
L 451.717817 48.948412 
L 453.798859 48.053261 
L 456.164096 47.278684 
L 458.896036 46.630065 
L 461.866334 46.161603 
L 464.07398 46.025652 
L 465.522458 46.155581 
L 466.631736 46.468743 
L 467.631003 46.978849 
L 468.584432 47.723057 
L 469.537861 48.767357 
L 470.509625 50.180686 
L 471.536394 52.087079 
L 472.636504 54.616721 
L 473.846626 57.978984 
L 475.203428 62.444745 
L 476.75275 68.377012 
L 478.494591 75.976265 
L 480.5848 86.144381 
L 483.325908 100.672624 
L 492.69518 151.272798 
L 494.675378 160.270118 
L 496.343879 166.864497 
L 497.847363 171.935108 
L 499.240836 175.880103 
L 500.560968 178.971617 
L 501.816927 181.36942 
L 503.036216 183.232593 
L 504.200499 184.619373 
L 505.309777 185.606102 
L 506.346723 186.242051 
L 507.318487 186.586754 
L 508.244413 186.684793 
L 509.142836 186.558753 
L 510.041259 186.206532 
L 510.958018 185.602591 
L 511.902279 184.707017 
L 512.892378 183.450192 
L 513.937483 181.748085 
L 515.046761 179.498969 
L 516.247714 176.540537 
L 517.577014 172.647051 
L 519.080498 167.524559 
L 520.868177 160.60004 
L 523.141738 150.843545 
L 526.781269 134.103627 
L 532.483507 108.005279 
L 535.270453 96.296941 
L 537.470673 87.972458 
L 539.370014 81.621971 
L 541.09352 76.604395 
L 542.72535 72.515889 
L 544.302174 69.14531 
L 545.842329 66.352992 
L 547.419153 63.94495 
L 549.005145 61.918623 
L 550.691981 60.130627 
L 552.378817 58.657459 
L 554.138993 57.39661 
L 555.954175 56.335908 
L 558.36525 55.213446 
L 561.436391 54.087908 
L 571.034852 50.751144 
L 576.734981 48.639222 
L 580.42035 47.519835 
L 583.885697 46.714378 
L 587.667051 46.087541 
L 591.526605 45.660211 
L 597.283848 45.288619 
L 605.562177 45.052595 
L 612.217844 44.977508 
L 673.155697 44.866543 
L 684.450254 44.661783 
L 686.283771 44.874743 
L 687.558065 45.272603 
L 688.612337 45.850235 
L 689.547431 46.610973 
L 690.473357 47.641435 
L 691.435954 49.044641 
L 692.481058 50.982043 
L 693.599504 53.548715 
L 694.837128 56.97748 
L 696.212265 61.477967 
L 697.75242 67.305419 
L 699.585937 75.172871 
L 701.795324 85.69824 
L 704.875633 101.566827 
L 711.842998 137.770839 
L 714.107391 148.182937 
L 715.950076 155.655515 
L 717.563571 161.305565 
L 719.021217 165.629058 
L 720.359684 168.929291 
L 721.600517 171.420441 
L 722.746465 173.24607 
L 723.809905 174.542796 
L 724.800004 175.415524 
L 725.735097 175.952051 
L 726.624353 176.211089 
L 727.495274 176.234781 
L 728.375362 176.03316 
L 729.273785 175.596028 
L 730.218046 174.882687 
L 731.217313 173.836888 
L 732.271585 172.396791 
L 733.390031 170.477085 
L 734.600152 167.936975 
L 735.920284 164.625812 
L 737.405433 160.271502 
L 739.128939 154.494471 
L 741.255819 146.539272 
L 744.290289 134.237682 
L 751.202648 105.998607 
L 753.659561 97.024607 
L 755.685597 90.431663 
L 757.464109 85.373495 
L 759.077604 81.430857 
L 760.57192 78.344982 
L 761.974561 75.9409 
L 763.294693 74.104712 
L 764.523149 72.761408 
L 765.65993 71.835633 
L 766.686699 71.274863 
L 767.621793 71.009687 
L 768.483546 70.990967 
L 769.317796 71.1967 
L 770.142879 71.633372 
L 770.995464 72.344214 
L 771.893888 73.39378 
L 772.865652 74.889462 
L 773.910756 76.925284 
L 775.047537 79.644527 
L 776.303496 83.250516 
L 777.696969 87.959401 
L 779.255458 94.041919 
L 781.043137 101.952475 
L 783.179185 112.468644 
L 785.975298 127.443413 
L 792.502618 162.833331 
L 794.308633 171.140671 
L 795.839619 177.182147 
L 797.233092 181.808757 
L 798.544057 185.416296 
L 799.800016 188.246532 
L 801.03764 190.504235 
L 802.275264 192.309073 
L 803.531223 193.753777 
L 804.83302 194.916246 
L 806.217326 195.8559 
L 807.739145 196.618274 
L 809.471818 197.232423 
L 811.525357 197.717437 
L 814.110616 198.089622 
L 817.649304 198.359591 
L 823.177358 198.535492 
L 835.076883 198.640588 
L 870.876302 198.680553 
L 996.218182 198.681219 
L 996.218182 198.681219 
" style="fill:none;stroke:#ff0000;stroke-linecap:square;stroke-width:1.5;"/>
   </g>
   <g id="line2d_16">
    <path clip-path="url(#pdfacf24163)" d="M 184.581818 44.919206 
L 332.498784 44.808113 
L 341.154084 44.677287 
L 342.831753 44.905496 
L 343.959365 45.269655 
L 345.00447 45.84165 
L 345.985402 46.647619 
L 346.938831 47.734204 
L 347.910595 49.192765 
L 348.919029 51.112741 
L 350.046642 53.768851 
L 351.265931 57.246692 
L 352.622733 61.835848 
L 354.098714 67.63793 
L 355.803885 75.291806 
L 357.765748 85.176974 
L 360.140153 98.343591 
L 363.467986 118.18025 
L 369.500257 154.266493 
L 371.544629 165.032564 
L 373.185626 172.540571 
L 374.635388 178.178717 
L 375.983023 182.558718 
L 377.257317 185.975031 
L 378.494941 188.681981 
L 379.723398 190.8484 
L 380.951854 192.574315 
L 382.207813 193.961739 
L 383.518778 195.081405 
L 384.921418 195.987492 
L 386.47074 196.722158 
L 388.258419 197.318303 
L 390.412802 197.793745 
L 393.172245 198.163756 
L 397.040966 198.442338 
L 402.477344 198.602755 
L 406.199383 198.517583 
L 408.995496 198.231724 
L 411.82828 197.711555 
L 420.529693 195.925854 
L 422.720746 195.830085 
L 424.902631 195.960521 
L 427.515393 196.352908 
L 436.792989 197.935345 
L 440.936737 198.292888 
L 446.327277 198.519193 
L 455.23817 198.640852 
L 485.434453 198.713207 
L 486.837093 198.383059 
L 488.001377 197.881562 
L 489.046481 197.18867 
L 490.054916 196.249071 
L 491.072518 194.98903 
L 492.135957 193.305869 
L 493.272738 191.071763 
L 494.501194 188.14718 
L 495.867165 184.294909 
L 497.416486 179.230629 
L 499.259171 172.404863 
L 501.596905 162.834318 
L 505.404845 146.159621 
L 510.160438 125.571796 
L 512.791535 115.161133 
L 514.918414 107.610982 
L 516.751931 101.88983 
L 518.383762 97.499104 
L 519.86891 94.116634 
L 521.244048 91.517185 
L 522.52751 89.549095 
L 523.728464 88.099593 
L 524.846909 87.085789 
L 525.882846 86.438797 
L 526.827107 86.10266 
L 527.707195 86.019116 
L 528.550613 86.160052 
L 529.384863 86.525442 
L 530.246616 87.152291 
L 531.14504 88.088548 
L 532.107636 89.423394 
L 533.152741 91.269346 
L 534.289521 93.747657 
L 535.545481 97.045468 
L 536.938953 101.360543 
L 538.50661 106.971537 
L 540.323442 114.339903 
L 542.541998 124.319545 
L 545.750653 139.896983 
L 550.325278 162.005131 
L 552.332979 170.583437 
L 553.983144 176.701551 
L 555.459125 181.353531 
L 556.834263 184.981649 
L 558.154395 187.859956 
L 559.447025 190.160898 
L 560.730487 192.004278 
L 562.032284 193.493674 
L 563.379919 194.702652 
L 564.810062 195.688268 
L 566.368551 196.49084 
L 568.11956 197.139347 
L 570.173099 197.656853 
L 572.710411 198.057198 
L 576.074915 198.349457 
L 581.107919 198.54311 
L 590.573176 198.648424 
L 621.623786 198.680629 
L 697.834928 198.797336 
L 705.819894 198.822969 
L 707.534233 198.581545 
L 708.854365 198.17606 
L 710.000313 197.592561 
L 711.07292 196.793357 
L 712.127193 195.724315 
L 713.218135 194.28922 
L 714.364083 192.401576 
L 715.610875 189.900311 
L 716.986013 186.618879 
L 718.544502 182.295554 
L 720.387187 176.48927 
L 722.746465 168.262348 
L 727.715296 149.858136 
L 730.85061 138.783695 
L 733.151674 131.441405 
L 735.067699 126.040462 
L 736.754534 121.926021 
L 738.276354 118.779653 
L 739.669827 116.388474 
L 740.971624 114.580374 
L 742.181745 113.265798 
L 743.30019 112.363945 
L 744.336127 111.800894 
L 745.307891 111.518446 
L 746.22465 111.479737 
L 747.113905 111.664008 
L 748.003161 112.077371 
L 748.91992 112.753591 
L 749.891684 113.756683 
L 750.927621 115.156584 
L 752.055234 117.068615 
L 753.292858 119.623243 
L 754.667995 122.993924 
L 756.226485 127.43165 
L 758.041667 133.306628 
L 760.30606 141.435834 
L 765.045702 159.56617 
L 767.612625 168.794377 
L 769.49198 174.755372 
L 771.114643 179.189177 
L 772.599792 182.620979 
L 774.002432 185.32136 
L 775.368402 187.481551 
L 776.716037 189.205371 
L 778.063672 190.573774 
L 779.411307 191.630758 
L 780.749775 192.402555 
L 782.033236 192.89121 
L 783.225023 193.113046 
L 784.325133 193.095549 
L 785.342735 192.859981 
L 786.314499 192.406986 
L 787.267927 191.714468 
L 788.230524 190.734279 
L 789.220623 189.399528 
L 790.25656 187.616985 
L 791.35667 185.264597 
L 792.548456 182.167547 
L 793.859421 178.114816 
L 795.353737 172.736105 
L 797.123081 165.488379 
L 799.387475 155.204774 
L 803.045341 137.399273 
L 808.6284 110.379339 
L 811.534525 97.410102 
L 813.863091 87.99228 
L 815.907463 80.620736 
L 817.786818 74.65377 
L 819.556162 69.755105 
L 821.261332 65.673364 
L 822.893163 62.317635 
L 824.524993 59.452665 
L 826.211828 56.950828 
L 827.871161 54.887983 
L 829.594667 53.104343 
L 831.254 51.680251 
L 833.078349 50.39275 
L 835.141056 49.225824 
L 837.561298 48.164994 
L 839.752351 47.426168 
L 842.612638 46.701692 
L 846.032147 46.098177 
L 850.212566 45.625615 
L 855.685614 45.277856 
L 863.771424 45.049904 
L 879.814697 44.936761 
L 996.218182 44.919206 
L 996.218182 44.919206 
" style="fill:none;stroke:#008000;stroke-linecap:square;stroke-width:1.5;"/>
   </g>
   <g id="line2d_17">
    <path clip-path="url(#pdfacf24163)" d="M 184.581818 44.919199 
L 328.364203 45.029475 
L 333.069466 45.309466 
L 336.295264 45.717852 
L 338.770512 46.249989 
L 340.787381 46.903054 
L 342.529222 47.693297 
L 344.087712 48.6395 
L 345.554525 49.797417 
L 346.929663 51.179739 
L 348.213125 52.788911 
L 349.496587 54.770002 
L 350.780049 57.19288 
L 352.063511 60.132745 
L 353.346972 63.666485 
L 354.630434 67.86689 
L 356.005572 73.175511 
L 357.472386 79.808107 
L 359.030875 87.946671 
L 360.864392 98.816269 
L 363.33964 115.041117 
L 367.648405 143.407125 
L 369.481922 153.925534 
L 371.040411 161.68933 
L 372.507225 167.9255 
L 373.882363 172.836331 
L 375.222114 176.800179 
L 376.505575 179.904923 
L 377.697361 182.245928 
L 378.889148 184.126899 
L 380.080934 185.606024 
L 381.27272 186.737094 
L 382.464506 187.568276 
L 383.656292 188.141658 
L 384.939754 188.512068 
L 386.314891 188.666175 
L 387.781705 188.595072 
L 389.340194 188.292593 
L 391.082035 187.717737 
L 393.007228 186.831517 
L 395.024097 185.656536 
L 397.315993 184.052303 
L 399.791241 182.041158 
L 402.724868 179.360656 
L 410.058936 172.487774 
L 411.617426 171.409708 
L 412.900888 170.782101 
L 414.000998 170.496004 
L 414.917756 170.478728 
L 415.742839 170.666743 
L 416.567922 171.076002 
L 417.366877 171.709288 
L 418.191959 172.634362 
L 419.108718 174.015386 
L 420.025476 175.796287 
L 421.033911 178.241668 
L 422.134021 181.502163 
L 423.417483 186.064176 
L 424.884296 192.160173 
L 426.901165 201.606075 
L 430.568199 218.89586 
L 432.126688 225.073289 
L 433.41015 229.288752 
L 434.51026 232.20966 
L 435.518695 234.318064 
L 436.435453 235.776909 
L 437.352212 236.825048 
L 438.177294 237.44393 
L 439.002377 237.783333 
L 439.82746 237.871777 
L 440.652542 237.73812 
L 441.569301 237.363464 
L 442.669411 236.64973 
L 443.952873 235.526254 
L 445.511362 233.852155 
L 447.711583 231.126767 
L 457.43839 218.646566 
L 460.188666 215.6737 
L 462.847265 213.115836 
L 465.559129 210.813449 
L 468.309404 208.765725 
L 471.243031 206.856626 
L 474.543362 204.982186 
L 478.577099 202.964363 
L 488.844794 197.965905 
L 491.59507 196.291855 
L 493.886966 194.646364 
L 495.995511 192.862052 
L 497.920704 190.948517 
L 499.754221 188.821852 
L 501.587738 186.348104 
L 503.421255 183.478559 
L 505.254771 180.169129 
L 507.061794 176.443993 
L 508.986987 171.951096 
L 511.095532 166.424672 
L 513.479104 159.512007 
L 517.237813 147.785824 
L 520.263116 138.631151 
L 522.096633 133.768221 
L 523.471771 130.690911 
L 524.663557 128.53179 
L 525.671992 127.135101 
L 526.58875 126.245718 
L 527.322157 125.813891 
L 528.055564 125.642734 
L 528.697295 125.713307 
L 529.339026 125.993282 
L 530.072432 126.571533 
L 530.897515 127.54978 
L 531.814273 129.034748 
L 532.822708 131.129754 
L 534.014494 134.177383 
L 535.389632 138.355864 
L 537.131473 144.419027 
L 540.213431 156.15178 
L 543.147059 166.969841 
L 545.072251 173.264938 
L 546.814093 178.226249 
L 548.372582 182.039114 
L 549.931071 185.27537 
L 551.397885 187.831661 
L 552.864699 189.961194 
L 554.331512 191.716279 
L 555.890002 193.22961 
L 557.448491 194.439211 
L 559.098656 195.448427 
L 560.932173 196.307697 
L 562.949042 197.006215 
L 565.332614 197.585511 
L 568.174565 198.033919 
L 571.723704 198.359009 
L 576.670808 198.573485 
L 584.921635 198.67841 
L 611.649453 198.684631 
L 678.986282 198.555169 
L 686.192095 198.309568 
L 690.775887 197.942983 
L 694.167894 197.456285 
L 696.826493 196.862161 
L 699.11839 196.127181 
L 701.135258 195.243963 
L 702.8771 194.246216 
L 704.527265 193.045314 
L 706.085754 191.628337 
L 707.552568 189.990266 
L 709.019381 188.000153 
L 710.394519 185.760096 
L 711.769657 183.102835 
L 713.144795 179.97386 
L 714.611608 176.058152 
L 716.078422 171.493743 
L 717.636911 165.894332 
L 719.287077 159.116343 
L 721.161298 150.424323 
L 723.388196 138.984956 
L 730.364728 102.253185 
L 732.014893 95.199057 
L 733.390031 90.249255 
L 734.581817 86.748342 
L 735.590251 84.413532 
L 736.50701 82.823665 
L 737.240416 81.934701 
L 737.882147 81.446271 
L 738.523878 81.235698 
L 739.073933 81.281527 
L 739.623989 81.540389 
L 740.26572 82.116225 
L 740.90745 82.99125 
L 741.640857 84.361771 
L 742.46594 86.378501 
L 743.382698 89.206234 
L 744.482809 93.395951 
L 745.674595 98.86083 
L 747.049732 106.228729 
L 748.791574 116.833151 
L 755.575586 159.622255 
L 757.134076 167.386369 
L 758.600889 173.600532 
L 759.976027 178.480518 
L 761.259489 182.267902 
L 762.542951 185.390878 
L 763.826413 187.932796 
L 765.109875 189.977017 
L 766.393337 191.601522 
L 767.676798 192.875941 
L 769.051936 193.92093 
L 770.427074 194.694411 
L 771.893888 195.275983 
L 773.544053 195.686601 
L 775.285894 195.892136 
L 777.211087 195.893277 
L 779.227955 195.672936 
L 781.3365 195.21623 
L 783.445045 194.524952 
L 785.461913 193.625256 
L 787.387106 192.519783 
L 789.220623 191.2082 
L 790.962464 189.691238 
L 792.704305 187.869326 
L 794.354471 185.821193 
L 796.004636 183.417695 
L 797.654801 180.61634 
L 799.304966 177.37554 
L 801.046808 173.43627 
L 802.788649 168.929893 
L 804.622166 163.551092 
L 806.547359 157.203303 
L 808.655903 149.474693 
L 811.131151 139.519063 
L 814.614833 124.459424 
L 820.023708 101.099423 
L 822.590632 91.057495 
L 824.790853 83.327043 
L 826.807721 77.043581 
L 828.641238 72.017724 
L 830.474755 67.631344 
L 832.216596 64.024371 
L 833.958438 60.920287 
L 835.700279 58.270529 
L 837.44212 56.024196 
L 839.183961 54.131009 
L 841.017478 52.467375 
L 842.942671 51.029272 
L 844.959539 49.805837 
L 847.15976 48.741602 
L 849.543332 47.843458 
L 852.201932 47.084707 
L 855.227235 46.455335 
L 858.894269 45.93073 
L 863.386385 45.524576 
L 869.345315 45.225108 
L 878.054521 45.031831 
L 894.006119 44.93724 
L 956.620724 44.91922 
L 996.133015 44.919206 
L 996.133015 44.919206 
" style="fill:none;stroke:#008000;stroke-dasharray:5.55,2.4;stroke-dashoffset:0;stroke-width:1.5;"/>
   </g>
   <g id="line2d_18">
    <path clip-path="url(#pdfacf24163)" d="M 184.581818 198.681223 
L 327.539121 198.790324 
L 332.031237 199.085982 
L 335.378506 199.52215 
L 338.037106 200.083456 
L 340.512354 200.830946 
L 344.546091 202.093321 
L 345.829553 202.230298 
L 346.929663 202.138809 
L 348.029773 201.821379 
L 349.129883 201.275043 
L 350.413345 200.38338 
L 352.155186 198.874671 
L 355.363841 196.045606 
L 356.647303 195.221237 
L 357.747413 194.765345 
L 358.755848 194.582712 
L 359.764282 194.633681 
L 360.772716 194.906025 
L 361.964502 195.467108 
L 363.706343 196.56952 
L 365.906564 197.917925 
L 367.09835 198.387735 
L 368.106784 198.562416 
L 369.115219 198.514021 
L 370.215329 198.220841 
L 371.498791 197.624885 
L 373.423983 196.445035 
L 376.780603 194.394695 
L 378.980823 193.338967 
L 381.639423 192.327649 
L 387.965057 190.016879 
L 390.623656 188.74264 
L 393.098904 187.308263 
L 395.574152 185.618761 
L 398.232752 183.523752 
L 401.166379 180.914674 
L 408.683799 174.043122 
L 410.333964 172.946132 
L 411.709102 172.299854 
L 412.809212 172.009303 
L 413.817646 171.958111 
L 414.734405 172.120941 
L 415.651163 172.51319 
L 416.567922 173.165719 
L 417.458552 174.078909 
L 418.375311 175.336565 
L 419.383745 177.125349 
L 420.39218 179.367561 
L 421.49229 182.3507 
L 422.775752 186.535397 
L 424.242565 192.172627 
L 426.076082 200.209532 
L 431.026578 222.464673 
L 432.493392 227.735702 
L 433.685178 231.250789 
L 434.785288 233.841871 
L 435.793722 235.667023 
L 436.710481 236.888404 
L 437.535563 237.653813 
L 438.360646 238.127964 
L 439.185729 238.337666 
L 440.010811 238.310924 
L 440.92757 238.038046 
L 441.936004 237.485316 
L 443.12779 236.552658 
L 444.594604 235.086034 
L 446.428121 232.914378 
L 449.361748 229.042561 
L 454.862299 221.764395 
L 457.805094 218.258675 
L 460.555369 215.320966 
L 463.213969 212.798999 
L 465.925832 210.529357 
L 468.767783 208.4402 
L 471.884762 206.431525 
L 475.368445 204.458441 
L 479.860561 202.187182 
L 484.53603 200.041643 
L 486.369547 199.440171 
L 487.653008 199.239458 
L 488.753119 199.288707 
L 489.761553 199.566414 
L 490.678311 200.045857 
L 491.59507 200.762872 
L 492.603504 201.839877 
L 493.703614 203.363562 
L 494.895401 205.412168 
L 496.270538 208.244229 
L 497.920704 212.18846 
L 500.2126 218.317488 
L 505.383943 232.347185 
L 507.245146 236.686027 
L 508.803635 239.801558 
L 510.178773 242.08744 
L 511.462235 243.789702 
L 512.562345 244.898787 
L 513.570779 245.623793 
L 514.579214 246.068491 
L 515.495972 246.233601 
L 516.412731 246.179977 
L 517.421165 245.885616 
L 518.521275 245.314608 
L 519.804737 244.380532 
L 521.638254 242.727565 
L 524.663557 239.983272 
L 526.038695 239.049048 
L 527.230481 238.499001 
L 528.330591 238.227077 
L 529.430701 238.179432 
L 530.622487 238.358473 
L 531.997625 238.808593 
L 533.922818 239.708933 
L 536.489742 240.889669 
L 537.773204 241.230437 
L 538.815191 241.286731 
L 539.755052 241.124344 
L 540.671811 240.74231 
L 541.588569 240.118651 
L 542.597004 239.137799 
L 543.605438 237.841373 
L 544.705548 236.0725 
L 545.98901 233.570429 
L 547.547499 229.98779 
L 549.656044 224.497236 
L 553.414754 214.641341 
L 555.064919 210.962485 
L 556.531733 208.20206 
L 557.90687 206.063495 
L 559.282008 204.33355 
L 560.657146 202.965547 
L 562.032284 201.903954 
L 563.499097 201.046305 
L 565.149262 200.345257 
L 566.982779 199.808086 
L 569.274676 199.381248 
L 572.178692 199.079328 
L 576.487456 198.876358 
L 584.646607 198.755592 
L 608.899178 198.68848 
L 680.361419 198.527163 
L 686.925502 198.263699 
L 691.050915 197.887685 
L 694.25957 197.378755 
L 696.918169 196.736442 
L 699.210066 195.952231 
L 701.226934 195.02098 
L 703.060451 193.923119 
L 704.802292 192.624307 
L 706.727485 190.906306 
L 709.294409 188.28289 
L 714.519932 182.888315 
L 718.003615 179.2807 
L 719.928807 176.939792 
L 721.73803 174.37963 
L 723.754899 171.125626 
L 729.356293 161.798026 
L 730.731431 160.088095 
L 731.831541 159.054495 
L 732.839976 158.413607 
L 733.665058 158.1302 
L 734.490141 158.079555 
L 735.315224 158.274761 
L 736.140306 158.728024 
L 736.965389 159.451219 
L 737.882147 160.58597 
L 738.798906 162.085773 
L 739.80734 164.177769 
L 740.90745 167.01256 
L 742.099237 170.75707 
L 743.382698 175.578053 
L 744.849512 182.038374 
L 746.591353 190.810814 
L 752.825311 223.422385 
L 754.108773 228.419251 
L 755.208883 231.84553 
L 756.125641 234.051597 
L 756.950724 235.522737 
L 757.684131 236.425898 
L 758.325862 236.912835 
L 758.967593 237.128266 
L 759.609324 237.08613 
L 760.251055 236.802635 
L 760.984461 236.206206 
L 761.809544 235.222624 
L 762.817978 233.632431 
L 764.009764 231.309205 
L 765.65993 227.543272 
L 771.527184 213.629848 
L 773.177349 210.501428 
L 774.735839 207.995185 
L 776.294328 205.894816 
L 777.944494 204.053544 
L 779.594659 202.538804 
L 781.3365 201.240672 
L 782.986665 200.289535 
L 784.361803 199.736865 
L 785.553589 199.477845 
L 786.653699 199.462389 
L 787.662134 199.67234 
L 788.670568 200.12796 
L 789.679002 200.856276 
L 790.687437 201.878042 
L 791.787547 203.339318 
L 792.979333 205.323583 
L 794.354471 208.084755 
L 796.004636 211.92962 
L 798.663236 218.783347 
L 801.780214 226.654385 
L 803.613731 230.679841 
L 805.172221 233.567221 
L 806.547359 235.644513 
L 807.739145 237.062995 
L 808.839255 238.045994 
L 809.847689 238.665917 
L 810.764448 238.993566 
L 811.681206 239.096323 
L 812.597965 238.976582 
L 813.514723 238.639918 
L 814.523157 238.029912 
L 815.623268 237.097588 
L 816.90673 235.694879 
L 818.373543 233.742261 
L 820.20706 230.907018 
L 822.957336 226.193882 
L 827.449452 218.513616 
L 829.833024 214.893748 
L 831.941569 212.077026 
L 833.958438 209.740527 
L 835.975306 207.744881 
L 837.992175 206.066925 
L 840.009044 204.673796 
L 842.117588 203.480782 
L 844.409484 202.440333 
L 846.976408 201.532089 
L 849.818359 200.77457 
L 853.027014 200.154463 
L 856.8774 199.645109 
L 861.552868 199.255369 
L 867.786826 198.967905 
L 877.046087 198.782818 
L 894.006119 198.696189 
L 996.133015 198.68123 
L 996.133015 198.68123 
" style="fill:none;stroke:#008000;stroke-dasharray:9.6,2.4,1.5,2.4;stroke-dashoffset:0;stroke-width:1.5;"/>
   </g>
   <g id="patch_3">
    <path d="M 144 256.32 
L 144 34.56 
" style="fill:none;stroke:#000000;stroke-linecap:square;stroke-linejoin:miter;stroke-width:0.8;"/>
   </g>
   <g id="patch_4">
    <path d="M 1036.8 256.32 
L 1036.8 34.56 
" style="fill:none;stroke:#000000;stroke-linecap:square;stroke-linejoin:miter;stroke-width:0.8;"/>
   </g>
   <g id="patch_5">
    <path d="M 144 256.32 
L 1036.8 256.32 
" style="fill:none;stroke:#000000;stroke-linecap:square;stroke-linejoin:miter;stroke-width:0.8;"/>
   </g>
   <g id="patch_6">
    <path d="M 144 34.56 
L 1036.8 34.56 
" style="fill:none;stroke:#000000;stroke-linecap:square;stroke-linejoin:miter;stroke-width:0.8;"/>
   </g>
   <g id="text_18">
    <!-- In  RMSE: 0.0 -->
    <g transform="translate(184.581818 168.199415)scale(0.1 -0.1)">
     <defs>
      <path d="M 9.8125 72.90625 
L 50.296875 72.90625 
L 50.296875 64.59375 
L 35.015625 64.59375 
L 35.015625 8.296875 
L 50.296875 8.296875 
L 50.296875 0 
L 9.8125 0 
L 9.8125 8.296875 
L 25.09375 8.296875 
L 25.09375 64.59375 
L 9.8125 64.59375 
z
" id="DejaVuSansMono-73"/>
      <path d="M 51.3125 33.890625 
L 51.3125 0 
L 42.28125 0 
L 42.28125 33.890625 
Q 42.28125 41.265625 39.6875 44.71875 
Q 37.109375 48.1875 31.59375 48.1875 
Q 25.296875 48.1875 21.890625 43.71875 
Q 18.5 39.265625 18.5 30.90625 
L 18.5 0 
L 9.515625 0 
L 9.515625 54.6875 
L 18.5 54.6875 
L 18.5 46.484375 
Q 20.90625 51.171875 25 53.578125 
Q 29.109375 56 34.71875 56 
Q 43.0625 56 47.1875 50.5 
Q 51.3125 45.015625 51.3125 33.890625 
z
" id="DejaVuSansMono-110"/>
      <path id="DejaVuSansMono-32"/>
      <path d="M 37.109375 34.421875 
Q 40.921875 33.453125 43.609375 30.734375 
Q 46.296875 28.03125 50.296875 19.921875 
L 60.203125 0 
L 49.609375 0 
L 40.921875 18.40625 
Q 37.15625 26.265625 34.15625 28.53125 
Q 31.15625 30.8125 26.3125 30.8125 
L 16.890625 30.8125 
L 16.890625 0 
L 6.984375 0 
L 6.984375 72.90625 
L 27.296875 72.90625 
Q 39.3125 72.90625 45.703125 67.484375 
Q 52.09375 62.0625 52.09375 51.8125 
Q 52.09375 44.578125 48.15625 40.015625 
Q 44.234375 35.453125 37.109375 34.421875 
z
M 16.890625 64.796875 
L 16.890625 38.921875 
L 27.6875 38.921875 
Q 34.765625 38.921875 38.234375 42.09375 
Q 41.703125 45.265625 41.703125 51.8125 
Q 41.703125 58.109375 38.015625 61.453125 
Q 34.328125 64.796875 27.296875 64.796875 
z
" id="DejaVuSansMono-82"/>
      <path d="M 4.203125 72.90625 
L 17.390625 72.90625 
L 29.984375 35.796875 
L 42.671875 72.90625 
L 55.90625 72.90625 
L 55.90625 0 
L 46.78125 0 
L 46.78125 64.40625 
L 33.796875 25.984375 
L 26.3125 25.984375 
L 13.28125 64.40625 
L 13.28125 0 
L 4.203125 0 
z
" id="DejaVuSansMono-77"/>
      <path d="M 49.421875 70.40625 
L 49.421875 60.40625 
Q 44.921875 63.28125 40.40625 64.75 
Q 35.890625 66.21875 31.296875 66.21875 
Q 24.3125 66.21875 20.265625 62.96875 
Q 16.21875 59.71875 16.21875 54.203125 
Q 16.21875 49.359375 18.875 46.8125 
Q 21.53125 44.28125 28.8125 42.578125 
L 33.984375 41.40625 
Q 44.234375 39.015625 48.921875 33.890625 
Q 53.609375 28.765625 53.609375 19.921875 
Q 53.609375 9.515625 47.15625 4.046875 
Q 40.71875 -1.421875 28.421875 -1.421875 
Q 23.296875 -1.421875 18.109375 -0.3125 
Q 12.9375 0.78125 7.71875 2.984375 
L 7.71875 13.484375 
Q 13.328125 9.90625 18.328125 8.25 
Q 23.34375 6.59375 28.421875 6.59375 
Q 35.890625 6.59375 40.03125 9.9375 
Q 44.1875 13.28125 44.1875 19.28125 
Q 44.1875 24.75 41.328125 27.625 
Q 38.484375 30.515625 31.390625 32.078125 
L 26.125 33.296875 
Q 15.96875 35.59375 11.375 40.234375 
Q 6.78125 44.875 6.78125 52.6875 
Q 6.78125 62.453125 13.34375 68.328125 
Q 19.921875 74.21875 30.8125 74.21875 
Q 35.015625 74.21875 39.640625 73.265625 
Q 44.28125 72.3125 49.421875 70.40625 
z
" id="DejaVuSansMono-83"/>
      <path d="M 9.625 72.90625 
L 52.875 72.90625 
L 52.875 64.59375 
L 19.484375 64.59375 
L 19.484375 43.015625 
L 51.421875 43.015625 
L 51.421875 34.71875 
L 19.484375 34.71875 
L 19.484375 8.296875 
L 53.8125 8.296875 
L 53.8125 0 
L 9.625 0 
z
" id="DejaVuSansMono-69"/>
      <path d="M 23.875 51.90625 
L 36.1875 51.90625 
L 36.1875 37.109375 
L 23.875 37.109375 
z
M 23.875 14.890625 
L 36.1875 14.890625 
L 36.1875 0 
L 23.875 0 
z
" id="DejaVuSansMono-58"/>
      <path d="M 23.578125 36.625 
Q 23.578125 39.3125 25.453125 41.265625 
Q 27.34375 43.21875 29.984375 43.21875 
Q 32.71875 43.21875 34.671875 41.265625 
Q 36.625 39.3125 36.625 36.625 
Q 36.625 33.890625 34.6875 31.984375 
Q 32.765625 30.078125 29.984375 30.078125 
Q 27.25 30.078125 25.40625 31.9375 
Q 23.578125 33.796875 23.578125 36.625 
z
M 30.078125 66.40625 
Q 23.1875 66.40625 19.796875 58.984375 
Q 16.40625 51.5625 16.40625 36.375 
Q 16.40625 21.234375 19.796875 13.8125 
Q 23.1875 6.390625 30.078125 6.390625 
Q 37.015625 6.390625 40.40625 13.8125 
Q 43.796875 21.234375 43.796875 36.375 
Q 43.796875 51.5625 40.40625 58.984375 
Q 37.015625 66.40625 30.078125 66.40625 
z
M 30.078125 74.21875 
Q 41.75 74.21875 47.734375 64.640625 
Q 53.71875 55.078125 53.71875 36.375 
Q 53.71875 17.71875 47.734375 8.140625 
Q 41.75 -1.421875 30.078125 -1.421875 
Q 18.40625 -1.421875 12.453125 8.140625 
Q 6.5 17.71875 6.5 36.375 
Q 6.5 55.078125 12.453125 64.640625 
Q 18.40625 74.21875 30.078125 74.21875 
z
" id="DejaVuSansMono-48"/>
      <path d="M 23.875 14.890625 
L 36.1875 14.890625 
L 36.1875 0 
L 23.875 0 
z
" id="DejaVuSansMono-46"/>
     </defs>
     <use xlink:href="#DejaVuSansMono-73"/>
     <use x="60.205078" xlink:href="#DejaVuSansMono-110"/>
     <use x="120.410156" xlink:href="#DejaVuSansMono-32"/>
     <use x="180.615234" xlink:href="#DejaVuSansMono-32"/>
     <use x="240.820312" xlink:href="#DejaVuSansMono-82"/>
     <use x="301.025391" xlink:href="#DejaVuSansMono-77"/>
     <use x="361.230469" xlink:href="#DejaVuSansMono-83"/>
     <use x="421.435547" xlink:href="#DejaVuSansMono-69"/>
     <use x="481.640625" xlink:href="#DejaVuSansMono-58"/>
     <use x="541.845703" xlink:href="#DejaVuSansMono-32"/>
     <use x="602.050781" xlink:href="#DejaVuSansMono-48"/>
     <use x="662.255859" xlink:href="#DejaVuSansMono-46"/>
     <use x="722.460938" xlink:href="#DejaVuSansMono-48"/>
    </g>
    <!-- Out RMSE: 0.10626 -->
    <g transform="translate(184.581818 179.460977)scale(0.1 -0.1)">
     <defs>
      <path d="M 44.1875 36.375 
Q 44.1875 52.4375 40.890625 59.328125 
Q 37.59375 66.21875 30.078125 66.21875 
Q 22.609375 66.21875 19.3125 59.328125 
Q 16.015625 52.4375 16.015625 36.375 
Q 16.015625 20.359375 19.3125 13.46875 
Q 22.609375 6.59375 30.078125 6.59375 
Q 37.59375 6.59375 40.890625 13.453125 
Q 44.1875 20.3125 44.1875 36.375 
z
M 54.5 36.375 
Q 54.5 17.328125 48.46875 7.953125 
Q 42.4375 -1.421875 30.078125 -1.421875 
Q 17.71875 -1.421875 11.71875 7.90625 
Q 5.71875 17.234375 5.71875 36.375 
Q 5.71875 55.46875 11.75 64.84375 
Q 17.78125 74.21875 30.078125 74.21875 
Q 42.4375 74.21875 48.46875 64.84375 
Q 54.5 55.46875 54.5 36.375 
z
" id="DejaVuSansMono-79"/>
      <path d="M 9.515625 20.703125 
L 9.515625 54.59375 
L 18.5 54.59375 
L 18.5 20.703125 
Q 18.5 13.328125 21.109375 9.859375 
Q 23.734375 6.390625 29.203125 6.390625 
Q 35.546875 6.390625 38.90625 10.859375 
Q 42.28125 15.328125 42.28125 23.6875 
L 42.28125 54.59375 
L 51.3125 54.59375 
L 51.3125 0 
L 42.28125 0 
L 42.28125 8.203125 
Q 39.890625 3.46875 35.765625 1.015625 
Q 31.640625 -1.421875 26.125 -1.421875 
Q 17.71875 -1.421875 13.609375 4.078125 
Q 9.515625 9.578125 9.515625 20.703125 
z
" id="DejaVuSansMono-117"/>
      <path d="M 29.984375 70.21875 
L 29.984375 54.6875 
L 50.390625 54.6875 
L 50.390625 47.703125 
L 29.984375 47.703125 
L 29.984375 18.015625 
Q 29.984375 11.96875 32.28125 9.5625 
Q 34.578125 7.171875 40.28125 7.171875 
L 50.390625 7.171875 
L 50.390625 0 
L 39.40625 0 
Q 29.296875 0 25.140625 4.046875 
Q 21 8.109375 21 18.015625 
L 21 47.703125 
L 6.390625 47.703125 
L 6.390625 54.6875 
L 21 54.6875 
L 21 70.21875 
z
" id="DejaVuSansMono-116"/>
      <path d="M 13.1875 8.296875 
L 28.515625 8.296875 
L 28.515625 64.015625 
L 12.015625 60.296875 
L 12.015625 69.28125 
L 28.421875 72.90625 
L 38.28125 72.90625 
L 38.28125 8.296875 
L 53.421875 8.296875 
L 53.421875 0 
L 13.1875 0 
z
" id="DejaVuSansMono-49"/>
      <path d="M 48.390625 71.296875 
L 48.390625 62.203125 
Q 45.3125 64.015625 41.84375 64.96875 
Q 38.375 65.921875 34.625 65.921875 
Q 25.25 65.921875 20.40625 58.859375 
Q 15.578125 51.8125 15.578125 38.09375 
Q 17.921875 42.96875 22.0625 45.578125 
Q 26.21875 48.1875 31.59375 48.1875 
Q 42.140625 48.1875 47.921875 41.71875 
Q 53.71875 35.25 53.71875 23.390625 
Q 53.71875 11.578125 47.75 5.078125 
Q 41.796875 -1.421875 31 -1.421875 
Q 18.3125 -1.421875 12.40625 7.6875 
Q 6.5 16.796875 6.5 36.375 
Q 6.5 54.828125 13.59375 64.515625 
Q 20.703125 74.21875 34.1875 74.21875 
Q 37.796875 74.21875 41.40625 73.453125 
Q 45.015625 72.703125 48.390625 71.296875 
z
M 30.8125 40.484375 
Q 24.515625 40.484375 20.890625 35.9375 
Q 17.28125 31.390625 17.28125 23.390625 
Q 17.28125 15.375 20.890625 10.828125 
Q 24.515625 6.296875 30.8125 6.296875 
Q 37.359375 6.296875 40.671875 10.609375 
Q 44 14.9375 44 23.390625 
Q 44 31.890625 40.671875 36.1875 
Q 37.359375 40.484375 30.8125 40.484375 
z
" id="DejaVuSansMono-54"/>
      <path d="M 18.21875 8.296875 
L 51.703125 8.296875 
L 51.703125 0 
L 7.421875 0 
L 7.421875 8.296875 
Q 16.546875 17.921875 23.375 25.296875 
Q 30.21875 32.671875 32.8125 35.6875 
Q 37.703125 41.65625 39.40625 45.34375 
Q 41.109375 49.03125 41.109375 52.875 
Q 41.109375 58.984375 37.515625 62.453125 
Q 33.9375 65.921875 27.6875 65.921875 
Q 23.25 65.921875 18.359375 64.3125 
Q 13.484375 62.703125 8.015625 59.421875 
L 8.015625 69.390625 
Q 13.03125 71.78125 17.890625 73 
Q 22.75 74.21875 27.484375 74.21875 
Q 38.1875 74.21875 44.703125 68.53125 
Q 51.21875 62.84375 51.21875 53.609375 
Q 51.21875 48.921875 49.046875 44.234375 
Q 46.875 39.546875 42 33.890625 
Q 39.265625 30.71875 34.0625 25.09375 
Q 28.859375 19.484375 18.21875 8.296875 
z
" id="DejaVuSansMono-50"/>
     </defs>
     <use xlink:href="#DejaVuSansMono-79"/>
     <use x="60.205078" xlink:href="#DejaVuSansMono-117"/>
     <use x="120.410156" xlink:href="#DejaVuSansMono-116"/>
     <use x="180.615234" xlink:href="#DejaVuSansMono-32"/>
     <use x="240.820312" xlink:href="#DejaVuSansMono-82"/>
     <use x="301.025391" xlink:href="#DejaVuSansMono-77"/>
     <use x="361.230469" xlink:href="#DejaVuSansMono-83"/>
     <use x="421.435547" xlink:href="#DejaVuSansMono-69"/>
     <use x="481.640625" xlink:href="#DejaVuSansMono-58"/>
     <use x="541.845703" xlink:href="#DejaVuSansMono-32"/>
     <use x="602.050781" xlink:href="#DejaVuSansMono-48"/>
     <use x="662.255859" xlink:href="#DejaVuSansMono-46"/>
     <use x="722.460938" xlink:href="#DejaVuSansMono-49"/>
     <use x="782.666016" xlink:href="#DejaVuSansMono-48"/>
     <use x="842.871094" xlink:href="#DejaVuSansMono-54"/>
     <use x="903.076172" xlink:href="#DejaVuSansMono-50"/>
     <use x="963.28125" xlink:href="#DejaVuSansMono-54"/>
    </g>
   </g>
   <g id="text_19">
    <!-- ..\WaveformData\t4_traces\inv_t4_invSim_620_200Traces fitting using transfer functions -->
    <g transform="translate(325.554375 28.56)scale(0.12 -0.12)">
     <defs>
      <path d="M 8.296875 72.90625 
L 33.6875 -9.28125 
L 25.390625 -9.28125 
L 0 72.90625 
z
" id="DejaVuSans-92"/>
      <path d="M 3.328125 72.90625 
L 13.28125 72.90625 
L 28.609375 11.28125 
L 43.890625 72.90625 
L 54.984375 72.90625 
L 70.3125 11.28125 
L 85.59375 72.90625 
L 95.609375 72.90625 
L 77.296875 0 
L 64.890625 0 
L 49.515625 63.28125 
L 33.984375 0 
L 21.578125 0 
z
" id="DejaVuSans-87"/>
      <path d="M 2.984375 54.6875 
L 12.5 54.6875 
L 29.59375 8.796875 
L 46.6875 54.6875 
L 56.203125 54.6875 
L 35.6875 0 
L 23.484375 0 
z
" id="DejaVuSans-118"/>
      <path d="M 37.109375 75.984375 
L 37.109375 68.5 
L 28.515625 68.5 
Q 23.6875 68.5 21.796875 66.546875 
Q 19.921875 64.59375 19.921875 59.515625 
L 19.921875 54.6875 
L 34.71875 54.6875 
L 34.71875 47.703125 
L 19.921875 47.703125 
L 19.921875 0 
L 10.890625 0 
L 10.890625 47.703125 
L 2.296875 47.703125 
L 2.296875 54.6875 
L 10.890625 54.6875 
L 10.890625 58.5 
Q 10.890625 67.625 15.140625 71.796875 
Q 19.390625 75.984375 28.609375 75.984375 
z
" id="DejaVuSans-102"/>
      <path d="M 41.109375 46.296875 
Q 39.59375 47.171875 37.8125 47.578125 
Q 36.03125 48 33.890625 48 
Q 26.265625 48 22.1875 43.046875 
Q 18.109375 38.09375 18.109375 28.8125 
L 18.109375 0 
L 9.078125 0 
L 9.078125 54.6875 
L 18.109375 54.6875 
L 18.109375 46.1875 
Q 20.953125 51.171875 25.484375 53.578125 
Q 30.03125 56 36.53125 56 
Q 37.453125 56 38.578125 55.875 
Q 39.703125 55.765625 41.0625 55.515625 
z
" id="DejaVuSans-114"/>
      <path d="M 19.671875 64.796875 
L 19.671875 8.109375 
L 31.59375 8.109375 
Q 46.6875 8.109375 53.6875 14.9375 
Q 60.6875 21.78125 60.6875 36.53125 
Q 60.6875 51.171875 53.6875 57.984375 
Q 46.6875 64.796875 31.59375 64.796875 
z
M 9.8125 72.90625 
L 30.078125 72.90625 
Q 51.265625 72.90625 61.171875 64.09375 
Q 71.09375 55.28125 71.09375 36.53125 
Q 71.09375 17.671875 61.125 8.828125 
Q 51.171875 0 30.078125 0 
L 9.8125 0 
z
" id="DejaVuSans-68"/>
      <path d="M 50.984375 -16.609375 
L 50.984375 -23.578125 
L -0.984375 -23.578125 
L -0.984375 -16.609375 
z
" id="DejaVuSans-95"/>
      <path d="M 48.78125 52.59375 
L 48.78125 44.1875 
Q 44.96875 46.296875 41.140625 47.34375 
Q 37.3125 48.390625 33.40625 48.390625 
Q 24.65625 48.390625 19.8125 42.84375 
Q 14.984375 37.3125 14.984375 27.296875 
Q 14.984375 17.28125 19.8125 11.734375 
Q 24.65625 6.203125 33.40625 6.203125 
Q 37.3125 6.203125 41.140625 7.25 
Q 44.96875 8.296875 48.78125 10.40625 
L 48.78125 2.09375 
Q 45.015625 0.34375 40.984375 -0.53125 
Q 36.96875 -1.421875 32.421875 -1.421875 
Q 20.0625 -1.421875 12.78125 6.34375 
Q 5.515625 14.109375 5.515625 27.296875 
Q 5.515625 40.671875 12.859375 48.328125 
Q 20.21875 56 33.015625 56 
Q 37.15625 56 41.109375 55.140625 
Q 45.0625 54.296875 48.78125 52.59375 
z
" id="DejaVuSans-99"/>
      <path d="M 54.890625 33.015625 
L 54.890625 0 
L 45.90625 0 
L 45.90625 32.71875 
Q 45.90625 40.484375 42.875 44.328125 
Q 39.84375 48.1875 33.796875 48.1875 
Q 26.515625 48.1875 22.3125 43.546875 
Q 18.109375 38.921875 18.109375 30.90625 
L 18.109375 0 
L 9.078125 0 
L 9.078125 54.6875 
L 18.109375 54.6875 
L 18.109375 46.1875 
Q 21.34375 51.125 25.703125 53.5625 
Q 30.078125 56 35.796875 56 
Q 45.21875 56 50.046875 50.171875 
Q 54.890625 44.34375 54.890625 33.015625 
z
" id="DejaVuSans-110"/>
      <path d="M 53.515625 70.515625 
L 53.515625 60.890625 
Q 47.90625 63.578125 42.921875 64.890625 
Q 37.9375 66.21875 33.296875 66.21875 
Q 25.25 66.21875 20.875 63.09375 
Q 16.5 59.96875 16.5 54.203125 
Q 16.5 49.359375 19.40625 46.890625 
Q 22.3125 44.4375 30.421875 42.921875 
L 36.375 41.703125 
Q 47.40625 39.59375 52.65625 34.296875 
Q 57.90625 29 57.90625 20.125 
Q 57.90625 9.515625 50.796875 4.046875 
Q 43.703125 -1.421875 29.984375 -1.421875 
Q 24.8125 -1.421875 18.96875 -0.25 
Q 13.140625 0.921875 6.890625 3.21875 
L 6.890625 13.375 
Q 12.890625 10.015625 18.65625 8.296875 
Q 24.421875 6.59375 29.984375 6.59375 
Q 38.421875 6.59375 43.015625 9.90625 
Q 47.609375 13.234375 47.609375 19.390625 
Q 47.609375 24.75 44.3125 27.78125 
Q 41.015625 30.8125 33.5 32.328125 
L 27.484375 33.5 
Q 16.453125 35.6875 11.515625 40.375 
Q 6.59375 45.0625 6.59375 53.421875 
Q 6.59375 63.09375 13.40625 68.65625 
Q 20.21875 74.21875 32.171875 74.21875 
Q 37.3125 74.21875 42.625 73.28125 
Q 47.953125 72.359375 53.515625 70.515625 
z
" id="DejaVuSans-83"/>
      <path d="M 8.5 21.578125 
L 8.5 54.6875 
L 17.484375 54.6875 
L 17.484375 21.921875 
Q 17.484375 14.15625 20.5 10.265625 
Q 23.53125 6.390625 29.59375 6.390625 
Q 36.859375 6.390625 41.078125 11.03125 
Q 45.3125 15.671875 45.3125 23.6875 
L 45.3125 54.6875 
L 54.296875 54.6875 
L 54.296875 0 
L 45.3125 0 
L 45.3125 8.40625 
Q 42.046875 3.421875 37.71875 1 
Q 33.40625 -1.421875 27.6875 -1.421875 
Q 18.265625 -1.421875 13.375 4.4375 
Q 8.5 10.296875 8.5 21.578125 
z
M 31.109375 56 
z
" id="DejaVuSans-117"/>
     </defs>
     <use xlink:href="#DejaVuSans-46"/>
     <use x="31.787109" xlink:href="#DejaVuSans-46"/>
     <use x="63.574219" xlink:href="#DejaVuSans-92"/>
     <use x="97.265625" xlink:href="#DejaVuSans-87"/>
     <use x="189.767578" xlink:href="#DejaVuSans-97"/>
     <use x="251.046875" xlink:href="#DejaVuSans-118"/>
     <use x="310.226562" xlink:href="#DejaVuSans-101"/>
     <use x="371.75" xlink:href="#DejaVuSans-102"/>
     <use x="406.955078" xlink:href="#DejaVuSans-111"/>
     <use x="468.136719" xlink:href="#DejaVuSans-114"/>
     <use x="507.5" xlink:href="#DejaVuSans-109"/>
     <use x="604.912109" xlink:href="#DejaVuSans-68"/>
     <use x="681.914062" xlink:href="#DejaVuSans-97"/>
     <use x="743.193359" xlink:href="#DejaVuSans-116"/>
     <use x="782.402344" xlink:href="#DejaVuSans-97"/>
     <use x="843.681641" xlink:href="#DejaVuSans-92"/>
     <use x="877.373047" xlink:href="#DejaVuSans-116"/>
     <use x="916.582031" xlink:href="#DejaVuSans-52"/>
     <use x="980.205078" xlink:href="#DejaVuSans-95"/>
     <use x="1030.205078" xlink:href="#DejaVuSans-116"/>
     <use x="1069.414062" xlink:href="#DejaVuSans-114"/>
     <use x="1110.527344" xlink:href="#DejaVuSans-97"/>
     <use x="1171.806641" xlink:href="#DejaVuSans-99"/>
     <use x="1226.787109" xlink:href="#DejaVuSans-101"/>
     <use x="1288.310547" xlink:href="#DejaVuSans-115"/>
     <use x="1340.410156" xlink:href="#DejaVuSans-92"/>
     <use x="1374.101562" xlink:href="#DejaVuSans-105"/>
     <use x="1401.884766" xlink:href="#DejaVuSans-110"/>
     <use x="1465.263672" xlink:href="#DejaVuSans-118"/>
     <use x="1524.443359" xlink:href="#DejaVuSans-95"/>
     <use x="1574.443359" xlink:href="#DejaVuSans-116"/>
     <use x="1613.652344" xlink:href="#DejaVuSans-52"/>
     <use x="1677.275391" xlink:href="#DejaVuSans-95"/>
     <use x="1727.275391" xlink:href="#DejaVuSans-105"/>
     <use x="1755.058594" xlink:href="#DejaVuSans-110"/>
     <use x="1818.4375" xlink:href="#DejaVuSans-118"/>
     <use x="1877.617188" xlink:href="#DejaVuSans-83"/>
     <use x="1941.09375" xlink:href="#DejaVuSans-105"/>
     <use x="1968.876953" xlink:href="#DejaVuSans-109"/>
     <use x="2066.289062" xlink:href="#DejaVuSans-95"/>
     <use x="2116.289062" xlink:href="#DejaVuSans-54"/>
     <use x="2179.912109" xlink:href="#DejaVuSans-50"/>
     <use x="2243.535156" xlink:href="#DejaVuSans-48"/>
     <use x="2307.158203" xlink:href="#DejaVuSans-95"/>
     <use x="2357.158203" xlink:href="#DejaVuSans-50"/>
     <use x="2420.78125" xlink:href="#DejaVuSans-48"/>
     <use x="2484.404297" xlink:href="#DejaVuSans-48"/>
     <use x="2548.027344" xlink:href="#DejaVuSans-84"/>
     <use x="2594.361328" xlink:href="#DejaVuSans-114"/>
     <use x="2635.474609" xlink:href="#DejaVuSans-97"/>
     <use x="2696.753906" xlink:href="#DejaVuSans-99"/>
     <use x="2751.734375" xlink:href="#DejaVuSans-101"/>
     <use x="2813.257812" xlink:href="#DejaVuSans-115"/>
     <use x="2865.357422" xlink:href="#DejaVuSans-32"/>
     <use x="2897.144531" xlink:href="#DejaVuSans-102"/>
     <use x="2932.349609" xlink:href="#DejaVuSans-105"/>
     <use x="2960.132812" xlink:href="#DejaVuSans-116"/>
     <use x="2999.341797" xlink:href="#DejaVuSans-116"/>
     <use x="3038.550781" xlink:href="#DejaVuSans-105"/>
     <use x="3066.333984" xlink:href="#DejaVuSans-110"/>
     <use x="3129.712891" xlink:href="#DejaVuSans-103"/>
     <use x="3193.189453" xlink:href="#DejaVuSans-32"/>
     <use x="3224.976562" xlink:href="#DejaVuSans-117"/>
     <use x="3288.355469" xlink:href="#DejaVuSans-115"/>
     <use x="3340.455078" xlink:href="#DejaVuSans-105"/>
     <use x="3368.238281" xlink:href="#DejaVuSans-110"/>
     <use x="3431.617188" xlink:href="#DejaVuSans-103"/>
     <use x="3495.09375" xlink:href="#DejaVuSans-32"/>
     <use x="3526.880859" xlink:href="#DejaVuSans-116"/>
     <use x="3566.089844" xlink:href="#DejaVuSans-114"/>
     <use x="3607.203125" xlink:href="#DejaVuSans-97"/>
     <use x="3668.482422" xlink:href="#DejaVuSans-110"/>
     <use x="3731.861328" xlink:href="#DejaVuSans-115"/>
     <use x="3783.960938" xlink:href="#DejaVuSans-102"/>
     <use x="3819.166016" xlink:href="#DejaVuSans-101"/>
     <use x="3880.689453" xlink:href="#DejaVuSans-114"/>
     <use x="3921.802734" xlink:href="#DejaVuSans-32"/>
     <use x="3953.589844" xlink:href="#DejaVuSans-102"/>
     <use x="3988.794922" xlink:href="#DejaVuSans-117"/>
     <use x="4052.173828" xlink:href="#DejaVuSans-110"/>
     <use x="4115.552734" xlink:href="#DejaVuSans-99"/>
     <use x="4170.533203" xlink:href="#DejaVuSans-116"/>
     <use x="4209.742188" xlink:href="#DejaVuSans-105"/>
     <use x="4237.525391" xlink:href="#DejaVuSans-111"/>
     <use x="4298.707031" xlink:href="#DejaVuSans-110"/>
     <use x="4362.085938" xlink:href="#DejaVuSans-115"/>
    </g>
   </g>
   <g id="legend_1">
    <g id="patch_7">
     <path d="M 151 176.29625 
L 368.865625 176.29625 
Q 370.865625 176.29625 370.865625 174.29625 
L 370.865625 116.58375 
Q 370.865625 114.58375 368.865625 114.58375 
L 151 114.58375 
Q 149 114.58375 149 116.58375 
L 149 174.29625 
Q 149 176.29625 151 176.29625 
z
" style="fill:#ffffff;opacity:0.8;stroke:#cccccc;stroke-linejoin:miter;"/>
    </g>
    <g id="line2d_19">
     <path d="M 153 122.682187 
L 173 122.682187 
" style="fill:none;stroke:#ff0000;stroke-linecap:square;stroke-width:1.5;"/>
    </g>
    <g id="line2d_20"/>
    <g id="text_20">
     <!-- Input -->
     <g transform="translate(181 126.182187)scale(0.1 -0.1)">
      <defs>
       <path d="M 9.8125 72.90625 
L 19.671875 72.90625 
L 19.671875 0 
L 9.8125 0 
z
" id="DejaVuSans-73"/>
       <path d="M 18.109375 8.203125 
L 18.109375 -20.796875 
L 9.078125 -20.796875 
L 9.078125 54.6875 
L 18.109375 54.6875 
L 18.109375 46.390625 
Q 20.953125 51.265625 25.265625 53.625 
Q 29.59375 56 35.59375 56 
Q 45.5625 56 51.78125 48.09375 
Q 58.015625 40.1875 58.015625 27.296875 
Q 58.015625 14.40625 51.78125 6.484375 
Q 45.5625 -1.421875 35.59375 -1.421875 
Q 29.59375 -1.421875 25.265625 0.953125 
Q 20.953125 3.328125 18.109375 8.203125 
z
M 48.6875 27.296875 
Q 48.6875 37.203125 44.609375 42.84375 
Q 40.53125 48.484375 33.40625 48.484375 
Q 26.265625 48.484375 22.1875 42.84375 
Q 18.109375 37.203125 18.109375 27.296875 
Q 18.109375 17.390625 22.1875 11.75 
Q 26.265625 6.109375 33.40625 6.109375 
Q 40.53125 6.109375 44.609375 11.75 
Q 48.6875 17.390625 48.6875 27.296875 
z
" id="DejaVuSans-112"/>
      </defs>
      <use xlink:href="#DejaVuSans-73"/>
      <use x="29.492188" xlink:href="#DejaVuSans-110"/>
      <use x="92.871094" xlink:href="#DejaVuSans-112"/>
      <use x="156.347656" xlink:href="#DejaVuSans-117"/>
      <use x="219.726562" xlink:href="#DejaVuSans-116"/>
     </g>
    </g>
    <g id="line2d_21">
     <path d="M 153 137.360312 
L 173 137.360312 
" style="fill:none;stroke:#008000;stroke-linecap:square;stroke-width:1.5;"/>
    </g>
    <g id="line2d_22"/>
    <g id="text_21">
     <!-- Output -->
     <g transform="translate(181 140.860312)scale(0.1 -0.1)">
      <defs>
       <path d="M 39.40625 66.21875 
Q 28.65625 66.21875 22.328125 58.203125 
Q 16.015625 50.203125 16.015625 36.375 
Q 16.015625 22.609375 22.328125 14.59375 
Q 28.65625 6.59375 39.40625 6.59375 
Q 50.140625 6.59375 56.421875 14.59375 
Q 62.703125 22.609375 62.703125 36.375 
Q 62.703125 50.203125 56.421875 58.203125 
Q 50.140625 66.21875 39.40625 66.21875 
z
M 39.40625 74.21875 
Q 54.734375 74.21875 63.90625 63.9375 
Q 73.09375 53.65625 73.09375 36.375 
Q 73.09375 19.140625 63.90625 8.859375 
Q 54.734375 -1.421875 39.40625 -1.421875 
Q 24.03125 -1.421875 14.8125 8.828125 
Q 5.609375 19.09375 5.609375 36.375 
Q 5.609375 53.65625 14.8125 63.9375 
Q 24.03125 74.21875 39.40625 74.21875 
z
" id="DejaVuSans-79"/>
      </defs>
      <use xlink:href="#DejaVuSans-79"/>
      <use x="78.710938" xlink:href="#DejaVuSans-117"/>
      <use x="142.089844" xlink:href="#DejaVuSans-116"/>
      <use x="181.298828" xlink:href="#DejaVuSans-112"/>
      <use x="244.775391" xlink:href="#DejaVuSans-117"/>
      <use x="308.154297" xlink:href="#DejaVuSans-116"/>
     </g>
    </g>
    <g id="line2d_23">
     <path d="M 153 152.038437 
L 173 152.038437 
" style="fill:none;stroke:#008000;stroke-dasharray:5.55,2.4;stroke-dashoffset:0;stroke-width:1.5;"/>
    </g>
    <g id="line2d_24"/>
    <g id="text_22">
     <!-- Output fitting from transfer functions -->
     <g transform="translate(181 155.538437)scale(0.1 -0.1)">
      <use xlink:href="#DejaVuSans-79"/>
      <use x="78.710938" xlink:href="#DejaVuSans-117"/>
      <use x="142.089844" xlink:href="#DejaVuSans-116"/>
      <use x="181.298828" xlink:href="#DejaVuSans-112"/>
      <use x="244.775391" xlink:href="#DejaVuSans-117"/>
      <use x="308.154297" xlink:href="#DejaVuSans-116"/>
      <use x="347.363281" xlink:href="#DejaVuSans-32"/>
      <use x="379.150391" xlink:href="#DejaVuSans-102"/>
      <use x="414.355469" xlink:href="#DejaVuSans-105"/>
      <use x="442.138672" xlink:href="#DejaVuSans-116"/>
      <use x="481.347656" xlink:href="#DejaVuSans-116"/>
      <use x="520.556641" xlink:href="#DejaVuSans-105"/>
      <use x="548.339844" xlink:href="#DejaVuSans-110"/>
      <use x="611.71875" xlink:href="#DejaVuSans-103"/>
      <use x="675.195312" xlink:href="#DejaVuSans-32"/>
      <use x="706.982422" xlink:href="#DejaVuSans-102"/>
      <use x="742.1875" xlink:href="#DejaVuSans-114"/>
      <use x="781.050781" xlink:href="#DejaVuSans-111"/>
      <use x="842.232422" xlink:href="#DejaVuSans-109"/>
      <use x="939.644531" xlink:href="#DejaVuSans-32"/>
      <use x="971.431641" xlink:href="#DejaVuSans-116"/>
      <use x="1010.640625" xlink:href="#DejaVuSans-114"/>
      <use x="1051.753906" xlink:href="#DejaVuSans-97"/>
      <use x="1113.033203" xlink:href="#DejaVuSans-110"/>
      <use x="1176.412109" xlink:href="#DejaVuSans-115"/>
      <use x="1228.511719" xlink:href="#DejaVuSans-102"/>
      <use x="1263.716797" xlink:href="#DejaVuSans-101"/>
      <use x="1325.240234" xlink:href="#DejaVuSans-114"/>
      <use x="1366.353516" xlink:href="#DejaVuSans-32"/>
      <use x="1398.140625" xlink:href="#DejaVuSans-102"/>
      <use x="1433.345703" xlink:href="#DejaVuSans-117"/>
      <use x="1496.724609" xlink:href="#DejaVuSans-110"/>
      <use x="1560.103516" xlink:href="#DejaVuSans-99"/>
      <use x="1615.083984" xlink:href="#DejaVuSans-116"/>
      <use x="1654.292969" xlink:href="#DejaVuSans-105"/>
      <use x="1682.076172" xlink:href="#DejaVuSans-111"/>
      <use x="1743.257812" xlink:href="#DejaVuSans-110"/>
      <use x="1806.636719" xlink:href="#DejaVuSans-115"/>
     </g>
    </g>
    <g id="line2d_25">
     <path d="M 153 166.716563 
L 173 166.716563 
" style="fill:none;stroke:#008000;stroke-dasharray:9.6,2.4,1.5,2.4;stroke-dashoffset:0;stroke-width:1.5;"/>
    </g>
    <g id="line2d_26"/>
    <g id="text_23">
     <!-- fitting error -->
     <g transform="translate(181 170.216563)scale(0.1 -0.1)">
      <use xlink:href="#DejaVuSans-102"/>
      <use x="35.205078" xlink:href="#DejaVuSans-105"/>
      <use x="62.988281" xlink:href="#DejaVuSans-116"/>
      <use x="102.197266" xlink:href="#DejaVuSans-116"/>
      <use x="141.40625" xlink:href="#DejaVuSans-105"/>
      <use x="169.189453" xlink:href="#DejaVuSans-110"/>
      <use x="232.568359" xlink:href="#DejaVuSans-103"/>
      <use x="296.044922" xlink:href="#DejaVuSans-32"/>
      <use x="327.832031" xlink:href="#DejaVuSans-101"/>
      <use x="389.355469" xlink:href="#DejaVuSans-114"/>
      <use x="428.71875" xlink:href="#DejaVuSans-114"/>
      <use x="467.582031" xlink:href="#DejaVuSans-111"/>
      <use x="528.763672" xlink:href="#DejaVuSans-114"/>
     </g>
    </g>
   </g>
  </g>
 </g>
 <defs>
  <clipPath id="pdfacf24163">
   <rect height="221.76" width="892.8" x="144" y="34.56"/>
  </clipPath>
 </defs>
</svg>
