<?xml version="1.0" encoding="utf-8" standalone="no"?>
<!DOCTYPE svg PUBLIC "-//W3C//DTD SVG 1.1//EN"
  "http://www.w3.org/Graphics/SVG/1.1/DTD/svg11.dtd">
<!-- Created with matplotlib (https://matplotlib.org/) -->
<svg height="288pt" version="1.1" viewBox="0 0 1152 288" width="1152pt" xmlns="http://www.w3.org/2000/svg" xmlns:xlink="http://www.w3.org/1999/xlink">
 <defs>
  <style type="text/css">
*{stroke-linecap:butt;stroke-linejoin:round;}
  </style>
 </defs>
 <g id="figure_1">
  <g id="patch_1">
   <path d="M 0 288 
L 1152 288 
L 1152 0 
L 0 0 
z
" style="fill:#ffffff;"/>
  </g>
  <g id="axes_1">
   <g id="patch_2">
    <path d="M 144 256.32 
L 1036.8 256.32 
L 1036.8 34.56 
L 144 34.56 
z
" style="fill:#ffffff;"/>
   </g>
   <g id="matplotlib.axis_1">
    <g id="xtick_1">
     <g id="line2d_1">
      <defs>
       <path d="M 0 0 
L 0 3.5 
" id="m25dc8ca1e7" style="stroke:#000000;stroke-width:0.8;"/>
      </defs>
      <g>
       <use style="stroke:#000000;stroke-width:0.8;" x="184.581818" xlink:href="#m25dc8ca1e7" y="256.32"/>
      </g>
     </g>
     <g id="text_1">
      <!-- 0 -->
      <defs>
       <path d="M 31.78125 66.40625 
Q 24.171875 66.40625 20.328125 58.90625 
Q 16.5 51.421875 16.5 36.375 
Q 16.5 21.390625 20.328125 13.890625 
Q 24.171875 6.390625 31.78125 6.390625 
Q 39.453125 6.390625 43.28125 13.890625 
Q 47.125 21.390625 47.125 36.375 
Q 47.125 51.421875 43.28125 58.90625 
Q 39.453125 66.40625 31.78125 66.40625 
z
M 31.78125 74.21875 
Q 44.046875 74.21875 50.515625 64.515625 
Q 56.984375 54.828125 56.984375 36.375 
Q 56.984375 17.96875 50.515625 8.265625 
Q 44.046875 -1.421875 31.78125 -1.421875 
Q 19.53125 -1.421875 13.0625 8.265625 
Q 6.59375 17.96875 6.59375 36.375 
Q 6.59375 54.828125 13.0625 64.515625 
Q 19.53125 74.21875 31.78125 74.21875 
z
" id="DejaVuSans-48"/>
      </defs>
      <g transform="translate(181.400568 270.918437)scale(0.1 -0.1)">
       <use xlink:href="#DejaVuSans-48"/>
      </g>
     </g>
    </g>
    <g id="xtick_2">
     <g id="line2d_2">
      <g>
       <use style="stroke:#000000;stroke-width:0.8;" x="363.201845" xlink:href="#m25dc8ca1e7" y="256.32"/>
      </g>
     </g>
     <g id="text_2">
      <!-- 2 -->
      <defs>
       <path d="M 19.1875 8.296875 
L 53.609375 8.296875 
L 53.609375 0 
L 7.328125 0 
L 7.328125 8.296875 
Q 12.9375 14.109375 22.625 23.890625 
Q 32.328125 33.6875 34.8125 36.53125 
Q 39.546875 41.84375 41.421875 45.53125 
Q 43.3125 49.21875 43.3125 52.78125 
Q 43.3125 58.59375 39.234375 62.25 
Q 35.15625 65.921875 28.609375 65.921875 
Q 23.96875 65.921875 18.8125 64.3125 
Q 13.671875 62.703125 7.8125 59.421875 
L 7.8125 69.390625 
Q 13.765625 71.78125 18.9375 73 
Q 24.125 74.21875 28.421875 74.21875 
Q 39.75 74.21875 46.484375 68.546875 
Q 53.21875 62.890625 53.21875 53.421875 
Q 53.21875 48.921875 51.53125 44.890625 
Q 49.859375 40.875 45.40625 35.40625 
Q 44.1875 33.984375 37.640625 27.21875 
Q 31.109375 20.453125 19.1875 8.296875 
z
" id="DejaVuSans-50"/>
      </defs>
      <g transform="translate(360.020595 270.918437)scale(0.1 -0.1)">
       <use xlink:href="#DejaVuSans-50"/>
      </g>
     </g>
    </g>
    <g id="xtick_3">
     <g id="line2d_3">
      <g>
       <use style="stroke:#000000;stroke-width:0.8;" x="541.821872" xlink:href="#m25dc8ca1e7" y="256.32"/>
      </g>
     </g>
     <g id="text_3">
      <!-- 4 -->
      <defs>
       <path d="M 37.796875 64.3125 
L 12.890625 25.390625 
L 37.796875 25.390625 
z
M 35.203125 72.90625 
L 47.609375 72.90625 
L 47.609375 25.390625 
L 58.015625 25.390625 
L 58.015625 17.1875 
L 47.609375 17.1875 
L 47.609375 0 
L 37.796875 0 
L 37.796875 17.1875 
L 4.890625 17.1875 
L 4.890625 26.703125 
z
" id="DejaVuSans-52"/>
      </defs>
      <g transform="translate(538.640622 270.918437)scale(0.1 -0.1)">
       <use xlink:href="#DejaVuSans-52"/>
      </g>
     </g>
    </g>
    <g id="xtick_4">
     <g id="line2d_4">
      <g>
       <use style="stroke:#000000;stroke-width:0.8;" x="720.441899" xlink:href="#m25dc8ca1e7" y="256.32"/>
      </g>
     </g>
     <g id="text_4">
      <!-- 6 -->
      <defs>
       <path d="M 33.015625 40.375 
Q 26.375 40.375 22.484375 35.828125 
Q 18.609375 31.296875 18.609375 23.390625 
Q 18.609375 15.53125 22.484375 10.953125 
Q 26.375 6.390625 33.015625 6.390625 
Q 39.65625 6.390625 43.53125 10.953125 
Q 47.40625 15.53125 47.40625 23.390625 
Q 47.40625 31.296875 43.53125 35.828125 
Q 39.65625 40.375 33.015625 40.375 
z
M 52.59375 71.296875 
L 52.59375 62.3125 
Q 48.875 64.0625 45.09375 64.984375 
Q 41.3125 65.921875 37.59375 65.921875 
Q 27.828125 65.921875 22.671875 59.328125 
Q 17.53125 52.734375 16.796875 39.40625 
Q 19.671875 43.65625 24.015625 45.921875 
Q 28.375 48.1875 33.59375 48.1875 
Q 44.578125 48.1875 50.953125 41.515625 
Q 57.328125 34.859375 57.328125 23.390625 
Q 57.328125 12.15625 50.6875 5.359375 
Q 44.046875 -1.421875 33.015625 -1.421875 
Q 20.359375 -1.421875 13.671875 8.265625 
Q 6.984375 17.96875 6.984375 36.375 
Q 6.984375 53.65625 15.1875 63.9375 
Q 23.390625 74.21875 37.203125 74.21875 
Q 40.921875 74.21875 44.703125 73.484375 
Q 48.484375 72.75 52.59375 71.296875 
z
" id="DejaVuSans-54"/>
      </defs>
      <g transform="translate(717.260649 270.918437)scale(0.1 -0.1)">
       <use xlink:href="#DejaVuSans-54"/>
      </g>
     </g>
    </g>
    <g id="xtick_5">
     <g id="line2d_5">
      <g>
       <use style="stroke:#000000;stroke-width:0.8;" x="899.061926" xlink:href="#m25dc8ca1e7" y="256.32"/>
      </g>
     </g>
     <g id="text_5">
      <!-- 8 -->
      <defs>
       <path d="M 31.78125 34.625 
Q 24.75 34.625 20.71875 30.859375 
Q 16.703125 27.09375 16.703125 20.515625 
Q 16.703125 13.921875 20.71875 10.15625 
Q 24.75 6.390625 31.78125 6.390625 
Q 38.8125 6.390625 42.859375 10.171875 
Q 46.921875 13.96875 46.921875 20.515625 
Q 46.921875 27.09375 42.890625 30.859375 
Q 38.875 34.625 31.78125 34.625 
z
M 21.921875 38.8125 
Q 15.578125 40.375 12.03125 44.71875 
Q 8.5 49.078125 8.5 55.328125 
Q 8.5 64.0625 14.71875 69.140625 
Q 20.953125 74.21875 31.78125 74.21875 
Q 42.671875 74.21875 48.875 69.140625 
Q 55.078125 64.0625 55.078125 55.328125 
Q 55.078125 49.078125 51.53125 44.71875 
Q 48 40.375 41.703125 38.8125 
Q 48.828125 37.15625 52.796875 32.3125 
Q 56.78125 27.484375 56.78125 20.515625 
Q 56.78125 9.90625 50.3125 4.234375 
Q 43.84375 -1.421875 31.78125 -1.421875 
Q 19.734375 -1.421875 13.25 4.234375 
Q 6.78125 9.90625 6.78125 20.515625 
Q 6.78125 27.484375 10.78125 32.3125 
Q 14.796875 37.15625 21.921875 38.8125 
z
M 18.3125 54.390625 
Q 18.3125 48.734375 21.84375 45.5625 
Q 25.390625 42.390625 31.78125 42.390625 
Q 38.140625 42.390625 41.71875 45.5625 
Q 45.3125 48.734375 45.3125 54.390625 
Q 45.3125 60.0625 41.71875 63.234375 
Q 38.140625 66.40625 31.78125 66.40625 
Q 25.390625 66.40625 21.84375 63.234375 
Q 18.3125 60.0625 18.3125 54.390625 
z
" id="DejaVuSans-56"/>
      </defs>
      <g transform="translate(895.880676 270.918437)scale(0.1 -0.1)">
       <use xlink:href="#DejaVuSans-56"/>
      </g>
     </g>
    </g>
    <g id="text_6">
     <!-- Time [s] -->
     <defs>
      <path d="M -0.296875 72.90625 
L 61.375 72.90625 
L 61.375 64.59375 
L 35.5 64.59375 
L 35.5 0 
L 25.59375 0 
L 25.59375 64.59375 
L -0.296875 64.59375 
z
" id="DejaVuSans-84"/>
      <path d="M 9.421875 54.6875 
L 18.40625 54.6875 
L 18.40625 0 
L 9.421875 0 
z
M 9.421875 75.984375 
L 18.40625 75.984375 
L 18.40625 64.59375 
L 9.421875 64.59375 
z
" id="DejaVuSans-105"/>
      <path d="M 52 44.1875 
Q 55.375 50.25 60.0625 53.125 
Q 64.75 56 71.09375 56 
Q 79.640625 56 84.28125 50.015625 
Q 88.921875 44.046875 88.921875 33.015625 
L 88.921875 0 
L 79.890625 0 
L 79.890625 32.71875 
Q 79.890625 40.578125 77.09375 44.375 
Q 74.3125 48.1875 68.609375 48.1875 
Q 61.625 48.1875 57.5625 43.546875 
Q 53.515625 38.921875 53.515625 30.90625 
L 53.515625 0 
L 44.484375 0 
L 44.484375 32.71875 
Q 44.484375 40.625 41.703125 44.40625 
Q 38.921875 48.1875 33.109375 48.1875 
Q 26.21875 48.1875 22.15625 43.53125 
Q 18.109375 38.875 18.109375 30.90625 
L 18.109375 0 
L 9.078125 0 
L 9.078125 54.6875 
L 18.109375 54.6875 
L 18.109375 46.1875 
Q 21.1875 51.21875 25.484375 53.609375 
Q 29.78125 56 35.6875 56 
Q 41.65625 56 45.828125 52.96875 
Q 50 49.953125 52 44.1875 
z
" id="DejaVuSans-109"/>
      <path d="M 56.203125 29.59375 
L 56.203125 25.203125 
L 14.890625 25.203125 
Q 15.484375 15.921875 20.484375 11.0625 
Q 25.484375 6.203125 34.421875 6.203125 
Q 39.59375 6.203125 44.453125 7.46875 
Q 49.3125 8.734375 54.109375 11.28125 
L 54.109375 2.78125 
Q 49.265625 0.734375 44.1875 -0.34375 
Q 39.109375 -1.421875 33.890625 -1.421875 
Q 20.796875 -1.421875 13.15625 6.1875 
Q 5.515625 13.8125 5.515625 26.8125 
Q 5.515625 40.234375 12.765625 48.109375 
Q 20.015625 56 32.328125 56 
Q 43.359375 56 49.78125 48.890625 
Q 56.203125 41.796875 56.203125 29.59375 
z
M 47.21875 32.234375 
Q 47.125 39.59375 43.09375 43.984375 
Q 39.0625 48.390625 32.421875 48.390625 
Q 24.90625 48.390625 20.390625 44.140625 
Q 15.875 39.890625 15.1875 32.171875 
z
" id="DejaVuSans-101"/>
      <path id="DejaVuSans-32"/>
      <path d="M 8.59375 75.984375 
L 29.296875 75.984375 
L 29.296875 69 
L 17.578125 69 
L 17.578125 -6.203125 
L 29.296875 -6.203125 
L 29.296875 -13.1875 
L 8.59375 -13.1875 
z
" id="DejaVuSans-91"/>
      <path d="M 44.28125 53.078125 
L 44.28125 44.578125 
Q 40.484375 46.53125 36.375 47.5 
Q 32.28125 48.484375 27.875 48.484375 
Q 21.1875 48.484375 17.84375 46.4375 
Q 14.5 44.390625 14.5 40.28125 
Q 14.5 37.15625 16.890625 35.375 
Q 19.28125 33.59375 26.515625 31.984375 
L 29.59375 31.296875 
Q 39.15625 29.25 43.1875 25.515625 
Q 47.21875 21.78125 47.21875 15.09375 
Q 47.21875 7.46875 41.1875 3.015625 
Q 35.15625 -1.421875 24.609375 -1.421875 
Q 20.21875 -1.421875 15.453125 -0.5625 
Q 10.6875 0.296875 5.421875 2 
L 5.421875 11.28125 
Q 10.40625 8.6875 15.234375 7.390625 
Q 20.0625 6.109375 24.8125 6.109375 
Q 31.15625 6.109375 34.5625 8.28125 
Q 37.984375 10.453125 37.984375 14.40625 
Q 37.984375 18.0625 35.515625 20.015625 
Q 33.0625 21.96875 24.703125 23.78125 
L 21.578125 24.515625 
Q 13.234375 26.265625 9.515625 29.90625 
Q 5.8125 33.546875 5.8125 39.890625 
Q 5.8125 47.609375 11.28125 51.796875 
Q 16.75 56 26.8125 56 
Q 31.78125 56 36.171875 55.265625 
Q 40.578125 54.546875 44.28125 53.078125 
z
" id="DejaVuSans-115"/>
      <path d="M 30.421875 75.984375 
L 30.421875 -13.1875 
L 9.71875 -13.1875 
L 9.71875 -6.203125 
L 21.390625 -6.203125 
L 21.390625 69 
L 9.71875 69 
L 9.71875 75.984375 
z
" id="DejaVuSans-93"/>
     </defs>
     <g transform="translate(569.917187 284.596563)scale(0.1 -0.1)">
      <use xlink:href="#DejaVuSans-84"/>
      <use x="61.037109" xlink:href="#DejaVuSans-105"/>
      <use x="88.820312" xlink:href="#DejaVuSans-109"/>
      <use x="186.232422" xlink:href="#DejaVuSans-101"/>
      <use x="247.755859" xlink:href="#DejaVuSans-32"/>
      <use x="279.542969" xlink:href="#DejaVuSans-91"/>
      <use x="318.556641" xlink:href="#DejaVuSans-115"/>
      <use x="370.65625" xlink:href="#DejaVuSans-93"/>
     </g>
    </g>
    <g id="text_7">
     <!-- 1e−9 -->
     <defs>
      <path d="M 12.40625 8.296875 
L 28.515625 8.296875 
L 28.515625 63.921875 
L 10.984375 60.40625 
L 10.984375 69.390625 
L 28.421875 72.90625 
L 38.28125 72.90625 
L 38.28125 8.296875 
L 54.390625 8.296875 
L 54.390625 0 
L 12.40625 0 
z
" id="DejaVuSans-49"/>
      <path d="M 10.59375 35.5 
L 73.1875 35.5 
L 73.1875 27.203125 
L 10.59375 27.203125 
z
" id="DejaVuSans-8722"/>
      <path d="M 10.984375 1.515625 
L 10.984375 10.5 
Q 14.703125 8.734375 18.5 7.8125 
Q 22.3125 6.890625 25.984375 6.890625 
Q 35.75 6.890625 40.890625 13.453125 
Q 46.046875 20.015625 46.78125 33.40625 
Q 43.953125 29.203125 39.59375 26.953125 
Q 35.25 24.703125 29.984375 24.703125 
Q 19.046875 24.703125 12.671875 31.3125 
Q 6.296875 37.9375 6.296875 49.421875 
Q 6.296875 60.640625 12.9375 67.421875 
Q 19.578125 74.21875 30.609375 74.21875 
Q 43.265625 74.21875 49.921875 64.515625 
Q 56.59375 54.828125 56.59375 36.375 
Q 56.59375 19.140625 48.40625 8.859375 
Q 40.234375 -1.421875 26.421875 -1.421875 
Q 22.703125 -1.421875 18.890625 -0.6875 
Q 15.09375 0.046875 10.984375 1.515625 
z
M 30.609375 32.421875 
Q 37.25 32.421875 41.125 36.953125 
Q 45.015625 41.5 45.015625 49.421875 
Q 45.015625 57.28125 41.125 61.84375 
Q 37.25 66.40625 30.609375 66.40625 
Q 23.96875 66.40625 20.09375 61.84375 
Q 16.21875 57.28125 16.21875 49.421875 
Q 16.21875 41.5 20.09375 36.953125 
Q 23.96875 32.421875 30.609375 32.421875 
z
" id="DejaVuSans-57"/>
     </defs>
     <g transform="translate(1009.542187 283.596563)scale(0.1 -0.1)">
      <use xlink:href="#DejaVuSans-49"/>
      <use x="63.623047" xlink:href="#DejaVuSans-101"/>
      <use x="125.146484" xlink:href="#DejaVuSans-8722"/>
      <use x="208.935547" xlink:href="#DejaVuSans-57"/>
     </g>
    </g>
   </g>
   <g id="matplotlib.axis_2">
    <g id="ytick_1">
     <g id="line2d_6">
      <defs>
       <path d="M 0 0 
L -3.5 0 
" id="m84c8a9930d" style="stroke:#000000;stroke-width:0.8;"/>
      </defs>
      <g>
       <use style="stroke:#000000;stroke-width:0.8;" x="144" xlink:href="#m84c8a9930d" y="237.84"/>
      </g>
     </g>
     <g id="text_8">
      <!-- −1 -->
      <g transform="translate(122.257812 241.639219)scale(0.1 -0.1)">
       <use xlink:href="#DejaVuSans-8722"/>
       <use x="83.789062" xlink:href="#DejaVuSans-49"/>
      </g>
     </g>
    </g>
    <g id="ytick_2">
     <g id="line2d_7">
      <g>
       <use style="stroke:#000000;stroke-width:0.8;" x="144" xlink:href="#m84c8a9930d" y="195.84"/>
      </g>
     </g>
     <g id="text_9">
      <!-- 0 -->
      <g transform="translate(130.6375 199.639219)scale(0.1 -0.1)">
       <use xlink:href="#DejaVuSans-48"/>
      </g>
     </g>
    </g>
    <g id="ytick_3">
     <g id="line2d_8">
      <g>
       <use style="stroke:#000000;stroke-width:0.8;" x="144" xlink:href="#m84c8a9930d" y="153.84"/>
      </g>
     </g>
     <g id="text_10">
      <!-- 1 -->
      <g transform="translate(130.6375 157.639219)scale(0.1 -0.1)">
       <use xlink:href="#DejaVuSans-49"/>
      </g>
     </g>
    </g>
    <g id="ytick_4">
     <g id="line2d_9">
      <g>
       <use style="stroke:#000000;stroke-width:0.8;" x="144" xlink:href="#m84c8a9930d" y="111.84"/>
      </g>
     </g>
     <g id="text_11">
      <!-- 2 -->
      <g transform="translate(130.6375 115.639219)scale(0.1 -0.1)">
       <use xlink:href="#DejaVuSans-50"/>
      </g>
     </g>
    </g>
    <g id="ytick_5">
     <g id="line2d_10">
      <g>
       <use style="stroke:#000000;stroke-width:0.8;" x="144" xlink:href="#m84c8a9930d" y="69.84"/>
      </g>
     </g>
     <g id="text_12">
      <!-- 3 -->
      <defs>
       <path d="M 40.578125 39.3125 
Q 47.65625 37.796875 51.625 33 
Q 55.609375 28.21875 55.609375 21.1875 
Q 55.609375 10.40625 48.1875 4.484375 
Q 40.765625 -1.421875 27.09375 -1.421875 
Q 22.515625 -1.421875 17.65625 -0.515625 
Q 12.796875 0.390625 7.625 2.203125 
L 7.625 11.71875 
Q 11.71875 9.328125 16.59375 8.109375 
Q 21.484375 6.890625 26.8125 6.890625 
Q 36.078125 6.890625 40.9375 10.546875 
Q 45.796875 14.203125 45.796875 21.1875 
Q 45.796875 27.640625 41.28125 31.265625 
Q 36.765625 34.90625 28.71875 34.90625 
L 20.21875 34.90625 
L 20.21875 43.015625 
L 29.109375 43.015625 
Q 36.375 43.015625 40.234375 45.921875 
Q 44.09375 48.828125 44.09375 54.296875 
Q 44.09375 59.90625 40.109375 62.90625 
Q 36.140625 65.921875 28.71875 65.921875 
Q 24.65625 65.921875 20.015625 65.03125 
Q 15.375 64.15625 9.8125 62.3125 
L 9.8125 71.09375 
Q 15.4375 72.65625 20.34375 73.4375 
Q 25.25 74.21875 29.59375 74.21875 
Q 40.828125 74.21875 47.359375 69.109375 
Q 53.90625 64.015625 53.90625 55.328125 
Q 53.90625 49.265625 50.4375 45.09375 
Q 46.96875 40.921875 40.578125 39.3125 
z
" id="DejaVuSans-51"/>
      </defs>
      <g transform="translate(130.6375 73.639219)scale(0.1 -0.1)">
       <use xlink:href="#DejaVuSans-51"/>
      </g>
     </g>
    </g>
    <g id="text_13">
     <!-- Voltage [V] -->
     <defs>
      <path d="M 28.609375 0 
L 0.78125 72.90625 
L 11.078125 72.90625 
L 34.1875 11.53125 
L 57.328125 72.90625 
L 67.578125 72.90625 
L 39.796875 0 
z
" id="DejaVuSans-86"/>
      <path d="M 30.609375 48.390625 
Q 23.390625 48.390625 19.1875 42.75 
Q 14.984375 37.109375 14.984375 27.296875 
Q 14.984375 17.484375 19.15625 11.84375 
Q 23.34375 6.203125 30.609375 6.203125 
Q 37.796875 6.203125 41.984375 11.859375 
Q 46.1875 17.53125 46.1875 27.296875 
Q 46.1875 37.015625 41.984375 42.703125 
Q 37.796875 48.390625 30.609375 48.390625 
z
M 30.609375 56 
Q 42.328125 56 49.015625 48.375 
Q 55.71875 40.765625 55.71875 27.296875 
Q 55.71875 13.875 49.015625 6.21875 
Q 42.328125 -1.421875 30.609375 -1.421875 
Q 18.84375 -1.421875 12.171875 6.21875 
Q 5.515625 13.875 5.515625 27.296875 
Q 5.515625 40.765625 12.171875 48.375 
Q 18.84375 56 30.609375 56 
z
" id="DejaVuSans-111"/>
      <path d="M 9.421875 75.984375 
L 18.40625 75.984375 
L 18.40625 0 
L 9.421875 0 
z
" id="DejaVuSans-108"/>
      <path d="M 18.3125 70.21875 
L 18.3125 54.6875 
L 36.8125 54.6875 
L 36.8125 47.703125 
L 18.3125 47.703125 
L 18.3125 18.015625 
Q 18.3125 11.328125 20.140625 9.421875 
Q 21.96875 7.515625 27.59375 7.515625 
L 36.8125 7.515625 
L 36.8125 0 
L 27.59375 0 
Q 17.1875 0 13.234375 3.875 
Q 9.28125 7.765625 9.28125 18.015625 
L 9.28125 47.703125 
L 2.6875 47.703125 
L 2.6875 54.6875 
L 9.28125 54.6875 
L 9.28125 70.21875 
z
" id="DejaVuSans-116"/>
      <path d="M 34.28125 27.484375 
Q 23.390625 27.484375 19.1875 25 
Q 14.984375 22.515625 14.984375 16.5 
Q 14.984375 11.71875 18.140625 8.90625 
Q 21.296875 6.109375 26.703125 6.109375 
Q 34.1875 6.109375 38.703125 11.40625 
Q 43.21875 16.703125 43.21875 25.484375 
L 43.21875 27.484375 
z
M 52.203125 31.203125 
L 52.203125 0 
L 43.21875 0 
L 43.21875 8.296875 
Q 40.140625 3.328125 35.546875 0.953125 
Q 30.953125 -1.421875 24.3125 -1.421875 
Q 15.921875 -1.421875 10.953125 3.296875 
Q 6 8.015625 6 15.921875 
Q 6 25.140625 12.171875 29.828125 
Q 18.359375 34.515625 30.609375 34.515625 
L 43.21875 34.515625 
L 43.21875 35.40625 
Q 43.21875 41.609375 39.140625 45 
Q 35.0625 48.390625 27.6875 48.390625 
Q 23 48.390625 18.546875 47.265625 
Q 14.109375 46.140625 10.015625 43.890625 
L 10.015625 52.203125 
Q 14.9375 54.109375 19.578125 55.046875 
Q 24.21875 56 28.609375 56 
Q 40.484375 56 46.34375 49.84375 
Q 52.203125 43.703125 52.203125 31.203125 
z
" id="DejaVuSans-97"/>
      <path d="M 45.40625 27.984375 
Q 45.40625 37.75 41.375 43.109375 
Q 37.359375 48.484375 30.078125 48.484375 
Q 22.859375 48.484375 18.828125 43.109375 
Q 14.796875 37.75 14.796875 27.984375 
Q 14.796875 18.265625 18.828125 12.890625 
Q 22.859375 7.515625 30.078125 7.515625 
Q 37.359375 7.515625 41.375 12.890625 
Q 45.40625 18.265625 45.40625 27.984375 
z
M 54.390625 6.78125 
Q 54.390625 -7.171875 48.1875 -13.984375 
Q 42 -20.796875 29.203125 -20.796875 
Q 24.46875 -20.796875 20.265625 -20.09375 
Q 16.0625 -19.390625 12.109375 -17.921875 
L 12.109375 -9.1875 
Q 16.0625 -11.328125 19.921875 -12.34375 
Q 23.78125 -13.375 27.78125 -13.375 
Q 36.625 -13.375 41.015625 -8.765625 
Q 45.40625 -4.15625 45.40625 5.171875 
L 45.40625 9.625 
Q 42.625 4.78125 38.28125 2.390625 
Q 33.9375 0 27.875 0 
Q 17.828125 0 11.671875 7.65625 
Q 5.515625 15.328125 5.515625 27.984375 
Q 5.515625 40.671875 11.671875 48.328125 
Q 17.828125 56 27.875 56 
Q 33.9375 56 38.28125 53.609375 
Q 42.625 51.21875 45.40625 46.390625 
L 45.40625 54.6875 
L 54.390625 54.6875 
z
" id="DejaVuSans-103"/>
     </defs>
     <g transform="translate(116.178125 173.489219)rotate(-90)scale(0.1 -0.1)">
      <use xlink:href="#DejaVuSans-86"/>
      <use x="68.298828" xlink:href="#DejaVuSans-111"/>
      <use x="129.480469" xlink:href="#DejaVuSans-108"/>
      <use x="157.263672" xlink:href="#DejaVuSans-116"/>
      <use x="196.472656" xlink:href="#DejaVuSans-97"/>
      <use x="257.751953" xlink:href="#DejaVuSans-103"/>
      <use x="321.228516" xlink:href="#DejaVuSans-101"/>
      <use x="382.751953" xlink:href="#DejaVuSans-32"/>
      <use x="414.539062" xlink:href="#DejaVuSans-91"/>
      <use x="453.552734" xlink:href="#DejaVuSans-86"/>
      <use x="521.960938" xlink:href="#DejaVuSans-93"/>
     </g>
    </g>
   </g>
   <g id="line2d_11">
    <path clip-path="url(#p6656642674)" d="M 184.581818 195.839996 
L 320.742882 195.729099 
L 322.448704 195.400961 
L 323.886595 194.898814 
L 325.235176 194.189875 
L 326.583757 193.224319 
L 327.994855 191.931411 
L 329.530988 190.211231 
L 331.299326 187.8815 
L 333.487421 184.608053 
L 336.729375 179.309892 
L 344.167113 167.070176 
L 347.257239 162.450718 
L 349.748989 159.111336 
L 351.963877 156.507281 
L 354.035869 154.408012 
L 356.054276 152.674962 
L 358.063751 151.237512 
L 360.207191 149.988348 
L 362.377424 148.980054 
L 364.717347 148.131402 
L 367.289475 147.425004 
L 370.36174 146.81634 
L 374.02345 146.326032 
L 378.524675 145.95051 
L 384.965177 145.66785 
L 394.61959 145.506528 
L 432.415587 145.439286 
L 434.300029 145.7004 
L 435.809368 146.132412 
L 437.175811 146.757498 
L 438.50653 147.614844 
L 439.855112 148.747626 
L 441.319796 150.276636 
L 442.900583 152.258658 
L 444.677852 154.860881 
L 446.70519 158.242784 
L 449.161662 162.798747 
L 452.591166 169.675688 
L 458.494558 181.54018 
L 460.584412 185.202975 
L 462.281303 187.747091 
L 463.817435 189.662963 
L 465.29105 191.154241 
L 466.762968 192.332518 
L 468.29017 193.2714 
L 469.933474 194.018834 
L 471.782191 194.610359 
L 473.961355 195.066867 
L 476.712104 195.404985 
L 480.543503 195.635084 
L 486.964893 195.769046 
L 503.825552 195.828728 
L 543.077303 195.763903 
L 544.854572 195.459254 
L 546.310326 194.987069 
L 547.658907 194.315353 
L 548.998557 193.394889 
L 550.382862 192.166756 
L 551.88327 190.527966 
L 553.589092 188.321353 
L 555.670015 185.244475 
L 558.581521 180.504632 
L 567.512523 165.739835 
L 570.361512 161.555753 
L 572.729835 158.458131 
L 574.882207 155.999724 
L 576.936337 153.986891 
L 578.936881 152.332704 
L 580.991011 150.926124 
L 583.036211 149.786454 
L 585.286823 148.788282 
L 587.742848 147.948828 
L 590.484666 147.251922 
L 593.869515 146.649054 
L 597.736639 146.197302 
L 602.55938 145.85517 
L 610.329351 145.564404 
L 618.983491 145.471962 
L 621.100139 145.67247 
L 622.707719 146.048496 
L 624.100955 146.60319 
L 625.458467 147.389934 
L 626.842772 148.460934 
L 628.280664 149.85903 
L 629.879313 151.73475 
L 631.692306 154.224644 
L 633.817884 157.54288 
L 636.568633 162.281009 
L 646.430334 179.650877 
L 648.582705 182.77616 
L 650.511801 185.196826 
L 652.342657 187.144312 
L 654.138145 188.734621 
L 655.969001 190.060225 
L 657.853442 191.149931 
L 659.818262 192.029563 
L 661.899185 192.717171 
L 664.07835 193.203233 
L 666.239652 193.460606 
L 668.231265 193.479333 
L 670.008535 193.27866 
L 671.616115 192.876303 
L 673.116523 192.27169 
L 674.554414 191.451466 
L 675.992306 190.370945 
L 677.483783 188.965037 
L 679.109225 187.116088 
L 680.975804 184.640465 
L 683.324658 181.129937 
L 687.066747 175.076662 
L 692.791519 165.873076 
L 695.729819 161.572607 
L 698.132258 158.438013 
L 700.29356 155.974612 
L 702.347691 153.965122 
L 704.357166 152.30658 
L 706.384503 150.91974 
L 708.519013 149.735256 
L 710.778556 148.74267 
L 713.261374 147.903846 
L 716.047847 147.206982 
L 719.271938 146.637924 
L 723.139062 146.186088 
L 727.845699 145.854876 
L 734.616559 145.615812 
L 748.227406 145.47087 
L 777.056678 145.446258 
L 778.932188 145.716108 
L 780.414734 146.149548 
L 781.772247 146.777742 
L 783.102966 147.642018 
L 784.451547 148.78194 
L 785.916231 150.318468 
L 787.497019 152.30805 
L 789.283219 154.931815 
L 791.310556 158.322534 
L 793.766581 162.885208 
L 797.222879 169.821701 
L 803.036961 181.503682 
L 805.135746 185.185272 
L 806.841567 187.74458 
L 808.3777 189.661468 
L 809.851315 191.153842 
L 811.32493 192.334345 
L 812.852131 193.273823 
L 814.495436 194.021711 
L 816.335222 194.611102 
L 818.514386 195.068363 
L 821.256204 195.405859 
L 825.078672 195.635746 
L 831.491131 195.769541 
L 848.335 195.828966 
L 953.479679 195.839996 
L 996.218182 195.839997 
L 996.218182 195.839997 
" style="fill:none;stroke:#ff0000;stroke-linecap:square;stroke-width:1.5;"/>
   </g>
   <g id="line2d_12">
    <path clip-path="url(#p6656642674)" d="M 184.581818 145.44 
L 339.898094 145.55046 
L 341.55926 145.896498 
L 342.97929 146.418096 
L 344.292147 147.131256 
L 345.640728 148.118844 
L 347.025033 149.40732 
L 348.534372 151.121088 
L 350.213401 153.381318 
L 352.106773 156.327009 
L 354.294868 160.163877 
L 357.063479 165.498024 
L 362.940078 177.474731 
L 365.735481 182.824217 
L 367.673508 186.072228 
L 369.316813 188.405147 
L 370.826152 190.172713 
L 372.290836 191.554198 
L 373.773382 192.651208 
L 375.327376 193.525233 
L 377.024267 194.221611 
L 378.953363 194.767871 
L 381.275423 195.186132 
L 384.27749 195.488871 
L 388.653681 195.687234 
L 396.718375 195.794137 
L 424.547375 195.837481 
L 453.037716 195.733532 
L 454.752468 195.408311 
L 456.19036 194.910721 
L 457.538941 194.205816 
L 458.878591 193.24973 
L 460.271827 191.975604 
L 461.790097 190.276264 
L 463.540574 187.966575 
L 465.691427 184.737699 
L 468.754582 179.706229 
L 476.649587 166.612708 
L 479.62361 162.169058 
L 482.061774 158.913403 
L 484.240938 156.365716 
L 486.295068 154.298829 
L 488.304544 152.587392 
L 490.278295 151.186524 
L 492.350287 149.983392 
L 494.520521 148.975518 
L 496.967615 148.093812 
L 499.717292 147.35604 
L 502.700246 146.782404 
L 506.460198 146.293692 
L 511.148973 145.920228 
L 518.052637 145.641894 
L 526.796088 145.506192 
L 545.622639 145.44021 
L 561.805613 145.474356 
L 563.56502 145.758948 
L 565.038635 146.219436 
L 566.396148 146.880222 
L 567.717936 147.772344 
L 569.09331 148.9722 
L 570.566925 150.56043 
L 572.167182 152.62011 
L 573.980175 155.333596 
L 576.061099 158.868962 
L 578.606434 163.657244 
L 582.375317 171.279685 
L 587.305229 181.175339 
L 589.439739 184.957393 
L 591.163422 187.576916 
L 592.708485 189.533704 
L 594.191031 191.059514 
L 595.664647 192.260702 
L 597.182917 193.213339 
L 598.81729 193.97441 
L 600.639214 194.573979 
L 602.782655 195.039099 
L 605.470886 195.384903 
L 609.177252 195.622022 
L 615.286057 195.762432 
L 636.63115 195.896622 
L 640.283929 195.782569 
L 642.320198 195.501135 
L 643.965378 195.052465 
L 645.474717 194.410315 
L 646.966194 193.531843 
L 648.511257 192.358142 
L 650.172423 190.807728 
L 652.021141 188.766864 
L 654.191731 186.022735 
L 656.924618 182.186149 
L 661.336532 175.54733 
L 667.239924 166.743509 
L 670.267534 162.623359 
L 672.661042 159.726149 
L 674.759827 157.522564 
L 676.724648 155.775499 
L 678.61802 154.38595 
L 680.484599 153.288456 
L 682.377972 152.433126 
L 684.271344 151.821354 
L 686.057544 151.472964 
L 687.700848 151.383882 
L 689.120878 151.527396 
L 690.469459 151.886958 
L 691.773385 152.463744 
L 693.095173 153.291144 
L 694.479478 154.423821 
L 695.953094 155.923507 
L 697.560674 157.886494 
L 699.355805 160.441988 
L 701.436728 163.808309 
L 704.017788 168.433358 
L 708.340392 176.724091 
L 711.70738 182.971759 
L 713.707924 186.229951 
L 715.378022 188.539014 
L 716.914154 190.291808 
L 718.3967 191.653217 
L 719.897108 192.732839 
L 721.468964 193.590909 
L 723.192648 194.275263 
L 725.157468 194.810611 
L 727.533114 195.218893 
L 730.633333 195.51297 
L 735.206006 195.70317 
L 743.842284 195.802139 
L 776.235026 195.839277 
L 797.544395 195.740135 
L 799.268078 195.420191 
L 800.70597 194.930162 
L 802.054551 194.233684 
L 803.394201 193.286662 
L 804.787437 192.022002 
L 806.305707 190.332166 
L 808.038322 188.056619 
L 810.172831 184.863938 
L 813.245095 179.825555 
L 821.282997 166.498418 
L 824.239158 162.090522 
L 826.659459 158.866077 
L 828.838624 156.324535 
L 830.892754 154.263612 
L 832.902229 152.557782 
L 834.974222 151.09929 
L 837.064076 149.903718 
L 839.261102 148.901724 
L 841.64568 148.056978 
L 844.280325 147.3552 
L 847.468693 146.749224 
L 851.335816 146.26152 
L 856.221074 145.890618 
L 862.588878 145.642482 
L 871.359121 145.506108 
L 889.515847 145.446426 
L 996.218182 145.44 
L 996.218182 145.44 
" style="fill:none;stroke:#008000;stroke-linecap:square;stroke-width:1.5;"/>
   </g>
   <g id="line2d_13">
    <path clip-path="url(#p6656642674)" d="M 184.581818 44.64 
L 326.396206 44.751088 
L 332.647907 44.989424 
L 336.488238 45.343488 
L 339.32651 45.814903 
L 341.64857 46.41933 
L 343.613391 47.155882 
L 345.399591 48.068602 
L 347.007171 49.143682 
L 348.525441 50.428944 
L 350.043712 52.022001 
L 351.561982 53.961845 
L 353.080252 56.273585 
L 354.687832 59.12789 
L 356.563343 62.93308 
L 359.153333 68.75925 
L 363.172284 77.797765 
L 365.137104 81.639048 
L 366.833994 84.480864 
L 368.441574 86.740042 
L 369.959845 88.501084 
L 371.478115 89.933797 
L 373.085695 91.140484 
L 374.782585 92.126102 
L 376.568786 92.908021 
L 378.622916 93.559516 
L 381.034286 94.080063 
L 383.955974 94.474867 
L 387.885615 94.764215 
L 393.690766 94.944841 
L 404.765207 95.026702 
L 426.19961 94.961492 
L 432.540621 94.747405 
L 436.202332 94.416247 
L 438.881632 93.9593 
L 441.025073 93.370242 
L 442.811273 92.652113 
L 444.418853 91.762666 
L 445.847813 90.722117 
L 447.187464 89.48357 
L 448.491836 87.989201 
L 449.831487 86.118503 
L 451.260447 83.71655 
L 452.778717 80.698167 
L 454.475607 76.810405 
L 456.886978 70.658912 
L 460.459378 61.58592 
L 462.245579 57.678561 
L 463.763849 54.856748 
L 465.192809 52.641479 
L 466.584348 50.875041 
L 468.013308 49.420407 
L 469.442269 48.277191 
L 470.960539 47.342835 
L 472.657429 46.567963 
L 474.532939 45.960111 
L 476.76569 45.476766 
L 479.5343 45.113122 
L 483.285321 44.857466 
L 489.179782 44.703789 
L 502.084007 44.644328 
L 520.30325 44.730667 
L 520.7498 44.918405 
L 521.10704 45.320058 
L 521.37497 45.959802 
L 521.6429 47.170874 
L 521.91083 49.38592 
L 522.26807 54.914719 
L 522.71462 66.887041 
L 523.4291 86.342933 
L 523.78634 91.106229 
L 524.14358 93.365562 
L 524.50082 94.34673 
L 524.85806 94.756425 
L 525.30461 94.947988 
L 526.197711 95.030688 
L 531.734931 95.04171 
L 547.185564 95.158363 
L 551.293824 95.404147 
L 553.794505 95.758727 
L 555.670015 96.231767 
L 557.188285 96.826756 
L 558.527935 97.581634 
L 559.778276 98.550877 
L 560.939306 99.746812 
L 562.011026 101.162565 
L 563.082746 102.930624 
L 564.243776 105.29226 
L 565.494117 108.382176 
L 566.923077 112.566456 
L 568.887897 119.117557 
L 571.899252 129.140727 
L 573.417522 133.36833 
L 574.667862 136.23708 
L 575.828893 138.399388 
L 576.989923 140.119259 
L 578.150953 141.457589 
L 579.401293 142.548981 
L 580.740943 143.403212 
L 582.169904 144.046261 
L 583.866794 144.556493 
L 585.920924 144.933697 
L 588.689535 145.202099 
L 592.976415 145.366495 
L 601.907417 145.433672 
L 670.222879 145.44 
L 761.740011 145.550174 
L 765.669651 145.788411 
L 768.081022 146.143226 
L 769.867222 146.617992 
L 771.296182 147.211917 
L 772.546522 147.960337 
L 773.707552 148.915728 
L 774.779273 150.085301 
L 775.850993 151.596793 
L 776.922713 153.513318 
L 777.994433 155.885579 
L 779.155463 158.994712 
L 780.495113 163.231206 
L 782.459934 170.289224 
L 785.049924 179.495676 
L 786.478884 183.760785 
L 787.729225 186.812549 
L 788.890255 189.07393 
L 790.051285 190.837331 
L 791.212315 192.1797 
L 792.373345 193.182952 
L 793.623685 193.970384 
L 795.052646 194.596219 
L 796.749536 195.077621 
L 798.803666 195.420519 
L 801.661587 195.658187 
L 806.305707 195.793502 
L 817.826699 195.83843 
L 996.089486 195.84 
L 996.089486 195.84 
" style="fill:none;stroke:#008000;stroke-dasharray:5.55,2.4;stroke-dashoffset:0;stroke-width:1.5;"/>
   </g>
   <g id="line2d_14">
    <path clip-path="url(#p6656642674)" d="M 184.581818 95.04 
L 325.503106 95.149862 
L 331.754807 95.39939 
L 336.041688 95.779496 
L 341.82719 96.339623 
L 343.702701 96.253778 
L 345.578211 95.947977 
L 348.078891 95.289957 
L 351.740602 94.326686 
L 353.526802 94.094108 
L 355.223692 94.102534 
L 357.009893 94.350133 
L 359.510573 94.959411 
L 362.279183 95.58508 
L 364.065384 95.755409 
L 365.851584 95.700598 
L 368.441574 95.365359 
L 372.549835 94.843983 
L 375.675686 94.697963 
L 380.141186 94.744294 
L 395.298346 95.02396 
L 416.286199 95.03442 
L 429.236151 94.894185 
L 434.148202 94.630332 
L 437.274052 94.253671 
L 439.685423 93.74867 
L 441.650243 93.118078 
L 443.347133 92.3464 
L 444.865403 91.417522 
L 446.294364 90.282365 
L 447.68492 88.883101 
L 449.027697 87.213332 
L 450.456657 85.063219 
L 451.974927 82.360927 
L 453.850437 78.529299 
L 458.583868 68.581833 
L 459.923518 66.384657 
L 461.084548 64.887437 
L 462.066958 63.947745 
L 463.049369 63.31632 
L 463.942469 63.005006 
L 464.835569 62.931572 
L 465.780737 63.093456 
L 466.762968 63.496886 
L 467.834688 64.175001 
L 469.085029 65.22845 
L 470.603299 66.80532 
L 472.568119 69.18654 
L 475.51535 73.15086 
L 480.87395 80.389157 
L 483.374631 83.35817 
L 485.518071 85.57443 
L 487.572201 87.392673 
L 489.626332 88.91799 
L 491.680462 90.17329 
L 493.913212 91.269673 
L 496.235273 92.161906 
L 498.868846 92.929227 
L 501.816077 93.552569 
L 505.388477 94.070252 
L 509.853978 94.47722 
L 515.659129 94.767066 
L 520.48187 95.0338 
L 520.92842 95.33542 
L 521.19635 95.75367 
L 521.46428 96.551697 
L 521.73221 98.044462 
L 522.00014 100.725208 
L 522.35738 107.164511 
L 522.89324 122.833447 
L 523.4291 136.641125 
L 523.78634 141.408957 
L 524.14358 143.672658 
L 524.50082 144.657942 
L 524.85806 145.071627 
L 525.39392 145.287387 
L 526.465641 145.366439 
L 534.771472 145.419898 
L 547.542804 145.578602 
L 551.383134 145.847145 
L 553.883815 146.232474 
L 555.759325 146.734364 
L 557.277595 147.355503 
L 558.617245 148.131181 
L 559.867586 149.107095 
L 561.117926 150.382577 
L 562.278956 151.881086 
L 563.529296 153.871297 
L 564.868946 156.452705 
L 566.387217 159.888202 
L 571.542012 172.104403 
L 572.613732 173.813541 
L 573.506832 174.842904 
L 574.310622 175.448383 
L 575.025103 175.734088 
L 575.739583 175.792272 
L 576.454063 175.637743 
L 577.257853 175.232111 
L 578.150953 174.526638 
L 579.222673 173.379794 
L 580.562323 171.579312 
L 582.259214 168.878447 
L 584.759894 164.417003 
L 588.957465 156.909701 
L 590.832975 154.038341 
L 592.440555 151.973259 
L 593.958825 150.381397 
L 595.477096 149.119056 
L 596.995366 148.14601 
L 598.602946 147.376293 
L 600.389146 146.765896 
L 602.532587 146.279401 
L 605.211887 145.917617 
L 608.873598 145.669986 
L 614.768059 145.523653 
L 633.666057 145.396971 
L 639.828448 145.463694 
L 641.971889 145.712318 
L 643.643861 146.1207 
L 645.162132 146.71688 
L 646.680402 147.560462 
L 648.198672 148.662961 
L 649.806252 150.106061 
L 651.592453 152.013004 
L 653.700526 154.60831 
L 656.290517 158.175122 
L 660.130847 163.8948 
L 667.454268 174.841012 
L 670.401499 178.828362 
L 672.812869 181.724443 
L 674.866999 183.860747 
L 676.83182 185.59082 
L 678.70733 186.952598 
L 680.58284 188.042154 
L 682.458351 188.877744 
L 684.333861 189.474732 
L 686.120061 189.814764 
L 687.727641 189.895446 
L 689.156602 189.74601 
L 690.496252 189.38355 
L 691.835902 188.782698 
L 693.175552 187.93056 
L 694.604512 186.740553 
L 696.122783 185.164948 
L 697.730363 183.1676 
L 699.516563 180.592286 
L 701.660003 177.088789 
L 704.339304 172.245269 
L 713.180995 155.860822 
L 714.877885 153.389126 
L 716.396156 151.539274 
L 717.914426 150.03564 
L 719.432696 148.851823 
L 720.950966 147.944337 
L 722.647857 147.196065 
L 724.523367 146.618635 
L 726.756117 146.172189 
L 729.588406 145.844593 
L 733.607356 145.623251 
L 740.484227 145.498915 
L 756.82796 145.475054 
L 763.526211 145.63038 
L 766.652061 145.907211 
L 768.795502 146.307416 
L 770.492392 146.851338 
L 771.832042 147.503974 
L 773.082382 148.367358 
L 774.154102 149.367118 
L 775.225823 150.670933 
L 776.297543 152.343464 
L 777.369263 154.444213 
L 778.530293 157.2499 
L 779.780633 160.889163 
L 781.298904 166.030557 
L 785.853714 181.965486 
L 787.193364 185.550808 
L 788.354395 188.055127 
L 789.515425 190.032216 
L 790.587145 191.448448 
L 791.748175 192.616636 
L 792.998515 193.539927 
L 794.338166 194.247078 
L 796.035056 194.879622 
L 800.500556 196.409404 
L 802.018827 197.260893 
L 803.447787 198.329047 
L 804.876747 199.677896 
L 806.484327 201.522328 
L 808.270528 203.92628 
L 810.503278 207.325327 
L 813.897059 212.950899 
L 820.68462 224.240105 
L 823.81047 228.978679 
L 826.31115 232.374663 
L 828.543901 235.032884 
L 830.598031 237.140659 
L 832.652161 238.926058 
L 834.706292 240.408205 
L 836.760422 241.61823 
L 838.993172 242.668527 
L 841.404543 243.547588 
L 844.083843 244.279523 
L 847.120384 244.875042 
L 850.782094 245.36136 
L 855.336905 245.737134 
L 861.409986 246.004926 
L 870.608917 246.167214 
L 889.45333 246.233532 
L 996.089486 246.24 
L 996.089486 246.24 
" style="fill:none;stroke:#008000;stroke-dasharray:9.6,2.4,1.5,2.4;stroke-dashoffset:0;stroke-width:1.5;"/>
   </g>
   <g id="patch_3">
    <path d="M 144 256.32 
L 144 34.56 
" style="fill:none;stroke:#000000;stroke-linecap:square;stroke-linejoin:miter;stroke-width:0.8;"/>
   </g>
   <g id="patch_4">
    <path d="M 1036.8 256.32 
L 1036.8 34.56 
" style="fill:none;stroke:#000000;stroke-linecap:square;stroke-linejoin:miter;stroke-width:0.8;"/>
   </g>
   <g id="patch_5">
    <path d="M 144 256.32 
L 1036.8 256.32 
" style="fill:none;stroke:#000000;stroke-linecap:square;stroke-linejoin:miter;stroke-width:0.8;"/>
   </g>
   <g id="patch_6">
    <path d="M 144 34.56 
L 1036.8 34.56 
" style="fill:none;stroke:#000000;stroke-linecap:square;stroke-linejoin:miter;stroke-width:0.8;"/>
   </g>
   <g id="text_14">
    <!-- In  RMSE: 0.0 -->
    <defs>
     <path d="M 9.8125 72.90625 
L 50.296875 72.90625 
L 50.296875 64.59375 
L 35.015625 64.59375 
L 35.015625 8.296875 
L 50.296875 8.296875 
L 50.296875 0 
L 9.8125 0 
L 9.8125 8.296875 
L 25.09375 8.296875 
L 25.09375 64.59375 
L 9.8125 64.59375 
z
" id="DejaVuSansMono-73"/>
     <path d="M 51.3125 33.890625 
L 51.3125 0 
L 42.28125 0 
L 42.28125 33.890625 
Q 42.28125 41.265625 39.6875 44.71875 
Q 37.109375 48.1875 31.59375 48.1875 
Q 25.296875 48.1875 21.890625 43.71875 
Q 18.5 39.265625 18.5 30.90625 
L 18.5 0 
L 9.515625 0 
L 9.515625 54.6875 
L 18.5 54.6875 
L 18.5 46.484375 
Q 20.90625 51.171875 25 53.578125 
Q 29.109375 56 34.71875 56 
Q 43.0625 56 47.1875 50.5 
Q 51.3125 45.015625 51.3125 33.890625 
z
" id="DejaVuSansMono-110"/>
     <path id="DejaVuSansMono-32"/>
     <path d="M 37.109375 34.421875 
Q 40.921875 33.453125 43.609375 30.734375 
Q 46.296875 28.03125 50.296875 19.921875 
L 60.203125 0 
L 49.609375 0 
L 40.921875 18.40625 
Q 37.15625 26.265625 34.15625 28.53125 
Q 31.15625 30.8125 26.3125 30.8125 
L 16.890625 30.8125 
L 16.890625 0 
L 6.984375 0 
L 6.984375 72.90625 
L 27.296875 72.90625 
Q 39.3125 72.90625 45.703125 67.484375 
Q 52.09375 62.0625 52.09375 51.8125 
Q 52.09375 44.578125 48.15625 40.015625 
Q 44.234375 35.453125 37.109375 34.421875 
z
M 16.890625 64.796875 
L 16.890625 38.921875 
L 27.6875 38.921875 
Q 34.765625 38.921875 38.234375 42.09375 
Q 41.703125 45.265625 41.703125 51.8125 
Q 41.703125 58.109375 38.015625 61.453125 
Q 34.328125 64.796875 27.296875 64.796875 
z
" id="DejaVuSansMono-82"/>
     <path d="M 4.203125 72.90625 
L 17.390625 72.90625 
L 29.984375 35.796875 
L 42.671875 72.90625 
L 55.90625 72.90625 
L 55.90625 0 
L 46.78125 0 
L 46.78125 64.40625 
L 33.796875 25.984375 
L 26.3125 25.984375 
L 13.28125 64.40625 
L 13.28125 0 
L 4.203125 0 
z
" id="DejaVuSansMono-77"/>
     <path d="M 49.421875 70.40625 
L 49.421875 60.40625 
Q 44.921875 63.28125 40.40625 64.75 
Q 35.890625 66.21875 31.296875 66.21875 
Q 24.3125 66.21875 20.265625 62.96875 
Q 16.21875 59.71875 16.21875 54.203125 
Q 16.21875 49.359375 18.875 46.8125 
Q 21.53125 44.28125 28.8125 42.578125 
L 33.984375 41.40625 
Q 44.234375 39.015625 48.921875 33.890625 
Q 53.609375 28.765625 53.609375 19.921875 
Q 53.609375 9.515625 47.15625 4.046875 
Q 40.71875 -1.421875 28.421875 -1.421875 
Q 23.296875 -1.421875 18.109375 -0.3125 
Q 12.9375 0.78125 7.71875 2.984375 
L 7.71875 13.484375 
Q 13.328125 9.90625 18.328125 8.25 
Q 23.34375 6.59375 28.421875 6.59375 
Q 35.890625 6.59375 40.03125 9.9375 
Q 44.1875 13.28125 44.1875 19.28125 
Q 44.1875 24.75 41.328125 27.625 
Q 38.484375 30.515625 31.390625 32.078125 
L 26.125 33.296875 
Q 15.96875 35.59375 11.375 40.234375 
Q 6.78125 44.875 6.78125 52.6875 
Q 6.78125 62.453125 13.34375 68.328125 
Q 19.921875 74.21875 30.8125 74.21875 
Q 35.015625 74.21875 39.640625 73.265625 
Q 44.28125 72.3125 49.421875 70.40625 
z
" id="DejaVuSansMono-83"/>
     <path d="M 9.625 72.90625 
L 52.875 72.90625 
L 52.875 64.59375 
L 19.484375 64.59375 
L 19.484375 43.015625 
L 51.421875 43.015625 
L 51.421875 34.71875 
L 19.484375 34.71875 
L 19.484375 8.296875 
L 53.8125 8.296875 
L 53.8125 0 
L 9.625 0 
z
" id="DejaVuSansMono-69"/>
     <path d="M 23.875 51.90625 
L 36.1875 51.90625 
L 36.1875 37.109375 
L 23.875 37.109375 
z
M 23.875 14.890625 
L 36.1875 14.890625 
L 36.1875 0 
L 23.875 0 
z
" id="DejaVuSansMono-58"/>
     <path d="M 23.578125 36.625 
Q 23.578125 39.3125 25.453125 41.265625 
Q 27.34375 43.21875 29.984375 43.21875 
Q 32.71875 43.21875 34.671875 41.265625 
Q 36.625 39.3125 36.625 36.625 
Q 36.625 33.890625 34.6875 31.984375 
Q 32.765625 30.078125 29.984375 30.078125 
Q 27.25 30.078125 25.40625 31.9375 
Q 23.578125 33.796875 23.578125 36.625 
z
M 30.078125 66.40625 
Q 23.1875 66.40625 19.796875 58.984375 
Q 16.40625 51.5625 16.40625 36.375 
Q 16.40625 21.234375 19.796875 13.8125 
Q 23.1875 6.390625 30.078125 6.390625 
Q 37.015625 6.390625 40.40625 13.8125 
Q 43.796875 21.234375 43.796875 36.375 
Q 43.796875 51.5625 40.40625 58.984375 
Q 37.015625 66.40625 30.078125 66.40625 
z
M 30.078125 74.21875 
Q 41.75 74.21875 47.734375 64.640625 
Q 53.71875 55.078125 53.71875 36.375 
Q 53.71875 17.71875 47.734375 8.140625 
Q 41.75 -1.421875 30.078125 -1.421875 
Q 18.40625 -1.421875 12.453125 8.140625 
Q 6.5 17.71875 6.5 36.375 
Q 6.5 55.078125 12.453125 64.640625 
Q 18.40625 74.21875 30.078125 74.21875 
z
" id="DejaVuSansMono-48"/>
     <path d="M 23.875 14.890625 
L 36.1875 14.890625 
L 36.1875 0 
L 23.875 0 
z
" id="DejaVuSansMono-46"/>
    </defs>
    <g transform="translate(184.581818 178.278437)scale(0.1 -0.1)">
     <use xlink:href="#DejaVuSansMono-73"/>
     <use x="60.205078" xlink:href="#DejaVuSansMono-110"/>
     <use x="120.410156" xlink:href="#DejaVuSansMono-32"/>
     <use x="180.615234" xlink:href="#DejaVuSansMono-32"/>
     <use x="240.820312" xlink:href="#DejaVuSansMono-82"/>
     <use x="301.025391" xlink:href="#DejaVuSansMono-77"/>
     <use x="361.230469" xlink:href="#DejaVuSansMono-83"/>
     <use x="421.435547" xlink:href="#DejaVuSansMono-69"/>
     <use x="481.640625" xlink:href="#DejaVuSansMono-58"/>
     <use x="541.845703" xlink:href="#DejaVuSansMono-32"/>
     <use x="602.050781" xlink:href="#DejaVuSansMono-48"/>
     <use x="662.255859" xlink:href="#DejaVuSansMono-46"/>
     <use x="722.460938" xlink:href="#DejaVuSansMono-48"/>
    </g>
    <!-- Out RMSE: 1.48421 -->
    <defs>
     <path d="M 44.1875 36.375 
Q 44.1875 52.4375 40.890625 59.328125 
Q 37.59375 66.21875 30.078125 66.21875 
Q 22.609375 66.21875 19.3125 59.328125 
Q 16.015625 52.4375 16.015625 36.375 
Q 16.015625 20.359375 19.3125 13.46875 
Q 22.609375 6.59375 30.078125 6.59375 
Q 37.59375 6.59375 40.890625 13.453125 
Q 44.1875 20.3125 44.1875 36.375 
z
M 54.5 36.375 
Q 54.5 17.328125 48.46875 7.953125 
Q 42.4375 -1.421875 30.078125 -1.421875 
Q 17.71875 -1.421875 11.71875 7.90625 
Q 5.71875 17.234375 5.71875 36.375 
Q 5.71875 55.46875 11.75 64.84375 
Q 17.78125 74.21875 30.078125 74.21875 
Q 42.4375 74.21875 48.46875 64.84375 
Q 54.5 55.46875 54.5 36.375 
z
" id="DejaVuSansMono-79"/>
     <path d="M 9.515625 20.703125 
L 9.515625 54.59375 
L 18.5 54.59375 
L 18.5 20.703125 
Q 18.5 13.328125 21.109375 9.859375 
Q 23.734375 6.390625 29.203125 6.390625 
Q 35.546875 6.390625 38.90625 10.859375 
Q 42.28125 15.328125 42.28125 23.6875 
L 42.28125 54.59375 
L 51.3125 54.59375 
L 51.3125 0 
L 42.28125 0 
L 42.28125 8.203125 
Q 39.890625 3.46875 35.765625 1.015625 
Q 31.640625 -1.421875 26.125 -1.421875 
Q 17.71875 -1.421875 13.609375 4.078125 
Q 9.515625 9.578125 9.515625 20.703125 
z
" id="DejaVuSansMono-117"/>
     <path d="M 29.984375 70.21875 
L 29.984375 54.6875 
L 50.390625 54.6875 
L 50.390625 47.703125 
L 29.984375 47.703125 
L 29.984375 18.015625 
Q 29.984375 11.96875 32.28125 9.5625 
Q 34.578125 7.171875 40.28125 7.171875 
L 50.390625 7.171875 
L 50.390625 0 
L 39.40625 0 
Q 29.296875 0 25.140625 4.046875 
Q 21 8.109375 21 18.015625 
L 21 47.703125 
L 6.390625 47.703125 
L 6.390625 54.6875 
L 21 54.6875 
L 21 70.21875 
z
" id="DejaVuSansMono-116"/>
     <path d="M 13.1875 8.296875 
L 28.515625 8.296875 
L 28.515625 64.015625 
L 12.015625 60.296875 
L 12.015625 69.28125 
L 28.421875 72.90625 
L 38.28125 72.90625 
L 38.28125 8.296875 
L 53.421875 8.296875 
L 53.421875 0 
L 13.1875 0 
z
" id="DejaVuSansMono-49"/>
     <path d="M 35.890625 63.921875 
L 12.890625 25.390625 
L 35.890625 25.390625 
z
M 34.28125 72.90625 
L 45.703125 72.90625 
L 45.703125 25.390625 
L 55.421875 25.390625 
L 55.421875 17.390625 
L 45.703125 17.390625 
L 45.703125 0 
L 35.890625 0 
L 35.890625 17.390625 
L 4.984375 17.390625 
L 4.984375 26.703125 
z
" id="DejaVuSansMono-52"/>
     <path d="M 30.078125 34.625 
Q 23.484375 34.625 19.890625 30.9375 
Q 16.3125 27.25 16.3125 20.515625 
Q 16.3125 13.765625 19.9375 10.03125 
Q 23.578125 6.296875 30.078125 6.296875 
Q 36.71875 6.296875 40.296875 9.984375 
Q 43.890625 13.671875 43.890625 20.515625 
Q 43.890625 27.203125 40.25 30.90625 
Q 36.625 34.625 30.078125 34.625 
z
M 21.484375 38.71875 
Q 15.1875 40.328125 11.640625 44.71875 
Q 8.109375 49.125 8.109375 55.328125 
Q 8.109375 64.015625 14.015625 69.109375 
Q 19.921875 74.21875 30.078125 74.21875 
Q 40.28125 74.21875 46.1875 69.109375 
Q 52.09375 64.015625 52.09375 55.328125 
Q 52.09375 49.125 48.546875 44.71875 
Q 45.015625 40.328125 38.71875 38.71875 
Q 46.046875 37.109375 49.921875 32.21875 
Q 53.8125 27.34375 53.8125 19.578125 
Q 53.8125 9.71875 47.515625 4.140625 
Q 41.21875 -1.421875 30.078125 -1.421875 
Q 18.953125 -1.421875 12.671875 4.125 
Q 6.390625 9.671875 6.390625 19.484375 
Q 6.390625 27.296875 10.265625 32.203125 
Q 14.15625 37.109375 21.484375 38.71875 
z
M 17.921875 54.390625 
Q 17.921875 48.53125 21.046875 45.453125 
Q 24.171875 42.390625 30.078125 42.390625 
Q 36.03125 42.390625 39.15625 45.453125 
Q 42.28125 48.53125 42.28125 54.390625 
Q 42.28125 60.359375 39.171875 63.484375 
Q 36.078125 66.609375 30.078125 66.609375 
Q 24.171875 66.609375 21.046875 63.453125 
Q 17.921875 60.296875 17.921875 54.390625 
z
" id="DejaVuSansMono-56"/>
     <path d="M 18.21875 8.296875 
L 51.703125 8.296875 
L 51.703125 0 
L 7.421875 0 
L 7.421875 8.296875 
Q 16.546875 17.921875 23.375 25.296875 
Q 30.21875 32.671875 32.8125 35.6875 
Q 37.703125 41.65625 39.40625 45.34375 
Q 41.109375 49.03125 41.109375 52.875 
Q 41.109375 58.984375 37.515625 62.453125 
Q 33.9375 65.921875 27.6875 65.921875 
Q 23.25 65.921875 18.359375 64.3125 
Q 13.484375 62.703125 8.015625 59.421875 
L 8.015625 69.390625 
Q 13.03125 71.78125 17.890625 73 
Q 22.75 74.21875 27.484375 74.21875 
Q 38.1875 74.21875 44.703125 68.53125 
Q 51.21875 62.84375 51.21875 53.609375 
Q 51.21875 48.921875 49.046875 44.234375 
Q 46.875 39.546875 42 33.890625 
Q 39.265625 30.71875 34.0625 25.09375 
Q 28.859375 19.484375 18.21875 8.296875 
z
" id="DejaVuSansMono-50"/>
    </defs>
    <g transform="translate(184.581818 189.54)scale(0.1 -0.1)">
     <use xlink:href="#DejaVuSansMono-79"/>
     <use x="60.205078" xlink:href="#DejaVuSansMono-117"/>
     <use x="120.410156" xlink:href="#DejaVuSansMono-116"/>
     <use x="180.615234" xlink:href="#DejaVuSansMono-32"/>
     <use x="240.820312" xlink:href="#DejaVuSansMono-82"/>
     <use x="301.025391" xlink:href="#DejaVuSansMono-77"/>
     <use x="361.230469" xlink:href="#DejaVuSansMono-83"/>
     <use x="421.435547" xlink:href="#DejaVuSansMono-69"/>
     <use x="481.640625" xlink:href="#DejaVuSansMono-58"/>
     <use x="541.845703" xlink:href="#DejaVuSansMono-32"/>
     <use x="602.050781" xlink:href="#DejaVuSansMono-49"/>
     <use x="662.255859" xlink:href="#DejaVuSansMono-46"/>
     <use x="722.460938" xlink:href="#DejaVuSansMono-52"/>
     <use x="782.666016" xlink:href="#DejaVuSansMono-56"/>
     <use x="842.871094" xlink:href="#DejaVuSansMono-52"/>
     <use x="903.076172" xlink:href="#DejaVuSansMono-50"/>
     <use x="963.28125" xlink:href="#DejaVuSansMono-49"/>
    </g>
   </g>
   <g id="text_15">
    <!-- inv_t4_invSim_520_200Traces fitting using transfer functions -->
    <defs>
     <path d="M 54.890625 33.015625 
L 54.890625 0 
L 45.90625 0 
L 45.90625 32.71875 
Q 45.90625 40.484375 42.875 44.328125 
Q 39.84375 48.1875 33.796875 48.1875 
Q 26.515625 48.1875 22.3125 43.546875 
Q 18.109375 38.921875 18.109375 30.90625 
L 18.109375 0 
L 9.078125 0 
L 9.078125 54.6875 
L 18.109375 54.6875 
L 18.109375 46.1875 
Q 21.34375 51.125 25.703125 53.5625 
Q 30.078125 56 35.796875 56 
Q 45.21875 56 50.046875 50.171875 
Q 54.890625 44.34375 54.890625 33.015625 
z
" id="DejaVuSans-110"/>
     <path d="M 2.984375 54.6875 
L 12.5 54.6875 
L 29.59375 8.796875 
L 46.6875 54.6875 
L 56.203125 54.6875 
L 35.6875 0 
L 23.484375 0 
z
" id="DejaVuSans-118"/>
     <path d="M 50.984375 -16.609375 
L 50.984375 -23.578125 
L -0.984375 -23.578125 
L -0.984375 -16.609375 
z
" id="DejaVuSans-95"/>
     <path d="M 53.515625 70.515625 
L 53.515625 60.890625 
Q 47.90625 63.578125 42.921875 64.890625 
Q 37.9375 66.21875 33.296875 66.21875 
Q 25.25 66.21875 20.875 63.09375 
Q 16.5 59.96875 16.5 54.203125 
Q 16.5 49.359375 19.40625 46.890625 
Q 22.3125 44.4375 30.421875 42.921875 
L 36.375 41.703125 
Q 47.40625 39.59375 52.65625 34.296875 
Q 57.90625 29 57.90625 20.125 
Q 57.90625 9.515625 50.796875 4.046875 
Q 43.703125 -1.421875 29.984375 -1.421875 
Q 24.8125 -1.421875 18.96875 -0.25 
Q 13.140625 0.921875 6.890625 3.21875 
L 6.890625 13.375 
Q 12.890625 10.015625 18.65625 8.296875 
Q 24.421875 6.59375 29.984375 6.59375 
Q 38.421875 6.59375 43.015625 9.90625 
Q 47.609375 13.234375 47.609375 19.390625 
Q 47.609375 24.75 44.3125 27.78125 
Q 41.015625 30.8125 33.5 32.328125 
L 27.484375 33.5 
Q 16.453125 35.6875 11.515625 40.375 
Q 6.59375 45.0625 6.59375 53.421875 
Q 6.59375 63.09375 13.40625 68.65625 
Q 20.21875 74.21875 32.171875 74.21875 
Q 37.3125 74.21875 42.625 73.28125 
Q 47.953125 72.359375 53.515625 70.515625 
z
" id="DejaVuSans-83"/>
     <path d="M 10.796875 72.90625 
L 49.515625 72.90625 
L 49.515625 64.59375 
L 19.828125 64.59375 
L 19.828125 46.734375 
Q 21.96875 47.46875 24.109375 47.828125 
Q 26.265625 48.1875 28.421875 48.1875 
Q 40.625 48.1875 47.75 41.5 
Q 54.890625 34.8125 54.890625 23.390625 
Q 54.890625 11.625 47.5625 5.09375 
Q 40.234375 -1.421875 26.90625 -1.421875 
Q 22.3125 -1.421875 17.546875 -0.640625 
Q 12.796875 0.140625 7.71875 1.703125 
L 7.71875 11.625 
Q 12.109375 9.234375 16.796875 8.0625 
Q 21.484375 6.890625 26.703125 6.890625 
Q 35.15625 6.890625 40.078125 11.328125 
Q 45.015625 15.765625 45.015625 23.390625 
Q 45.015625 31 40.078125 35.4375 
Q 35.15625 39.890625 26.703125 39.890625 
Q 22.75 39.890625 18.8125 39.015625 
Q 14.890625 38.140625 10.796875 36.28125 
z
" id="DejaVuSans-53"/>
     <path d="M 41.109375 46.296875 
Q 39.59375 47.171875 37.8125 47.578125 
Q 36.03125 48 33.890625 48 
Q 26.265625 48 22.1875 43.046875 
Q 18.109375 38.09375 18.109375 28.8125 
L 18.109375 0 
L 9.078125 0 
L 9.078125 54.6875 
L 18.109375 54.6875 
L 18.109375 46.1875 
Q 20.953125 51.171875 25.484375 53.578125 
Q 30.03125 56 36.53125 56 
Q 37.453125 56 38.578125 55.875 
Q 39.703125 55.765625 41.0625 55.515625 
z
" id="DejaVuSans-114"/>
     <path d="M 48.78125 52.59375 
L 48.78125 44.1875 
Q 44.96875 46.296875 41.140625 47.34375 
Q 37.3125 48.390625 33.40625 48.390625 
Q 24.65625 48.390625 19.8125 42.84375 
Q 14.984375 37.3125 14.984375 27.296875 
Q 14.984375 17.28125 19.8125 11.734375 
Q 24.65625 6.203125 33.40625 6.203125 
Q 37.3125 6.203125 41.140625 7.25 
Q 44.96875 8.296875 48.78125 10.40625 
L 48.78125 2.09375 
Q 45.015625 0.34375 40.984375 -0.53125 
Q 36.96875 -1.421875 32.421875 -1.421875 
Q 20.0625 -1.421875 12.78125 6.34375 
Q 5.515625 14.109375 5.515625 27.296875 
Q 5.515625 40.671875 12.859375 48.328125 
Q 20.21875 56 33.015625 56 
Q 37.15625 56 41.109375 55.140625 
Q 45.0625 54.296875 48.78125 52.59375 
z
" id="DejaVuSans-99"/>
     <path d="M 37.109375 75.984375 
L 37.109375 68.5 
L 28.515625 68.5 
Q 23.6875 68.5 21.796875 66.546875 
Q 19.921875 64.59375 19.921875 59.515625 
L 19.921875 54.6875 
L 34.71875 54.6875 
L 34.71875 47.703125 
L 19.921875 47.703125 
L 19.921875 0 
L 10.890625 0 
L 10.890625 47.703125 
L 2.296875 47.703125 
L 2.296875 54.6875 
L 10.890625 54.6875 
L 10.890625 58.5 
Q 10.890625 67.625 15.140625 71.796875 
Q 19.390625 75.984375 28.609375 75.984375 
z
" id="DejaVuSans-102"/>
     <path d="M 8.5 21.578125 
L 8.5 54.6875 
L 17.484375 54.6875 
L 17.484375 21.921875 
Q 17.484375 14.15625 20.5 10.265625 
Q 23.53125 6.390625 29.59375 6.390625 
Q 36.859375 6.390625 41.078125 11.03125 
Q 45.3125 15.671875 45.3125 23.6875 
L 45.3125 54.6875 
L 54.296875 54.6875 
L 54.296875 0 
L 45.3125 0 
L 45.3125 8.40625 
Q 42.046875 3.421875 37.71875 1 
Q 33.40625 -1.421875 27.6875 -1.421875 
Q 18.265625 -1.421875 13.375 4.4375 
Q 8.5 10.296875 8.5 21.578125 
z
M 31.109375 56 
z
" id="DejaVuSans-117"/>
    </defs>
    <g transform="translate(407.127187 28.56)scale(0.12 -0.12)">
     <use xlink:href="#DejaVuSans-105"/>
     <use x="27.783203" xlink:href="#DejaVuSans-110"/>
     <use x="91.162109" xlink:href="#DejaVuSans-118"/>
     <use x="150.341797" xlink:href="#DejaVuSans-95"/>
     <use x="200.341797" xlink:href="#DejaVuSans-116"/>
     <use x="239.550781" xlink:href="#DejaVuSans-52"/>
     <use x="303.173828" xlink:href="#DejaVuSans-95"/>
     <use x="353.173828" xlink:href="#DejaVuSans-105"/>
     <use x="380.957031" xlink:href="#DejaVuSans-110"/>
     <use x="444.335938" xlink:href="#DejaVuSans-118"/>
     <use x="503.515625" xlink:href="#DejaVuSans-83"/>
     <use x="566.992188" xlink:href="#DejaVuSans-105"/>
     <use x="594.775391" xlink:href="#DejaVuSans-109"/>
     <use x="692.1875" xlink:href="#DejaVuSans-95"/>
     <use x="742.1875" xlink:href="#DejaVuSans-53"/>
     <use x="805.810547" xlink:href="#DejaVuSans-50"/>
     <use x="869.433594" xlink:href="#DejaVuSans-48"/>
     <use x="933.056641" xlink:href="#DejaVuSans-95"/>
     <use x="983.056641" xlink:href="#DejaVuSans-50"/>
     <use x="1046.679688" xlink:href="#DejaVuSans-48"/>
     <use x="1110.302734" xlink:href="#DejaVuSans-48"/>
     <use x="1173.925781" xlink:href="#DejaVuSans-84"/>
     <use x="1234.791016" xlink:href="#DejaVuSans-114"/>
     <use x="1275.904297" xlink:href="#DejaVuSans-97"/>
     <use x="1337.183594" xlink:href="#DejaVuSans-99"/>
     <use x="1392.164062" xlink:href="#DejaVuSans-101"/>
     <use x="1453.6875" xlink:href="#DejaVuSans-115"/>
     <use x="1505.787109" xlink:href="#DejaVuSans-32"/>
     <use x="1537.574219" xlink:href="#DejaVuSans-102"/>
     <use x="1572.779297" xlink:href="#DejaVuSans-105"/>
     <use x="1600.5625" xlink:href="#DejaVuSans-116"/>
     <use x="1639.771484" xlink:href="#DejaVuSans-116"/>
     <use x="1678.980469" xlink:href="#DejaVuSans-105"/>
     <use x="1706.763672" xlink:href="#DejaVuSans-110"/>
     <use x="1770.142578" xlink:href="#DejaVuSans-103"/>
     <use x="1833.619141" xlink:href="#DejaVuSans-32"/>
     <use x="1865.40625" xlink:href="#DejaVuSans-117"/>
     <use x="1928.785156" xlink:href="#DejaVuSans-115"/>
     <use x="1980.884766" xlink:href="#DejaVuSans-105"/>
     <use x="2008.667969" xlink:href="#DejaVuSans-110"/>
     <use x="2072.046875" xlink:href="#DejaVuSans-103"/>
     <use x="2135.523438" xlink:href="#DejaVuSans-32"/>
     <use x="2167.310547" xlink:href="#DejaVuSans-116"/>
     <use x="2206.519531" xlink:href="#DejaVuSans-114"/>
     <use x="2247.632812" xlink:href="#DejaVuSans-97"/>
     <use x="2308.912109" xlink:href="#DejaVuSans-110"/>
     <use x="2372.291016" xlink:href="#DejaVuSans-115"/>
     <use x="2424.390625" xlink:href="#DejaVuSans-102"/>
     <use x="2459.595703" xlink:href="#DejaVuSans-101"/>
     <use x="2521.119141" xlink:href="#DejaVuSans-114"/>
     <use x="2562.232422" xlink:href="#DejaVuSans-32"/>
     <use x="2594.019531" xlink:href="#DejaVuSans-102"/>
     <use x="2629.224609" xlink:href="#DejaVuSans-117"/>
     <use x="2692.603516" xlink:href="#DejaVuSans-110"/>
     <use x="2755.982422" xlink:href="#DejaVuSans-99"/>
     <use x="2810.962891" xlink:href="#DejaVuSans-116"/>
     <use x="2850.171875" xlink:href="#DejaVuSans-105"/>
     <use x="2877.955078" xlink:href="#DejaVuSans-111"/>
     <use x="2939.136719" xlink:href="#DejaVuSans-110"/>
     <use x="3002.515625" xlink:href="#DejaVuSans-115"/>
    </g>
   </g>
   <g id="legend_1">
    <g id="patch_7">
     <path d="M 151 176.29625 
L 369.0875 176.29625 
Q 371.0875 176.29625 371.0875 174.29625 
L 371.0875 116.58375 
Q 371.0875 114.58375 369.0875 114.58375 
L 151 114.58375 
Q 149 114.58375 149 116.58375 
L 149 174.29625 
Q 149 176.29625 151 176.29625 
z
" style="fill:#ffffff;opacity:0.8;stroke:#cccccc;stroke-linejoin:miter;"/>
    </g>
    <g id="line2d_15">
     <path d="M 153 122.682187 
L 173 122.682187 
" style="fill:none;stroke:#ff0000;stroke-linecap:square;stroke-width:1.5;"/>
    </g>
    <g id="line2d_16"/>
    <g id="text_16">
     <!-- Input -->
     <defs>
      <path d="M 9.8125 72.90625 
L 19.671875 72.90625 
L 19.671875 0 
L 9.8125 0 
z
" id="DejaVuSans-73"/>
      <path d="M 18.109375 8.203125 
L 18.109375 -20.796875 
L 9.078125 -20.796875 
L 9.078125 54.6875 
L 18.109375 54.6875 
L 18.109375 46.390625 
Q 20.953125 51.265625 25.265625 53.625 
Q 29.59375 56 35.59375 56 
Q 45.5625 56 51.78125 48.09375 
Q 58.015625 40.1875 58.015625 27.296875 
Q 58.015625 14.40625 51.78125 6.484375 
Q 45.5625 -1.421875 35.59375 -1.421875 
Q 29.59375 -1.421875 25.265625 0.953125 
Q 20.953125 3.328125 18.109375 8.203125 
z
M 48.6875 27.296875 
Q 48.6875 37.203125 44.609375 42.84375 
Q 40.53125 48.484375 33.40625 48.484375 
Q 26.265625 48.484375 22.1875 42.84375 
Q 18.109375 37.203125 18.109375 27.296875 
Q 18.109375 17.390625 22.1875 11.75 
Q 26.265625 6.109375 33.40625 6.109375 
Q 40.53125 6.109375 44.609375 11.75 
Q 48.6875 17.390625 48.6875 27.296875 
z
" id="DejaVuSans-112"/>
     </defs>
     <g transform="translate(181 126.182187)scale(0.1 -0.1)">
      <use xlink:href="#DejaVuSans-73"/>
      <use x="29.492188" xlink:href="#DejaVuSans-110"/>
      <use x="92.871094" xlink:href="#DejaVuSans-112"/>
      <use x="156.347656" xlink:href="#DejaVuSans-117"/>
      <use x="219.726562" xlink:href="#DejaVuSans-116"/>
     </g>
    </g>
    <g id="line2d_17">
     <path d="M 153 137.360312 
L 173 137.360312 
" style="fill:none;stroke:#008000;stroke-linecap:square;stroke-width:1.5;"/>
    </g>
    <g id="line2d_18"/>
    <g id="text_17">
     <!-- Output -->
     <defs>
      <path d="M 39.40625 66.21875 
Q 28.65625 66.21875 22.328125 58.203125 
Q 16.015625 50.203125 16.015625 36.375 
Q 16.015625 22.609375 22.328125 14.59375 
Q 28.65625 6.59375 39.40625 6.59375 
Q 50.140625 6.59375 56.421875 14.59375 
Q 62.703125 22.609375 62.703125 36.375 
Q 62.703125 50.203125 56.421875 58.203125 
Q 50.140625 66.21875 39.40625 66.21875 
z
M 39.40625 74.21875 
Q 54.734375 74.21875 63.90625 63.9375 
Q 73.09375 53.65625 73.09375 36.375 
Q 73.09375 19.140625 63.90625 8.859375 
Q 54.734375 -1.421875 39.40625 -1.421875 
Q 24.03125 -1.421875 14.8125 8.828125 
Q 5.609375 19.09375 5.609375 36.375 
Q 5.609375 53.65625 14.8125 63.9375 
Q 24.03125 74.21875 39.40625 74.21875 
z
" id="DejaVuSans-79"/>
     </defs>
     <g transform="translate(181 140.860312)scale(0.1 -0.1)">
      <use xlink:href="#DejaVuSans-79"/>
      <use x="78.710938" xlink:href="#DejaVuSans-117"/>
      <use x="142.089844" xlink:href="#DejaVuSans-116"/>
      <use x="181.298828" xlink:href="#DejaVuSans-112"/>
      <use x="244.775391" xlink:href="#DejaVuSans-117"/>
      <use x="308.154297" xlink:href="#DejaVuSans-116"/>
     </g>
    </g>
    <g id="line2d_19">
     <path d="M 153 152.038437 
L 173 152.038437 
" style="fill:none;stroke:#008000;stroke-dasharray:5.55,2.4;stroke-dashoffset:0;stroke-width:1.5;"/>
    </g>
    <g id="line2d_20"/>
    <g id="text_18">
     <!-- Output fitting from transfer functions -->
     <g transform="translate(181 155.538437)scale(0.1 -0.1)">
      <use xlink:href="#DejaVuSans-79"/>
      <use x="78.710938" xlink:href="#DejaVuSans-117"/>
      <use x="142.089844" xlink:href="#DejaVuSans-116"/>
      <use x="181.298828" xlink:href="#DejaVuSans-112"/>
      <use x="244.775391" xlink:href="#DejaVuSans-117"/>
      <use x="308.154297" xlink:href="#DejaVuSans-116"/>
      <use x="347.363281" xlink:href="#DejaVuSans-32"/>
      <use x="379.150391" xlink:href="#DejaVuSans-102"/>
      <use x="414.355469" xlink:href="#DejaVuSans-105"/>
      <use x="442.138672" xlink:href="#DejaVuSans-116"/>
      <use x="481.347656" xlink:href="#DejaVuSans-116"/>
      <use x="520.556641" xlink:href="#DejaVuSans-105"/>
      <use x="548.339844" xlink:href="#DejaVuSans-110"/>
      <use x="611.71875" xlink:href="#DejaVuSans-103"/>
      <use x="675.195312" xlink:href="#DejaVuSans-32"/>
      <use x="706.982422" xlink:href="#DejaVuSans-102"/>
      <use x="742.1875" xlink:href="#DejaVuSans-114"/>
      <use x="783.269531" xlink:href="#DejaVuSans-111"/>
      <use x="844.451172" xlink:href="#DejaVuSans-109"/>
      <use x="941.863281" xlink:href="#DejaVuSans-32"/>
      <use x="973.650391" xlink:href="#DejaVuSans-116"/>
      <use x="1012.859375" xlink:href="#DejaVuSans-114"/>
      <use x="1053.972656" xlink:href="#DejaVuSans-97"/>
      <use x="1115.251953" xlink:href="#DejaVuSans-110"/>
      <use x="1178.630859" xlink:href="#DejaVuSans-115"/>
      <use x="1230.730469" xlink:href="#DejaVuSans-102"/>
      <use x="1265.935547" xlink:href="#DejaVuSans-101"/>
      <use x="1327.458984" xlink:href="#DejaVuSans-114"/>
      <use x="1368.572266" xlink:href="#DejaVuSans-32"/>
      <use x="1400.359375" xlink:href="#DejaVuSans-102"/>
      <use x="1435.564453" xlink:href="#DejaVuSans-117"/>
      <use x="1498.943359" xlink:href="#DejaVuSans-110"/>
      <use x="1562.322266" xlink:href="#DejaVuSans-99"/>
      <use x="1617.302734" xlink:href="#DejaVuSans-116"/>
      <use x="1656.511719" xlink:href="#DejaVuSans-105"/>
      <use x="1684.294922" xlink:href="#DejaVuSans-111"/>
      <use x="1745.476562" xlink:href="#DejaVuSans-110"/>
      <use x="1808.855469" xlink:href="#DejaVuSans-115"/>
     </g>
    </g>
    <g id="line2d_21">
     <path d="M 153 166.716563 
L 173 166.716563 
" style="fill:none;stroke:#008000;stroke-dasharray:9.6,2.4,1.5,2.4;stroke-dashoffset:0;stroke-width:1.5;"/>
    </g>
    <g id="line2d_22"/>
    <g id="text_19">
     <!-- fitting error -->
     <g transform="translate(181 170.216563)scale(0.1 -0.1)">
      <use xlink:href="#DejaVuSans-102"/>
      <use x="35.205078" xlink:href="#DejaVuSans-105"/>
      <use x="62.988281" xlink:href="#DejaVuSans-116"/>
      <use x="102.197266" xlink:href="#DejaVuSans-116"/>
      <use x="141.40625" xlink:href="#DejaVuSans-105"/>
      <use x="169.189453" xlink:href="#DejaVuSans-110"/>
      <use x="232.568359" xlink:href="#DejaVuSans-103"/>
      <use x="296.044922" xlink:href="#DejaVuSans-32"/>
      <use x="327.832031" xlink:href="#DejaVuSans-101"/>
      <use x="389.355469" xlink:href="#DejaVuSans-114"/>
      <use x="430.453125" xlink:href="#DejaVuSans-114"/>
      <use x="471.535156" xlink:href="#DejaVuSans-111"/>
      <use x="532.716797" xlink:href="#DejaVuSans-114"/>
     </g>
    </g>
   </g>
  </g>
 </g>
 <defs>
  <clipPath id="p6656642674">
   <rect height="221.76" width="892.8" x="144" y="34.56"/>
  </clipPath>
 </defs>
</svg>
