<?xml version="1.0" encoding="utf-8" standalone="no"?>
<!DOCTYPE svg PUBLIC "-//W3C//DTD SVG 1.1//EN"
  "http://www.w3.org/Graphics/SVG/1.1/DTD/svg11.dtd">
<!-- Created with matplotlib (https://matplotlib.org/) -->
<svg height="288pt" version="1.1" viewBox="0 0 1152 288" width="1152pt" xmlns="http://www.w3.org/2000/svg" xmlns:xlink="http://www.w3.org/1999/xlink">
 <metadata>
  <rdf:RDF xmlns:cc="http://creativecommons.org/ns#" xmlns:dc="http://purl.org/dc/elements/1.1/" xmlns:rdf="http://www.w3.org/1999/02/22-rdf-syntax-ns#">
   <cc:Work>
    <dc:type rdf:resource="http://purl.org/dc/dcmitype/StillImage"/>
    <dc:date>2020-10-19T21:52:22.687110</dc:date>
    <dc:format>image/svg+xml</dc:format>
    <dc:creator>
     <cc:Agent>
      <dc:title>Matplotlib v3.3.0, https://matplotlib.org/</dc:title>
     </cc:Agent>
    </dc:creator>
   </cc:Work>
  </rdf:RDF>
 </metadata>
 <defs>
  <style type="text/css">*{stroke-linecap:butt;stroke-linejoin:round;}</style>
 </defs>
 <g id="figure_1">
  <g id="patch_1">
   <path d="M 0 288 
L 1152 288 
L 1152 0 
L 0 0 
z
" style="fill:#ffffff;"/>
  </g>
  <g id="axes_1">
   <g id="patch_2">
    <path d="M 144 256.32 
L 1036.8 256.32 
L 1036.8 34.56 
L 144 34.56 
z
" style="fill:#ffffff;"/>
   </g>
   <g id="matplotlib.axis_1">
    <g id="xtick_1">
     <g id="line2d_1">
      <defs>
       <path d="M 0 0 
L 0 3.5 
" id="me8feba001c" style="stroke:#000000;stroke-width:0.8;"/>
      </defs>
      <g>
       <use style="stroke:#000000;stroke-width:0.8;" x="184.581818" xlink:href="#me8feba001c" y="256.32"/>
      </g>
     </g>
     <g id="text_1">
      <!-- 0.0 -->
      <g transform="translate(176.630256 270.918437)scale(0.1 -0.1)">
       <defs>
        <path d="M 31.78125 66.40625 
Q 24.171875 66.40625 20.328125 58.90625 
Q 16.5 51.421875 16.5 36.375 
Q 16.5 21.390625 20.328125 13.890625 
Q 24.171875 6.390625 31.78125 6.390625 
Q 39.453125 6.390625 43.28125 13.890625 
Q 47.125 21.390625 47.125 36.375 
Q 47.125 51.421875 43.28125 58.90625 
Q 39.453125 66.40625 31.78125 66.40625 
z
M 31.78125 74.21875 
Q 44.046875 74.21875 50.515625 64.515625 
Q 56.984375 54.828125 56.984375 36.375 
Q 56.984375 17.96875 50.515625 8.265625 
Q 44.046875 -1.421875 31.78125 -1.421875 
Q 19.53125 -1.421875 13.0625 8.265625 
Q 6.59375 17.96875 6.59375 36.375 
Q 6.59375 54.828125 13.0625 64.515625 
Q 19.53125 74.21875 31.78125 74.21875 
z
" id="DejaVuSans-48"/>
        <path d="M 10.6875 12.40625 
L 21 12.40625 
L 21 0 
L 10.6875 0 
z
" id="DejaVuSans-46"/>
       </defs>
       <use xlink:href="#DejaVuSans-48"/>
       <use x="63.623047" xlink:href="#DejaVuSans-46"/>
       <use x="95.410156" xlink:href="#DejaVuSans-48"/>
      </g>
     </g>
    </g>
    <g id="xtick_2">
     <g id="line2d_2">
      <g>
       <use style="stroke:#000000;stroke-width:0.8;" x="321.495109" xlink:href="#me8feba001c" y="256.32"/>
      </g>
     </g>
     <g id="text_2">
      <!-- 0.2 -->
      <g transform="translate(313.543546 270.918437)scale(0.1 -0.1)">
       <defs>
        <path d="M 19.1875 8.296875 
L 53.609375 8.296875 
L 53.609375 0 
L 7.328125 0 
L 7.328125 8.296875 
Q 12.9375 14.109375 22.625 23.890625 
Q 32.328125 33.6875 34.8125 36.53125 
Q 39.546875 41.84375 41.421875 45.53125 
Q 43.3125 49.21875 43.3125 52.78125 
Q 43.3125 58.59375 39.234375 62.25 
Q 35.15625 65.921875 28.609375 65.921875 
Q 23.96875 65.921875 18.8125 64.3125 
Q 13.671875 62.703125 7.8125 59.421875 
L 7.8125 69.390625 
Q 13.765625 71.78125 18.9375 73 
Q 24.125 74.21875 28.421875 74.21875 
Q 39.75 74.21875 46.484375 68.546875 
Q 53.21875 62.890625 53.21875 53.421875 
Q 53.21875 48.921875 51.53125 44.890625 
Q 49.859375 40.875 45.40625 35.40625 
Q 44.1875 33.984375 37.640625 27.21875 
Q 31.109375 20.453125 19.1875 8.296875 
z
" id="DejaVuSans-50"/>
       </defs>
       <use xlink:href="#DejaVuSans-48"/>
       <use x="63.623047" xlink:href="#DejaVuSans-46"/>
       <use x="95.410156" xlink:href="#DejaVuSans-50"/>
      </g>
     </g>
    </g>
    <g id="xtick_3">
     <g id="line2d_3">
      <g>
       <use style="stroke:#000000;stroke-width:0.8;" x="458.4084" xlink:href="#me8feba001c" y="256.32"/>
      </g>
     </g>
     <g id="text_3">
      <!-- 0.4 -->
      <g transform="translate(450.456837 270.918437)scale(0.1 -0.1)">
       <defs>
        <path d="M 37.796875 64.3125 
L 12.890625 25.390625 
L 37.796875 25.390625 
z
M 35.203125 72.90625 
L 47.609375 72.90625 
L 47.609375 25.390625 
L 58.015625 25.390625 
L 58.015625 17.1875 
L 47.609375 17.1875 
L 47.609375 0 
L 37.796875 0 
L 37.796875 17.1875 
L 4.890625 17.1875 
L 4.890625 26.703125 
z
" id="DejaVuSans-52"/>
       </defs>
       <use xlink:href="#DejaVuSans-48"/>
       <use x="63.623047" xlink:href="#DejaVuSans-46"/>
       <use x="95.410156" xlink:href="#DejaVuSans-52"/>
      </g>
     </g>
    </g>
    <g id="xtick_4">
     <g id="line2d_4">
      <g>
       <use style="stroke:#000000;stroke-width:0.8;" x="595.321691" xlink:href="#me8feba001c" y="256.32"/>
      </g>
     </g>
     <g id="text_4">
      <!-- 0.6 -->
      <g transform="translate(587.370128 270.918437)scale(0.1 -0.1)">
       <defs>
        <path d="M 33.015625 40.375 
Q 26.375 40.375 22.484375 35.828125 
Q 18.609375 31.296875 18.609375 23.390625 
Q 18.609375 15.53125 22.484375 10.953125 
Q 26.375 6.390625 33.015625 6.390625 
Q 39.65625 6.390625 43.53125 10.953125 
Q 47.40625 15.53125 47.40625 23.390625 
Q 47.40625 31.296875 43.53125 35.828125 
Q 39.65625 40.375 33.015625 40.375 
z
M 52.59375 71.296875 
L 52.59375 62.3125 
Q 48.875 64.0625 45.09375 64.984375 
Q 41.3125 65.921875 37.59375 65.921875 
Q 27.828125 65.921875 22.671875 59.328125 
Q 17.53125 52.734375 16.796875 39.40625 
Q 19.671875 43.65625 24.015625 45.921875 
Q 28.375 48.1875 33.59375 48.1875 
Q 44.578125 48.1875 50.953125 41.515625 
Q 57.328125 34.859375 57.328125 23.390625 
Q 57.328125 12.15625 50.6875 5.359375 
Q 44.046875 -1.421875 33.015625 -1.421875 
Q 20.359375 -1.421875 13.671875 8.265625 
Q 6.984375 17.96875 6.984375 36.375 
Q 6.984375 53.65625 15.1875 63.9375 
Q 23.390625 74.21875 37.203125 74.21875 
Q 40.921875 74.21875 44.703125 73.484375 
Q 48.484375 72.75 52.59375 71.296875 
z
" id="DejaVuSans-54"/>
       </defs>
       <use xlink:href="#DejaVuSans-48"/>
       <use x="63.623047" xlink:href="#DejaVuSans-46"/>
       <use x="95.410156" xlink:href="#DejaVuSans-54"/>
      </g>
     </g>
    </g>
    <g id="xtick_5">
     <g id="line2d_5">
      <g>
       <use style="stroke:#000000;stroke-width:0.8;" x="732.234981" xlink:href="#me8feba001c" y="256.32"/>
      </g>
     </g>
     <g id="text_5">
      <!-- 0.8 -->
      <g transform="translate(724.283419 270.918437)scale(0.1 -0.1)">
       <defs>
        <path d="M 31.78125 34.625 
Q 24.75 34.625 20.71875 30.859375 
Q 16.703125 27.09375 16.703125 20.515625 
Q 16.703125 13.921875 20.71875 10.15625 
Q 24.75 6.390625 31.78125 6.390625 
Q 38.8125 6.390625 42.859375 10.171875 
Q 46.921875 13.96875 46.921875 20.515625 
Q 46.921875 27.09375 42.890625 30.859375 
Q 38.875 34.625 31.78125 34.625 
z
M 21.921875 38.8125 
Q 15.578125 40.375 12.03125 44.71875 
Q 8.5 49.078125 8.5 55.328125 
Q 8.5 64.0625 14.71875 69.140625 
Q 20.953125 74.21875 31.78125 74.21875 
Q 42.671875 74.21875 48.875 69.140625 
Q 55.078125 64.0625 55.078125 55.328125 
Q 55.078125 49.078125 51.53125 44.71875 
Q 48 40.375 41.703125 38.8125 
Q 48.828125 37.15625 52.796875 32.3125 
Q 56.78125 27.484375 56.78125 20.515625 
Q 56.78125 9.90625 50.3125 4.234375 
Q 43.84375 -1.421875 31.78125 -1.421875 
Q 19.734375 -1.421875 13.25 4.234375 
Q 6.78125 9.90625 6.78125 20.515625 
Q 6.78125 27.484375 10.78125 32.3125 
Q 14.796875 37.15625 21.921875 38.8125 
z
M 18.3125 54.390625 
Q 18.3125 48.734375 21.84375 45.5625 
Q 25.390625 42.390625 31.78125 42.390625 
Q 38.140625 42.390625 41.71875 45.5625 
Q 45.3125 48.734375 45.3125 54.390625 
Q 45.3125 60.0625 41.71875 63.234375 
Q 38.140625 66.40625 31.78125 66.40625 
Q 25.390625 66.40625 21.84375 63.234375 
Q 18.3125 60.0625 18.3125 54.390625 
z
" id="DejaVuSans-56"/>
       </defs>
       <use xlink:href="#DejaVuSans-48"/>
       <use x="63.623047" xlink:href="#DejaVuSans-46"/>
       <use x="95.410156" xlink:href="#DejaVuSans-56"/>
      </g>
     </g>
    </g>
    <g id="xtick_6">
     <g id="line2d_6">
      <g>
       <use style="stroke:#000000;stroke-width:0.8;" x="869.148272" xlink:href="#me8feba001c" y="256.32"/>
      </g>
     </g>
     <g id="text_6">
      <!-- 1.0 -->
      <g transform="translate(861.19671 270.918437)scale(0.1 -0.1)">
       <defs>
        <path d="M 12.40625 8.296875 
L 28.515625 8.296875 
L 28.515625 63.921875 
L 10.984375 60.40625 
L 10.984375 69.390625 
L 28.421875 72.90625 
L 38.28125 72.90625 
L 38.28125 8.296875 
L 54.390625 8.296875 
L 54.390625 0 
L 12.40625 0 
z
" id="DejaVuSans-49"/>
       </defs>
       <use xlink:href="#DejaVuSans-49"/>
       <use x="63.623047" xlink:href="#DejaVuSans-46"/>
       <use x="95.410156" xlink:href="#DejaVuSans-48"/>
      </g>
     </g>
    </g>
    <g id="xtick_7">
     <g id="line2d_7">
      <g>
       <use style="stroke:#000000;stroke-width:0.8;" x="1006.061563" xlink:href="#me8feba001c" y="256.32"/>
      </g>
     </g>
     <g id="text_7">
      <!-- 1.2 -->
      <g transform="translate(998.11 270.918437)scale(0.1 -0.1)">
       <use xlink:href="#DejaVuSans-49"/>
       <use x="63.623047" xlink:href="#DejaVuSans-46"/>
       <use x="95.410156" xlink:href="#DejaVuSans-50"/>
      </g>
     </g>
    </g>
    <g id="text_8">
     <!-- Time [s] -->
     <g transform="translate(570.071094 284.596563)scale(0.1 -0.1)">
      <defs>
       <path d="M -0.296875 72.90625 
L 61.375 72.90625 
L 61.375 64.59375 
L 35.5 64.59375 
L 35.5 0 
L 25.59375 0 
L 25.59375 64.59375 
L -0.296875 64.59375 
z
" id="DejaVuSans-84"/>
       <path d="M 9.421875 54.6875 
L 18.40625 54.6875 
L 18.40625 0 
L 9.421875 0 
z
M 9.421875 75.984375 
L 18.40625 75.984375 
L 18.40625 64.59375 
L 9.421875 64.59375 
z
" id="DejaVuSans-105"/>
       <path d="M 52 44.1875 
Q 55.375 50.25 60.0625 53.125 
Q 64.75 56 71.09375 56 
Q 79.640625 56 84.28125 50.015625 
Q 88.921875 44.046875 88.921875 33.015625 
L 88.921875 0 
L 79.890625 0 
L 79.890625 32.71875 
Q 79.890625 40.578125 77.09375 44.375 
Q 74.3125 48.1875 68.609375 48.1875 
Q 61.625 48.1875 57.5625 43.546875 
Q 53.515625 38.921875 53.515625 30.90625 
L 53.515625 0 
L 44.484375 0 
L 44.484375 32.71875 
Q 44.484375 40.625 41.703125 44.40625 
Q 38.921875 48.1875 33.109375 48.1875 
Q 26.21875 48.1875 22.15625 43.53125 
Q 18.109375 38.875 18.109375 30.90625 
L 18.109375 0 
L 9.078125 0 
L 9.078125 54.6875 
L 18.109375 54.6875 
L 18.109375 46.1875 
Q 21.1875 51.21875 25.484375 53.609375 
Q 29.78125 56 35.6875 56 
Q 41.65625 56 45.828125 52.96875 
Q 50 49.953125 52 44.1875 
z
" id="DejaVuSans-109"/>
       <path d="M 56.203125 29.59375 
L 56.203125 25.203125 
L 14.890625 25.203125 
Q 15.484375 15.921875 20.484375 11.0625 
Q 25.484375 6.203125 34.421875 6.203125 
Q 39.59375 6.203125 44.453125 7.46875 
Q 49.3125 8.734375 54.109375 11.28125 
L 54.109375 2.78125 
Q 49.265625 0.734375 44.1875 -0.34375 
Q 39.109375 -1.421875 33.890625 -1.421875 
Q 20.796875 -1.421875 13.15625 6.1875 
Q 5.515625 13.8125 5.515625 26.8125 
Q 5.515625 40.234375 12.765625 48.109375 
Q 20.015625 56 32.328125 56 
Q 43.359375 56 49.78125 48.890625 
Q 56.203125 41.796875 56.203125 29.59375 
z
M 47.21875 32.234375 
Q 47.125 39.59375 43.09375 43.984375 
Q 39.0625 48.390625 32.421875 48.390625 
Q 24.90625 48.390625 20.390625 44.140625 
Q 15.875 39.890625 15.1875 32.171875 
z
" id="DejaVuSans-101"/>
       <path id="DejaVuSans-32"/>
       <path d="M 8.59375 75.984375 
L 29.296875 75.984375 
L 29.296875 69 
L 17.578125 69 
L 17.578125 -6.203125 
L 29.296875 -6.203125 
L 29.296875 -13.1875 
L 8.59375 -13.1875 
z
" id="DejaVuSans-91"/>
       <path d="M 44.28125 53.078125 
L 44.28125 44.578125 
Q 40.484375 46.53125 36.375 47.5 
Q 32.28125 48.484375 27.875 48.484375 
Q 21.1875 48.484375 17.84375 46.4375 
Q 14.5 44.390625 14.5 40.28125 
Q 14.5 37.15625 16.890625 35.375 
Q 19.28125 33.59375 26.515625 31.984375 
L 29.59375 31.296875 
Q 39.15625 29.25 43.1875 25.515625 
Q 47.21875 21.78125 47.21875 15.09375 
Q 47.21875 7.46875 41.1875 3.015625 
Q 35.15625 -1.421875 24.609375 -1.421875 
Q 20.21875 -1.421875 15.453125 -0.5625 
Q 10.6875 0.296875 5.421875 2 
L 5.421875 11.28125 
Q 10.40625 8.6875 15.234375 7.390625 
Q 20.0625 6.109375 24.8125 6.109375 
Q 31.15625 6.109375 34.5625 8.28125 
Q 37.984375 10.453125 37.984375 14.40625 
Q 37.984375 18.0625 35.515625 20.015625 
Q 33.0625 21.96875 24.703125 23.78125 
L 21.578125 24.515625 
Q 13.234375 26.265625 9.515625 29.90625 
Q 5.8125 33.546875 5.8125 39.890625 
Q 5.8125 47.609375 11.28125 51.796875 
Q 16.75 56 26.8125 56 
Q 31.78125 56 36.171875 55.265625 
Q 40.578125 54.546875 44.28125 53.078125 
z
" id="DejaVuSans-115"/>
       <path d="M 30.421875 75.984375 
L 30.421875 -13.1875 
L 9.71875 -13.1875 
L 9.71875 -6.203125 
L 21.390625 -6.203125 
L 21.390625 69 
L 9.71875 69 
L 9.71875 75.984375 
z
" id="DejaVuSans-93"/>
      </defs>
      <use xlink:href="#DejaVuSans-84"/>
      <use x="57.958984" xlink:href="#DejaVuSans-105"/>
      <use x="85.742188" xlink:href="#DejaVuSans-109"/>
      <use x="183.154297" xlink:href="#DejaVuSans-101"/>
      <use x="244.677734" xlink:href="#DejaVuSans-32"/>
      <use x="276.464844" xlink:href="#DejaVuSans-91"/>
      <use x="315.478516" xlink:href="#DejaVuSans-115"/>
      <use x="367.578125" xlink:href="#DejaVuSans-93"/>
     </g>
    </g>
    <g id="text_9">
     <!-- 1e−8 -->
     <g transform="translate(1009.542187 283.596563)scale(0.1 -0.1)">
      <defs>
       <path d="M 10.59375 35.5 
L 73.1875 35.5 
L 73.1875 27.203125 
L 10.59375 27.203125 
z
" id="DejaVuSans-8722"/>
      </defs>
      <use xlink:href="#DejaVuSans-49"/>
      <use x="63.623047" xlink:href="#DejaVuSans-101"/>
      <use x="125.146484" xlink:href="#DejaVuSans-8722"/>
      <use x="208.935547" xlink:href="#DejaVuSans-56"/>
     </g>
    </g>
   </g>
   <g id="matplotlib.axis_2">
    <g id="ytick_1">
     <g id="line2d_8">
      <defs>
       <path d="M 0 0 
L -3.5 0 
" id="ma454029505" style="stroke:#000000;stroke-width:0.8;"/>
      </defs>
      <g>
       <use style="stroke:#000000;stroke-width:0.8;" x="144" xlink:href="#ma454029505" y="238.839015"/>
      </g>
     </g>
     <g id="text_10">
      <!-- 0.0 -->
      <g transform="translate(121.096875 242.638233)scale(0.1 -0.1)">
       <use xlink:href="#DejaVuSans-48"/>
       <use x="63.623047" xlink:href="#DejaVuSans-46"/>
       <use x="95.410156" xlink:href="#DejaVuSans-48"/>
      </g>
     </g>
    </g>
    <g id="ytick_2">
     <g id="line2d_9">
      <g>
       <use style="stroke:#000000;stroke-width:0.8;" x="144" xlink:href="#ma454029505" y="206.531178"/>
      </g>
     </g>
     <g id="text_11">
      <!-- 0.2 -->
      <g transform="translate(121.096875 210.330397)scale(0.1 -0.1)">
       <use xlink:href="#DejaVuSans-48"/>
       <use x="63.623047" xlink:href="#DejaVuSans-46"/>
       <use x="95.410156" xlink:href="#DejaVuSans-50"/>
      </g>
     </g>
    </g>
    <g id="ytick_3">
     <g id="line2d_10">
      <g>
       <use style="stroke:#000000;stroke-width:0.8;" x="144" xlink:href="#ma454029505" y="174.223341"/>
      </g>
     </g>
     <g id="text_12">
      <!-- 0.4 -->
      <g transform="translate(121.096875 178.02256)scale(0.1 -0.1)">
       <use xlink:href="#DejaVuSans-48"/>
       <use x="63.623047" xlink:href="#DejaVuSans-46"/>
       <use x="95.410156" xlink:href="#DejaVuSans-52"/>
      </g>
     </g>
    </g>
    <g id="ytick_4">
     <g id="line2d_11">
      <g>
       <use style="stroke:#000000;stroke-width:0.8;" x="144" xlink:href="#ma454029505" y="141.915504"/>
      </g>
     </g>
     <g id="text_13">
      <!-- 0.6 -->
      <g transform="translate(121.096875 145.714723)scale(0.1 -0.1)">
       <use xlink:href="#DejaVuSans-48"/>
       <use x="63.623047" xlink:href="#DejaVuSans-46"/>
       <use x="95.410156" xlink:href="#DejaVuSans-54"/>
      </g>
     </g>
    </g>
    <g id="ytick_5">
     <g id="line2d_12">
      <g>
       <use style="stroke:#000000;stroke-width:0.8;" x="144" xlink:href="#ma454029505" y="109.607667"/>
      </g>
     </g>
     <g id="text_14">
      <!-- 0.8 -->
      <g transform="translate(121.096875 113.406886)scale(0.1 -0.1)">
       <use xlink:href="#DejaVuSans-48"/>
       <use x="63.623047" xlink:href="#DejaVuSans-46"/>
       <use x="95.410156" xlink:href="#DejaVuSans-56"/>
      </g>
     </g>
    </g>
    <g id="ytick_6">
     <g id="line2d_13">
      <g>
       <use style="stroke:#000000;stroke-width:0.8;" x="144" xlink:href="#ma454029505" y="77.299831"/>
      </g>
     </g>
     <g id="text_15">
      <!-- 1.0 -->
      <g transform="translate(121.096875 81.099049)scale(0.1 -0.1)">
       <use xlink:href="#DejaVuSans-49"/>
       <use x="63.623047" xlink:href="#DejaVuSans-46"/>
       <use x="95.410156" xlink:href="#DejaVuSans-48"/>
      </g>
     </g>
    </g>
    <g id="ytick_7">
     <g id="line2d_14">
      <g>
       <use style="stroke:#000000;stroke-width:0.8;" x="144" xlink:href="#ma454029505" y="44.991994"/>
      </g>
     </g>
     <g id="text_16">
      <!-- 1.2 -->
      <g transform="translate(121.096875 48.791213)scale(0.1 -0.1)">
       <use xlink:href="#DejaVuSans-49"/>
       <use x="63.623047" xlink:href="#DejaVuSans-46"/>
       <use x="95.410156" xlink:href="#DejaVuSans-50"/>
      </g>
     </g>
    </g>
    <g id="text_17">
     <!-- Voltage [V] -->
     <g transform="translate(115.017187 173.107188)rotate(-90)scale(0.1 -0.1)">
      <defs>
       <path d="M 28.609375 0 
L 0.78125 72.90625 
L 11.078125 72.90625 
L 34.1875 11.53125 
L 57.328125 72.90625 
L 67.578125 72.90625 
L 39.796875 0 
z
" id="DejaVuSans-86"/>
       <path d="M 30.609375 48.390625 
Q 23.390625 48.390625 19.1875 42.75 
Q 14.984375 37.109375 14.984375 27.296875 
Q 14.984375 17.484375 19.15625 11.84375 
Q 23.34375 6.203125 30.609375 6.203125 
Q 37.796875 6.203125 41.984375 11.859375 
Q 46.1875 17.53125 46.1875 27.296875 
Q 46.1875 37.015625 41.984375 42.703125 
Q 37.796875 48.390625 30.609375 48.390625 
z
M 30.609375 56 
Q 42.328125 56 49.015625 48.375 
Q 55.71875 40.765625 55.71875 27.296875 
Q 55.71875 13.875 49.015625 6.21875 
Q 42.328125 -1.421875 30.609375 -1.421875 
Q 18.84375 -1.421875 12.171875 6.21875 
Q 5.515625 13.875 5.515625 27.296875 
Q 5.515625 40.765625 12.171875 48.375 
Q 18.84375 56 30.609375 56 
z
" id="DejaVuSans-111"/>
       <path d="M 9.421875 75.984375 
L 18.40625 75.984375 
L 18.40625 0 
L 9.421875 0 
z
" id="DejaVuSans-108"/>
       <path d="M 18.3125 70.21875 
L 18.3125 54.6875 
L 36.8125 54.6875 
L 36.8125 47.703125 
L 18.3125 47.703125 
L 18.3125 18.015625 
Q 18.3125 11.328125 20.140625 9.421875 
Q 21.96875 7.515625 27.59375 7.515625 
L 36.8125 7.515625 
L 36.8125 0 
L 27.59375 0 
Q 17.1875 0 13.234375 3.875 
Q 9.28125 7.765625 9.28125 18.015625 
L 9.28125 47.703125 
L 2.6875 47.703125 
L 2.6875 54.6875 
L 9.28125 54.6875 
L 9.28125 70.21875 
z
" id="DejaVuSans-116"/>
       <path d="M 34.28125 27.484375 
Q 23.390625 27.484375 19.1875 25 
Q 14.984375 22.515625 14.984375 16.5 
Q 14.984375 11.71875 18.140625 8.90625 
Q 21.296875 6.109375 26.703125 6.109375 
Q 34.1875 6.109375 38.703125 11.40625 
Q 43.21875 16.703125 43.21875 25.484375 
L 43.21875 27.484375 
z
M 52.203125 31.203125 
L 52.203125 0 
L 43.21875 0 
L 43.21875 8.296875 
Q 40.140625 3.328125 35.546875 0.953125 
Q 30.953125 -1.421875 24.3125 -1.421875 
Q 15.921875 -1.421875 10.953125 3.296875 
Q 6 8.015625 6 15.921875 
Q 6 25.140625 12.171875 29.828125 
Q 18.359375 34.515625 30.609375 34.515625 
L 43.21875 34.515625 
L 43.21875 35.40625 
Q 43.21875 41.609375 39.140625 45 
Q 35.0625 48.390625 27.6875 48.390625 
Q 23 48.390625 18.546875 47.265625 
Q 14.109375 46.140625 10.015625 43.890625 
L 10.015625 52.203125 
Q 14.9375 54.109375 19.578125 55.046875 
Q 24.21875 56 28.609375 56 
Q 40.484375 56 46.34375 49.84375 
Q 52.203125 43.703125 52.203125 31.203125 
z
" id="DejaVuSans-97"/>
       <path d="M 45.40625 27.984375 
Q 45.40625 37.75 41.375 43.109375 
Q 37.359375 48.484375 30.078125 48.484375 
Q 22.859375 48.484375 18.828125 43.109375 
Q 14.796875 37.75 14.796875 27.984375 
Q 14.796875 18.265625 18.828125 12.890625 
Q 22.859375 7.515625 30.078125 7.515625 
Q 37.359375 7.515625 41.375 12.890625 
Q 45.40625 18.265625 45.40625 27.984375 
z
M 54.390625 6.78125 
Q 54.390625 -7.171875 48.1875 -13.984375 
Q 42 -20.796875 29.203125 -20.796875 
Q 24.46875 -20.796875 20.265625 -20.09375 
Q 16.0625 -19.390625 12.109375 -17.921875 
L 12.109375 -9.1875 
Q 16.0625 -11.328125 19.921875 -12.34375 
Q 23.78125 -13.375 27.78125 -13.375 
Q 36.625 -13.375 41.015625 -8.765625 
Q 45.40625 -4.15625 45.40625 5.171875 
L 45.40625 9.625 
Q 42.625 4.78125 38.28125 2.390625 
Q 33.9375 0 27.875 0 
Q 17.828125 0 11.671875 7.65625 
Q 5.515625 15.328125 5.515625 27.984375 
Q 5.515625 40.671875 11.671875 48.328125 
Q 17.828125 56 27.875 56 
Q 33.9375 56 38.28125 53.609375 
Q 42.625 51.21875 45.40625 46.390625 
L 45.40625 54.6875 
L 54.390625 54.6875 
z
" id="DejaVuSans-103"/>
      </defs>
      <use xlink:href="#DejaVuSans-86"/>
      <use x="60.658203" xlink:href="#DejaVuSans-111"/>
      <use x="121.839844" xlink:href="#DejaVuSans-108"/>
      <use x="149.623047" xlink:href="#DejaVuSans-116"/>
      <use x="188.832031" xlink:href="#DejaVuSans-97"/>
      <use x="250.111328" xlink:href="#DejaVuSans-103"/>
      <use x="313.587891" xlink:href="#DejaVuSans-101"/>
      <use x="375.111328" xlink:href="#DejaVuSans-32"/>
      <use x="406.898438" xlink:href="#DejaVuSans-91"/>
      <use x="445.912109" xlink:href="#DejaVuSans-86"/>
      <use x="514.320312" xlink:href="#DejaVuSans-93"/>
     </g>
    </g>
   </g>
   <g id="line2d_15">
    <path clip-path="url(#pa5e0579b0d)" d="M 184.581818 238.839001 
L 280.227937 238.950082 
L 287.183132 239.030773 
L 288.230519 238.771878 
L 289.058844 238.340792 
L 289.798176 237.702595 
L 290.516971 236.777578 
L 291.249457 235.454891 
L 292.023017 233.576814 
L 292.865034 230.914728 
L 293.789199 227.212439 
L 294.822894 222.103894 
L 296.01404 215.03712 
L 297.458475 205.041528 
L 299.354724 190.235767 
L 302.812606 161.106198 
L 306.81732 128.015154 
L 309.261222 109.600237 
L 311.198545 96.61667 
L 312.889424 86.730763 
L 314.44339 78.915691 
L 315.908362 72.648633 
L 317.33226 67.519764 
L 318.715085 63.361422 
L 320.125291 59.854407 
L 321.487579 57.070925 
L 322.870403 54.758168 
L 324.23269 52.901114 
L 325.656588 51.32853 
L 327.128406 50.02507 
L 328.620761 48.969412 
L 330.284258 48.040723 
L 332.509099 47.113003 
L 334.610718 46.486554 
L 336.698645 46.059283 
L 338.177309 45.927144 
L 339.245233 46.037799 
L 340.066712 46.344561 
L 340.81289 46.873441 
L 341.53853 47.68986 
L 342.257325 48.86005 
L 343.010348 50.535534 
L 343.811291 52.876237 
L 344.708073 56.218806 
L 345.693849 60.782449 
L 346.809692 67.043385 
L 348.07614 75.469915 
L 349.541112 86.777835 
L 351.307293 102.244437 
L 353.600591 124.44551 
L 360.720082 194.831896 
L 362.157672 206.05803 
L 363.396737 214.075623 
L 364.533117 220.041798 
L 365.607887 224.547376 
L 366.641582 227.964006 
L 367.65474 230.575662 
L 368.661053 232.577284 
L 369.680989 234.124209 
L 370.728375 235.318457 
L 371.837373 236.251016 
L 373.055901 236.984831 
L 374.445571 237.558654 
L 376.122759 238.003419 
L 378.292835 238.337317 
L 381.407612 238.573562 
L 386.706156 238.723038 
L 400.445405 239.051553 
L 403.252128 239.036977 
L 404.361125 238.807307 
L 405.216833 238.405666 
L 405.969856 237.802035 
L 406.688651 236.93083 
L 407.414292 235.687566 
L 408.181006 233.910848 
L 409.009331 231.398993 
L 409.919805 227.885681 
L 410.932963 223.04271 
L 412.096726 216.336703 
L 413.493242 206.90792 
L 415.293651 193.118886 
L 418.230442 168.638996 
L 423.015561 128.971143 
L 425.500537 110.228285 
L 427.451552 97.122837 
L 429.142431 87.210777 
L 430.67586 79.490367 
L 432.106604 73.388482 
L 433.468891 68.530191 
L 434.783258 64.656643 
L 436.09078 61.513414 
L 437.350383 59.071103 
L 438.527837 57.236341 
L 439.746365 55.729827 
L 440.951202 54.584514 
L 442.019126 53.846118 
L 443.025438 53.426278 
L 443.792153 53.339854 
L 444.517793 53.501717 
L 445.168131 53.896841 
L 445.825315 54.58306 
L 446.482499 55.600272 
L 447.201294 57.133602 
L 447.995391 59.375604 
L 448.86479 62.513826 
L 449.830029 66.839361 
L 450.925335 72.794826 
L 452.165085 80.80074 
L 453.60952 91.64682 
L 455.327782 106.31986 
L 457.552623 127.376735 
L 464.733725 196.893152 
L 466.143932 207.512448 
L 467.369306 215.131233 
L 468.498841 220.81654 
L 469.57361 225.127863 
L 470.607305 228.39197 
L 471.620464 230.88484 
L 472.633622 232.806082 
L 473.660472 234.288348 
L 474.72155 235.437675 
L 475.85793 236.342803 
L 477.117532 237.05906 
L 478.575659 237.62715 
L 480.376069 238.080605 
L 482.730977 238.432595 
L 484.895097 238.554254 
L 486.113626 238.41564 
L 487.030945 238.091267 
L 487.818196 237.574938 
L 488.557528 236.815904 
L 489.29686 235.722291 
L 490.063574 234.170986 
L 490.885054 231.981471 
L 491.781836 228.923673 
L 492.774457 224.705898 
L 493.897146 218.914174 
L 495.211514 210.903704 
L 496.847628 199.468071 
L 499.161462 181.563181 
L 506.445249 124.224557 
L 508.51264 110.104223 
L 510.189828 100.109583 
L 511.661646 92.628235 
L 512.989705 86.974735 
L 514.22877 82.63148 
L 515.385687 79.353753 
L 516.460457 76.945898 
L 517.446232 75.257329 
L 518.30194 74.199248 
L 519.068655 73.595091 
L 519.698456 73.365382 
L 520.266646 73.384121 
L 520.821145 73.626591 
L 521.382489 74.114116 
L 521.991753 74.936351 
L 522.703703 76.305072 
L 523.477263 78.310888 
L 524.339816 81.200033 
L 525.305055 85.251403 
L 526.393516 90.832937 
L 527.625735 98.373376 
L 529.056479 108.586998 
L 530.76105 122.448837 
L 532.979045 142.442057 
L 538.996384 197.701155 
L 540.427128 208.198472 
L 541.665166 215.710868 
L 542.801547 221.295262 
L 543.876316 225.506042 
L 544.910011 228.695501 
L 545.92317 231.131668 
L 546.936328 233.009093 
L 547.963178 234.457135 
L 549.031102 235.585166 
L 550.167482 236.46492 
L 551.427084 237.15738 
L 552.885211 237.699942 
L 554.671929 238.118294 
L 557.019992 238.426895 
L 560.490744 238.638681 
L 574.346369 239.066425 
L 575.742885 238.921524 
L 576.694432 238.603044 
L 577.481683 238.105222 
L 578.207324 237.378695 
L 578.926119 236.332589 
L 579.672296 234.833604 
L 580.466393 232.714318 
L 581.335792 229.722735 
L 582.294186 225.5825 
L 583.375801 219.871843 
L 584.642248 211.921288 
L 586.209906 200.564841 
L 588.386827 183.006501 
L 596.300415 117.793779 
L 598.436263 102.580358 
L 600.23058 91.33232 
L 601.846156 82.56562 
L 603.352203 75.579438 
L 604.817175 69.838982 
L 606.234227 65.197638 
L 607.548595 61.606784 
L 608.869808 58.601186 
L 610.184176 56.126728 
L 611.580691 53.972765 
L 612.949824 52.256411 
L 614.360031 50.825497 
L 615.982454 49.519614 
L 617.652796 48.473163 
L 619.275218 47.681783 
L 621.383683 46.906556 
L 623.909733 46.247315 
L 627.229881 45.655597 
L 631.884932 45.108625 
L 634.687068 44.955324 
L 635.912442 45.095379 
L 636.795533 45.417811 
L 637.555402 45.93619 
L 638.287888 46.723048 
L 639.006683 47.837507 
L 639.759706 49.433191 
L 640.567494 51.688439 
L 641.464276 54.889984 
L 642.463743 59.328435 
L 643.586432 65.36257 
L 644.9008 73.707522 
L 646.488994 85.340314 
L 648.494774 101.811076 
L 651.869686 131.702109 
L 655.347284 161.848519 
L 657.277761 176.703 
L 658.81119 186.867885 
L 660.139249 194.253909 
L 661.330395 199.677603 
L 662.405164 203.588806 
L 663.384094 206.356441 
L 664.260339 208.207971 
L 665.040745 209.370633 
L 665.725311 210.021119 
L 666.341421 210.31764 
L 666.909611 210.35326 
L 667.477801 210.163613 
L 668.08022 209.716763 
L 668.737404 208.935802 
L 669.456199 207.717247 
L 670.24345 205.920382 
L 671.099158 203.383942 
L 672.04386 199.844813 
L 673.091246 195.010817 
L 674.296083 188.340331 
L 675.747364 178.974144 
L 677.66415 165.031196 
L 681.47034 135.278731 
L 684.6125 111.586975 
L 686.666199 97.725023 
L 688.404998 87.445978 
L 689.979501 79.423667 
L 691.451319 73.035681 
L 692.85468 67.892758 
L 694.231548 63.665924 
L 695.552762 60.284908 
L 696.880821 57.463303 
L 698.297873 54.993692 
L 699.721771 52.981399 
L 701.09775 51.406392 
L 702.665407 49.973862 
L 704.075614 48.952612 
L 705.609043 48.072546 
L 707.594286 47.212027 
L 709.969731 46.488331 
L 712.913367 45.907436 
L 715.631096 45.57095 
L 721.333534 45.144164 
L 728.802154 44.726585 
L 730.226053 44.836432 
L 731.170754 45.126718 
L 731.944314 45.594212 
L 732.663109 46.292061 
L 733.375058 47.302327 
L 734.11439 48.755695 
L 734.894796 50.79852 
L 735.750504 53.68894 
L 736.68836 57.663127 
L 737.756284 63.205537 
L 738.961121 70.698693 
L 740.35079 80.829946 
L 741.973213 94.382809 
L 743.992684 113.241071 
L 746.991085 143.585383 
L 751.043718 184.292563 
L 752.741443 199.093268 
L 754.096885 209.060187 
L 755.294876 216.297546 
L 756.403874 221.701129 
L 757.464952 225.809892 
L 758.491801 228.930844 
L 759.498114 231.30763 
L 760.504427 233.136 
L 761.531277 234.553198 
L 762.5992 235.655006 
L 763.742426 236.518058 
L 765.022565 237.203146 
L 766.521766 237.746793 
L 768.397478 238.180279 
L 770.964602 238.530011 
L 774.811866 238.813021 
L 776.831337 238.789173 
L 777.919797 238.561632 
L 778.76866 238.160887 
L 779.521683 237.556437 
L 780.240478 236.68628 
L 780.972964 235.43366 
L 781.739678 233.661382 
L 782.568004 231.159064 
L 783.478477 227.660447 
L 784.491635 222.835589 
L 785.655398 216.147509 
L 787.045068 206.779997 
L 788.824941 193.159158 
L 791.694096 169.228937 
L 796.588746 128.539527 
L 799.04634 109.977786 
L 800.990508 96.906358 
L 802.688233 86.943429 
L 804.249045 79.064065 
L 805.714017 72.772534 
L 807.117378 67.689865 
L 808.452283 63.6341 
L 809.835107 60.139685 
L 811.183703 57.330034 
L 812.532299 55.021154 
L 813.860358 53.1578 
L 815.236336 51.584408 
L 816.632852 50.293387 
L 818.221046 49.125782 
L 819.788703 48.222131 
L 821.835557 47.331404 
L 824.176774 46.62047 
L 826.175708 46.262338 
L 827.366854 46.260238 
L 828.249945 46.474762 
L 829.023505 46.90381 
L 829.714917 47.547059 
L 830.440557 48.553933 
L 831.166198 49.963685 
L 831.96714 52.048833 
L 832.822849 54.936992 
L 833.788087 59.037503 
L 834.835474 64.485735 
L 836.040311 71.978407 
L 837.402598 81.890613 
L 839.025021 95.40175 
L 841.044492 114.206446 
L 844.056584 144.601982 
L 848.047606 184.5445 
L 849.745331 199.291832 
L 851.100773 209.218237 
L 852.298764 216.423724 
L 853.407762 221.802139 
L 854.46884 225.890864 
L 855.495689 228.995918 
L 856.502002 231.360041 
L 857.508315 233.178155 
L 858.535165 234.586833 
L 859.603088 235.681167 
L 860.746314 236.536768 
L 862.019608 237.209638 
L 863.498271 237.734244 
L 865.326064 238.137487 
L 867.769966 238.434924 
L 871.446362 238.637779 
L 878.524779 238.765007 
L 897.008073 238.833889 
L 996.218182 238.839002 
L 996.218182 238.839002 
" style="fill:none;stroke:#ff0000;stroke-linecap:square;stroke-width:1.5;"/>
   </g>
   <g id="line2d_16">
    <path clip-path="url(#pa5e0579b0d)" d="M 184.581818 44.991994 
L 294.254704 44.881178 
L 301.216745 44.663262 
L 302.284668 44.824316 
L 303.16858 45.167425 
L 303.935295 45.709389 
L 304.65409 46.501093 
L 305.366039 47.624275 
L 306.139599 49.297982 
L 306.954233 51.633193 
L 307.823632 54.816161 
L 308.809408 59.302912 
L 309.918406 65.440755 
L 311.178008 73.72933 
L 312.629289 84.833437 
L 314.361242 99.894494 
L 316.586083 121.328288 
L 324.246382 196.896787 
L 325.642897 207.50912 
L 326.861425 215.149423 
L 327.984114 220.844373 
L 329.052038 225.159935 
L 330.085733 228.444868 
L 331.098892 230.949089 
L 332.105204 232.864249 
L 333.125208 234.341958 
L 334.179441 235.487492 
L 335.30213 236.38365 
L 336.541195 237.087994 
L 337.971939 237.640961 
L 339.724429 238.071452 
L 342.099875 238.410482 
L 345.933447 238.706408 
L 352.450519 238.97343 
L 353.888109 238.839961 
L 354.853348 238.531295 
L 355.647445 238.043937 
L 356.379931 237.326934 
L 357.098726 236.300249 
L 357.844903 234.826145 
L 358.639 232.737772 
L 359.501554 229.809845 
L 360.453101 225.751748 
L 361.527871 220.141678 
L 362.780627 212.35347 
L 364.320902 201.285451 
L 366.436212 184.323304 
L 374.822083 115.459731 
L 376.896319 100.915955 
L 378.662501 90.044545 
L 380.25754 81.56075 
L 381.749895 74.782889 
L 383.166948 69.338857 
L 384.549772 64.881506 
L 385.877831 61.308744 
L 387.212736 58.326084 
L 388.636634 55.717873 
L 389.978384 53.714141 
L 391.395437 51.994071 
L 392.860409 50.56655 
L 394.571825 49.257598 
L 396.358543 48.210178 
L 398.104188 47.428328 
L 400.459096 46.657947 
L 403.265819 46.043776 
L 407.024294 45.535089 
L 415.6907 44.828678 
L 417.895004 44.835462 
L 418.976619 45.073248 
L 419.846018 45.519258 
L 420.612733 46.198045 
L 421.345219 47.175681 
L 422.098242 48.590118 
L 422.892339 50.599504 
L 423.72751 53.337916 
L 424.672212 57.237633 
L 425.719599 62.551303 
L 426.910744 69.806836 
L 428.300414 79.766566 
L 429.9023 92.965174 
L 431.887542 111.29236 
L 434.817487 140.659553 
L 439.048107 182.8338 
L 440.786906 197.914096 
L 442.16973 208.069015 
L 443.388259 215.446073 
L 444.510948 220.942622 
L 445.578871 225.107481 
L 446.612567 228.277108 
L 447.625725 230.69287 
L 448.638883 232.551549 
L 449.665733 233.984458 
L 450.740502 235.108424 
L 451.886193 235.987948 
L 453.157707 236.682882 
L 454.595296 237.212922 
L 456.087651 237.532052 
L 457.299334 237.577015 
L 458.244035 237.396738 
L 459.044978 237.018948 
L 459.777464 236.423951 
L 460.496259 235.542268 
L 461.228745 234.276158 
L 462.002305 232.475232 
L 462.837476 229.940251 
L 463.754795 226.405549 
L 464.774799 221.542255 
L 465.945408 214.815731 
L 467.341924 205.414651 
L 469.142333 191.66568 
L 472.051741 167.476285 
L 476.850552 127.767886 
L 479.301299 109.351046 
L 481.238623 96.403374 
L 482.929502 86.545817 
L 484.477512 78.78289 
L 485.935638 72.563825 
L 487.318463 67.593749 
L 488.673904 63.525546 
L 489.967735 60.305424 
L 491.316331 57.552796 
L 492.589624 55.44051 
L 493.917683 53.663579 
L 495.197822 52.296473 
L 496.614875 51.11029 
L 498.045619 50.200825 
L 499.442134 49.568722 
L 500.58536 49.280536 
L 501.536908 49.279244 
L 502.331005 49.521714 
L 503.008726 49.962231 
L 503.679601 50.660081 
L 504.412087 51.772924 
L 505.16511 53.349708 
L 505.98659 55.615295 
L 506.890217 58.793094 
L 507.903376 63.210222 
L 509.039756 69.196702 
L 510.360969 77.41441 
L 511.921781 88.611418 
L 513.872795 104.326176 
L 516.891733 130.705977 
L 521.005978 166.354929 
L 522.936455 181.147444 
L 524.469884 191.266823 
L 525.797943 198.617551 
L 526.995934 204.051616 
L 528.084395 208.010521 
L 529.083862 210.855016 
L 529.994335 212.813824 
L 530.808969 214.070422 
L 531.527764 214.797106 
L 532.164411 215.145239 
L 532.753138 215.222341 
L 533.328174 215.071383 
L 533.923747 214.677777 
L 534.574085 213.966035 
L 535.279188 212.847731 
L 536.052748 211.180502 
L 536.887919 208.827619 
L 537.805239 205.544642 
L 538.825243 201.019542 
L 539.98216 194.819506 
L 541.357112 186.163348 
L 543.109602 173.609428 
L 545.888942 151.85858 
L 550.482382 116.050254 
L 552.652458 100.912837 
L 554.446022 89.90609 
L 556.047908 81.402328 
L 557.540263 74.633465 
L 558.950469 69.218995 
L 560.333294 64.760836 
L 561.668198 61.169012 
L 563.003103 58.18603 
L 564.344853 55.712542 
L 565.679758 53.690879 
L 567.083119 51.958048 
L 568.527554 50.520672 
L 569.992526 49.35549 
L 571.621795 48.337793 
L 573.463278 47.464028 
L 575.599126 46.726279 
L 578.207324 46.102737 
L 580.753911 45.675305 
L 585.299432 45.143679 
L 589.023474 44.903147 
L 590.406298 45.046433 
L 591.296234 45.369834 
L 592.056103 45.887729 
L 592.781744 46.666994 
L 593.493693 47.770791 
L 594.23987 49.35436 
L 595.054504 51.643693 
L 595.930749 54.803399 
L 596.916525 59.239104 
L 598.025523 65.321377 
L 599.279032 73.508021 
L 600.723467 84.48994 
L 602.441729 99.354032 
L 604.639188 120.438256 
L 608.945111 164.50159 
L 611.416396 188.441891 
L 613.00459 201.777807 
L 614.312112 210.973796 
L 615.489566 217.742983 
L 616.584872 222.8005 
L 617.632259 226.633736 
L 618.652263 229.558262 
L 619.658576 231.794787 
L 620.671734 233.520673 
L 621.705429 234.852555 
L 622.787044 235.888952 
L 623.950807 236.698415 
L 625.258329 237.335015 
L 626.798604 237.831536 
L 628.729081 238.210148 
L 631.364662 238.485767 
L 635.501702 238.671493 
L 650.842837 238.982565 
L 652.0066 238.725524 
L 652.930764 238.295224 
L 653.752244 237.664717 
L 654.546341 236.765402 
L 655.347284 235.5095 
L 656.196146 233.745201 
L 657.113465 231.301583 
L 658.126624 227.940911 
L 659.26985 223.341577 
L 660.604754 216.995298 
L 662.234022 208.101678 
L 664.52732 194.22593 
L 669.538347 163.627227 
L 671.400367 153.778344 
L 672.913259 146.904868 
L 674.220781 141.951786 
L 675.370853 138.421056 
L 676.404548 135.92442 
L 677.335558 134.223638 
L 678.157038 133.155299 
L 678.875833 132.560269 
L 679.505634 132.3099 
L 680.08067 132.313179 
L 680.642014 132.540917 
L 681.230742 133.030251 
L 681.867388 133.861758 
L 682.579337 135.178933 
L 683.373435 137.144428 
L 684.263371 139.975742 
L 685.262838 143.936618 
L 686.399218 149.396852 
L 687.713586 156.861465 
L 689.308626 167.284975 
L 691.62246 184.06455 
L 694.491684 204.559075 
L 695.956656 213.418191 
L 697.202567 219.66168 
L 698.345793 224.308945 
L 699.427408 227.818022 
L 700.474794 230.49423 
L 701.50849 232.548793 
L 702.549031 234.136501 
L 703.616955 235.367995 
L 704.739644 236.32689 
L 705.958172 237.076192 
L 707.340996 237.662671 
L 708.990801 238.114084 
L 711.09242 238.447456 
L 714.036056 238.672533 
L 718.958089 238.797406 
L 745.34128 238.986338 
L 746.32021 238.689653 
L 747.121153 238.215886 
L 747.853639 237.518595 
L 748.572434 236.514666 
L 749.311765 235.081713 
L 750.099017 233.046641 
L 750.954725 230.186081 
L 751.899427 226.210608 
L 752.96735 220.698277 
L 754.206415 213.065632 
L 755.719307 202.275363 
L 757.786698 185.781922 
L 766.638142 113.310711 
L 768.664459 99.321208 
L 770.403258 88.808141 
L 771.984606 80.561016 
L 773.46327 73.985047 
L 774.839248 68.803193 
L 776.180999 64.547927 
L 777.522749 60.994389 
L 778.864499 58.053083 
L 780.213095 55.625795 
L 781.541154 53.674887 
L 782.917133 52.039787 
L 784.334185 50.697073 
L 785.758083 49.632368 
L 787.359969 48.70691 
L 789.119305 47.958823 
L 790.906981 47.485028 
L 792.056916 47.430912 
L 792.905779 47.622498 
L 793.665647 48.045569 
L 794.315985 48.656187 
L 795.027935 49.648684 
L 795.774112 51.113683 
L 796.568209 53.208038 
L 797.417072 56.09959 
L 798.354928 60.097361 
L 799.402314 65.545432 
L 800.607151 73.035358 
L 802.010512 83.261386 
L 803.646626 96.922577 
L 805.686634 115.951247 
L 808.78772 147.243713 
L 812.539144 184.643248 
L 814.236869 199.365493 
L 815.592311 209.274646 
L 816.790302 216.467146 
L 817.8993 221.835529 
L 818.960378 225.916407 
L 819.987227 229.015344 
L 820.99354 231.374717 
L 821.999853 233.189128 
L 823.026703 234.594917 
L 824.094626 235.687017 
L 825.237852 236.540957 
L 826.511146 237.212919 
L 827.996655 237.740453 
L 829.858676 238.155886 
L 832.460028 238.491384 
L 836.745414 238.793289 
L 841.407312 238.932819 
L 842.646377 238.751679 
L 843.550005 238.398874 
L 844.323565 237.855627 
L 845.049205 237.065534 
L 845.774846 235.930771 
L 846.527869 234.321087 
L 847.335657 232.045161 
L 848.218748 228.858274 
L 849.197678 224.450216 
L 850.313521 218.341905 
L 851.627889 209.83417 
L 853.270848 197.646361 
L 855.666831 178.023243 
L 862.224978 123.626684 
L 864.531967 106.621955 
L 866.407679 94.381727 
L 868.071175 84.946126 
L 869.604878 77.48678 
L 871.056159 71.495243 
L 872.418446 66.753099 
L 873.780733 62.781335 
L 875.095101 59.591259 
L 876.484771 56.808101 
L 877.799138 54.64816 
L 879.188808 52.78109 
L 880.503176 51.342584 
L 881.968148 50.045909 
L 883.659027 48.868934 
L 885.664807 47.81376 
L 887.656895 47.042249 
L 889.915965 46.412893 
L 892.442015 45.93086 
L 895.214509 45.585327 
L 899.712111 45.272264 
L 905.900591 45.09134 
L 996.218182 44.991994 
L 996.218182 44.991994 
" style="fill:none;stroke:#008000;stroke-linecap:square;stroke-width:1.5;"/>
   </g>
   <g id="line2d_17">
    <path clip-path="url(#pa5e0579b0d)" d="M 184.581818 44.991994 
L 287.641792 45.102701 
L 292.3653 45.337226 
L 295.308936 45.692565 
L 297.431092 46.157599 
L 299.142508 46.747368 
L 300.580098 47.465024 
L 301.880774 48.359801 
L 303.079587 49.462087 
L 304.174893 50.772369 
L 305.270199 52.451591 
L 306.297049 54.444256 
L 307.323899 56.935103 
L 308.350748 60.0288 
L 309.377598 63.840824 
L 310.404448 68.49222 
L 311.499754 74.511027 
L 312.663517 82.232668 
L 313.895737 91.988527 
L 315.26487 104.702357 
L 316.907829 122.163 
L 322.726644 186.27737 
L 324.095777 197.925945 
L 325.396453 207.125527 
L 326.560216 213.871913 
L 327.723979 219.349861 
L 328.819285 223.495917 
L 329.914592 226.812352 
L 331.009898 229.439096 
L 332.105204 231.502081 
L 333.200511 233.109981 
L 334.364274 234.421159 
L 335.528037 235.409635 
L 336.828713 236.217972 
L 338.197846 236.809056 
L 339.772349 237.238944 
L 341.483765 237.474175 
L 343.400551 237.508329 
L 345.385794 237.315932 
L 347.234123 236.920683 
L 348.945539 236.336441 
L 350.520042 235.567644 
L 351.957632 234.620351 
L 353.326765 233.443317 
L 354.627441 232.015174 
L 355.85966 230.319164 
L 357.023423 228.346155 
L 358.187186 225.942708 
L 359.350949 223.032261 
L 360.514712 219.532174 
L 361.746932 215.088766 
L 362.979152 209.791214 
L 364.279828 203.180735 
L 365.655806 194.97949 
L 367.161853 184.570867 
L 368.873269 171.077485 
L 371.118578 151.395138 
L 375.910543 108.873691 
L 377.690416 95.356548 
L 379.264919 85.065499 
L 380.702509 77.104674 
L 382.071641 70.751313 
L 383.372318 65.734342 
L 384.672994 61.598125 
L 385.905214 58.384406 
L 387.137433 55.755147 
L 388.369653 53.617797 
L 389.670329 51.8039 
L 390.971005 50.361207 
L 392.340138 49.165267 
L 393.846184 48.151886 
L 395.489144 47.324813 
L 397.337473 46.654092 
L 399.459629 46.129151 
L 401.992525 45.741805 
L 405.004618 45.51665 
L 408.187852 45.500969 
L 410.994574 45.701257 
L 413.253643 46.080771 
L 415.033516 46.595405 
L 416.539562 47.252588 
L 417.840239 48.050158 
L 419.072458 49.071425 
L 420.167765 50.26266 
L 421.263071 51.79534 
L 422.289921 53.620666 
L 423.31677 55.910476 
L 424.34362 58.765392 
L 425.37047 62.298222 
L 426.397319 66.629852 
L 427.492626 72.267223 
L 428.587932 79.083242 
L 429.751695 87.720198 
L 431.052371 99.102787 
L 432.558417 114.362916 
L 434.680573 138.434686 
L 437.829579 173.995753 
L 439.404082 189.200478 
L 440.773215 200.317465 
L 442.005434 208.575164 
L 443.169197 214.932921 
L 444.264504 219.764733 
L 445.35981 223.622143 
L 446.38666 226.480446 
L 447.413509 228.717729 
L 448.440359 230.43134 
L 449.467209 231.703764 
L 450.425602 232.55278 
L 451.383995 233.119106 
L 452.31569 233.429647 
L 453.274083 233.524785 
L 454.232476 233.406761 
L 455.266171 233.047838 
L 456.293021 232.451762 
L 457.388327 231.540848 
L 458.483634 230.322948 
L 459.57894 228.764362 
L 460.674246 226.821705 
L 461.838009 224.27835 
L 463.001772 221.17095 
L 464.165535 217.421776 
L 465.397755 212.664538 
L 466.629974 207.011573 
L 467.930651 199.996946 
L 469.36824 190.945872 
L 470.942743 179.510907 
L 472.791072 164.339585 
L 475.666252 138.560554 
L 478.678344 112.125943 
L 480.526673 97.811266 
L 482.101176 87.264508 
L 483.538766 79.064054 
L 484.888252 72.586282 
L 486.188928 67.386503 
L 487.421148 63.315107 
L 488.653367 59.980382 
L 489.885587 57.289593 
L 491.04935 55.26212 
L 492.213113 53.669034 
L 493.376876 52.457351 
L 494.472182 51.62782 
L 495.567488 51.07367 
L 496.594338 50.789759 
L 497.621188 50.727737 
L 498.648037 50.889071 
L 499.674887 51.282736 
L 500.701737 51.925459 
L 501.728586 52.842005 
L 502.755436 54.065439 
L 503.782286 55.637274 
L 504.809135 57.607355 
L 505.904442 60.212743 
L 506.999748 63.414729 
L 508.095054 67.296203 
L 509.258817 72.257079 
L 510.491037 78.545854 
L 511.791713 86.421028 
L 513.160846 96.108513 
L 514.735349 108.907606 
L 516.720592 127.008522 
L 521.717927 173.519837 
L 523.29243 185.703385 
L 524.661563 194.666737 
L 525.893782 201.345509 
L 527.057545 206.444797 
L 528.084395 209.999772 
L 529.042788 212.55486 
L 529.932724 214.299426 
L 530.685747 215.32416 
L 531.370314 215.910124 
L 531.986424 216.164429 
L 532.602533 216.166184 
L 533.218643 215.920086 
L 533.834753 215.429629 
L 534.51932 214.600889 
L 535.272343 213.346098 
L 536.162279 211.399929 
L 537.120672 208.740444 
L 538.215978 204.979926 
L 539.379741 200.136526 
L 540.680418 193.694196 
L 542.089598 185.525007 
L 543.664101 175.050971 
L 545.587732 160.672443 
L 548.736738 135.115618 
L 551.74883 111.303542 
L 553.665616 97.825457 
L 555.308576 87.731078 
L 556.814622 79.758091 
L 558.252212 73.276788 
L 559.621345 68.066733 
L 560.990477 63.707666 
L 562.291154 60.263696 
L 563.59183 57.409236 
L 564.892506 55.059399 
L 566.261639 53.045246 
L 567.630772 51.422726 
L 569.068362 50.064309 
L 570.574408 48.947979 
L 572.217367 48.014891 
L 573.99724 47.266544 
L 575.982483 46.680901 
L 578.173095 46.272444 
L 580.500621 46.065298 
L 582.759691 46.079614 
L 584.81339 46.307748 
L 586.593263 46.726274 
L 588.099309 47.30199 
L 589.468442 48.066678 
L 590.700662 49.017096 
L 591.864425 50.212509 
L 592.959731 51.675252 
L 593.986581 53.419108 
L 595.01343 55.607144 
L 596.04028 58.334693 
L 597.06713 61.709152 
L 598.093979 65.846514 
L 599.173267 71.146707 
L 600.264808 77.625448 
L 601.428571 85.88158 
L 602.729247 96.808074 
L 604.166837 110.843587 
L 606.083623 131.958848 
L 610.122565 177.062774 
L 611.628611 191.150093 
L 612.997744 201.929177 
L 614.229964 209.942767 
L 615.393727 216.136541 
L 616.55749 221.142527 
L 617.652796 224.92038 
L 618.748102 227.938039 
L 619.843409 230.327998 
L 620.938715 232.207632 
L 622.102478 233.757497 
L 623.266241 234.943919 
L 624.49846 235.892854 
L 625.867593 236.665109 
L 627.37364 237.260406 
L 629.153512 237.718593 
L 631.275668 238.025895 
L 633.829033 238.16392 
L 636.788687 238.09713 
L 639.732323 237.81415 
L 642.333676 237.351983 
L 644.592745 236.732398 
L 646.577988 235.95812 
L 648.289404 235.060313 
L 649.863907 233.990747 
L 651.369953 232.692533 
L 652.739086 231.224678 
L 654.108219 229.424846 
L 655.408895 227.348956 
L 656.709571 224.854113 
L 658.010247 221.87463 
L 659.310924 218.343189 
L 660.680057 213.958719 
L 662.04919 208.826974 
L 663.555236 202.269413 
L 665.129739 194.386902 
L 666.909611 184.316422 
L 669.305594 169.349119 
L 673.207623 144.912328 
L 674.713669 136.910307 
L 675.945889 131.498473 
L 676.972738 127.958774 
L 677.794218 125.848364 
L 678.478784 124.618775 
L 679.094894 123.943352 
L 679.574091 123.708612 
L 680.053287 123.732436 
L 680.532484 124.01698 
L 681.080137 124.661907 
L 681.696247 125.792262 
L 682.380813 127.541399 
L 683.202293 130.300123 
L 684.160686 134.368484 
L 685.324449 140.398767 
L 686.762038 149.171025 
L 688.815738 163.26535 
L 692.580853 189.19231 
L 694.341079 199.674033 
L 695.847125 207.395998 
L 697.284715 213.647731 
L 698.653848 218.62777 
L 699.954524 222.555616 
L 701.2552 225.792127 
L 702.555877 228.432405 
L 703.856553 230.568746 
L 705.157229 232.285873 
L 706.526362 233.722571 
L 707.963952 234.901729 
L 709.469998 235.851515 
L 711.112957 236.630543 
L 713.029743 237.286132 
L 715.220356 237.796405 
L 717.890165 238.185665 
L 721.312997 238.448629 
L 725.632612 238.546596 
L 730.082294 238.430669 
L 733.642039 238.126708 
L 736.380305 237.676941 
L 738.570918 237.097671 
L 740.419247 236.382261 
L 741.99375 235.544433 
L 743.417648 234.546022 
L 744.786781 233.308245 
L 746.087457 231.814301 
L 747.319677 230.044911 
L 748.48344 227.989515 
L 749.647203 225.487974 
L 750.810966 222.460963 
L 751.974729 218.823518 
L 753.206948 214.210385 
L 754.439168 208.718111 
L 755.739844 201.877835 
L 757.108977 193.459526 
L 758.615023 182.76471 
L 760.394896 168.388119 
L 762.790879 146.994505 
L 766.761364 111.481199 
L 768.609694 97.07818 
L 770.184196 86.496295 
L 771.621786 78.287206 
L 772.990919 71.726079 
L 774.291595 66.544014 
L 775.592271 62.276877 
L 776.824491 58.971414 
L 778.056711 56.282018 
L 779.28893 54.116625 
L 780.52115 52.393783 
L 781.75337 51.044325 
L 782.985589 50.01193 
L 784.217809 49.253093 
L 785.518485 48.714909 
L 786.819161 48.425926 
L 788.051381 48.37681 
L 789.283601 48.55529 
L 790.447364 48.953977 
L 791.522954 49.550382 
L 792.618261 50.422556 
L 793.64511 51.529561 
L 794.67196 52.973008 
L 795.69881 54.820713 
L 796.725659 57.153376 
L 797.752509 60.064087 
L 798.779359 63.656238 
L 799.874665 68.362036 
L 800.969971 74.097271 
L 802.133734 81.442988 
L 803.365954 90.715863 
L 804.735087 102.810922 
L 806.378046 119.492026 
L 809.116312 150.124339 
L 811.443838 175.153495 
L 813.018341 189.824264 
L 814.387474 200.612234 
L 815.626539 208.735893 
L 816.790302 215.021836 
L 817.954065 220.137267 
L 819.049371 224.022163 
L 820.144678 227.142478 
L 821.239984 229.625122 
L 822.33529 231.583889 
L 823.430597 233.116948 
L 824.59436 234.371121 
L 825.826579 235.365219 
L 827.127256 236.122661 
L 828.496389 236.66746 
L 830.002435 237.03247 
L 831.645394 237.206028 
L 833.425267 237.16872 
L 835.20514 236.909358 
L 836.916556 236.435517 
L 838.491059 235.771222 
L 839.928648 234.930109 
L 841.297781 233.870534 
L 842.598457 232.574652 
L 843.830677 231.027741 
L 845.062897 229.103191 
L 846.22666 226.869484 
L 847.390423 224.156663 
L 848.554186 220.884129 
L 849.786405 216.714819 
L 851.018625 211.723257 
L 852.319301 205.463467 
L 853.688434 197.691545 
L 855.126024 188.19113 
L 856.768983 175.736614 
L 858.754226 158.840195 
L 865.257607 101.9152 
L 866.900567 90.256821 
L 868.406613 81.124674 
L 869.77602 74.115761 
L 871.076696 68.533447 
L 872.377372 63.898315 
L 873.609592 60.276255 
L 874.841811 57.299289 
L 876.074031 54.87008 
L 877.306251 52.899462 
L 878.606927 51.229794 
L 879.97606 49.841737 
L 881.413649 48.708839 
L 882.919695 47.800522 
L 884.631112 47.03176 
L 886.547898 46.415807 
L 888.875424 45.910997 
L 891.750603 45.526438 
L 895.584175 45.251102 
L 901.40299 45.078229 
L 912.979008 45.001644 
L 979.518868 44.991994 
L 996.153833 44.991994 
L 996.153833 44.991994 
" style="fill:none;stroke:#008000;stroke-dasharray:5.55,2.4;stroke-dashoffset:0;stroke-width:1.5;"/>
   </g>
   <g id="line2d_18">
    <path clip-path="url(#pa5e0579b0d)" d="M 184.581818 238.839015 
L 287.573335 238.948234 
L 291.74919 239.177061 
L 294.555913 239.545453 
L 296.814982 240.060576 
L 298.663312 240.705082 
L 300.306271 241.50749 
L 304.585633 243.781264 
L 305.407113 243.830257 
L 306.160136 243.641583 
L 306.913159 243.211008 
L 307.734639 242.476091 
L 308.761488 241.236344 
L 310.541361 238.648988 
L 312.047407 236.610105 
L 313.0058 235.661752 
L 313.758823 235.201378 
L 314.44339 235.0353 
L 315.0595 235.102125 
L 315.744066 235.412517 
L 316.497089 236.014826 
L 317.455482 237.090997 
L 320.672945 241.008796 
L 321.425968 241.492782 
L 322.110534 241.694719 
L 322.795101 241.672589 
L 323.548124 241.421513 
L 324.506517 240.851105 
L 328.545459 238.143391 
L 329.777678 237.727931 
L 331.146811 237.512173 
L 332.789771 237.492359 
L 335.596493 237.723777 
L 339.430065 237.990764 
L 342.031418 237.942763 
L 344.358944 237.677438 
L 346.4811 237.210358 
L 348.329429 236.581285 
L 349.972389 235.795371 
L 351.546892 234.791149 
L 353.258308 233.416874 
L 355.928117 231.248971 
L 356.818053 230.8189 
L 357.571077 230.692951 
L 358.255643 230.809174 
L 358.940209 231.16609 
L 359.693233 231.844278 
L 360.514712 232.912119 
L 361.541562 234.661631 
L 362.979152 237.62007 
L 365.450436 242.711538 
L 366.545743 244.434272 
L 367.435679 245.437122 
L 368.188702 245.974758 
L 368.873269 246.210539 
L 369.544075 246.214664 
L 370.228642 246.004885 
L 371.050122 245.503926 
L 372.076971 244.578357 
L 373.583017 242.862961 
L 376.59511 239.377001 
L 378.032699 238.072171 
L 379.333376 237.17539 
L 380.634052 236.54598 
L 382.003185 236.139979 
L 383.509231 235.938096 
L 385.289104 235.93845 
L 387.548173 236.169367 
L 391.587115 236.836775 
L 397.953583 237.829503 
L 403.087832 238.398131 
L 409.762355 239.149929 
L 412.363707 239.681669 
L 414.417406 240.321398 
L 416.197279 241.114772 
L 418.250979 242.311918 
L 420.030851 243.280613 
L 420.989244 243.55895 
L 421.810724 243.558886 
L 422.563747 243.320913 
L 423.31677 242.840712 
L 424.206707 241.977966 
L 425.302013 240.568438 
L 428.998672 235.488949 
L 429.820152 234.863815 
L 430.504718 234.602725 
L 431.120828 234.587689 
L 431.736938 234.784137 
L 432.421504 235.238906 
L 433.242984 236.070594 
L 434.406747 237.618546 
L 436.665816 240.68416 
L 437.555753 241.487474 
L 438.308776 241.875541 
L 438.993342 241.98478 
L 439.677909 241.878263 
L 440.499388 241.51628 
L 441.663151 240.720589 
L 444.812157 238.428238 
L 446.249746 237.723898 
L 447.892706 237.184452 
L 453.205626 235.659739 
L 454.711672 234.863024 
L 456.156108 233.843709 
L 458.34672 231.970512 
L 459.852767 230.809072 
L 460.81116 230.341454 
L 461.564183 230.206859 
L 462.248749 230.295865 
L 462.933316 230.601543 
L 463.686339 231.19048 
L 464.576275 232.204998 
L 465.671581 233.835649 
L 469.915893 240.598076 
L 470.80583 241.414571 
L 471.558853 241.831989 
L 472.311876 241.992497 
L 473.064899 241.906598 
L 473.886379 241.560945 
L 474.844772 240.887667 
L 476.145448 239.670179 
L 479.431367 236.471167 
L 480.732043 235.556628 
L 481.964263 234.956616 
L 483.196483 234.611364 
L 484.477512 234.492966 
L 485.915101 234.595523 
L 487.626517 234.947347 
L 490.0225 235.683228 
L 493.376876 236.957068 
L 495.909772 238.131557 
L 497.826558 239.258023 
L 499.537974 240.519872 
L 503.371546 243.498368 
L 504.261482 243.831051 
L 505.014505 243.89605 
L 505.767529 243.741489 
L 506.589008 243.324447 
L 507.478945 242.612093 
L 508.642708 241.371389 
L 512.47628 237.01463 
L 513.434673 236.385498 
L 514.256153 236.10151 
L 515.077632 236.06435 
L 515.899112 236.262717 
L 516.857505 236.748774 
L 518.089725 237.652052 
L 521.170274 240.022437 
L 522.402493 240.627635 
L 523.634713 240.973217 
L 524.935389 241.104921 
L 526.578349 241.037409 
L 528.700505 240.712262 
L 531.781054 239.97831 
L 534.587776 239.392859 
L 535.956909 239.319556 
L 536.983759 239.476002 
L 537.942152 239.840902 
L 538.969002 240.475771 
L 540.269678 241.567487 
L 543.458731 244.365946 
L 544.554037 244.960601 
L 545.519276 245.237325 
L 546.477669 245.282953 
L 547.504518 245.109143 
L 548.805195 244.642575 
L 550.790437 243.654539 
L 554.966293 241.550833 
L 557.362275 240.617495 
L 559.758258 239.915075 
L 562.35961 239.384922 
L 565.23479 239.033199 
L 568.520708 238.856926 
L 573.312674 238.839015 
L 578.515379 239.023564 
L 581.801298 239.353189 
L 584.265737 239.816183 
L 586.25098 240.407817 
L 587.962396 241.146311 
L 589.947638 242.27856 
L 591.864425 243.320165 
L 592.822818 243.589801 
L 593.575841 243.589537 
L 594.328864 243.358492 
L 595.081887 242.878673 
L 595.903367 242.081557 
L 596.930216 240.749475 
L 598.573176 238.177174 
L 600.333265 235.537576 
L 601.291658 234.464791 
L 602.113137 233.868148 
L 602.797704 233.635782 
L 603.413814 233.643056 
L 604.09838 233.886819 
L 604.851403 234.415025 
L 605.809796 235.396565 
L 609.164172 239.163365 
L 609.985652 239.610151 
L 610.738675 239.760548 
L 611.491698 239.682052 
L 612.381634 239.359864 
L 613.88768 238.53095 
L 615.73601 237.582427 
L 617.036686 237.170502 
L 618.337362 236.993597 
L 619.843409 237.021484 
L 622.034021 237.314692 
L 627.852836 238.181459 
L 631.070298 238.38023 
L 634.522772 238.365088 
L 637.815537 238.134805 
L 640.622259 237.72215 
L 643.086699 237.137915 
L 645.208855 236.414616 
L 647.125641 235.528025 
L 648.905514 234.455569 
L 651.096126 232.843804 
L 653.149826 231.408347 
L 654.176675 230.940503 
L 654.998155 230.782397 
L 655.751178 230.846631 
L 656.504201 231.129644 
L 657.325681 231.691298 
L 658.215617 232.581527 
L 659.310924 234.020961 
L 660.81697 236.418016 
L 663.760606 241.160101 
L 664.924369 242.571719 
L 665.882762 243.388858 
L 666.704241 243.801619 
L 667.457264 243.931592 
L 668.210288 243.820728 
L 668.963311 243.474583 
L 669.78479 242.843701 
L 670.743183 241.806701 
L 671.906946 240.185567 
L 673.481449 237.569209 
L 676.288172 232.878856 
L 677.383478 231.508383 
L 678.273414 230.737377 
L 679.026438 230.359891 
L 679.711004 230.242853 
L 680.39557 230.335137 
L 681.148594 230.65932 
L 682.03853 231.301307 
L 683.133836 232.386979 
L 684.913709 234.524086 
L 686.830495 236.738251 
L 687.925801 237.684331 
L 688.815738 238.175835 
L 689.568761 238.359164 
L 690.321784 238.311829 
L 691.074807 238.032849 
L 691.896287 237.485112 
L 692.923137 236.52021 
L 696.463235 232.940535 
L 697.421628 232.39521 
L 698.380021 232.110397 
L 699.338414 232.066539 
L 700.365264 232.242571 
L 701.66594 232.70741 
L 703.582726 233.661726 
L 707.827038 235.822029 
L 710.154564 236.719999 
L 712.550547 237.399414 
L 715.220356 237.91491 
L 718.369362 238.284672 
L 722.27139 238.506835 
L 726.864831 238.543627 
L 731.109143 238.366432 
L 734.189692 238.028931 
L 736.654132 237.543996 
L 738.707831 236.925541 
L 740.487704 236.168008 
L 742.062207 235.266397 
L 743.623018 234.108314 
L 745.608261 232.315424 
L 747.45659 230.730227 
L 748.414983 230.195825 
L 749.168006 230.02097 
L 749.852573 230.090033 
L 750.537139 230.395025 
L 751.290162 231.007838 
L 752.111642 231.990817 
L 753.138492 233.608694 
L 754.712995 236.59705 
L 756.766694 240.415345 
L 757.862 241.977134 
L 758.751937 242.866197 
L 759.50496 243.319473 
L 760.189526 243.48834 
L 760.874093 243.433617 
L 761.627116 243.137297 
L 762.517052 242.51658 
L 763.612359 241.458672 
L 766.076798 238.646105 
L 767.719757 236.975418 
L 769.020434 235.949029 
L 770.252653 235.253209 
L 771.484873 234.818464 
L 772.785549 234.609007 
L 774.223139 234.615832 
L 776.003011 234.869566 
L 778.330537 235.441527 
L 782.848676 236.838657 
L 786.545335 238.160258 
L 788.667491 239.148997 
L 790.51582 240.266343 
L 794.05585 242.521146 
L 794.945787 242.747025 
L 795.69881 242.715177 
L 796.451833 242.453111 
L 797.273313 241.905118 
L 798.231706 240.963998 
L 799.532382 239.333424 
L 801.996821 236.193139 
L 802.955214 235.345576 
L 803.776694 234.913103 
L 804.46126 234.788871 
L 805.145827 234.885494 
L 805.89885 235.233501 
L 806.788786 235.920308 
L 808.089463 237.254802 
L 809.800879 238.972047 
L 810.690815 239.570409 
L 811.443838 239.833913 
L 812.196861 239.860742 
L 813.018341 239.645097 
L 814.045191 239.112672 
L 817.611782 237.026839 
L 818.844002 236.679945 
L 820.144678 236.556075 
L 821.719181 236.64828 
L 824.320533 237.066753 
L 827.811822 237.576279 
L 830.207805 237.69159 
L 832.398417 237.571097 
L 834.452117 237.231515 
L 836.300446 236.703577 
L 838.011862 235.980257 
L 839.586365 235.065192 
L 841.160868 233.884714 
L 844.78907 231.021547 
L 845.61055 230.724489 
L 846.295116 230.693816 
L 846.979683 230.891471 
L 847.664249 231.332718 
L 848.417272 232.101299 
L 849.307209 233.367108 
L 850.402515 235.358693 
L 852.387758 239.565587 
L 854.030717 242.800309 
L 855.057567 244.37486 
L 855.947503 245.352739 
L 856.700526 245.869121 
L 857.385093 246.086278 
L 858.069659 246.07129 
L 858.822682 245.808343 
L 859.644162 245.268104 
L 860.671012 244.307965 
L 862.245515 242.488642 
L 864.983781 239.330916 
L 866.42137 238.01903 
L 867.722046 237.116411 
L 869.022723 236.482983 
L 870.392129 236.074083 
L 871.898176 235.873604 
L 873.678048 235.877934 
L 876.005574 236.125951 
L 880.318343 236.855872 
L 885.931788 237.733266 
L 890.518383 238.225681 
L 895.926458 238.55479 
L 903.045949 238.741806 
L 917.017951 238.828001 
L 996.153833 238.839015 
L 996.153833 238.839015 
" style="fill:none;stroke:#008000;stroke-dasharray:9.6,2.4,1.5,2.4;stroke-dashoffset:0;stroke-width:1.5;"/>
   </g>
   <g id="patch_3">
    <path d="M 144 256.32 
L 144 34.56 
" style="fill:none;stroke:#000000;stroke-linecap:square;stroke-linejoin:miter;stroke-width:0.8;"/>
   </g>
   <g id="patch_4">
    <path d="M 1036.8 256.32 
L 1036.8 34.56 
" style="fill:none;stroke:#000000;stroke-linecap:square;stroke-linejoin:miter;stroke-width:0.8;"/>
   </g>
   <g id="patch_5">
    <path d="M 144 256.32 
L 1036.8 256.32 
" style="fill:none;stroke:#000000;stroke-linecap:square;stroke-linejoin:miter;stroke-width:0.8;"/>
   </g>
   <g id="patch_6">
    <path d="M 144 34.56 
L 1036.8 34.56 
" style="fill:none;stroke:#000000;stroke-linecap:square;stroke-linejoin:miter;stroke-width:0.8;"/>
   </g>
   <g id="text_18">
    <!-- In  RMSE: 0.0 -->
    <g transform="translate(184.581818 203.346575)scale(0.1 -0.1)">
     <defs>
      <path d="M 9.8125 72.90625 
L 50.296875 72.90625 
L 50.296875 64.59375 
L 35.015625 64.59375 
L 35.015625 8.296875 
L 50.296875 8.296875 
L 50.296875 0 
L 9.8125 0 
L 9.8125 8.296875 
L 25.09375 8.296875 
L 25.09375 64.59375 
L 9.8125 64.59375 
z
" id="DejaVuSansMono-73"/>
      <path d="M 51.3125 33.890625 
L 51.3125 0 
L 42.28125 0 
L 42.28125 33.890625 
Q 42.28125 41.265625 39.6875 44.71875 
Q 37.109375 48.1875 31.59375 48.1875 
Q 25.296875 48.1875 21.890625 43.71875 
Q 18.5 39.265625 18.5 30.90625 
L 18.5 0 
L 9.515625 0 
L 9.515625 54.6875 
L 18.5 54.6875 
L 18.5 46.484375 
Q 20.90625 51.171875 25 53.578125 
Q 29.109375 56 34.71875 56 
Q 43.0625 56 47.1875 50.5 
Q 51.3125 45.015625 51.3125 33.890625 
z
" id="DejaVuSansMono-110"/>
      <path id="DejaVuSansMono-32"/>
      <path d="M 37.109375 34.421875 
Q 40.921875 33.453125 43.609375 30.734375 
Q 46.296875 28.03125 50.296875 19.921875 
L 60.203125 0 
L 49.609375 0 
L 40.921875 18.40625 
Q 37.15625 26.265625 34.15625 28.53125 
Q 31.15625 30.8125 26.3125 30.8125 
L 16.890625 30.8125 
L 16.890625 0 
L 6.984375 0 
L 6.984375 72.90625 
L 27.296875 72.90625 
Q 39.3125 72.90625 45.703125 67.484375 
Q 52.09375 62.0625 52.09375 51.8125 
Q 52.09375 44.578125 48.15625 40.015625 
Q 44.234375 35.453125 37.109375 34.421875 
z
M 16.890625 64.796875 
L 16.890625 38.921875 
L 27.6875 38.921875 
Q 34.765625 38.921875 38.234375 42.09375 
Q 41.703125 45.265625 41.703125 51.8125 
Q 41.703125 58.109375 38.015625 61.453125 
Q 34.328125 64.796875 27.296875 64.796875 
z
" id="DejaVuSansMono-82"/>
      <path d="M 4.203125 72.90625 
L 17.390625 72.90625 
L 29.984375 35.796875 
L 42.671875 72.90625 
L 55.90625 72.90625 
L 55.90625 0 
L 46.78125 0 
L 46.78125 64.40625 
L 33.796875 25.984375 
L 26.3125 25.984375 
L 13.28125 64.40625 
L 13.28125 0 
L 4.203125 0 
z
" id="DejaVuSansMono-77"/>
      <path d="M 49.421875 70.40625 
L 49.421875 60.40625 
Q 44.921875 63.28125 40.40625 64.75 
Q 35.890625 66.21875 31.296875 66.21875 
Q 24.3125 66.21875 20.265625 62.96875 
Q 16.21875 59.71875 16.21875 54.203125 
Q 16.21875 49.359375 18.875 46.8125 
Q 21.53125 44.28125 28.8125 42.578125 
L 33.984375 41.40625 
Q 44.234375 39.015625 48.921875 33.890625 
Q 53.609375 28.765625 53.609375 19.921875 
Q 53.609375 9.515625 47.15625 4.046875 
Q 40.71875 -1.421875 28.421875 -1.421875 
Q 23.296875 -1.421875 18.109375 -0.3125 
Q 12.9375 0.78125 7.71875 2.984375 
L 7.71875 13.484375 
Q 13.328125 9.90625 18.328125 8.25 
Q 23.34375 6.59375 28.421875 6.59375 
Q 35.890625 6.59375 40.03125 9.9375 
Q 44.1875 13.28125 44.1875 19.28125 
Q 44.1875 24.75 41.328125 27.625 
Q 38.484375 30.515625 31.390625 32.078125 
L 26.125 33.296875 
Q 15.96875 35.59375 11.375 40.234375 
Q 6.78125 44.875 6.78125 52.6875 
Q 6.78125 62.453125 13.34375 68.328125 
Q 19.921875 74.21875 30.8125 74.21875 
Q 35.015625 74.21875 39.640625 73.265625 
Q 44.28125 72.3125 49.421875 70.40625 
z
" id="DejaVuSansMono-83"/>
      <path d="M 9.625 72.90625 
L 52.875 72.90625 
L 52.875 64.59375 
L 19.484375 64.59375 
L 19.484375 43.015625 
L 51.421875 43.015625 
L 51.421875 34.71875 
L 19.484375 34.71875 
L 19.484375 8.296875 
L 53.8125 8.296875 
L 53.8125 0 
L 9.625 0 
z
" id="DejaVuSansMono-69"/>
      <path d="M 23.875 51.90625 
L 36.1875 51.90625 
L 36.1875 37.109375 
L 23.875 37.109375 
z
M 23.875 14.890625 
L 36.1875 14.890625 
L 36.1875 0 
L 23.875 0 
z
" id="DejaVuSansMono-58"/>
      <path d="M 23.578125 36.625 
Q 23.578125 39.3125 25.453125 41.265625 
Q 27.34375 43.21875 29.984375 43.21875 
Q 32.71875 43.21875 34.671875 41.265625 
Q 36.625 39.3125 36.625 36.625 
Q 36.625 33.890625 34.6875 31.984375 
Q 32.765625 30.078125 29.984375 30.078125 
Q 27.25 30.078125 25.40625 31.9375 
Q 23.578125 33.796875 23.578125 36.625 
z
M 30.078125 66.40625 
Q 23.1875 66.40625 19.796875 58.984375 
Q 16.40625 51.5625 16.40625 36.375 
Q 16.40625 21.234375 19.796875 13.8125 
Q 23.1875 6.390625 30.078125 6.390625 
Q 37.015625 6.390625 40.40625 13.8125 
Q 43.796875 21.234375 43.796875 36.375 
Q 43.796875 51.5625 40.40625 58.984375 
Q 37.015625 66.40625 30.078125 66.40625 
z
M 30.078125 74.21875 
Q 41.75 74.21875 47.734375 64.640625 
Q 53.71875 55.078125 53.71875 36.375 
Q 53.71875 17.71875 47.734375 8.140625 
Q 41.75 -1.421875 30.078125 -1.421875 
Q 18.40625 -1.421875 12.453125 8.140625 
Q 6.5 17.71875 6.5 36.375 
Q 6.5 55.078125 12.453125 64.640625 
Q 18.40625 74.21875 30.078125 74.21875 
z
" id="DejaVuSansMono-48"/>
      <path d="M 23.875 14.890625 
L 36.1875 14.890625 
L 36.1875 0 
L 23.875 0 
z
" id="DejaVuSansMono-46"/>
     </defs>
     <use xlink:href="#DejaVuSansMono-73"/>
     <use x="60.205078" xlink:href="#DejaVuSansMono-110"/>
     <use x="120.410156" xlink:href="#DejaVuSansMono-32"/>
     <use x="180.615234" xlink:href="#DejaVuSansMono-32"/>
     <use x="240.820312" xlink:href="#DejaVuSansMono-82"/>
     <use x="301.025391" xlink:href="#DejaVuSansMono-77"/>
     <use x="361.230469" xlink:href="#DejaVuSansMono-83"/>
     <use x="421.435547" xlink:href="#DejaVuSansMono-69"/>
     <use x="481.640625" xlink:href="#DejaVuSansMono-58"/>
     <use x="541.845703" xlink:href="#DejaVuSansMono-32"/>
     <use x="602.050781" xlink:href="#DejaVuSansMono-48"/>
     <use x="662.255859" xlink:href="#DejaVuSansMono-46"/>
     <use x="722.460938" xlink:href="#DejaVuSansMono-48"/>
    </g>
    <!-- Out RMSE: 0.01522 -->
    <g transform="translate(184.581818 214.608137)scale(0.1 -0.1)">
     <defs>
      <path d="M 44.1875 36.375 
Q 44.1875 52.4375 40.890625 59.328125 
Q 37.59375 66.21875 30.078125 66.21875 
Q 22.609375 66.21875 19.3125 59.328125 
Q 16.015625 52.4375 16.015625 36.375 
Q 16.015625 20.359375 19.3125 13.46875 
Q 22.609375 6.59375 30.078125 6.59375 
Q 37.59375 6.59375 40.890625 13.453125 
Q 44.1875 20.3125 44.1875 36.375 
z
M 54.5 36.375 
Q 54.5 17.328125 48.46875 7.953125 
Q 42.4375 -1.421875 30.078125 -1.421875 
Q 17.71875 -1.421875 11.71875 7.90625 
Q 5.71875 17.234375 5.71875 36.375 
Q 5.71875 55.46875 11.75 64.84375 
Q 17.78125 74.21875 30.078125 74.21875 
Q 42.4375 74.21875 48.46875 64.84375 
Q 54.5 55.46875 54.5 36.375 
z
" id="DejaVuSansMono-79"/>
      <path d="M 9.515625 20.703125 
L 9.515625 54.59375 
L 18.5 54.59375 
L 18.5 20.703125 
Q 18.5 13.328125 21.109375 9.859375 
Q 23.734375 6.390625 29.203125 6.390625 
Q 35.546875 6.390625 38.90625 10.859375 
Q 42.28125 15.328125 42.28125 23.6875 
L 42.28125 54.59375 
L 51.3125 54.59375 
L 51.3125 0 
L 42.28125 0 
L 42.28125 8.203125 
Q 39.890625 3.46875 35.765625 1.015625 
Q 31.640625 -1.421875 26.125 -1.421875 
Q 17.71875 -1.421875 13.609375 4.078125 
Q 9.515625 9.578125 9.515625 20.703125 
z
" id="DejaVuSansMono-117"/>
      <path d="M 29.984375 70.21875 
L 29.984375 54.6875 
L 50.390625 54.6875 
L 50.390625 47.703125 
L 29.984375 47.703125 
L 29.984375 18.015625 
Q 29.984375 11.96875 32.28125 9.5625 
Q 34.578125 7.171875 40.28125 7.171875 
L 50.390625 7.171875 
L 50.390625 0 
L 39.40625 0 
Q 29.296875 0 25.140625 4.046875 
Q 21 8.109375 21 18.015625 
L 21 47.703125 
L 6.390625 47.703125 
L 6.390625 54.6875 
L 21 54.6875 
L 21 70.21875 
z
" id="DejaVuSansMono-116"/>
      <path d="M 13.1875 8.296875 
L 28.515625 8.296875 
L 28.515625 64.015625 
L 12.015625 60.296875 
L 12.015625 69.28125 
L 28.421875 72.90625 
L 38.28125 72.90625 
L 38.28125 8.296875 
L 53.421875 8.296875 
L 53.421875 0 
L 13.1875 0 
z
" id="DejaVuSansMono-49"/>
      <path d="M 10.109375 72.90625 
L 47.015625 72.90625 
L 47.015625 64.59375 
L 19.09375 64.59375 
L 19.09375 46.6875 
Q 21.1875 47.46875 23.3125 47.828125 
Q 25.4375 48.1875 27.59375 48.1875 
Q 38.921875 48.1875 45.5625 41.5 
Q 52.203125 34.8125 52.203125 23.390625 
Q 52.203125 11.859375 45.234375 5.21875 
Q 38.28125 -1.421875 26.21875 -1.421875 
Q 20.40625 -1.421875 15.59375 -0.640625 
Q 10.796875 0.140625 6.984375 1.703125 
L 6.984375 11.71875 
Q 11.46875 9.28125 16.015625 8.078125 
Q 20.5625 6.890625 25.296875 6.890625 
Q 33.453125 6.890625 37.859375 11.1875 
Q 42.28125 15.484375 42.28125 23.390625 
Q 42.28125 31.203125 37.71875 35.546875 
Q 33.15625 39.890625 25 39.890625 
Q 21.046875 39.890625 17.28125 38.984375 
Q 13.53125 38.09375 10.109375 36.28125 
z
" id="DejaVuSansMono-53"/>
      <path d="M 18.21875 8.296875 
L 51.703125 8.296875 
L 51.703125 0 
L 7.421875 0 
L 7.421875 8.296875 
Q 16.546875 17.921875 23.375 25.296875 
Q 30.21875 32.671875 32.8125 35.6875 
Q 37.703125 41.65625 39.40625 45.34375 
Q 41.109375 49.03125 41.109375 52.875 
Q 41.109375 58.984375 37.515625 62.453125 
Q 33.9375 65.921875 27.6875 65.921875 
Q 23.25 65.921875 18.359375 64.3125 
Q 13.484375 62.703125 8.015625 59.421875 
L 8.015625 69.390625 
Q 13.03125 71.78125 17.890625 73 
Q 22.75 74.21875 27.484375 74.21875 
Q 38.1875 74.21875 44.703125 68.53125 
Q 51.21875 62.84375 51.21875 53.609375 
Q 51.21875 48.921875 49.046875 44.234375 
Q 46.875 39.546875 42 33.890625 
Q 39.265625 30.71875 34.0625 25.09375 
Q 28.859375 19.484375 18.21875 8.296875 
z
" id="DejaVuSansMono-50"/>
     </defs>
     <use xlink:href="#DejaVuSansMono-79"/>
     <use x="60.205078" xlink:href="#DejaVuSansMono-117"/>
     <use x="120.410156" xlink:href="#DejaVuSansMono-116"/>
     <use x="180.615234" xlink:href="#DejaVuSansMono-32"/>
     <use x="240.820312" xlink:href="#DejaVuSansMono-82"/>
     <use x="301.025391" xlink:href="#DejaVuSansMono-77"/>
     <use x="361.230469" xlink:href="#DejaVuSansMono-83"/>
     <use x="421.435547" xlink:href="#DejaVuSansMono-69"/>
     <use x="481.640625" xlink:href="#DejaVuSansMono-58"/>
     <use x="541.845703" xlink:href="#DejaVuSansMono-32"/>
     <use x="602.050781" xlink:href="#DejaVuSansMono-48"/>
     <use x="662.255859" xlink:href="#DejaVuSansMono-46"/>
     <use x="722.460938" xlink:href="#DejaVuSansMono-48"/>
     <use x="782.666016" xlink:href="#DejaVuSansMono-49"/>
     <use x="842.871094" xlink:href="#DejaVuSansMono-53"/>
     <use x="903.076172" xlink:href="#DejaVuSansMono-50"/>
     <use x="963.28125" xlink:href="#DejaVuSansMono-50"/>
    </g>
   </g>
   <g id="legend_1">
    <g id="patch_7">
     <path d="M 151 176.29625 
L 368.865625 176.29625 
Q 370.865625 176.29625 370.865625 174.29625 
L 370.865625 116.58375 
Q 370.865625 114.58375 368.865625 114.58375 
L 151 114.58375 
Q 149 114.58375 149 116.58375 
L 149 174.29625 
Q 149 176.29625 151 176.29625 
z
" style="fill:#ffffff;opacity:0.8;stroke:#cccccc;stroke-linejoin:miter;"/>
    </g>
    <g id="line2d_19">
     <path d="M 153 122.682187 
L 173 122.682187 
" style="fill:none;stroke:#ff0000;stroke-linecap:square;stroke-width:1.5;"/>
    </g>
    <g id="line2d_20"/>
    <g id="text_19">
     <!-- Input -->
     <g transform="translate(181 126.182187)scale(0.1 -0.1)">
      <defs>
       <path d="M 9.8125 72.90625 
L 19.671875 72.90625 
L 19.671875 0 
L 9.8125 0 
z
" id="DejaVuSans-73"/>
       <path d="M 54.890625 33.015625 
L 54.890625 0 
L 45.90625 0 
L 45.90625 32.71875 
Q 45.90625 40.484375 42.875 44.328125 
Q 39.84375 48.1875 33.796875 48.1875 
Q 26.515625 48.1875 22.3125 43.546875 
Q 18.109375 38.921875 18.109375 30.90625 
L 18.109375 0 
L 9.078125 0 
L 9.078125 54.6875 
L 18.109375 54.6875 
L 18.109375 46.1875 
Q 21.34375 51.125 25.703125 53.5625 
Q 30.078125 56 35.796875 56 
Q 45.21875 56 50.046875 50.171875 
Q 54.890625 44.34375 54.890625 33.015625 
z
" id="DejaVuSans-110"/>
       <path d="M 18.109375 8.203125 
L 18.109375 -20.796875 
L 9.078125 -20.796875 
L 9.078125 54.6875 
L 18.109375 54.6875 
L 18.109375 46.390625 
Q 20.953125 51.265625 25.265625 53.625 
Q 29.59375 56 35.59375 56 
Q 45.5625 56 51.78125 48.09375 
Q 58.015625 40.1875 58.015625 27.296875 
Q 58.015625 14.40625 51.78125 6.484375 
Q 45.5625 -1.421875 35.59375 -1.421875 
Q 29.59375 -1.421875 25.265625 0.953125 
Q 20.953125 3.328125 18.109375 8.203125 
z
M 48.6875 27.296875 
Q 48.6875 37.203125 44.609375 42.84375 
Q 40.53125 48.484375 33.40625 48.484375 
Q 26.265625 48.484375 22.1875 42.84375 
Q 18.109375 37.203125 18.109375 27.296875 
Q 18.109375 17.390625 22.1875 11.75 
Q 26.265625 6.109375 33.40625 6.109375 
Q 40.53125 6.109375 44.609375 11.75 
Q 48.6875 17.390625 48.6875 27.296875 
z
" id="DejaVuSans-112"/>
       <path d="M 8.5 21.578125 
L 8.5 54.6875 
L 17.484375 54.6875 
L 17.484375 21.921875 
Q 17.484375 14.15625 20.5 10.265625 
Q 23.53125 6.390625 29.59375 6.390625 
Q 36.859375 6.390625 41.078125 11.03125 
Q 45.3125 15.671875 45.3125 23.6875 
L 45.3125 54.6875 
L 54.296875 54.6875 
L 54.296875 0 
L 45.3125 0 
L 45.3125 8.40625 
Q 42.046875 3.421875 37.71875 1 
Q 33.40625 -1.421875 27.6875 -1.421875 
Q 18.265625 -1.421875 13.375 4.4375 
Q 8.5 10.296875 8.5 21.578125 
z
M 31.109375 56 
z
" id="DejaVuSans-117"/>
      </defs>
      <use xlink:href="#DejaVuSans-73"/>
      <use x="29.492188" xlink:href="#DejaVuSans-110"/>
      <use x="92.871094" xlink:href="#DejaVuSans-112"/>
      <use x="156.347656" xlink:href="#DejaVuSans-117"/>
      <use x="219.726562" xlink:href="#DejaVuSans-116"/>
     </g>
    </g>
    <g id="line2d_21">
     <path d="M 153 137.360312 
L 173 137.360312 
" style="fill:none;stroke:#008000;stroke-linecap:square;stroke-width:1.5;"/>
    </g>
    <g id="line2d_22"/>
    <g id="text_20">
     <!-- Output -->
     <g transform="translate(181 140.860312)scale(0.1 -0.1)">
      <defs>
       <path d="M 39.40625 66.21875 
Q 28.65625 66.21875 22.328125 58.203125 
Q 16.015625 50.203125 16.015625 36.375 
Q 16.015625 22.609375 22.328125 14.59375 
Q 28.65625 6.59375 39.40625 6.59375 
Q 50.140625 6.59375 56.421875 14.59375 
Q 62.703125 22.609375 62.703125 36.375 
Q 62.703125 50.203125 56.421875 58.203125 
Q 50.140625 66.21875 39.40625 66.21875 
z
M 39.40625 74.21875 
Q 54.734375 74.21875 63.90625 63.9375 
Q 73.09375 53.65625 73.09375 36.375 
Q 73.09375 19.140625 63.90625 8.859375 
Q 54.734375 -1.421875 39.40625 -1.421875 
Q 24.03125 -1.421875 14.8125 8.828125 
Q 5.609375 19.09375 5.609375 36.375 
Q 5.609375 53.65625 14.8125 63.9375 
Q 24.03125 74.21875 39.40625 74.21875 
z
" id="DejaVuSans-79"/>
      </defs>
      <use xlink:href="#DejaVuSans-79"/>
      <use x="78.710938" xlink:href="#DejaVuSans-117"/>
      <use x="142.089844" xlink:href="#DejaVuSans-116"/>
      <use x="181.298828" xlink:href="#DejaVuSans-112"/>
      <use x="244.775391" xlink:href="#DejaVuSans-117"/>
      <use x="308.154297" xlink:href="#DejaVuSans-116"/>
     </g>
    </g>
    <g id="line2d_23">
     <path d="M 153 152.038437 
L 173 152.038437 
" style="fill:none;stroke:#008000;stroke-dasharray:5.55,2.4;stroke-dashoffset:0;stroke-width:1.5;"/>
    </g>
    <g id="line2d_24"/>
    <g id="text_21">
     <!-- Output fitting from transfer functions -->
     <g transform="translate(181 155.538437)scale(0.1 -0.1)">
      <defs>
       <path d="M 37.109375 75.984375 
L 37.109375 68.5 
L 28.515625 68.5 
Q 23.6875 68.5 21.796875 66.546875 
Q 19.921875 64.59375 19.921875 59.515625 
L 19.921875 54.6875 
L 34.71875 54.6875 
L 34.71875 47.703125 
L 19.921875 47.703125 
L 19.921875 0 
L 10.890625 0 
L 10.890625 47.703125 
L 2.296875 47.703125 
L 2.296875 54.6875 
L 10.890625 54.6875 
L 10.890625 58.5 
Q 10.890625 67.625 15.140625 71.796875 
Q 19.390625 75.984375 28.609375 75.984375 
z
" id="DejaVuSans-102"/>
       <path d="M 41.109375 46.296875 
Q 39.59375 47.171875 37.8125 47.578125 
Q 36.03125 48 33.890625 48 
Q 26.265625 48 22.1875 43.046875 
Q 18.109375 38.09375 18.109375 28.8125 
L 18.109375 0 
L 9.078125 0 
L 9.078125 54.6875 
L 18.109375 54.6875 
L 18.109375 46.1875 
Q 20.953125 51.171875 25.484375 53.578125 
Q 30.03125 56 36.53125 56 
Q 37.453125 56 38.578125 55.875 
Q 39.703125 55.765625 41.0625 55.515625 
z
" id="DejaVuSans-114"/>
       <path d="M 48.78125 52.59375 
L 48.78125 44.1875 
Q 44.96875 46.296875 41.140625 47.34375 
Q 37.3125 48.390625 33.40625 48.390625 
Q 24.65625 48.390625 19.8125 42.84375 
Q 14.984375 37.3125 14.984375 27.296875 
Q 14.984375 17.28125 19.8125 11.734375 
Q 24.65625 6.203125 33.40625 6.203125 
Q 37.3125 6.203125 41.140625 7.25 
Q 44.96875 8.296875 48.78125 10.40625 
L 48.78125 2.09375 
Q 45.015625 0.34375 40.984375 -0.53125 
Q 36.96875 -1.421875 32.421875 -1.421875 
Q 20.0625 -1.421875 12.78125 6.34375 
Q 5.515625 14.109375 5.515625 27.296875 
Q 5.515625 40.671875 12.859375 48.328125 
Q 20.21875 56 33.015625 56 
Q 37.15625 56 41.109375 55.140625 
Q 45.0625 54.296875 48.78125 52.59375 
z
" id="DejaVuSans-99"/>
      </defs>
      <use xlink:href="#DejaVuSans-79"/>
      <use x="78.710938" xlink:href="#DejaVuSans-117"/>
      <use x="142.089844" xlink:href="#DejaVuSans-116"/>
      <use x="181.298828" xlink:href="#DejaVuSans-112"/>
      <use x="244.775391" xlink:href="#DejaVuSans-117"/>
      <use x="308.154297" xlink:href="#DejaVuSans-116"/>
      <use x="347.363281" xlink:href="#DejaVuSans-32"/>
      <use x="379.150391" xlink:href="#DejaVuSans-102"/>
      <use x="414.355469" xlink:href="#DejaVuSans-105"/>
      <use x="442.138672" xlink:href="#DejaVuSans-116"/>
      <use x="481.347656" xlink:href="#DejaVuSans-116"/>
      <use x="520.556641" xlink:href="#DejaVuSans-105"/>
      <use x="548.339844" xlink:href="#DejaVuSans-110"/>
      <use x="611.71875" xlink:href="#DejaVuSans-103"/>
      <use x="675.195312" xlink:href="#DejaVuSans-32"/>
      <use x="706.982422" xlink:href="#DejaVuSans-102"/>
      <use x="742.1875" xlink:href="#DejaVuSans-114"/>
      <use x="781.050781" xlink:href="#DejaVuSans-111"/>
      <use x="842.232422" xlink:href="#DejaVuSans-109"/>
      <use x="939.644531" xlink:href="#DejaVuSans-32"/>
      <use x="971.431641" xlink:href="#DejaVuSans-116"/>
      <use x="1010.640625" xlink:href="#DejaVuSans-114"/>
      <use x="1051.753906" xlink:href="#DejaVuSans-97"/>
      <use x="1113.033203" xlink:href="#DejaVuSans-110"/>
      <use x="1176.412109" xlink:href="#DejaVuSans-115"/>
      <use x="1228.511719" xlink:href="#DejaVuSans-102"/>
      <use x="1263.716797" xlink:href="#DejaVuSans-101"/>
      <use x="1325.240234" xlink:href="#DejaVuSans-114"/>
      <use x="1366.353516" xlink:href="#DejaVuSans-32"/>
      <use x="1398.140625" xlink:href="#DejaVuSans-102"/>
      <use x="1433.345703" xlink:href="#DejaVuSans-117"/>
      <use x="1496.724609" xlink:href="#DejaVuSans-110"/>
      <use x="1560.103516" xlink:href="#DejaVuSans-99"/>
      <use x="1615.083984" xlink:href="#DejaVuSans-116"/>
      <use x="1654.292969" xlink:href="#DejaVuSans-105"/>
      <use x="1682.076172" xlink:href="#DejaVuSans-111"/>
      <use x="1743.257812" xlink:href="#DejaVuSans-110"/>
      <use x="1806.636719" xlink:href="#DejaVuSans-115"/>
     </g>
    </g>
    <g id="line2d_25">
     <path d="M 153 166.716563 
L 173 166.716563 
" style="fill:none;stroke:#008000;stroke-dasharray:9.6,2.4,1.5,2.4;stroke-dashoffset:0;stroke-width:1.5;"/>
    </g>
    <g id="line2d_26"/>
    <g id="text_22">
     <!-- fitting error -->
     <g transform="translate(181 170.216563)scale(0.1 -0.1)">
      <use xlink:href="#DejaVuSans-102"/>
      <use x="35.205078" xlink:href="#DejaVuSans-105"/>
      <use x="62.988281" xlink:href="#DejaVuSans-116"/>
      <use x="102.197266" xlink:href="#DejaVuSans-116"/>
      <use x="141.40625" xlink:href="#DejaVuSans-105"/>
      <use x="169.189453" xlink:href="#DejaVuSans-110"/>
      <use x="232.568359" xlink:href="#DejaVuSans-103"/>
      <use x="296.044922" xlink:href="#DejaVuSans-32"/>
      <use x="327.832031" xlink:href="#DejaVuSans-101"/>
      <use x="389.355469" xlink:href="#DejaVuSans-114"/>
      <use x="428.71875" xlink:href="#DejaVuSans-114"/>
      <use x="467.582031" xlink:href="#DejaVuSans-111"/>
      <use x="528.763672" xlink:href="#DejaVuSans-114"/>
     </g>
    </g>
   </g>
  </g>
 </g>
 <defs>
  <clipPath id="pa5e0579b0d">
   <rect height="221.76" width="892.8" x="144" y="34.56"/>
  </clipPath>
 </defs>
</svg>
