<?xml version="1.0" encoding="utf-8" standalone="no"?>
<!DOCTYPE svg PUBLIC "-//W3C//DTD SVG 1.1//EN"
  "http://www.w3.org/Graphics/SVG/1.1/DTD/svg11.dtd">
<!-- Created with matplotlib (http://matplotlib.org/) -->
<svg height="432pt" version="1.1" viewBox="0 0 864 432" width="864pt" xmlns="http://www.w3.org/2000/svg" xmlns:xlink="http://www.w3.org/1999/xlink">
 <defs>
  <style type="text/css">
*{stroke-linecap:butt;stroke-linejoin:round;}
  </style>
 </defs>
 <g id="figure_1">
  <g id="patch_1">
   <path d="M 0 432 
L 864 432 
L 864 0 
L 0 0 
z
" style="fill:#ffffff;"/>
  </g>
  <g id="axes_1">
   <g id="patch_2">
    <path d="M 108 384.48 
L 777.6 384.48 
L 777.6 51.84 
L 108 51.84 
z
" style="fill:#ffffff;"/>
   </g>
   <g id="matplotlib.axis_1">
    <g id="xtick_1">
     <g id="line2d_1">
      <defs>
       <path d="M 0 0 
L 0 3.5 
" id="m638cd2dab3" style="stroke:#000000;stroke-width:0.8;"/>
      </defs>
      <g>
       <use style="stroke:#000000;stroke-width:0.8;" x="138.436364" xlink:href="#m638cd2dab3" y="384.48"/>
      </g>
     </g>
     <g id="text_1">
      <!-- 0.0 -->
      <defs>
       <path d="M 31.78125 66.40625 
Q 24.171875 66.40625 20.328125 58.90625 
Q 16.5 51.421875 16.5 36.375 
Q 16.5 21.390625 20.328125 13.890625 
Q 24.171875 6.390625 31.78125 6.390625 
Q 39.453125 6.390625 43.28125 13.890625 
Q 47.125 21.390625 47.125 36.375 
Q 47.125 51.421875 43.28125 58.90625 
Q 39.453125 66.40625 31.78125 66.40625 
z
M 31.78125 74.21875 
Q 44.046875 74.21875 50.515625 64.515625 
Q 56.984375 54.828125 56.984375 36.375 
Q 56.984375 17.96875 50.515625 8.265625 
Q 44.046875 -1.421875 31.78125 -1.421875 
Q 19.53125 -1.421875 13.0625 8.265625 
Q 6.59375 17.96875 6.59375 36.375 
Q 6.59375 54.828125 13.0625 64.515625 
Q 19.53125 74.21875 31.78125 74.21875 
z
" id="DejaVuSans-30"/>
       <path d="M 10.6875 12.40625 
L 21 12.40625 
L 21 0 
L 10.6875 0 
z
" id="DejaVuSans-2e"/>
      </defs>
      <g transform="translate(130.484801 399.078438)scale(0.1 -0.1)">
       <use xlink:href="#DejaVuSans-30"/>
       <use x="63.623047" xlink:href="#DejaVuSans-2e"/>
       <use x="95.410156" xlink:href="#DejaVuSans-30"/>
      </g>
     </g>
    </g>
    <g id="xtick_2">
     <g id="line2d_2">
      <g>
       <use style="stroke:#000000;stroke-width:0.8;" x="272.401384" xlink:href="#m638cd2dab3" y="384.48"/>
      </g>
     </g>
     <g id="text_2">
      <!-- 0.2 -->
      <defs>
       <path d="M 19.1875 8.296875 
L 53.609375 8.296875 
L 53.609375 0 
L 7.328125 0 
L 7.328125 8.296875 
Q 12.9375 14.109375 22.625 23.890625 
Q 32.328125 33.6875 34.8125 36.53125 
Q 39.546875 41.84375 41.421875 45.53125 
Q 43.3125 49.21875 43.3125 52.78125 
Q 43.3125 58.59375 39.234375 62.25 
Q 35.15625 65.921875 28.609375 65.921875 
Q 23.96875 65.921875 18.8125 64.3125 
Q 13.671875 62.703125 7.8125 59.421875 
L 7.8125 69.390625 
Q 13.765625 71.78125 18.9375 73 
Q 24.125 74.21875 28.421875 74.21875 
Q 39.75 74.21875 46.484375 68.546875 
Q 53.21875 62.890625 53.21875 53.421875 
Q 53.21875 48.921875 51.53125 44.890625 
Q 49.859375 40.875 45.40625 35.40625 
Q 44.1875 33.984375 37.640625 27.21875 
Q 31.109375 20.453125 19.1875 8.296875 
z
" id="DejaVuSans-32"/>
      </defs>
      <g transform="translate(264.449821 399.078438)scale(0.1 -0.1)">
       <use xlink:href="#DejaVuSans-30"/>
       <use x="63.623047" xlink:href="#DejaVuSans-2e"/>
       <use x="95.410156" xlink:href="#DejaVuSans-32"/>
      </g>
     </g>
    </g>
    <g id="xtick_3">
     <g id="line2d_3">
      <g>
       <use style="stroke:#000000;stroke-width:0.8;" x="406.366404" xlink:href="#m638cd2dab3" y="384.48"/>
      </g>
     </g>
     <g id="text_3">
      <!-- 0.4 -->
      <defs>
       <path d="M 37.796875 64.3125 
L 12.890625 25.390625 
L 37.796875 25.390625 
z
M 35.203125 72.90625 
L 47.609375 72.90625 
L 47.609375 25.390625 
L 58.015625 25.390625 
L 58.015625 17.1875 
L 47.609375 17.1875 
L 47.609375 0 
L 37.796875 0 
L 37.796875 17.1875 
L 4.890625 17.1875 
L 4.890625 26.703125 
z
" id="DejaVuSans-34"/>
      </defs>
      <g transform="translate(398.414842 399.078438)scale(0.1 -0.1)">
       <use xlink:href="#DejaVuSans-30"/>
       <use x="63.623047" xlink:href="#DejaVuSans-2e"/>
       <use x="95.410156" xlink:href="#DejaVuSans-34"/>
      </g>
     </g>
    </g>
    <g id="xtick_4">
     <g id="line2d_4">
      <g>
       <use style="stroke:#000000;stroke-width:0.8;" x="540.331424" xlink:href="#m638cd2dab3" y="384.48"/>
      </g>
     </g>
     <g id="text_4">
      <!-- 0.6 -->
      <defs>
       <path d="M 33.015625 40.375 
Q 26.375 40.375 22.484375 35.828125 
Q 18.609375 31.296875 18.609375 23.390625 
Q 18.609375 15.53125 22.484375 10.953125 
Q 26.375 6.390625 33.015625 6.390625 
Q 39.65625 6.390625 43.53125 10.953125 
Q 47.40625 15.53125 47.40625 23.390625 
Q 47.40625 31.296875 43.53125 35.828125 
Q 39.65625 40.375 33.015625 40.375 
z
M 52.59375 71.296875 
L 52.59375 62.3125 
Q 48.875 64.0625 45.09375 64.984375 
Q 41.3125 65.921875 37.59375 65.921875 
Q 27.828125 65.921875 22.671875 59.328125 
Q 17.53125 52.734375 16.796875 39.40625 
Q 19.671875 43.65625 24.015625 45.921875 
Q 28.375 48.1875 33.59375 48.1875 
Q 44.578125 48.1875 50.953125 41.515625 
Q 57.328125 34.859375 57.328125 23.390625 
Q 57.328125 12.15625 50.6875 5.359375 
Q 44.046875 -1.421875 33.015625 -1.421875 
Q 20.359375 -1.421875 13.671875 8.265625 
Q 6.984375 17.96875 6.984375 36.375 
Q 6.984375 53.65625 15.1875 63.9375 
Q 23.390625 74.21875 37.203125 74.21875 
Q 40.921875 74.21875 44.703125 73.484375 
Q 48.484375 72.75 52.59375 71.296875 
z
" id="DejaVuSans-36"/>
      </defs>
      <g transform="translate(532.379862 399.078438)scale(0.1 -0.1)">
       <use xlink:href="#DejaVuSans-30"/>
       <use x="63.623047" xlink:href="#DejaVuSans-2e"/>
       <use x="95.410156" xlink:href="#DejaVuSans-36"/>
      </g>
     </g>
    </g>
    <g id="xtick_5">
     <g id="line2d_5">
      <g>
       <use style="stroke:#000000;stroke-width:0.8;" x="674.296445" xlink:href="#m638cd2dab3" y="384.48"/>
      </g>
     </g>
     <g id="text_5">
      <!-- 0.8 -->
      <defs>
       <path d="M 31.78125 34.625 
Q 24.75 34.625 20.71875 30.859375 
Q 16.703125 27.09375 16.703125 20.515625 
Q 16.703125 13.921875 20.71875 10.15625 
Q 24.75 6.390625 31.78125 6.390625 
Q 38.8125 6.390625 42.859375 10.171875 
Q 46.921875 13.96875 46.921875 20.515625 
Q 46.921875 27.09375 42.890625 30.859375 
Q 38.875 34.625 31.78125 34.625 
z
M 21.921875 38.8125 
Q 15.578125 40.375 12.03125 44.71875 
Q 8.5 49.078125 8.5 55.328125 
Q 8.5 64.0625 14.71875 69.140625 
Q 20.953125 74.21875 31.78125 74.21875 
Q 42.671875 74.21875 48.875 69.140625 
Q 55.078125 64.0625 55.078125 55.328125 
Q 55.078125 49.078125 51.53125 44.71875 
Q 48 40.375 41.703125 38.8125 
Q 48.828125 37.15625 52.796875 32.3125 
Q 56.78125 27.484375 56.78125 20.515625 
Q 56.78125 9.90625 50.3125 4.234375 
Q 43.84375 -1.421875 31.78125 -1.421875 
Q 19.734375 -1.421875 13.25 4.234375 
Q 6.78125 9.90625 6.78125 20.515625 
Q 6.78125 27.484375 10.78125 32.3125 
Q 14.796875 37.15625 21.921875 38.8125 
z
M 18.3125 54.390625 
Q 18.3125 48.734375 21.84375 45.5625 
Q 25.390625 42.390625 31.78125 42.390625 
Q 38.140625 42.390625 41.71875 45.5625 
Q 45.3125 48.734375 45.3125 54.390625 
Q 45.3125 60.0625 41.71875 63.234375 
Q 38.140625 66.40625 31.78125 66.40625 
Q 25.390625 66.40625 21.84375 63.234375 
Q 18.3125 60.0625 18.3125 54.390625 
z
" id="DejaVuSans-38"/>
      </defs>
      <g transform="translate(666.344882 399.078438)scale(0.1 -0.1)">
       <use xlink:href="#DejaVuSans-30"/>
       <use x="63.623047" xlink:href="#DejaVuSans-2e"/>
       <use x="95.410156" xlink:href="#DejaVuSans-38"/>
      </g>
     </g>
    </g>
    <g id="text_6">
     <!-- Time [s] -->
     <defs>
      <path d="M -0.296875 72.90625 
L 61.375 72.90625 
L 61.375 64.59375 
L 35.5 64.59375 
L 35.5 0 
L 25.59375 0 
L 25.59375 64.59375 
L -0.296875 64.59375 
z
" id="DejaVuSans-54"/>
      <path d="M 9.421875 54.6875 
L 18.40625 54.6875 
L 18.40625 0 
L 9.421875 0 
z
M 9.421875 75.984375 
L 18.40625 75.984375 
L 18.40625 64.59375 
L 9.421875 64.59375 
z
" id="DejaVuSans-69"/>
      <path d="M 52 44.1875 
Q 55.375 50.25 60.0625 53.125 
Q 64.75 56 71.09375 56 
Q 79.640625 56 84.28125 50.015625 
Q 88.921875 44.046875 88.921875 33.015625 
L 88.921875 0 
L 79.890625 0 
L 79.890625 32.71875 
Q 79.890625 40.578125 77.09375 44.375 
Q 74.3125 48.1875 68.609375 48.1875 
Q 61.625 48.1875 57.5625 43.546875 
Q 53.515625 38.921875 53.515625 30.90625 
L 53.515625 0 
L 44.484375 0 
L 44.484375 32.71875 
Q 44.484375 40.625 41.703125 44.40625 
Q 38.921875 48.1875 33.109375 48.1875 
Q 26.21875 48.1875 22.15625 43.53125 
Q 18.109375 38.875 18.109375 30.90625 
L 18.109375 0 
L 9.078125 0 
L 9.078125 54.6875 
L 18.109375 54.6875 
L 18.109375 46.1875 
Q 21.1875 51.21875 25.484375 53.609375 
Q 29.78125 56 35.6875 56 
Q 41.65625 56 45.828125 52.96875 
Q 50 49.953125 52 44.1875 
z
" id="DejaVuSans-6d"/>
      <path d="M 56.203125 29.59375 
L 56.203125 25.203125 
L 14.890625 25.203125 
Q 15.484375 15.921875 20.484375 11.0625 
Q 25.484375 6.203125 34.421875 6.203125 
Q 39.59375 6.203125 44.453125 7.46875 
Q 49.3125 8.734375 54.109375 11.28125 
L 54.109375 2.78125 
Q 49.265625 0.734375 44.1875 -0.34375 
Q 39.109375 -1.421875 33.890625 -1.421875 
Q 20.796875 -1.421875 13.15625 6.1875 
Q 5.515625 13.8125 5.515625 26.8125 
Q 5.515625 40.234375 12.765625 48.109375 
Q 20.015625 56 32.328125 56 
Q 43.359375 56 49.78125 48.890625 
Q 56.203125 41.796875 56.203125 29.59375 
z
M 47.21875 32.234375 
Q 47.125 39.59375 43.09375 43.984375 
Q 39.0625 48.390625 32.421875 48.390625 
Q 24.90625 48.390625 20.390625 44.140625 
Q 15.875 39.890625 15.1875 32.171875 
z
" id="DejaVuSans-65"/>
      <path id="DejaVuSans-20"/>
      <path d="M 8.59375 75.984375 
L 29.296875 75.984375 
L 29.296875 69 
L 17.578125 69 
L 17.578125 -6.203125 
L 29.296875 -6.203125 
L 29.296875 -13.1875 
L 8.59375 -13.1875 
z
" id="DejaVuSans-5b"/>
      <path d="M 44.28125 53.078125 
L 44.28125 44.578125 
Q 40.484375 46.53125 36.375 47.5 
Q 32.28125 48.484375 27.875 48.484375 
Q 21.1875 48.484375 17.84375 46.4375 
Q 14.5 44.390625 14.5 40.28125 
Q 14.5 37.15625 16.890625 35.375 
Q 19.28125 33.59375 26.515625 31.984375 
L 29.59375 31.296875 
Q 39.15625 29.25 43.1875 25.515625 
Q 47.21875 21.78125 47.21875 15.09375 
Q 47.21875 7.46875 41.1875 3.015625 
Q 35.15625 -1.421875 24.609375 -1.421875 
Q 20.21875 -1.421875 15.453125 -0.5625 
Q 10.6875 0.296875 5.421875 2 
L 5.421875 11.28125 
Q 10.40625 8.6875 15.234375 7.390625 
Q 20.0625 6.109375 24.8125 6.109375 
Q 31.15625 6.109375 34.5625 8.28125 
Q 37.984375 10.453125 37.984375 14.40625 
Q 37.984375 18.0625 35.515625 20.015625 
Q 33.0625 21.96875 24.703125 23.78125 
L 21.578125 24.515625 
Q 13.234375 26.265625 9.515625 29.90625 
Q 5.8125 33.546875 5.8125 39.890625 
Q 5.8125 47.609375 11.28125 51.796875 
Q 16.75 56 26.8125 56 
Q 31.78125 56 36.171875 55.265625 
Q 40.578125 54.546875 44.28125 53.078125 
z
" id="DejaVuSans-73"/>
      <path d="M 30.421875 75.984375 
L 30.421875 -13.1875 
L 9.71875 -13.1875 
L 9.71875 -6.203125 
L 21.390625 -6.203125 
L 21.390625 69 
L 9.71875 69 
L 9.71875 75.984375 
z
" id="DejaVuSans-5d"/>
     </defs>
     <g transform="translate(422.317187 412.756563)scale(0.1 -0.1)">
      <use xlink:href="#DejaVuSans-54"/>
      <use x="61.037109" xlink:href="#DejaVuSans-69"/>
      <use x="88.820312" xlink:href="#DejaVuSans-6d"/>
      <use x="186.232422" xlink:href="#DejaVuSans-65"/>
      <use x="247.755859" xlink:href="#DejaVuSans-20"/>
      <use x="279.542969" xlink:href="#DejaVuSans-5b"/>
      <use x="318.556641" xlink:href="#DejaVuSans-73"/>
      <use x="370.65625" xlink:href="#DejaVuSans-5d"/>
     </g>
    </g>
    <g id="text_7">
     <!-- 1e−8 -->
     <defs>
      <path d="M 12.40625 8.296875 
L 28.515625 8.296875 
L 28.515625 63.921875 
L 10.984375 60.40625 
L 10.984375 69.390625 
L 28.421875 72.90625 
L 38.28125 72.90625 
L 38.28125 8.296875 
L 54.390625 8.296875 
L 54.390625 0 
L 12.40625 0 
z
" id="DejaVuSans-31"/>
      <path d="M 10.59375 35.5 
L 73.1875 35.5 
L 73.1875 27.203125 
L 10.59375 27.203125 
z
" id="DejaVuSans-2212"/>
     </defs>
     <g transform="translate(750.342188 411.756563)scale(0.1 -0.1)">
      <use xlink:href="#DejaVuSans-31"/>
      <use x="63.623047" xlink:href="#DejaVuSans-65"/>
      <use x="125.146484" xlink:href="#DejaVuSans-2212"/>
      <use x="208.935547" xlink:href="#DejaVuSans-38"/>
     </g>
    </g>
   </g>
   <g id="matplotlib.axis_2">
    <g id="ytick_1">
     <g id="line2d_6">
      <defs>
       <path d="M 0 0 
L -3.5 0 
" id="m4b05bd9e7c" style="stroke:#000000;stroke-width:0.8;"/>
      </defs>
      <g>
       <use style="stroke:#000000;stroke-width:0.8;" x="108" xlink:href="#m4b05bd9e7c" y="368.937622"/>
      </g>
     </g>
     <g id="text_8">
      <!-- 0.0 -->
      <g transform="translate(85.096875 372.736841)scale(0.1 -0.1)">
       <use xlink:href="#DejaVuSans-30"/>
       <use x="63.623047" xlink:href="#DejaVuSans-2e"/>
       <use x="95.410156" xlink:href="#DejaVuSans-30"/>
      </g>
     </g>
    </g>
    <g id="ytick_2">
     <g id="line2d_7">
      <g>
       <use style="stroke:#000000;stroke-width:0.8;" x="108" xlink:href="#m4b05bd9e7c" y="318.698867"/>
      </g>
     </g>
     <g id="text_9">
      <!-- 0.2 -->
      <g transform="translate(85.096875 322.498086)scale(0.1 -0.1)">
       <use xlink:href="#DejaVuSans-30"/>
       <use x="63.623047" xlink:href="#DejaVuSans-2e"/>
       <use x="95.410156" xlink:href="#DejaVuSans-32"/>
      </g>
     </g>
    </g>
    <g id="ytick_3">
     <g id="line2d_8">
      <g>
       <use style="stroke:#000000;stroke-width:0.8;" x="108" xlink:href="#m4b05bd9e7c" y="268.460112"/>
      </g>
     </g>
     <g id="text_10">
      <!-- 0.4 -->
      <g transform="translate(85.096875 272.259331)scale(0.1 -0.1)">
       <use xlink:href="#DejaVuSans-30"/>
       <use x="63.623047" xlink:href="#DejaVuSans-2e"/>
       <use x="95.410156" xlink:href="#DejaVuSans-34"/>
      </g>
     </g>
    </g>
    <g id="ytick_4">
     <g id="line2d_9">
      <g>
       <use style="stroke:#000000;stroke-width:0.8;" x="108" xlink:href="#m4b05bd9e7c" y="218.221356"/>
      </g>
     </g>
     <g id="text_11">
      <!-- 0.6 -->
      <g transform="translate(85.096875 222.020575)scale(0.1 -0.1)">
       <use xlink:href="#DejaVuSans-30"/>
       <use x="63.623047" xlink:href="#DejaVuSans-2e"/>
       <use x="95.410156" xlink:href="#DejaVuSans-36"/>
      </g>
     </g>
    </g>
    <g id="ytick_5">
     <g id="line2d_10">
      <g>
       <use style="stroke:#000000;stroke-width:0.8;" x="108" xlink:href="#m4b05bd9e7c" y="167.982601"/>
      </g>
     </g>
     <g id="text_12">
      <!-- 0.8 -->
      <g transform="translate(85.096875 171.78182)scale(0.1 -0.1)">
       <use xlink:href="#DejaVuSans-30"/>
       <use x="63.623047" xlink:href="#DejaVuSans-2e"/>
       <use x="95.410156" xlink:href="#DejaVuSans-38"/>
      </g>
     </g>
    </g>
    <g id="ytick_6">
     <g id="line2d_11">
      <g>
       <use style="stroke:#000000;stroke-width:0.8;" x="108" xlink:href="#m4b05bd9e7c" y="117.743846"/>
      </g>
     </g>
     <g id="text_13">
      <!-- 1.0 -->
      <g transform="translate(85.096875 121.543065)scale(0.1 -0.1)">
       <use xlink:href="#DejaVuSans-31"/>
       <use x="63.623047" xlink:href="#DejaVuSans-2e"/>
       <use x="95.410156" xlink:href="#DejaVuSans-30"/>
      </g>
     </g>
    </g>
    <g id="ytick_7">
     <g id="line2d_12">
      <g>
       <use style="stroke:#000000;stroke-width:0.8;" x="108" xlink:href="#m4b05bd9e7c" y="67.50509"/>
      </g>
     </g>
     <g id="text_14">
      <!-- 1.2 -->
      <g transform="translate(85.096875 71.304309)scale(0.1 -0.1)">
       <use xlink:href="#DejaVuSans-31"/>
       <use x="63.623047" xlink:href="#DejaVuSans-2e"/>
       <use x="95.410156" xlink:href="#DejaVuSans-32"/>
      </g>
     </g>
    </g>
    <g id="text_15">
     <!-- Voltage [V] -->
     <defs>
      <path d="M 28.609375 0 
L 0.78125 72.90625 
L 11.078125 72.90625 
L 34.1875 11.53125 
L 57.328125 72.90625 
L 67.578125 72.90625 
L 39.796875 0 
z
" id="DejaVuSans-56"/>
      <path d="M 30.609375 48.390625 
Q 23.390625 48.390625 19.1875 42.75 
Q 14.984375 37.109375 14.984375 27.296875 
Q 14.984375 17.484375 19.15625 11.84375 
Q 23.34375 6.203125 30.609375 6.203125 
Q 37.796875 6.203125 41.984375 11.859375 
Q 46.1875 17.53125 46.1875 27.296875 
Q 46.1875 37.015625 41.984375 42.703125 
Q 37.796875 48.390625 30.609375 48.390625 
z
M 30.609375 56 
Q 42.328125 56 49.015625 48.375 
Q 55.71875 40.765625 55.71875 27.296875 
Q 55.71875 13.875 49.015625 6.21875 
Q 42.328125 -1.421875 30.609375 -1.421875 
Q 18.84375 -1.421875 12.171875 6.21875 
Q 5.515625 13.875 5.515625 27.296875 
Q 5.515625 40.765625 12.171875 48.375 
Q 18.84375 56 30.609375 56 
z
" id="DejaVuSans-6f"/>
      <path d="M 9.421875 75.984375 
L 18.40625 75.984375 
L 18.40625 0 
L 9.421875 0 
z
" id="DejaVuSans-6c"/>
      <path d="M 18.3125 70.21875 
L 18.3125 54.6875 
L 36.8125 54.6875 
L 36.8125 47.703125 
L 18.3125 47.703125 
L 18.3125 18.015625 
Q 18.3125 11.328125 20.140625 9.421875 
Q 21.96875 7.515625 27.59375 7.515625 
L 36.8125 7.515625 
L 36.8125 0 
L 27.59375 0 
Q 17.1875 0 13.234375 3.875 
Q 9.28125 7.765625 9.28125 18.015625 
L 9.28125 47.703125 
L 2.6875 47.703125 
L 2.6875 54.6875 
L 9.28125 54.6875 
L 9.28125 70.21875 
z
" id="DejaVuSans-74"/>
      <path d="M 34.28125 27.484375 
Q 23.390625 27.484375 19.1875 25 
Q 14.984375 22.515625 14.984375 16.5 
Q 14.984375 11.71875 18.140625 8.90625 
Q 21.296875 6.109375 26.703125 6.109375 
Q 34.1875 6.109375 38.703125 11.40625 
Q 43.21875 16.703125 43.21875 25.484375 
L 43.21875 27.484375 
z
M 52.203125 31.203125 
L 52.203125 0 
L 43.21875 0 
L 43.21875 8.296875 
Q 40.140625 3.328125 35.546875 0.953125 
Q 30.953125 -1.421875 24.3125 -1.421875 
Q 15.921875 -1.421875 10.953125 3.296875 
Q 6 8.015625 6 15.921875 
Q 6 25.140625 12.171875 29.828125 
Q 18.359375 34.515625 30.609375 34.515625 
L 43.21875 34.515625 
L 43.21875 35.40625 
Q 43.21875 41.609375 39.140625 45 
Q 35.0625 48.390625 27.6875 48.390625 
Q 23 48.390625 18.546875 47.265625 
Q 14.109375 46.140625 10.015625 43.890625 
L 10.015625 52.203125 
Q 14.9375 54.109375 19.578125 55.046875 
Q 24.21875 56 28.609375 56 
Q 40.484375 56 46.34375 49.84375 
Q 52.203125 43.703125 52.203125 31.203125 
z
" id="DejaVuSans-61"/>
      <path d="M 45.40625 27.984375 
Q 45.40625 37.75 41.375 43.109375 
Q 37.359375 48.484375 30.078125 48.484375 
Q 22.859375 48.484375 18.828125 43.109375 
Q 14.796875 37.75 14.796875 27.984375 
Q 14.796875 18.265625 18.828125 12.890625 
Q 22.859375 7.515625 30.078125 7.515625 
Q 37.359375 7.515625 41.375 12.890625 
Q 45.40625 18.265625 45.40625 27.984375 
z
M 54.390625 6.78125 
Q 54.390625 -7.171875 48.1875 -13.984375 
Q 42 -20.796875 29.203125 -20.796875 
Q 24.46875 -20.796875 20.265625 -20.09375 
Q 16.0625 -19.390625 12.109375 -17.921875 
L 12.109375 -9.1875 
Q 16.0625 -11.328125 19.921875 -12.34375 
Q 23.78125 -13.375 27.78125 -13.375 
Q 36.625 -13.375 41.015625 -8.765625 
Q 45.40625 -4.15625 45.40625 5.171875 
L 45.40625 9.625 
Q 42.625 4.78125 38.28125 2.390625 
Q 33.9375 0 27.875 0 
Q 17.828125 0 11.671875 7.65625 
Q 5.515625 15.328125 5.515625 27.984375 
Q 5.515625 40.671875 11.671875 48.328125 
Q 17.828125 56 27.875 56 
Q 33.9375 56 38.28125 53.609375 
Q 42.625 51.21875 45.40625 46.390625 
L 45.40625 54.6875 
L 54.390625 54.6875 
z
" id="DejaVuSans-67"/>
     </defs>
     <g transform="translate(79.017187 246.209219)rotate(-90)scale(0.1 -0.1)">
      <use xlink:href="#DejaVuSans-56"/>
      <use x="68.298828" xlink:href="#DejaVuSans-6f"/>
      <use x="129.480469" xlink:href="#DejaVuSans-6c"/>
      <use x="157.263672" xlink:href="#DejaVuSans-74"/>
      <use x="196.472656" xlink:href="#DejaVuSans-61"/>
      <use x="257.751953" xlink:href="#DejaVuSans-67"/>
      <use x="321.228516" xlink:href="#DejaVuSans-65"/>
      <use x="382.751953" xlink:href="#DejaVuSans-20"/>
      <use x="414.539062" xlink:href="#DejaVuSans-5b"/>
      <use x="453.552734" xlink:href="#DejaVuSans-56"/>
      <use x="521.960938" xlink:href="#DejaVuSans-5d"/>
     </g>
    </g>
   </g>
   <g id="line2d_13">
    <path clip-path="url(#p9ecbff35ea)" d="M 138.436364 368.937601 
L 230.488954 369.048543 
L 238.801483 369.241674 
L 239.652161 368.944315 
L 240.362913 368.458123 
L 241.019341 367.729073 
L 241.669071 366.655835 
L 242.338897 365.091258 
L 243.048911 362.830785 
L 243.81921 359.58873 
L 244.66319 355.018089 
L 245.600945 348.648613 
L 246.665967 339.804344 
L 247.911841 327.494719 
L 249.452439 309.923387 
L 251.602578 282.608199 
L 259.44489 180.812424 
L 261.581632 156.785237 
L 263.363367 139.15701 
L 264.957551 125.512767 
L 266.437864 114.688074 
L 267.851195 105.948791 
L 269.251129 98.708381 
L 270.537194 93.164535 
L 271.829956 88.523981 
L 273.122719 84.685238 
L 274.489162 81.362949 
L 275.714942 78.919838 
L 276.934023 76.910539 
L 278.266975 75.110736 
L 279.753987 73.498323 
L 281.167318 72.275009 
L 282.982544 71.052198 
L 284.978623 70.056466 
L 287.148856 69.281282 
L 289.407105 68.719361 
L 292.91029 68.175275 
L 296.788577 67.850733 
L 307.412003 67.563367 
L 313.788738 67.45234 
L 318.832521 67.152163 
L 322.583542 66.982105 
L 323.608374 67.168993 
L 324.378673 67.544528 
L 325.048498 68.130312 
L 325.711625 69.040136 
L 326.341261 70.289322 
L 327.024482 72.158455 
L 327.767988 74.895714 
L 328.558382 78.693261 
L 329.435853 84.038665 
L 330.427194 91.519718 
L 331.5525 101.810122 
L 332.838564 115.751126 
L 334.305481 134.156244 
L 336.100947 159.627971 
L 338.492223 196.977773 
L 344.66801 294.932746 
L 346.168419 314.366151 
L 347.42769 327.927902 
L 348.566392 337.896728 
L 349.63684 345.388033 
L 350.654974 351.013628 
L 351.646315 355.296024 
L 352.617562 358.547753 
L 353.58211 361.03168 
L 354.553356 362.939238 
L 355.544697 364.40895 
L 356.576228 365.547785 
L 357.681439 366.438472 
L 358.907219 367.138211 
L 360.327249 367.687303 
L 362.068794 368.113849 
L 364.372992 368.436302 
L 367.735514 368.663929 
L 373.917196 368.82218 
L 387.46106 368.919429 
L 397.72278 369.054908 
L 405.720492 369.251558 
L 406.584566 368.963786 
L 407.301279 368.488278 
L 407.957708 367.776586 
L 408.60074 366.738495 
L 409.263867 365.224777 
L 409.967183 363.03389 
L 410.730784 359.881941 
L 411.568065 355.420692 
L 412.492424 349.224294 
L 413.544049 340.57684 
L 414.769829 328.539961 
L 416.276935 311.393524 
L 418.339997 285.148798 
L 426.739604 175.645694 
L 428.763681 153.250312 
L 430.49183 136.503977 
L 432.052522 123.462222 
L 433.512741 113.060338 
L 434.926072 104.569486 
L 436.285817 97.739025 
L 437.598674 92.24818 
L 438.924928 87.656106 
L 440.184199 84.05449 
L 441.409979 81.148429 
L 442.763026 78.51617 
L 444.176357 76.299385 
L 445.609782 74.499832 
L 447.016415 73.084104 
L 448.536918 71.864558 
L 450.164593 70.841195 
L 451.865949 70.011 
L 454.317509 69.119513 
L 457.244644 68.356889 
L 460.299047 67.783162 
L 462.864477 67.510366 
L 463.976387 67.620891 
L 464.786875 67.94694 
L 465.403114 68.420692 
L 466.046146 69.201904 
L 466.662385 70.297612 
L 467.338909 71.975586 
L 468.055621 74.384283 
L 468.846015 77.880147 
L 469.723486 82.856547 
L 470.694732 89.722678 
L 471.799944 99.208257 
L 473.059215 112.003314 
L 474.552925 129.51981 
L 476.461927 154.694978 
L 479.409157 196.91608 
L 483.543384 255.666687 
L 485.499274 280.252981 
L 487.113552 297.854782 
L 488.553676 311.218166 
L 489.893326 321.65175 
L 491.17296 329.933835 
L 492.405438 336.512475 
L 493.597727 341.717913 
L 494.749826 345.792123 
L 495.855038 348.920139 
L 496.906663 351.260639 
L 497.884608 352.922273 
L 498.768777 354.009633 
L 499.545774 354.632386 
L 500.222297 354.904956 
L 500.831838 354.916996 
L 501.407888 354.705237 
L 501.997334 354.241116 
L 502.620271 353.449446 
L 503.290096 352.214334 
L 504.013507 350.382948 
L 504.790505 347.77625 
L 505.627786 344.148434 
L 506.53205 339.194672 
L 507.523391 332.466095 
L 508.635301 323.311664 
L 509.921365 310.774934 
L 511.502152 293.037564 
L 513.705877 265.552167 
L 520.866307 174.534915 
L 522.895877 152.280227 
L 524.617328 135.74198 
L 526.17802 122.810575 
L 527.638239 112.502185 
L 529.064966 104.02113 
L 530.384522 97.455678 
L 531.710775 91.953278 
L 533.043727 87.382305 
L 534.316395 83.782447 
L 535.555572 80.88342 
L 536.814843 78.452869 
L 538.08751 76.434778 
L 539.494143 74.623169 
L 540.853888 73.211962 
L 542.30071 72.006734 
L 544.182919 70.801758 
L 545.783801 70.028583 
L 547.358761 69.441543 
L 549.334745 68.89168 
L 551.216953 68.512126 
L 553.635022 68.171759 
L 557.479818 67.850733 
L 568.277398 67.556836 
L 572.577676 67.445809 
L 577.165978 67.162713 
L 581.010774 66.985371 
L 582.028908 67.171505 
L 582.799207 67.54704 
L 583.469032 68.132824 
L 584.132159 69.042648 
L 584.801984 70.386534 
L 585.478507 72.268478 
L 586.188522 74.898728 
L 587.005708 78.842219 
L 587.883179 84.224799 
L 588.881219 91.803065 
L 590.006525 102.149485 
L 591.285891 116.069639 
L 592.759506 134.609724 
L 594.561335 160.228601 
L 596.972706 197.95027 
L 603.034623 294.161405 
L 604.541729 313.792977 
L 605.807699 327.524787 
L 606.946402 337.576079 
L 608.018122 345.146625 
L 609.042954 350.862291 
L 610.034295 355.183854 
L 611.005542 358.466547 
L 611.97009 360.974466 
L 612.941336 362.900263 
L 613.925979 364.374904 
L 614.950812 365.519526 
L 616.049325 366.41628 
L 617.261708 367.118728 
L 618.668341 367.672256 
L 620.389791 368.102583 
L 622.660498 368.428346 
L 625.962736 368.659276 
L 631.937576 368.818453 
L 645.240303 368.919994 
L 692.81798 368.937596 
L 747.163636 368.937602 
L 747.163636 368.937602 
" style="fill:none;stroke:#ff0000;stroke-linecap:square;stroke-width:1.5;"/>
   </g>
   <g id="line2d_14">
    <path clip-path="url(#p9ecbff35ea)" d="M 138.436364 67.50509 
L 244.542621 67.394063 
L 249.037148 67.114484 
L 252.366178 66.975825 
L 253.437898 67.165979 
L 254.220254 67.545784 
L 254.896778 68.135838 
L 255.573301 69.063748 
L 256.249824 70.422455 
L 256.926348 72.302892 
L 257.676552 75.094659 
L 258.500437 79.104717 
L 259.4047 84.703324 
L 260.409438 92.403418 
L 261.548141 102.953054 
L 262.840903 117.112093 
L 264.334613 136.011511 
L 266.156538 162.032197 
L 268.614796 200.594009 
L 274.408783 292.619628 
L 275.942682 312.80149 
L 277.21535 326.771607 
L 278.360751 337.019534 
L 279.432471 344.70318 
L 280.457303 350.513245 
L 281.448645 354.911623 
L 282.419891 358.255929 
L 283.384439 360.812875 
L 284.355686 362.777489 
L 285.340328 364.282537 
L 286.365161 365.451153 
L 287.456976 366.362175 
L 288.663599 367.078153 
L 290.056835 367.641088 
L 291.758191 368.079592 
L 293.988708 368.411679 
L 297.203869 368.647889 
L 302.910779 368.810012 
L 315.58387 368.915844 
L 330.360211 369.070299 
L 337.942966 369.261986 
L 338.813739 368.98573 
L 339.53715 368.52103 
L 340.193579 367.827073 
L 340.836611 366.811328 
L 341.499738 365.325717 
L 342.203054 363.169402 
L 342.959956 360.089955 
L 343.790539 355.725217 
L 344.7082 349.651507 
L 345.746429 341.213642 
L 346.958812 329.430845 
L 348.445824 312.651955 
L 350.454027 287.253677 
L 359.309114 172.220039 
L 361.2784 150.786955 
L 362.979756 134.606157 
L 364.527052 121.93936 
L 365.973874 111.856115 
L 367.340317 103.812388 
L 368.666571 97.258742 
L 369.992825 91.799045 
L 371.339173 87.224556 
L 372.705616 83.427259 
L 374.071256 80.342097 
L 375.390811 77.918831 
L 376.73716 75.911039 
L 378.063413 74.306413 
L 379.516934 72.888927 
L 381.104419 71.666367 
L 382.792379 70.660336 
L 384.540622 69.867066 
L 386.931898 69.088365 
L 389.470535 68.536492 
L 391.982379 68.17829 
L 395.880761 67.851487 
L 406.718531 67.556083 
L 410.938429 67.445055 
L 418.795478 66.967033 
L 420.007861 67.076805 
L 420.851841 67.379745 
L 421.528364 67.859023 
L 422.211586 68.651539 
L 422.888109 69.837425 
L 423.557934 71.497816 
L 424.274647 73.90601 
L 425.051644 77.344351 
L 425.888926 82.080358 
L 426.833379 88.734481 
L 427.918496 98.06633 
L 429.138783 110.596629 
L 430.545416 127.446909 
L 432.226677 150.418781 
L 434.370117 182.985124 
L 438.255103 246.182791 
L 440.941101 288.06458 
L 442.548682 309.83562 
L 443.854841 324.664493 
L 445.020336 335.481475 
L 446.105453 343.566624 
L 447.136984 349.653818 
L 448.135023 354.268813 
L 449.112968 357.779896 
L 450.077516 360.447848 
L 451.042064 362.488009 
L 452.020009 364.055609 
L 453.038143 365.276395 
L 454.116561 366.2258 
L 455.295453 366.968357 
L 456.6485 367.554181 
L 458.282873 368.011701 
L 460.399521 368.360986 
L 463.413734 368.615299 
L 476.676271 369.263112 
L 478.484798 369.214064 
L 479.482838 368.969817 
L 480.286628 368.54382 
L 481.003341 367.906384 
L 481.699959 366.97563 
L 482.404682 365.642817 
L 483.141489 363.748228 
L 483.931883 361.071924 
L 484.795957 357.322967 
L 485.753807 352.125534 
L 486.825527 345.02081 
L 488.051307 335.32267 
L 489.491431 322.04831 
L 491.253339 303.618072 
L 493.637917 276.146038 
L 502.20498 175.43007 
L 504.140774 156.192243 
L 505.768449 142.134234 
L 507.215271 131.485326 
L 508.548223 123.263302 
L 509.7874 116.956605 
L 510.952896 112.139964 
L 511.997823 108.685296 
L 512.982466 106.145476 
L 513.859936 104.47353 
L 514.569951 103.56044 
L 515.166095 103.132657 
L 515.675163 103.040469 
L 516.150738 103.204248 
L 516.606219 103.606409 
L 517.121985 104.372801 
L 517.718129 105.697597 
L 518.401351 107.828474 
L 519.164951 111.018886 
L 519.988836 115.443664 
L 520.93329 121.777817 
L 521.998311 130.504163 
L 523.210695 142.369577 
L 524.610629 158.370747 
L 526.285192 180.205339 
L 528.455425 211.63699 
L 534.825462 305.853872 
L 536.218698 322.033716 
L 537.424384 333.565294 
L 538.536293 342.150368 
L 539.58122 348.568658 
L 540.592656 353.454405 
L 541.577299 357.157579 
L 542.548546 359.978653 
L 543.519792 362.139231 
L 544.497737 363.790833 
L 545.509173 365.07277 
L 546.575065 366.069552 
L 547.733863 366.850282 
L 549.053418 367.467449 
L 550.627507 367.950487 
L 552.623586 368.319647 
L 555.376567 368.587418 
L 559.830904 368.770091 
L 569.282136 368.895295 
L 590.334739 369.13778 
L 596.142123 369.298166 
L 597.07318 369.056383 
L 597.816685 368.63307 
L 598.479812 367.994229 
L 599.122844 367.055035 
L 599.779273 365.683271 
L 600.469193 363.698702 
L 601.212699 360.845345 
L 602.023187 356.807764 
L 602.920753 351.147097 
L 603.932189 343.267452 
L 605.097684 332.344869 
L 606.511015 316.865429 
L 608.366431 293.895315 
L 611.715556 249.086315 
L 615.707714 196.632608 
L 618.119084 167.768257 
L 620.028086 147.470921 
L 621.69595 132.026799 
L 623.223152 119.88364 
L 624.663276 110.158045 
L 626.043115 102.314268 
L 627.349274 96.093454 
L 628.715717 90.68902 
L 629.96829 86.590794 
L 631.294544 83.00877 
L 632.587306 80.147673 
L 633.813086 77.914309 
L 635.152737 75.916314 
L 636.485689 74.303399 
L 637.939209 72.886666 
L 639.245368 71.859535 
L 640.839552 70.859783 
L 642.487321 70.060234 
L 644.664253 69.282035 
L 646.921564 68.720115 
L 650.431447 68.174773 
L 654.303036 67.850984 
L 657.913394 67.691476 
L 664.129371 67.569396 
L 747.163636 67.50509 
L 747.163636 67.50509 
" style="fill:none;stroke:#008000;stroke-linecap:square;stroke-width:1.5;"/>
   </g>
   <g id="line2d_15">
    <path clip-path="url(#p9ecbff35ea)" d="M 138.436364 368.937622 
L 215.792991 368.826782 
L 221.761133 368.588736 
L 225.438472 368.230951 
L 228.151264 367.749028 
L 230.261213 367.157893 
L 232.069741 366.424015 
L 233.637132 365.549964 
L 235.02367 364.530205 
L 236.349923 363.274145 
L 237.555609 361.831513 
L 238.761294 360.03247 
L 239.906695 357.918912 
L 241.072927 355.274916 
L 242.218328 352.097202 
L 243.363729 348.233579 
L 244.50913 343.562577 
L 245.654531 337.954068 
L 246.860216 330.891418 
L 248.065901 322.495308 
L 249.331871 312.109804 
L 250.718409 298.789559 
L 252.225515 282.011578 
L 253.952324 260.138389 
L 256.30341 227.198059 
L 260.342456 170.398705 
L 262.150983 148.276856 
L 263.718374 131.739976 
L 265.165196 118.79595 
L 266.49145 108.834572 
L 267.75742 100.894818 
L 269.023389 94.323095 
L 270.229074 89.173306 
L 271.434759 84.949601 
L 272.640444 81.508002 
L 273.84613 78.718584 
L 275.051815 76.467506 
L 276.317784 74.576715 
L 277.583754 73.077235 
L 278.910007 71.841176 
L 280.35683 70.799816 
L 281.92422 69.949645 
L 283.672464 69.256035 
L 285.722129 68.688303 
L 288.228212 68.237637 
L 291.423278 67.90342 
L 295.884313 67.679487 
L 302.63615 67.583594 
L 309.387987 67.68857 
L 313.24618 67.951684 
L 315.838403 68.340595 
L 317.767499 68.841561 
L 319.395174 69.492355 
L 320.781712 70.290203 
L 321.987397 71.237643 
L 323.132798 72.430166 
L 324.217915 73.902309 
L 325.242747 75.683732 
L 326.26758 77.943821 
L 327.232128 80.613335 
L 328.196676 83.927087 
L 329.161224 88.019019 
L 330.186057 93.387506 
L 331.210889 99.998467 
L 332.296006 108.572092 
L 333.381122 118.975021 
L 334.526523 132.115407 
L 335.802004 149.42892 
L 337.266443 172.539977 
L 339.255824 207.903017 
L 342.752311 270.370628 
L 344.319701 294.044185 
L 345.645955 310.856122 
L 346.85164 323.501082 
L 347.997041 333.328258 
L 349.142442 341.259757 
L 350.253079 347.396434 
L 351.338196 352.15631 
L 352.423312 355.913316 
L 353.508429 358.858934 
L 354.593546 361.156274 
L 355.678662 362.940658 
L 356.824063 364.388997 
L 358.029748 365.541557 
L 359.295718 366.441284 
L 360.682256 367.156979 
L 362.309931 367.740498 
L 364.239027 368.189549 
L 366.710682 368.526435 
L 370.146885 368.75357 
L 375.591759 368.865382 
L 383.730134 368.804011 
L 389.216001 368.567387 
L 392.772773 368.20336 
L 395.364996 367.726751 
L 397.474945 367.118964 
L 399.223188 366.391779 
L 400.790579 365.498409 
L 402.177117 364.453842 
L 403.443087 363.230527 
L 404.648772 361.763873 
L 405.854457 359.931773 
L 406.999858 357.775986 
L 408.145259 355.128518 
L 409.29066 351.889963 
L 410.436061 347.947317 
L 411.581461 343.175448 
L 412.726862 337.440595 
L 413.932548 330.213996 
L 415.138233 321.61999 
L 416.404202 310.990488 
L 417.79074 297.366184 
L 419.297847 280.230594 
L 421.04609 257.659957 
L 423.517745 222.496393 
L 427.1348 171.28007 
L 428.978025 148.481165 
L 430.545416 131.792854 
L 431.992238 118.747257 
L 433.318492 108.723921 
L 434.584461 100.749324 
L 435.850431 94.162255 
L 437.056116 89.012141 
L 438.261801 84.798824 
L 439.467486 81.375825 
L 440.673171 78.611473 
L 441.878857 76.39094 
L 443.084542 74.616404 
L 444.350511 73.143885 
L 445.676765 71.947915 
L 447.063303 71.001487 
L 448.510125 70.278982 
L 450.077516 69.742594 
L 451.765475 69.401956 
L 453.513719 69.276472 
L 455.261962 69.375042 
L 456.889637 69.685533 
L 458.396744 70.19623 
L 459.783281 70.901743 
L 461.049251 71.794729 
L 462.254936 72.923508 
L 463.366846 74.264899 
L 464.451962 75.917616 
L 465.537079 77.986445 
L 466.622196 80.56258 
L 467.707312 83.753417 
L 468.792429 87.682755 
L 469.877546 92.489443 
L 470.962662 98.323593 
L 472.108063 105.766862 
L 473.253464 114.698614 
L 474.459149 125.862953 
L 475.785403 140.337766 
L 477.232225 158.703205 
L 478.980469 183.977088 
L 481.959382 231.104197 
L 484.380666 267.851056 
L 486.008341 289.398693 
L 487.455163 305.706749 
L 488.781417 318.16584 
L 489.996814 327.554014 
L 491.159564 334.85193 
L 492.24468 340.318937 
L 493.269513 344.416126 
L 494.234061 347.425863 
L 495.138325 349.576183 
L 495.982305 351.04908 
L 496.766 351.989706 
L 497.489411 352.514754 
L 498.152538 352.7194 
L 498.75538 352.682664 
L 499.418507 352.401628 
L 500.081634 351.87028 
L 500.805045 351.003881 
L 501.588741 349.721717 
L 502.493005 347.783505 
L 503.457553 345.146849 
L 504.482385 341.658202 
L 505.567502 337.13119 
L 506.712903 331.342937 
L 507.918588 324.034696 
L 509.184557 314.920787 
L 510.510811 303.711338 
L 511.957633 289.523593 
L 513.585308 271.254615 
L 515.574689 246.205058 
L 522.748516 153.087042 
L 524.376191 136.182041 
L 525.883297 122.755963 
L 527.269835 112.286447 
L 528.596089 103.858735 
L 529.922342 96.835613 
L 531.188312 91.287333 
L 532.454281 86.714422 
L 533.720251 82.97178 
L 534.98622 79.926219 
L 536.25219 77.45948 
L 537.518159 75.469122 
L 538.844413 73.800233 
L 540.230951 72.421948 
L 541.677773 71.300321 
L 543.245164 70.369346 
L 544.993407 69.595963 
L 546.956866 68.972503 
L 549.307952 68.465341 
L 552.201596 68.076215 
L 556.059789 67.796471 
L 561.425088 67.647085 
L 567.393229 67.695093 
L 571.37199 67.931553 
L 574.024498 68.299716 
L 576.013878 68.788479 
L 577.641553 69.410013 
L 579.028091 70.172953 
L 580.233777 71.079657 
L 581.379177 72.221622 
L 582.464294 73.63219 
L 583.489127 75.340158 
L 584.513959 77.508564 
L 585.478507 80.071835 
L 586.443055 83.256685 
L 587.407603 87.193891 
L 588.432436 92.366722 
L 589.457268 98.748065 
L 590.482101 106.536313 
L 591.567217 116.523232 
L 592.712618 129.195499 
L 593.978588 145.854746 
L 595.365126 167.146116 
L 597.173653 198.643936 
L 601.51412 275.825798 
L 603.021227 297.846824 
L 604.34748 314.015825 
L 605.553165 326.096769 
L 606.698566 335.438162 
L 607.783683 342.593432 
L 608.8688 348.337886 
L 609.953916 352.902753 
L 611.039033 356.500851 
L 612.12415 359.318776 
L 613.209266 361.514615 
L 614.294383 363.219 
L 615.439784 364.601663 
L 616.645469 365.701503 
L 617.911439 366.559829 
L 619.358261 367.267294 
L 621.04622 367.832302 
L 623.095885 368.268682 
L 625.748392 368.588655 
L 629.546301 368.800283 
L 636.117285 368.910287 
L 656.85507 368.937455 
L 740.107632 368.937622 
L 740.107632 368.937622 
" style="fill:none;stroke:#ff0000;stroke-dasharray:5.55,2.4;stroke-dashoffset:0;stroke-width:1.5;"/>
   </g>
   <g id="line2d_16">
    <path clip-path="url(#p9ecbff35ea)" d="M 138.436364 67.50509 
L 237.495324 67.616002 
L 242.158044 67.853111 
L 245.051688 68.212223 
L 247.161637 68.690029 
L 248.849597 69.29458 
L 250.296419 70.050976 
L 251.562388 70.967959 
L 252.707789 72.074924 
L 253.771471 73.411341 
L 254.796304 75.058019 
L 255.821136 77.148815 
L 256.785684 79.620959 
L 257.750232 82.693842 
L 258.714781 86.49493 
L 259.739613 91.493258 
L 260.764445 97.666708 
L 261.789278 105.212989 
L 262.874395 114.90952 
L 264.019795 127.246857 
L 265.225481 142.687075 
L 266.612019 163.460534 
L 268.299978 192.317033 
L 273.42414 282.448946 
L 274.870962 302.610686 
L 276.136932 317.288858 
L 277.342617 328.754377 
L 278.488018 337.576722 
L 279.573134 344.309684 
L 280.658251 349.700075 
L 281.743368 353.974409 
L 282.828484 357.33805 
L 283.913601 359.969201 
L 284.998718 362.017729 
L 286.083834 363.606814 
L 287.229235 364.895411 
L 288.469349 365.945275 
L 289.795603 366.770289 
L 291.30271 367.436519 
L 293.050953 367.9577 
L 295.221186 368.360149 
L 298.054547 368.6464 
L 302.21416 368.825127 
L 309.387987 368.88395 
L 317.827784 368.751848 
L 322.59024 368.476097 
L 325.785306 368.083258 
L 328.25696 367.562007 
L 330.246341 366.920551 
L 331.9343 366.148662 
L 333.441407 365.215983 
L 334.827945 364.089117 
L 336.121042 362.738995 
L 337.326727 361.15226 
L 338.472128 359.282397 
L 339.617529 356.981719 
L 340.76293 354.160588 
L 341.908331 350.71568 
L 343.053732 346.53045 
L 344.199133 341.477156 
L 345.344534 335.421129 
L 346.550219 327.815471 
L 347.816188 318.317415 
L 349.142442 306.571296 
L 350.5545 291.977888 
L 352.121891 273.35599 
L 353.990703 248.370291 
L 361.043961 151.006856 
L 362.611352 133.978458 
L 364.058174 120.605596 
L 365.384428 110.292273 
L 366.650397 102.061462 
L 367.916367 95.244176 
L 369.122052 89.900804 
L 370.327737 85.518983 
L 371.533422 81.950109 
L 372.739108 79.059475 
L 373.964084 76.695394 
L 375.169769 74.829481 
L 376.435738 73.268551 
L 377.761992 71.983427 
L 379.14853 70.941677 
L 380.655637 70.079942 
L 382.343596 69.367144 
L 384.332976 68.775146 
L 386.684062 68.313069 
L 389.698275 67.958716 
L 393.797605 67.717274 
L 399.765747 67.60479 
L 406.095594 67.691714 
L 409.953787 67.94682 
L 412.54601 68.32812 
L 414.53539 68.840029 
L 416.163065 69.489971 
L 417.549603 70.287258 
L 418.755288 71.234438 
L 419.900689 72.427046 
L 420.985806 73.899736 
L 422.010638 75.682302 
L 423.035471 77.944407 
L 424.000019 80.616918 
L 424.964567 83.935093 
L 425.929115 88.033298 
L 426.953948 93.411011 
L 427.97878 100.034428 
L 429.038309 108.402449 
L 430.123426 118.781972 
L 431.268827 131.899684 
L 432.534796 149.054276 
L 433.981619 171.838051 
L 435.910715 206.057275 
L 439.52777 270.754433 
L 441.034877 293.552122 
L 442.361131 310.45623 
L 443.566816 323.177273 
L 444.712217 333.066178 
L 445.857618 341.047792 
L 446.942734 347.095559 
L 448.027851 351.908714 
L 449.112968 355.705477 
L 450.1378 358.532419 
L 451.222917 360.87994 
L 452.308033 362.698412 
L 453.39315 364.100157 
L 454.538551 365.226775 
L 455.744236 366.110264 
L 457.07049 366.810277 
L 458.577596 367.349007 
L 460.32584 367.725697 
L 462.31522 367.920492 
L 464.572531 367.913881 
L 466.923617 367.682909 
L 469.09385 367.253244 
L 471.083231 366.633172 
L 472.831474 365.854609 
L 474.398865 364.913197 
L 475.845687 363.781354 
L 477.171941 362.464268 
L 478.437911 360.89784 
L 479.70388 358.961695 
L 480.909565 356.701522 
L 482.089864 354.017486 
L 483.295549 350.704221 
L 484.501234 346.71157 
L 485.70692 341.927674 
L 486.912605 336.234714 
L 488.178574 329.149609 
L 489.504828 320.374844 
L 490.858142 309.876386 
L 492.304965 296.852877 
L 493.872355 280.678066 
L 495.680883 259.639778 
L 498.212822 227.269639 
L 502.312152 174.803879 
L 504.180964 153.87185 
L 505.748355 138.677746 
L 507.134892 127.247718 
L 508.400862 118.515814 
L 509.606547 111.708729 
L 510.691664 106.821009 
L 511.656212 103.444781 
L 512.500192 101.230226 
L 513.223603 99.880301 
L 513.886729 99.090075 
L 514.429288 98.765487 
L 514.911562 98.724101 
L 515.393836 98.919654 
L 515.87611 99.357278 
L 516.418668 100.146527 
L 517.081795 101.552284 
L 517.805206 103.66239 
L 518.588902 106.661323 
L 519.493166 111.095333 
L 520.457714 117.042842 
L 521.482546 124.814298 
L 522.627947 135.337726 
L 523.893917 149.235555 
L 525.280454 167.030191 
L 527.028698 192.607112 
L 533.298261 287.69242 
L 534.805367 305.500149 
L 536.131621 318.669446 
L 537.397591 329.117343 
L 538.603276 337.301443 
L 539.808961 343.966918 
L 540.954362 349.091218 
L 542.099763 353.224824 
L 543.245164 356.536137 
L 544.390565 359.173955 
L 545.535966 361.265909 
L 546.715728 362.962864 
L 547.921414 364.316136 
L 549.187383 365.412436 
L 550.573921 366.319651 
L 552.141312 367.068892 
L 553.889555 367.655164 
L 555.999504 368.123044 
L 558.652012 368.475127 
L 562.269067 368.717184 
L 567.694651 368.838588 
L 575.04933 368.779439 
L 580.233777 368.537533 
L 583.669979 368.166676 
L 586.262202 367.66858 
L 588.311867 367.055432 
L 590.060111 366.304654 
L 591.567217 365.423534 
L 592.953755 364.358416 
L 594.219725 363.111639 
L 595.42541 361.6176 
L 596.631095 359.752283 
L 597.776496 357.558652 
L 598.921897 354.866341 
L 600.067298 351.575131 
L 601.212699 347.571345 
L 602.3581 342.729458 
L 603.503501 336.91578 
L 604.709186 329.597536 
L 605.914871 320.90497 
L 607.18084 310.168269 
L 608.567378 296.428954 
L 610.074485 279.182367 
L 611.822728 256.51935 
L 614.354667 220.446366 
L 617.79087 171.876077 
L 619.599398 149.428264 
L 621.166789 132.621776 
L 622.613611 119.458526 
L 623.939864 109.328187 
L 625.205834 101.256819 
L 626.471803 94.580674 
L 627.677488 89.353738 
L 628.883174 85.071254 
L 630.088859 81.585891 
L 631.294544 78.764641 
L 632.500229 76.490984 
L 633.705914 74.665121 
L 634.971884 73.138167 
L 636.298138 71.881345 
L 637.74496 70.824234 
L 639.312351 69.962768 
L 641.060594 69.261339 
L 643.110259 68.688462 
L 645.581913 68.239611 
L 648.776979 67.901292 
L 653.238014 67.672297 
L 660.652978 67.544914 
L 680.185078 67.505999 
L 740.107632 67.505091 
L 740.107632 67.505091 
" style="fill:none;stroke:#008000;stroke-dasharray:5.55,2.4;stroke-dashoffset:0;stroke-width:1.5;"/>
   </g>
   <g id="patch_3">
    <path d="M 108 384.48 
L 108 51.84 
" style="fill:none;stroke:#000000;stroke-linecap:square;stroke-linejoin:miter;stroke-width:0.8;"/>
   </g>
   <g id="patch_4">
    <path d="M 777.6 384.48 
L 777.6 51.84 
" style="fill:none;stroke:#000000;stroke-linecap:square;stroke-linejoin:miter;stroke-width:0.8;"/>
   </g>
   <g id="patch_5">
    <path d="M 108 384.48 
L 777.6 384.48 
" style="fill:none;stroke:#000000;stroke-linecap:square;stroke-linejoin:miter;stroke-width:0.8;"/>
   </g>
   <g id="patch_6">
    <path d="M 108 51.84 
L 777.6 51.84 
" style="fill:none;stroke:#000000;stroke-linecap:square;stroke-linejoin:miter;stroke-width:0.8;"/>
   </g>
   <g id="text_16">
    <!-- In  RMSE: 0.01165 -->
    <defs>
     <path d="M 9.8125 72.90625 
L 50.296875 72.90625 
L 50.296875 64.59375 
L 35.015625 64.59375 
L 35.015625 8.296875 
L 50.296875 8.296875 
L 50.296875 0 
L 9.8125 0 
L 9.8125 8.296875 
L 25.09375 8.296875 
L 25.09375 64.59375 
L 9.8125 64.59375 
z
" id="DejaVuSansMono-49"/>
     <path d="M 51.3125 33.890625 
L 51.3125 0 
L 42.28125 0 
L 42.28125 33.890625 
Q 42.28125 41.265625 39.6875 44.71875 
Q 37.109375 48.1875 31.59375 48.1875 
Q 25.296875 48.1875 21.890625 43.71875 
Q 18.5 39.265625 18.5 30.90625 
L 18.5 0 
L 9.515625 0 
L 9.515625 54.6875 
L 18.5 54.6875 
L 18.5 46.484375 
Q 20.90625 51.171875 25 53.578125 
Q 29.109375 56 34.71875 56 
Q 43.0625 56 47.1875 50.5 
Q 51.3125 45.015625 51.3125 33.890625 
z
" id="DejaVuSansMono-6e"/>
     <path id="DejaVuSansMono-20"/>
     <path d="M 37.109375 34.421875 
Q 40.921875 33.453125 43.609375 30.734375 
Q 46.296875 28.03125 50.296875 19.921875 
L 60.203125 0 
L 49.609375 0 
L 40.921875 18.40625 
Q 37.15625 26.265625 34.15625 28.53125 
Q 31.15625 30.8125 26.3125 30.8125 
L 16.890625 30.8125 
L 16.890625 0 
L 6.984375 0 
L 6.984375 72.90625 
L 27.296875 72.90625 
Q 39.3125 72.90625 45.703125 67.484375 
Q 52.09375 62.0625 52.09375 51.8125 
Q 52.09375 44.578125 48.15625 40.015625 
Q 44.234375 35.453125 37.109375 34.421875 
z
M 16.890625 64.796875 
L 16.890625 38.921875 
L 27.6875 38.921875 
Q 34.765625 38.921875 38.234375 42.09375 
Q 41.703125 45.265625 41.703125 51.8125 
Q 41.703125 58.109375 38.015625 61.453125 
Q 34.328125 64.796875 27.296875 64.796875 
z
" id="DejaVuSansMono-52"/>
     <path d="M 4.203125 72.90625 
L 17.390625 72.90625 
L 29.984375 35.796875 
L 42.671875 72.90625 
L 55.90625 72.90625 
L 55.90625 0 
L 46.78125 0 
L 46.78125 64.40625 
L 33.796875 25.984375 
L 26.3125 25.984375 
L 13.28125 64.40625 
L 13.28125 0 
L 4.203125 0 
z
" id="DejaVuSansMono-4d"/>
     <path d="M 49.421875 70.40625 
L 49.421875 60.40625 
Q 44.921875 63.28125 40.40625 64.75 
Q 35.890625 66.21875 31.296875 66.21875 
Q 24.3125 66.21875 20.265625 62.96875 
Q 16.21875 59.71875 16.21875 54.203125 
Q 16.21875 49.359375 18.875 46.8125 
Q 21.53125 44.28125 28.8125 42.578125 
L 33.984375 41.40625 
Q 44.234375 39.015625 48.921875 33.890625 
Q 53.609375 28.765625 53.609375 19.921875 
Q 53.609375 9.515625 47.15625 4.046875 
Q 40.71875 -1.421875 28.421875 -1.421875 
Q 23.296875 -1.421875 18.109375 -0.3125 
Q 12.9375 0.78125 7.71875 2.984375 
L 7.71875 13.484375 
Q 13.328125 9.90625 18.328125 8.25 
Q 23.34375 6.59375 28.421875 6.59375 
Q 35.890625 6.59375 40.03125 9.9375 
Q 44.1875 13.28125 44.1875 19.28125 
Q 44.1875 24.75 41.328125 27.625 
Q 38.484375 30.515625 31.390625 32.078125 
L 26.125 33.296875 
Q 15.96875 35.59375 11.375 40.234375 
Q 6.78125 44.875 6.78125 52.6875 
Q 6.78125 62.453125 13.34375 68.328125 
Q 19.921875 74.21875 30.8125 74.21875 
Q 35.015625 74.21875 39.640625 73.265625 
Q 44.28125 72.3125 49.421875 70.40625 
z
" id="DejaVuSansMono-53"/>
     <path d="M 9.625 72.90625 
L 52.875 72.90625 
L 52.875 64.59375 
L 19.484375 64.59375 
L 19.484375 43.015625 
L 51.421875 43.015625 
L 51.421875 34.71875 
L 19.484375 34.71875 
L 19.484375 8.296875 
L 53.8125 8.296875 
L 53.8125 0 
L 9.625 0 
z
" id="DejaVuSansMono-45"/>
     <path d="M 23.875 51.90625 
L 36.1875 51.90625 
L 36.1875 37.109375 
L 23.875 37.109375 
z
M 23.875 14.890625 
L 36.1875 14.890625 
L 36.1875 0 
L 23.875 0 
z
" id="DejaVuSansMono-3a"/>
     <path d="M 23.578125 36.625 
Q 23.578125 39.3125 25.453125 41.265625 
Q 27.34375 43.21875 29.984375 43.21875 
Q 32.71875 43.21875 34.671875 41.265625 
Q 36.625 39.3125 36.625 36.625 
Q 36.625 33.890625 34.6875 31.984375 
Q 32.765625 30.078125 29.984375 30.078125 
Q 27.25 30.078125 25.40625 31.9375 
Q 23.578125 33.796875 23.578125 36.625 
z
M 30.078125 66.40625 
Q 23.1875 66.40625 19.796875 58.984375 
Q 16.40625 51.5625 16.40625 36.375 
Q 16.40625 21.234375 19.796875 13.8125 
Q 23.1875 6.390625 30.078125 6.390625 
Q 37.015625 6.390625 40.40625 13.8125 
Q 43.796875 21.234375 43.796875 36.375 
Q 43.796875 51.5625 40.40625 58.984375 
Q 37.015625 66.40625 30.078125 66.40625 
z
M 30.078125 74.21875 
Q 41.75 74.21875 47.734375 64.640625 
Q 53.71875 55.078125 53.71875 36.375 
Q 53.71875 17.71875 47.734375 8.140625 
Q 41.75 -1.421875 30.078125 -1.421875 
Q 18.40625 -1.421875 12.453125 8.140625 
Q 6.5 17.71875 6.5 36.375 
Q 6.5 55.078125 12.453125 64.640625 
Q 18.40625 74.21875 30.078125 74.21875 
z
" id="DejaVuSansMono-30"/>
     <path d="M 23.875 14.890625 
L 36.1875 14.890625 
L 36.1875 0 
L 23.875 0 
z
" id="DejaVuSansMono-2e"/>
     <path d="M 13.1875 8.296875 
L 28.515625 8.296875 
L 28.515625 64.015625 
L 12.015625 60.296875 
L 12.015625 69.28125 
L 28.421875 72.90625 
L 38.28125 72.90625 
L 38.28125 8.296875 
L 53.421875 8.296875 
L 53.421875 0 
L 13.1875 0 
z
" id="DejaVuSansMono-31"/>
     <path d="M 48.390625 71.296875 
L 48.390625 62.203125 
Q 45.3125 64.015625 41.84375 64.96875 
Q 38.375 65.921875 34.625 65.921875 
Q 25.25 65.921875 20.40625 58.859375 
Q 15.578125 51.8125 15.578125 38.09375 
Q 17.921875 42.96875 22.0625 45.578125 
Q 26.21875 48.1875 31.59375 48.1875 
Q 42.140625 48.1875 47.921875 41.71875 
Q 53.71875 35.25 53.71875 23.390625 
Q 53.71875 11.578125 47.75 5.078125 
Q 41.796875 -1.421875 31 -1.421875 
Q 18.3125 -1.421875 12.40625 7.6875 
Q 6.5 16.796875 6.5 36.375 
Q 6.5 54.828125 13.59375 64.515625 
Q 20.703125 74.21875 34.1875 74.21875 
Q 37.796875 74.21875 41.40625 73.453125 
Q 45.015625 72.703125 48.390625 71.296875 
z
M 30.8125 40.484375 
Q 24.515625 40.484375 20.890625 35.9375 
Q 17.28125 31.390625 17.28125 23.390625 
Q 17.28125 15.375 20.890625 10.828125 
Q 24.515625 6.296875 30.8125 6.296875 
Q 37.359375 6.296875 40.671875 10.609375 
Q 44 14.9375 44 23.390625 
Q 44 31.890625 40.671875 36.1875 
Q 37.359375 40.484375 30.8125 40.484375 
z
" id="DejaVuSansMono-36"/>
     <path d="M 10.109375 72.90625 
L 47.015625 72.90625 
L 47.015625 64.59375 
L 19.09375 64.59375 
L 19.09375 46.6875 
Q 21.1875 47.46875 23.3125 47.828125 
Q 25.4375 48.1875 27.59375 48.1875 
Q 38.921875 48.1875 45.5625 41.5 
Q 52.203125 34.8125 52.203125 23.390625 
Q 52.203125 11.859375 45.234375 5.21875 
Q 38.28125 -1.421875 26.21875 -1.421875 
Q 20.40625 -1.421875 15.59375 -0.640625 
Q 10.796875 0.140625 6.984375 1.703125 
L 6.984375 11.71875 
Q 11.46875 9.28125 16.015625 8.078125 
Q 20.5625 6.890625 25.296875 6.890625 
Q 33.453125 6.890625 37.859375 11.1875 
Q 42.28125 15.484375 42.28125 23.390625 
Q 42.28125 31.203125 37.71875 35.546875 
Q 33.15625 39.890625 25 39.890625 
Q 21.046875 39.890625 17.28125 38.984375 
Q 13.53125 38.09375 10.109375 36.28125 
z
" id="DejaVuSansMono-35"/>
    </defs>
    <g transform="translate(138.436364 282.317927)scale(0.1 -0.1)">
     <use xlink:href="#DejaVuSansMono-49"/>
     <use x="60.205078" xlink:href="#DejaVuSansMono-6e"/>
     <use x="120.410156" xlink:href="#DejaVuSansMono-20"/>
     <use x="180.615234" xlink:href="#DejaVuSansMono-20"/>
     <use x="240.820312" xlink:href="#DejaVuSansMono-52"/>
     <use x="301.025391" xlink:href="#DejaVuSansMono-4d"/>
     <use x="361.230469" xlink:href="#DejaVuSansMono-53"/>
     <use x="421.435547" xlink:href="#DejaVuSansMono-45"/>
     <use x="481.640625" xlink:href="#DejaVuSansMono-3a"/>
     <use x="541.845703" xlink:href="#DejaVuSansMono-20"/>
     <use x="602.050781" xlink:href="#DejaVuSansMono-30"/>
     <use x="662.255859" xlink:href="#DejaVuSansMono-2e"/>
     <use x="722.460938" xlink:href="#DejaVuSansMono-30"/>
     <use x="782.666016" xlink:href="#DejaVuSansMono-31"/>
     <use x="842.871094" xlink:href="#DejaVuSansMono-31"/>
     <use x="903.076172" xlink:href="#DejaVuSansMono-36"/>
     <use x="963.28125" xlink:href="#DejaVuSansMono-35"/>
    </g>
    <!-- Out RMSE: 0.01216 -->
    <defs>
     <path d="M 44.1875 36.375 
Q 44.1875 52.4375 40.890625 59.328125 
Q 37.59375 66.21875 30.078125 66.21875 
Q 22.609375 66.21875 19.3125 59.328125 
Q 16.015625 52.4375 16.015625 36.375 
Q 16.015625 20.359375 19.3125 13.46875 
Q 22.609375 6.59375 30.078125 6.59375 
Q 37.59375 6.59375 40.890625 13.453125 
Q 44.1875 20.3125 44.1875 36.375 
z
M 54.5 36.375 
Q 54.5 17.328125 48.46875 7.953125 
Q 42.4375 -1.421875 30.078125 -1.421875 
Q 17.71875 -1.421875 11.71875 7.90625 
Q 5.71875 17.234375 5.71875 36.375 
Q 5.71875 55.46875 11.75 64.84375 
Q 17.78125 74.21875 30.078125 74.21875 
Q 42.4375 74.21875 48.46875 64.84375 
Q 54.5 55.46875 54.5 36.375 
z
" id="DejaVuSansMono-4f"/>
     <path d="M 9.515625 20.703125 
L 9.515625 54.59375 
L 18.5 54.59375 
L 18.5 20.703125 
Q 18.5 13.328125 21.109375 9.859375 
Q 23.734375 6.390625 29.203125 6.390625 
Q 35.546875 6.390625 38.90625 10.859375 
Q 42.28125 15.328125 42.28125 23.6875 
L 42.28125 54.59375 
L 51.3125 54.59375 
L 51.3125 0 
L 42.28125 0 
L 42.28125 8.203125 
Q 39.890625 3.46875 35.765625 1.015625 
Q 31.640625 -1.421875 26.125 -1.421875 
Q 17.71875 -1.421875 13.609375 4.078125 
Q 9.515625 9.578125 9.515625 20.703125 
z
" id="DejaVuSansMono-75"/>
     <path d="M 29.984375 70.21875 
L 29.984375 54.6875 
L 50.390625 54.6875 
L 50.390625 47.703125 
L 29.984375 47.703125 
L 29.984375 18.015625 
Q 29.984375 11.96875 32.28125 9.5625 
Q 34.578125 7.171875 40.28125 7.171875 
L 50.390625 7.171875 
L 50.390625 0 
L 39.40625 0 
Q 29.296875 0 25.140625 4.046875 
Q 21 8.109375 21 18.015625 
L 21 47.703125 
L 6.390625 47.703125 
L 6.390625 54.6875 
L 21 54.6875 
L 21 70.21875 
z
" id="DejaVuSansMono-74"/>
     <path d="M 18.21875 8.296875 
L 51.703125 8.296875 
L 51.703125 0 
L 7.421875 0 
L 7.421875 8.296875 
Q 16.546875 17.921875 23.375 25.296875 
Q 30.21875 32.671875 32.8125 35.6875 
Q 37.703125 41.65625 39.40625 45.34375 
Q 41.109375 49.03125 41.109375 52.875 
Q 41.109375 58.984375 37.515625 62.453125 
Q 33.9375 65.921875 27.6875 65.921875 
Q 23.25 65.921875 18.359375 64.3125 
Q 13.484375 62.703125 8.015625 59.421875 
L 8.015625 69.390625 
Q 13.03125 71.78125 17.890625 73 
Q 22.75 74.21875 27.484375 74.21875 
Q 38.1875 74.21875 44.703125 68.53125 
Q 51.21875 62.84375 51.21875 53.609375 
Q 51.21875 48.921875 49.046875 44.234375 
Q 46.875 39.546875 42 33.890625 
Q 39.265625 30.71875 34.0625 25.09375 
Q 28.859375 19.484375 18.21875 8.296875 
z
" id="DejaVuSansMono-32"/>
    </defs>
    <g transform="translate(138.436364 293.579489)scale(0.1 -0.1)">
     <use xlink:href="#DejaVuSansMono-4f"/>
     <use x="60.205078" xlink:href="#DejaVuSansMono-75"/>
     <use x="120.410156" xlink:href="#DejaVuSansMono-74"/>
     <use x="180.615234" xlink:href="#DejaVuSansMono-20"/>
     <use x="240.820312" xlink:href="#DejaVuSansMono-52"/>
     <use x="301.025391" xlink:href="#DejaVuSansMono-4d"/>
     <use x="361.230469" xlink:href="#DejaVuSansMono-53"/>
     <use x="421.435547" xlink:href="#DejaVuSansMono-45"/>
     <use x="481.640625" xlink:href="#DejaVuSansMono-3a"/>
     <use x="541.845703" xlink:href="#DejaVuSansMono-20"/>
     <use x="602.050781" xlink:href="#DejaVuSansMono-30"/>
     <use x="662.255859" xlink:href="#DejaVuSansMono-2e"/>
     <use x="722.460938" xlink:href="#DejaVuSansMono-30"/>
     <use x="782.666016" xlink:href="#DejaVuSansMono-31"/>
     <use x="842.871094" xlink:href="#DejaVuSansMono-32"/>
     <use x="903.076172" xlink:href="#DejaVuSansMono-31"/>
     <use x="963.28125" xlink:href="#DejaVuSansMono-36"/>
    </g>
   </g>
   <g id="text_17">
    <!-- inv_t4_invSim_520_200Traces -->
    <defs>
     <path d="M 54.890625 33.015625 
L 54.890625 0 
L 45.90625 0 
L 45.90625 32.71875 
Q 45.90625 40.484375 42.875 44.328125 
Q 39.84375 48.1875 33.796875 48.1875 
Q 26.515625 48.1875 22.3125 43.546875 
Q 18.109375 38.921875 18.109375 30.90625 
L 18.109375 0 
L 9.078125 0 
L 9.078125 54.6875 
L 18.109375 54.6875 
L 18.109375 46.1875 
Q 21.34375 51.125 25.703125 53.5625 
Q 30.078125 56 35.796875 56 
Q 45.21875 56 50.046875 50.171875 
Q 54.890625 44.34375 54.890625 33.015625 
z
" id="DejaVuSans-6e"/>
     <path d="M 2.984375 54.6875 
L 12.5 54.6875 
L 29.59375 8.796875 
L 46.6875 54.6875 
L 56.203125 54.6875 
L 35.6875 0 
L 23.484375 0 
z
" id="DejaVuSans-76"/>
     <path d="M 50.984375 -16.609375 
L 50.984375 -23.578125 
L -0.984375 -23.578125 
L -0.984375 -16.609375 
z
" id="DejaVuSans-5f"/>
     <path d="M 53.515625 70.515625 
L 53.515625 60.890625 
Q 47.90625 63.578125 42.921875 64.890625 
Q 37.9375 66.21875 33.296875 66.21875 
Q 25.25 66.21875 20.875 63.09375 
Q 16.5 59.96875 16.5 54.203125 
Q 16.5 49.359375 19.40625 46.890625 
Q 22.3125 44.4375 30.421875 42.921875 
L 36.375 41.703125 
Q 47.40625 39.59375 52.65625 34.296875 
Q 57.90625 29 57.90625 20.125 
Q 57.90625 9.515625 50.796875 4.046875 
Q 43.703125 -1.421875 29.984375 -1.421875 
Q 24.8125 -1.421875 18.96875 -0.25 
Q 13.140625 0.921875 6.890625 3.21875 
L 6.890625 13.375 
Q 12.890625 10.015625 18.65625 8.296875 
Q 24.421875 6.59375 29.984375 6.59375 
Q 38.421875 6.59375 43.015625 9.90625 
Q 47.609375 13.234375 47.609375 19.390625 
Q 47.609375 24.75 44.3125 27.78125 
Q 41.015625 30.8125 33.5 32.328125 
L 27.484375 33.5 
Q 16.453125 35.6875 11.515625 40.375 
Q 6.59375 45.0625 6.59375 53.421875 
Q 6.59375 63.09375 13.40625 68.65625 
Q 20.21875 74.21875 32.171875 74.21875 
Q 37.3125 74.21875 42.625 73.28125 
Q 47.953125 72.359375 53.515625 70.515625 
z
" id="DejaVuSans-53"/>
     <path d="M 10.796875 72.90625 
L 49.515625 72.90625 
L 49.515625 64.59375 
L 19.828125 64.59375 
L 19.828125 46.734375 
Q 21.96875 47.46875 24.109375 47.828125 
Q 26.265625 48.1875 28.421875 48.1875 
Q 40.625 48.1875 47.75 41.5 
Q 54.890625 34.8125 54.890625 23.390625 
Q 54.890625 11.625 47.5625 5.09375 
Q 40.234375 -1.421875 26.90625 -1.421875 
Q 22.3125 -1.421875 17.546875 -0.640625 
Q 12.796875 0.140625 7.71875 1.703125 
L 7.71875 11.625 
Q 12.109375 9.234375 16.796875 8.0625 
Q 21.484375 6.890625 26.703125 6.890625 
Q 35.15625 6.890625 40.078125 11.328125 
Q 45.015625 15.765625 45.015625 23.390625 
Q 45.015625 31 40.078125 35.4375 
Q 35.15625 39.890625 26.703125 39.890625 
Q 22.75 39.890625 18.8125 39.015625 
Q 14.890625 38.140625 10.796875 36.28125 
z
" id="DejaVuSans-35"/>
     <path d="M 41.109375 46.296875 
Q 39.59375 47.171875 37.8125 47.578125 
Q 36.03125 48 33.890625 48 
Q 26.265625 48 22.1875 43.046875 
Q 18.109375 38.09375 18.109375 28.8125 
L 18.109375 0 
L 9.078125 0 
L 9.078125 54.6875 
L 18.109375 54.6875 
L 18.109375 46.1875 
Q 20.953125 51.171875 25.484375 53.578125 
Q 30.03125 56 36.53125 56 
Q 37.453125 56 38.578125 55.875 
Q 39.703125 55.765625 41.0625 55.515625 
z
" id="DejaVuSans-72"/>
     <path d="M 48.78125 52.59375 
L 48.78125 44.1875 
Q 44.96875 46.296875 41.140625 47.34375 
Q 37.3125 48.390625 33.40625 48.390625 
Q 24.65625 48.390625 19.8125 42.84375 
Q 14.984375 37.3125 14.984375 27.296875 
Q 14.984375 17.28125 19.8125 11.734375 
Q 24.65625 6.203125 33.40625 6.203125 
Q 37.3125 6.203125 41.140625 7.25 
Q 44.96875 8.296875 48.78125 10.40625 
L 48.78125 2.09375 
Q 45.015625 0.34375 40.984375 -0.53125 
Q 36.96875 -1.421875 32.421875 -1.421875 
Q 20.0625 -1.421875 12.78125 6.34375 
Q 5.515625 14.109375 5.515625 27.296875 
Q 5.515625 40.671875 12.859375 48.328125 
Q 20.21875 56 33.015625 56 
Q 37.15625 56 41.109375 55.140625 
Q 45.0625 54.296875 48.78125 52.59375 
z
" id="DejaVuSans-63"/>
    </defs>
    <g transform="translate(352.452188 45.84)scale(0.12 -0.12)">
     <use xlink:href="#DejaVuSans-69"/>
     <use x="27.783203" xlink:href="#DejaVuSans-6e"/>
     <use x="91.162109" xlink:href="#DejaVuSans-76"/>
     <use x="150.341797" xlink:href="#DejaVuSans-5f"/>
     <use x="200.341797" xlink:href="#DejaVuSans-74"/>
     <use x="239.550781" xlink:href="#DejaVuSans-34"/>
     <use x="303.173828" xlink:href="#DejaVuSans-5f"/>
     <use x="353.173828" xlink:href="#DejaVuSans-69"/>
     <use x="380.957031" xlink:href="#DejaVuSans-6e"/>
     <use x="444.335938" xlink:href="#DejaVuSans-76"/>
     <use x="503.515625" xlink:href="#DejaVuSans-53"/>
     <use x="566.992188" xlink:href="#DejaVuSans-69"/>
     <use x="594.775391" xlink:href="#DejaVuSans-6d"/>
     <use x="692.1875" xlink:href="#DejaVuSans-5f"/>
     <use x="742.1875" xlink:href="#DejaVuSans-35"/>
     <use x="805.810547" xlink:href="#DejaVuSans-32"/>
     <use x="869.433594" xlink:href="#DejaVuSans-30"/>
     <use x="933.056641" xlink:href="#DejaVuSans-5f"/>
     <use x="983.056641" xlink:href="#DejaVuSans-32"/>
     <use x="1046.679688" xlink:href="#DejaVuSans-30"/>
     <use x="1110.302734" xlink:href="#DejaVuSans-30"/>
     <use x="1173.925781" xlink:href="#DejaVuSans-54"/>
     <use x="1234.791016" xlink:href="#DejaVuSans-72"/>
     <use x="1275.904297" xlink:href="#DejaVuSans-61"/>
     <use x="1337.183594" xlink:href="#DejaVuSans-63"/>
     <use x="1392.164062" xlink:href="#DejaVuSans-65"/>
     <use x="1453.6875" xlink:href="#DejaVuSans-73"/>
    </g>
   </g>
   <g id="legend_1">
    <g id="patch_7">
     <path d="M 115 249.01625 
L 214.946875 249.01625 
Q 216.946875 249.01625 216.946875 247.01625 
L 216.946875 189.30375 
Q 216.946875 187.30375 214.946875 187.30375 
L 115 187.30375 
Q 113 187.30375 113 189.30375 
L 113 247.01625 
Q 113 249.01625 115 249.01625 
z
" style="fill:#ffffff;opacity:0.8;stroke:#cccccc;stroke-linejoin:miter;"/>
    </g>
    <g id="line2d_17">
     <path d="M 117 195.402188 
L 137 195.402188 
" style="fill:none;stroke:#ff0000;stroke-linecap:square;stroke-width:1.5;"/>
    </g>
    <g id="line2d_18"/>
    <g id="text_18">
     <!-- Input -->
     <defs>
      <path d="M 9.8125 72.90625 
L 19.671875 72.90625 
L 19.671875 0 
L 9.8125 0 
z
" id="DejaVuSans-49"/>
      <path d="M 18.109375 8.203125 
L 18.109375 -20.796875 
L 9.078125 -20.796875 
L 9.078125 54.6875 
L 18.109375 54.6875 
L 18.109375 46.390625 
Q 20.953125 51.265625 25.265625 53.625 
Q 29.59375 56 35.59375 56 
Q 45.5625 56 51.78125 48.09375 
Q 58.015625 40.1875 58.015625 27.296875 
Q 58.015625 14.40625 51.78125 6.484375 
Q 45.5625 -1.421875 35.59375 -1.421875 
Q 29.59375 -1.421875 25.265625 0.953125 
Q 20.953125 3.328125 18.109375 8.203125 
z
M 48.6875 27.296875 
Q 48.6875 37.203125 44.609375 42.84375 
Q 40.53125 48.484375 33.40625 48.484375 
Q 26.265625 48.484375 22.1875 42.84375 
Q 18.109375 37.203125 18.109375 27.296875 
Q 18.109375 17.390625 22.1875 11.75 
Q 26.265625 6.109375 33.40625 6.109375 
Q 40.53125 6.109375 44.609375 11.75 
Q 48.6875 17.390625 48.6875 27.296875 
z
" id="DejaVuSans-70"/>
      <path d="M 8.5 21.578125 
L 8.5 54.6875 
L 17.484375 54.6875 
L 17.484375 21.921875 
Q 17.484375 14.15625 20.5 10.265625 
Q 23.53125 6.390625 29.59375 6.390625 
Q 36.859375 6.390625 41.078125 11.03125 
Q 45.3125 15.671875 45.3125 23.6875 
L 45.3125 54.6875 
L 54.296875 54.6875 
L 54.296875 0 
L 45.3125 0 
L 45.3125 8.40625 
Q 42.046875 3.421875 37.71875 1 
Q 33.40625 -1.421875 27.6875 -1.421875 
Q 18.265625 -1.421875 13.375 4.4375 
Q 8.5 10.296875 8.5 21.578125 
z
M 31.109375 56 
z
" id="DejaVuSans-75"/>
     </defs>
     <g transform="translate(145 198.902188)scale(0.1 -0.1)">
      <use xlink:href="#DejaVuSans-49"/>
      <use x="29.492188" xlink:href="#DejaVuSans-6e"/>
      <use x="92.871094" xlink:href="#DejaVuSans-70"/>
      <use x="156.347656" xlink:href="#DejaVuSans-75"/>
      <use x="219.726562" xlink:href="#DejaVuSans-74"/>
     </g>
    </g>
    <g id="line2d_19">
     <path d="M 117 210.080313 
L 137 210.080313 
" style="fill:none;stroke:#008000;stroke-linecap:square;stroke-width:1.5;"/>
    </g>
    <g id="line2d_20"/>
    <g id="text_19">
     <!-- Output -->
     <defs>
      <path d="M 39.40625 66.21875 
Q 28.65625 66.21875 22.328125 58.203125 
Q 16.015625 50.203125 16.015625 36.375 
Q 16.015625 22.609375 22.328125 14.59375 
Q 28.65625 6.59375 39.40625 6.59375 
Q 50.140625 6.59375 56.421875 14.59375 
Q 62.703125 22.609375 62.703125 36.375 
Q 62.703125 50.203125 56.421875 58.203125 
Q 50.140625 66.21875 39.40625 66.21875 
z
M 39.40625 74.21875 
Q 54.734375 74.21875 63.90625 63.9375 
Q 73.09375 53.65625 73.09375 36.375 
Q 73.09375 19.140625 63.90625 8.859375 
Q 54.734375 -1.421875 39.40625 -1.421875 
Q 24.03125 -1.421875 14.8125 8.828125 
Q 5.609375 19.09375 5.609375 36.375 
Q 5.609375 53.65625 14.8125 63.9375 
Q 24.03125 74.21875 39.40625 74.21875 
z
" id="DejaVuSans-4f"/>
     </defs>
     <g transform="translate(145 213.580313)scale(0.1 -0.1)">
      <use xlink:href="#DejaVuSans-4f"/>
      <use x="78.710938" xlink:href="#DejaVuSans-75"/>
      <use x="142.089844" xlink:href="#DejaVuSans-74"/>
      <use x="181.298828" xlink:href="#DejaVuSans-70"/>
      <use x="244.775391" xlink:href="#DejaVuSans-75"/>
      <use x="308.154297" xlink:href="#DejaVuSans-74"/>
     </g>
    </g>
    <g id="line2d_21">
     <path d="M 117 224.758438 
L 137 224.758438 
" style="fill:none;stroke:#ff0000;stroke-dasharray:5.55,2.4;stroke-dashoffset:0;stroke-width:1.5;"/>
    </g>
    <g id="line2d_22"/>
    <g id="text_20">
     <!-- Input-fitting -->
     <defs>
      <path d="M 4.890625 31.390625 
L 31.203125 31.390625 
L 31.203125 23.390625 
L 4.890625 23.390625 
z
" id="DejaVuSans-2d"/>
      <path d="M 37.109375 75.984375 
L 37.109375 68.5 
L 28.515625 68.5 
Q 23.6875 68.5 21.796875 66.546875 
Q 19.921875 64.59375 19.921875 59.515625 
L 19.921875 54.6875 
L 34.71875 54.6875 
L 34.71875 47.703125 
L 19.921875 47.703125 
L 19.921875 0 
L 10.890625 0 
L 10.890625 47.703125 
L 2.296875 47.703125 
L 2.296875 54.6875 
L 10.890625 54.6875 
L 10.890625 58.5 
Q 10.890625 67.625 15.140625 71.796875 
Q 19.390625 75.984375 28.609375 75.984375 
z
" id="DejaVuSans-66"/>
     </defs>
     <g transform="translate(145 228.258438)scale(0.1 -0.1)">
      <use xlink:href="#DejaVuSans-49"/>
      <use x="29.492188" xlink:href="#DejaVuSans-6e"/>
      <use x="92.871094" xlink:href="#DejaVuSans-70"/>
      <use x="156.347656" xlink:href="#DejaVuSans-75"/>
      <use x="219.726562" xlink:href="#DejaVuSans-74"/>
      <use x="258.935547" xlink:href="#DejaVuSans-2d"/>
      <use x="295.019531" xlink:href="#DejaVuSans-66"/>
      <use x="330.224609" xlink:href="#DejaVuSans-69"/>
      <use x="358.007812" xlink:href="#DejaVuSans-74"/>
      <use x="397.216797" xlink:href="#DejaVuSans-74"/>
      <use x="436.425781" xlink:href="#DejaVuSans-69"/>
      <use x="464.208984" xlink:href="#DejaVuSans-6e"/>
      <use x="527.587891" xlink:href="#DejaVuSans-67"/>
     </g>
    </g>
    <g id="line2d_23">
     <path d="M 117 239.436563 
L 137 239.436563 
" style="fill:none;stroke:#008000;stroke-dasharray:5.55,2.4;stroke-dashoffset:0;stroke-width:1.5;"/>
    </g>
    <g id="line2d_24"/>
    <g id="text_21">
     <!-- Output-fitting -->
     <g transform="translate(145 242.936563)scale(0.1 -0.1)">
      <use xlink:href="#DejaVuSans-4f"/>
      <use x="78.710938" xlink:href="#DejaVuSans-75"/>
      <use x="142.089844" xlink:href="#DejaVuSans-74"/>
      <use x="181.298828" xlink:href="#DejaVuSans-70"/>
      <use x="244.775391" xlink:href="#DejaVuSans-75"/>
      <use x="308.154297" xlink:href="#DejaVuSans-74"/>
      <use x="347.363281" xlink:href="#DejaVuSans-2d"/>
      <use x="383.447266" xlink:href="#DejaVuSans-66"/>
      <use x="418.652344" xlink:href="#DejaVuSans-69"/>
      <use x="446.435547" xlink:href="#DejaVuSans-74"/>
      <use x="485.644531" xlink:href="#DejaVuSans-74"/>
      <use x="524.853516" xlink:href="#DejaVuSans-69"/>
      <use x="552.636719" xlink:href="#DejaVuSans-6e"/>
      <use x="616.015625" xlink:href="#DejaVuSans-67"/>
     </g>
    </g>
   </g>
  </g>
 </g>
 <defs>
  <clipPath id="p9ecbff35ea">
   <rect height="332.64" width="669.6" x="108" y="51.84"/>
  </clipPath>
 </defs>
</svg>
