<?xml version="1.0" encoding="utf-8" standalone="no"?>
<!DOCTYPE svg PUBLIC "-//W3C//DTD SVG 1.1//EN"
  "http://www.w3.org/Graphics/SVG/1.1/DTD/svg11.dtd">
<!-- Created with matplotlib (https://matplotlib.org/) -->
<svg height="288pt" version="1.1" viewBox="0 0 1152 288" width="1152pt" xmlns="http://www.w3.org/2000/svg" xmlns:xlink="http://www.w3.org/1999/xlink">
 <metadata>
  <rdf:RDF xmlns:cc="http://creativecommons.org/ns#" xmlns:dc="http://purl.org/dc/elements/1.1/" xmlns:rdf="http://www.w3.org/1999/02/22-rdf-syntax-ns#">
   <cc:Work>
    <dc:type rdf:resource="http://purl.org/dc/dcmitype/StillImage"/>
    <dc:date>2020-10-10T21:35:47.415965</dc:date>
    <dc:format>image/svg+xml</dc:format>
    <dc:creator>
     <cc:Agent>
      <dc:title>Matplotlib v3.3.0, https://matplotlib.org/</dc:title>
     </cc:Agent>
    </dc:creator>
   </cc:Work>
  </rdf:RDF>
 </metadata>
 <defs>
  <style type="text/css">*{stroke-linecap:butt;stroke-linejoin:round;}</style>
 </defs>
 <g id="figure_1">
  <g id="patch_1">
   <path d="M 0 288 
L 1152 288 
L 1152 0 
L 0 0 
z
" style="fill:#ffffff;"/>
  </g>
  <g id="axes_1">
   <g id="patch_2">
    <path d="M 144 256.32 
L 1036.8 256.32 
L 1036.8 34.56 
L 144 34.56 
z
" style="fill:#ffffff;"/>
   </g>
   <g id="matplotlib.axis_1">
    <g id="xtick_1">
     <g id="line2d_1">
      <defs>
       <path d="M 0 0 
L 0 3.5 
" id="m4d27a3301e" style="stroke:#000000;stroke-width:0.8;"/>
      </defs>
      <g>
       <use style="stroke:#000000;stroke-width:0.8;" x="184.581818" xlink:href="#m4d27a3301e" y="256.32"/>
      </g>
     </g>
     <g id="text_1">
      <!-- 0.0 -->
      <g transform="translate(176.630256 270.918437)scale(0.1 -0.1)">
       <defs>
        <path d="M 31.78125 66.40625 
Q 24.171875 66.40625 20.328125 58.90625 
Q 16.5 51.421875 16.5 36.375 
Q 16.5 21.390625 20.328125 13.890625 
Q 24.171875 6.390625 31.78125 6.390625 
Q 39.453125 6.390625 43.28125 13.890625 
Q 47.125 21.390625 47.125 36.375 
Q 47.125 51.421875 43.28125 58.90625 
Q 39.453125 66.40625 31.78125 66.40625 
z
M 31.78125 74.21875 
Q 44.046875 74.21875 50.515625 64.515625 
Q 56.984375 54.828125 56.984375 36.375 
Q 56.984375 17.96875 50.515625 8.265625 
Q 44.046875 -1.421875 31.78125 -1.421875 
Q 19.53125 -1.421875 13.0625 8.265625 
Q 6.59375 17.96875 6.59375 36.375 
Q 6.59375 54.828125 13.0625 64.515625 
Q 19.53125 74.21875 31.78125 74.21875 
z
" id="DejaVuSans-48"/>
        <path d="M 10.6875 12.40625 
L 21 12.40625 
L 21 0 
L 10.6875 0 
z
" id="DejaVuSans-46"/>
       </defs>
       <use xlink:href="#DejaVuSans-48"/>
       <use x="63.623047" xlink:href="#DejaVuSans-46"/>
       <use x="95.410156" xlink:href="#DejaVuSans-48"/>
      </g>
     </g>
    </g>
    <g id="xtick_2">
     <g id="line2d_2">
      <g>
       <use style="stroke:#000000;stroke-width:0.8;" x="323.648398" xlink:href="#m4d27a3301e" y="256.32"/>
      </g>
     </g>
     <g id="text_2">
      <!-- 0.2 -->
      <g transform="translate(315.696835 270.918437)scale(0.1 -0.1)">
       <defs>
        <path d="M 19.1875 8.296875 
L 53.609375 8.296875 
L 53.609375 0 
L 7.328125 0 
L 7.328125 8.296875 
Q 12.9375 14.109375 22.625 23.890625 
Q 32.328125 33.6875 34.8125 36.53125 
Q 39.546875 41.84375 41.421875 45.53125 
Q 43.3125 49.21875 43.3125 52.78125 
Q 43.3125 58.59375 39.234375 62.25 
Q 35.15625 65.921875 28.609375 65.921875 
Q 23.96875 65.921875 18.8125 64.3125 
Q 13.671875 62.703125 7.8125 59.421875 
L 7.8125 69.390625 
Q 13.765625 71.78125 18.9375 73 
Q 24.125 74.21875 28.421875 74.21875 
Q 39.75 74.21875 46.484375 68.546875 
Q 53.21875 62.890625 53.21875 53.421875 
Q 53.21875 48.921875 51.53125 44.890625 
Q 49.859375 40.875 45.40625 35.40625 
Q 44.1875 33.984375 37.640625 27.21875 
Q 31.109375 20.453125 19.1875 8.296875 
z
" id="DejaVuSans-50"/>
       </defs>
       <use xlink:href="#DejaVuSans-48"/>
       <use x="63.623047" xlink:href="#DejaVuSans-46"/>
       <use x="95.410156" xlink:href="#DejaVuSans-50"/>
      </g>
     </g>
    </g>
    <g id="xtick_3">
     <g id="line2d_3">
      <g>
       <use style="stroke:#000000;stroke-width:0.8;" x="462.714977" xlink:href="#m4d27a3301e" y="256.32"/>
      </g>
     </g>
     <g id="text_3">
      <!-- 0.4 -->
      <g transform="translate(454.763415 270.918437)scale(0.1 -0.1)">
       <defs>
        <path d="M 37.796875 64.3125 
L 12.890625 25.390625 
L 37.796875 25.390625 
z
M 35.203125 72.90625 
L 47.609375 72.90625 
L 47.609375 25.390625 
L 58.015625 25.390625 
L 58.015625 17.1875 
L 47.609375 17.1875 
L 47.609375 0 
L 37.796875 0 
L 37.796875 17.1875 
L 4.890625 17.1875 
L 4.890625 26.703125 
z
" id="DejaVuSans-52"/>
       </defs>
       <use xlink:href="#DejaVuSans-48"/>
       <use x="63.623047" xlink:href="#DejaVuSans-46"/>
       <use x="95.410156" xlink:href="#DejaVuSans-52"/>
      </g>
     </g>
    </g>
    <g id="xtick_4">
     <g id="line2d_4">
      <g>
       <use style="stroke:#000000;stroke-width:0.8;" x="601.781557" xlink:href="#m4d27a3301e" y="256.32"/>
      </g>
     </g>
     <g id="text_4">
      <!-- 0.6 -->
      <g transform="translate(593.829994 270.918437)scale(0.1 -0.1)">
       <defs>
        <path d="M 33.015625 40.375 
Q 26.375 40.375 22.484375 35.828125 
Q 18.609375 31.296875 18.609375 23.390625 
Q 18.609375 15.53125 22.484375 10.953125 
Q 26.375 6.390625 33.015625 6.390625 
Q 39.65625 6.390625 43.53125 10.953125 
Q 47.40625 15.53125 47.40625 23.390625 
Q 47.40625 31.296875 43.53125 35.828125 
Q 39.65625 40.375 33.015625 40.375 
z
M 52.59375 71.296875 
L 52.59375 62.3125 
Q 48.875 64.0625 45.09375 64.984375 
Q 41.3125 65.921875 37.59375 65.921875 
Q 27.828125 65.921875 22.671875 59.328125 
Q 17.53125 52.734375 16.796875 39.40625 
Q 19.671875 43.65625 24.015625 45.921875 
Q 28.375 48.1875 33.59375 48.1875 
Q 44.578125 48.1875 50.953125 41.515625 
Q 57.328125 34.859375 57.328125 23.390625 
Q 57.328125 12.15625 50.6875 5.359375 
Q 44.046875 -1.421875 33.015625 -1.421875 
Q 20.359375 -1.421875 13.671875 8.265625 
Q 6.984375 17.96875 6.984375 36.375 
Q 6.984375 53.65625 15.1875 63.9375 
Q 23.390625 74.21875 37.203125 74.21875 
Q 40.921875 74.21875 44.703125 73.484375 
Q 48.484375 72.75 52.59375 71.296875 
z
" id="DejaVuSans-54"/>
       </defs>
       <use xlink:href="#DejaVuSans-48"/>
       <use x="63.623047" xlink:href="#DejaVuSans-46"/>
       <use x="95.410156" xlink:href="#DejaVuSans-54"/>
      </g>
     </g>
    </g>
    <g id="xtick_5">
     <g id="line2d_5">
      <g>
       <use style="stroke:#000000;stroke-width:0.8;" x="740.848136" xlink:href="#m4d27a3301e" y="256.32"/>
      </g>
     </g>
     <g id="text_5">
      <!-- 0.8 -->
      <g transform="translate(732.896573 270.918437)scale(0.1 -0.1)">
       <defs>
        <path d="M 31.78125 34.625 
Q 24.75 34.625 20.71875 30.859375 
Q 16.703125 27.09375 16.703125 20.515625 
Q 16.703125 13.921875 20.71875 10.15625 
Q 24.75 6.390625 31.78125 6.390625 
Q 38.8125 6.390625 42.859375 10.171875 
Q 46.921875 13.96875 46.921875 20.515625 
Q 46.921875 27.09375 42.890625 30.859375 
Q 38.875 34.625 31.78125 34.625 
z
M 21.921875 38.8125 
Q 15.578125 40.375 12.03125 44.71875 
Q 8.5 49.078125 8.5 55.328125 
Q 8.5 64.0625 14.71875 69.140625 
Q 20.953125 74.21875 31.78125 74.21875 
Q 42.671875 74.21875 48.875 69.140625 
Q 55.078125 64.0625 55.078125 55.328125 
Q 55.078125 49.078125 51.53125 44.71875 
Q 48 40.375 41.703125 38.8125 
Q 48.828125 37.15625 52.796875 32.3125 
Q 56.78125 27.484375 56.78125 20.515625 
Q 56.78125 9.90625 50.3125 4.234375 
Q 43.84375 -1.421875 31.78125 -1.421875 
Q 19.734375 -1.421875 13.25 4.234375 
Q 6.78125 9.90625 6.78125 20.515625 
Q 6.78125 27.484375 10.78125 32.3125 
Q 14.796875 37.15625 21.921875 38.8125 
z
M 18.3125 54.390625 
Q 18.3125 48.734375 21.84375 45.5625 
Q 25.390625 42.390625 31.78125 42.390625 
Q 38.140625 42.390625 41.71875 45.5625 
Q 45.3125 48.734375 45.3125 54.390625 
Q 45.3125 60.0625 41.71875 63.234375 
Q 38.140625 66.40625 31.78125 66.40625 
Q 25.390625 66.40625 21.84375 63.234375 
Q 18.3125 60.0625 18.3125 54.390625 
z
" id="DejaVuSans-56"/>
       </defs>
       <use xlink:href="#DejaVuSans-48"/>
       <use x="63.623047" xlink:href="#DejaVuSans-46"/>
       <use x="95.410156" xlink:href="#DejaVuSans-56"/>
      </g>
     </g>
    </g>
    <g id="xtick_6">
     <g id="line2d_6">
      <g>
       <use style="stroke:#000000;stroke-width:0.8;" x="879.914715" xlink:href="#m4d27a3301e" y="256.32"/>
      </g>
     </g>
     <g id="text_6">
      <!-- 1.0 -->
      <g transform="translate(871.963153 270.918437)scale(0.1 -0.1)">
       <defs>
        <path d="M 12.40625 8.296875 
L 28.515625 8.296875 
L 28.515625 63.921875 
L 10.984375 60.40625 
L 10.984375 69.390625 
L 28.421875 72.90625 
L 38.28125 72.90625 
L 38.28125 8.296875 
L 54.390625 8.296875 
L 54.390625 0 
L 12.40625 0 
z
" id="DejaVuSans-49"/>
       </defs>
       <use xlink:href="#DejaVuSans-49"/>
       <use x="63.623047" xlink:href="#DejaVuSans-46"/>
       <use x="95.410156" xlink:href="#DejaVuSans-48"/>
      </g>
     </g>
    </g>
    <g id="xtick_7">
     <g id="line2d_7">
      <g>
       <use style="stroke:#000000;stroke-width:0.8;" x="1018.981295" xlink:href="#m4d27a3301e" y="256.32"/>
      </g>
     </g>
     <g id="text_7">
      <!-- 1.2 -->
      <g transform="translate(1011.029732 270.918437)scale(0.1 -0.1)">
       <use xlink:href="#DejaVuSans-49"/>
       <use x="63.623047" xlink:href="#DejaVuSans-46"/>
       <use x="95.410156" xlink:href="#DejaVuSans-50"/>
      </g>
     </g>
    </g>
    <g id="text_8">
     <!-- Time [s] -->
     <g transform="translate(570.071094 284.596563)scale(0.1 -0.1)">
      <defs>
       <path d="M -0.296875 72.90625 
L 61.375 72.90625 
L 61.375 64.59375 
L 35.5 64.59375 
L 35.5 0 
L 25.59375 0 
L 25.59375 64.59375 
L -0.296875 64.59375 
z
" id="DejaVuSans-84"/>
       <path d="M 9.421875 54.6875 
L 18.40625 54.6875 
L 18.40625 0 
L 9.421875 0 
z
M 9.421875 75.984375 
L 18.40625 75.984375 
L 18.40625 64.59375 
L 9.421875 64.59375 
z
" id="DejaVuSans-105"/>
       <path d="M 52 44.1875 
Q 55.375 50.25 60.0625 53.125 
Q 64.75 56 71.09375 56 
Q 79.640625 56 84.28125 50.015625 
Q 88.921875 44.046875 88.921875 33.015625 
L 88.921875 0 
L 79.890625 0 
L 79.890625 32.71875 
Q 79.890625 40.578125 77.09375 44.375 
Q 74.3125 48.1875 68.609375 48.1875 
Q 61.625 48.1875 57.5625 43.546875 
Q 53.515625 38.921875 53.515625 30.90625 
L 53.515625 0 
L 44.484375 0 
L 44.484375 32.71875 
Q 44.484375 40.625 41.703125 44.40625 
Q 38.921875 48.1875 33.109375 48.1875 
Q 26.21875 48.1875 22.15625 43.53125 
Q 18.109375 38.875 18.109375 30.90625 
L 18.109375 0 
L 9.078125 0 
L 9.078125 54.6875 
L 18.109375 54.6875 
L 18.109375 46.1875 
Q 21.1875 51.21875 25.484375 53.609375 
Q 29.78125 56 35.6875 56 
Q 41.65625 56 45.828125 52.96875 
Q 50 49.953125 52 44.1875 
z
" id="DejaVuSans-109"/>
       <path d="M 56.203125 29.59375 
L 56.203125 25.203125 
L 14.890625 25.203125 
Q 15.484375 15.921875 20.484375 11.0625 
Q 25.484375 6.203125 34.421875 6.203125 
Q 39.59375 6.203125 44.453125 7.46875 
Q 49.3125 8.734375 54.109375 11.28125 
L 54.109375 2.78125 
Q 49.265625 0.734375 44.1875 -0.34375 
Q 39.109375 -1.421875 33.890625 -1.421875 
Q 20.796875 -1.421875 13.15625 6.1875 
Q 5.515625 13.8125 5.515625 26.8125 
Q 5.515625 40.234375 12.765625 48.109375 
Q 20.015625 56 32.328125 56 
Q 43.359375 56 49.78125 48.890625 
Q 56.203125 41.796875 56.203125 29.59375 
z
M 47.21875 32.234375 
Q 47.125 39.59375 43.09375 43.984375 
Q 39.0625 48.390625 32.421875 48.390625 
Q 24.90625 48.390625 20.390625 44.140625 
Q 15.875 39.890625 15.1875 32.171875 
z
" id="DejaVuSans-101"/>
       <path id="DejaVuSans-32"/>
       <path d="M 8.59375 75.984375 
L 29.296875 75.984375 
L 29.296875 69 
L 17.578125 69 
L 17.578125 -6.203125 
L 29.296875 -6.203125 
L 29.296875 -13.1875 
L 8.59375 -13.1875 
z
" id="DejaVuSans-91"/>
       <path d="M 44.28125 53.078125 
L 44.28125 44.578125 
Q 40.484375 46.53125 36.375 47.5 
Q 32.28125 48.484375 27.875 48.484375 
Q 21.1875 48.484375 17.84375 46.4375 
Q 14.5 44.390625 14.5 40.28125 
Q 14.5 37.15625 16.890625 35.375 
Q 19.28125 33.59375 26.515625 31.984375 
L 29.59375 31.296875 
Q 39.15625 29.25 43.1875 25.515625 
Q 47.21875 21.78125 47.21875 15.09375 
Q 47.21875 7.46875 41.1875 3.015625 
Q 35.15625 -1.421875 24.609375 -1.421875 
Q 20.21875 -1.421875 15.453125 -0.5625 
Q 10.6875 0.296875 5.421875 2 
L 5.421875 11.28125 
Q 10.40625 8.6875 15.234375 7.390625 
Q 20.0625 6.109375 24.8125 6.109375 
Q 31.15625 6.109375 34.5625 8.28125 
Q 37.984375 10.453125 37.984375 14.40625 
Q 37.984375 18.0625 35.515625 20.015625 
Q 33.0625 21.96875 24.703125 23.78125 
L 21.578125 24.515625 
Q 13.234375 26.265625 9.515625 29.90625 
Q 5.8125 33.546875 5.8125 39.890625 
Q 5.8125 47.609375 11.28125 51.796875 
Q 16.75 56 26.8125 56 
Q 31.78125 56 36.171875 55.265625 
Q 40.578125 54.546875 44.28125 53.078125 
z
" id="DejaVuSans-115"/>
       <path d="M 30.421875 75.984375 
L 30.421875 -13.1875 
L 9.71875 -13.1875 
L 9.71875 -6.203125 
L 21.390625 -6.203125 
L 21.390625 69 
L 9.71875 69 
L 9.71875 75.984375 
z
" id="DejaVuSans-93"/>
      </defs>
      <use xlink:href="#DejaVuSans-84"/>
      <use x="57.958984" xlink:href="#DejaVuSans-105"/>
      <use x="85.742188" xlink:href="#DejaVuSans-109"/>
      <use x="183.154297" xlink:href="#DejaVuSans-101"/>
      <use x="244.677734" xlink:href="#DejaVuSans-32"/>
      <use x="276.464844" xlink:href="#DejaVuSans-91"/>
      <use x="315.478516" xlink:href="#DejaVuSans-115"/>
      <use x="367.578125" xlink:href="#DejaVuSans-93"/>
     </g>
    </g>
    <g id="text_9">
     <!-- 1e−8 -->
     <g transform="translate(1009.542187 283.596563)scale(0.1 -0.1)">
      <defs>
       <path d="M 10.59375 35.5 
L 73.1875 35.5 
L 73.1875 27.203125 
L 10.59375 27.203125 
z
" id="DejaVuSans-8722"/>
      </defs>
      <use xlink:href="#DejaVuSans-49"/>
      <use x="63.623047" xlink:href="#DejaVuSans-101"/>
      <use x="125.146484" xlink:href="#DejaVuSans-8722"/>
      <use x="208.935547" xlink:href="#DejaVuSans-56"/>
     </g>
    </g>
   </g>
   <g id="matplotlib.axis_2">
    <g id="ytick_1">
     <g id="line2d_8">
      <defs>
       <path d="M 0 0 
L -3.5 0 
" id="m25b658e771" style="stroke:#000000;stroke-width:0.8;"/>
      </defs>
      <g>
       <use style="stroke:#000000;stroke-width:0.8;" x="144" xlink:href="#m25b658e771" y="254.890914"/>
      </g>
     </g>
     <g id="text_10">
      <!-- −1.0 -->
      <g transform="translate(112.717187 258.690133)scale(0.1 -0.1)">
       <use xlink:href="#DejaVuSans-8722"/>
       <use x="83.789062" xlink:href="#DejaVuSans-49"/>
       <use x="147.412109" xlink:href="#DejaVuSans-46"/>
       <use x="179.199219" xlink:href="#DejaVuSans-48"/>
      </g>
     </g>
    </g>
    <g id="ytick_2">
     <g id="line2d_9">
      <g>
       <use style="stroke:#000000;stroke-width:0.8;" x="144" xlink:href="#m25b658e771" y="207.153897"/>
      </g>
     </g>
     <g id="text_11">
      <!-- −0.5 -->
      <g transform="translate(112.717187 210.953115)scale(0.1 -0.1)">
       <defs>
        <path d="M 10.796875 72.90625 
L 49.515625 72.90625 
L 49.515625 64.59375 
L 19.828125 64.59375 
L 19.828125 46.734375 
Q 21.96875 47.46875 24.109375 47.828125 
Q 26.265625 48.1875 28.421875 48.1875 
Q 40.625 48.1875 47.75 41.5 
Q 54.890625 34.8125 54.890625 23.390625 
Q 54.890625 11.625 47.5625 5.09375 
Q 40.234375 -1.421875 26.90625 -1.421875 
Q 22.3125 -1.421875 17.546875 -0.640625 
Q 12.796875 0.140625 7.71875 1.703125 
L 7.71875 11.625 
Q 12.109375 9.234375 16.796875 8.0625 
Q 21.484375 6.890625 26.703125 6.890625 
Q 35.15625 6.890625 40.078125 11.328125 
Q 45.015625 15.765625 45.015625 23.390625 
Q 45.015625 31 40.078125 35.4375 
Q 35.15625 39.890625 26.703125 39.890625 
Q 22.75 39.890625 18.8125 39.015625 
Q 14.890625 38.140625 10.796875 36.28125 
z
" id="DejaVuSans-53"/>
       </defs>
       <use xlink:href="#DejaVuSans-8722"/>
       <use x="83.789062" xlink:href="#DejaVuSans-48"/>
       <use x="147.412109" xlink:href="#DejaVuSans-46"/>
       <use x="179.199219" xlink:href="#DejaVuSans-53"/>
      </g>
     </g>
    </g>
    <g id="ytick_3">
     <g id="line2d_10">
      <g>
       <use style="stroke:#000000;stroke-width:0.8;" x="144" xlink:href="#m25b658e771" y="159.416879"/>
      </g>
     </g>
     <g id="text_12">
      <!-- 0.0 -->
      <g transform="translate(121.096875 163.216098)scale(0.1 -0.1)">
       <use xlink:href="#DejaVuSans-48"/>
       <use x="63.623047" xlink:href="#DejaVuSans-46"/>
       <use x="95.410156" xlink:href="#DejaVuSans-48"/>
      </g>
     </g>
    </g>
    <g id="ytick_4">
     <g id="line2d_11">
      <g>
       <use style="stroke:#000000;stroke-width:0.8;" x="144" xlink:href="#m25b658e771" y="111.679862"/>
      </g>
     </g>
     <g id="text_13">
      <!-- 0.5 -->
      <g transform="translate(121.096875 115.479081)scale(0.1 -0.1)">
       <use xlink:href="#DejaVuSans-48"/>
       <use x="63.623047" xlink:href="#DejaVuSans-46"/>
       <use x="95.410156" xlink:href="#DejaVuSans-53"/>
      </g>
     </g>
    </g>
    <g id="ytick_5">
     <g id="line2d_12">
      <g>
       <use style="stroke:#000000;stroke-width:0.8;" x="144" xlink:href="#m25b658e771" y="63.942845"/>
      </g>
     </g>
     <g id="text_14">
      <!-- 1.0 -->
      <g transform="translate(121.096875 67.742064)scale(0.1 -0.1)">
       <use xlink:href="#DejaVuSans-49"/>
       <use x="63.623047" xlink:href="#DejaVuSans-46"/>
       <use x="95.410156" xlink:href="#DejaVuSans-48"/>
      </g>
     </g>
    </g>
    <g id="text_15">
     <!-- Voltage [V] -->
     <g transform="translate(106.6375 173.107188)rotate(-90)scale(0.1 -0.1)">
      <defs>
       <path d="M 28.609375 0 
L 0.78125 72.90625 
L 11.078125 72.90625 
L 34.1875 11.53125 
L 57.328125 72.90625 
L 67.578125 72.90625 
L 39.796875 0 
z
" id="DejaVuSans-86"/>
       <path d="M 30.609375 48.390625 
Q 23.390625 48.390625 19.1875 42.75 
Q 14.984375 37.109375 14.984375 27.296875 
Q 14.984375 17.484375 19.15625 11.84375 
Q 23.34375 6.203125 30.609375 6.203125 
Q 37.796875 6.203125 41.984375 11.859375 
Q 46.1875 17.53125 46.1875 27.296875 
Q 46.1875 37.015625 41.984375 42.703125 
Q 37.796875 48.390625 30.609375 48.390625 
z
M 30.609375 56 
Q 42.328125 56 49.015625 48.375 
Q 55.71875 40.765625 55.71875 27.296875 
Q 55.71875 13.875 49.015625 6.21875 
Q 42.328125 -1.421875 30.609375 -1.421875 
Q 18.84375 -1.421875 12.171875 6.21875 
Q 5.515625 13.875 5.515625 27.296875 
Q 5.515625 40.765625 12.171875 48.375 
Q 18.84375 56 30.609375 56 
z
" id="DejaVuSans-111"/>
       <path d="M 9.421875 75.984375 
L 18.40625 75.984375 
L 18.40625 0 
L 9.421875 0 
z
" id="DejaVuSans-108"/>
       <path d="M 18.3125 70.21875 
L 18.3125 54.6875 
L 36.8125 54.6875 
L 36.8125 47.703125 
L 18.3125 47.703125 
L 18.3125 18.015625 
Q 18.3125 11.328125 20.140625 9.421875 
Q 21.96875 7.515625 27.59375 7.515625 
L 36.8125 7.515625 
L 36.8125 0 
L 27.59375 0 
Q 17.1875 0 13.234375 3.875 
Q 9.28125 7.765625 9.28125 18.015625 
L 9.28125 47.703125 
L 2.6875 47.703125 
L 2.6875 54.6875 
L 9.28125 54.6875 
L 9.28125 70.21875 
z
" id="DejaVuSans-116"/>
       <path d="M 34.28125 27.484375 
Q 23.390625 27.484375 19.1875 25 
Q 14.984375 22.515625 14.984375 16.5 
Q 14.984375 11.71875 18.140625 8.90625 
Q 21.296875 6.109375 26.703125 6.109375 
Q 34.1875 6.109375 38.703125 11.40625 
Q 43.21875 16.703125 43.21875 25.484375 
L 43.21875 27.484375 
z
M 52.203125 31.203125 
L 52.203125 0 
L 43.21875 0 
L 43.21875 8.296875 
Q 40.140625 3.328125 35.546875 0.953125 
Q 30.953125 -1.421875 24.3125 -1.421875 
Q 15.921875 -1.421875 10.953125 3.296875 
Q 6 8.015625 6 15.921875 
Q 6 25.140625 12.171875 29.828125 
Q 18.359375 34.515625 30.609375 34.515625 
L 43.21875 34.515625 
L 43.21875 35.40625 
Q 43.21875 41.609375 39.140625 45 
Q 35.0625 48.390625 27.6875 48.390625 
Q 23 48.390625 18.546875 47.265625 
Q 14.109375 46.140625 10.015625 43.890625 
L 10.015625 52.203125 
Q 14.9375 54.109375 19.578125 55.046875 
Q 24.21875 56 28.609375 56 
Q 40.484375 56 46.34375 49.84375 
Q 52.203125 43.703125 52.203125 31.203125 
z
" id="DejaVuSans-97"/>
       <path d="M 45.40625 27.984375 
Q 45.40625 37.75 41.375 43.109375 
Q 37.359375 48.484375 30.078125 48.484375 
Q 22.859375 48.484375 18.828125 43.109375 
Q 14.796875 37.75 14.796875 27.984375 
Q 14.796875 18.265625 18.828125 12.890625 
Q 22.859375 7.515625 30.078125 7.515625 
Q 37.359375 7.515625 41.375 12.890625 
Q 45.40625 18.265625 45.40625 27.984375 
z
M 54.390625 6.78125 
Q 54.390625 -7.171875 48.1875 -13.984375 
Q 42 -20.796875 29.203125 -20.796875 
Q 24.46875 -20.796875 20.265625 -20.09375 
Q 16.0625 -19.390625 12.109375 -17.921875 
L 12.109375 -9.1875 
Q 16.0625 -11.328125 19.921875 -12.34375 
Q 23.78125 -13.375 27.78125 -13.375 
Q 36.625 -13.375 41.015625 -8.765625 
Q 45.40625 -4.15625 45.40625 5.171875 
L 45.40625 9.625 
Q 42.625 4.78125 38.28125 2.390625 
Q 33.9375 0 27.875 0 
Q 17.828125 0 11.671875 7.65625 
Q 5.515625 15.328125 5.515625 27.984375 
Q 5.515625 40.671875 11.671875 48.328125 
Q 17.828125 56 27.875 56 
Q 33.9375 56 38.28125 53.609375 
Q 42.625 51.21875 45.40625 46.390625 
L 45.40625 54.6875 
L 54.390625 54.6875 
z
" id="DejaVuSans-103"/>
      </defs>
      <use xlink:href="#DejaVuSans-86"/>
      <use x="60.658203" xlink:href="#DejaVuSans-111"/>
      <use x="121.839844" xlink:href="#DejaVuSans-108"/>
      <use x="149.623047" xlink:href="#DejaVuSans-116"/>
      <use x="188.832031" xlink:href="#DejaVuSans-97"/>
      <use x="250.111328" xlink:href="#DejaVuSans-103"/>
      <use x="313.587891" xlink:href="#DejaVuSans-101"/>
      <use x="375.111328" xlink:href="#DejaVuSans-32"/>
      <use x="406.898438" xlink:href="#DejaVuSans-91"/>
      <use x="445.912109" xlink:href="#DejaVuSans-86"/>
      <use x="514.320312" xlink:href="#DejaVuSans-93"/>
     </g>
    </g>
   </g>
   <g id="line2d_13">
    <path clip-path="url(#pa92873d51b)" d="M 184.581818 159.416871 
L 284.284073 159.52794 
L 289.026243 159.508935 
L 290.291749 159.265329 
L 291.265215 158.855368 
L 292.127428 158.247368 
L 292.954874 157.382664 
L 293.80318 156.158941 
L 294.700159 154.454932 
L 295.673625 152.105239 
L 296.765298 148.856859 
L 298.023851 144.374334 
L 299.560536 138.023392 
L 301.626509 128.458879 
L 310.853577 84.571442 
L 312.883949 76.48334 
L 314.643141 70.355129 
L 316.24936 65.536803 
L 317.772139 61.652041 
L 319.253198 58.476956 
L 320.706444 55.886555 
L 322.124923 53.799397 
L 323.571216 52.057378 
L 325.052275 50.61467 
L 326.65154 49.377803 
L 328.257759 48.409028 
L 330.156018 47.543365 
L 332.26983 46.84946 
L 334.501849 46.351372 
L 336.386201 46.127867 
L 337.70038 46.184197 
L 338.673846 46.443409 
L 339.536059 46.905885 
L 340.338125 47.591198 
L 341.172664 48.616303 
L 342.04183 50.063212 
L 342.966623 52.053463 
L 343.981809 54.779342 
L 345.108248 58.449364 
L 346.415474 63.505192 
L 347.917393 70.250977 
L 349.732212 79.48724 
L 352.165877 93.127615 
L 358.514266 129.252689 
L 360.141345 136.958102 
L 361.490291 142.327027 
L 362.700171 146.273208 
L 363.833563 149.244713 
L 364.925236 151.508842 
L 366.003002 153.251218 
L 367.094674 154.605224 
L 368.228067 155.662964 
L 369.437946 156.490481 
L 370.772985 157.132387 
L 372.233185 157.586842 
L 373.64471 157.800996 
L 374.826776 157.764964 
L 375.821102 157.5167 
L 376.704175 157.066201 
L 377.538575 156.38619 
L 378.372974 155.411127 
L 379.24214 154.040172 
L 380.173886 152.133609 
L 381.189072 149.523516 
L 382.329418 145.946925 
L 383.664457 140.985588 
L 385.31935 133.925656 
L 387.704342 122.672485 
L 394.568042 89.82238 
L 396.841781 80.217912 
L 398.719179 73.214758 
L 400.394932 67.793217 
L 401.952477 63.48161 
L 403.454397 59.967783 
L 404.886782 57.161802 
L 406.319168 54.83128 
L 407.78632 52.871962 
L 409.22566 51.30657 
L 410.678905 50.024831 
L 412.368564 48.84334 
L 414.245963 47.837998 
L 416.172035 47.061222 
L 418.557027 46.359392 
L 421.776418 45.721912 
L 424.848747 45.327986 
L 428.812144 45.058367 
L 430.47399 45.146108 
L 431.635196 45.417159 
L 432.650382 45.882308 
L 433.609941 46.576022 
L 434.597314 47.589479 
L 435.626407 48.989797 
L 436.773706 50.955703 
L 438.115698 53.735907 
L 439.749731 57.664568 
L 442.127769 64.007175 
L 445.854754 73.90367 
L 447.488786 77.597914 
L 448.796012 80.033924 
L 449.908544 81.661928 
L 450.88201 82.714883 
L 451.75813 83.353127 
L 452.571669 83.681996 
L 453.357396 83.762787 
L 454.136168 83.619843 
L 454.949708 83.240209 
L 455.811921 82.585955 
L 456.736713 81.597044 
L 457.737993 80.189136 
L 458.850525 78.2207 
L 460.150798 75.440382 
L 462.021243 70.849121 
L 465.456188 62.397884 
L 467.180614 58.787342 
L 468.759019 55.992722 
L 470.226172 53.825652 
L 471.693324 52.036183 
L 473.223056 50.520532 
L 474.848884 49.239366 
L 476.475963 48.235266 
L 478.207342 47.410275 
L 480.27248 46.679516 
L 482.525359 46.114692 
L 485.383177 45.639518 
L 488.539989 45.318057 
L 492.753706 45.082236 
L 499.971261 44.896061 
L 507.793756 44.677617 
L 510.359535 44.718289 
L 511.590274 44.947999 
L 512.570693 45.360161 
L 513.425953 45.967376 
L 514.260352 46.846405 
L 515.080845 48.035725 
L 515.970871 49.727048 
L 516.94399 52.073322 
L 518.021756 55.275044 
L 519.224682 59.565742 
L 520.587534 65.26495 
L 522.200706 73.003522 
L 524.196312 83.734058 
L 527.102803 100.721601 
L 531.518167 126.442124 
L 533.270406 135.302621 
L 534.668025 141.283868 
L 535.905718 145.647652 
L 537.053017 148.913685 
L 538.151643 151.39726 
L 539.229409 153.301776 
L 540.307175 154.76707 
L 541.412754 155.903287 
L 542.587867 156.795218 
L 543.881186 157.497068 
L 545.376152 158.050013 
L 547.170111 158.469159 
L 549.165716 158.710241 
L 550.688495 158.687747 
L 551.814935 158.456661 
L 552.753634 158.038466 
L 553.608893 157.408901 
L 554.443293 156.50873 
L 555.298552 155.246129 
L 556.209438 153.485425 
L 557.196811 151.069116 
L 558.30239 147.744062 
L 559.581803 143.1503 
L 561.146302 136.64826 
L 563.287927 126.704573 
L 571.889195 85.7838 
L 573.968241 77.37755 
L 575.748293 71.066745 
L 577.368419 66.1098 
L 578.898151 62.122537 
L 580.323583 58.98421 
L 581.749016 56.355237 
L 583.195308 54.14845 
L 584.676367 52.302269 
L 586.129613 50.833114 
L 587.589812 49.63988 
L 589.147358 48.62289 
L 590.976083 47.69641 
L 592.999502 46.928035 
L 595.537467 46.242818 
L 598.35433 45.737188 
L 602.136941 45.329704 
L 606.448005 45.085864 
L 612.914601 44.930527 
L 633.888066 44.753137 
L 635.028412 45.036313 
L 635.967112 45.501558 
L 636.829324 46.188302 
L 637.691537 47.18381 
L 638.57461 48.569234 
L 639.534169 50.521678 
L 640.577169 53.171942 
L 641.773141 56.850747 
L 643.170761 61.919464 
L 644.825653 68.793241 
L 647.050718 79.056442 
L 654.150067 112.506524 
L 655.839726 119.050983 
L 657.258205 123.701361 
L 658.502851 127.056452 
L 659.615384 129.446215 
L 660.616663 131.095576 
L 661.520596 132.177775 
L 662.341088 132.832211 
L 663.105955 133.170428 
L 663.843008 133.257996 
L 664.58006 133.120008 
L 665.337973 132.747239 
L 666.137606 132.09771 
L 666.985912 131.109659 
L 667.882892 129.71084 
L 668.849404 127.775772 
L 669.913264 125.126196 
L 671.123143 121.485208 
L 672.569435 116.38128 
L 674.446834 108.873374 
L 677.888732 93.986184 
L 680.99687 80.960375 
L 682.992476 73.525144 
L 684.716901 67.929335 
L 686.295307 63.538703 
L 687.811133 59.971698 
L 689.244561 57.144998 
L 690.676947 54.795859 
L 692.074566 52.902418 
L 693.493045 51.324805 
L 695.015824 49.95523 
L 696.663763 48.78386 
L 698.325609 47.86559 
L 700.084801 47.119938 
L 702.156893 46.470142 
L 704.736578 45.911332 
L 708.254963 45.443796 
L 712.725953 45.125676 
L 721.355034 44.762971 
L 725.255852 44.766217 
L 726.465731 45.010057 
L 727.404431 45.421646 
L 728.252737 46.038122 
L 729.080183 46.924503 
L 729.921536 48.164519 
L 730.811562 49.883816 
L 731.778075 52.24317 
L 732.890607 55.588676 
L 734.1283 60.065835 
L 735.539826 66.056134 
L 737.187765 74.068563 
L 739.238997 85.216541 
L 742.291508 103.192029 
L 746.380065 127.0875 
L 748.111444 135.878969 
L 749.488203 141.777603 
L 750.711989 146.085162 
L 751.852335 149.317015 
L 752.944008 151.768403 
L 754.014821 153.646017 
L 755.092587 155.098615 
L 756.202686 156.227059 
L 757.339138 157.082001 
L 758.625504 157.775205 
L 760.106563 158.316197 
L 761.907475 158.729083 
L 764.271607 159.030518 
L 767.776084 159.233475 
L 774.249634 159.350642 
L 791.807554 159.396197 
L 792.920087 159.070247 
L 793.851833 158.565666 
L 794.714046 157.841181 
L 795.576259 156.814996 
L 796.473238 155.387591 
L 797.439751 153.413368 
L 798.510563 150.693951 
L 799.727396 146.963237 
L 801.173688 141.765831 
L 803.009367 134.277401 
L 805.846325 121.644649 
L 810.811002 99.564093 
L 813.043021 90.683919 
L 814.81612 84.498042 
L 816.331946 79.979389 
L 817.687845 76.606674 
L 818.925537 74.09817 
L 820.072837 72.25428 
L 821.136696 70.947383 
L 822.110162 70.086102 
L 822.993235 69.587317 
L 823.792868 69.38137 
L 824.536874 69.416238 
L 825.253067 69.673044 
L 825.983166 70.177118 
L 826.754986 70.992323 
L 827.589385 72.214562 
L 828.500271 73.962959 
L 829.508504 76.402464 
L 830.641897 79.759723 
L 831.921309 84.280867 
L 833.402368 90.37107 
L 835.196327 98.742099 
L 837.657806 111.391597 
L 841.968869 133.631004 
L 843.526415 140.393802 
L 844.826688 145.096385 
L 846.008754 148.575717 
L 847.12824 151.208844 
L 848.219912 153.227162 
L 849.304632 154.778371 
L 850.410211 155.980114 
L 851.571417 156.918321 
L 852.836923 157.654947 
L 854.276262 158.23155 
L 856.000687 158.675289 
L 858.211846 159.002869 
L 861.347797 159.22476 
L 866.792254 159.355364 
L 881.095391 159.411576 
L 996.218182 159.416871 
L 996.218182 159.416871 
" style="fill:none;stroke:#ff0000;stroke-linecap:square;stroke-width:1.5;"/>
   </g>
   <g id="line2d_14">
    <path clip-path="url(#pa92873d51b)" d="M 184.581818 44.848038 
L 297.940411 44.737002 
L 303.649928 44.691174 
L 304.957154 44.928427 
L 305.881947 45.308987 
L 306.758066 45.915342 
L 307.564652 46.745489 
L 308.419912 47.963451 
L 309.316891 49.653342 
L 310.290357 51.98625 
L 311.368123 55.172505 
L 312.571049 59.445922 
L 313.961715 65.250629 
L 315.581841 73.021098 
L 317.570493 83.714143 
L 320.414404 100.353663 
L 325.087041 127.698467 
L 326.783654 136.242553 
L 328.153459 142.052282 
L 329.370292 146.285199 
L 330.503685 149.457744 
L 331.595357 151.877411 
L 332.66617 153.72888 
L 333.743936 155.160218 
L 334.856469 156.273787 
L 336.038535 157.143705 
L 337.338807 157.823692 
L 338.847679 158.356924 
L 340.706791 158.769195 
L 343.216943 159.083935 
L 347.145574 159.328632 
L 351.533124 159.406898 
L 352.993323 159.221912 
L 354.050229 158.868321 
L 354.947209 158.334359 
L 355.788562 157.570716 
L 356.636868 156.489452 
L 357.526894 154.977355 
L 358.486453 152.884727 
L 359.543359 150.017066 
L 360.746285 146.072588 
L 362.171718 140.58835 
L 363.99349 132.628116 
L 366.872168 118.910197 
L 372.066305 94.192093 
L 374.569503 83.37836 
L 376.502529 75.964162 
L 378.157421 70.460676 
L 379.652387 66.230928 
L 381.050006 62.919936 
L 382.412858 60.261939 
L 383.740944 58.168289 
L 385.02731 56.557451 
L 386.306722 55.316097 
L 387.523555 54.441364 
L 388.594368 53.923991 
L 389.56088 53.69533 
L 390.402233 53.724641 
L 391.160146 53.972587 
L 391.897199 54.448429 
L 392.648158 55.198951 
L 393.441603 56.305018 
L 394.303816 57.887022 
L 395.284235 60.174007 
L 396.355048 63.258201 
L 397.557974 67.421432 
L 398.941686 73.047382 
L 400.568765 80.646476 
L 402.58523 91.198218 
L 405.589069 108.251705 
L 409.302146 129.094154 
L 410.977898 137.236781 
L 412.333798 142.776471 
L 413.543677 146.826823 
L 414.677069 149.876408 
L 415.768742 152.198976 
L 416.846508 153.984211 
L 417.931227 155.360563 
L 419.050713 156.428282 
L 420.246686 157.263926 
L 421.574772 157.918779 
L 423.118411 158.427007 
L 425.029533 158.812833 
L 427.602265 159.090735 
L 431.621289 159.276767 
L 441.884403 159.455582 
L 450.715131 159.443398 
L 462.904316 159.271987 
L 512.007474 159.419785 
L 522.777833 159.561779 
L 525.802531 159.506334 
L 527.061083 159.260657 
L 528.034549 158.848022 
L 528.896762 158.238206 
L 529.724208 157.373482 
L 530.572515 156.152889 
L 531.476447 154.442234 
L 532.456867 152.086022 
L 533.548539 148.855962 
L 534.814045 144.378306 
L 536.350731 138.071396 
L 538.422823 128.543393 
L 547.768097 84.367815 
L 549.791516 76.368055 
L 551.529848 70.36354 
L 553.108254 65.683394 
L 554.575406 62.005963 
L 555.952165 59.125034 
L 557.321971 56.765489 
L 558.650057 54.909569 
L 559.985096 53.417596 
L 561.347949 52.225603 
L 562.696894 51.327574 
L 564.00412 50.701646 
L 565.193139 50.363 
L 566.159652 50.302088 
L 566.994052 50.457806 
L 567.793685 50.837315 
L 568.551597 51.445771 
L 569.337324 52.366905 
L 570.178676 53.708506 
L 571.082609 55.575787 
L 572.111702 58.242472 
L 573.245094 61.829813 
L 574.53146 66.677909 
L 576.012519 73.17338 
L 577.778665 81.97557 
L 580.06631 94.592951 
L 587.103079 134.230877 
L 588.549371 140.642502 
L 589.807924 145.2545 
L 590.962177 148.677836 
L 592.067756 151.287068 
L 593.145522 153.279612 
L 594.223288 154.816616 
L 595.321914 156.004282 
L 596.477001 156.930242 
L 597.742437 157.658733 
L 599.181776 158.226327 
L 600.913155 158.66216 
L 603.152127 158.984048 
L 606.378472 159.204655 
L 612.003715 159.335713 
L 627.766912 159.406964 
L 645.514032 159.54084 
L 649.630403 159.497125 
L 651.118416 159.252933 
L 652.279621 158.840045 
L 653.308714 158.236441 
L 654.296087 157.394854 
L 655.311273 156.227697 
L 656.402946 154.618226 
L 657.612825 152.420034 
L 659.017397 149.383236 
L 660.776589 145.014192 
L 663.822148 136.732984 
L 666.728639 129.082459 
L 668.536505 124.923085 
L 670.003657 122.075648 
L 671.276116 120.069519 
L 672.409509 118.678749 
L 673.438602 117.75371 
L 674.370348 117.203522 
L 675.218654 116.951318 
L 676.011333 116.942849 
L 676.783153 117.159547 
L 677.561926 117.617297 
L 678.368512 118.357373 
L 679.244631 119.477389 
L 680.204191 121.08331 
L 681.275003 123.328429 
L 682.512696 126.467253 
L 684.035475 130.976472 
L 689.501834 147.786672 
L 690.795154 150.699392 
L 691.99808 152.879851 
L 693.159285 154.538656 
L 694.320491 155.819054 
L 695.523417 156.817735 
L 696.809783 157.596415 
L 698.249122 158.203802 
L 699.938781 158.668745 
L 702.059547 159.011418 
L 704.986898 159.24335 
L 709.784695 159.373152 
L 722.085134 159.414572 
L 735.984839 159.530983 
L 740.553176 159.509343 
L 741.825635 159.265118 
L 742.799101 158.855431 
L 743.661314 158.247878 
L 744.48876 157.383806 
L 745.337066 156.160925 
L 746.234046 154.457982 
L 747.207512 152.109578 
L 748.299184 148.862683 
L 749.557737 144.381772 
L 751.087469 138.062928 
L 753.159561 128.473487 
L 762.387255 84.584608 
L 764.417627 76.497079 
L 766.176819 70.369909 
L 767.789991 65.533519 
L 769.31277 61.652805 
L 770.779923 58.508176 
L 772.240122 55.904313 
L 773.721181 53.73352 
L 775.188333 51.98224 
L 776.704159 50.521582 
L 778.359051 49.257793 
L 780.055663 48.2493 
L 781.919156 47.401682 
L 783.956481 46.7094 
L 786.452726 46.104858 
L 789.116616 45.669401 
L 792.447261 45.323976 
L 797.710931 45.001751 
L 804.566913 44.736333 
L 806.847605 44.816054 
L 808.092251 45.081376 
L 809.044857 45.497166 
L 809.941836 46.127963 
L 810.838816 47.049096 
L 811.770562 48.361673 
L 812.737074 50.136249 
L 813.800934 52.581053 
L 815.00386 55.936965 
L 816.380619 60.469213 
L 818.021605 66.666681 
L 820.191043 75.791593 
L 827.352972 106.616464 
L 828.987004 112.318497 
L 830.35681 116.333247 
L 831.545829 119.168483 
L 832.602735 121.146027 
L 833.548388 122.470719 
L 834.403648 123.307721 
L 835.196327 123.78449 
L 835.940333 123.980202 
L 836.670433 123.945096 
L 837.414439 123.685311 
L 838.200165 123.168205 
L 839.027611 122.349458 
L 839.917637 121.141482 
L 840.870244 119.454351 
L 841.90629 117.14514 
L 843.067495 113.987078 
L 844.430348 109.598566 
L 846.14782 103.263034 
L 848.859619 92.277151 
L 852.398863 78.120357 
L 854.338842 71.2856 
L 856.021547 66.142586 
L 857.57214 62.093417 
L 859.039292 58.855224 
L 860.485585 56.184338 
L 861.883204 54.041328 
L 863.357309 52.185408 
L 864.880088 50.637583 
L 866.437634 49.375989 
L 868.127293 48.305439 
L 869.816952 47.481116 
L 871.812557 46.751981 
L 873.981996 46.183242 
L 876.665981 45.706827 
L 880.309665 45.318534 
L 884.537289 45.081567 
L 890.948258 44.928618 
L 904.263883 44.856822 
L 996.218182 44.848038 
L 996.218182 44.848038 
" style="fill:none;stroke:#008000;stroke-linecap:square;stroke-width:1.5;"/>
   </g>
   <g id="line2d_15">
    <path clip-path="url(#pa92873d51b)" d="M 184.581818 44.848038 
L 285.577392 44.958047 
L 291.418188 45.196728 
L 294.964386 45.549223 
L 297.606651 46.02583 
L 299.69265 46.618346 
L 301.466583 47.346513 
L 302.996315 48.20382 
L 304.386981 49.226143 
L 305.708114 50.469948 
L 306.959713 51.951802 
L 308.211312 53.792177 
L 309.462911 56.059585 
L 310.71451 58.825712 
L 311.96611 62.159963 
L 313.287242 66.360675 
L 314.677908 71.584281 
L 316.138107 77.952165 
L 317.876439 86.589485 
L 320.310104 99.980573 
L 323.995369 120.214099 
L 325.803234 128.848571 
L 327.332967 135.127242 
L 328.723632 139.962318 
L 330.044765 143.807496 
L 331.365897 146.981493 
L 332.617497 149.438218 
L 333.869096 151.431267 
L 335.120695 153.029673 
L 336.441828 154.358744 
L 337.76296 155.383916 
L 339.153626 156.194454 
L 340.651164 156.816098 
L 342.25043 157.24433 
L 343.988762 157.478161 
L 345.796628 157.493863 
L 347.604493 157.283746 
L 349.342826 156.852251 
L 350.942091 156.224309 
L 352.40229 155.41781 
L 353.792956 154.397801 
L 355.114089 153.152859 
L 356.365688 151.676023 
L 357.617287 149.856696 
L 358.868886 147.637895 
L 360.120485 144.960757 
L 361.441618 141.575677 
L 362.76275 137.562584 
L 364.153416 132.624269 
L 365.690102 126.321504 
L 367.497968 117.887711 
L 369.931633 105.340618 
L 373.964563 84.519152 
L 375.772429 76.381081 
L 377.371695 70.170779 
L 378.831894 65.382734 
L 380.153026 61.773914 
L 381.404625 58.959516 
L 382.586691 56.806085 
L 383.768757 55.107231 
L 384.88129 53.894897 
L 385.924289 53.079457 
L 386.897755 52.58831 
L 387.801688 52.362065 
L 388.705621 52.358636 
L 389.609554 52.584278 
L 390.513486 53.050104 
L 391.417419 53.772096 
L 392.390885 54.85987 
L 393.344256 56.266338 
L 394.387256 58.231242 
L 395.430255 60.686205 
L 396.542788 63.89478 
L 397.724853 68.018495 
L 398.976453 73.215092 
L 400.367118 79.963826 
L 402.035917 89.228912 
L 404.678182 105.381853 
L 407.320447 121.102447 
L 408.989246 129.758954 
L 410.449445 136.209117 
L 411.770578 141.093435 
L 413.022177 144.924097 
L 414.273776 148.054879 
L 415.525376 150.578803 
L 416.776975 152.593906 
L 418.028574 154.194387 
L 419.349707 155.52848 
L 420.809906 156.682676 
L 422.548238 157.754853 
L 425.08516 159.017868 
L 428.075091 160.554277 
L 429.674357 161.636969 
L 430.99549 162.797649 
L 432.177555 164.126867 
L 433.290088 165.706493 
L 434.402621 167.68543 
L 435.515153 170.149092 
L 436.627686 173.183633 
L 437.740219 176.866567 
L 438.922285 181.55136 
L 440.243417 187.74558 
L 441.773149 196.061736 
L 444.067748 209.983689 
L 446.64048 225.248463 
L 448.100679 232.57845 
L 449.282745 237.437381 
L 450.325744 240.832049 
L 451.229677 243.080506 
L 452.064076 244.593745 
L 452.828943 245.524205 
L 453.454742 245.97545 
L 454.080542 246.161483 
L 454.706341 246.095934 
L 455.339094 245.788028 
L 456.034427 245.186412 
L 456.799293 244.22771 
L 457.703226 242.725306 
L 458.746226 240.541406 
L 459.997825 237.358996 
L 461.458024 232.990362 
L 463.265889 226.816387 
L 465.769088 217.38034 
L 471.123151 197.004951 
L 473.278683 189.801277 
L 475.120064 184.380789 
L 476.858396 179.930874 
L 478.527195 176.263153 
L 480.12646 173.272519 
L 481.725726 170.750088 
L 483.324992 168.644024 
L 484.924257 166.900372 
L 486.593056 165.410708 
L 488.331389 164.15883 
L 490.208788 163.088037 
L 492.225253 162.197599 
L 494.519851 161.436957 
L 497.162116 160.807402 
L 500.291115 160.298626 
L 504.324045 159.878501 
L 511.555507 159.39595 
L 516.950943 158.933255 
L 520.079941 158.447195 
L 522.444073 157.862644 
L 524.391005 157.159185 
L 526.059804 156.32867 
L 527.589536 155.319634 
L 528.980202 154.137631 
L 530.301335 152.723063 
L 531.552934 151.064126 
L 532.804533 149.035716 
L 534.056132 146.575985 
L 535.307732 143.6232 
L 536.628864 139.909801 
L 538.01953 135.286472 
L 539.479729 129.620305 
L 541.078995 122.505086 
L 543.09546 112.426891 
L 549.708076 78.408937 
L 551.376875 71.510312 
L 552.837074 66.374126 
L 554.22774 62.270319 
L 555.548872 59.049109 
L 556.800471 56.55833 
L 558.052071 54.561728 
L 559.234137 53.085196 
L 560.346669 52.025134 
L 561.459202 51.260083 
L 562.502201 50.796154 
L 563.545201 50.570651 
L 564.518667 50.576025 
L 565.492133 50.79685 
L 566.465599 51.246409 
L 567.439065 51.94446 
L 568.412531 52.917222 
L 569.385997 54.197064 
L 570.428996 55.952032 
L 571.471996 58.154107 
L 572.584528 61.055286 
L 573.697061 64.584601 
L 574.879127 69.07257 
L 576.200259 75.011195 
L 577.660458 82.648426 
L 579.537857 93.780743 
L 584.683321 125.095607 
L 586.213053 132.689496 
L 587.603719 138.507884 
L 588.924851 143.077278 
L 590.17645 146.608037 
L 591.358516 149.311569 
L 592.540582 151.488919 
L 593.722648 153.224824 
L 594.974247 154.668593 
L 596.29538 155.840711 
L 597.665951 156.758835 
L 599.195683 157.512199 
L 600.934015 158.114568 
L 603.020014 158.591541 
L 605.662279 158.950997 
L 609.208477 159.192556 
L 614.632073 159.317553 
L 623.254201 159.279542 
L 630.62473 159.048552 
L 635.459519 158.688557 
L 639.07525 158.204791 
L 641.995648 157.59245 
L 644.429313 156.858639 
L 646.584845 155.975557 
L 648.531777 154.932454 
L 650.270109 153.754609 
L 651.938908 152.358755 
L 653.538174 150.734038 
L 655.13744 148.786366 
L 656.736705 146.47729 
L 658.335971 143.776984 
L 660.074303 140.383231 
L 661.951702 136.205328 
L 664.315834 130.347682 
L 668.626898 119.545252 
L 670.017564 116.697987 
L 671.130096 114.898289 
L 672.034029 113.83608 
L 672.798895 113.263376 
L 673.424695 113.039463 
L 674.050494 113.049942 
L 674.676294 113.304308 
L 675.302094 113.807871 
L 675.997427 114.6602 
L 676.831826 116.079998 
L 677.735759 118.076188 
L 678.848291 121.104026 
L 680.308491 125.798755 
L 685.940687 144.703882 
L 687.331353 148.26306 
L 688.632668 151.015022 
L 689.884268 153.159084 
L 691.135867 154.861089 
L 692.387466 156.183499 
L 693.639065 157.191013 
L 694.960198 157.979944 
L 696.420397 158.597765 
L 698.089196 159.063182 
L 700.105661 159.391358 
L 702.747926 159.586203 
L 706.780857 159.637992 
L 717.141317 159.46769 
L 726.535265 159.168794 
L 730.776795 158.82241 
L 733.766727 158.366783 
L 736.130859 157.787512 
L 738.077791 157.087907 
L 739.74659 156.263029 
L 741.276322 155.263747 
L 742.666988 154.097146 
L 743.98812 152.705842 
L 745.309253 150.979392 
L 746.560852 148.975818 
L 747.812451 146.554496 
L 749.06405 143.656935 
L 750.385183 140.023191 
L 751.775849 135.509513 
L 753.236048 129.986193 
L 754.835313 123.052906 
L 756.824591 113.355599 
L 764.056053 76.947165 
L 765.724852 70.30396 
L 767.185052 65.347519 
L 768.575717 61.360762 
L 769.966383 58.040843 
L 771.287516 55.440676 
L 772.608648 53.310598 
L 773.929781 51.581664 
L 775.320446 50.123785 
L 776.780646 48.919831 
L 778.310378 47.945557 
L 779.979177 47.143909 
L 781.856576 46.488557 
L 784.081641 45.956948 
L 786.723906 45.563865 
L 789.971875 45.314771 
L 793.796206 45.250924 
L 797.481471 45.407915 
L 800.471402 45.751843 
L 802.835534 46.240706 
L 804.782466 46.861808 
L 806.451265 47.617284 
L 807.980997 48.55374 
L 809.371663 49.667392 
L 810.692796 51.016374 
L 811.944395 52.614434 
L 813.195994 54.585357 
L 814.447593 56.993207 
L 815.706146 59.919063 
L 817.027278 63.596813 
L 818.348411 67.94037 
L 819.80861 73.527385 
L 821.477409 80.846987 
L 823.632941 91.391805 
L 827.874472 112.33049 
L 829.473737 118.980291 
L 830.79487 123.57365 
L 831.976936 126.899218 
L 833.019935 129.186869 
L 833.923868 130.673486 
L 834.758267 131.640609 
L 835.523134 132.192128 
L 836.218466 132.422403 
L 836.913799 132.401821 
L 837.609132 132.1382 
L 838.373998 131.577431 
L 839.208398 130.655371 
L 840.112331 129.308779 
L 841.15533 127.332378 
L 842.337396 124.586517 
L 843.728062 120.739235 
L 845.327327 115.614203 
L 847.343793 108.342974 
L 850.750924 95.048452 
L 854.018989 82.633503 
L 856.174521 75.30041 
L 858.051919 69.68377 
L 859.790252 65.176975 
L 861.389517 61.616078 
L 862.988783 58.585039 
L 864.518515 56.138846 
L 866.048248 54.087295 
L 867.647513 52.310491 
L 869.246779 50.855449 
L 870.985111 49.579309 
L 872.792977 48.528899 
L 874.809442 47.622891 
L 877.034507 46.874834 
L 879.607239 46.254338 
L 882.666843 45.756585 
L 886.491174 45.373141 
L 891.567104 45.101126 
L 899.285299 44.931274 
L 914.798176 44.856919 
L 996.152125 44.848038 
L 996.152125 44.848038 
" style="fill:none;stroke:#008000;stroke-dasharray:5.55,2.4;stroke-dashoffset:0;stroke-width:1.5;"/>
   </g>
   <g id="line2d_16">
    <path clip-path="url(#pa92873d51b)" d="M 184.581818 159.416879 
L 285.646925 159.527552 
L 291.279122 159.762339 
L 294.616719 160.112198 
L 297.189451 160.594747 
L 299.344983 161.219279 
L 301.18845 161.979197 
L 302.996315 162.969052 
L 306.959713 165.272416 
L 308.002712 165.551381 
L 308.976178 165.579386 
L 309.949644 165.378606 
L 311.062177 164.904308 
L 312.452843 164.046226 
L 317.25064 160.854246 
L 318.919439 160.143786 
L 323.160969 158.494134 
L 324.829768 157.467975 
L 327.750166 155.627206 
L 328.932232 155.170934 
L 330.044765 154.965499 
L 331.226831 154.968521 
L 332.617497 155.200422 
L 334.633962 155.791103 
L 339.153626 157.171202 
L 341.346497 157.577113 
L 343.432496 157.741425 
L 345.448961 157.680508 
L 347.395893 157.397544 
L 349.203759 156.909084 
L 351.011625 156.18389 
L 355.253155 154.331641 
L 356.226621 154.218748 
L 357.130554 154.324834 
L 358.034487 154.650066 
L 359.007953 155.238367 
L 360.190019 156.232212 
L 362.136951 158.230354 
L 363.944816 159.977967 
L 365.133836 160.824883 
L 366.107302 161.260884 
L 367.011235 161.436865 
L 367.915167 161.394692 
L 368.888633 161.128498 
L 370.070699 160.560465 
L 371.878565 159.400036 
L 374.451297 157.778203 
L 376.050562 157.038493 
L 377.649828 156.55107 
L 379.318627 156.278386 
L 381.196026 156.197255 
L 383.282024 156.331185 
L 385.228956 156.667161 
L 387.036822 157.200043 
L 388.983754 158.018342 
L 391.765086 159.194258 
L 393.135656 159.505676 
L 394.526322 159.58565 
L 396.612321 159.445431 
L 398.559253 159.395819 
L 399.880385 159.592392 
L 401.131985 160.003881 
L 402.73125 160.789363 
L 405.234449 162.032684 
L 406.277448 162.295051 
L 407.250914 162.305497 
L 408.154847 162.095094 
L 409.197846 161.615642 
L 410.727579 160.62484 
L 413.022177 159.156287 
L 414.34331 158.577373 
L 415.664442 158.242079 
L 417.055108 158.120173 
L 418.723907 158.204555 
L 420.948972 158.555225 
L 423.833561 159.239144 
L 426.267226 160.030582 
L 428.075091 160.847559 
L 429.53529 161.744905 
L 430.856423 162.824453 
L 432.038489 164.082218 
L 433.151022 165.590908 
L 434.263554 167.492138 
L 435.376087 169.869417 
L 436.488619 172.808521 
L 437.601152 176.388448 
L 438.783218 180.959623 
L 440.104351 187.030542 
L 441.634083 195.226609 
L 443.789615 208.200992 
L 446.64048 225.177129 
L 448.100679 232.511926 
L 449.282745 237.383656 
L 450.325744 240.796926 
L 451.229677 243.066561 
L 452.064076 244.602452 
L 452.828943 245.555127 
L 453.524275 246.060345 
L 454.150075 246.235624 
L 454.775875 246.159769 
L 455.408628 245.841426 
L 456.10396 245.227877 
L 456.868827 244.255122 
L 457.772759 242.73468 
L 458.815759 240.528354 
L 460.067358 237.317998 
L 461.527557 232.917536 
L 463.335423 226.708032 
L 465.838621 217.233521 
L 471.053618 197.324796 
L 473.20915 190.075847 
L 475.05053 184.615865 
L 476.788863 180.130231 
L 478.457662 176.430911 
L 480.056927 173.413109 
L 481.656193 170.866811 
L 483.255459 168.74017 
L 484.854724 166.979053 
L 486.523523 165.474172 
L 488.261855 164.209313 
L 490.139254 163.127292 
L 492.15572 162.22745 
L 494.380785 161.478742 
L 496.953517 160.850769 
L 500.082515 160.327426 
L 504.045912 159.902616 
L 510.790641 159.444399 
L 516.144705 158.991221 
L 519.384608 158.497536 
L 521.887807 157.895096 
L 524.043339 157.142952 
L 528.493469 155.444052 
L 529.466935 155.394747 
L 530.370868 155.580728 
L 531.205267 155.974877 
L 532.1092 156.647169 
L 533.1522 157.714891 
L 534.473332 159.411398 
L 538.297663 164.546926 
L 539.410196 165.55885 
L 540.314128 166.103655 
L 541.148528 166.369618 
L 541.982927 166.410009 
L 542.88686 166.216906 
L 543.860326 165.771877 
L 545.111925 164.929197 
L 547.135344 163.240363 
L 549.777609 161.098 
L 551.446408 160.031466 
L 553.045674 159.272381 
L 554.714473 158.735803 
L 556.452805 158.408659 
L 558.330204 158.276375 
L 560.207603 158.356425 
L 562.015468 158.651118 
L 563.7538 159.168426 
L 565.839799 160.050305 
L 567.995331 160.90759 
L 569.24693 161.165944 
L 570.428996 161.187905 
L 571.819662 160.985943 
L 575.435393 160.336755 
L 576.617459 160.428367 
L 577.729992 160.734214 
L 579.051124 161.340626 
L 582.458255 163.05844 
L 583.431721 163.228621 
L 584.335654 163.158778 
L 585.239587 162.865082 
L 586.35212 162.245457 
L 588.299052 160.827778 
L 590.106917 159.633831 
L 591.497583 158.991736 
L 592.818715 158.623285 
L 594.348448 158.439479 
L 596.225847 158.450729 
L 599.612883 158.73922 
L 605.175546 159.172887 
L 610.599143 159.343839 
L 618.734537 159.357882 
L 628.121532 159.166549 
L 633.783766 158.845412 
L 637.615051 158.416213 
L 640.674515 157.852278 
L 643.247247 157.158773 
L 645.541846 156.309961 
L 647.627844 155.300906 
L 650.339643 153.707464 
L 652.634241 152.445747 
L 653.955374 151.958833 
L 655.13744 151.7532 
L 656.319506 151.779176 
L 657.571105 152.03279 
L 659.17037 152.599054 
L 663.272835 154.168427 
L 664.802567 154.440772 
L 666.332299 154.477274 
L 668.279231 154.278017 
L 670.851963 154.030605 
L 672.034029 154.156025 
L 673.007495 154.478935 
L 673.911428 155.004031 
L 674.884894 155.839827 
L 675.927893 157.045124 
L 677.179493 158.849052 
L 681.76869 165.842555 
L 682.672622 166.67147 
L 683.507022 167.147964 
L 684.271888 167.330142 
L 685.036754 167.277229 
L 685.871154 166.981427 
L 686.84462 166.389952 
L 688.354535 165.170717 
L 691.135867 162.910318 
L 692.735132 161.929093 
L 694.264865 161.247459 
L 696.003197 160.72226 
L 698.089196 160.33262 
L 701.009594 160.030422 
L 706.015991 159.769291 
L 716.306918 159.491795 
L 726.674331 159.158771 
L 730.637729 158.809089 
L 733.558127 158.336864 
L 735.922259 157.73617 
L 737.938724 156.995048 
L 739.955189 156.004327 
L 743.084188 154.423468 
L 744.127187 154.159074 
L 745.03112 154.14687 
L 745.935052 154.368849 
L 746.838985 154.832517 
L 747.881984 155.645509 
L 749.203117 157.002327 
L 752.957915 161.074981 
L 754.070447 161.852559 
L 755.043913 162.262005 
L 755.947846 162.4062 
L 756.894125 162.326492 
L 757.937124 162.003285 
L 759.258256 161.335764 
L 764.959986 158.122668 
L 766.559252 157.635147 
L 768.228051 157.359302 
L 770.174983 157.275866 
L 772.678181 157.41103 
L 776.919712 157.898078 
L 784.568374 158.745257 
L 792.127407 159.318267 
L 797.481471 159.811777 
L 800.610469 160.320276 
L 803.044134 160.935944 
L 805.199666 161.713943 
L 809.649796 163.449231 
L 810.762329 163.55529 
L 811.805328 163.418292 
L 812.848328 163.045735 
L 814.030394 162.380795 
L 815.845213 161.067064 
L 818.000745 159.564892 
L 819.18281 159.000222 
L 820.22581 158.742817 
L 821.199276 158.735233 
L 822.172742 158.956387 
L 823.215741 159.42846 
L 824.46734 160.25837 
L 826.205673 161.713882 
L 830.030004 164.993604 
L 831.768336 166.157254 
L 833.437135 167.010263 
L 835.036401 167.583749 
L 836.566133 167.896303 
L 838.095865 167.979091 
L 842.824129 168.03196 
L 844.562461 168.426861 
L 850.055591 169.853962 
L 851.72439 169.969528 
L 853.254122 169.848082 
L 854.783855 169.499156 
L 856.452654 168.887066 
L 858.538652 167.873107 
L 867.647513 163.14563 
L 870.359312 162.162979 
L 873.210177 161.37415 
L 876.339175 160.746907 
L 879.955045 160.256334 
L 884.335642 159.890829 
L 890.245972 159.632456 
L 899.424366 159.478795 
L 918.205307 159.421452 
L 996.152125 159.416879 
L 996.152125 159.416879 
" style="fill:none;stroke:#008000;stroke-dasharray:9.6,2.4,1.5,2.4;stroke-dashoffset:0;stroke-width:1.5;"/>
   </g>
   <g id="patch_3">
    <path d="M 144 256.32 
L 144 34.56 
" style="fill:none;stroke:#000000;stroke-linecap:square;stroke-linejoin:miter;stroke-width:0.8;"/>
   </g>
   <g id="patch_4">
    <path d="M 1036.8 256.32 
L 1036.8 34.56 
" style="fill:none;stroke:#000000;stroke-linecap:square;stroke-linejoin:miter;stroke-width:0.8;"/>
   </g>
   <g id="patch_5">
    <path d="M 144 256.32 
L 1036.8 256.32 
" style="fill:none;stroke:#000000;stroke-linecap:square;stroke-linejoin:miter;stroke-width:0.8;"/>
   </g>
   <g id="patch_6">
    <path d="M 144 34.56 
L 1036.8 34.56 
" style="fill:none;stroke:#000000;stroke-linecap:square;stroke-linejoin:miter;stroke-width:0.8;"/>
   </g>
   <g id="text_16">
    <!-- In  RMSE: 0.0 -->
    <g transform="translate(184.581818 133.834212)scale(0.1 -0.1)">
     <defs>
      <path d="M 9.8125 72.90625 
L 50.296875 72.90625 
L 50.296875 64.59375 
L 35.015625 64.59375 
L 35.015625 8.296875 
L 50.296875 8.296875 
L 50.296875 0 
L 9.8125 0 
L 9.8125 8.296875 
L 25.09375 8.296875 
L 25.09375 64.59375 
L 9.8125 64.59375 
z
" id="DejaVuSansMono-73"/>
      <path d="M 51.3125 33.890625 
L 51.3125 0 
L 42.28125 0 
L 42.28125 33.890625 
Q 42.28125 41.265625 39.6875 44.71875 
Q 37.109375 48.1875 31.59375 48.1875 
Q 25.296875 48.1875 21.890625 43.71875 
Q 18.5 39.265625 18.5 30.90625 
L 18.5 0 
L 9.515625 0 
L 9.515625 54.6875 
L 18.5 54.6875 
L 18.5 46.484375 
Q 20.90625 51.171875 25 53.578125 
Q 29.109375 56 34.71875 56 
Q 43.0625 56 47.1875 50.5 
Q 51.3125 45.015625 51.3125 33.890625 
z
" id="DejaVuSansMono-110"/>
      <path id="DejaVuSansMono-32"/>
      <path d="M 37.109375 34.421875 
Q 40.921875 33.453125 43.609375 30.734375 
Q 46.296875 28.03125 50.296875 19.921875 
L 60.203125 0 
L 49.609375 0 
L 40.921875 18.40625 
Q 37.15625 26.265625 34.15625 28.53125 
Q 31.15625 30.8125 26.3125 30.8125 
L 16.890625 30.8125 
L 16.890625 0 
L 6.984375 0 
L 6.984375 72.90625 
L 27.296875 72.90625 
Q 39.3125 72.90625 45.703125 67.484375 
Q 52.09375 62.0625 52.09375 51.8125 
Q 52.09375 44.578125 48.15625 40.015625 
Q 44.234375 35.453125 37.109375 34.421875 
z
M 16.890625 64.796875 
L 16.890625 38.921875 
L 27.6875 38.921875 
Q 34.765625 38.921875 38.234375 42.09375 
Q 41.703125 45.265625 41.703125 51.8125 
Q 41.703125 58.109375 38.015625 61.453125 
Q 34.328125 64.796875 27.296875 64.796875 
z
" id="DejaVuSansMono-82"/>
      <path d="M 4.203125 72.90625 
L 17.390625 72.90625 
L 29.984375 35.796875 
L 42.671875 72.90625 
L 55.90625 72.90625 
L 55.90625 0 
L 46.78125 0 
L 46.78125 64.40625 
L 33.796875 25.984375 
L 26.3125 25.984375 
L 13.28125 64.40625 
L 13.28125 0 
L 4.203125 0 
z
" id="DejaVuSansMono-77"/>
      <path d="M 49.421875 70.40625 
L 49.421875 60.40625 
Q 44.921875 63.28125 40.40625 64.75 
Q 35.890625 66.21875 31.296875 66.21875 
Q 24.3125 66.21875 20.265625 62.96875 
Q 16.21875 59.71875 16.21875 54.203125 
Q 16.21875 49.359375 18.875 46.8125 
Q 21.53125 44.28125 28.8125 42.578125 
L 33.984375 41.40625 
Q 44.234375 39.015625 48.921875 33.890625 
Q 53.609375 28.765625 53.609375 19.921875 
Q 53.609375 9.515625 47.15625 4.046875 
Q 40.71875 -1.421875 28.421875 -1.421875 
Q 23.296875 -1.421875 18.109375 -0.3125 
Q 12.9375 0.78125 7.71875 2.984375 
L 7.71875 13.484375 
Q 13.328125 9.90625 18.328125 8.25 
Q 23.34375 6.59375 28.421875 6.59375 
Q 35.890625 6.59375 40.03125 9.9375 
Q 44.1875 13.28125 44.1875 19.28125 
Q 44.1875 24.75 41.328125 27.625 
Q 38.484375 30.515625 31.390625 32.078125 
L 26.125 33.296875 
Q 15.96875 35.59375 11.375 40.234375 
Q 6.78125 44.875 6.78125 52.6875 
Q 6.78125 62.453125 13.34375 68.328125 
Q 19.921875 74.21875 30.8125 74.21875 
Q 35.015625 74.21875 39.640625 73.265625 
Q 44.28125 72.3125 49.421875 70.40625 
z
" id="DejaVuSansMono-83"/>
      <path d="M 9.625 72.90625 
L 52.875 72.90625 
L 52.875 64.59375 
L 19.484375 64.59375 
L 19.484375 43.015625 
L 51.421875 43.015625 
L 51.421875 34.71875 
L 19.484375 34.71875 
L 19.484375 8.296875 
L 53.8125 8.296875 
L 53.8125 0 
L 9.625 0 
z
" id="DejaVuSansMono-69"/>
      <path d="M 23.875 51.90625 
L 36.1875 51.90625 
L 36.1875 37.109375 
L 23.875 37.109375 
z
M 23.875 14.890625 
L 36.1875 14.890625 
L 36.1875 0 
L 23.875 0 
z
" id="DejaVuSansMono-58"/>
      <path d="M 23.578125 36.625 
Q 23.578125 39.3125 25.453125 41.265625 
Q 27.34375 43.21875 29.984375 43.21875 
Q 32.71875 43.21875 34.671875 41.265625 
Q 36.625 39.3125 36.625 36.625 
Q 36.625 33.890625 34.6875 31.984375 
Q 32.765625 30.078125 29.984375 30.078125 
Q 27.25 30.078125 25.40625 31.9375 
Q 23.578125 33.796875 23.578125 36.625 
z
M 30.078125 66.40625 
Q 23.1875 66.40625 19.796875 58.984375 
Q 16.40625 51.5625 16.40625 36.375 
Q 16.40625 21.234375 19.796875 13.8125 
Q 23.1875 6.390625 30.078125 6.390625 
Q 37.015625 6.390625 40.40625 13.8125 
Q 43.796875 21.234375 43.796875 36.375 
Q 43.796875 51.5625 40.40625 58.984375 
Q 37.015625 66.40625 30.078125 66.40625 
z
M 30.078125 74.21875 
Q 41.75 74.21875 47.734375 64.640625 
Q 53.71875 55.078125 53.71875 36.375 
Q 53.71875 17.71875 47.734375 8.140625 
Q 41.75 -1.421875 30.078125 -1.421875 
Q 18.40625 -1.421875 12.453125 8.140625 
Q 6.5 17.71875 6.5 36.375 
Q 6.5 55.078125 12.453125 64.640625 
Q 18.40625 74.21875 30.078125 74.21875 
z
" id="DejaVuSansMono-48"/>
      <path d="M 23.875 14.890625 
L 36.1875 14.890625 
L 36.1875 0 
L 23.875 0 
z
" id="DejaVuSansMono-46"/>
     </defs>
     <use xlink:href="#DejaVuSansMono-73"/>
     <use x="60.205078" xlink:href="#DejaVuSansMono-110"/>
     <use x="120.410156" xlink:href="#DejaVuSansMono-32"/>
     <use x="180.615234" xlink:href="#DejaVuSansMono-32"/>
     <use x="240.820312" xlink:href="#DejaVuSansMono-82"/>
     <use x="301.025391" xlink:href="#DejaVuSansMono-77"/>
     <use x="361.230469" xlink:href="#DejaVuSansMono-83"/>
     <use x="421.435547" xlink:href="#DejaVuSansMono-69"/>
     <use x="481.640625" xlink:href="#DejaVuSansMono-58"/>
     <use x="541.845703" xlink:href="#DejaVuSansMono-32"/>
     <use x="602.050781" xlink:href="#DejaVuSansMono-48"/>
     <use x="662.255859" xlink:href="#DejaVuSansMono-46"/>
     <use x="722.460938" xlink:href="#DejaVuSansMono-48"/>
    </g>
    <!-- Out RMSE: 0.12198 -->
    <g transform="translate(184.581818 145.095774)scale(0.1 -0.1)">
     <defs>
      <path d="M 44.1875 36.375 
Q 44.1875 52.4375 40.890625 59.328125 
Q 37.59375 66.21875 30.078125 66.21875 
Q 22.609375 66.21875 19.3125 59.328125 
Q 16.015625 52.4375 16.015625 36.375 
Q 16.015625 20.359375 19.3125 13.46875 
Q 22.609375 6.59375 30.078125 6.59375 
Q 37.59375 6.59375 40.890625 13.453125 
Q 44.1875 20.3125 44.1875 36.375 
z
M 54.5 36.375 
Q 54.5 17.328125 48.46875 7.953125 
Q 42.4375 -1.421875 30.078125 -1.421875 
Q 17.71875 -1.421875 11.71875 7.90625 
Q 5.71875 17.234375 5.71875 36.375 
Q 5.71875 55.46875 11.75 64.84375 
Q 17.78125 74.21875 30.078125 74.21875 
Q 42.4375 74.21875 48.46875 64.84375 
Q 54.5 55.46875 54.5 36.375 
z
" id="DejaVuSansMono-79"/>
      <path d="M 9.515625 20.703125 
L 9.515625 54.59375 
L 18.5 54.59375 
L 18.5 20.703125 
Q 18.5 13.328125 21.109375 9.859375 
Q 23.734375 6.390625 29.203125 6.390625 
Q 35.546875 6.390625 38.90625 10.859375 
Q 42.28125 15.328125 42.28125 23.6875 
L 42.28125 54.59375 
L 51.3125 54.59375 
L 51.3125 0 
L 42.28125 0 
L 42.28125 8.203125 
Q 39.890625 3.46875 35.765625 1.015625 
Q 31.640625 -1.421875 26.125 -1.421875 
Q 17.71875 -1.421875 13.609375 4.078125 
Q 9.515625 9.578125 9.515625 20.703125 
z
" id="DejaVuSansMono-117"/>
      <path d="M 29.984375 70.21875 
L 29.984375 54.6875 
L 50.390625 54.6875 
L 50.390625 47.703125 
L 29.984375 47.703125 
L 29.984375 18.015625 
Q 29.984375 11.96875 32.28125 9.5625 
Q 34.578125 7.171875 40.28125 7.171875 
L 50.390625 7.171875 
L 50.390625 0 
L 39.40625 0 
Q 29.296875 0 25.140625 4.046875 
Q 21 8.109375 21 18.015625 
L 21 47.703125 
L 6.390625 47.703125 
L 6.390625 54.6875 
L 21 54.6875 
L 21 70.21875 
z
" id="DejaVuSansMono-116"/>
      <path d="M 13.1875 8.296875 
L 28.515625 8.296875 
L 28.515625 64.015625 
L 12.015625 60.296875 
L 12.015625 69.28125 
L 28.421875 72.90625 
L 38.28125 72.90625 
L 38.28125 8.296875 
L 53.421875 8.296875 
L 53.421875 0 
L 13.1875 0 
z
" id="DejaVuSansMono-49"/>
      <path d="M 18.21875 8.296875 
L 51.703125 8.296875 
L 51.703125 0 
L 7.421875 0 
L 7.421875 8.296875 
Q 16.546875 17.921875 23.375 25.296875 
Q 30.21875 32.671875 32.8125 35.6875 
Q 37.703125 41.65625 39.40625 45.34375 
Q 41.109375 49.03125 41.109375 52.875 
Q 41.109375 58.984375 37.515625 62.453125 
Q 33.9375 65.921875 27.6875 65.921875 
Q 23.25 65.921875 18.359375 64.3125 
Q 13.484375 62.703125 8.015625 59.421875 
L 8.015625 69.390625 
Q 13.03125 71.78125 17.890625 73 
Q 22.75 74.21875 27.484375 74.21875 
Q 38.1875 74.21875 44.703125 68.53125 
Q 51.21875 62.84375 51.21875 53.609375 
Q 51.21875 48.921875 49.046875 44.234375 
Q 46.875 39.546875 42 33.890625 
Q 39.265625 30.71875 34.0625 25.09375 
Q 28.859375 19.484375 18.21875 8.296875 
z
" id="DejaVuSansMono-50"/>
      <path d="M 29.109375 32.328125 
Q 35.40625 32.328125 38.984375 36.859375 
Q 42.578125 41.40625 42.578125 49.421875 
Q 42.578125 57.421875 38.984375 61.953125 
Q 35.40625 66.5 29.109375 66.5 
Q 22.5625 66.5 19.234375 62.171875 
Q 15.921875 57.859375 15.921875 49.421875 
Q 15.921875 40.921875 19.21875 36.625 
Q 22.515625 32.328125 29.109375 32.328125 
z
M 11.53125 1.515625 
L 11.53125 10.59375 
Q 14.59375 8.796875 18.0625 7.84375 
Q 21.53125 6.890625 25.296875 6.890625 
Q 34.671875 6.890625 39.46875 13.9375 
Q 44.28125 21 44.28125 34.71875 
Q 42 29.828125 37.84375 27.21875 
Q 33.6875 24.609375 28.328125 24.609375 
Q 17.78125 24.609375 11.984375 31.09375 
Q 6.203125 37.59375 6.203125 49.515625 
Q 6.203125 61.28125 12.125 67.75 
Q 18.0625 74.21875 28.90625 74.21875 
Q 41.609375 74.21875 47.515625 65.078125 
Q 53.421875 55.953125 53.421875 36.375 
Q 53.421875 17.96875 46.3125 8.265625 
Q 39.203125 -1.421875 25.6875 -1.421875 
Q 22.125 -1.421875 18.5 -0.65625 
Q 14.890625 0.09375 11.53125 1.515625 
z
" id="DejaVuSansMono-57"/>
      <path d="M 30.078125 34.625 
Q 23.484375 34.625 19.890625 30.9375 
Q 16.3125 27.25 16.3125 20.515625 
Q 16.3125 13.765625 19.9375 10.03125 
Q 23.578125 6.296875 30.078125 6.296875 
Q 36.71875 6.296875 40.296875 9.984375 
Q 43.890625 13.671875 43.890625 20.515625 
Q 43.890625 27.203125 40.25 30.90625 
Q 36.625 34.625 30.078125 34.625 
z
M 21.484375 38.71875 
Q 15.1875 40.328125 11.640625 44.71875 
Q 8.109375 49.125 8.109375 55.328125 
Q 8.109375 64.015625 14.015625 69.109375 
Q 19.921875 74.21875 30.078125 74.21875 
Q 40.28125 74.21875 46.1875 69.109375 
Q 52.09375 64.015625 52.09375 55.328125 
Q 52.09375 49.125 48.546875 44.71875 
Q 45.015625 40.328125 38.71875 38.71875 
Q 46.046875 37.109375 49.921875 32.21875 
Q 53.8125 27.34375 53.8125 19.578125 
Q 53.8125 9.71875 47.515625 4.140625 
Q 41.21875 -1.421875 30.078125 -1.421875 
Q 18.953125 -1.421875 12.671875 4.125 
Q 6.390625 9.671875 6.390625 19.484375 
Q 6.390625 27.296875 10.265625 32.203125 
Q 14.15625 37.109375 21.484375 38.71875 
z
M 17.921875 54.390625 
Q 17.921875 48.53125 21.046875 45.453125 
Q 24.171875 42.390625 30.078125 42.390625 
Q 36.03125 42.390625 39.15625 45.453125 
Q 42.28125 48.53125 42.28125 54.390625 
Q 42.28125 60.359375 39.171875 63.484375 
Q 36.078125 66.609375 30.078125 66.609375 
Q 24.171875 66.609375 21.046875 63.453125 
Q 17.921875 60.296875 17.921875 54.390625 
z
" id="DejaVuSansMono-56"/>
     </defs>
     <use xlink:href="#DejaVuSansMono-79"/>
     <use x="60.205078" xlink:href="#DejaVuSansMono-117"/>
     <use x="120.410156" xlink:href="#DejaVuSansMono-116"/>
     <use x="180.615234" xlink:href="#DejaVuSansMono-32"/>
     <use x="240.820312" xlink:href="#DejaVuSansMono-82"/>
     <use x="301.025391" xlink:href="#DejaVuSansMono-77"/>
     <use x="361.230469" xlink:href="#DejaVuSansMono-83"/>
     <use x="421.435547" xlink:href="#DejaVuSansMono-69"/>
     <use x="481.640625" xlink:href="#DejaVuSansMono-58"/>
     <use x="541.845703" xlink:href="#DejaVuSansMono-32"/>
     <use x="602.050781" xlink:href="#DejaVuSansMono-48"/>
     <use x="662.255859" xlink:href="#DejaVuSansMono-46"/>
     <use x="722.460938" xlink:href="#DejaVuSansMono-49"/>
     <use x="782.666016" xlink:href="#DejaVuSansMono-50"/>
     <use x="842.871094" xlink:href="#DejaVuSansMono-49"/>
     <use x="903.076172" xlink:href="#DejaVuSansMono-57"/>
     <use x="963.28125" xlink:href="#DejaVuSansMono-56"/>
    </g>
   </g>
   <g id="text_17">
    <!-- ..\WaveformData\t4_traces\inv_t4_invSim_660_200Traces fitting using transfer functions -->
    <g transform="translate(325.554375 28.56)scale(0.12 -0.12)">
     <defs>
      <path d="M 8.296875 72.90625 
L 33.6875 -9.28125 
L 25.390625 -9.28125 
L 0 72.90625 
z
" id="DejaVuSans-92"/>
      <path d="M 3.328125 72.90625 
L 13.28125 72.90625 
L 28.609375 11.28125 
L 43.890625 72.90625 
L 54.984375 72.90625 
L 70.3125 11.28125 
L 85.59375 72.90625 
L 95.609375 72.90625 
L 77.296875 0 
L 64.890625 0 
L 49.515625 63.28125 
L 33.984375 0 
L 21.578125 0 
z
" id="DejaVuSans-87"/>
      <path d="M 2.984375 54.6875 
L 12.5 54.6875 
L 29.59375 8.796875 
L 46.6875 54.6875 
L 56.203125 54.6875 
L 35.6875 0 
L 23.484375 0 
z
" id="DejaVuSans-118"/>
      <path d="M 37.109375 75.984375 
L 37.109375 68.5 
L 28.515625 68.5 
Q 23.6875 68.5 21.796875 66.546875 
Q 19.921875 64.59375 19.921875 59.515625 
L 19.921875 54.6875 
L 34.71875 54.6875 
L 34.71875 47.703125 
L 19.921875 47.703125 
L 19.921875 0 
L 10.890625 0 
L 10.890625 47.703125 
L 2.296875 47.703125 
L 2.296875 54.6875 
L 10.890625 54.6875 
L 10.890625 58.5 
Q 10.890625 67.625 15.140625 71.796875 
Q 19.390625 75.984375 28.609375 75.984375 
z
" id="DejaVuSans-102"/>
      <path d="M 41.109375 46.296875 
Q 39.59375 47.171875 37.8125 47.578125 
Q 36.03125 48 33.890625 48 
Q 26.265625 48 22.1875 43.046875 
Q 18.109375 38.09375 18.109375 28.8125 
L 18.109375 0 
L 9.078125 0 
L 9.078125 54.6875 
L 18.109375 54.6875 
L 18.109375 46.1875 
Q 20.953125 51.171875 25.484375 53.578125 
Q 30.03125 56 36.53125 56 
Q 37.453125 56 38.578125 55.875 
Q 39.703125 55.765625 41.0625 55.515625 
z
" id="DejaVuSans-114"/>
      <path d="M 19.671875 64.796875 
L 19.671875 8.109375 
L 31.59375 8.109375 
Q 46.6875 8.109375 53.6875 14.9375 
Q 60.6875 21.78125 60.6875 36.53125 
Q 60.6875 51.171875 53.6875 57.984375 
Q 46.6875 64.796875 31.59375 64.796875 
z
M 9.8125 72.90625 
L 30.078125 72.90625 
Q 51.265625 72.90625 61.171875 64.09375 
Q 71.09375 55.28125 71.09375 36.53125 
Q 71.09375 17.671875 61.125 8.828125 
Q 51.171875 0 30.078125 0 
L 9.8125 0 
z
" id="DejaVuSans-68"/>
      <path d="M 50.984375 -16.609375 
L 50.984375 -23.578125 
L -0.984375 -23.578125 
L -0.984375 -16.609375 
z
" id="DejaVuSans-95"/>
      <path d="M 48.78125 52.59375 
L 48.78125 44.1875 
Q 44.96875 46.296875 41.140625 47.34375 
Q 37.3125 48.390625 33.40625 48.390625 
Q 24.65625 48.390625 19.8125 42.84375 
Q 14.984375 37.3125 14.984375 27.296875 
Q 14.984375 17.28125 19.8125 11.734375 
Q 24.65625 6.203125 33.40625 6.203125 
Q 37.3125 6.203125 41.140625 7.25 
Q 44.96875 8.296875 48.78125 10.40625 
L 48.78125 2.09375 
Q 45.015625 0.34375 40.984375 -0.53125 
Q 36.96875 -1.421875 32.421875 -1.421875 
Q 20.0625 -1.421875 12.78125 6.34375 
Q 5.515625 14.109375 5.515625 27.296875 
Q 5.515625 40.671875 12.859375 48.328125 
Q 20.21875 56 33.015625 56 
Q 37.15625 56 41.109375 55.140625 
Q 45.0625 54.296875 48.78125 52.59375 
z
" id="DejaVuSans-99"/>
      <path d="M 54.890625 33.015625 
L 54.890625 0 
L 45.90625 0 
L 45.90625 32.71875 
Q 45.90625 40.484375 42.875 44.328125 
Q 39.84375 48.1875 33.796875 48.1875 
Q 26.515625 48.1875 22.3125 43.546875 
Q 18.109375 38.921875 18.109375 30.90625 
L 18.109375 0 
L 9.078125 0 
L 9.078125 54.6875 
L 18.109375 54.6875 
L 18.109375 46.1875 
Q 21.34375 51.125 25.703125 53.5625 
Q 30.078125 56 35.796875 56 
Q 45.21875 56 50.046875 50.171875 
Q 54.890625 44.34375 54.890625 33.015625 
z
" id="DejaVuSans-110"/>
      <path d="M 53.515625 70.515625 
L 53.515625 60.890625 
Q 47.90625 63.578125 42.921875 64.890625 
Q 37.9375 66.21875 33.296875 66.21875 
Q 25.25 66.21875 20.875 63.09375 
Q 16.5 59.96875 16.5 54.203125 
Q 16.5 49.359375 19.40625 46.890625 
Q 22.3125 44.4375 30.421875 42.921875 
L 36.375 41.703125 
Q 47.40625 39.59375 52.65625 34.296875 
Q 57.90625 29 57.90625 20.125 
Q 57.90625 9.515625 50.796875 4.046875 
Q 43.703125 -1.421875 29.984375 -1.421875 
Q 24.8125 -1.421875 18.96875 -0.25 
Q 13.140625 0.921875 6.890625 3.21875 
L 6.890625 13.375 
Q 12.890625 10.015625 18.65625 8.296875 
Q 24.421875 6.59375 29.984375 6.59375 
Q 38.421875 6.59375 43.015625 9.90625 
Q 47.609375 13.234375 47.609375 19.390625 
Q 47.609375 24.75 44.3125 27.78125 
Q 41.015625 30.8125 33.5 32.328125 
L 27.484375 33.5 
Q 16.453125 35.6875 11.515625 40.375 
Q 6.59375 45.0625 6.59375 53.421875 
Q 6.59375 63.09375 13.40625 68.65625 
Q 20.21875 74.21875 32.171875 74.21875 
Q 37.3125 74.21875 42.625 73.28125 
Q 47.953125 72.359375 53.515625 70.515625 
z
" id="DejaVuSans-83"/>
      <path d="M 8.5 21.578125 
L 8.5 54.6875 
L 17.484375 54.6875 
L 17.484375 21.921875 
Q 17.484375 14.15625 20.5 10.265625 
Q 23.53125 6.390625 29.59375 6.390625 
Q 36.859375 6.390625 41.078125 11.03125 
Q 45.3125 15.671875 45.3125 23.6875 
L 45.3125 54.6875 
L 54.296875 54.6875 
L 54.296875 0 
L 45.3125 0 
L 45.3125 8.40625 
Q 42.046875 3.421875 37.71875 1 
Q 33.40625 -1.421875 27.6875 -1.421875 
Q 18.265625 -1.421875 13.375 4.4375 
Q 8.5 10.296875 8.5 21.578125 
z
M 31.109375 56 
z
" id="DejaVuSans-117"/>
     </defs>
     <use xlink:href="#DejaVuSans-46"/>
     <use x="31.787109" xlink:href="#DejaVuSans-46"/>
     <use x="63.574219" xlink:href="#DejaVuSans-92"/>
     <use x="97.265625" xlink:href="#DejaVuSans-87"/>
     <use x="189.767578" xlink:href="#DejaVuSans-97"/>
     <use x="251.046875" xlink:href="#DejaVuSans-118"/>
     <use x="310.226562" xlink:href="#DejaVuSans-101"/>
     <use x="371.75" xlink:href="#DejaVuSans-102"/>
     <use x="406.955078" xlink:href="#DejaVuSans-111"/>
     <use x="468.136719" xlink:href="#DejaVuSans-114"/>
     <use x="507.5" xlink:href="#DejaVuSans-109"/>
     <use x="604.912109" xlink:href="#DejaVuSans-68"/>
     <use x="681.914062" xlink:href="#DejaVuSans-97"/>
     <use x="743.193359" xlink:href="#DejaVuSans-116"/>
     <use x="782.402344" xlink:href="#DejaVuSans-97"/>
     <use x="843.681641" xlink:href="#DejaVuSans-92"/>
     <use x="877.373047" xlink:href="#DejaVuSans-116"/>
     <use x="916.582031" xlink:href="#DejaVuSans-52"/>
     <use x="980.205078" xlink:href="#DejaVuSans-95"/>
     <use x="1030.205078" xlink:href="#DejaVuSans-116"/>
     <use x="1069.414062" xlink:href="#DejaVuSans-114"/>
     <use x="1110.527344" xlink:href="#DejaVuSans-97"/>
     <use x="1171.806641" xlink:href="#DejaVuSans-99"/>
     <use x="1226.787109" xlink:href="#DejaVuSans-101"/>
     <use x="1288.310547" xlink:href="#DejaVuSans-115"/>
     <use x="1340.410156" xlink:href="#DejaVuSans-92"/>
     <use x="1374.101562" xlink:href="#DejaVuSans-105"/>
     <use x="1401.884766" xlink:href="#DejaVuSans-110"/>
     <use x="1465.263672" xlink:href="#DejaVuSans-118"/>
     <use x="1524.443359" xlink:href="#DejaVuSans-95"/>
     <use x="1574.443359" xlink:href="#DejaVuSans-116"/>
     <use x="1613.652344" xlink:href="#DejaVuSans-52"/>
     <use x="1677.275391" xlink:href="#DejaVuSans-95"/>
     <use x="1727.275391" xlink:href="#DejaVuSans-105"/>
     <use x="1755.058594" xlink:href="#DejaVuSans-110"/>
     <use x="1818.4375" xlink:href="#DejaVuSans-118"/>
     <use x="1877.617188" xlink:href="#DejaVuSans-83"/>
     <use x="1941.09375" xlink:href="#DejaVuSans-105"/>
     <use x="1968.876953" xlink:href="#DejaVuSans-109"/>
     <use x="2066.289062" xlink:href="#DejaVuSans-95"/>
     <use x="2116.289062" xlink:href="#DejaVuSans-54"/>
     <use x="2179.912109" xlink:href="#DejaVuSans-54"/>
     <use x="2243.535156" xlink:href="#DejaVuSans-48"/>
     <use x="2307.158203" xlink:href="#DejaVuSans-95"/>
     <use x="2357.158203" xlink:href="#DejaVuSans-50"/>
     <use x="2420.78125" xlink:href="#DejaVuSans-48"/>
     <use x="2484.404297" xlink:href="#DejaVuSans-48"/>
     <use x="2548.027344" xlink:href="#DejaVuSans-84"/>
     <use x="2594.361328" xlink:href="#DejaVuSans-114"/>
     <use x="2635.474609" xlink:href="#DejaVuSans-97"/>
     <use x="2696.753906" xlink:href="#DejaVuSans-99"/>
     <use x="2751.734375" xlink:href="#DejaVuSans-101"/>
     <use x="2813.257812" xlink:href="#DejaVuSans-115"/>
     <use x="2865.357422" xlink:href="#DejaVuSans-32"/>
     <use x="2897.144531" xlink:href="#DejaVuSans-102"/>
     <use x="2932.349609" xlink:href="#DejaVuSans-105"/>
     <use x="2960.132812" xlink:href="#DejaVuSans-116"/>
     <use x="2999.341797" xlink:href="#DejaVuSans-116"/>
     <use x="3038.550781" xlink:href="#DejaVuSans-105"/>
     <use x="3066.333984" xlink:href="#DejaVuSans-110"/>
     <use x="3129.712891" xlink:href="#DejaVuSans-103"/>
     <use x="3193.189453" xlink:href="#DejaVuSans-32"/>
     <use x="3224.976562" xlink:href="#DejaVuSans-117"/>
     <use x="3288.355469" xlink:href="#DejaVuSans-115"/>
     <use x="3340.455078" xlink:href="#DejaVuSans-105"/>
     <use x="3368.238281" xlink:href="#DejaVuSans-110"/>
     <use x="3431.617188" xlink:href="#DejaVuSans-103"/>
     <use x="3495.09375" xlink:href="#DejaVuSans-32"/>
     <use x="3526.880859" xlink:href="#DejaVuSans-116"/>
     <use x="3566.089844" xlink:href="#DejaVuSans-114"/>
     <use x="3607.203125" xlink:href="#DejaVuSans-97"/>
     <use x="3668.482422" xlink:href="#DejaVuSans-110"/>
     <use x="3731.861328" xlink:href="#DejaVuSans-115"/>
     <use x="3783.960938" xlink:href="#DejaVuSans-102"/>
     <use x="3819.166016" xlink:href="#DejaVuSans-101"/>
     <use x="3880.689453" xlink:href="#DejaVuSans-114"/>
     <use x="3921.802734" xlink:href="#DejaVuSans-32"/>
     <use x="3953.589844" xlink:href="#DejaVuSans-102"/>
     <use x="3988.794922" xlink:href="#DejaVuSans-117"/>
     <use x="4052.173828" xlink:href="#DejaVuSans-110"/>
     <use x="4115.552734" xlink:href="#DejaVuSans-99"/>
     <use x="4170.533203" xlink:href="#DejaVuSans-116"/>
     <use x="4209.742188" xlink:href="#DejaVuSans-105"/>
     <use x="4237.525391" xlink:href="#DejaVuSans-111"/>
     <use x="4298.707031" xlink:href="#DejaVuSans-110"/>
     <use x="4362.085938" xlink:href="#DejaVuSans-115"/>
    </g>
   </g>
   <g id="legend_1">
    <g id="patch_7">
     <path d="M 151 176.29625 
L 368.865625 176.29625 
Q 370.865625 176.29625 370.865625 174.29625 
L 370.865625 116.58375 
Q 370.865625 114.58375 368.865625 114.58375 
L 151 114.58375 
Q 149 114.58375 149 116.58375 
L 149 174.29625 
Q 149 176.29625 151 176.29625 
z
" style="fill:#ffffff;opacity:0.8;stroke:#cccccc;stroke-linejoin:miter;"/>
    </g>
    <g id="line2d_17">
     <path d="M 153 122.682187 
L 173 122.682187 
" style="fill:none;stroke:#ff0000;stroke-linecap:square;stroke-width:1.5;"/>
    </g>
    <g id="line2d_18"/>
    <g id="text_18">
     <!-- Input -->
     <g transform="translate(181 126.182187)scale(0.1 -0.1)">
      <defs>
       <path d="M 9.8125 72.90625 
L 19.671875 72.90625 
L 19.671875 0 
L 9.8125 0 
z
" id="DejaVuSans-73"/>
       <path d="M 18.109375 8.203125 
L 18.109375 -20.796875 
L 9.078125 -20.796875 
L 9.078125 54.6875 
L 18.109375 54.6875 
L 18.109375 46.390625 
Q 20.953125 51.265625 25.265625 53.625 
Q 29.59375 56 35.59375 56 
Q 45.5625 56 51.78125 48.09375 
Q 58.015625 40.1875 58.015625 27.296875 
Q 58.015625 14.40625 51.78125 6.484375 
Q 45.5625 -1.421875 35.59375 -1.421875 
Q 29.59375 -1.421875 25.265625 0.953125 
Q 20.953125 3.328125 18.109375 8.203125 
z
M 48.6875 27.296875 
Q 48.6875 37.203125 44.609375 42.84375 
Q 40.53125 48.484375 33.40625 48.484375 
Q 26.265625 48.484375 22.1875 42.84375 
Q 18.109375 37.203125 18.109375 27.296875 
Q 18.109375 17.390625 22.1875 11.75 
Q 26.265625 6.109375 33.40625 6.109375 
Q 40.53125 6.109375 44.609375 11.75 
Q 48.6875 17.390625 48.6875 27.296875 
z
" id="DejaVuSans-112"/>
      </defs>
      <use xlink:href="#DejaVuSans-73"/>
      <use x="29.492188" xlink:href="#DejaVuSans-110"/>
      <use x="92.871094" xlink:href="#DejaVuSans-112"/>
      <use x="156.347656" xlink:href="#DejaVuSans-117"/>
      <use x="219.726562" xlink:href="#DejaVuSans-116"/>
     </g>
    </g>
    <g id="line2d_19">
     <path d="M 153 137.360312 
L 173 137.360312 
" style="fill:none;stroke:#008000;stroke-linecap:square;stroke-width:1.5;"/>
    </g>
    <g id="line2d_20"/>
    <g id="text_19">
     <!-- Output -->
     <g transform="translate(181 140.860312)scale(0.1 -0.1)">
      <defs>
       <path d="M 39.40625 66.21875 
Q 28.65625 66.21875 22.328125 58.203125 
Q 16.015625 50.203125 16.015625 36.375 
Q 16.015625 22.609375 22.328125 14.59375 
Q 28.65625 6.59375 39.40625 6.59375 
Q 50.140625 6.59375 56.421875 14.59375 
Q 62.703125 22.609375 62.703125 36.375 
Q 62.703125 50.203125 56.421875 58.203125 
Q 50.140625 66.21875 39.40625 66.21875 
z
M 39.40625 74.21875 
Q 54.734375 74.21875 63.90625 63.9375 
Q 73.09375 53.65625 73.09375 36.375 
Q 73.09375 19.140625 63.90625 8.859375 
Q 54.734375 -1.421875 39.40625 -1.421875 
Q 24.03125 -1.421875 14.8125 8.828125 
Q 5.609375 19.09375 5.609375 36.375 
Q 5.609375 53.65625 14.8125 63.9375 
Q 24.03125 74.21875 39.40625 74.21875 
z
" id="DejaVuSans-79"/>
      </defs>
      <use xlink:href="#DejaVuSans-79"/>
      <use x="78.710938" xlink:href="#DejaVuSans-117"/>
      <use x="142.089844" xlink:href="#DejaVuSans-116"/>
      <use x="181.298828" xlink:href="#DejaVuSans-112"/>
      <use x="244.775391" xlink:href="#DejaVuSans-117"/>
      <use x="308.154297" xlink:href="#DejaVuSans-116"/>
     </g>
    </g>
    <g id="line2d_21">
     <path d="M 153 152.038437 
L 173 152.038437 
" style="fill:none;stroke:#008000;stroke-dasharray:5.55,2.4;stroke-dashoffset:0;stroke-width:1.5;"/>
    </g>
    <g id="line2d_22"/>
    <g id="text_20">
     <!-- Output fitting from transfer functions -->
     <g transform="translate(181 155.538437)scale(0.1 -0.1)">
      <use xlink:href="#DejaVuSans-79"/>
      <use x="78.710938" xlink:href="#DejaVuSans-117"/>
      <use x="142.089844" xlink:href="#DejaVuSans-116"/>
      <use x="181.298828" xlink:href="#DejaVuSans-112"/>
      <use x="244.775391" xlink:href="#DejaVuSans-117"/>
      <use x="308.154297" xlink:href="#DejaVuSans-116"/>
      <use x="347.363281" xlink:href="#DejaVuSans-32"/>
      <use x="379.150391" xlink:href="#DejaVuSans-102"/>
      <use x="414.355469" xlink:href="#DejaVuSans-105"/>
      <use x="442.138672" xlink:href="#DejaVuSans-116"/>
      <use x="481.347656" xlink:href="#DejaVuSans-116"/>
      <use x="520.556641" xlink:href="#DejaVuSans-105"/>
      <use x="548.339844" xlink:href="#DejaVuSans-110"/>
      <use x="611.71875" xlink:href="#DejaVuSans-103"/>
      <use x="675.195312" xlink:href="#DejaVuSans-32"/>
      <use x="706.982422" xlink:href="#DejaVuSans-102"/>
      <use x="742.1875" xlink:href="#DejaVuSans-114"/>
      <use x="781.050781" xlink:href="#DejaVuSans-111"/>
      <use x="842.232422" xlink:href="#DejaVuSans-109"/>
      <use x="939.644531" xlink:href="#DejaVuSans-32"/>
      <use x="971.431641" xlink:href="#DejaVuSans-116"/>
      <use x="1010.640625" xlink:href="#DejaVuSans-114"/>
      <use x="1051.753906" xlink:href="#DejaVuSans-97"/>
      <use x="1113.033203" xlink:href="#DejaVuSans-110"/>
      <use x="1176.412109" xlink:href="#DejaVuSans-115"/>
      <use x="1228.511719" xlink:href="#DejaVuSans-102"/>
      <use x="1263.716797" xlink:href="#DejaVuSans-101"/>
      <use x="1325.240234" xlink:href="#DejaVuSans-114"/>
      <use x="1366.353516" xlink:href="#DejaVuSans-32"/>
      <use x="1398.140625" xlink:href="#DejaVuSans-102"/>
      <use x="1433.345703" xlink:href="#DejaVuSans-117"/>
      <use x="1496.724609" xlink:href="#DejaVuSans-110"/>
      <use x="1560.103516" xlink:href="#DejaVuSans-99"/>
      <use x="1615.083984" xlink:href="#DejaVuSans-116"/>
      <use x="1654.292969" xlink:href="#DejaVuSans-105"/>
      <use x="1682.076172" xlink:href="#DejaVuSans-111"/>
      <use x="1743.257812" xlink:href="#DejaVuSans-110"/>
      <use x="1806.636719" xlink:href="#DejaVuSans-115"/>
     </g>
    </g>
    <g id="line2d_23">
     <path d="M 153 166.716563 
L 173 166.716563 
" style="fill:none;stroke:#008000;stroke-dasharray:9.6,2.4,1.5,2.4;stroke-dashoffset:0;stroke-width:1.5;"/>
    </g>
    <g id="line2d_24"/>
    <g id="text_21">
     <!-- fitting error -->
     <g transform="translate(181 170.216563)scale(0.1 -0.1)">
      <use xlink:href="#DejaVuSans-102"/>
      <use x="35.205078" xlink:href="#DejaVuSans-105"/>
      <use x="62.988281" xlink:href="#DejaVuSans-116"/>
      <use x="102.197266" xlink:href="#DejaVuSans-116"/>
      <use x="141.40625" xlink:href="#DejaVuSans-105"/>
      <use x="169.189453" xlink:href="#DejaVuSans-110"/>
      <use x="232.568359" xlink:href="#DejaVuSans-103"/>
      <use x="296.044922" xlink:href="#DejaVuSans-32"/>
      <use x="327.832031" xlink:href="#DejaVuSans-101"/>
      <use x="389.355469" xlink:href="#DejaVuSans-114"/>
      <use x="428.71875" xlink:href="#DejaVuSans-114"/>
      <use x="467.582031" xlink:href="#DejaVuSans-111"/>
      <use x="528.763672" xlink:href="#DejaVuSans-114"/>
     </g>
    </g>
   </g>
  </g>
 </g>
 <defs>
  <clipPath id="pa92873d51b">
   <rect height="221.76" width="892.8" x="144" y="34.56"/>
  </clipPath>
 </defs>
</svg>
